<svg data-name="Layer 1" xmlns="http://www.w3.org/2000/svg" viewBox="0 0 136.3 77.6"><path d="M58.9 53.9c-.1 7.3-4.4 12.3-11.8 14a33.6 33.6 0 0 1-7.3.7H24.6a1.3 1.3 0 0 1-1.5-1.2 1.3 1.3 0 0 1 0-.3V40.5a1.3 1.3 0 0 1 1.2-1.5 1.3 1.3 0 0 1 .3 0h15.6a35.8 35.8 0 0 1 6.7.6c7.3 1.7 11.8 6.8 12 14.2"/><path d="M24.7 35.8a1.4 1.4 0 0 1-1.6-1.2 1.3 1.3 0 0 1 0-.3V10.4a1.3 1.3 0 0 1 1.2-1.5 1.4 1.4 0 0 1 .4 0h13.2a37.2 37.2 0 0 1 6.3.6c6.8 1.5 11 6.1 11 12.9s-4 11.3-11 12.8a34.8 34.8 0 0 1-6.7.6H24.7" fill="#fddc00"/><path d="M88.6 52.2V39.8h5.8a4 4 0 0 1 2 .7 2.2 2.2 0 0 1 .9 1 3.6 3.6 0 0 1 .2 1.3 3.5 3.5 0 0 1-.1 1.3 2.7 2.7 0 0 1-.8 1l-.6.4.6.3A2.3 2.3 0 0 1 98 48v.9a4 4 0 0 1-.3 1.4 2.5 2.5 0 0 1-1.1 1.3 4.7 4.7 0 0 1-1.8.6 28 28 0 0 1-3 0h-3Zm2.5-2h2a7 7 0 0 0 1 0 1.4 1.4 0 0 0 1.2-1 2.3 2.3 0 0 0 0-1.1 1.4 1.4 0 0 0-1.1-1.3 3.6 3.6 0 0 0-1 0h-2.1Zm0-8.5v3.1h2.4a1.3 1.3 0 0 0 1.3-.8 2.5 2.5 0 0 0 .1-.4 1.9 1.9 0 0 0 0-1 1.2 1.2 0 0 0-1.2-.8H91ZM65.7 39.8h4.6a7.1 7.1 0 0 1 2.5.5 3.7 3.7 0 0 1 1 .6 4.3 4.3 0 0 1 1.4 2.5 7 7 0 0 1 .3 1.8 3.4 3.4 0 0 0 0 .4 1.2 1.2 0 0 1 0 .4 4.7 4.7 0 0 0 0 1 8 8 0 0 1-.6 2.6 4.5 4.5 0 0 1-.8 1.2 3.5 3.5 0 0 1-.9.7 4.2 4.2 0 0 1-1.2.5l-1.1.2a23 23 0 0 1-2.4 0h-2.9Zm2.5 10.4h2.4a2.3 2.3 0 0 0 1.4-.7 2.9 2.9 0 0 0 .7-1.4A10.8 10.8 0 0 0 73 46v-1a6.2 6.2 0 0 0-.3-1.6 2.3 2.3 0 0 0-.8-1 2.8 2.8 0 0 0-1.5-.6h-2ZM77.1 39.8h4.7a6.8 6.8 0 0 1 2.4.5 4.1 4.1 0 0 1 1 .6 4.2 4.2 0 0 1 1.5 2.4 7.1 7.1 0 0 1 .3 2 5.8 5.8 0 0 1 0 .6v1.4a7.2 7.2 0 0 1-.8 2.7 3.9 3.9 0 0 1-1.6 1.6 5.6 5.6 0 0 1-1.6.5 8.2 8.2 0 0 1-1.4.1H77Zm2.6 10.4a13.6 13.6 0 0 0 2.5 0 2 2 0 0 0 1.2-.6 2.8 2.8 0 0 0 .8-1.5 9.6 9.6 0 0 0 0-3.7 4.4 4.4 0 0 0-.4-1.4.8.8 0 0 0-.1-.3 2.6 2.6 0 0 0-2-.9h-2ZM83.4 66.8v1.6a7.1 7.1 0 0 0-1 0 3 3 0 0 1-1.1 0 1.2 1.2 0 0 1-.9-.7l-.2-.4a3.4 3.4 0 0 1-1.3 1 3.5 3.5 0 0 1-1 .2 9.2 9.2 0 0 1-1.1 0 2.5 2.5 0 0 1-1.3-.4 2 2 0 0 1-.7-1.2 4.2 4.2 0 0 1-.1-1 2.1 2.1 0 0 1 .5-1.6 2.9 2.9 0 0 1 1.2-.7 8.1 8.1 0 0 1 1.8-.4l1.4-.2a2.2 2.2 0 0 0 .5 0 4.6 4.6 0 0 0 0-.9 1.2 1.2 0 0 0-1-1 2.4 2.4 0 0 0-1.4 0 2.2 2.2 0 0 0-1.2 1l-.1.1-1.6-1a3.3 3.3 0 0 1 .8-1 3.6 3.6 0 0 1 1-.6 7.4 7.4 0 0 1 1-.2 8 8 0 0 1 1.5 0 4.7 4.7 0 0 1 2.1.5 2.3 2.3 0 0 1 1.2 1.5 5.8 5.8 0 0 1 .1 1.3V66.4a.5.5 0 0 0 .7.5Zm-3.2-2.5-.8.1a5.3 5.3 0 0 0-1.3.3 1.3 1.3 0 0 0-1 1 1 1 0 0 0 .6 1.1 2 2 0 0 0 1.4-.1 1.6 1.6 0 0 0 1-1.5v-.9ZM113.2 66.8v1.6a2.2 2.2 0 0 1-.8 0h-1a1.4 1.4 0 0 1-1.2-.8v-.2h-.1a3.5 3.5 0 0 1-1.7 1 4.6 4.6 0 0 1-.8 0 8.8 8.8 0 0 1-.9 0 2.6 2.6 0 0 1-1.3-.3 2 2 0 0 1-.5-.5 2.2 2.2 0 0 1-.4-1.4 4.8 4.8 0 0 1 .1-1 2.1 2.1 0 0 1 1-1.4 5.4 5.4 0 0 1 1.8-.6l1.2-.2 1.3-.1a2 2 0 0 0 0-1 1.2 1.2 0 0 0-.9-.8 2.4 2.4 0 0 0-2.1.4 8.6 8.6 0 0 0-.7.7l-1.6-1a2.7 2.7 0 0 1 .8-1 4 4 0 0 1 1.8-.9 6.9 6.9 0 0 1 1.9 0 4.8 4.8 0 0 1 1.8.4 2.4 2.4 0 0 1 1.3 1.7 4.4 4.4 0 0 1 .1.7v3.3a8.3 8.3 0 0 0 0 1 .5.5 0 0 0 .5.4h.4Zm-3.2-2.4h-.3l-1.1.1a2.7 2.7 0 0 0-1 .3 1.2 1.2 0 0 0-.6.6 1.3 1.3 0 0 0 0 .8.8.8 0 0 0 .6.6 2.2 2.2 0 0 0 1.3 0 1.4 1.4 0 0 0 1-1.3l.1-1.1ZM103.4 68.4H101V63a4.7 4.7 0 0 0 0-.9 1.2 1.2 0 0 0-1-.9 2.3 2.3 0 0 0-1.7.5 1.3 1.3 0 0 0-.5 1v5.7h-2.5v-8.8a.4.4 0 0 1 0-.1h2l.3.9h.1a4.3 4.3 0 0 1 2-1 4.5 4.5 0 0 1 2.3.1 2 2 0 0 1 1.4 1.8 4.6 4.6 0 0 1 .1.6v6.3ZM65.8 56h2.6v10a.6.6 0 0 1 0 .1h5.5v2.2h-8ZM87.3 59.5h2.2v1.7h-2.2v4.3a1.5 1.5 0 0 0 .1.5.8.8 0 0 0 .7.6 2.1 2.1 0 0 0 .7 0 3.2 3.2 0 0 0 .7 0 .9.9 0 0 1 .3 0v1.6a4 4 0 0 1-1 .2h-1a5.1 5.1 0 0 1-1.3 0A2 2 0 0 1 85 67a3 3 0 0 1-.1-.9V61.3h-1.3v-1.8h1.3v-2l2.4-.3a1.6 1.6 0 0 1 0 .7v.8ZM91.3 68.4v-8.5a.8.8 0 0 1 0-.2c0-.2 0-.2.2-.2h2c.2 0 .2 0 .3.2a.8.8 0 0 1 0 .2v8.4a17.2 17.2 0 0 1-2.5 0ZM93.8 56.8a5.6 5.6 0 0 0 0 .6c0 .4-.3.5-.6.6a1.5 1.5 0 0 1-.5 0 5.5 5.5 0 0 1-1 0 .6.6 0 0 1-.4-.5 2.5 2.5 0 0 1 0-1.4.5.5 0 0 1 .4-.4 2.5 2.5 0 0 1 1.3 0s0 0 .1 0a.6.6 0 0 1 .6.5l.1.6Z"/></svg>