<svg data-name="Layer 1" xmlns="http://www.w3.org/2000/svg" viewBox="0 0 136.3 77.6"><path d="m47.3 46.3.7-1.8h.3a.8.8 0 0 0 .9-.9 3.5 3.5 0 0 0-.3-.8 10.3 10.3 0 0 1-.6-2.3 8 8 0 0 1 .7-4.8 8.3 8.3 0 0 1 6.5-4.8 11 11 0 0 1 1.2 0 .5.5 0 0 0 .4-.2 6.6 6.6 0 0 1 3-1.4 12.4 12.4 0 0 1 3-.2h1.8a.3.3 0 0 0 .4-.3l.6-1.7a90 90 0 0 0 1.7-7c0-.6.2-1 .3-1.6a5.4 5.4 0 0 1 4-3.8 7 7 0 0 1 1.3-.2.8.8 0 0 0 .5-.3l1.6-1.6.3-.2 2.7 2.3-1.3 1.6-1.3-1-1 1a.7.7 0 0 1-.6.2 4.6 4.6 0 0 0-2 .3 3.4 3.4 0 0 0-2.2 2.5l-1.3 5.4-1.5 6.1v.3h-5.2a5.7 5.7 0 0 0-2.4.6 3.7 3.7 0 0 0-2.1 2.7 5.7 5.7 0 0 0 .2 3l.4 1.2a5 5 0 0 1 0 3.6 4.7 4.7 0 0 1-.9 1.3.4.4 0 0 0-.1.5l1.7 5.1.8 2.7.2.4h-2.1l-3-9.2.4-.3a2.8 2.8 0 0 0 1-3.2l-.5-2a7 7 0 0 1 .1-4.3.8.8 0 0 0 0-.2h-.5a6.4 6.4 0 0 0-4.7 5.4 6.3 6.3 0 0 0 .4 3.3 6.4 6.4 0 0 1 .4 1.5 3 3 0 0 1-2.7 3.3 2.2 2.2 0 0 1-1.2-.2ZM85.1 9l.5.5-4.3 7.4.8.9a.4.4 0 0 0 .3 0 2.6 2.6 0 0 1 .2 5.2 2.6 2.6 0 0 1-1.7-.2.8.8 0 0 0-.4 0l-2.2.1h-.1l.1.9 1.3 5.3a1.3 1.3 0 0 0 .3.6 6.1 6.1 0 0 1 1.4 3.5V33.5H88v.4l-2.3 7.7a5.6 5.6 0 0 1-3.2 3.5l-1-1.8.4-.1a3.5 3.5 0 0 0 1.8-2.2l1.6-5.3a.6.6 0 0 0 0-.1H79a3.8 3.8 0 0 1 0-1 4.5 4.5 0 0 0-.2-2.7 3.9 3.9 0 0 0-.9-1.2 1 1 0 0 1-.3-.4l-2-9v-.1a1.7 1.7 0 0 1 .3 0l4.3-.5h.8a.5.5 0 0 1 .4.1.8.8 0 0 0 .2.1.6.6 0 0 0 .9-.5.6.6 0 0 0-.5-.5.6.6 0 0 0-.2 0c-.3.1-.5 0-.7-.2l-2.7-2.1-.2-.2Z"/><path d="M73.5 40.1a14.4 14.4 0 0 1-6.3-.5l-.1.3-2.9 5a.6.6 0 0 0 0 .6l2.5 6.3.2.4h-2.2l-.2-.4-2.5-6.6a.5.5 0 0 1 0-.5l4.2-7.4.2-.3a11.3 11.3 0 0 0 4.5 1.2 14 14 0 0 0 4.7-.6v2a.9.9 0 0 0 .1.5l4.8 7.9 2.3 4a2.4 2.4 0 0 1 .1.2h-2.3l-.8-1.4-6-10-.3-.6ZM31.8 58.8h4.8a4.7 4.7 0 0 1 4.2 2.4 4.8 4.8 0 0 1-3.5 7.3 6.8 6.8 0 0 1-.8 0h-4.7Zm2.1 7.5H36.8a2.7 2.7 0 0 0-.2-5.3H34ZM94.7 65.5h2a1.8 1.8 0 0 0 1.5.9 7 7 0 0 0 3 0 3.2 3.2 0 0 0 1-.4c.4-.3.3-.7-.1-1a4.6 4.6 0 0 0-1.5-.3l-3.1-.6a11.5 11.5 0 0 1-1.5-.5 1.7 1.7 0 0 1-.4-.3 2 2 0 0 1-.5-3 3.6 3.6 0 0 1 1.5-1.1 6.9 6.9 0 0 1 2.5-.6 7.7 7.7 0 0 1 3.4.5 3.8 3.8 0 0 1 1.5 1 2.3 2.3 0 0 1 .6 1.3 1.8 1.8 0 0 1 0 .2h-2.1a1.2 1.2 0 0 0-.9-.7 6 6 0 0 0-2.3-.2 7.2 7.2 0 0 0-1.3.2 2 2 0 0 0-.8.4c-.3.2-.3.6.1.8a6.5 6.5 0 0 0 1.3.3l3 .5a5.4 5.4 0 0 1 2 .8 2.1 2.1 0 0 1 1 1.9 2.3 2.3 0 0 1-.8 1.6 4.7 4.7 0 0 1-2.1 1.1 8.1 8.1 0 0 1-4.7-.2 4.2 4.2 0 0 1-1.7-1.1 2.3 2.3 0 0 1-.6-1.2 2.6 2.6 0 0 1 0-.3ZM59.8 63v5.4h-5a4.8 4.8 0 0 1-.4-9.7h5.3a10 10 0 0 1 0 2.1H55a2.7 2.7 0 0 0-.8 5.2 2.9 2.9 0 0 0 .8.2h2.7V63h2.1ZM90 68.4l-.8-1.3h-5.4l-.8 1.3h-2.5l6-10.2 6.1 10.2ZM88 65l-1.6-2.6-1.6 2.6ZM76 68.4h-2.2v-7.5H70v-2.2h9.7a11 11 0 0 1 0 2.2H76ZM44.7 58.8h2.1v9.6a8.7 8.7 0 0 1-2.1 0ZM66.8 68.4h-2.2v-9.7h2.2Z"/></svg>