<svg id="Layer_1" data-name="Layer 1" xmlns="http://www.w3.org/2000/svg" viewBox="0 0 136.3 77.6"><defs><clipPath id="clip-path"><path fill="none" d="M5.7 15.6h124.9v46.5H5.7z"/></clipPath><style>.cls-4{fill:#635d5d}.cls-5{fill:#231f20}</style></defs><g clip-path="url(#clip-path)"><path fill="#8c8787" d="M14.3 58.5H5.7V41.3h8.6v17.2"/><path class="cls-4" d="M14.3 32.7H5.7V15.6h8.6v17.1"/></g><path class="cls-5" d="M5.7 32.7v8.6h17.2v17.2h8.6V32.7H5.7zM40.2 32.8h1.5v4.5a3 3 0 0 1 2.7-1.5c2.2 0 3 1.3 3 3.2v5.6H46v-5.8a1.6 1.6 0 0 0-1.5-1.7 1 1 0 0 0-.2 0 2.4 2.4 0 0 0-2.6 2.7v4.8h-1.5V32.8ZM54.6 40.2a7.4 7.4 0 0 1-2.5.6c-1 .1-1.8.5-1.8 1.5s.8 1.3 1.7 1.3c1.8 0 2.6-1.2 2.6-2Zm2.3 4.4a1.9 1.9 0 0 1-1 .2c-.7 0-1.2-.4-1.2-1.3a3.8 3.8 0 0 1-3 1.3c-1.5 0-2.8-.7-2.8-2.4 0-2 1.4-2.4 2.9-2.6s2.9-.2 2.9-1.3c0-1.2-1-1.4-2-1.4-1.1 0-2 .3-2 1.6h-1.5c0-2.2 1.7-2.9 3.6-2.9 1.6 0 3.3.4 3.3 2.4v4.4c0 .6 0 1 .4 1a1.3 1.3 0 0 0 .4 0v1ZM61.7 44.6h-1.5L57 36h1.6l2.4 7.2 2.4-7.2h1.4l-3.1 8.6zM71 40.2a7.4 7.4 0 0 1-2.6.6c-1 .1-1.7.5-1.7 1.5s.8 1.3 1.7 1.3c1.8 0 2.6-1.2 2.6-2Zm2.3 4.4a1.9 1.9 0 0 1-1 .2c-.7 0-1.2-.4-1.2-1.3a3.8 3.8 0 0 1-3 1.3c-1.6 0-2.9-.7-2.9-2.4 0-2 1.5-2.4 3-2.6s2.8-.3 2.8-1.3c0-1.2-1-1.4-2-1.4-1.1 0-2 .3-2 1.6h-1.5c.1-2.1 1.8-2.9 3.7-2.9 1.5 0 3.2.4 3.2 2.4v4.4c0 .7 0 1 .5 1a1.1 1.1 0 0 0 .4 0v1ZM75.4 41.9c0 1.3 1.1 1.7 2.3 1.7.9 0 2.1-.2 2.1-1.3S78.4 41 77 40.7s-2.8-.8-2.8-2.5 1.7-2.4 3.2-2.4c1.9 0 3.4.6 3.5 2.7h-1.4c-.1-1.1-1-1.5-2-1.5s-1.8.2-1.8 1.1 1.4 1.2 2.8 1.5 2.8.8 2.8 2.5c0 2-2 2.7-3.7 2.7-2 0-3.6-.8-3.6-3Z"/><path class="cls-4" d="M52.4 58.5h-1.5V53c0-1.1-.2-2-1.6-2a2 2 0 0 0-2.3 2V58.4h-1.4V53c0-1.2-.4-2-1.6-2a2.3 2.3 0 0 0-2.3 2.2v5.4h-1.5V50h1.4v1.3a3.2 3.2 0 0 1 2.8-1.5 2.3 2.3 0 0 1 2.3 1.5 3.2 3.2 0 0 1 2.7-1.5c1.8 0 3 .7 3 2.5v6.3M58.2 58.7c-2.8 0-4.1-1.9-4.2-4.5a4 4 0 0 1 4-4.5c3 0 4 2.8 4 4.9h-6.5a2.5 2.5 0 0 0 2.7 2.8 2 2 0 0 0 2.2-1.6h1.4a3.5 3.5 0 0 1-3.7 3m-.1-7.9a2.5 2.5 0 0 0-2.5 2.5h5a2.5 2.5 0 0 0-2.5-2.5M67 58.7c-2.7 0-4-2-4-4.5s1.3-4.5 4-4.5a3.3 3.3 0 0 1 2.7 1.3v-4.4h1.4v12h-1.3v-1.3a3 3 0 0 1-2.8 1.4m.1-7.8c-2 0-2.6 1.7-2.6 3.4s.9 3.2 2.7 3.2 2.6-1.7 2.6-3.3-.7-3.3-2.7-3.3M74.8 58.5h-1.4V50H75v8.6m0-10.2h-1.5v-1.7H75v1.7M83.7 58.7c-.8 0-1.2-.4-1.2-1.3a3.9 3.9 0 0 1-3 1.3c-1.6 0-2.9-.7-2.9-2.4 0-2 1.5-2.4 3-2.7s2.8-.2 2.8-1.2c0-1.3-1-1.5-1.9-1.5-1.2 0-2 .4-2.1 1.7H77c0-2.2 1.7-3 3.7-3 1.5 0 3.2.4 3.2 2.4v4.5c0 .6 0 1 .5 1a1.2 1.2 0 0 0 .4-.1v1.1a1.9 1.9 0 0 1-1 .2m-1.3-4.6a8.4 8.4 0 0 1-2.5.6c-1 .2-1.8.5-1.8 1.5s.8 1.3 1.7 1.3c1.8 0 2.6-1.2 2.6-2V54M92.1 62c-1.6 0-3.5-.7-3.6-2.5H90c0 1 1.3 1.4 2.2 1.4 1.9 0 2.6-1.4 2.6-3.3V57a2.9 2.9 0 0 1-2.7 1.6c-2.5 0-3.8-2-3.8-4.4 0-2 1-4.6 4-4.6a2.8 2.8 0 0 1 2.6 1.5v-1.2h1.3v7.9c0 2.8-1.3 4.2-4 4.2m.1-11c-1.8 0-2.5 1.5-2.5 3.1s.5 3.3 2.4 3.3 2.6-1.7 2.6-3.3S94 51 92.3 51M99.6 58.5h-1.4V50h1.3v1.8a3.1 3.1 0 0 1 3-2h.2v1.5c-2.3 0-3.1 1.3-3.1 3.5v3.8M107.2 58.7c-2.7 0-4.2-2-4.2-4.5s1.5-4.5 4.2-4.5 4.2 2 4.2 4.5-1.4 4.5-4.2 4.5m0-7.8c-1.5 0-2.7 1.2-2.7 3.3s1.3 3.3 2.7 3.3 2.7-1.2 2.7-3.3-1.2-3.3-2.7-3.3M116 58.7c-2.2 0-3-1.3-3-3.2V50h1.5v5.8a1.6 1.6 0 0 0 1.5 1.8h.2a2.4 2.4 0 0 0 2.6-2.7v-5h1.4v8.7H119V57a3 3 0 0 1-2.8 1.6M123.8 61.8h-1.4v-12h1.4v1.3a2.9 2.9 0 0 1 2.8-1.4c2.6 0 4 2 4 4.5s-1.3 4.5-4 4.5a3.3 3.3 0 0 1-2.7-1.3v4.4m2.6-10.9c-2 0-2.7 1.7-2.7 3.3s.8 3.3 2.8 3.3 2.5-1.7 2.5-3.4-.8-3.2-2.6-3.2"/></svg>