<svg id="Layer_1" data-name="Layer 1" xmlns="http://www.w3.org/2000/svg" viewBox="0 0 136.3 77.6"><defs><style>.cls-1{fill:#231f20}</style></defs><path class="cls-1" d="m11.1 35.2-2.7 15H5.5l4.7-23.7 7.8 18 7.8-18 4.7 23.8h-3l-2.6-15L18 50.8ZM43 40.1a5 5 0 0 0-4-1.8 4.9 4.9 0 0 0-4.7 5 4.8 4.8 0 0 0 5 5 5 5 0 0 0 3.8-2v3.5a8 8 0 0 1-4 1 7.4 7.4 0 0 1-7.5-7.5 7.5 7.5 0 0 1 7.7-7.6 7.7 7.7 0 0 1 3.8 1v3.5ZM62.9 31.8a9.2 9.2 0 0 0-6-2.2 9.3 9.3 0 1 0 6 16.2V49a12.3 12.3 0 0 1-6 1.6A11.7 11.7 0 0 1 45 39a12 12 0 0 1 12.1-12 11.3 11.3 0 0 1 5.8 1.5v3.3ZM69.5 44.5l-2.6 5.7h-3l10.8-23.7 10.9 23.8h-3L80 44.5Zm5.2-11.8-4 9.2h8ZM87.2 26.4l17 17.9V27.5h3v23.7L90 33.2v17h-2.8ZM110.9 26.4 128 44.3V27.5h2.8v23.7l-17-18v17h-2.9V26.5Z"/></svg>