<svg id="Layer_1" data-name="Layer 1" xmlns="http://www.w3.org/2000/svg" viewBox="0 0 136.3 77.6"><defs><style>.cls-1{fill:#1c1c1b}.cls-2{fill:#ba9765}</style></defs><path class="cls-1" d="M45.2 50.3c0-1-.5-2.3-3-2.3H38v7.4h1.5v-2.9h2.8c2.4 0 2.9-1.2 2.9-2.2Zm-5.8-1H42c1.6 0 1.7.5 1.7 1s-.1.8-1.7.8h-2.6ZM54.3 52.3V48H53v4.3c0 1.3-.8 1.9-2.4 1.9s-2.3-.6-2.3-2V48h-1.5v4.3c0 2.1 1.4 3.3 3.8 3.3s3.8-1.2 3.8-3.3ZM64 53.2a2 2 0 0 0-1-1.7 1.6 1.6 0 0 0 .7-1.4c0-2.1-2.2-2.1-3-2.1h-4.2v7.4h3.8c1.2 0 3.6 0 3.6-2.2Zm-3.7-3.9c1.4 0 2 .2 2 .8 0 .2 0 .8-1.7.8H58v-1.5Zm.5 4.7H58v-1.8h3c1.4 0 1.4.7 1.4 1 0 .5-.2.8-1.6.8ZM72.7 54h-5.1v-6h-1.5v7.4h6.6V54zM74.2 48h1.5v7.4h-1.5zM85.5 53.4l.2-.3-1.4-.6-.1.3a2.6 2.6 0 0 1-2.5 1.4c-1.8 0-2.8-1-2.8-2.4a2.4 2.4 0 0 1 2.7-2.6 2.4 2.4 0 0 1 2.5 1.3l.1.4 1.3-.6V50a4 4 0 0 0-4-2.1c-2.5 0-4 1.5-4 3.9 0 1.8 1 3.8 4 3.8a4 4 0 0 0 4-2.2ZM87.4 48h1.5v7.4h-1.5zM94.7 50.9c-1.3-.2-2.2-.3-2.2-.8 0-.8 1.3-1 2-1a2.9 2.9 0 0 1 2.5 1l.2.4 1.1-.9-.1-.3a4.2 4.2 0 0 0-3.6-1.5c-3 0-3.5 1.5-3.5 2.4 0 1.7 2 2 3.5 2 1.4.2 2.3.3 2.3 1 0 1-1.9 1-2 1a3 3 0 0 1-2.9-1.3l-.2-.3-1 .8-.2.3.3.2a4.5 4.5 0 0 0 3.8 1.7c1.7 0 3.7-.7 3.7-2.4 0-2-2-2.2-3.7-2.3ZM44.6 65.5h2.7a2.2 2.2 0 0 1-2.2 1.3c-1.7 0-2.8-.8-2.8-2.3a2.4 2.4 0 0 1 2.7-2.6 2.5 2.5 0 0 1 2.4 1.3l.1.3 1.3-.7-.1-.3a3.8 3.8 0 0 0-3.7-2c-2.5 0-4.1 1.5-4.1 4 0 1.8 1 3.8 4.1 3.8a4 4 0 0 0 2.4-.7v.6h1.4v-4h-4.2ZM58.5 62.9c0-1-.5-2.2-3-2.2h-4.2V68h1.5v-3h2.1l2.2 3h1.8L56.6 65a2.1 2.1 0 0 0 1.9-2.1Zm-5.7-.8h2.5c1.4 0 1.7.2 1.7.8s-.2.8-1.7.8h-2.5ZM64.3 60.5c-2.6 0-4.3 1.6-4.3 3.9 0 2.6 2.2 3.8 4.3 3.8s4.2-1.2 4.2-3.8c0-2.3-1.7-4-4.2-4Zm0 6.3a2.5 2.5 0 1 1 2.7-2.5 2.5 2.5 0 0 1-2.7 2.5ZM76.3 65c0 1.3-.8 2-2.3 2s-2.3-.7-2.3-2v-4.3h-1.5V65c0 2.1 1.3 3.3 3.8 3.3s3.8-1.2 3.8-3.3v-4.3h-1.5ZM84 60.7h-4.2V68h1.5v-3H84c2.5 0 3-1.1 3-2.2s-.5-2.2-3-2.2ZM81.3 62h2.5c1.6 0 1.7.4 1.7.8s-.1.9-1.7.9h-2.5ZM90 64.9h4.3v-1.4H90v-1.4h5.1v-1.4h-6.6v7.4h6.7v-1.4H90v-1.8z"/><path class="cls-2" d="m88 44.2-4.5-2.6a3.3 3.3 0 0 0 2.4-.8l1.3 1.7-.8-2c.9-.7 1.6-1.5 2.5-1.5 2.6 0 .8 3 1.7 3s2.1-3.4-.3-4.8-4.8.6-6.6.3l6.8-3h-9.9l-.3-.7a3.3 3.3 0 0 0 3.9-.8l2.8.4-2.3-.9c.5-.6 1-1 1.6-.8.8.3 1.3 1 2.7 1 2.5 0 4.2-4.2 1-6.1.3 3-1.2 3.2-3.7 1.6l.9-1.4-1.3 1.1c-2.4-1-3.5 1-4.6 1.8s-1.9-.7-3.1 1c1.8-.7 2.7 1 4 0-.5 3-2.3-1-4 .5 1.5.1 2.3 1.5 3.5 1.5 2.3 0 .3-4.3 3.5-4.3l-.6-.4c1.8-.1 2 1.7 4.6 1.7.3.4-.7.4-1.4.2 0 .6 3.7 1.9 2.8-2.4 1.2.6 1 3.3-.2 4.3-.2.2-.4.3-.5.1-.3-.4.4-.4.7-1.1a2.5 2.5 0 0 1-3.3-.3c-1-.9-2.5-2-3.1 0s-1.2 2.8-2.4 2.8c-1.6 0-3.3-2.7-5-1.2 3.4.3 4.2 5.7 7.2 5.8 2.3 0 2.8-1 4.3-1s3.1.8 3.1 2.8a2.9 2.9 0 0 1-.6 1.9 4 4 0 0 0 .2-2.4 2.4 2.4 0 0 0-2.6-1.9c-1.8 0-3.3 3.1-5.4 3.1-4.2 0-5.2-8-9.6-6.8 3.2 2.2 3.5 5.6 5.3 7s3.8.8 5 1.8a3.3 3.3 0 0 1 .8 1.9H84a2.5 2.5 0 0 0-.7-1c-1-1-4-.6-5.4-2.1s-2.4-6-5-6.7c2.3 1.5 2.8 5.5 4.5 7.4s4 .9 5 1.9l.5.5h-2a3.3 3.3 0 0 0-.5 0h-3.7a2.3 2.3 0 0 1-1-.6c-1.3-1.4-1.2-3-1-4.7.2 1.7.5 5.5 3.4 5-3.6-1.2-1.5-7.3-5.9-8.9-.5-.1-.3-1.7.9-2-2.4.5-2.4-.3-.7-2-1 .6-2.2.4-2.4 1.2 0 0 2 3 2 3.6a10.8 10.8 0 0 1-1.5 3 5.3 5.3 0 0 1-2.4.2 2 2 0 0 1-.7-1.8c.3-.7 2.7-1.2 2.7-2.1 0-.8-1-.8-.9-.5.6.2.8 1-.9 1.5l.4-.6-1.3 1a1 1 0 0 1-.5 0c-.2-.1-2-1-1.7-1.8a5.6 5.6 0 0 0 1.9.2c1.4 0 1.5-.6 1.5-.6a6.2 6.2 0 0 1-3 0c-.6-.1 0-.9.2-.9h1.5s.2-.2 0-.2-1 0-1.2-.2l-.3-2.8s.3-.7 0-1-.4-.1-.4-.1c.6 3.3-2 5.4-3.4 5h-.2a4.2 4.2 0 0 0 1.3.6 3.4 3.4 0 0 1-4.1-2c-.2 0-.2.7-.2 1.1a1.8 1.8 0 0 1-.4-2.3l-.7.5c0-.6 1-1 1.5-1.6a1.3 1.3 0 0 0-.7-2.1 1.9 1.9 0 0 1-1.4 2c-1 .4-.9-.5-1.8-.3 1.5.3 1.4 2.4 3 3.3-2-.5-2.4-3.3-4.8-3 1.4-2 3.6-.3 4.6-1.7-2.4.6-4-1.4-4.3-3.7-.5-3.4-3.3-1.7-3.3-3.4 1.4.7 4.6-1.8 5.6 1s3 4.2 4.8 2.8l-7.9-8 1 3.4c-2 .4-4.5-.8-3.2-3.7-1.9-.9-4.5 2.4-2.1 4.9 1 1.1 3.8.7 4.5 3l-2.6-.1 2.6.7.8 2.3-6-3 3.7 4.3c-2.2 1.2-2.8-2.1-5.6-2-2 0-4.1 2-3.2 4.4 3-1.8 3.9-.5 5.1.7l-1.8 1 2.1-.6a4 4 0 0 0 3.3 1.2c2.6-.2 4.8-1 5.4-.4.4.6 0 .9-1 .9H43.8l4.9 2.6c-.5.4-1.9 2-2.8 2s-3-1.4-3.6 1c2.2-.3 3.3 4.5 7.8.7L48 44.2H38v1.2h60.3v-1.2ZM85.4 30c1.2.5-2.3 3.8-3.4 3.7 2.2-.6 2.3-4.2 3.4-3.7Zm.5 10c.8-2.1 3.2-3 4.2-1.2 0 .1 0 .2-.2 0-1.2-1.3-2.9 0-3.9 1.3-.1.1-.2 0-.1-.1ZM50.3 17.5c-.6 1-.5 3.1 2.1 3.7-4.3 1-4.2-4-2-3.8ZM47 30.8a3.6 3.6 0 0 0-3.8.2c.6-2 4.3-2.2 3.8-.2Zm.8-.8a2.3 2.3 0 0 0-.9-.9 3.8 3.8 0 0 0-1.2 0c-.5 0-1 0-1.1-.3s0-.5.3-.7a2.2 2.2 0 0 1 1-.3 1.4 1.4 0 0 1 1.1.3l.4.2V28a2.2 2.2 0 0 1 1.4 1 3.6 3.6 0 0 0 3.8 1.4c-.5 2-3.7 1.4-4.8-.4Zm1.9 2.7c-.2-.9 4.3-1.5 4.3-.2.1 1-4.2 1.2-4.3.2Zm22.9 5.5c-1.5 3.1 2.1 5.1 2.8 5.8a1.7 1.7 0 0 1 .3.3h-1.3a3.1 3.1 0 0 0-1.1-1.5 6.5 6.5 0 0 1 .7 1.5h-.6c-.8-1.7-2.3-3-.8-6.1Zm-.4 6h-.5l-.6-1.7a3 3 0 0 1 1.1 1.7Zm-1.5 0h-.5a4.2 4.2 0 0 0-.3-3.1c1 .7 1 1.9.8 3.1Zm-1 0h-.5a3.1 3.1 0 0 0-.3-2.6 2.6 2.6 0 0 1 .8 2.6Zm-3.7 0c.3-1.3-.3-1.7-1.4-2.9 1.7 1.2 2.3 2 2.2 3Zm1.3-2.3a3.5 3.5 0 0 1 1.1 2.3h-.5a4.5 4.5 0 0 0-.6-2.3Zm0-2.2h2l.3.1c0 .1 0 .4-.2.5a9.4 9.4 0 0 1-2.2.3 9.5 9.5 0 0 1-2.1-.4l-.2-.4.2-.1h2.1Zm-2.2-5c-.6.2-.7 1.1 1 1.5-.5.1-1.9-.1-2-1 0-.8 1-.9 1-.5Zm-1.6 1.6a10.3 10.3 0 0 1 3.2 1A2 2 0 0 1 66 39c-.4.2-2.3 0-2.6-.9 1.2.3 1.3 0 1.3 0a1.8 1.8 0 0 1-1.5-.8 1.3 1.3 0 0 0 1.2 0s-1.6-.6-1.6-1Zm-1.6 1.8v-.3c0 3.8 2.8 4.4 2.8 6.3v.1h-.4a1.4 1.4 0 0 0-.3-1C62 40.8 62 40.3 62 40.3c.1 1.8 1.3 2 1.6 4h-.8c-.2-1.5-1.6-2-1-6.2Zm.2 6.1h-1.4l.7-1.1a2.9 2.9 0 0 1 .7 1.1Zm-2.2 0H59c1.3-2.4.6-6.3 1.7-7.6-.9 1.5.4 4.9-1 7.6Zm.4-9.1c-.5.5-3 2.6-2.2 8.4.8-1.2.1-6 2.4-7.7-1.6 2-.8 5.3-2 8.4h-1c.2-2.5-1.2-6.2 2.8-9.1Zm-4.5 9.1h-.5a10.6 10.6 0 0 0 1-1.8 4.1 4.1 0 0 1-.5 1.8Zm2.5-10c.5.5-2.4 1.9-3.8 1.4 2.3 0 3.3-1.9 3.8-1.4Zm-3.3 2a4.3 4.3 0 0 0 3-1c-.1 1.1-1.4 1.5-3 1.5s-3-1.7-4.3-.5c2.1-.3 2.5 2 4.9 1.2-2.1 2.3-3.7-1.7-6-.5 1.2-2.9 3.7-.8 5.4-.8ZM43 39.6c1.3-1.8 2.2.7 4.3-.7.7 1.1-1 1.8-2 1.2a2.6 2.6 0 0 0-2.3-.5Zm6 1.4c-1 .7-3.3 1.4-3.2-.1 2.4.4 3-3 5.1-2-.5.1-1 1.4-1.9 2Zm6.8-.8a7.8 7.8 0 0 1-.5 3l-3.5 1h-3.1Z"/><path class="cls-2" d="M69.1 25.9c-1.7.1-1.4 2.4-.1 2.4s1.4-.6 2.4-.6 1.3.7 2 .7 1.3-.6 1-1c-.6.8-1.4-.3-2-.3a4 4 0 0 0-2.1.7c-.8.4-1.5 0-1.2-.4-.6 0-1-.7 0-1.5ZM75.3 18.8c-1.7 2.4.5 5-3 5.8 4.1 0 2-3.4 3.5-5.4s3.2-1.3 3.7-3.6c-.8 1.9-3.3 1.8-4.3 3.2ZM70.5 23.4A3 3 0 0 1 70 21s-1.4 1.8.5 2.5Z"/><path class="cls-2" d="M76.3 19.6c-1.3 2 .2 4.8-2.5 5.6 3.4 0 1.8-4 3-5.3 1-1.6 2-1.3 2.6-3-.7 1.3-2.3 1.6-3 2.7ZM81.2 25.6a3.3 3.3 0 0 0-4.6 2.3 22.5 22.5 0 0 0 2.3-1.8c.8-.5 2-.2 2.3-.5ZM74.5 29.8c.2.5 1-.5 2.3-.1-.6-.5-2.4-.4-2.3.1Z"/><path class="cls-2" d="M84 24.2c-.7 2.8-6 .7-5.9 4.7 1.1-2 6.3-1.8 5.8-4.7ZM73.5 31.2c.1.6 1.2-.7 3.2.2-.7-1-3.3-1.1-3.2-.2ZM69.4 23.4c-2-3.3 2.7-4.1 1.4-6.9.2 2.2-4.4 4.4-1.4 7ZM69.9 36.4l-1.4.7-.3.5a2 2 0 0 0 1.7-1.2ZM63.4 28.6c-.8-.1-1.8.7-2.7 1.1.8 1.3 2.9 1.4 3.7 1.8.1-.3.8-2.5-1-2.9Zm-1 2A.9.9 0 0 1 63 29a6 6 0 0 0-.6 1.7Zm.7.2a4.8 4.8 0 0 0 .6-1.4.8.8 0 0 1-.7 1.5Z"/><path class="cls-2" d="M66.2 27.4c-.8 1-1.5-.1-2.6-.1-1 0-2 1-2.2.3-.2-.5.8-1.4 2-1.5a3 3 0 0 0-3.1 1.8 2 2 0 0 1-.6 0c.4 1.8 2.3 0 3.2 0s3.3 1.7 3.3-.5ZM66 16l1 2.5a4.5 4.5 0 0 0-.9 2.8c0 3.5 3 3.8 2.7 2.4-2 1-2.1-2-1.6-2.6a1.8 1.8 0 0 0 1 2c-1.8-3 1.8-4 1.8-6.5 0-2-1.2-2.6-1.2-4.4 0-2.2 3.2-2.8 3.2-2 0 .6-2.4.7-2.4 3s2.4 2.6 2.3 4.7c0 1.4-2.4 2.6-1 5.2l3.5-9.8-2.7 3c-.8-1-1.5-1.2-1.5-3s2.1-2.2 2.1-3.1c0-.7-1-.8-1.8-.9a3.3 3.3 0 0 0-3.3 3.2c0 2.2 1.5 3.4 0 5.4Zm3.1-.5c1 3-2.1 3.8-2.4 5.8-.2-2.4 2.8-3.5 2.4-5.8ZM63.7 31.8c-.5-.3-2.2-.2-3.2-1.2a.5.5 0 0 0 0 .3 1.3 1.3 0 0 0-.8 1.7s.8-1 1.3-1a2.1 2.1 0 0 0 0 1.1l.2.2c-.4-1.6 2.5-1 2.5-1ZM54.8 18l2.2 1a4.2 4.2 0 0 0 1.1 2.4c.9 1 3.2 1.3 3.3 3.6.7-.7.1-2.3-1.4-3.2C54 18.3 64 13 57.7 11c5.4-.4 3 4.6 3.5 6.5.6 2.8 3.1 2.1 4.5 3.8L64.2 13l-1.4 5.8c-1.9-.3-1.2-2.9-1.1-5.3 0-4.5-7.7-3.2-6.7-.7.4 1 3-1.2 3 1.1 0 1.6-1 3-1 4.5Zm.8-5.5c-.5-.6 2-1.3 2.6.3-1.4-.9-2.4 0-2.6-.3Z"/><path class="cls-2" d="M60.2 17.2c-2.6 5 6.3 2.7 5.2 6.8 1.9-4.4-6.2-2-5.2-6.8ZM83.3 39.5c1.5 0 2.6-1.4 3.5-2-1.2.3-1.9 1.4-3.5 1.4-2.7 0-4.1-7.6-8.8-6 4.8.3 4.7 6.7 8.8 6.6Z"/><path class="cls-2" d="M63.4 23.5a.7.7 0 0 1-.4 0c-.6-.5-.9-1.5-1.5-1.4.4.3.2 1.3.7 1.8a1.3 1.3 0 0 0 1 .5A1.3 1.3 0 0 0 64 22a11.3 11.3 0 0 0-3-1.3c-4.7-1.5 2.2-6.2-1-8.8 1.8 3.7-3.3 6-.7 8.6 1.2 1.2 3.7 1 4.6 1.9a.7.7 0 0 1-.5 1.1ZM59.4 26.3a3 3 0 0 1-2.6-1.5c-.4 1 1 3.7 2.6 1.5ZM70.3 37.1c0 .2-.4.3-1.2.6a2.3 2.3 0 0 1-.5.6c.9.3 1.9-.7 1.7-1.1ZM74.2 29c.1.3.4-.3 1-.6-.7 0-1.1.5-1 .6ZM73.6 29.5c-1-.5-1.9-1.3-2.7-1-1.8.3-1.2 2.5-1 2.8.8-.5 2.8-.6 3.7-1.8Zm-1.7.9-.7-1.7a.9.9 0 0 1 .7 1.7ZM70.6 29a4.9 4.9 0 0 0 .6 1.5.8.8 0 0 1-.6-1.5ZM77.6 24c-.8 1-.8 1.7-2 2.5 1.6.7 1.6-1.4 3.2-1.9 1-.3 1.9 1 3.4.3s1-3.6 1.8-4.8 2.8-2.5 4.3 0c0 0-2.5-2.4-3.7.5.8-.6 2-.8 2-.2-.6.2-1.6.6-1.6 2.9 0 2.6-1.1 3.2-2 3.7-1.1.8-4 .8-4.6 2.6l9.7-4.3h-3c.4-2.2-.4-5.4 3.6-4.7.5-1-2.8-4.5-5.8-.6l-.2-1c-.7 5.3-3.4 3.2-5.1 5Zm5.1-2.5c.5.8-1 2.4-1 2.4a.4.4 0 0 1-.1.8c-.9.3-1.6-.7-2.7-.4.2-.4 2.6-.3 3.8-2.8Z"/><path class="cls-2" d="M58.8 27.6c-4.1.1-1.1-4.4-4.2-5 1.6 1 .7 2 .7 3.7a2 2 0 0 0 3.5 1.3ZM73 21.6c-.4 1.3-1.7 1.6-2.4 2.8a4.3 4.3 0 0 0 3-1.6c.7-1.2 0-4.6 2.2-5.4s4.7-2 2-4.8c4.1 1 1.8 5.4 1.3 6s-2 1.9-2 3.8a3.7 3.7 0 0 1-2.3 3.3c1 .4 2.7-2 2.7-2l5-6.7-3 1.5s.9-.7.9-3c0-3.2-3.5-3.8-3.5-2.8 0 .7 1.2 1.1 1.2 2.3s-1.5 1.7-2.7 2l-.6-1.8v2c-2 1.1-1.3 3-1.8 4.4Z"/></svg>