<svg id="Layer_1" data-name="Layer 1" xmlns="http://www.w3.org/2000/svg" viewBox="0 0 136.3 77.6"><defs><style>.cls-4{fill:#5b5b5d}.cls-7{fill:#f17426}</style></defs><path d="M93.5 38.8a7.3 7.3 0 0 1-14.5-.1 7 7 0 0 1 7.3-6.8 7 7 0 0 1 7.2 6.9Zm-2.7 0a4.5 4.5 0 1 0-4.6 4.5 4.5 4.5 0 0 0 4.6-4.5Z" fill="#f17224"/><path d="M55.7 32.2h2.7v5h5.8v-5h2.5v13.2h-2.5v-5.8h-5.8v5.8h-2.7Z" fill="#5e5e60"/><path d="M6 32.3h5.3a3.5 3.5 0 0 1 3.3 3.3 3.6 3.6 0 0 1-2.6 4.1l-.4.2 4.2 5.4h-3.3L9 40.1h-.3v5.3H5.9Zm2.6 6c1.2 0 2.4 0 3-1a1.8 1.8 0 0 0 0-2.2c-.8-1-2-.8-3-.8Z" fill="#5c5c5e"/><path class="cls-4" d="M41.4 45.4h-2.8l-1.2-2.7h-5.6l-1.2 2.7h-2.9l6-13.5h2l5.7 13.5Zm-6.8-9.6-1.9 4.7h3.8Z"/><path d="M113.7 32h2l5.7 13.3h-2.9l-1.2-2.7h-5.5l-1.3 2.8h-2.8Zm1 4h-.2l-1.8 4.4h3.8Z" fill="#f17324"/><path d="M21 37.3h4.6v2.3H21v3.6h4.7v2.2h-7.4V32.2h7.4v2.2H21Z" fill="#5d5d5f"/><path class="cls-7" d="M106 32.8v3a4.6 4.6 0 0 0-4.6-1.4 4 4 0 0 0-2.3 1.6 4.8 4.8 0 0 0 0 5.8 4.5 4.5 0 0 0 3.4 1.5A5 5 0 0 0 106 42v2.9c-2.3 1.5-6.5 1-8.9-1.6a6.8 6.8 0 0 1 0-8.8 7.2 7.2 0 0 1 8.9-1.7Z"/><path class="cls-4" d="M52.3 42V45a7.4 7.4 0 0 1-9-1.8 6.8 6.8 0 0 1 0-8.6 7.3 7.3 0 0 1 9-1.8v2.8c-3-1.7-5.1-1.6-6.7.4a4.6 4.6 0 0 0 .2 6.1c1.6 1.7 4 1.7 6.5 0Z"/><path class="cls-7" d="M126.3 43.1h4.1v2.3h-6.7V32.2h2.6Z"/><path d="M70.5 32.2h2.6v11h4.1v2.1h-6.7Z" fill="#f17325"/><path d="M90.8 38.8a4.5 4.5 0 1 1-4.5-4.5 4.5 4.5 0 0 1 4.5 4.5Z" fill="#fefdfd"/><path d="M8.6 38.2v-3.9c1 0 2.2-.2 3 .8a1.8 1.8 0 0 1 0 2.1c-.6 1.1-1.8 1-3 1Z" fill="#fbfbfb"/><path d="m34.6 35.8 2 4.7h-3.9l2-4.7Z" fill="#f8f8f8"/><path d="m114.8 36 1.7 4.4h-3.8l1.8-4.4Z" fill="#fdf9f6"/></svg>