<svg id="Layer_1" data-name="Layer 1" xmlns="http://www.w3.org/2000/svg" viewBox="0 0 136.3 77.6"><defs><style>.cls-1{fill-rule:evenodd}</style></defs><g id="Page_1" data-name="Page 1"><g id="Layer_1-2" data-name="Layer 1"><g id="Group"><g id="Shape"><path class="cls-1" d="M6.3 41.2a1 1 0 0 1 0-.3l.1-.2c.3 0 .3.4.6 1a2.5 2.5 0 0 0 2.3 1.4 2 2 0 0 0 2.2-2c0-1.2-.7-1.6-2.2-2-1.9-.6-2.7-1.2-2.7-2.7s1-2.4 2.9-2.4a5.5 5.5 0 0 1 1.8.4l.3-.1.1.2.2 1.6a1 1 0 0 1 0 .1c0 .1 0 .2-.2.2s-.1-.3-.4-.8a2.2 2.2 0 0 0-2.1-1.2 1.8 1.8 0 0 0-2 1.6c0 1 .7 1.4 2 1.8a5.7 5.7 0 0 1 2.1 1 2.6 2.6 0 0 1 .9 2c0 1.6-1.2 2.7-3.3 2.7-1.3 0-2.2-.4-2.3-.9l-.3-1.5ZM23.3 43.4l.2-.1-.5-.2c-.2-.1-.4-.3-.4-.6a1.7 1.7 0 0 1 .2-.6l.6-1.2c0-.3.2-.5.5-.5h2.7c.3 0 .4.1.5.4l.6 1.6a1.4 1.4 0 0 1 .1.5c0 .2-.1.3-.4.4s-.2 0-.2.2a.1.1 0 0 0 0 .1 9.2 9.2 0 0 1 1.2 0h1.4c.2 0 .1 0 .1-.1l-.5-.3c-.2 0-.6-.5-.9-1l-2.7-7-.1-.2-.2.2-3.3 7a2.7 2.7 0 0 1-.6 1 .4.4 0 0 1-.5 0c-.4-.2-.6-.5-.9-1.1L17.5 35l-.1-.2-.2.2-3.3 7a2.4 2.4 0 0 1-.6 1c-.2 0-.5 0-.5.2a.2.2 0 0 0 .1.2H15c.3 0 .2 0 .2-.1l-.5-.3c-.2 0-.4-.3-.4-.5a1.5 1.5 0 0 1 .2-.6l.5-1.3c.2-.2.3-.4.6-.4h2.7c.3 0 .4.1.5.4l.6 1.6a1.4 1.4 0 0 1 .1.4c0 .2-.1.4-.4.4s-.2.1-.2.3a.1.1 0 0 0 0 .1h4.3ZM18 39.8h-2.3c-.2 0-.3 0-.3-.2a.4.4 0 0 1 .1-.2l1.3-2.8.1-.1.2.1 1 2.8a.5.5 0 0 1 .1.2c0 .1 0 .2-.2.2Zm8.3 0h-2.3c-.2 0-.3 0-.3-.2a.4.4 0 0 1 .1-.2l1.3-2.8.1-.1.2.1 1 2.8a.8.8 0 0 1 .1.2c0 .1 0 .2-.2.2ZM32.7 35.9c0-.2 0-.3-.3-.3h-1.7c-.4 0-.7.2-.9.7s0 .6-.3.6 0 0 0-.2a1.6 1.6 0 0 1 0-.2v-1.2c0-.2.2-.2.4-.2h6.7c.3 0 .2 0 .2.2l.1 1v.1l-.1.3-.3-.6a1 1 0 0 0-1-.5H34c-.3 0-.4 0-.4.3v6c0 .6 0 .8.5 1s.6 0 .6.3 0 .2-.2.2l-1.4-.1-1.3.1c-.2 0-.2 0-.2-.2s.3-.1.7-.3.4-.4.4-1v-6ZM41.7 43.6c-2.5 0-4-1.7-4-4.2a4.7 4.7 0 0 1 1.2-3.3 3.7 3.7 0 0 1 2.9-1.2 4.8 4.8 0 0 1 2 .5l.8.4h.3l.1.2.2 1.2a2 2 0 0 1 0 .2c0 .2 0 .2-.2.2s-.2-.3-.5-.7a3.2 3.2 0 0 0-2.7-1.6c-1.8 0-3.1 1.4-3.1 3.6 0 2.5 1.4 4.3 3.2 4.3a3.5 3.5 0 0 0 2.4-1c.4-.5.5-1 .7-1s.1.1.1.2a1.1 1.1 0 0 1 0 .2l-.2 1a5 5 0 0 1-3.1 1ZM47.3 36.6c0-.5 0-.8-.3-1s-.8-.1-.8-.4.1-.2.3-.2l1.2.1a10.7 10.7 0 0 0 1.3 0 .2.2 0 0 1 .2.1c0 .2-.4.2-.7.4s-.3.5-.3 1v1.8c0 .3 0 .3.3.3h4c.3 0 .3 0 .3-.3v-1.8c0-.5 0-.8-.4-1s-.7-.1-.7-.4.1-.1.3-.1h1.3a11.4 11.4 0 0 0 1.2 0l.2.1c0 .3-.4.2-.7.4s-.3.5-.3 1v5.2c0 .5 0 .9.4 1.1s.7.1.7.3 0 .2-.2.2h-1.3a12.5 12.5 0 0 0-1.3 0l-.1-.1c0-.3.3-.2.6-.5s.3-.5.3-1v-2.3c0-.2 0-.3-.3-.3h-4c-.2 0-.2 0-.2.3v2.3c0 .6 0 .9.3 1.1s.7.1.7.4 0 .1-.2.1h-2.5l-.2-.1.6-.4c.3-.2.3-.6.3-1.1v-5.2ZM57 36.6c0-.5 0-.8-.4-1s-.6-.1-.6-.4 0-.2.2-.2l1.2.1a11.5 11.5 0 0 0 1.3 0 .2.2 0 0 1 .2.1c0 .2-.4.2-.7.4s-.3.5-.3 1v5.2c0 .5 0 .9.4 1.1s.7.1.7.3 0 .2-.2.2h-1.3a12.2 12.2 0 0 0-1.3 0l-.2-.1.7-.5c.3-.3.3-.5.3-1v-5.2Z"/></g><path id="Shape-2" data-name="Shape" class="cls-1" d="M67.2 43.5a3.4 3.4 0 0 1-3.6-3.5 2.7 2.7 0 0 1 2.2-2.7 2.4 2.4 0 0 1-.6-1.5 1.8 1.8 0 0 1 2-1.7 4.3 4.3 0 0 1 1.4.3l.3-.1s.2 0 .2.3v1.1c0 .2 0 .3-.2.3s-.1-.3-.4-.7a1.9 1.9 0 0 0-1.5-.9 1 1 0 0 0-1 1c0 .9 1.5 2.6 4.7 5.6a2.6 2.6 0 0 0 .4-.8c.2-.8 0-1-.6-1.2-.3-.2-.7 0-.7-.3s.1-.2.3-.2h1.2l1.4.1c0 .4-1 .2-1 .8a3.1 3.1 0 0 1-.7 2c1.2 1 2 1.5 2.4 1.5a3.9 3.9 0 0 0 .4 0 .1.1 0 0 1 .2.1c0 .2-.4.5-1 .5a4.3 4.3 0 0 1-2.6-1.3 4.4 4.4 0 0 1-3.2 1.3Zm-.1-4.6c-.6-.7-1-1.2-1.3-1.2a1.7 1.7 0 0 0-1.5 1.8 3 3 0 0 0 1 2.1 3.5 3.5 0 0 0 2.5 1 3.6 3.6 0 0 0 2.3-.7 31.1 31.1 0 0 1-3-3Z"/><g id="Shape-3" data-name="Shape"><path class="cls-1" d="M77.3 41.2a.7.7 0 0 1 0-.3c0-.1 0-.2.2-.2s.2.4.5 1a2.5 2.5 0 0 0 2.3 1.4 2 2 0 0 0 2.2-2c0-1.2-.7-1.6-2.2-2-1.8-.6-2.7-1.2-2.7-2.7s1.1-2.4 2.9-2.4a5.5 5.5 0 0 1 1.8.4l.4-.1v.2L83 36a1 1 0 0 1 0 .1c0 .2 0 .2-.2.2s-.2-.3-.4-.8a2.2 2.2 0 0 0-2.1-1.2 1.8 1.8 0 0 0-2 1.6c0 1.1.7 1.4 2 1.8a5.7 5.7 0 0 1 2.1 1 2.6 2.6 0 0 1 .8 2c0 1.6-1.1 2.8-3.2 2.8-1.3 0-2.3-.5-2.3-1l-.3-1.4ZM94.3 43.4l.2-.1-.4-.2c-.2-.1-.5-.3-.5-.6a1.7 1.7 0 0 1 .2-.6l.6-1.2c.1-.3.2-.5.5-.5h2.7c.3 0 .4.1.5.4l.6 1.6a1.4 1.4 0 0 1 .2.5c0 .2-.2.3-.4.4s-.3 0-.3.2a.1.1 0 0 0 .1.1 9.2 9.2 0 0 1 1.1 0h1.4c.2 0 .1 0 .1-.1l-.5-.3c-.3 0-.6-.5-.8-1l-2.7-7c0-.1 0-.2-.2-.2s-.1 0-.2.2l-3.3 7a2.7 2.7 0 0 1-.6 1 .4.4 0 0 1-.5 0c-.4-.2-.6-.5-.8-1.1L88.6 35c0-.1 0-.2-.2-.2s-.1 0-.2.2L85 42a2.4 2.4 0 0 1-.6 1c-.2 0-.5 0-.5.2a.2.2 0 0 0 .2.2h2c.3 0 .2 0 .2-.1l-.4-.3c-.2 0-.5-.3-.5-.5a1.5 1.5 0 0 1 .2-.6l.6-1.3c.1-.2.2-.4.5-.4h2.7c.3 0 .4.1.5.4l.6 1.6a1.4 1.4 0 0 1 .2.4c0 .2-.2.4-.4.4s-.3.1-.3.3a.1.1 0 0 0 .1.1H94.3Zm-5.2-3.6H87c-.2 0-.3 0-.3-.2a.4.4 0 0 1 0-.2l1.3-2.8.2-.1.1.1 1.1 2.8a.8.8 0 0 1 0 .2l-.1.2Zm8.3 0h-2.2c-.2 0-.3 0-.3-.2a.4.4 0 0 1 0-.2l1.3-2.8.2-.1.1.1 1.1 2.8a.8.8 0 0 1 0 .2c0 .1 0 .2-.2.2ZM103.8 35.9c0-.2-.1-.3-.4-.3h-1.6a1 1 0 0 0-1 .7c0 .3 0 .6-.2.6s-.1 0-.1-.2a1.6 1.6 0 0 1 0-.2v-1.2c0-.2.2-.2.5-.2h6.6c.2 0 .3 0 .3.2V36.7l-.3-.6a1 1 0 0 0-1-.5H105c-.3 0-.4 0-.4.3v6c0 .6 0 .8.5 1s.6 0 .6.3 0 .2-.2.2l-1.4-.1-1.3.1c-.2 0-.2 0-.2-.2s.4-.1.7-.3.4-.4.4-1v-6ZM112.8 43.6c-2.5 0-4-1.7-4-4.2A4.6 4.6 0 0 1 110 36a3.7 3.7 0 0 1 2.9-1.2 4.8 4.8 0 0 1 2 .5l.8.4h.3l.1.2.1 1.2a2 2 0 0 1 0 .2v.2l-.6-.7a3.2 3.2 0 0 0-2.7-1.6c-1.8 0-3.1 1.4-3.1 3.6 0 2.5 1.4 4.3 3.2 4.3a3.5 3.5 0 0 0 2.4-1c.4-.5.5-1 .7-1s.1.1.1.2a1.1 1.1 0 0 1 0 .2l-.2 1a5 5 0 0 1-3.1 1ZM118.4 36.6c0-.5 0-.8-.4-1s-.7-.1-.7-.4 0-.2.2-.2l1.3.1a10.9 10.9 0 0 0 1.3 0 .2.2 0 0 1 .2.1c0 .2-.4.2-.7.4s-.3.5-.3 1v1.8c0 .3 0 .3.3.3h4c.2 0 .3 0 .3-.3v-1.8c0-.5 0-.8-.4-1s-.7-.1-.7-.4.1-.1.3-.1h1.3a10.9 10.9 0 0 0 1.2 0l.2.1c0 .3-.4.2-.7.4s-.3.5-.3 1v5.2c0 .5 0 .9.4 1.1s.7.1.7.3 0 .2-.2.2H123l-.2-.1.7-.5c.3-.3.3-.5.3-1v-2.3c0-.2 0-.3-.3-.3h-4c-.2 0-.3 0-.3.3v2.3c0 .6 0 .9.4 1.1s.7.1.7.4-.1.1-.3.1h-1.3a12.4 12.4 0 0 0-1.2 0l-.2-.1.6-.4c.3-.2.4-.6.4-1.1v-5.2ZM128 36.6c0-.5 0-.8-.3-1s-.7-.1-.7-.4.1-.2.3-.2l1.2.1a11 11 0 0 0 1.3 0 .2.2 0 0 1 .2.1c0 .2-.4.2-.7.4s-.3.5-.3 1v5.2c0 .5 0 .9.4 1.1s.7.1.7.3 0 .2-.3.2h-1.3a12.5 12.5 0 0 0-1.2 0l-.2-.1c0-.1.4-.2.6-.5a1.2 1.2 0 0 0 .4-1v-5.2Z"/></g></g></g></g></svg>