<svg id="Layer_1" data-name="Layer 1" xmlns="http://www.w3.org/2000/svg" viewBox="0 0 136.3 77.6"><defs><style>.cls-1{fill:#010101}.cls-2{fill:#ef4651}</style></defs><path class="cls-1" d="M98 27.8a7 7 0 0 1-4.2 1.4 6.6 6.6 0 0 1-6.6-6.6 6.7 6.7 0 0 1 6.6-6.5 7.2 7.2 0 0 1 4.3 1.4l1.4-1.4a8.8 8.8 0 0 0-14.4 6.4A8.8 8.8 0 0 0 99.5 29Z"/><path class="cls-2" d="M72.3 42.8a1.3 1.3 0 0 0 1.3-1.3 1.3 1.3 0 0 0-1.3-1.3 1.3 1.3 0 0 0-1.3 1.3 1.3 1.3 0 0 0 1.3 1.3ZM71.3 45.2h2v17h-2z"/><path class="cls-1" d="M30.3 22.6a8.3 8.3 0 0 0-8.2-8.4 8.1 8.1 0 0 0-6.3 3v-3h-2v23.2h2v-9.1a8 8 0 0 0 6.3 3 8.6 8.6 0 0 0 8.2-8.7ZM22 29.2a6.3 6.3 0 0 1-6.3-6.2v-.2a6.3 6.3 0 0 1 6.3-6.5 6.4 6.4 0 0 1 6.2 6.4 6.3 6.3 0 0 1-6.2 6.5Z"/><path class="cls-2" d="M37.7 62.3a8.1 8.1 0 0 0 6.2-3v3h2v-17h-2v3a8.1 8.1 0 0 0-6.2-3 8.5 8.5 0 0 0 0 17Zm-6.2-8.5a6.3 6.3 0 0 1 6.2-6.5 6.4 6.4 0 0 1 6.2 6.5v.2a6.2 6.2 0 1 1-12.4-.2ZM67.6 53.8a8.3 8.3 0 0 0-8.2-8.5 8 8 0 0 0-6.2 3v-3h-2v23.2h2v-9a8 8 0 0 0 6.2 2.9 8.6 8.6 0 0 0 8.2-8.6Zm-8.2 6.5a6.3 6.3 0 0 1-6.2-6.2v-.2a6.3 6.3 0 0 1 6.2-6.5 6.5 6.5 0 0 1 0 12.9Z"/><path class="cls-1" d="M45.2 14.1v10a5 5 0 0 1-5 5 5 5 0 0 1-4.9-5v-10h-2v10a7 7 0 0 0 6.9 7 7 7 0 0 0 7-7v-10ZM59.4 14.1a8.1 8.1 0 0 0-6.2 3v-8h-2v22h2v-3a8 8 0 0 0 6.2 3 8.4 8.4 0 0 0 8.2-8.4 8.4 8.4 0 0 0-8.2-8.6Zm6.3 8.6a6.3 6.3 0 0 1-6.3 6.5 6.4 6.4 0 0 1-6.2-6.5v-.2a6.2 6.2 0 1 1 12.4.2ZM80.2 11.7a1.3 1.3 0 0 0 1.3-1.3A1.3 1.3 0 0 0 80.2 9a1.3 1.3 0 0 0-1.3 1.3 1.3 1.3 0 0 0 1.3 1.3ZM79.2 14.1h2v17h-2zM105.2 11.7a1.3 1.3 0 0 0 1.3-1.3 1.3 1.3 0 0 0-1.3-1.3 1.3 1.3 0 0 0-1.3 1.3 1.3 1.3 0 0 0 1.3 1.3ZM104.2 14.1h2v17h-2z"/><path class="cls-2" d="M105 45.2a6.9 6.9 0 0 0-5 2.2v-2.2h-2v17h2v-10a5 5 0 0 1 5-4.9 4.9 4.9 0 0 1 5 5v10h2v-10a6.9 6.9 0 0 0-7-7ZM122.3 60.3h-.2l-1 .1c-.7 0-1.2-.5-1.2-1.7V47h2.4v-2H120v-5.7h-2v5.7h-2.5v2h2.4v11.7a3.5 3.5 0 0 0 .8 2.6 2.5 2.5 0 0 0 2 .8 6.6 6.6 0 0 0 1.6-.3h.2ZM91 57.4a6 6 0 0 1-5.2 2.9 6.3 6.3 0 0 1-6.3-6H93a1 1 0 0 0 1-.9 8.3 8.3 0 0 0-8.2-8 8.4 8.4 0 0 0-8.4 8.6 8.3 8.3 0 0 0 8.3 8.4 8.2 8.2 0 0 0 7-3.8Zm-5.2-10.1a6.1 6.1 0 0 1 6 5H79.6a6.4 6.4 0 0 1 6.3-5ZM25 54a5.1 5.1 0 0 0-1.2-.6 13.7 13.7 0 0 0-3-.9 1.5 1.5 0 0 0-.7 0 9.9 9.9 0 0 1-2.6-1.2 1.9 1.9 0 0 1-.9-1.5 2.4 2.4 0 0 1 1.1-1.7 4.5 4.5 0 0 1 3-.8 6.5 6.5 0 0 1 3.7 1.6v.1l1.5-1.3a4.2 4.2 0 0 0-.7-.5 7.6 7.6 0 0 0-4.4-1.6 6.9 6.9 0 0 0-4.3 1 4.3 4.3 0 0 0-2 3.2 3.5 3.5 0 0 0 1 2.8 9.2 9.2 0 0 0 4.6 2 7 7 0 0 1 3.2 1.3 2.5 2.5 0 0 1 1.1 2 2.4 2.4 0 0 1-1.3 1.8 5.6 5.6 0 0 1-3 .9 9.4 9.4 0 0 1-4.8-2l-.1-.1-1.5 1.3.1.1a10 10 0 0 0 6.2 2.6 6.3 6.3 0 0 0 4.3-1.2 4.1 4.1 0 0 0 2-3.4 3.6 3.6 0 0 0-1.4-3.8Z"/><path class="cls-1" d="M121 23a5.2 5.2 0 0 0-1.1-.7 14.5 14.5 0 0 0-3-.8 1.4 1.4 0 0 0-.7-.1 9.9 9.9 0 0 1-2.6-1.1 1.9 1.9 0 0 1-.8-1.6 2.4 2.4 0 0 1 1-1.7 4.6 4.6 0 0 1 3.1-.8 6.4 6.4 0 0 1 3.6 1.7h.1l1.4-1.3a4.2 4.2 0 0 0-.7-.5 7.6 7.6 0 0 0-4.4-1.7 6.9 6.9 0 0 0-4.3 1 4.3 4.3 0 0 0-2 3.3 3.5 3.5 0 0 0 1.1 2.7 9.3 9.3 0 0 0 4.5 2 7 7 0 0 1 3.3 1.4 2.5 2.5 0 0 1 1 2 2.4 2.4 0 0 1-1.3 1.8 5.6 5.6 0 0 1-3 .9 9.4 9.4 0 0 1-4.8-2l-.1-.1-1.4 1.3a9.9 9.9 0 0 0 6.2 2.7 6.3 6.3 0 0 0 4.2-1.2 4.2 4.2 0 0 0 2.1-3.4A3.4 3.4 0 0 0 121 23ZM71.3 9.2h2v21.9h-2z"/></svg>