<svg id="Layer_1" data-name="Layer 1" xmlns="http://www.w3.org/2000/svg" viewBox="0 0 136.3 77.6"><defs><style>.cls-1{fill:#020202}</style></defs><path class="cls-1" d="M52.2 24h7.5l5 18h.2l4.5-18H77l4.4 18c1.9-6 3.6-12 5.2-18H94l-9.3 29.8h-6.5L73.4 35h-.3c-1 3-1.7 6.2-2.6 9.3L68 53.7h-6.4L52.2 24ZM30.8 23.8c4.8.1 9.4.1 14.1.4a7 7 0 0 1 3.7 13l-1 .6 1.5.6a6.6 6.6 0 0 1 4.2 5.3c.8 5.3-1.9 9-7 9.8a17.1 17.1 0 0 1-2.5.2h-13Zm7 23.8H42a6.6 6.6 0 0 0 1.7-.3 2.8 2.8 0 0 0 2.2-2.9 2.8 2.8 0 0 0-2.2-2.8c-2-.6-4-.2-6.2-.3v5.5l.1.8Zm0-11.8h2.7a9.7 9.7 0 0 0 2.3-.3 2.5 2.5 0 0 0 1.9-2.7 2.5 2.5 0 0 0-2-2.4c-1.6-.5-3.3-.2-5-.3ZM99.3 24h6.7l11 29.7h-7.3l-1.8-5.2H97.5l-1.8 5.2h-7.3L99.2 24Zm3.5 8.7h-.3l-3.1 9.8h6.5Z"/><path d="M13.4 30.2H5.5V24h22.7v6.2h-7.8v23.5h-7Z" fill="#010101"/><path d="M130.8 53.8h-6.3l-11-29.8h6.3l11 29.8Z" fill="#fed403"/></svg>