<svg id="Layer_1" data-name="Layer 1" xmlns="http://www.w3.org/2000/svg" viewBox="0 0 136.3 77.6"><defs><style>.cls-1{fill:#191d63}</style></defs><path class="cls-1" d="M87.4 37.8a1.1 1.1 0 1 0 1.2 1.1 1.2 1.2 0 0 0-1.2-1.1M87.4 31a1.1 1.1 0 1 0 1.2 1.1 1.1 1.1 0 0 0-1.2-1.1M87.4 34.4a1.1 1.1 0 1 0 1.2 1.1 1.1 1.1 0 0 0-1.2-1.1M90.4 25.8a1.1 1.1 0 1 0 1.1 1.1 1.1 1.1 0 0 0-1.1-1M90.4 22.8a.7.7 0 1 0 .7.7.8.8 0 0 0-.7-.7M87.4 43.5a1.1 1.1 0 1 0 0-2.2 1.1 1.1 0 0 0 0 2.2M87.4 27.5a1.1 1.1 0 1 0 1.2 1.2 1.1 1.1 0 0 0-1.2-1.2M84.4 39.6a1.1 1.1 0 1 0 1.2 1.1 1.1 1.1 0 0 0-1.2-1.1M84.4 38a.7.7 0 1 0-.7-.7.7.7 0 0 0 .7.7M78.5 38a.7.7 0 1 0-.7-.7.8.8 0 0 0 .7.7M81.5 46.6a.7.7 0 0 0 .7-.7.8.8 0 0 0-.7-.7.7.7 0 0 0-.7.7.8.8 0 0 0 .7.7M84.4 29.7a.7.7 0 0 0 0 1.4.7.7 0 0 0 .7-.7.7.7 0 0 0-.7-.7M78.5 29.7a.7.7 0 1 0 0 1.4.7.7 0 0 0 .7-.7.7.7 0 0 0-.7-.7M87.4 24.1a1.1 1.1 0 0 0 0 2.3 1.1 1.1 0 1 0 0-2.3M87.4 21.1a.7.7 0 1 0 .7.7.7.7 0 0 0-.7-.7M84.4 45.3a1.1 1.1 0 1 0-1-1.1 1.1 1.1 0 0 0 1 1.1M90.4 32.7a1.1 1.1 0 1 0 1.1 1.1 1.1 1.1 0 0 0-1.1-1.1M103.6 29.3a1.1 1.1 0 1 0 0 2.3 1.1 1.1 0 0 0 0-2.3M103.6 25.8a1.1 1.1 0 1 0 1.1 1.1 1.1 1.1 0 0 0-1.1-1M93.4 34.4a1.1 1.1 0 1 0 1.1 1.1 1.1 1.1 0 0 0-1.1-1.1M103.6 22.4a1.1 1.1 0 1 0 1.1 1.1 1.1 1.1 0 0 0-1.1-1M103.6 39.6a1.1 1.1 0 1 0 0 2.2 1.1 1.1 0 0 0 0-2.2M103.6 36a1.1 1.1 0 1 0 1.1 1.2 1.2 1.2 0 0 0-1.1-1.1M103.6 32.7a1.1 1.1 0 1 0 1.1 1.1 1.1 1.1 0 0 0-1.1-1.1M72.5 36a1.1 1.1 0 1 0 1.2 1.2 1.1 1.1 0 0 0-1.2-1.1M90.4 41.8a1.1 1.1 0 1 0-1.1-1.1 1 1 0 0 0 1.1 1.1M93.4 31a1.1 1.1 0 1 0 1.1 1.1 1.1 1.1 0 0 0-1.1-1.1M84.4 25.8a1.1 1.1 0 1 0 1.2 1.1 1.1 1.1 0 0 0-1.2-1M90.4 36a1.1 1.1 0 1 0 1.1 1.2 1.2 1.2 0 0 0-1.1-1.1M93.4 39.7a.7.7 0 1 0 0-1.4.8.8 0 0 0-.7.7.7.7 0 0 0 .7.7M93.4 27.5a1.1 1.1 0 1 0 1.1 1.2 1.1 1.1 0 0 0-1.1-1.2M75.5 44.7a1.1 1.1 0 1 0 1.2 1.1 1 1 0 0 0-1.2-1.1M75.5 31a1.1 1.1 0 1 0 1.2 1.1 1 1 0 0 0-1.2-1.1M84.4 22.4a1.1 1.1 0 1 0 1.2 1.1 1.1 1.1 0 0 0-1.2-1M75.5 24.1a1.1 1.1 0 0 0 0 2.3 1.1 1.1 0 0 0 1.2-1.2 1 1 0 0 0-1.2-1M75.5 20.7a1.1 1.1 0 1 0 1.2 1.1 1.1 1.1 0 0 0-1.2-1M75.5 41.3a1.1 1.1 0 0 0 0 2.2 1.1 1.1 0 0 0 1.2-1.1 1 1 0 0 0-1.2-1.1M75.5 37.8a1.1 1.1 0 1 0 1.2 1.1 1.1 1.1 0 0 0-1.2-1.1M75.5 34.4a1.1 1.1 0 1 0 1.2 1.1 1 1 0 0 0-1.2-1.1M72.5 43a1.1 1.1 0 1 0 1.2 1.1 1.1 1.1 0 0 0-1.2-1.1M72.5 46.4a1.1 1.1 0 1 0 1.2 1.1 1.1 1.1 0 0 0-1.2-1.1M75.5 56.9a.7.7 0 1 0 0-1.4.7.7 0 0 0-.7.7.8.8 0 0 0 .7.7M72.5 39.6a1.1 1.1 0 1 0 1.2 1.1 1 1 0 0 0-1.2-1.1M103.6 43a1.1 1.1 0 1 0 1.1 1.1 1.1 1.1 0 0 0-1.1-1.1M72.5 49.9a1.1 1.1 0 1 0 1.2 1.1 1 1 0 0 0-1.2-1.1M72.5 55.6a1.1 1.1 0 1 0-1.1-1.1 1.2 1.2 0 0 0 1.1 1M75.5 27.5a1.1 1.1 0 1 0 1.2 1.2 1.1 1.1 0 0 0-1.2-1.2M81.5 24.1a1.1 1.1 0 1 0 1.1 1.1 1.1 1.1 0 0 0-1.1-1M81.5 27.5a1.1 1.1 0 1 0 1.1 1.2 1.1 1.1 0 0 0-1.1-1.2M81.5 20.7a1.1 1.1 0 1 0 1.1 1.1 1.1 1.1 0 0 0-1.1-1M78.5 45.3a1.1 1.1 0 1 0-1.2-1.1 1.1 1.1 0 0 0 1.2 1.1M75.5 48.1a1.1 1.1 0 1 0 1.2 1.2 1 1 0 0 0-1.2-1.2M81.5 37.8a1.1 1.1 0 1 0 1.1 1.1 1.2 1.2 0 0 0-1.1-1.1M81.5 43.5a1.1 1.1 0 1 0-1.2-1.1 1.1 1.1 0 0 0 1.2 1.1M78.5 25.8a1.1 1.1 0 1 0 1.1 1.1 1.1 1.1 0 0 0-1.1-1M78.5 22.4a1.1 1.1 0 1 0 1.1 1.1 1 1 0 0 0-1.1-1M75.5 51.5a1.1 1.1 0 0 0 0 2.3 1.1 1.1 0 0 0 1.2-1.1 1 1 0 0 0-1.2-1.2M78.5 39.6a1.1 1.1 0 1 0 0 2.2 1.1 1.1 0 0 0 1.1-1.1 1 1 0 0 0-1.1-1.1M90.4 29.3a1.1 1.1 0 1 0 1.1 1.1 1.1 1.1 0 0 0-1.1-1.1M118.4 24.1a1.1 1.1 0 1 0 1.1 1.1 1.1 1.1 0 0 0-1-1M118.4 27.5a1.1 1.1 0 1 0 1.1 1.2 1.1 1.1 0 0 0-1-1.2M118.4 41.3a1.1 1.1 0 1 0 1.1 1.1 1.1 1.1 0 0 0-1-1.1M118.4 37.8a1.1 1.1 0 1 0 1.1 1.1 1.2 1.2 0 0 0-1-1.1M121.4 22.4a1.1 1.1 0 0 0 0 2.3 1.1 1.1 0 1 0 0-2.3M121.4 29.3a1.1 1.1 0 1 0 1.1 1.1 1.1 1.1 0 0 0-1.1-1.1M121.4 32.7a1.1 1.1 0 0 0 0 2.3 1.1 1.1 0 1 0 0-2.3M121.4 25.8a1.1 1.1 0 1 0 1.1 1.1 1.1 1.1 0 0 0-1.1-1M115.4 25.8a1.1 1.1 0 1 0 1.2 1.1 1.1 1.1 0 0 0-1.2-1M118.4 21.1a.7.7 0 1 0 .7.7.7.7 0 0 0-.7-.7M115.4 29.7a.7.7 0 1 0 0 1.4.7.7 0 0 0 .7-.7.7.7 0 0 0-.7-.7M115.4 36.5a.7.7 0 1 0 .7.7.7.7 0 0 0-.7-.7M118.4 45a.7.7 0 1 0 0 1.5.7.7 0 0 0 0-1.4M115.4 22.4a1.1 1.1 0 1 0 1.2 1.1 1.1 1.1 0 0 0-1.2-1M115.4 39.6a1.1 1.1 0 1 0 0 2.2 1.1 1.1 0 0 0 0-2.2M115.4 45.3a1.1 1.1 0 1 0-1.1-1.1 1.1 1.1 0 0 0 1.1 1.1M112.5 46.6a.7.7 0 0 0 .7-.7.8.8 0 0 0-.8-.7.7.7 0 0 0-.7.7.8.8 0 0 0 .8.7M127.3 26.2a.7.7 0 1 0 0 1.4.7.7 0 0 0 .8-.7.8.8 0 0 0-.8-.7M124.4 43.1a.7.7 0 0 0 0-1.4.7.7 0 0 0-.8.7.7.7 0 0 0 .8.7M121.4 44.8a.7.7 0 1 0 0-1.4.7.7 0 0 0-.7.7.7.7 0 0 0 .7.7M127.3 31.6a1.1 1.1 0 0 0 0-2.3 1.1 1.1 0 0 0-1.1 1.1 1 1 0 0 0 1.1 1.2M127.3 36a1.1 1.1 0 1 0 1.2 1.2 1.2 1.2 0 0 0-1.2-1.1M127.3 32.7a1.1 1.1 0 1 0 1.2 1.1 1.1 1.1 0 0 0-1.2-1.1M124.4 37.8a1.1 1.1 0 1 0 1.1 1.1 1.2 1.2 0 0 0-1.1-1.1M124.4 34.4a1.1 1.1 0 1 0 1.1 1.1 1.1 1.1 0 0 0-1.1-1.1M121.4 39.6a1.1 1.1 0 1 0 1.1 1.1 1.1 1.1 0 0 0-1.1-1.1M124.4 24.1a1.1 1.1 0 0 0 0 2.3 1.1 1.1 0 1 0 0-2.3M124.4 31a1.1 1.1 0 1 0 1.1 1.1 1.1 1.1 0 0 0-1.1-1.1M121.4 36a1.1 1.1 0 1 0 1.1 1.2 1.2 1.2 0 0 0-1.1-1.1M124.4 27.5a1.1 1.1 0 1 0 1.1 1.2 1.1 1.1 0 0 0-1.1-1.2M106.6 37.8a1.1 1.1 0 1 0 1.1 1.1 1.2 1.2 0 0 0-1.1-1.1M103.6 46.4a1.1 1.1 0 1 0 1.1 1.1 1.2 1.2 0 0 0-1.1-1.1M106.6 41.3a1.1 1.1 0 1 0 1.1 1.1 1.1 1.1 0 0 0-1.1-1.1M112.5 41.3a1.1 1.1 0 1 0 1 1.1 1 1 0 0 0-1-1.1M106.6 51.5a1.1 1.1 0 1 0 1.1 1.2 1.1 1.1 0 0 0-1.1-1.2M106.6 44.7a1.1 1.1 0 1 0 1.1 1.1 1.1 1.1 0 0 0-1.1-1.1M106.6 31a1.1 1.1 0 1 0 1.1 1.1 1.1 1.1 0 0 0-1.1-1.1M106.6 48.1a1.1 1.1 0 1 0 1.1 1.2 1.1 1.1 0 0 0-1.1-1.2M106.6 24.1a1.1 1.1 0 1 0 1.1 1.1 1.1 1.1 0 0 0-1.1-1M106.6 56.9a.7.7 0 1 0-.7-.7.7.7 0 0 0 .7.7M103.6 55.6a1.1 1.1 0 1 0-1.1-1.1 1.1 1.1 0 0 0 1 1M103.6 49.9a1.1 1.1 0 1 0 1.1 1.1 1.1 1.1 0 0 0-1.1-1.1M106.6 27.5a1.1 1.1 0 1 0 1.1 1.2 1.1 1.1 0 0 0-1.1-1.2M106.6 20.7a1.1 1.1 0 1 0 1.1 1.1 1.1 1.1 0 0 0-1.1-1M109.5 22.4a1.1 1.1 0 0 0 0 2.3 1.1 1.1 0 0 0 1.1-1.2 1 1 0 0 0-1.1-1M106.6 34.4a1.1 1.1 0 1 0 1.1 1.1 1.1 1.1 0 0 0-1.1-1.1M112.5 20.7a1.1 1.1 0 1 0 1 1.1 1.1 1.1 0 0 0-1-1M112.5 24.1a1.1 1.1 0 1 0 1 1.1 1 1 0 0 0-1-1M109.5 55.6a1.1 1.1 0 1 0-1.2-1.1 1.2 1.2 0 0 0 1.2 1M112.5 37.8a1.1 1.1 0 1 0 1 1.1 1.1 1.1 0 0 0-1-1.1M109.5 49.9a1.1 1.1 0 1 0 1.1 1.1 1 1 0 0 0-1.1-1.1M112.5 27.5a1.1 1.1 0 1 0 1 1.2 1.1 1.1 0 0 0-1-1.2M109.5 39.6a1.1 1.1 0 1 0 1.1 1.1 1 1 0 0 0-1.1-1.1M109.5 36a1.1 1.1 0 1 0 1.1 1.2 1.1 1.1 0 0 0-1.1-1.1M109.5 32.7a1.1 1.1 0 0 0 0 2.3 1.1 1.1 0 0 0 1.1-1.2 1 1 0 0 0-1.1-1.1M109.5 29.3a1.1 1.1 0 1 0 1.1 1.1 1 1 0 0 0-1.1-1.1M109.5 25.8a1.1 1.1 0 1 0 1.1 1.1 1.1 1.1 0 0 0-1.1-1M109.5 43a1.1 1.1 0 0 0 0 2.3 1.1 1.1 0 1 0 0-2.3M109.5 46.4a1.1 1.1 0 1 0 1.1 1.1 1.1 1.1 0 0 0-1.1-1.1M62 22.8a.7.7 0 1 0 .7.7.7.7 0 0 0-.7-.7M29.4 41.3a1.1 1.1 0 1 0 1 1.1 1.1 1.1 0 0 0-1-1.1M29.4 37.8a1.1 1.1 0 1 0 1 1.1 1.1 1.1 0 0 0-1-1.1M29.4 31.4a.7.7 0 1 0 .7.7.7.7 0 0 0-.7-.7M29.4 34.4a1.1 1.1 0 1 0 1 1.1 1.1 1.1 0 0 0-1-1.1M32.3 44.8a.7.7 0 1 0 0-1.4.7.7 0 0 0-.7.7c0 .4.3.7.7.7M29.4 44.7a1.1 1.1 0 1 0 1 1.1 1.1 1.1 0 0 0-1-1.1M29.4 50.4a1.1 1.1 0 1 0-1.2-1.1 1 1 0 0 0 1.2 1.1M26.4 55.6a1.1 1.1 0 1 0-1.2-1.1 1.1 1.1 0 0 0 1.2 1M26.4 43a1.1 1.1 0 1 0 1.1 1.1 1.1 1.1 0 0 0-1.1-1.1M23.4 48.1a1.1 1.1 0 1 0 1.1 1.2 1.1 1.1 0 0 0-1.1-1.2M23.4 51.5a1.1 1.1 0 1 0 1.1 1.2 1.1 1.1 0 0 0-1.1-1.2M26.4 39.6a1.1 1.1 0 1 0 0 2.2 1.1 1.1 0 0 0 0-2.2M26.4 49.9a1.1 1.1 0 1 0 1.1 1.1 1.1 1.1 0 0 0-1.1-1.1M26.4 46.4a1.1 1.1 0 1 0 1.1 1.1 1.2 1.2 0 0 0-1.1-1.1M35.2 40.1a1.1 1.1 0 1 0-1-1.1 1.1 1.1 0 0 0 1 1.1M35.2 34.4a1.1 1.1 0 1 0 1.2 1.1 1 1 0 0 0-1.2-1.1M35.2 31a1.1 1.1 0 1 0 1.2 1.1 1 1 0 0 0-1.2-1.1M35.2 27.5a1.1 1.1 0 1 0 1.2 1.2 1.1 1.1 0 0 0-1.2-1.2M38.2 44.8a.7.7 0 1 0-.7-.7.7.7 0 0 0 .7.7M38.2 25.8a1.1 1.1 0 1 0 1.1 1.1 1.1 1.1 0 0 0-1-1M32.3 25.8a1.1 1.1 0 1 0 1.2 1.1 1.1 1.1 0 0 0-1.2-1M35.2 24.1a1.1 1.1 0 1 0 1.2 1.1 1 1 0 0 0-1.2-1M32.3 29.3a1.1 1.1 0 1 0 1.2 1.1 1.1 1.1 0 0 0-1.2-1.1M32.3 36a1.1 1.1 0 1 0 1.2 1.2 1.2 1.2 0 0 0-1.2-1.1M32.3 32.7a1.1 1.1 0 1 0 1.2 1.1 1.1 1.1 0 0 0-1.2-1.1M32.3 39.6a1.1 1.1 0 1 0 1.2 1.1 1.1 1.1 0 0 0-1.2-1.1M35.2 21.1a.7.7 0 1 0 .7.7c.1-.4-.2-.7-.7-.7M32.3 22.8a.7.7 0 0 0 0 1.4.7.7 0 0 0 .7-.7.8.8 0 0 0-.7-.7M38.2 22.8a.7.7 0 1 0 .7.7.7.7 0 0 0-.7-.7M14.5 28.1a1.1 1.1 0 1 0-1.1-1.1 1.2 1.2 0 0 0 1.1 1.1M17.4 24.1a1.1 1.1 0 1 0 1.2 1.1 1.1 1.1 0 0 0-1.2-1M17.4 27.5a1.1 1.1 0 1 0 1.2 1.2 1.1 1.1 0 0 0-1.2-1.2M17.4 34.4a1.1 1.1 0 1 0 1.2 1.1 1.1 1.1 0 0 0-1.2-1.1M17.4 31a1.1 1.1 0 1 0 1.2 1.1 1.1 1.1 0 0 0-1.2-1.1M14.5 35a1.1 1.1 0 1 0-1.1-1.1 1.2 1.2 0 0 0 1.1 1.1M38.2 29.3a1.1 1.1 0 1 0 0 2.3 1.1 1.1 0 0 0 1.1-1.2 1 1 0 0 0-1-1.1M14.5 31.6a1.1 1.1 0 0 0 0-2.3 1.1 1.1 0 1 0 0 2.3M17.4 20.7a1.1 1.1 0 1 0 1.2 1.1 1.1 1.1 0 0 0-1.2-1M11.6 24.1a1.1 1.1 0 1 0 1 1.1 1 1 0 0 0-1-1M11.6 20.7a1.1 1.1 0 1 0 1 1.1 1.1 1.1 0 0 0-1-1M8.6 22.8a.7.7 0 1 0 0 1.4.7.7 0 0 0 .7-.7.7.7 0 0 0-.7-.7M11.6 27.5a1.1 1.1 0 1 0 1 1.2 1.1 1.1 0 0 0-1-1.2M14.5 22.4a1.1 1.1 0 1 0 1.2 1.1 1.1 1.1 0 0 0-1.2-1M17.4 43.1a.7.7 0 1 0-.7-.7.7.7 0 0 0 .7.7M20.4 26.2a.7.7 0 1 0 .7.7.7.7 0 0 0-.7-.7M23.4 56.9a.7.7 0 0 0 .7-.7.7.7 0 1 0-1.4 0 .7.7 0 0 0 .7.7M23.4 34.8a.7.7 0 1 0 .7.7.8.8 0 0 0-.7-.7M23.4 31.4a.7.7 0 1 0 .7.7.7.7 0 0 0-.7-.7M47.1 31.4a.7.7 0 1 0 .8.7.7.7 0 0 0-.7-.7M26.4 36.5a.7.7 0 1 0 .7.7.8.8 0 0 0-.7-.7M44.2 36.5a.7.7 0 1 0 0 1.4.7.7 0 1 0 0-1.4M20.4 43a1.1 1.1 0 0 0 0 2.3 1.1 1.1 0 1 0 0-2.3M20.4 46.4a1.1 1.1 0 1 0 1.2 1.1 1.2 1.2 0 0 0-1.2-1.1M17.4 37.8a1.1 1.1 0 1 0 1.2 1.1 1.1 1.1 0 0 0-1.2-1.1M23.4 37.8a1.1 1.1 0 1 0 1.1 1.1 1.1 1.1 0 0 0-1.1-1.1M23.4 41.3a1.1 1.1 0 1 0 1.1 1.1 1.1 1.1 0 0 0-1.1-1.1M23.4 44.7a1.1 1.1 0 1 0 1.1 1.1 1.1 1.1 0 0 0-1.1-1.1M20.4 29.3a1.1 1.1 0 1 0 1.2 1.1 1.1 1.1 0 0 0-1.2-1.1M20.4 39.6a1.1 1.1 0 1 0 1.2 1.1 1.1 1.1 0 0 0-1.2-1.1M20.4 51.7a.7.7 0 1 0-.7-.7.7.7 0 0 0 .7.7M20.4 36a1.1 1.1 0 1 0 1.2 1.2 1.2 1.2 0 0 0-1.2-1.1M20.4 32.7a1.1 1.1 0 0 0 0 2.3 1.1 1.1 0 1 0 0-2.3M50.1 51.7a.7.7 0 0 0 0-1.4.8.8 0 0 0-.7.7.7.7 0 0 0 .7.7M56 29.3a1.1 1.1 0 1 0 1.2 1.1 1.1 1.1 0 0 0-1.1-1.1M56 25.8a1.1 1.1 0 1 0 1.2 1.1 1.1 1.1 0 0 0-1.1-1M56 35a1.1 1.1 0 1 0-1-1.1 1.1 1.1 0 0 0 1 1.1M59 29.9a1.1 1.1 0 1 0-1-1.2 1.1 1.1 0 0 0 1 1.2M56 22.4a1.1 1.1 0 1 0 1.2 1.1 1.1 1.1 0 0 0-1.1-1M59 24.1a1.1 1.1 0 0 0 0 2.3 1.1 1.1 0 1 0 0-2.3M59 20.7a1.1 1.1 0 1 0 1.2 1.1 1.1 1.1 0 0 0-1.1-1M53.1 34.4a1.1 1.1 0 1 0 1.1 1.1 1.1 1.1 0 0 0-1-1.1M53.1 27.5a1.1 1.1 0 1 0 1.1 1.2 1.1 1.1 0 0 0-1-1.2M53.1 24.1a1.1 1.1 0 1 0 1.1 1.1 1.1 1.1 0 0 0-1-1M53.1 20.7a1.1 1.1 0 1 0 1.1 1.1 1.1 1.1 0 0 0-1-1M69.6 56.9a.7.7 0 1 0-.7-.7.7.7 0 0 0 .7.7M53.1 43.1a.7.7 0 1 0-.7-.7.7.7 0 0 0 .7.7M53.1 37.8a1.1 1.1 0 1 0 1.1 1.1 1.1 1.1 0 0 0-1-1.1M53.1 31a1.1 1.1 0 1 0 1.1 1.1 1.1 1.1 0 0 0-1-1.1M69.6 44.7a1.1 1.1 0 1 0 1.2 1.1 1.1 1.1 0 0 0-1.2-1.1M69.6 51.5a1.1 1.1 0 1 0 1.2 1.2 1.1 1.1 0 0 0-1.2-1.2M69.6 48.1a1.1 1.1 0 1 0 1.2 1.2 1.1 1.1 0 0 0-1.2-1.2M72.5 22.4a1.1 1.1 0 1 0 1.2 1.1 1 1 0 0 0-1.2-1M72.5 25.8a1.1 1.1 0 1 0 1.2 1.1 1.1 1.1 0 0 0-1.2-1M72.5 29.3a1.1 1.1 0 1 0 1.2 1.1 1 1 0 0 0-1.2-1.1M69.6 34.4a1.1 1.1 0 1 0 1.2 1.1 1.1 1.1 0 0 0-1.2-1.1M69.6 41.3a1.1 1.1 0 1 0 1.2 1.1 1.1 1.1 0 0 0-1.2-1.1M69.6 31a1.1 1.1 0 1 0 1.2 1.1 1.1 1.1 0 0 0-1.2-1.1M69.6 24.1a1.1 1.1 0 1 0 1.2 1.1 1.1 1.1 0 0 0-1.2-1M69.6 27.5a1.1 1.1 0 1 0 1.2 1.2 1.1 1.1 0 0 0-1.2-1.2M69.6 20.7a1.1 1.1 0 1 0 1.2 1.1 1.1 1.1 0 0 0-1.2-1M69.6 37.8a1.1 1.1 0 1 0 1.2 1.1 1.2 1.2 0 0 0-1.2-1.1M38.2 32.7a1.1 1.1 0 1 0 1.1 1.1 1 1 0 0 0-1-1.1M44.2 39.6a1.1 1.1 0 1 0 1.1 1.1 1.1 1.1 0 0 0-1.1-1.1M41.2 44.7a1.1 1.1 0 1 0 1.1 1.1 1 1 0 0 0-1.1-1.1M47.1 56.9a.7.7 0 1 0 0-1.4.7.7 0 1 0 0 1.4M44.2 43a1.1 1.1 0 1 0 1.1 1.1 1.1 1.1 0 0 0-1.1-1.1M44.2 55.6a1.1 1.1 0 1 0-1.2-1.1 1.2 1.2 0 0 0 1.1 1M44.2 46.4a1.1 1.1 0 1 0 1.1 1.1 1.2 1.2 0 0 0-1.1-1.1M44.2 49.9a1.1 1.1 0 1 0 1.1 1.1 1.1 1.1 0 0 0-1.1-1.1M41.2 50.4a1.1 1.1 0 1 0-1.1-1.1 1.1 1.1 0 0 0 1.1 1.1M41.2 31.4a.7.7 0 1 0 .7.7.7.7 0 0 0-.7-.7M38.2 39.6a1.1 1.1 0 1 0 0 2.2 1.1 1.1 0 0 0 1.1-1.1 1 1 0 0 0-1-1.1M38.2 36a1.1 1.1 0 1 0 1.1 1.2 1.1 1.1 0 0 0-1-1.1M41.2 41.3a1.1 1.1 0 1 0 1.1 1.1 1 1 0 0 0-1.1-1.1M41.2 34.4a1.1 1.1 0 1 0 1.1 1.1 1 1 0 0 0-1.1-1.1M41.2 37.8a1.1 1.1 0 1 0 1.1 1.1 1.1 1.1 0 0 0-1.1-1.1M50.1 36a1.1 1.1 0 1 0 1.2 1.2 1.2 1.2 0 0 0-1.2-1.1M50.1 32.7a1.1 1.1 0 1 0 1.2 1.1 1.1 1.1 0 0 0-1.2-1.1M50.1 46.4a1.1 1.1 0 1 0 1.2 1.1 1.2 1.2 0 0 0-1.2-1.1M47.1 34.8a.7.7 0 1 0 0 1.4.7.7 0 0 0 0-1.4M50.1 43a1.1 1.1 0 1 0 1.2 1.1A1.1 1.1 0 0 0 50 43M50.1 39.6a1.1 1.1 0 1 0 0 2.2 1.1 1.1 0 0 0 0-2.2M50.1 26.2a.7.7 0 1 0 0 1.4.7.7 0 1 0 0-1.4M50.1 29.3a1.1 1.1 0 1 0 0 2.3 1.1 1.1 0 0 0 0-2.3M47.1 41.3a1.1 1.1 0 0 0 0 2.2 1.1 1.1 0 1 0 0-2.2M47.1 37.8a1.1 1.1 0 1 0 1.2 1.1 1.1 1.1 0 0 0-1.1-1.1M47.1 44.7a1.1 1.1 0 1 0 1.2 1.1 1.1 1.1 0 0 0-1.1-1.1M72.5 32.7a1.1 1.1 0 1 0 1.2 1.1 1 1 0 0 0-1.2-1.1M47.1 48.1a1.1 1.1 0 1 0 1.2 1.2 1.1 1.1 0 0 0-1.1-1.2M47.1 51.5a1.1 1.1 0 0 0 0 2.3 1.1 1.1 0 1 0 0-2.2"/></svg>