<svg data-name="Layer 1" xmlns="http://www.w3.org/2000/svg" viewBox="0 0 136.3 77.6"><path d="M94.5 43a1.9 1.9 0 1 1-2-1.8 2 2 0 0 1 2 1.9ZM112.8 38.3a8.3 8.3 0 0 1-8.5 6.7c-5.4 0-9-4-9-9.7 0-5.5 3.8-9.6 9.2-9.6 4.4 0 7.4 2.4 8.5 6.3l-4 .8c-.8-2.4-2.4-3.5-4.4-3.5-2.5 0-5 2-5 6s2.5 6 5 6a4.9 4.9 0 0 0 4.6-3.8ZM126.3 42a7.6 7.6 0 0 1-6.3 3.1c-3.3 0-5.7-1.9-5.7-4.9s2-4.7 6.7-5.7l5.3-1.3V33c0-2.4-1.2-3.6-3.6-3.6a4.5 4.5 0 0 0-4.4 3l-3.8-1.1c1.2-3.3 4.4-5.2 8.3-5.2 5.1 0 7.8 2.6 7.8 6.8v9.5a13.5 13.5 0 0 0 .2 2.5h-4.5Zm-5 0a5.3 5.3 0 0 0 4.8-3.3V36l-4.7 1.1c-2 .5-3 1.3-3 2.5s1 2.3 2.8 2.3ZM84 29.3c-2.5 0-5.2 2.7-5.7 3.8s-2.5 8.5-2.5 8.5l1.7.2a7.7 7.7 0 0 0 2 .1c4.2 0 6.7-4.7 6.7-8.2.2-2.4-.1-4.4-2.2-4.4M56.3 53.8c2.9 0 4.1-3.6 5.3-7.1l.1-.8.2-.6a23.6 23.6 0 0 0-4.8 1.6c-5.2 2.5-3.3 7-.8 7Zm10.2 2.4 3.6-12a11.2 11.2 0 0 0-3.5.3c-2.2 9.6-4.7 12.8-11 12.8-2.4 0-5.8-1-5.8-4.8s2.6-7.4 12.9-10.2l.4-1.6.4-1A10.7 10.7 0 0 1 57 42a4.3 4.3 0 0 1-4.3-4.1 3 3 0 0 1 .2-1.1 75.5 75.5 0 0 1 3-10.3c.3-.8 1-.6 1-.6H60s.8 0 .5.6c-1.3 3.3-2.7 6.8-3.2 10.1a2.5 2.5 0 0 0 .5 2c1.2 1.2 4-.4 5.5-2.1a18 18 0 0 0 2.9-6.4 23.4 23.4 0 0 0 .8-3.4c.1-.7 1-.7 1-.7h3.5c.7 0 .5.5.5.5l-4.6 15a25 25 0 0 1 3.4-.3h.2l4.6-14.7a.6.6 0 0 1 .8-.5H80c.3 0 .7.1.5.6a6.4 6.4 0 0 0-.5 1.6 8 8 0 0 1 4.8-1.9c5.4 0 6.6 4.3 6.6 7.4 0 5.1-4.7 11.6-10.6 11.6a22.7 22.7 0 0 1-3.1-.3 13.8 13.8 0 0 0-2.7-.4l-1.3 4.6a2.2 2.2 0 0 1-.3 1l-1.7 6.4a.5.5 0 0 1-.5.4h-4.4a2.6 2.6 0 0 1-.4-.8ZM74.8 54.3h1.8v.2h-.8v2h-.3v-2h-.8v-.2ZM78.6 54.3h.5v2.2h-.3v-2l-.2.4-.6 1.8h-.2l-.6-1.8-.1-.3v2h-.2v-2.1h.5l.4 1.5.2.3.2-.3ZM33.9 57c-8.3 3.8-23-6.8-27-15s1-16.3 9.2-20.3a19.6 19.6 0 0 1 8.4-1.9 13.7 13.7 0 0 1 13 8.1c4 8 4.6 25.1-3.6 29.1Z"/><path d="M15.3 28.3h5.2c1.8 0 4.8.3 6.4 3.5l7.7 16.5a2 2 0 0 1-2.8 0 .6.6 0 0 1-.2-.3L25 38.5a3 3 0 0 0-4.3-.8l-.3.3-1.9 1.7a2 2 0 0 1-2.8 0l-.2-.1 1.7-2.4a5.3 5.3 0 0 0 .2-5.7Zm3 17.3a2.6 2.6 0 0 0-.3 1.6c0 1 1.4 2 1.4 2l5-8.4a1.7 1.7 0 0 0 0-1.2 2.3 2.3 0 0 0-2.6-1.1Z"/><path d="M33.9 57c-8.3 3.8-23-6.8-27-15s1-16.3 9.2-20.3a19.6 19.6 0 0 1 8.4-1.9 13.7 13.7 0 0 1 13 8.1c4 8 4.6 25.1-3.6 29.1Z"/><path d="M15.3 28.3h5.2c1.8 0 4.8.3 6.4 3.5l7.7 16.5a2 2 0 0 1-2.8 0 .6.6 0 0 1-.2-.3L25 38.5a3 3 0 0 0-4.3-.8l-.3.3-1.9 1.7a2 2 0 0 1-2.8 0l-.2-.1 1.7-2.4a5.3 5.3 0 0 0 .2-5.7Zm3 17.3a2.6 2.6 0 0 0-.3 1.6c0 1 1.4 2 1.4 2l5-8.4a1.7 1.7 0 0 0 0-1.2 2.3 2.3 0 0 0-2.6-1.1Z" fill="#fff"/></svg>