<svg data-name="Layer 1" xmlns="http://www.w3.org/2000/svg" viewBox="0 0 136.3 77.6"><path d="M60.9 42.5v3c0 2.6-1 3.7-3.4 3.7h-1.3c-2.5 0-3.4-1.3-3.4-3.7V32c0-2.5.9-3.6 3.4-3.6h1.3c2.5 0 3.4 1.2 3.4 3.6v3H71v7.5ZM23 43l3-16.5h.8l3 16.5ZM9.4 58.8h10.8l1.3-7h10.2l1.2 7h11.2L42.7 52h.6C45 57 49 59.6 55.8 59.6h1.3c8.9 0 13.3-4.6 13.6-12.5h.6v11.7h26v-7.3h.4c2 5.5 6.3 8.1 13.1 8.1h1.5c9.6 0 14.6-4.9 14.6-14.3V18.8h-11.4v27c0 2.3-.9 3.5-3.3 3.5H111c-2.5 0-3.3-1.2-3.3-3.5v-27H96.2V48H82.5V18.8H71.1v11.7h-.7c0-7.7-4-12.6-13-12.6h-1.8c-9.8 0-14.2 5-14.2 14.1v15H41l-5.2-28.2h-18Z" fill="#0b57a6"/></svg>