<svg xmlns="http://www.w3.org/2000/svg" viewBox="0 0 81.1 61.9"><defs><filter id="a" filterUnits="userSpaceOnUse"><feOffset dy="1.2"/><feGaussianBlur result="blur" stdDeviation="2.4"/><feFlood flood-color="#3b2a4b" flood-opacity=".2"/><feComposite in2="blur" operator="in"/><feComposite in="SourceGraphic"/></filter></defs><rect x="7.4" y="6.1" width="66.2" height="47.1" rx="5.7" ry="5.7" style="fill:#306fec;filter:url(#a)"/><path d="M61 37.2c.4.8.3 1.7-.3 2.3-.8.5-1.8.4-2.4-.2l-3.7-4.9-3.7 4.8c-.5.7-1.6.7-2.3.2s-.9-1.5-.4-2.3l4.3-5.6-4.3-5.6c-.5-.7-.3-1.8.4-2.3.7-.6 1.8-.4 2.3.3l3.7 4.8 3.7-4.6c.6-.8 1.5-.9 2.4-.3.7.5.7 1.6.2 2.3l-4.2 5.5 4.2 5.6Zm-19.6-.6c-2.8 0-5-2.2-5-5s2.2-5 5-5 5 2.3 5 5a5 5 0 0 1-5 5Zm-14.9 0c-2.8 0-5-2.2-5-5s2.2-5 5-5 5 2.3 5 5-2.2 5-5 5Zm14.9-13.1c-3.2 0-6 1.7-7.3 4.3a8.4 8.4 0 0 0-7.5-4.3c-1.9 0-3.6.6-5 1.6v-7c0-.8-.8-1.5-1.6-1.5-1 0-1.7.7-1.7 1.6v13.5c0 4.5 3.7 8 8.2 8 3.2 0 6-1.8 7.4-4.3a8.4 8.4 0 0 0 7.3 4.4c4.7 0 8.4-3.7 8.4-8.3.1-4.4-3.6-8-8.2-8Z" style="fill:#fff"/></svg>