<svg xmlns="http://www.w3.org/2000/svg" viewBox="0 0 81.1 61.9"><defs><filter id="a" filterUnits="userSpaceOnUse"><feOffset dy="1.2"/><feGaussianBlur result="blur" stdDeviation="2.4"/><feFlood flood-color="#3b2a4b" flood-opacity=".2"/><feComposite in2="blur" operator="in"/><feComposite in="SourceGraphic"/></filter></defs><rect x="7.4" y="6.1" width="66.2" height="47.1" rx="5.7" ry="5.7" style="fill:#58bfc8;filter:url(#a)"/><path d="M54.3 31.2c.2-.5.3-1 .3-1.6 0-1-.4-1.4-.7-1.4-.4 0-.5.5-.5.9 0 .8.4 1.6.9 2.1Zm9.6 6.7c.2.1.2.3.2.3 0 .2 0 .4-.4.4h-.3c-1.4-.6-2-1.6-2.2-2.5-.5.7-1.3 1.1-2 1.1-1.3 0-2.5-1.1-2.7-2.6 0-.6 0-1.2.2-1.8-.5.3-1.1.5-1.6.5h-.5a12 12 0 0 1-3.5 3.6l-1.1.3c-.3 0-.5 0-.6-.3-.3-.4-.4-1-.5-1.9a6.6 6.6 0 0 1-4 2.2c-1 0-1.6-.6-1.7-1.5v-1c.3-2.2 1-3.4 1-3.8l-.1-.2c-.7 0-2.9 2.3-3.2 3.8l-.3 1.3c-.2.8-1 1.4-1.6 1.4-.3 0-.5-.1-.6-.5v-.4l.2-.6a7.1 7.1 0 0 1-3.1 1.5c-.9 0-1.3-.5-1.5-1.1-.6.7-1.3 1-2 1-1 0-2-.6-2.5-1.5-.6.7-1.4 1.4-2.3 2a8.8 8.8 0 0 1-4.7 1.6 6 6 0 0 1-4-1.7 7 7 0 0 1-1.9-4.1 15 15 0 0 1 6.7-13.5c1-.6 2.1-.9 3.2-.9 2 0 3.7 1.5 3.9 3.3.2 1.6-.5 3-2.3 4-.9.4-1.4.4-1.5.2-.1-.2 0-.4.1-.6 1.7-1.4 1.8-2.6 1.6-4.2-.2-1-.9-1.7-1.6-1.7-3.4 0-8.2 7.5-7.5 12.9.2 2.1 1.5 4.6 4.2 4.6a9.2 9.2 0 0 0 5.8-3c-.2-2.5 2-5.7 5.2-5.7 1.4 0 2.6.6 2.7 1.7.2 1.4-1 1.7-1.5 1.7-.4 0-1-.1-1-.5s.8-.2.7-1c0-.6-.7-.8-1.2-.8-2 0-3.1 2.8-3 4.5.2.8.6 1.6 1.3 1.6.6 0 1.4-.9 1.8-2.1.2-.8 1-1.4 1.5-1.4.3 0 .6.1.6.5v.4l-.4 1.8c0 .2.2.5.5.5s1.5-.6 2.5-1.5l.7-3.9c.1-.6.4-1.3 1.8-1.3.2 0 .4.1.5.5v.4l-.4 1.7c1.2-1.6 3-2.8 4.1-2.8.5 0 .9.3 1 .8l-.3 1.3a34 34 0 0 0-1.1 4c0 .4 0 .8.6.8.4 0 1.8-.5 3-2v-.6c0-1.2 0-2.2.2-2.8.3-.8 1.2-1.5 1.8-1.5.3 0 .5.2.5.5v.4c-.5 1.3-.7 2.4-.7 3.5l.3 2.2c0 .1 0 .3.2.3s1.5-1.3 2.4-2.9c-.8-.5-1.3-1.5-1.3-2.7 0-2 1.2-3 2.4-3 .9 0 1.7.6 1.7 2 0 .8-.3 1.8-.8 2.7h.3a2 2 0 0 0 1.6-.7l.4-.3a5 5 0 0 1 3.9-2c1.4 0 2.5.6 2.7 1.7.1 1.4-1 1.7-1.5 1.7s-1-.1-1-.5c-.1-.3.8-.2.7-1 0-.6-.7-.8-1.2-.8-1.9 0-3.2 2.5-3 4.5.2.8.5 1.6 1.3 1.6.5 0 1.4-.9 1.7-2 .3-.9 1-1.5 1.6-1.5.3 0 .6.2.6.5 0 .2 0 .5-.4 1.8a4 4 0 0 0 0 1.5c0 .8.4 1.3.7 1.6Z" style="fill:#fff"/></svg>