<svg id="Layer_1" data-name="Layer 1" xmlns="http://www.w3.org/2000/svg" viewBox="0 0 136.3 77.6"><defs><style>.cls-1{fill:#003a74;fill-rule:evenodd}</style></defs><path class="cls-1" d="M63.5 42H53s-3.5 0-3.5 3.5v6.2a3.3 3.3 0 0 0 3.5 3.5h10.4v-3.5h-9.3a1 1 0 0 1-1-1.2v-4a1 1 0 0 1 1-1h9.4V42ZM79 42H67.9s-3.6 0-3.6 3.5v6.2a3.3 3.3 0 0 0 3.6 3.6H79v-3.6H69a1 1 0 0 1-1-1.2v-4a1 1 0 0 1 1-1h10V42Z"/><path class="cls-1" d="M70.3 50.1H79v-2.8h-8.7v2.8zM112.9 42h-11.2s-3.5 0-3.5 3.5v6.2a3.3 3.3 0 0 0 3.5 3.6H113v-3.6h-10a1 1 0 0 1-1.1-1.2v-4a1 1 0 0 1 1-1h10V42Z"/><path class="cls-1" d="M104.2 50.1h8.7v-2.8h-8.7v2.8zM93.5 42H80.2v13.2h3.5v-9.7h3.1v9.7h3.6v-9.7h3v9.7H97v-9.8a3.2 3.2 0 0 0-3.5-3.4ZM130.8 42H127v1.9l-4.7 2.6-4.7-2.6V42h-3.8v3.4l5 3.2-5 3.2v3.4h3.8v-1.9l4.7-2.6 4.7 2.6v1.9h3.8v-3.4l-5-3.2 5-3.2V42z"/><path fill="#ec4047" fill-rule="evenodd" d="m17.5 55.2 27.7-32.8h-12L5.6 55.2h11.9z"/><path class="cls-1" d="m35.5 55.2 27.6-32.8h-12L23.5 55.2h12z"/></svg>