<svg xmlns="http://www.w3.org/2000/svg" width="91" height="36" viewBox="0 0 91 36">
    <g fill="#C53699" fill-rule="evenodd">
        <path d="M78 22.887c-.823 0-2.265.017-2.38-1.9-.012-1.207.016-2.415-.023-3.62-.033-.963-.101-1.936-.28-2.882-.324-1.7-1.074-3.2-2.534-4.268-2.158-1.579-5.713-1.627-8.184-.11-.54.331-1.034.736-1.617 1.157V9.357H57v18.265h6v-.432c0-3.273.015-6.545-.014-9.818-.005-.58.18-1.031.531-1.459 1.034-1.26 2.494-1.752 3.96-1.31 1.52.46 1.98 1.646 2.05 3.022.046.904.052 1.77.06 2.65l-.007.194a27.597 27.597 0 0 0 .306 4.023c.212 1.368 1.113 2.573 2.426 3.098 2.466.987 5.69-.104 5.688-.219-.026-1.127 0-4.191 0-4.484M54 22.798c-.815 0-2.269.02-2.269-2.19v-.878h.01V9H46v.423c0 3.436-.003 6.871.002 10.307h.016l-.018.607a29.98 29.98 0 0 0 .29 4.093c.203 1.393 1.059 2.618 2.305 3.153 2.343 1.005 5.406-.106 5.404-.222-.025-1.148 0-4.266 0-4.563M13.998 21.404a4.51 4.51 0 0 1-3.502 1.654c-2.481 0-4.493-1.982-4.493-4.425 0-2.445 2.012-4.426 4.493-4.426a4.51 4.51 0 0 1 3.502 1.654v5.543zm5.999-11.48v-.576h-6.034v1.535C12.168 9.31 10.337 9.002 8.753 9c-2.898-.004-5.257 1.095-6.924 3.467-2.414 3.436-2.43 8.697-.098 12.218 2.302 3.475 7.166 4.633 10.774 2.527.452-.265.861-.6 1.27-.94.063-.035.14-.065.251-.12-.033.731-.04 1.392-.099 2.048-.116 1.261-.762 2.154-1.975 2.59-1.698.612-3.41.4-5.084-.07-1.055-.298-2.057-.775-3.103-1.179.014-.013-.026.007-.034.034a1.707 1.707 0 0 1-.018.07v5.088c2.853 1.175 5.831 1.582 8.921 1.012 4.54-.837 7.198-4.062 7.313-8.468.017-.626.03-2.226.04-3.006a.047.047 0 0 0 .013-.03c-.005-3.783-.003-10.532-.003-14.316zM35.725 21.201a4.432 4.432 0 0 1-3.442 1.627c-2.44 0-4.418-1.95-4.418-4.353 0-2.404 1.978-4.353 4.418-4.353 1.392 0 2.633.635 3.442 1.626v5.453zM44 22.89c-.807 0-2.218.015-2.337-1.888-.005-3.697-.003-7.395-.003-11.093v-.567h-5.931v1.51C33.964 9.305 32.163 9.002 30.604 9c-2.847-.004-5.167 1.077-6.806 3.41-2.373 3.38-2.389 8.555-.096 12.018 2.263 3.418 7.045 4.558 10.593 2.486.683-.4 1.268-.966 1.903-1.46l.081-.052c.39.975 1.141 1.783 2.134 2.188 2.423.987 5.59-.104 5.587-.219-.026-1.126 0-4.19 0-4.481zM53 3.5a3.5 3.5 0 1 1-7 0 3.5 3.5 0 0 1 7 0"/>
    </g>
</svg>
