<svg xmlns="http://www.w3.org/2000/svg" width="40" height="40" viewBox="0 0 40 40">
    <g fill="none" fill-rule="evenodd">
        <path fill="#C53699" d="M39.506 19.753c0 10.909-8.843 19.753-19.753 19.753C8.844 39.506 0 30.662 0 19.753 0 8.843 8.844 0 19.753 0c10.91 0 19.753 8.843 19.753 19.753"/>
        <path fill="#FFF" d="M19.69 13.246v6.032c0 .328.262.593.584.593h5.945c0 3.8-3.15 6.852-6.946 6.613-3.25-.204-5.897-2.89-6.099-6.19-.235-3.85 2.772-7.048 6.516-7.048V7.179c0-.34-.281-.61-.616-.594-7.126.335-12.766 6.446-12.48 13.825.269 6.885 5.798 12.49 12.582 12.752 7.47.288 13.652-5.732 13.652-13.251v-6.073a.588.588 0 0 0-.584-.592H19.69z"/>
    </g>
</svg>
