<svg id="hero_fb" xmlns="http://www.w3.org/2000/svg" viewBox="0 0 422.7 165.1"><defs><filter id="drop-shadow-3" filterUnits="userSpaceOnUse"><feOffset/><feGaussianBlur result="blur" stdDeviation="9.4"/><feFlood flood-color="#3e2a4c" flood-opacity=".3"/><feComposite in2="blur" operator="in"/><feComposite in="SourceGraphic"/></filter><filter id="drop-shadow-4" filterUnits="userSpaceOnUse"><feOffset/><feGaussianBlur result="blur-2" stdDeviation="9.4"/><feFlood flood-color="#3e2a4c" flood-opacity=".3"/><feComposite in2="blur-2" operator="in"/><feComposite in="SourceGraphic"/></filter><style>.cls-1{fill:#fff}</style></defs><path d="M222 80.3c.3 0 .5 0 .7.2s.3.4.3.7v2l-.3.6c-.2.2-.4.3-.7.3h-8.5v8.5c0 .2 0 .5-.3.6s-.4.3-.6.3h-2a1 1 0 0 1-.6-.3 1 1 0 0 1-.3-.6V84h-8.5a1 1 0 0 1-.7-.3 1 1 0 0 1-.2-.7v-1.9c0-.3 0-.5.2-.7l.7-.2h8.5v-8.5c0-.3.1-.5.3-.7.2-.2.4-.3.7-.3h1.9c.2 0 .5.1.6.3s.3.4.3.7v8.5h8.5Z" style="fill:#c7c7c7;stroke:#c7c7c7;stroke-miterlimit:10"/><g style="filter:url(#drop-shadow-3)"><circle cx="100.2" cy="82.6" r="59.8" style="fill:#c53699"/><path class="cls-1" d="M100.2 62.6v19.8H120a20 20 0 0 1-29 18 20 20 0 0 1 9-37.8v-20A40 40 0 0 0 86 119.8a40.1 40.1 0 0 0 54.3-37.3v-20h-40Z"/></g><g style="filter:url(#drop-shadow-4)"><rect x="263.6" y="23.4" width="118.9" height="118.9" rx="10.5" ry="10.5" style="fill:#1375e4"/><path class="cls-1" d="m338.1 86.7 1.8-11.8h-11.2v-7.6c0-3.2 1.6-6.3 6.6-6.3h5.1V51s-4.6-.7-9-.7C322 50.3 316 55.9 316 66v9h-10.3v11.6H316V115a41.2 41.2 0 0 0 12.6 0V86.6h9.5Z"/></g></svg>