<svg xmlns="http://www.w3.org/2000/svg" viewBox="0 0 81.1 61.9"><defs><filter id="a" filterUnits="userSpaceOnUse"><feOffset dy="1.2"/><feGaussianBlur result="blur" stdDeviation="2.4"/><feFlood flood-color="#3b2a4b" flood-opacity=".2"/><feComposite in2="blur" operator="in"/><feComposite in="SourceGraphic"/></filter></defs><rect x="7.4" y="6.1" width="66.2" height="47.1" rx="5.7" ry="5.7" style="fill:#2e61b3;filter:url(#a)"/><path d="M23.3 41.1a6.5 6.5 0 0 1-4-3.4c-.4-1-.4-1-.4-2.7s0-1.8.4-2.5c.7-1.6 2-2.8 3.8-3.3.4 0 .7-.2.8-.3l.1-1.1c.1-3.3 2.1-6.1 5-7 1.4-.5 3.4-.6 5 .1.6.3.5.3 1.6-1.2.7-1 2-1.9 3-2.5 1.2-.6 2.4-.9 3.8-.9 4 0 7.6 2.7 8.9 6.8.4 1.3.4 1.7-.1 1.7l-1.4.3-1 .2-.8-.9A8.4 8.4 0 0 0 38 23a8.5 8.5 0 0 0-3.3 3.1c-.6 1-1.4 2.7-1.4 3.2 0 .3-.2.5-1.3.8a7 7 0 0 0-5 7 9 9 0 0 0 .7 3.4l.2.7h-4.7ZM33.5 43c-2.5-.6-4-2.6-4-5.6 0-1 .1-1.4.4-2 .6-1.5 2.1-2.7 4.1-3 1-.3 1.4-.5 1.4-1A7.4 7.4 0 0 1 39 26c1.3-.7 2-.9 3.7-.9 2.4 0 3.6.6 5.2 2.3l1 1 .7-.3c4-1.4 8 1 8.2 4.8L58 34l.8.3c2.2.8 3.3 2.4 3 4.9 0 1.6-.8 2.9-2 3.5l-.6.3H46.8l-13-.1Z" style="fill:#fff;fill-rule:evenodd"/></svg>