<svg id="Layer_1" data-name="Layer 1" xmlns="http://www.w3.org/2000/svg" viewBox="0 0 136.3 77.6"><defs><style>.cls-1{fill:#582f80}</style></defs><path class="cls-1" d="M39.1 66.7a1.5 1.5 0 0 0-.4-.2 5 5 0 0 1-4-5v-9.7a8.8 8.8 0 0 0 0-1.3 2.5 2.5 0 0 0-1.7-2.3 1 1 0 0 1-.8-1c0-.7.5-.9 1-1l4.7-.8a6.1 6.1 0 0 1 .9 0v13.9a8.6 8.6 0 0 0 .2 2.1 3 3 0 0 0 3 2.3 6.7 6.7 0 0 0 5.1-2.2V50.6a2.4 2.4 0 0 0-1.7-2.4c-.6-.2-.9-.5-.8-1.1s.5-.8 1-.8l5.7-1v16.6c0 1.7.2 2 1.8 2.5.5.1.8.4.8 1s-.5.7-1 .8l-3.2.3a2 2 0 0 1-2.5-1.7L47 64a10.8 10.8 0 0 1-5.4 2.6ZM10.9 59.3c1.4-2.6 3.9-3.6 6.5-4.4l4.1-1a15.5 15.5 0 0 0 1.7-.6 1.6 1.6 0 0 0 1-1.6v-1.2a3.7 3.7 0 0 0-5.7-3 2 2 0 0 0-.9 2.3 1.8 1.8 0 0 1-1 2.3 2.2 2.2 0 0 1-2.7-.7 3.3 3.3 0 0 1-.6-2.3 3.5 3.5 0 0 1 2.7-3.2 15.4 15.4 0 0 1 3.7-.6 14.6 14.6 0 0 1 3.4.2c3.6.6 5.1 2.5 5.2 6.1V62.5c0 1.4.4 1.8 1.7 2.2.5.1 1 .3 1 .8 0 .6-.5.8-1 1l-1 .2h-3c-1.1-.7-1.5-1.9-2-3.2a10 10 0 0 1-5.8 3.2h-2l-1-.3a5.2 5.2 0 0 1-4-3.4l-.3-1.4Zm13.5-4.2-.3-.2-5.6 1.9a6.5 6.5 0 0 0-2 1.4 3.8 3.8 0 0 0-.5 4.4 3.4 3.4 0 0 0 3.8 1.5 5.2 5.2 0 0 0 4.2-4.2 37.2 37.2 0 0 0 .4-4.8ZM114.4 66.7l-.3-.2a8.4 8.4 0 0 1-7-6.5 13 13 0 0 1 .4-8.8 9.6 9.6 0 0 1 9.8-6c5.4.4 8.2 4.7 8 9.8h-14.2a8 8 0 0 0 3.9 8 6.8 6.8 0 0 0 8-2c.3-.2.5-.6.8-1a.9.9 0 0 1 1.2-.1.9.9 0 0 1 .3 1.3 10.2 10.2 0 0 1-6.5 5.2 5.8 5.8 0 0 0-.7.2Zm-3.2-13.8h9.6a6.8 6.8 0 0 0-.8-3.7 4.2 4.2 0 0 0-5.2-2c-2.1.6-3.7 3.1-3.6 5.7ZM83 66.7l-3.7-.9a1.4 1.4 0 0 0-1 0 3.5 3.5 0 0 1-2.2.4v-6A1 1 0 0 1 77 59a1 1 0 0 1 1.2.8 12.6 12.6 0 0 0 1 2.2 5.5 5.5 0 0 0 5.7 2.8 3.4 3.4 0 0 0 3-2.5 2.9 2.9 0 0 0-1.1-3.4 14.2 14.2 0 0 0-2.7-1.3c-1.6-.6-3.3-1.1-4.9-1.9a4.7 4.7 0 0 1-2.9-4 5.7 5.7 0 0 1 4.3-6.2 10.7 10.7 0 0 1 5.7 0c1 .3 2 .6 3 0a1.8 1.8 0 0 1 .7 0V50.8a.9.9 0 0 1-.6 1 1 1 0 0 1-1.2-.6A13.2 13.2 0 0 0 87 49a4.9 4.9 0 0 0-5.3-1.9 2.8 2.8 0 0 0-2.1 2.4 2.4 2.4 0 0 0 1.4 2.7 34.1 34.1 0 0 0 3.3 1.4l3.2 1.1c2.7 1.2 4 3.1 3.7 6a6.3 6.3 0 0 1-5.2 5.7l-1.1.3ZM63.9 66.7l-3.8-1a1.2 1.2 0 0 0-.9.2c-.6.5-1.3.3-2.2.3v-6a1 1 0 0 1 1-1.1 1 1 0 0 1 1.1.7 11.3 11.3 0 0 0 1 2.2 5.5 5.5 0 0 0 5.7 2.8 3.4 3.4 0 0 0 3-4.5 3 3 0 0 0-1.6-1.7c-1-.5-2.2-1-3.3-1.3s-2.2-.8-3.3-1.3c-2.5-1.2-3.5-3-3.3-5.4a5.7 5.7 0 0 1 4.3-5 10.7 10.7 0 0 1 5.5 0c1.1.2 2.2.6 3.3 0h.6v4.6c0 1-.2 1.4-.8 1.5-.8.1-1-.5-1.2-1a9.5 9.5 0 0 0-1-1.8 4.9 4.9 0 0 0-5.3-1.8 2.7 2.7 0 0 0-2 2.2 2.5 2.5 0 0 0 1.1 2.7 12.7 12.7 0 0 0 2.3 1.1l4 1.4c.3 0 .6.3 1 .4a5.4 5.4 0 0 1 3.2 5.1 6 6 0 0 1-3.2 5.6 18.4 18.4 0 0 1-3.1 1Z"/><path d="M20.9 10.9a2.5 2.5 0 0 1 .2.5c.5 3 3.1 4.7 6 4.9a29.6 29.6 0 0 0 8.8-.9c3-.7 6-1.6 9-2.2a18 18 0 0 1 9.4.2 12 12 0 0 1 5.2 3.3 25.7 25.7 0 0 0 2.6 2.4 3.7 3.7 0 0 0 1.6.6A1.2 1.2 0 0 0 65 19a1 1 0 0 0-.4-1.3 2.7 2.7 0 0 1-1.1-2.4 10.7 10.7 0 0 1 .2-1.3 4.6 4.6 0 0 1 .8.6 8.5 8.5 0 0 1 1.1 1.5 14 14 0 0 0 4.7 5c.6.4 1.2.8 1.2 1.6-.3.6-1 .6-1.5.6l-2.2-.3a6.4 6.4 0 0 0-5.2 1.4 10.7 10.7 0 0 1-2.4 1.4 4.3 4.3 0 0 0-2.3 2A4 4 0 0 1 56 30c-.7.3-1 .2-1.5-.6.6-.3 1.5 0 1.7-.8a11.3 11.3 0 0 0 .2-1.6 6.8 6.8 0 0 0-3.6-1.4 2.2 2.2 0 0 0-2.3 1.3A5.8 5.8 0 0 0 50 28a5.5 5.5 0 0 1-2.7 3.6l-1.9 1.2a1.2 1.2 0 0 0 .5 1.6l1.7 1.1a9 9 0 0 1 3.2 3 1.5 1.5 0 0 1-.4 2.2 6.1 6.1 0 0 1-.8-1 11.9 11.9 0 0 0-4-3.8l-2.1-1.4a2 2 0 0 1-.7-2.6l1.1-3.3c1.3-5-1.4-8.8-6.4-9.3-2.4-.3-4.7-.3-7-.5a13.2 13.2 0 0 1-5.7-1.4 8.8 8.8 0 0 1-3.9-3.8 5.8 5.8 0 0 1-.5-1.6 4.5 4.5 0 0 1 .1-1.3Z" fill="#e8168b"/><path class="cls-1" d="M105 64.5V66H94.1v-1.6l1.2-.1a2 2 0 0 0 2-2.2c.1-1 0-2.1 0-3.2v-7.8a2.6 2.6 0 0 0-.5-2.1 5.5 5.5 0 0 0-1.8-1c-.5-.2-1-.4-.9-1s.5-.8 1-.9l6.3-1v15.7a7.4 7.4 0 0 0 0 1.3 2.2 2.2 0 0 0 2.5 2.2ZM99.4 36.2a2.4 2.4 0 0 1 2.5 2.4 2.5 2.5 0 1 1-5 0 2.5 2.5 0 0 1 2.5-2.4Z"/></svg>