<svg data-name="Layer 1" xmlns="http://www.w3.org/2000/svg" viewBox="0 0 136.3 77.6"><path d="M129.8 33.1a.4.4 0 0 1-.2 0h-.2v-.4h.2a.6.6 0 0 1 .2 0 .2.2 0 0 1 0 .2.2.2 0 0 1 0 .2m.3-.2a.3.3 0 0 0-.2-.3.9.9 0 0 0-.3 0h-.4v1.1h.2v-.4h.1a.5.5 0 0 1 .3 0 .3.3 0 0 1 0 .3v.1h.3v-.3a.3.3 0 0 0 0-.1.3.3 0 0 0-.3-.1.5.5 0 0 0 .2-.1.3.3 0 0 0 .1-.2m.2.9a1 1 0 0 1-1.4 0 .9.9 0 0 1 0-1.3 1 1 0 0 1 1.4 0 .9.9 0 0 1 0 1.3m0-1.5a1 1 0 0 0-1.1-.2 1 1 0 0 0-.4 1.8 1.1 1.1 0 0 0 1.6 0 1 1 0 0 0 0-1.5M16.8 43.5H8v-9.3h8.9a.9.9 0 0 1 .6.2.8.8 0 0 1 .2.7v1.7a.9.9 0 0 1-.8 1H9.3v2h7.5a.9.9 0 0 1 .9.8v2a.8.8 0 0 1-.2.6.8.8 0 0 1-.7.3m.8-11.4h-12v13.4h12a2.3 2.3 0 0 0 2.4-2.3v-3.1a1.2 1.2 0 0 0-1.2-1.3 1.2 1.2 0 0 0 1.2-1.1v-3.2a2.3 2.3 0 0 0-2.2-2.3h-.2m106.8 7.7a2.3 2.3 0 0 0 2.3-2.3v-3a2.3 2.3 0 0 0-2.2-2.4h-12v13.3h2.2V34h8.8a.9.9 0 0 1 .7.3.8.8 0 0 1 .2.7v2a.8.8 0 0 1-.2.6.9.9 0 0 1-.7.2h-5.9v1.4l6 6.2h3.2l-5.4-5.5Zm-15.2-2h-10v2h10Zm-13.9-3.4V43a2.3 2.3 0 0 0 2.3 2.4h12v-2H98.5a.9.9 0 0 1-.7-.3.8.8 0 0 1-.2-.6V35a.9.9 0 0 1 .8-.9h11.2v-2H97.7a2.3 2.3 0 0 0-2.4 2.4m-5 7.4L80.6 32h-2.5v13.4h2.3V35.3l10.1 10.2h2.3V32.2h-2.5Zm-17.9 3.6h2.3V32.2h-2.3Zm-12-2.9V32.2h-2.3v11.2a2.1 2.1 0 0 0 2.4 2.1h9.7v-2h-8.9a.9.9 0 0 1-.6-.3.9.9 0 0 1-.3-.6M51.2 40v-2H44a.9.9 0 0 1-.7-.2.9.9 0 0 1-.2-.7v-4.8h-2.3v5.4a2.3 2.3 0 0 0 2.4 2.3Zm1.6 2.7a.8.8 0 0 1-.2.6.9.9 0 0 1-.7.3H41.4v2H52s3 0 3-2.3v-11h-2.2v10.4ZM35 32.2h-9.5a2.3 2.3 0 0 0-2.4 2.3v11h2.3V35a.9.9 0 0 1 .9-.8h8a1 1 0 0 1 .6.2.9.9 0 0 1 .2.7v2.8h-8.4v2h8.4v5.6h2.3v-11a2.3 2.3 0 0 0-2.2-2.4H35" fill="#132d52"/></svg>