<svg id="Layer_1" data-name="Layer 1" xmlns="http://www.w3.org/2000/svg" viewBox="0 0 136.3 77.6"><defs><style>.cls-1{fill:#e98330}</style></defs><g id="g3079"><path class="cls-1" d="M114.4 68H22a10.4 10.4 0 0 1-10.4-10.5V20.1A10.4 10.4 0 0 1 21.9 9.6h92.5A10.4 10.4 0 0 1 124.8 20v37.5A10.4 10.4 0 0 1 114.4 68ZM22 13.1a7 7 0 0 0-6.9 7v37.4a7 7 0 0 0 7 7h92.4a7 7 0 0 0 7-7V20a7 7 0 0 0-7-6.9Z" id="rect3516"/><g id="g3371"><g id="g3377"><path id="path3379" class="cls-1" d="M70.3 28.9a8.2 8.2 0 0 1 8.5-8.2 12.2 12.2 0 0 1 5.2 1.2v3.3a8.8 8.8 0 0 0-4.6-1.3c-3.5 0-5.5 2.3-5.5 5a4.9 4.9 0 0 0 5.3 5 7 7 0 0 0 4-1.3l1.7 2.6a9 9 0 0 1-6.2 1.8 8.2 8.2 0 0 1-8.4-8.2M53.6 48.7a8.2 8.2 0 0 1 8.5-8.2 12.1 12.1 0 0 1 5.2 1.2V45a8.7 8.7 0 0 0-4.6-1.3c-3.5 0-5.5 2.3-5.5 5a4.9 4.9 0 0 0 5.3 5 7 7 0 0 0 4-1.3L68 55a9.1 9.1 0 0 1-6.1 1.9 8.2 8.2 0 0 1-8.4-8.2m57.6-2.7c0-1.4-1-2.1-2.8-2.1h-2.8V48h3c1.6 0 2.6-.8 2.6-2.1m3.6-.2a4.9 4.9 0 0 1-4 5.2l4.6 5.6H111l-4.2-5.4h-1.2v5.4h-3.5V40.8h6.7c3.8 0 6 2.1 6 5m-74.8-5h11.3v3h-7.9V47h7v3h-7v3.5h8v3H40Zm47.3 0h11.3v3h-8V47h7v3h-7v3.5h8v3H87.3Zm-53.7 7.9a4.5 4.5 0 0 0-4.8-4.8h-2.5v9.6h2.5a4.5 4.5 0 0 0 4.8-4.8m3.6 0c0 4.4-3.4 7.9-8.4 7.9h-6V40.8h6c5 0 8.4 3.4 8.4 7.9m69-18.3h-4v-3h4v-4.2h3.2v4.1h4v3.1h-4v4h-3.2ZM70.5 40.8H74v6.9l6-7h4.6l-7 7.8 7.4 8h-4.7l-6.3-7v7h-3.5V40.9ZM87.2 21h3.5v7l6-7h4.7l-7 7.7 7.3 8.1H97l-6.3-7.2v7.2h-3.5V21Zm-24 9.4L60.8 25l-2.2 5.4Zm-3.9-9.5h3.5l6.7 15.9h-3.8l-1.4-3.6h-6.7L56 36.8h-3.6ZM40 21h3.5v12.6h7.8v3.2H40V21Zm-7.1 11c0-1-.8-1.7-2.6-1.7h-4v3.4h4c1.6 0 2.5-.5 2.5-1.7m2.6-7a3.7 3.7 0 0 1-2 3.5 3.9 3.9 0 0 1 3 4c0 2.8-2.4 4.3-6 4.3H23V21h7.3c3.5 0 5.2 2 5.2 4.1m-3.4.6c0-1-.9-1.7-2.3-1.7h-3.4v3.3h3.3c1.6 0 2.4-.6 2.4-1.6"/></g></g></g></svg>