<svg data-name="Layer 1" xmlns="http://www.w3.org/2000/svg" viewBox="0 0 136.3 77.6"><path d="M7.1 52.5a21.5 21.5 0 0 1 1.3-3l4.9-.1h78.9a34.6 34.6 0 0 0 10.4-1.6 36.5 36.5 0 0 0 13-7.2 55 55 0 0 0 3.2-3.1 47.7 47.7 0 0 0 6.8-9.7l.3-.6h3.4a28.8 28.8 0 0 1-2.5 4.8 44 44 0 0 1-14.7 15.1A36.8 36.8 0 0 1 94 52.4H7.8a3.3 3.3 0 0 1-.6 0Zm5-6.8 1.6-6 1.7-6.1 1-.1h3.3l-1 3-1 3h.1l2.2-3 2.2-3H26l-.8 2.9-.8 3 2.1-2.9 2.2-3a7 7 0 0 1 1.6 0H33.3l-4.7 6.1-4.7 6.1h-4.5a23.1 23.1 0 0 1 .8-3l.9-3-2.3 3-2.3 3h-3.8a3.6 3.6 0 0 1-.6 0Zm15.5 0 3.3-6.1 3.3-6.1H38.5l-1 2-1 2a11.8 11.8 0 0 0 2.3 0l1-1.8 1-2 .2-.2h4.5l-6.7 12.2c0 .2-.3 0-1.4 0h-3.2l1.3-2.1c.7-1.1 1.2-2.1 1.1-2.2a11.7 11.7 0 0 0-2 0s-.7 1-1.3 2.2-1.2 2-1.3 2h-4.5Zm12.2 0 10.4-12 .1-.2h4.9l-2.7 12.2h-4.3a2.8 2.8 0 0 1 .2-.8 3.8 3.8 0 0 0 .2-.8 13.1 13.1 0 0 0-2.9 0 10 10 0 0 0-.6.8l-.6.7h-4.8Zm9.7-4.7 1-3.2-2.4 3.2a7.2 7.2 0 0 0 1.4 0Zm3.5 4.8 6.5-12.3a41.2 41.2 0 0 1 4.7 0s-1 1.9-2.3 4.1l-2.3 4.2h3.6l-1 2-1 2H54a7 7 0 0 1-1.1 0Zm9.2 0 6.6-12.3h3.4c5.2 0 4.8 0 4.8.1l-.8 1.6-.8 1.6h-4a5 5 0 0 0-.5 1s.8 0 1.7 0h1.8L72.8 41H69l-.3.5a2 2 0 0 0-.3.6s1 0 2.1 0h2.2a16.3 16.3 0 0 1-.8 1.9 8.2 8.2 0 0 1-1 1.7h-8.7Zm10.4 0 6.6-12.3H86a2.8 2.8 0 0 1 2.2 2.2c.2 1.4-1.3 3.7-3.1 4.8a4.2 4.2 0 0 1-1.2.4s-.2 1.2-.2 2.5v2.4h-4.5v-2a20 20 0 0 0 0-2.1s-.5.8-1 2l-1.1 2-3 .1h-1.5Zm9.7-7a2.6 2.6 0 0 0 .8-.7 2.3 2.3 0 0 0 .3-.8.7.7 0 0 0-.3-.5 2.4 2.4 0 0 0-.6-.2c-.5 0-.6 0-.8.5a13.7 13.7 0 0 0-1 1.9s.2 0 .7 0a1.9 1.9 0 0 0 .9-.2Zm-66.4-8 1-5a17 17 0 0 1 2.6 0 1 1 0 0 1 .9 1.2 1.2 1.2 0 0 1-.5 1 1 1 0 0 0-.2.2.5.5 0 0 0 .2.1 1.2 1.2 0 0 1 .2.4.9.9 0 0 1 .2.6 1.2 1.2 0 0 1-.2.6 1.4 1.4 0 0 1-.8.8l-1.4.1a9.2 9.2 0 0 1-2 0Zm2.7-1.1a.6.6 0 0 0 .3-.3.4.4 0 0 0 0-.4.4.4 0 0 0-.2-.2 2.8 2.8 0 0 0-1 0 4.5 4.5 0 0 0-.3.8l.5.1a1.4 1.4 0 0 0 .7 0Zm0-2c.3 0 .5-.2.5-.5s-.1-.3-.6-.3H18a2.3 2.3 0 0 0-.1.8h.6Zm3.8 3.2a1.8 1.8 0 0 1-1.2-1 3.5 3.5 0 0 1-.1-2.1 3.3 3.3 0 0 1 .8-1.4 2 2 0 0 1 1.4-.6 1.8 1.8 0 0 1 2.2 1.4 3.9 3.9 0 0 1-.1 1.7 2.7 2.7 0 0 1-2 2 2.5 2.5 0 0 1-1 0Zm1-1.2a2.3 2.3 0 0 0 .7-2.4.8.8 0 0 0-1.2-.2 2.3 2.3 0 0 0-.5 1.1 1.4 1.4 0 0 0 .1 1.3.7.7 0 0 0 1 .2Zm4 1.2a1.5 1.5 0 0 1-1.4-1v-.7a6.5 6.5 0 0 1 1-.1s.2 0 .2.2a.9.9 0 0 0 .2.4c.4.5 1.3 0 1-.5 0-.1-.1-.2-.7-.5s-1-.5-1.2-.9a1 1 0 0 1-.1-.6 1.5 1.5 0 0 1 1.5-1.4 2.1 2.1 0 0 1 1.8.5c.2.2.4.8.3.9a5.7 5.7 0 0 1-.6 0h-.6v-.1a.6.6 0 0 0-.2-.4.6.6 0 0 0-.9.1v.3l.9.5a2 2 0 0 1 1 .9 1.1 1.1 0 0 1 .2.7 1.2 1.2 0 0 1-.2.7 2 2 0 0 1-2.3.9Zm3.9-.2.3-1.8a12.1 12.1 0 0 0 .3-1.8 2.1 2.1 0 0 0-.6 0h-.7V27a6.7 6.7 0 0 1 .3-1.1h4a4 4 0 0 1-.1 1c0 .1 0 .2-.7.2a5 5 0 0 0-.8 0s-.1.8-.3 1.8l-.4 1.8a3.6 3.6 0 0 1-1.3 0Zm5 .1a1.7 1.7 0 0 1-1.5-1.5 4.6 4.6 0 0 1 .2-1.6 2.5 2.5 0 0 1 2-2 2 2 0 0 1 1.8.6 2.2 2.2 0 0 1 .5 1.6 3.2 3.2 0 0 1-1 2.3 2.3 2.3 0 0 1-2.1.6Zm.7-1a1 1 0 0 0 .7-.7 2.4 2.4 0 0 0 .2-1.8.7.7 0 0 0-1.1-.3 2.6 2.6 0 0 0-.7 1.8 1 1 0 0 0 .5.9.4.4 0 0 0 .4 0Zm2.6 1 1-5a2.9 2.9 0 0 1 .6 0h.6v.2l.6 1.4a11.4 11.4 0 0 0 .5 1.2l.3-1.4a8.2 8.2 0 0 1 .3-1.4 4.6 4.6 0 0 1 1.2 0s-.8 4.6-1 4.9h-1.2l-.5-1.3a12.2 12.2 0 0 0-.6-1.3 13.3 13.3 0 0 0-.3 1.3l-.3 1.4a6 6 0 0 1-1.2 0Zm6-1.3a13.2 13.2 0 0 1 0-1.9s5.8 0 22.6 0h23.4v.4h20.9v-.3a2.7 2.7 0 0 1-.5-1.8l.1-.8c.1-.1.3.1.5.6a3.8 3.8 0 0 0 .3.6 4.7 4.7 0 0 0 1.5 1.2 2.4 2.4 0 0 0 1 .4s0-.1-.2-.2a1.9 1.9 0 0 1-.4-1.5c0-.4.1-.6.3-.7s.2.1.3.3a10.2 10.2 0 0 0 3.5 2.9l.7.4a.1.1 0 0 1 0 .1H102l-10.5.1a.9.9 0 0 0 0 .1l-22 .1h-23a7.7 7.7 0 0 1-1 0Z" fill="#090909"/></svg>