<svg id="Layer_1" data-name="Layer 1" xmlns="http://www.w3.org/2000/svg" viewBox="0 0 136.3 77.6"><defs><style>.cls-1{fill:#28326e}.cls-4{fill:#e1edf8}</style></defs><path class="cls-1" d="M125.2 32.4a2.2 2.2 0 1 1-2.3 2.2 2.2 2.2 0 0 1 2.3-2.2m0 4a1.8 1.8 0 0 0 0-3.5 1.8 1.8 0 0 0 0 3.5m-1-3h1c.6 0 1 .2 1 .7a.6.6 0 0 1-.6.7l.6 1h-.5l-.6-1h-.3v1h-.5Zm.6 1h.4c.3 0 .5 0 .5-.4s-.3-.3-.5-.3h-.4Z"/><path class="cls-1" d="M124.4 38.9a4 4 0 0 0-2.3-2 2.8 2.8 0 0 0-1.2-.1 32.7 32.7 0 0 1 1.9-8.2c1-2.9 1.2-5.2.7-6.7a5.4 5.4 0 0 0-2.7-2.8 4 4 0 0 0-1.8-.5 6.7 6.7 0 0 0-4.3 2 3.5 3.5 0 0 0-3-1.4 5 5 0 0 0-2.2.4 6.1 6.1 0 0 0 .5-3.8 7.4 7.4 0 0 0-3-4.1 6 6 0 0 0-3-.9 6.3 6.3 0 0 0-5.1 3 3.6 3.6 0 0 0-.8 2.4 3.3 3.3 0 0 0 1.9 2.2 4.4 4.4 0 0 0 .6 1.4 3.5 3.5 0 0 0 .7.8 3.8 3.8 0 0 0-1.5 2 5.2 5.2 0 0 0-2-1.6 4.5 4.5 0 0 0-1.6-.3 6.8 6.8 0 0 0-4.7 2.4 4.4 4.4 0 0 0-2.2-1 4.9 4.9 0 0 0-.5 0 6.3 6.3 0 0 0-4.3 2.1 6.7 6.7 0 0 0-3.7-1.6h-.5a3 3 0 0 0-2.2.9 2.2 2.2 0 0 0-.4.5 3.5 3.5 0 0 0-1.2-.8 4.2 4.2 0 0 0-1.5-.3c-2 0-3.7 1.5-4.8 3a6.1 6.1 0 0 0-1.9-.9h-.1a6 6 0 0 0-1.2-.2 2.9 2.9 0 0 0-2.5 1 2.8 2.8 0 0 0-.4 2.5 6.5 6.5 0 0 1-.2 2.1l-.2.5a3.4 3.4 0 0 0-.2-.3 3.2 3.2 0 0 0-1-1v-.1a4.3 4.3 0 0 0-3.8-1.7h-.1c-.6 0-5.1.2-9 5.6a8.4 8.4 0 0 0-1.8-2.1 3.9 3.9 0 0 0-2.1-.7 5.1 5.1 0 0 0-1.8.4 19.5 19.5 0 0 0 .2-3.7 5.5 5.5 0 0 0-2-4.1 4.8 4.8 0 0 0-4-2.1 6.2 6.2 0 0 0-1.7.2c-1.7.5-2.7 1.3-3 2.4a1 1 0 0 0 0 .2 5.5 5.5 0 0 0-1.8-.7A6.2 6.2 0 0 0 30 23c-2.3 0-7 1-12.3 7.7-.5.6-8.6 10.4-8.8 22.7a19 19 0 0 0 .8 5.6c.8 2.2 3.4 7.2 8.5 7.7a5.3 5.3 0 0 0 1 0c2 0 7-.6 11-7.1l1-1.6a4.6 4.6 0 0 0 2.7 1.8 4.3 4.3 0 0 0 1 0 3.2 3.2 0 0 0 2.7-1.5s.1.4.3.8c.8 1.4 2.6 3.6 7 3.7a9.4 9.4 0 0 0 3.8-.9c.6-.3 4-2 4.7-5.4a3.5 3.5 0 0 0-.1-2 6.7 6.7 0 0 0 3.8-2.6 4.5 4.5 0 0 0 2.3.6 6.3 6.3 0 0 0 4-1.8 12.2 12.2 0 0 0 1.7-1.9 5.3 5.3 0 0 0 2.7.7 7 7 0 0 0 1.3 0 4 4 0 0 0 3-2 2.8 2.8 0 0 0 0-2c0-.1-.4-1 .2-1.2.4-.2.6.3.7.6.5.8 1.7 2.7 6.1 2.8 2.8 0 3.3-1.8 3.4-2.4V45a4 4 0 0 0 3 1.4 4.5 4.5 0 0 0 .5 0 3.3 3.3 0 0 0 3.6-2.8 2.9 2.9 0 0 0 0-.3 5.1 5.1 0 0 0 4.2 2.3 5.5 5.5 0 0 0 .7 0 8 8 0 0 0 4.9-2.8A5.5 5.5 0 0 0 103 44a5.9 5.9 0 0 0 4-1.5 4 4 0 0 0 1.4.6 4 4 0 0 0 1 0 3.2 3.2 0 0 0 2.4-1 6.8 6.8 0 0 0 6.8 5.1 6.3 6.3 0 0 0 6.1-5.6 6 6 0 0 0-.3-2.7M25.5 51.8c-.8 1.2-2.4 2.9-3.5 2.9-.4-1.1-.5-3.3.5-7.6 0 0 1.7-7.1 4.7-11.2a2.9 2.9 0 0 0 1.2 3.2 2.9 2.9 0 0 0 1.1 1.2 3 3 0 0 0 1.5.4 3.2 3.2 0 0 0 .8-.1 63 63 0 0 1-6.3 11.2"/><path d="M121.7 38a1.3 1.3 0 0 0-.4 0 2.1 2.1 0 0 0-1.4.7 1.3 1.3 0 0 1-.7.3c-.5 0-.6-1-.7-1.5 0 0-.4-4.2 2-10.5 1-2.5 1.3-4.4.8-5.7a2 2 0 0 0-1-1.1 3 3 0 0 0-1.3-.3c-1.9 0-3.7 1.7-4.7 2.8a2.5 2.5 0 0 0-.6-1.4 2.6 2.6 0 0 0-2-.9h-.1c-1.3 0-2.8.4-2.9 2.3a19.5 19.5 0 0 1-.5 2.6c-1 3-1.8 6.4-2.3 8.3-1.5 2.8-2.2 3-2.3 3l-.1-.8c.3-2.4 2.8-10.6 3.1-11.6a2.4 2.4 0 0 0-.2-2.2 2.9 2.9 0 0 0-2.2-1c-2.7 0-3.2 1.6-3.3 2-.1.4-2.1 6.8-2.8 11-.3.2-.5.6-.7 1a12 12 0 0 1-2 2.6 1 1 0 0 1-.3.2 1 1 0 0 1 0-.5s0-1.3 1.3-5l1.6-4c.9-2.1 1-3.8.5-5a2.2 2.2 0 0 0-1.2-1.1 3 3 0 0 0-1.1-.2c-2 0-3.9 2-4.8 3.2a2.8 2.8 0 0 0-2.3-1.7h-.3c-1.9 0-3.6 1.7-4.5 2.9a2.5 2.5 0 0 0-.4-1 5 5 0 0 0-3.2-1.5h-.4a1.6 1.6 0 0 0-1.3.5 1.6 1.6 0 0 0-.4 1.1c0 .3 0 3.8-3.8 14.1 0 .3-.9 2.7 0 4.3a2.9 2.9 0 0 0 2.3 1.4 6.1 6.1 0 0 0 1 0c1.7 0 2-.8 2.1-1.3 0 0 1.3-7.5 3.4-11.6a3.8 3.8 0 0 1 1-1.2l-.1.3a76.7 76.7 0 0 0-2.5 8.6 3.7 3.7 0 0 0 .5 2.8 2.7 2.7 0 0 0 2 1 2.5 2.5 0 0 0 2.8-1.7c0-.3 1-6.5 3.4-11a5.4 5.4 0 0 1 1-1.2l-.2.4c0 .2-2.2 5.8-2 9.3a3.3 3.3 0 0 0 3.3 3.4 5.6 5.6 0 0 0 .6 0c.3 0 2.8-.4 5-3.6a4 4 0 0 0 .4.7 4 4 0 0 0 3.2 1.4h.1a5.4 5.4 0 0 0 3.8-2 2.7 2.7 0 0 0 1.7 1.1 2.5 2.5 0 0 0 .6.1 2.2 2.2 0 0 0 2.3-2.1 33.6 33.6 0 0 1 3-9.2 9.2 9.2 0 0 1 1.3-1.8c-.6 1.6-2.5 7.3-2.1 12.5 0 .2.3 4.7 4.8 4.7h.1c.2 0 4 0 4.8-4.6.3-1 0-2-.8-2.2M99.8 16.4a1 1 0 0 0 .5.2 1.1 1.1 0 0 0 .8-.5h.1a2.8 2.8 0 0 1 1.6-1.2 3.5 3.5 0 0 0-.7.5 3 3 0 0 0-.5 3.7 2.4 2.4 0 0 0 1.4 1 3.2 3.2 0 0 0 1 .2 3.8 3.8 0 0 0 3-1.8 4.7 4.7 0 0 0 .7-3.5 3.5 3.5 0 0 0-1.5-2.3 4.2 4.2 0 0 0-2.2-.6 5.1 5.1 0 0 0-4.1 2.3 2 2 0 0 0-.5 1.5.8.8 0 0 0 .3.6M74.5 35.2a2.5 2.5 0 0 0 1-.9 10 10 0 0 0 1.6-3.3c.7-2.4.8-4.2.1-5.4a2.4 2.4 0 0 0-1.2-1.3 3.3 3.3 0 0 0-1-.1c-2.2 0-3.8 2.3-4.6 3.6a4.3 4.3 0 0 0-2.4-1.6 4.9 4.9 0 0 0-1-.1 1.7 1.7 0 0 0-1.4.6 1.5 1.5 0 0 0-.3 1.3 7 7 0 0 1-.2 2.8 82 82 0 0 0-2.1 8.5l-.2 1.5c-.8 2.6-1.5 3.1-1.6 3.2a2 2 0 0 1-.2-1.1c0-2.5 1.8-7.5 2-7.7a2.8 2.8 0 0 0 0-2.6 2 2 0 0 0-1.2-.7 2.3 2.3 0 0 0-.3-1.6 3.2 3.2 0 0 0-2.8-1.1c-.8 0-7 .2-10.7 10.2 0 .1-2.6 6.7-.9 10.4a4.1 4.1 0 0 0 2.5 2.2 4.2 4.2 0 0 0 1.3.2c1.4 0 3.4-.6 5-3.3a3.5 3.5 0 0 0 2.5 1.2 5 5 0 0 0 3.3-1.5 11.5 11.5 0 0 0 2.2-2.8 3.8 3.8 0 0 0 3 1.3 5.4 5.4 0 0 0 1 0s1.6-.4 2-1.4a1.5 1.5 0 0 0-.2-1.5s-1.4-1.7-.3-6a35 35 0 0 1 2-6 2.4 2.4 0 0 1 .6-.8 5.5 5.5 0 0 0 0 2.4 1.8 1.8 0 0 0 2.5 1.4m-18.7 4.6c-1.4 5-2.3 5.5-2.5 5.6s0 0-.1-.2c-.5-1 .6-4.5 1.3-6.5 1.3-2.6 2-3.4 2.4-3.7a25.3 25.3 0 0 1-1 4.8m16.7-4.4ZM50.1 53.2a2 2 0 0 0-.6.1 5.1 5.1 0 0 1-1.4.2 3.2 3.2 0 0 1-3.1-2.3c-1.4-4.5 1.9-12.3 2-12.7 2-4.6.3-6 0-6.1a2.4 2.4 0 0 0-1.3-.4 5.2 5.2 0 0 0-2.8 1 25.1 25.1 0 0 0-2.3 1.9 26.4 26.4 0 0 0 1.2-8.5c-.3-3.5-2.5-4-3.7-4a4.5 4.5 0 0 0-1.3.2c-1.3.3-2 .8-2.2 1.5a1.5 1.5 0 0 0 .3 1.3 5.8 5.8 0 0 1 .7 3.4A49 49 0 0 1 33.4 40a62.5 62.5 0 0 1-6.9 12.4S24.2 56 22 56a2.5 2.5 0 0 1-.9-.2s-3-1-.8-10c0-.1 2.1-8.8 5.8-12.8.7-.8 2-2 3-2a.8.8 0 0 1 .3 0s.7.4.2 2.3l-.6 1.4-.3.7c-.6 1.7 0 2.4.5 2.7a1.8 1.8 0 0 0 1 .2c1 0 2.6-.9 4-5.1.8-3 .8-5.3-.2-7a4.2 4.2 0 0 0-2.6-1.8 4.7 4.7 0 0 0-1.2-.1c-2.1 0-6.4 1-11.4 7.3-.1 0-8.3 9.8-8.5 21.8 0 .1-.4 10 7.1 11a5.5 5.5 0 0 0 .9 0c1.7 0 6.3-.7 10-6.6 0 0 1-1.6 2.2-4a4.7 4.7 0 0 0 .6 2.1 3.3 3.3 0 0 0 2.1 1.5 4.3 4.3 0 0 0 .8.1 2 2 0 0 0 2.2-2s.7-8.4 4-14.3a6.7 6.7 0 0 1 .9-1 5.4 5.4 0 0 1-.3 1c0 .1-3.4 9.2-2 14.9 0 .2 1 4.3 5.1 4.3a8.9 8.9 0 0 0 3.3-.7c.4-.2 3.5-1.6 4-4.5a1.9 1.9 0 0 0-.1-1.6 1 1 0 0 0-.8-.4" fill="#35ace0"/><path d="M100 16a.5.5 0 0 0 .3 0 .6.6 0 0 0 .4-.2v-.1a3.4 3.4 0 0 1 2-1.4 2.5 2.5 0 0 1 2 .3v.2h-.1a3.1 3.1 0 0 0-2 1 2.4 2.4 0 0 0-.5 3 1.7 1.7 0 0 0 1.1.8 2.4 2.4 0 0 0 .8.1 3.2 3.2 0 0 0 2.6-1.5 4.1 4.1 0 0 0 .6-3 3 3 0 0 0-1.2-2 3.5 3.5 0 0 0-2-.5 4.5 4.5 0 0 0-3.6 2c-.4.7-.4 1-.4 1.2a.2.2 0 0 0 .1.1m-50 37.8a1.1 1.1 0 0 0-.4 0 6 6 0 0 1-1.6.3 3.8 3.8 0 0 1-3.7-2.8c-1.5-4.6 2-12.7 2-13 2-4.4.3-5.4.3-5.4a1.8 1.8 0 0 0-1-.4 4.8 4.8 0 0 0-2.5 1 20.6 20.6 0 0 0-3.5 3 .1.1 0 0 1 0 .1h-.1a.1.1 0 0 1 0-.1 27 27 0 0 0 1.6-10c-.2-3-1.8-3.5-3.2-3.5a4.4 4.4 0 0 0-1.1.2c-1 .2-1.6.6-1.8 1a1 1 0 0 0 .3 1 6.3 6.3 0 0 1 .8 3.7A49.2 49.2 0 0 1 34 40.3 63.7 63.7 0 0 1 27 52.8c-.1.2-2.5 3.8-5 3.8a2.5 2.5 0 0 1-1.2-.3c-.1 0-3.5-1-1.1-10.7 0 0 2-8.9 5.8-13 .1 0 2-2.3 3.4-2.3a1.3 1.3 0 0 1 .6.2s1.1.5.5 2.9a19.7 19.7 0 0 1-.9 2.2c-.3.7-.4 1.6.3 2a1.2 1.2 0 0 0 .6.1c.7 0 2.2-.6 3.4-4.7.9-2.8.9-5 0-6.4A3.5 3.5 0 0 0 31 25a3.9 3.9 0 0 0-1-.1c-2 0-6 .9-11 7-.1.1-8.1 9.8-8.4 21.6 0 0-.3 9.4 6.7 10.3a4.4 4.4 0 0 0 .7 0c1.7 0 6-.6 9.6-6.4a61 61 0 0 0 3.3-6 .1.1 0 0 1 .1-.2.1.1 0 0 1 .1.2s-.7 2.6.3 4.2a2.7 2.7 0 0 0 1.7 1.3 3.1 3.1 0 0 0 .6 0 1.5 1.5 0 0 0 1.7-1.4s.7-8.5 4.2-14.6c.1-.2 1-1.5 1.5-1.5a.4.4 0 0 1 .2 0 .5.5 0 0 1 .1.1c.2.3 0 1-.3 2 0 0-3.4 9-2 14.5 0 .1.9 3.8 4.6 3.8a8.2 8.2 0 0 0 3-.7s3.2-1.4 3.7-4a1.4 1.4 0 0 0 0-1.1.5.5 0 0 0-.4-.2m25-19.8a9.4 9.4 0 0 0 1.5-3.2c1.6-5-.7-5.9-.8-5.9a2.4 2.4 0 0 0-.8-.1c-2.6 0-4.5 4.2-4.6 4.2a.2.2 0 0 1-.2 0c-.3-1.7-2.4-2.2-2.4-2.2a4.7 4.7 0 0 0-.8-.1 1.2 1.2 0 0 0-1 .3 1 1 0 0 0-.1.8 7.7 7.7 0 0 1-.3 3.2 85 85 0 0 0-2 8.4l-.2 1.5c-1.1 3.5-2 3.7-2 3.7h-.2a.6.6 0 0 1-.5-.2 2.5 2.5 0 0 1-.3-1.6c.1-2.6 1.9-7.6 2-7.8a2.3 2.3 0 0 0 0-2 1.6 1.6 0 0 0-1.1-.6.1.1 0 0 1-.1 0 .1.1 0 0 1 0-.2 1.9 1.9 0 0 0-.2-1.6 2.7 2.7 0 0 0-2.3-.9c-.7 0-6.5.3-10 10 0 0-2.6 6.4-1 9.9a3.6 3.6 0 0 0 2.1 2 3.9 3.9 0 0 0 1.1.1c1.4 0 3.3-.6 4.8-3.6a.1.1 0 0 1 .1 0 .2.2 0 0 1 .2 0 3 3 0 0 0 2.4 1.5 4.5 4.5 0 0 0 2.9-1.4 12 12 0 0 0 2.5-3.4l.2.3a3.1 3.1 0 0 0 3 1.6 6.2 6.2 0 0 0 .8-.1s1.4-.3 1.7-1a1 1 0 0 0-.2-1s-1.5-1.9-.4-6.6a34.8 34.8 0 0 1 2-6.2c.1-.2 1-1.2 1.5-1.2a.3.3 0 0 1 .2 0s.2 0 .1.2c-.1 1-.6 3.6 1 4a1.7 1.7 0 0 0 1.5-.8Zm-18.8 6c-1.4 5-2.4 6-3 6a.5.5 0 0 1-.2 0 .9.9 0 0 1-.5-.5C52 44 54 38.8 54 38.6c1.7-3.6 2.7-4.2 3.2-4.2a.4.4 0 0 1 .1 0 .2.2 0 0 1 .1.1c.3.4-.1 2.4-1 5.6m65.1-1.4a.5.5 0 0 0-.2 0 1.6 1.6 0 0 0-1 .5 1.9 1.9 0 0 1-1 .5c-.5 0-1.1-.4-1.3-2 0 0-.5-4.3 2.1-10.8 1.2-3 1-4.5.7-5.3a1.4 1.4 0 0 0-.7-.8 2.3 2.3 0 0 0-1-.3c-2.5 0-5 3.6-5 3.7a.1.1 0 0 1-.2 0 .1.1 0 0 1 0-.1 2.8 2.8 0 0 0-.5-2.4 2 2 0 0 0-1.5-.6h-.1c-2.3 0-2.3 1.2-2.3 1.7a.9.9 0 0 0 0 .1 22 22 0 0 1-.6 2.6 311 311 0 0 0-2.3 8.3v.1c-1.4 2.9-2.3 3.4-2.8 3.4a.3.3 0 0 1-.1 0c-.8-.2-.6-1.4-.6-1.4.3-2.6 3-11.4 3.2-11.7a1.9 1.9 0 0 0-.1-1.7 2.3 2.3 0 0 0-1.7-.8c-2.5 0-2.8 1.5-2.8 1.6s-2.1 6.9-2.9 11c-.7 1-1.6 3-2.7 3.9a1.4 1.4 0 0 1-.8.3.5.5 0 0 1-.3-.2 1.2 1.2 0 0 1-.3-.9s0-1.3 1.4-5.3l1.5-4c1-2.4.9-3.7.6-4.4a1.6 1.6 0 0 0-.9-1 2.7 2.7 0 0 0-1-.1c-2.5 0-4.7 3.7-4.8 3.7a.1.1 0 0 1 0 .1.1.1 0 0 1-.2-.1 2.3 2.3 0 0 0-2-2.2H89c-2.7-.1-5 3.6-5 3.6a.1.1 0 0 1-.1.1.1.1 0 0 1-.1-.2 2.2 2.2 0 0 0-.4-1.8 4.5 4.5 0 0 0-2.7-1.4h-.4a1 1 0 0 0-.8.3 1.1 1.1 0 0 0-.2.8c0 .1 0 3.7-3.9 14.3 0 0-.8 2.4 0 3.8a2.4 2.4 0 0 0 1.8 1 5 5 0 0 0 1 .2c.6 0 1.5-.2 1.6-.9 0 0 1.2-7.5 3.4-11.8 0-.1.9-1.5 1.6-1.5a.4.4 0 0 1 .2 0 .3.3 0 0 1 .2 0l-.1 1a77 77 0 0 0-2.5 8.6 3.3 3.3 0 0 0 .4 2.3 2.2 2.2 0 0 0 1.7.9 2 2 0 0 0 .4 0 1.6 1.6 0 0 0 1.7-1.3s1-6.5 3.5-11.1c0-.2 1-1.8 1.8-1.8a.3.3 0 0 1 .2.2 1.8 1.8 0 0 1-.2 1.2s-2.2 5.7-2 9a2.8 2.8 0 0 0 2.8 3h.5s3-.3 5.2-4.4a4 4 0 0 0 .7 1.6 3.5 3.5 0 0 0 2.8 1.3c.6 0 2.2-.2 4-2.5a2.4 2.4 0 0 0 .3.6 2 2 0 0 0 1.4 1 2.3 2.3 0 0 0 .5 0c.7 0 1.5-.3 1.7-1.6a33.1 33.1 0 0 1 3-9.4 9.9 9.9 0 0 1 1.4-2 1.7 1.7 0 0 1 1-.5.3.3 0 0 1 .2.2.5.5 0 0 1 0 .4s-2.8 6.7-2.3 12.8c0 .2.3 4.2 4.2 4.2h.2c.2 0 3.5 0 4.3-4.2 0 0 .3-1.3-.5-1.5" fill="#fff"/><path class="cls-4" d="M29.5 36.5c0 .2 0 .5.2.6a.6.6 0 0 0 .3 0c.4 0 1.7-.3 2.9-4.2.8-2.7.8-4.7 0-6a2.6 2.6 0 0 0-.6-.8c.8 1.4.8 3.4 0 6-1.1 3.7-2.3 4.3-2.8 4.3M41.5 38.9a1.3 1.3 0 0 0 0-.3.8.8 0 0 0-.5-.4.8.8 0 0 0-.4 0c-.6 0-1.3.5-2 1.8-3.6 6.1-4.3 14.7-4.3 14.8 0 .4-.2.9-1 .9a2.4 2.4 0 0 1-.5 0 2.3 2.3 0 0 1-.8-.4 2 2 0 0 0 1.4 1 2.3 2.3 0 0 0 .5 0c.8 0 1-.4 1-.9 0 0 .8-8.6 4.3-14.8.7-1.2 1.4-1.9 2-1.9a.8.8 0 0 1 .3.1M38.7 36.4a.6.6 0 0 0 .3 0 1.2 1.2 0 0 1 0-.2 26.7 26.7 0 0 0 1.6-9.8 3.2 3.2 0 0 0-1-2.4 4.5 4.5 0 0 1 .4 1.8 27 27 0 0 1-1.6 9.7.7.7 0 0 0 .3 1M19.3 55.7c-1-1.3-1.7-4.2-.2-10.2 0-.1 2.1-9 6-13.2.4-.5 2.2-2.5 3.9-2.5a1.9 1.9 0 0 1 .8.2 1.6 1.6 0 0 0-.6-.7 1.8 1.8 0 0 0-.8-.2c-1.7 0-3.5 2-3.9 2.5-3.9 4.2-6 13.1-6 13.2-1.8 7.4-.3 10 .8 11M30.7 50a.7.7 0 0 0-.2 0 .7.7 0 0 0-.7.4 60.1 60.1 0 0 1-3.2 6.1c-3.4 5.5-7.5 6-9 6a4.2 4.2 0 0 1-.7 0 5.9 5.9 0 0 1-3.5-1.6 5.9 5.9 0 0 0 4 2.4 4.4 4.4 0 0 0 .7 0c1.6 0 5.7-.6 9-6.1a62.7 62.7 0 0 0 3.3-6.1.7.7 0 0 1 .7-.4h.1a.7.7 0 0 0-.5-.7M52 45.6c-.7-1.7 1-6 1.5-7.3 1.4-3 2.6-4.5 3.6-4.5a1 1 0 0 1 .3 0 .8.8 0 0 0-.1-.4.7.7 0 0 0-.4-.3 1 1 0 0 0-.4 0c-1 0-2.2 1.4-3.6 4.5-.6 1.3-2.2 5.6-1.4 7.3a1.5 1.5 0 0 0 .6.7M93.7 38a1 1 0 0 0 .4.2 2.1 2.1 0 0 1-.1-.8c0-.3 0-1.7 1.4-5.5l1.5-4c1-2.4.8-3.5.6-4a1.1 1.1 0 0 0-.6-.6c.2.5.4 1.7-.6 4l-1.5 4a17.6 17.6 0 0 0-1.4 5.4 1.8 1.8 0 0 0 .3 1.3M102.5 37a2.6 2.6 0 0 1-.1-1.3c.3-2.5 2.7-10.3 3.1-11.8a1.3 1.3 0 0 0 0-1.2 1 1 0 0 0-.4-.3 1.8 1.8 0 0 1-.1.8c-.5 1.5-2.9 9.3-3.2 11.8a1.8 1.8 0 0 0 .7 2M117.8 39.2a4.1 4.1 0 0 1-.4-1.5c0-.3-.5-4.6 2.1-11.1 1.2-3 1-4.3.7-4.9a1 1 0 0 0-.4-.5h-.1c.2.6.3 2-.8 4.7a24.3 24.3 0 0 0-2.1 11 2.7 2.7 0 0 0 1 2.3M60.5 32.2a.9.9 0 0 1 0-.3 1.3 1.3 0 0 0 0-1 1.1 1.1 0 0 0-.6-.4 1.6 1.6 0 0 1 0 .8.7.7 0 0 0 0 .6.7.7 0 0 0 .6.3M60 44.3a3.6 3.6 0 0 1-.2-1.5c.1-2.7 2-7.8 2-8 .3-.7.3-1.3.1-1.6a.8.8 0 0 0-.5-.3 3 3 0 0 1-.2 1.2c0 .2-1.9 5.2-2 8a3 3 0 0 0 .5 2 1.3 1.3 0 0 0 .3.2M75.7 25.4c.3.7.5 2-.3 4.5a9 9 0 0 1-1.3 3 2 2 0 0 1-1 .7s0 .2.3.4l.5.3a2 2 0 0 0 .8-.7 9.3 9.3 0 0 0 1.3-3c1.4-4.2-.2-5-.4-5.2M44.6 52.9a4.7 4.7 0 0 1-.7-1.4c-1.5-4.8 1.7-12.6 2-13.4 1.7-3.8.5-4.8.5-4.8a1.2 1.2 0 0 0-.3-.2c.2.7.3 2-.7 4.3-.4.9-3.6 8.6-2.1 13.4a4.6 4.6 0 0 0 1.3 2.1M115.6 26.3a.8.8 0 0 0-.2-.4.8.8 0 0 0-.7-.4 2.3 2.3 0 0 0-1.3.6 10 10 0 0 0-1.5 2.1 33.8 33.8 0 0 0-3.1 9.6c-.2 1-.7 1.2-1.1 1.2a1.7 1.7 0 0 1-.4 0h-.1a1.6 1.6 0 0 1-.5-.2l.1.2a1.5 1.5 0 0 0 1 .7 1.5 1.5 0 0 0 .5 0c.4 0 1-.2 1-1.2a33.8 33.8 0 0 1 3.2-9.6 9.9 9.9 0 0 1 1.6-2.1 2.3 2.3 0 0 1 1.2-.6 1 1 0 0 1 .3 0M105.7 13.8a2.5 2.5 0 0 1 .3.7 3.5 3.5 0 0 1-.5 2.6 2.7 2.7 0 0 1-2.2 1.3 1.8 1.8 0 0 1-.5 0 1.3 1.3 0 0 1-.4-.2.9.9 0 0 0 .2.3 1.1 1.1 0 0 0 .7.5 1.9 1.9 0 0 0 .6 0 2.6 2.6 0 0 0 2.1-1.2 3.6 3.6 0 0 0 .6-2.6 2.4 2.4 0 0 0-1-1.5M105.5 37.4a.6.6 0 0 0-.5.2c-1.7 2.1-3.2 2.2-3.5 2.2a3.3 3.3 0 0 1-2-.6l.2.3a3 3 0 0 0 2.4 1c.3 0 1.8-.1 3.5-2.2a.6.6 0 0 1 .4-.3v-.3a.6.6 0 0 0-.5-.3M98 37a.6.6 0 0 0-.6.3c-2 3.7-4.6 4-4.7 4h-.5A2.1 2.1 0 0 1 91 41a2 2 0 0 0 1.9 1h.4c.1 0 2.7-.3 4.8-4a.6.6 0 0 1 .5-.3v-.2a.6.6 0 0 0-.6-.5M121.3 39.2a.6.6 0 0 0-.6.3c-.7 3.5-3.5 3.5-3.6 3.5h-.2a3.4 3.4 0 0 1-2.3-.7 3.3 3.3 0 0 0 2.9 1.4h.2s3 0 3.7-3.7v-.8M72.7 30a1.2 1.2 0 0 0 0-.2.8.8 0 0 0-.4-.4 1 1 0 0 0-.5-.1c-.8 0-1.6.8-2 1.5a34.9 34.9 0 0 0-2 6.4c-1.2 4.6.1 6.6.4 7a.5.5 0 0 1 .1.4 2 2 0 0 1-1.2.6 4.5 4.5 0 0 1-.8 0 2.7 2.7 0 0 1-1.8-.4A2.5 2.5 0 0 0 67 46a4.7 4.7 0 0 0 .8 0c.4-.2 1-.4 1.2-.7a.5.5 0 0 0-.1-.4c-.3-.4-1.6-2.4-.5-7a35.7 35.7 0 0 1 2-6.3c.3-.6 1.3-1.6 2-1.6a1 1 0 0 1 .4 0M92.2 28.7a1.7 1.7 0 0 0 0-.2.9.9 0 0 0-.5-.4.7.7 0 0 0-.1 0h-.2c-1 0-2 1.3-2.3 2-2.6 4.6-3.5 11.2-3.5 11.2s-.1.8-1.2.8h-.3a2.4 2.4 0 0 1-.9-.2 1.5 1.5 0 0 0 .2.3 1.6 1.6 0 0 0 1.3.6h.3c1 0 1.2-.6 1.2-.8s.9-6.6 3.5-11.3c.4-.6 1.3-2 2.3-2h.2M55.2 46.7a.7.7 0 0 0-.7.4c-1 2.2-2.5 3.3-4.2 3.3a3.2 3.2 0 0 1-1-.1 3.1 3.1 0 0 1-1-.6A3 3 0 0 0 50 51a3 3 0 0 0 1 .1c1.6 0 3.1-1.1 4.2-3.2a.7.7 0 0 1 .6-.4.7.7 0 0 1 .4 0 2.6 2.6 0 0 1-.4-.4.7.7 0 0 0-.6-.3M63.7 43.8a.6.6 0 0 0-.5-.3.5.5 0 0 0-.2 0 4.4 4.4 0 0 1-.8 1.2 10.5 10.5 0 0 1-2 2.4 4 4 0 0 1-2.4 1.2 2.2 2.2 0 0 1-1.5-.6h.1a2.5 2.5 0 0 0 2 1.2 4 4 0 0 0 2.5-1.2 11.4 11.4 0 0 0 2.4-3.2.6.6 0 0 1 .5-.3h.2a.2.2 0 0 1 0-.1 2.3 2.3 0 0 1-.2-.3M49.9 54.4l-.5.1c-.5 2.2-3.2 3.4-3.2 3.4a7.8 7.8 0 0 1-2.9.6 3.8 3.8 0 0 1-2.6-1 3.8 3.8 0 0 0 3.2 1.7 7.6 7.6 0 0 0 2.9-.6s2.8-1.3 3.2-3.6a2.2 2.2 0 0 0 0-.6h-.2M84.8 30a1.2 1.2 0 0 1 .3 0 1 1 0 0 0-.1-.3.9.9 0 0 0-.5-.4 1 1 0 0 0-.4 0c-1 0-1.8 1.3-2.1 1.8a49.2 49.2 0 0 0-3.5 12c0 .4-.9.4-1 .4a4.8 4.8 0 0 1-.8-.1 2.4 2.4 0 0 1-.9-.3l.1.2a1.8 1.8 0 0 0 1.4.8 5.2 5.2 0 0 0 .8 0c.2 0 1 0 1-.3 0 0 1.3-7.7 3.5-12 .3-.6 1.1-1.9 2.1-1.9"/></svg>