<svg id="Layer_1" data-name="Layer 1" xmlns="http://www.w3.org/2000/svg" xmlns:xlink="http://www.w3.org/1999/xlink" viewBox="0 0 136.3 77.6"><defs><linearGradient id="linear-gradient" x1="89.3" y1="31.8" x2="89.3" y2="26.1" gradientUnits="userSpaceOnUse"><stop offset="0" stop-color="#fff"/><stop offset=".3" stop-color="#1e1e1e"/><stop offset=".7" stop-color="#c7c7c7"/><stop offset=".9" stop-color="#c7c7c7"/></linearGradient><linearGradient id="linear-gradient-2" x1="32.5" y1="31.8" x2="32.5" y2="26.1" xlink:href="#linear-gradient"/><linearGradient id="linear-gradient-3" x1="61.4" y1="31.8" x2="61.4" y2="26.1" xlink:href="#linear-gradient"/><linearGradient id="linear-gradient-4" x1="102.8" y1="31.8" x2="102.8" y2="26.1" xlink:href="#linear-gradient"/><linearGradient id="linear-gradient-5" x1="74.8" y1="32" x2="74.8" y2="25.9" xlink:href="#linear-gradient"/><linearGradient id="linear-gradient-6" x1="17.3" y1="32" x2="17.3" y2="25.9" xlink:href="#linear-gradient"/><linearGradient id="linear-gradient-7" x1="48.4" y1="32.1" x2="48.4" y2="26" xlink:href="#linear-gradient"/><linearGradient id="linear-gradient-8" x1="117.5" y1="32.1" x2="117.5" y2="26" xlink:href="#linear-gradient"/><linearGradient id="linear-gradient-9" x1="36" y1="49.7" x2="37.1" y2="37.2" gradientUnits="userSpaceOnUse"><stop offset="0" stop-color="#3c3c3c"/><stop offset=".1" stop-color="#2d2d2d"/><stop offset=".2" stop-color="#8f8f8f"/><stop offset=".3" stop-color="#b8b8b8"/><stop offset=".5" stop-color="#474747"/><stop offset=".6" stop-color="#fff"/><stop offset=".8" stop-color="#e9e9e9"/><stop offset=".9" stop-color="#ccc"/><stop offset=".9" stop-color="#8b8b8b"/><stop offset="1" stop-color="#606060"/></linearGradient><linearGradient id="linear-gradient-10" x1="-1466.5" y1="49.7" x2="-1465.4" y2="37.2" gradientTransform="matrix(-1 0 0 1 -1366.1 0)" xlink:href="#linear-gradient-9"/><linearGradient id="linear-gradient-11" x1="60.4" y1="46.3" x2="60.4" y2="42.3" gradientUnits="userSpaceOnUse"><stop offset="0"/><stop offset=".1" stop-color="#02225d"/><stop offset=".3" stop-color="#01083e"/><stop offset=".8" stop-color="#010b46"/><stop offset=".9" stop-color="#05259b"/><stop offset="1"/></linearGradient><linearGradient id="linear-gradient-12" x1="-1643.5" y1="46.3" x2="-1643.5" y2="42.3" gradientTransform="matrix(-1 0 0 1 -1567.9 0)" xlink:href="#linear-gradient-11"/><linearGradient id="linear-gradient-13" x1="72.5" y1="44.7" x2="72.5" y2="43.4" gradientUnits="userSpaceOnUse"><stop offset="0" stop-color="#686868"/><stop offset=".3" stop-color="#a1a1a1"/><stop offset=".6" stop-color="#fff"/><stop offset=".8" stop-color="#e9e9e9"/><stop offset=".9" stop-color="#ccc"/><stop offset="1" stop-color="#8b8b8b"/></linearGradient><linearGradient id="linear-gradient-14" x1="60.3" y1="44.7" x2="60.3" y2="43.4" xlink:href="#linear-gradient-13"/><linearGradient id="linear-gradient-15" x1="66.5" y1="44.7" x2="66.5" y2="43.4" xlink:href="#linear-gradient-13"/><linearGradient id="linear-gradient-16" x1="75.4" y1="44.7" x2="75.4" y2="43.4" xlink:href="#linear-gradient-13"/><linearGradient id="linear-gradient-17" x1="69.3" y1="44.7" x2="69.3" y2="43.3" xlink:href="#linear-gradient-13"/><linearGradient id="linear-gradient-18" x1="57" y1="44.7" x2="57" y2="43.3" xlink:href="#linear-gradient-13"/><linearGradient id="linear-gradient-19" x1="63.7" y1="44.7" x2="63.7" y2="43.4" xlink:href="#linear-gradient-13"/><linearGradient id="linear-gradient-20" x1="78.5" y1="44.7" x2="78.5" y2="43.4" xlink:href="#linear-gradient-13"/><linearGradient id="linear-gradient-21" x1="53.1" y1="43.8" x2="45.5" y2="43.8" gradientUnits="userSpaceOnUse"><stop offset=".1" stop-color="#dadada"/><stop offset="1" stop-color="#666"/></linearGradient><linearGradient id="linear-gradient-22" x1="-1550.3" y1="43.8" x2="-1557.9" y2="43.8" gradientTransform="matrix(-1 0 0 1 -1467 0)" xlink:href="#linear-gradient-21"/><linearGradient id="linear-gradient-23" x1="36.7" y1="41.7" x2="36.7" y2="38.8" gradientUnits="userSpaceOnUse"><stop offset="0" stop-color="#b0b0b0"/><stop offset=".3" stop-color="#dcdcdc"/><stop offset=".6" stop-color="#b5b5b5"/><stop offset=".7" stop-color="#9d9d9d"/><stop offset=".9" stop-color="#8b8b8b"/></linearGradient><linearGradient id="linear-gradient-24" x1="-1472" y1="41.7" x2="-1472" y2="38.8" gradientTransform="matrix(-1 0 0 1 -1372.5 0)" xlink:href="#linear-gradient-23"/><style>.cls-1{fill:#231f20}.cls-11{fill:#191919}.cls-13{fill:#fff}.cls-25{fill:#929292}.cls-26{fill:#f2f2f2}.cls-27{fill:#838b8d}</style></defs><path class="cls-1" d="M84.4 32.4h9.9v-1.1h-6.9v-5h-3v6.1M26.8 26.3v6h3V30h5.3v2.5h3v-6h-3v2.4h-5.3v-2.5h-3M65 26.3 62.2 29l-3-2.6-3.5-.2v.2L60 30v2.5h3v-2.5l4-3.6v-.2l-2 .2M97.7 32.4h10.2v-1h-7.1v-1.6h6.9v-1h-6.9v-1.5h7v-1H97.7v6.1M69.6 27.9c0 1.4 1.6 1.7 3.8 2s3.3.4 3.3.9-.6.7-2.6.7a16.3 16.3 0 0 1-4.3-.6s-.2.7-.3 1a.6.6 0 0 0 0 .2 21.7 21.7 0 0 0 4.7.5c3 0 5.8-.5 5.8-2 0-1.2-1.1-1.8-4.4-2-1.4-.3-2.8-.4-2.8-.9s.4-.5 2.3-.5a16.4 16.4 0 0 1 3.8.4l.3-1.4a49 49 0 0 0-4.8-.2c-2.1 0-4.8.3-4.8 1.9M12.1 29.4c0 2 2 3.3 6.4 3.3a29.9 29.9 0 0 0 3.7-.3l.3-1.5a16.8 16.8 0 0 1-3.4.4c-2.4 0-4-.5-4-2s1.6-2 4-2a23.7 23.7 0 0 1 3.3.3v-.2l-.2-1a29 29 0 0 0-3.7-.3c-4.3 0-6.4 1.3-6.4 3.3M42.9 32.4H46v-5h1.6a11.5 11.5 0 0 1 1.7 0c1 .1 1.3.4 1.2.8s-.4.8-1.3 1a9.8 9.8 0 0 1-1.6 0 4.3 4.3 0 0 1-1-.2v.2l3.5 3.2H54v-.2l-3.5-2.3a5.2 5.2 0 0 0 1.6-.3c1-.3 1.4-.8 1.4-1.4 0-.7-.4-1.3-2.2-1.7a17.8 17.8 0 0 0-3.7-.3l-4.7.1v6M112 32.4h3v-5h1.6a11.7 11.7 0 0 1 1.7 0c1 .1 1.2.4 1.2.8s-.4.8-1.3 1a9.5 9.5 0 0 1-1.6 0 4 4 0 0 1-1-.2v.2l3.6 3.2h3.8v-.2l-3.5-2.3a5.2 5.2 0 0 0 1.6-.3c1-.3 1.4-.8 1.4-1.4 0-.7-.4-1.3-2.1-1.7a17.7 17.7 0 0 0-3.8-.3l-4.7.1v6"/><path fill="url(#linear-gradient)" d="M84.4 31.8h9.9v-1.1h-6.9v-4.6h-3v5.7"/><path d="M26.8 26.1v5.7h3v-2.3h5.3v2.3h3v-5.7h-3v2.3h-5.3v-2.3h-3" fill="url(#linear-gradient-2)"/><path d="m65 26.1-2.8 2.4-3-2.4h-3.5l4.3 3.4v2.3h3v-2.4l4-3.3h-2" fill="url(#linear-gradient-3)"/><path fill="url(#linear-gradient-4)" d="M97.7 31.8h10.2v-.9h-7.1v-1.5h6.9v-1h-6.9v-1.3h7v-1H97.7v5.7"/><path d="M69.6 27.6c0 1.3 1.6 1.6 3.8 1.9s3.3.3 3.3.8-.6.7-2.6.7a17.9 17.9 0 0 1-4.3-.6s-.3 1.5-.3 1.5c.3.1 2 .2 4.7.2 3 0 5.8-.5 5.8-2 0-1-1.1-1.6-4.4-2-1.4-.1-2.8-.2-2.8-.7s.4-.5 2.3-.5a16.9 16.9 0 0 1 3.8.4l.3-1a30.5 30.5 0 0 0-4.8-.5c-2.1 0-4.8.3-4.8 1.8" fill="url(#linear-gradient-5)"/><path d="M12.1 29c0 1.8 2 3 6.4 3a30.6 30.6 0 0 0 3.7-.2l.3-.9v-.3a27.9 27.9 0 0 1-3.4.3c-2.4 0-4-.6-4-1.9s1.6-1.9 4-1.9a24.8 24.8 0 0 1 3.3.3l-.2-1.2a32.1 32.1 0 0 0-3.7-.3c-4.3 0-6.4 1.2-6.4 3.1" fill="url(#linear-gradient-6)"/><path d="M42.9 31.8H46v-4.7h1.6a13.4 13.4 0 0 1 1.7 0c1 .2 1.3.4 1.2.8s-.4.7-1.3.9a11 11 0 0 1-1.6 0h-1v.2l3.5 2.8 4 .3v-.3l-3.6-2.4a5.8 5.8 0 0 0 1.6-.2c1-.3 1.4-.8 1.4-1.3 0-.6-.4-1.2-2.1-1.6a18.7 18.7 0 0 0-3.8-.3h-4.7v5.8" fill="url(#linear-gradient-7)"/><path d="M112 31.8h3v-4.7h1.6a13.6 13.6 0 0 1 1.7 0c1 .2 1.2.4 1.2.8s-.4.7-1.3.9a10.6 10.6 0 0 1-1.6 0h-1v.2l3.6 2.8 3.8.3v-.3l-3.5-2.4a5.8 5.8 0 0 0 1.7-.2c.9-.3 1.3-.8 1.4-1.3 0-.6-.5-1.2-2.2-1.6a18.6 18.6 0 0 0-3.8-.3l-4.7.1v5.7" fill="url(#linear-gradient-8)"/><path d="M68.4 50.8a17.9 17.9 0 0 0-4.7.4 5.9 5.9 0 0 1-3.1.6c-2 0-6-.6-6-.6S12.2 44.8 11 44.4a24 24 0 0 1-4.2-2.1c-1.6-1-2.5-1.9-2.5-2.5s1-.8 1-.8l46.7-.3a14.3 14.3 0 0 1 2.6 0c.6.3 3.4 1.5 4.3 1.7 2.1.4 9.4.2 9.4.2" fill="url(#linear-gradient-9)" stroke="#b8b8b8" stroke-width=".3"/><path class="cls-11" d="m12.3 41 29 .5a9 9 0 0 1 1.5.2 4.8 4.8 0 0 1 1.3.6h7.3a25.8 25.8 0 0 0-2.7.2c-.2.1 0 .2 0 .2h-5.3l.2.2 1.5.2 1.3 1h5.8a5.8 5.8 0 0 0-1.4.4l-.2.2h-4.3s.1.2.8.2a2.9 2.9 0 0 1 1 .3 16.3 16.3 0 0 0 4 1.8c2.5.8 7 1.5 7 1.5s-6.5-.1-9.4-1.3-6.6-4-7.5-4.4a4 4 0 0 0-1.8-.2s-19.7-.8-21.9-1l-6.2-.6Z"/><path d="M68 50.8a17.8 17.8 0 0 1 4.7.4 6 6 0 0 0 3.1.6c2 0 6-.6 6-.6s42.3-6.4 43.5-6.8a23.6 23.6 0 0 0 4.1-2.1c1.6-1 2.5-1.9 2.5-2.5s-1-.8-1-.8l-46.7-.3a14.2 14.2 0 0 0-2.5 0c-.7.3-3.5 1.5-4.4 1.7-2 .4-9.3.2-9.3.2" fill="url(#linear-gradient-10)" stroke="#b8b8b8" stroke-width=".3"/><path class="cls-11" d="m124 41-29 .5a9 9 0 0 0-1.5.2 4.8 4.8 0 0 0-1.2.6h-7.4a26 26 0 0 1 2.7.2c.2.1.1.2.1.2H93l-.2.2-1.6.2-1.2 1h-5.8a5.8 5.8 0 0 1 1.3.4l.2.2H90s0 .2-.7.2a2.7 2.7 0 0 0-1 .3 16.5 16.5 0 0 1-4 1.8c-2.5.8-7 1.5-7 1.5s6.5-.1 9.3-1.3 6.7-4 7.5-4.4a4 4 0 0 1 1.8-.2s19.7-.8 22-1l6.2-.6Z"/><path class="cls-13" d="M68.4 46.3h-9c-3.5 0-4.2-.5-5.6-1.7-2-1.6-1.7-2.4-1.7-2.4h16.3"/><path d="M68.4 46.3h-8.8c-3.4 0-4.4-.6-5.6-1.7-1.9-1.7-1.7-2.3-1.7-2.3h16" fill="url(#linear-gradient-11)"/><path class="cls-13" d="M67.8 46.3h9c3.4 0 4.1-.5 5.6-1.7 1.9-1.6 1.7-2.4 1.7-2.4H67.8"/><path d="M67.8 46.3h8.8c3.4 0 4.3-.6 5.6-1.7 1.8-1.7 1.6-2.3 1.6-2.3H67.3" fill="url(#linear-gradient-12)"/><path class="cls-13" d="M71.3 44.7h2.3v-.2H72v-1.2h-.7v1.4"/><path fill="url(#linear-gradient-13)" d="M71.4 44.7h2.1v-.3h-1.4v-1h-.7v1.3"/><path class="cls-13" d="M59 43.3v1.4h.7v-.6h1.2v.6h.7v-1.4h-.7v.6h-1.2v-.6H59"/><path d="M59 43.4v1.3h.7V44h1.1v.6h.7v-1.3h-.7v.5h-1.1v-.5H59" fill="url(#linear-gradient-14)"/><path class="cls-13" d="m67.3 43.3-.6.6-.7-.6h-.8l1 .9v.5h.7v-.6l1-.8h-.6"/><path d="m67.3 43.4-.7.5-.6-.5h-.8l1 .7v.6h.6V44l.9-.7h-.5" fill="url(#linear-gradient-15)"/><path class="cls-13" d="M74.2 44.7h2.3v-.2h-1.6v-.4h1.6v-.2h-1.6v-.3h1.6v-.3h-2.3v1.4"/><path fill="url(#linear-gradient-16)" d="M74.3 44.7h2.2v-.2h-1.6v-.4h1.5v-.2h-1.5v-.3h1.5v-.2h-2.1v1.3"/><path class="cls-13" d="M68.2 43.7c0 .3.3.4.8.4s.8.1.8.2-.2.2-.6.2a4.2 4.2 0 0 1-1-.1v.3a4.8 4.8 0 0 0 1 0c.7 0 1.3 0 1.3-.4s-.2-.4-1-.5l-.6-.1c0-.2 0-.2.5-.2a4.3 4.3 0 0 1 1 .1v-.3a7.1 7.1 0 0 0-1.1 0c-.5 0-1.1 0-1.1.4"/><path d="M68.2 43.7c0 .3.4.4.9.4s.7.1.7.2-.2.2-.6.2a3.1 3.1 0 0 1-1-.2s0 .3 0 .3a5 5 0 0 0 1 .1c.6 0 1.3 0 1.3-.4s-.3-.4-1-.5l-.6-.1c0-.1 0-.2.5-.2a3.8 3.8 0 0 1 .8.1v-.2a6 6 0 0 0-1 0c-.4 0-1 0-1 .3" fill="url(#linear-gradient-17)"/><path class="cls-13" d="M55.9 44c0 .4.4.8 1.4.8a6.3 6.3 0 0 0 .8-.1v-.3h-.7c-.5 0-.9-.1-.9-.5s.4-.4 1-.4a4.6 4.6 0 0 1 .7 0v-.2a6.5 6.5 0 0 0-.9-.1c-1 0-1.4.3-1.4.7"/><path d="M56 44c0 .4.3.7 1.3.7a6.1 6.1 0 0 0 .8 0v-.3a5.3 5.3 0 0 1-.7 0c-.5 0-.8 0-.8-.4s.3-.4.8-.4a4 4 0 0 1 .7 0v-.2a6.4 6.4 0 0 0-.8-.1c-1 0-1.4.3-1.4.7" fill="url(#linear-gradient-18)"/><path class="cls-13" d="M62.5 44.7h.6v-1.1h.4a2 2 0 0 1 .4 0c.2 0 .3 0 .3.2s-.1.1-.3.2a2.1 2.1 0 0 1-.4 0h-.2l.8.7h.8l-.7-.6a1.1 1.1 0 0 0 .3 0c.2-.1.3-.2.3-.4s0-.2-.5-.3a3.6 3.6 0 0 0-.8 0h-1v1.2"/><path d="M62.5 44.7h.7v-1.1h.7c.2 0 .2.1.2.2l-.2.2a2 2 0 0 1-.4 0h-.2l.8.7h.8L64 44a1.4 1.4 0 0 0 .4 0l.3-.3c0-.1-.1-.3-.5-.4a3.5 3.5 0 0 0-.8 0h-1v1.2" fill="url(#linear-gradient-19)"/><path class="cls-13" d="M77.3 44.7h.6v-1.1h.4a2.3 2.3 0 0 1 .4 0c.2 0 .3 0 .3.2s-.1.1-.3.2a2.1 2.1 0 0 1-.4 0h-.2l.8.7h.9l-.8-.6a1.2 1.2 0 0 0 .3 0l.4-.3c0-.1-.1-.3-.5-.4a4 4 0 0 0-.9-.1h-1v1.4"/><path d="M77.3 44.7h.7v-1.1h.7c.2 0 .3.1.3.2l-.3.2a2 2 0 0 1-.4 0h-.2l.8.7h.8L79 44a1.4 1.4 0 0 0 .3 0l.3-.3c0-.1 0-.3-.4-.4a3.5 3.5 0 0 0-.9 0h-1v1.2" fill="url(#linear-gradient-20)"/><path fill="url(#linear-gradient-21)" d="M52.3 43.4h-6.8l1 .8h6.6"/><path class="cls-25" d="M51.4 42.4h-2.3a.9.9 0 0 0-.7.3 9.4 9.4 0 0 0 1.9.4l1.8.1Z"/><path class="cls-26" d="M50.6 44.7h-4.5a1.4 1.4 0 0 0 1 .5h6ZM85.6 44.7H90a1.4 1.4 0 0 1-1 .5h-6Z"/><path class="cls-27" d="M52.6 44.3h-1a2 2 0 0 0-1 .4 10.8 10.8 0 0 0 1.2.3l1.7.2"/><path fill="url(#linear-gradient-22)" d="M84.1 43.4h6.8l-1 .8h-6.6"/><path class="cls-25" d="M85 42.4h2.2a1.4 1.4 0 0 1 .7.3 9.4 9.4 0 0 1-1.8.4l-1.8.1Z"/><path class="cls-27" d="M83.8 44.3h1a2.6 2.6 0 0 1 1.1.4s-.7.2-1.3.3l-1.7.2"/><path d="M68.3 50.6a22.6 22.6 0 0 0-2.8.2 12.7 12.7 0 0 0-3.2.8c-1.2.3-5.8-.3-5.8-.3L14.3 45c-3.2-.5-3-.4-5.6-1.7C5.3 41.5 4.4 40 4.4 40a15.2 15.2 0 0 1 1.5.8c4.3 2.8 4.7 2.7 5.5 3 2.4.9 39.5 6.2 39.5 6.2s8.4 1.5 9.8 1l2.8-1.2a24.8 24.8 0 0 1 5.6-.4"/><path d="M68 50.6a22.7 22.7 0 0 1 2.8.2 13 13 0 0 1 3.2.8c1.2.3 5.8-.3 5.8-.3L122 45a13.2 13.2 0 0 0 5.6-1.7c3.5-1.7 4.3-3.2 4.3-3.2a16 16 0 0 0-1.5.8c-4.3 2.8-4.6 2.7-5.5 3-2.3.9-39.4 6.2-39.4 6.2s-8.4 1.5-9.8 1l-2.9-1.2a23 23 0 0 0-5.4-.4"/><path d="M68.7 40.8s-9 0-10-.3l-3.5-1.4a12.4 12.4 0 0 0-2-.3S5.8 39 5.4 39a2.5 2.5 0 0 0-.9.4s3 .5 4.3.6c14.2 1 44.7.5 45.8.7s2 1 3.4 1h10.7" fill="url(#linear-gradient-23)"/><path d="M67.6 40.8s9 0 10-.3l3.4-1.4a12.6 12.6 0 0 1 2.2-.3s47.1.3 47.6.3a2.4 2.4 0 0 1 .8.4s-3 .5-4.3.6c-14 1-44.7.5-45.8.7s-1.9 1-3.4 1H67.5" fill="url(#linear-gradient-24)"/></svg>