<svg id="Layer_1" data-name="Layer 1" xmlns="http://www.w3.org/2000/svg" viewBox="0 0 136.3 77.6"><defs><style>.cls-2{fill:#fff}</style></defs><path d="M106.8 35.1c-4.4-4.5-11-13-20.7-19.1l-2.8-1.6a33.3 33.3 0 0 0-30.2 0c-1 .5-2 1-2.8 1.6-9.7 6.2-16.3 14.6-20.8 19.1a54.7 54.7 0 0 1-4.2 3.7 53.4 53.4 0 0 1 4.2 3.7C34 47 40.6 55.4 50.3 61.6l2.8 1.6a33.3 33.3 0 0 0 30.2 0l2.8-1.6c9.6-6.2 16.3-14.7 20.7-19.1a54.7 54.7 0 0 1 4.2-3.7 54.7 54.7 0 0 1-4.2-3.7" fill="#e04952"/><path class="cls-2" d="M44 24.6h12.6c8.1 0 13.8 2.3 12.9 10.2s-4.6 15.8-15 15.8H39.6l.5-2.3 1.3-.3 5-20.9-3-.2Zm6.6 23.2a14 14 0 0 0 2.6.2c6.3 0 8-14.8 7.7-17-.3-3.2-1.8-3.7-3.4-3.7h-2Z"/><path class="cls-2" d="M94.2 50.6a6 6 0 0 1-2.2.6c-2.1 0-2.1-.8-3.1-2.1 5.2-3 8.4-8.8 8.4-15.6 0-6.2-4.8-9.5-12.7-9.5-9 0-16.3 8.2-16.5 16.3C67.9 47 71.3 51.2 81 51a16.1 16.1 0 0 0 2.2-.2c1.2 2.9 2.1 4.1 6 4.1a9 9 0 0 0 4.4-1l.7-3Zm-9.7-5.7a8.5 8.5 0 0 0-4.3-1.4l-.6 2.6A2.9 2.9 0 0 1 82 48a2.5 2.5 0 0 1-1.4.5c-2.4 0-3.5-1.4-3.6-3.1-.2-2.8 2.4-18.8 7.5-18.8 2.5 0 3.5 1.4 3.6 3.1.2 2-1 10.3-3.6 15.2"/><path d="M105.7 27.8a69.2 69.2 0 0 0-37-11.2 52.4 52.4 0 0 0-14.5 2.3A47.4 47.4 0 0 1 78 12.3a69 69 0 0 1 29.7 6.9Z" fill="#ed9e64"/><path d="M30.7 49.8a69 69 0 0 0 37 11.2 52.3 52.3 0 0 0 14.5-2.3 47 47 0 0 1-23.9 6.6 69 69 0 0 1-29.6-7Z" fill="#2a7ab1"/><path class="cls-2" d="M94.6 47.7a1.8 1.8 0 1 1 1.8 1.8 1.8 1.8 0 0 1-1.8-1.8m1.8 1.5a1.5 1.5 0 0 0 1.5-1.5 1.4 1.4 0 1 0-1.5 1.5m-.4-.5h-.3v-2h.8c.5 0 .7.1.7.5a.6.6 0 0 1-.5.6l.6 1H97l-.6-1h-.3Zm.4-1.2c.3 0 .5 0 .5-.3s-.2-.3-.4-.3H96v.6Z"/></svg>