<svg id="Layer_1" data-name="Layer 1" xmlns="http://www.w3.org/2000/svg" viewBox="0 0 136.3 77.6"><defs><style>.cls-1{fill:#ed3729}.cls-2{fill:#231f20}</style></defs><path class="cls-1" d="m114.3 30.3-14.6 17h7.1l14.7-17h-7.2zM124.3 30.3l-14.6 17h7.1l14.5-16.8v-.2h-7z"/><path class="cls-2" d="M5.5 41.2a.5.5 0 0 1-.4-.5V35a.5.5 0 0 1 .4-.5H18a9.2 9.2 0 0 1 4.4 1 2.9 2.9 0 0 1 1.7 2.4 2.9 2.9 0 0 1-1.7 2.3 9.2 9.2 0 0 1-4.4 1Zm4.3-5.5a.5.5 0 0 0-.5.5v3.2a.5.5 0 0 0 .5.5H16c2 0 3.4-1 3.4-2.1s-1.5-2-3.4-2ZM50.5 41.2a.5.5 0 0 1-.5-.5V35a.5.5 0 0 1 .5-.5H63a9.1 9.1 0 0 1 4.4 1 2.9 2.9 0 0 1 1.7 2.4 2.9 2.9 0 0 1-1.8 2.3 9.1 9.1 0 0 1-4.3 1Zm4.3-5.5a.5.5 0 0 0-.5.5v3.2a.5.5 0 0 0 .5.5H61c2 0 3.4-1 3.4-2s-1.5-2.2-3.4-2.2ZM37 41.4h-2.4a14.8 14.8 0 0 1-5.6-1.2c-1.4-.6-2.2-1.5-2.2-2.4 0-1.8 3.4-3.4 7.7-3.5h5c4.3.1 7.7 1.7 7.7 3.5 0 1-.8 1.8-2.2 2.4a14.9 14.9 0 0 1-5.5 1.1H37m0-5.8h-1.3c-2.6 0-4.5 1-4.5 2.2s1.9 2.2 4.5 2.3h2.6c2.6-.1 4.5-1 4.5-2.3s-1.8-2-4.4-2.1H37M78.9 41.2h-.2c-4.7 0-7.1-1.2-7.1-3.4 0-1.8 3.1-3.3 7-3.4H91a.2.2 0 0 1 .3.3v.8a.2.2 0 0 1-.3.2H79.8c-.9 0-3.9.3-3.9 2 0 1.3 1.6 2 4 2.2h6.5c.3 0 .5-.1.5-.4v-.8c0-.3-.2-.4-.5-.4H81a.2.2 0 0 1-.2-.2v-.7a.3.3 0 0 1 .2-.2h9.8a.5.5 0 0 1 .4.4v3a.5.5 0 0 1-.4.5h-12M94.8 41.2a.5.5 0 0 1-.4-.5V35a.5.5 0 0 1 .4-.5h16.8a.3.3 0 0 1 .3.3v.7a.3.3 0 0 1-.3.3H99.3a.6.6 0 0 0-.6.5v.5c0 .3.3.5.6.5H111a.3.3 0 0 1 .3.3v.6a.3.3 0 0 1-.3.2H99.3c-.3 0-.6.2-.6.6v.5c0 .3.3.5.6.5h12.5a.3.3 0 0 1 .3.2v.8a.3.3 0 0 1-.3.3Z"/></svg>