<svg data-name="Layer 1" xmlns="http://www.w3.org/2000/svg" viewBox="0 0 136.3 77.6"><path d="M45 14c-2.3 1-5 3.5-5 9a19.4 19.4 0 0 0 .2 2.6v.4a60.3 60.3 0 0 0 5.2 18 61.7 61.7 0 0 0 13 18.8s4.3 4.2 6.4 5.3a7.6 7.6 0 0 0 3.4.7 7.6 7.6 0 0 0 3.4-.7c2-1.2 6.4-5.4 6.4-5.4a61.7 61.7 0 0 0 13-18.8 60.6 60.6 0 0 0 5.1-18l.1-.4c1-7.2-2-10.3-4.8-11.6a52.6 52.6 0 0 0-23.2-5.1A52.5 52.5 0 0 0 45 13.9" fill="#fff"/><path d="M78.4 34.8c-15 2.4-22.3 6.3-25.8 10-2.7 3-1.8 5.1-1 6.4a58.2 58.2 0 0 0 8.2 10c1 1.2 4.4 4.3 5.9 5a5.8 5.8 0 0 0 5 0c1.4-.7 4.8-3.8 5.9-5a59.7 59.7 0 0 0 12.7-18.1 53.5 53.5 0 0 0 3.4-9.6 109 109 0 0 0-14.3 1.3M50.9 21.2h-.3l-1 4.1h.4a1.3 1.3 0 0 0 1-.5 3.8 3.8 0 0 0 .7-1.6 3.1 3.1 0 0 0 0-1.6.8.8 0 0 0-.8-.5m39.6-5.4a51 51 0 0 0-22.3-5 51 51 0 0 0-22.4 5c-2.6 1.3-4 3.7-4 7.2a16.8 16.8 0 0 0 .3 2.4v.4A60.1 60.1 0 0 0 44.6 37c2-2.5 9.8-4.7 23.6-5.4 13-.7 22.3-.6 25.1-.6l1-5.3v-.4c.7-4.8-.6-8-3.8-9.6m-35.7 7.6a4.6 4.6 0 0 1-4.7 3.8h-3.7l1.6-7.7h3.6c3 0 3.7 1.7 3.2 4m3.5 3.9c-2.3 0-3.4-1-3-2.8l1.1-5h3l-1 4.9c-.2.6 0 .8.4.8s.6-.2.8-.8l1-5h3l-1 5.1c-.5 1.8-2 2.8-4.3 2.8m8.3 0c-2.7 0-3.5-1.7-3-4.1a4.6 4.6 0 0 1 4.7-4c2 0 3.4.8 3 3h-2.8c.1-.9-.1-1-.5-1-.8 0-1 .8-1.3 2s-.4 2 .4 2c.4 0 .7-.2 1-1h2.7a4 4 0 0 1-4.2 3m9.2-.2v-1.2h-2.2L73 27h-2.9l4-7.7h4l.8 7.7Zm7 0h-3l1.2-5.5h-1.8l.4-2h6.8l-.5 2h-1.8Zm5.6 0h-3l1.6-7.6h3Zm-14-3h1.3v-3Z" fill="#e1222c"/></svg>