<svg id="Layer_1" data-name="Layer 1" xmlns="http://www.w3.org/2000/svg" viewBox="0 0 136.3 77.6"><defs><style>.cls-1{fill:#131718}.cls-2{fill:#df2a45}.cls-3{fill:#9e802d}.cls-4{fill:#fff}.cls-6{fill:#ffd02d}.cls-7{fill:none}</style></defs><path class="cls-1" d="M47.9 22.6a2.4 2.4 0 0 1 2.2 0Z"/><path class="cls-2" d="M34.3 39.5a9.8 9.8 0 0 1-1.6-4.3c-.3-7.8 8-12.2 15.1-12.6h2.3a9.5 9.5 0 0 1 7.3 10c-.4 4.2-5.4 9.3-9.6 9.7H45a21.6 21.6 0 0 1-8.9-2c-.8 0-1-.8-1.8-.9"/><path class="cls-1" d="M63.6 31.9a2.4 2.4 0 0 1 0 2.2Z"/><path class="cls-3" d="M47.9 42.3a4 4 0 0 1-3 0Z"/><path class="cls-1" d="M41.9 48.3h4.8a10.6 10.6 0 0 1-4.9 0M53.9 52.1a7.6 7.6 0 0 1-5.2-.7c.8-1.1 4.6-.4 5.1.7"/><path class="cls-2" d="M60.5 53a29.3 29.3 0 0 1 3.1-.4v.6c.2.5-.2 1.6.2 1.8v.2c-.4.3 0 1.6-.2 2.2H63a10.4 10.4 0 0 0-3.1-.6c-.2-.7.3-.6.2-1.1.3-.7.8-2 .4-2.7"/><path class="cls-1" d="M64.5 54.6V54c.8 0 .5 2.2.2 2.5-.3-.4-.1-1.3-.2-2M63.9 55c.2-1.1.4 2.6 0 2.9V55Z"/><path class="cls-2" d="M40.7 58.1c1 .3.9 2.5.5 3.3a3.1 3.1 0 0 1-2.5 0c.3-1.2 1-2.2 1.2-3.5h.4c0 .2.3.2.4.2"/><path class="cls-1" d="M49.4 58.1c-.1.8.3 2.2-.2 2.7.1-.8-.3-2.2.2-2.7"/><path class="cls-2" d="M18.8 63.5c-.9-.2-1 .4-1.6.4 0-.7-.7-.9-.5-1.8.7.2.6-.3 1.2-.2h.6c.3.3.2 1 .2 1.6"/><path class="cls-1" d="M35.6 67.9h1c0 .6-.5.4-.5.9-.4 0-.5-.4-.5-1M57.9 44.3a12 12 0 0 1 2.2-2.2 12.7 12.7 0 0 1-2.2 2.2"/><path class="cls-4" d="M34.3 39.5a3.3 3.3 0 0 0-1.8-1 18.2 18.2 0 0 0-.9-3.5c1.4-5.2 3.7-9.3 8-11.6 4-.8 7-2.5 11.3-1.5 2.6.5 3.9 3.5 6 4.4 0 2.4 1.6 3.7 1.6 5.6 0 5.2-5.5 8.4-8.4 11.3-5.1 0-10.9 0-14-2.4v-.5a21.6 21.6 0 0 0 8.8 2 3.9 3.9 0 0 0 3 0c4-.4 9-5.5 9.5-9.7a9.5 9.5 0 0 0-7.3-10 2.4 2.4 0 0 0-2.3 0c-7.1.5-15.5 4.8-15 12.6a9.8 9.8 0 0 0 1.5 4.3"/><path class="cls-1" d="M41.9 48.3c-9.3-1.5-18.2-6.6-14.9-18.2 1.2-4.3 4.5-6.8 8-9.3s8.9-5.5 14.7-4.5A16.4 16.4 0 0 1 54 18c2.5 1.4 7.4 5.1 8.7 8.4.6 1.8.3 3.4.9 5.6V34a17.2 17.2 0 0 1-3.6 8 13 13 0 0 0-2.2 2.2 25.4 25.4 0 0 1-11.1 4Zm-7.6-8.8c.8 0 1 .8 1.8.8v.5c3.2 2.5 9 2.4 14 2.4 3-2.9 8.5-6.1 8.4-11.3 0-2-1.7-3.2-1.5-5.6-2.2-1-3.5-3.9-6-4.4-4.4-1-7.5.7-11.4 1.5-4.3 2.2-6.6 6.4-8 11.6a18.2 18.2 0 0 1 1 3.6 3.3 3.3 0 0 1 1.7.8M49.6 54.3c-.5 0-.1-1 0-1 .6 0 .8.3 1.1.6-.6-.2-1-.8-1 .4M55.9 52.3c-.4.2-.4.8-.5 1.2-.2-.2-.4-.3-.4 0-.3-.1-.2-.5-.5-.5v-.7c.4 0 .2.8.7.7.4 0 .1-1.6.7-.7M58.3 62.3c.5 1-.7 1.7-.4 2.7-.3 0-.2-.6-.3-.9-.2 0-.1.3-.2.5-.3-.1-.3-.7 0-.7.6 0 .2-.9.9-.7Z"/><path d="M63.4 65c2.3-.7 5.1-.4 5.3 2.7a50.2 50.2 0 0 0-5.7-1.1c-.1-.8.1-1 .2-1.6Z" fill="#7ac583"/><path class="cls-1" d="M57.4 63.9c.8-3.8 1.8-7.2 1.8-10.9 1.1-.7 3-.6 4.9-.9-.2.9.3 1.6 0 2h-.2c0-.3 0-.8-.3-.9v-.6a29.3 29.3 0 0 0-3 .4h-.3c-.1.7-.8 2-.2 2.7 0 .5-.4.5-.3 1a10.7 10.7 0 0 1 3.2.7c.5.4-.3.6.2.7 0 .5-.8.1-1.1.2h-3a15.6 15.6 0 0 0-.8 4v1c-.7-.3-.3.7-.9.6m1.8-5.8c1-.1 2.6.3 3.3-.2-.6 0-2.7-.7-3.3.2M54.5 53c.3 0 .2.4.5.4 0-.2.2 0 .4 0 .1-.3.1-.9.5-1a1.4 1.4 0 0 1-.3 1c.1.4.4-.2.5.3s-.2.2-.5.2c.8 4-.3 6.7-.9 10-1.5-2.3-2.2-5.4-3.7-7.8a9.5 9.5 0 0 0 .2 7.1v1c-.3-.1-.2-.5-.2-.8-.6.3-.3 2 0 2.7-1 .4-.8-2.7-.7-3.1-1 0-.4-1.2-1-2.2.4-.5 0-1.9.1-2.7a15.6 15.6 0 0 0 .3-3.8c0-1.2.4-.6 1-.4.7 1 1.5 3 2.3 4.4.5 1.3 1.7 2.6 1.3 4 1.3-.4 0-2.4.7-3.3 0-2.2-.7-3.6-.5-6"/><path class="cls-1" d="M63.6 53.2c.4 0 .2.6.2 1a.6.6 0 0 0 .7.4c0 .7-.1 1.6.2 2-.2 0-.2 0-.2.2-.6.3.3 2.1-.9 1.3 0-.1 0-.3.2-.2.5-.3.3-4 0-2.9-.4-.2 0-1.2-.2-1.8M43.6 66.3l-.4-.2c.4-1.6 1-3.4 1.1-4.2.2 0 .4 0 .4.2-.7 1-.3 3.3-1 4.2M46.3 62.3c.5.2.4.7.9.3-.4.2.4 1.9-.2 2.4v-1.8c-.1-.4-1 0-.7-.9"/><path class="cls-1" d="M43.6 66.3c0 .4 0 .7-.2.7-1.2-2.7 1-6.7.5-9.6.6 0 .4.4.8 0-.2-1.5 1-2.2.5-3.3.6 0 .5.2 1.1.7 0 .3-.4-.2-.5.2-.7 1.7-.2 3.6-1.5 4.9-.1.4.6 1 0 1.1.2.7 1.3.5 1.6 1.1.8.2-1.3.5-1.2 0 0-.2-.2-.2-.4-.2 0 .8-.7 2.6-1.1 4.2.2 0 .4 0 .4.2M35.4 61c.1 1 1 1.2 1.8 1.6-1.1 0-2.1-1-1.8-1.6"/><path class="cls-1" d="M40.7 58.1a1 1 0 0 0 .3-.7c1.2.1.4 2.1 1.5 2.3-.4 1.6-1.3 2.8-3.7 2.4-1.2 1.3-.5 4.5-1.4 6-1.2-1.4-.6-3.7 0-5.3 0-.2 0-.2-.2-.2-.8-.4-1.7-.6-1.8-1.6.6.2 1.4.1 1.8.5a6.2 6.2 0 0 0 1.3-3c-.5-.6-1.5 0-2.2 0 .1-.5 0-.7-.7-.6a4 4 0 0 1 3-.4c.4-.3.1-1.5 1-1.4s.2 1.7 1.1 1.6c0 .2-.2.2-.4.2H40c-.3 1.4-.9 2.3-1.1 3.6a3.1 3.1 0 0 0 2.4 0c.4-.9.5-3.1-.5-3.4"/><path class="cls-3" d="M63.6 58.1v.5h-1.5v-.3c.3 0 1.1.3 1-.2-.4-.1.3-.3-.1-.7h.6c.2-.6-.2-1.9.2-2.2V58c-.1 0-.2 0-.2.2"/><path class="cls-1" d="M63.9 62.6c-.6-.9 0-2.4.2-3.1.7.2-.6 1.2.4 1.3 0 .3-.2 0-.4 0l-.2 1.8M31 17h.2c0 .8-.8.6-1.3.4H27c-.1 1.3.7 1.5.7 2.7v2.2c-.3-.3-1.3 0-1.6-.4-.5 0-.2-1-.7-1.1-.6 1-.6 2.9-2.4 2.9-1-.6-.6-2-.5-3.1-.6-.2-2.5 2-3.7.6.3-2.3 2.5-2.7 3.7-4-.9-.3-2.4-.1-2.6-1 .5-.9 2.2-.4 3.1-.8-.4-1.7-1.9-3.4-1.6-5 1.6.7 2.1 2.4 3.1 3.7 1.2-1.8 1.4-4.5 3.4-5.3 0 2-.7 3.3-.9 5 2.3-.7 3.1-3 5.5-3.7-.6 3-2.7 4.5-4.4 6.4a11.9 11.9 0 0 0 2.9.5"/><path class="cls-6" d="M31 17c3.4-5.7 15.4-9.2 24.2-5.8 1.8.7 4.4 2.2 4.7 3.6a3 3 0 0 1-2.5 3.7c-1.1.1-2-1-3.3-1.5-12.5-5.2-25.2 4.8-28 14.2a12.8 12.8 0 0 0 3.8 13c1.2 1 3.3 1.3 3.8 3-3.4-1.4-6.8-.8-9.2-3-5.5-5.5-3-17.6 1.6-22.3.3.4 1.3 0 1.6.4v-2.2l2.2-2.7c.5.2 1.3.4 1.3-.4Z"/><path class="cls-1" d="M55.6 49.2c-.6.5.3 1.4-.2 1.8-.3-.1-.5-2 .2-1.8M60 55.7c-.5-.7.1-2 .3-2.7h.2c.4.7-.2 2-.4 2.7M62.5 57.9c-.6.5-2.3 0-3.3.2.6-1 2.7-.2 3.3-.2M59.6 58.3h2.5v.3c-.8-.2-2 .2-2.5-.3"/><path class="cls-6" d="M55 59c-.6.9.6 2.9-.7 3.3.4-1.4-.8-2.7-1.3-4 .7 0 1-.4 1.8-.2 0 .3-.1.8.2.9"/><path class="cls-1" d="M47.2 62.6a17.3 17.3 0 0 0-.7-7.4c1.7 2.4 1.7 6.5 1.1 10-.1 1-.3 2.6-1.3 3.2-.8-.7.8-2 .7-3.4.6-.5-.2-2.2.2-2.4M17.9 61.9c-.6 0-.5.4-1.2.2-.2 1 .5 1 .5 1.8.7 0 .7-.6 1.5-.4a13 13 0 0 1 6.5-.3 1.6 1.6 0 0 0 0 1.4c-2.1 1.2-6 1.5-9.1 1a13.5 13.5 0 0 1-2.3-7.7c3-2.2 6-4 9.8-4.7-.7 4.1-6.2 3.5-8.2 6.2a5.8 5.8 0 0 0 .4 1.4c1.2 0 1.7-.8 3-.7.2 1.1-.5 1.4-1 1.8M29 62.1a4.4 4.4 0 0 0-.2 1.6c1.3-.4 2-.2 2.9-.7 2-.2 1.9-4.1.6-5.1-2.1.4-5 .7-5.5-1.1-.3-1.2 2-2.3 1.5-3.4 1.2-.6 3-.3 4.7-.2.2 1-1.3 0-.9 1.1-1-.5-2.2.2-2.9-.4-2.7 2 .4 4.8 2.9 3.3 4.7 2.5-.5 9.3-4.2 6.5 0-1.1-.2-2.4.9-2.5a1.4 1.4 0 0 1 .2 1"/><path class="cls-6" d="M31.6 63c-.8.5-1.6.3-2.9.7A4.2 4.2 0 0 1 29 62c1.2 0 2.2.2 2.6.9"/><path class="cls-1" d="M51 66.1c-.3-.7-.6-2.4 0-2.6 0 .2 0 .6.2.6v-.9c.5.3.1 1.4.2 2-.5-.9-.4.1-.4 1"/><path class="cls-4" d="M27.6 20.1c0-1.2-.8-1.4-.6-2.7h2.8l-2.2 2.7"/><path class="cls-6" d="M45.9 55c.3.5.5-.3.6.2a17.3 17.3 0 0 1 .7 7.4c-.5.4-.4-.1-.9-.3 0-.2-.4-.5-.5-.2-.2-.6-1.3-.4-1.5-1.1.6-.2-.1-.7 0-1.1 1.3-1.3.8-3.2 1.6-4.9"/><path class="cls-1" d="M64.5 56.8c1.2.8-.2 2.6 0 4-1-.1.3-1-.4-1.3-.3.7-.8 2.2-.2 3 0 1.2-.6 1.4-.5 2.5h-.2c0 .5-.4.8-.2 1.6a46.8 46.8 0 0 1 5.7 1c-1.6 1.8-5 .8-6.6-.2a36.6 36.6 0 0 0 1.5-8.8V58c1.2.8.3-1 1-1.3"/><path class="cls-7" d="M79.3 37a2.2 2.2 0 0 0 1.6-.6 2.1 2.1 0 0 0 .6-1.6 2 2 0 0 0-.6-1.5 2.2 2.2 0 0 0-1.6-.6 2.2 2.2 0 0 0-1.6.6 2.1 2.1 0 0 0-.6 1.6 2 2 0 0 0 .6 1.5 2.2 2.2 0 0 0 1.6.6ZM101.5 53.5a.8.8 0 0 0-.4-.3 3 3 0 0 0-.8-.1h-.3v1.8h.3a2.3 2.3 0 0 0 .9-.1.8.8 0 0 0 .3-.3 1 1 0 0 0 .1-.5 1 1 0 0 0 0-.5ZM104.7 43.5a2.4 2.4 0 0 0-3.2 0 2.1 2.1 0 0 0-.6 1.6 2 2 0 0 0 .6 1.5 2.3 2.3 0 0 0 3.2 0 2.2 2.2 0 0 0 0-3ZM106 33.2l-.9 2.1h1.8l-.9-2.1zM89.3 45.5H91l-.9-2-.8 2zM80 53.4a2 2 0 0 0-.6-.2 4.3 4.3 0 0 0-.9 0h-1v4.1h1a3.8 3.8 0 0 0 1 0 2.4 2.4 0 0 0 .6-.2 2 2 0 0 0 .4-.4 2.1 2.1 0 0 0 .6-1.5 2 2 0 0 0-1.2-1.9ZM86.3 43h-.8v1.8h.8a1 1 0 0 0 .8-.2.9.9 0 0 0 .3-.7c0-.6-.4-.9-1.1-.9ZM112.9 45.5h1.7l-.9-2-.8 2zM121 53.7a2 2 0 0 0-1.6-.6 2.3 2.3 0 0 0-1.6.6 2.1 2.1 0 0 0-.6 1.6 2 2 0 0 0 .6 1.5 2.2 2.2 0 0 0 1.6.6 2.1 2.1 0 0 0 1.6-.6 2 2 0 0 0 .6-1.6 2 2 0 0 0-.6-1.5Z"/><path class="cls-1" d="M79.3 37.7a3 3 0 0 0 2.2-.8 2.7 2.7 0 0 0 .9-2 2.8 2.8 0 0 0-1-2.2 3.3 3.3 0 0 0-4.3 0 2.8 2.8 0 0 0-.8 2.1A2.8 2.8 0 0 0 77 37a3 3 0 0 0 2.2.8Zm-1.6-4.4a2.2 2.2 0 0 1 1.6-.6 2.2 2.2 0 0 1 1.6.6 2 2 0 0 1 .6 1.5 2.1 2.1 0 0 1-.6 1.5 2.4 2.4 0 0 1-3.2 0 2 2 0 0 1-.6-1.5 2.1 2.1 0 0 1 .6-1.5ZM89.8 42.2 87.4 48h.8l.7-1.7h2.4l.8 1.7h.8l-2.5-5.7Zm-.5 3.3.8-2 .9 2ZM97.3 55.6a3.3 3.3 0 0 1-.1 1 1.2 1.2 0 0 1-.4.5 1.8 1.8 0 0 1-1.2.4 2 2 0 0 1-.9-.2 1.3 1.3 0 0 1-.5-.5 2.5 2.5 0 0 1-.2-1.2v-3.2h-.8v3.2a4 4 0 0 0 0 1 1.8 1.8 0 0 0 .3.6 1.7 1.7 0 0 0 .4.4 3 3 0 0 0 3.5 0 1.6 1.6 0 0 0 .3-.4 4.5 4.5 0 0 0 .3-.6 4.2 4.2 0 0 0 0-1v-3.2h-.7ZM107.2 42.2v5.7h3.2v-.8H108v-4.9h-.8zM87.8 53.1h1.9v5h.8v-5h2v-.7h-4.7v.7zM102.8 57a7.5 7.5 0 0 0-.7-1 2.4 2.4 0 0 0-.5-.6 1.5 1.5 0 0 0 .7-.5 1.5 1.5 0 0 0 .2-.9 1.4 1.4 0 0 0-.5-1.1 2 2 0 0 0-1.4-.5h-1.4v5.7h.8v-2.5h.2a1.7 1.7 0 0 1 .6 0 2.2 2.2 0 0 1 .3.4 6.8 6.8 0 0 1 .5.6l.3.4.2.4.2.2v.1l.3.4h1l-.3-.4Zm-1.6-2.2a2.3 2.3 0 0 1-.9.1h-.3v-1.8h.2a3 3 0 0 1 .9 0 .8.8 0 0 1 .4.4 1 1 0 0 1 .1.5 1 1 0 0 1 0 .5.8.8 0 0 1-.4.3ZM88 44.7a1.7 1.7 0 0 0-.2-2 1.9 1.9 0 0 0-1.3-.5h-1.9V48h.9v-2.4h.6a3.3 3.3 0 0 0 1.2-.2 1.3 1.3 0 0 0 .7-.6Zm-.9-.2a1 1 0 0 1-.7.2h-.9V43h.8c.8 0 1.1.3 1.1.9a.9.9 0 0 1-.3.6ZM105.3 43a3 3 0 0 0-2.2-.8 3 3 0 0 0-2.2.8 2.9 2.9 0 0 0-.9 2.1 2.8 2.8 0 0 0 .9 2 3 3 0 0 0 2.1.9 3.1 3.1 0 0 0 2.2-.8 2.7 2.7 0 0 0 1-2.1 2.8 2.8 0 0 0-1-2.1Zm-.6 3.6a2.3 2.3 0 0 1-3.2 0 2 2 0 0 1-.6-1.5 2.1 2.1 0 0 1 .6-1.6 2.4 2.4 0 0 1 3.2 0 2.2 2.2 0 0 1 0 3.1ZM112.8 54.7l-1.9-2.3h-.8v5.7h.8v-4.4l1.8 2.2h.1l1.8-2.2v4.4h.8v-5.7h-.8l-1.8 2.3zM114 42.2h-.6L111 48h.8l.7-1.7h2.5l.8 1.7h.8Zm-1.1 3.3.8-2 1 2ZM121.6 53.1a3.3 3.3 0 0 0-4.4 0 2.8 2.8 0 0 0-.8 2.2 2.7 2.7 0 0 0 .8 2 3 3 0 0 0 2.2.8 3 3 0 0 0 2.2-.8 2.6 2.6 0 0 0 .9-2 2.8 2.8 0 0 0-.9-2.2Zm-.6 3.7a2.1 2.1 0 0 1-1.6.6 2.2 2.2 0 0 1-1.6-.6 2 2 0 0 1-.6-1.5 2.1 2.1 0 0 1 .6-1.6 2.3 2.3 0 0 1 1.7-.6 2 2 0 0 1 1.5.6 2 2 0 0 1 .6 1.5 2 2 0 0 1-.6 1.6ZM108.2 55l-.6-.4a2.3 2.3 0 0 1-.6-.4.8.8 0 0 1-.2-.5.5.5 0 0 1 .2-.5 1 1 0 0 1 .7-.2 1.9 1.9 0 0 1 1.3.6v-1a2.2 2.2 0 0 0-1.3-.3 1.8 1.8 0 0 0-1.2.4 1.4 1.4 0 0 0-.5 1.1 1.4 1.4 0 0 0 .3.8 3.2 3.2 0 0 0 .8.7l.6.4c.5.3.8.6.8 1a.6.6 0 0 1-.3.5.9.9 0 0 1-.6.2 2 2 0 0 1-1.5-.8v1a2.5 2.5 0 0 0 1.5.5 1.6 1.6 0 0 0 1.2-.4 1.5 1.5 0 0 0 .4-1.1 1.8 1.8 0 0 0-1-1.6ZM104.2 52.4h.8v5.7h-.8zM83.8 55.6h2.3v-.7h-2.3v-1.8h2.4v-.7h-3.3v5.7h3.4v-.7h-2.5v-1.8zM98.1 46.7l-3.8-4.5h-.7v5.7h.8v-4.3l3.8 4.3h.7v-5.7h-.8v4.5zM95.3 41a1.6 1.6 0 0 0-.2.7h.3a.5.5 0 0 1 .1-.3.2.2 0 0 1 .2 0 1.6 1.6 0 0 1 .6.1 1.5 1.5 0 0 0 .6.2.5.5 0 0 0 .4-.2 1.2 1.2 0 0 0 .2-.8h-.3a.4.4 0 0 1-.1.3.2.2 0 0 1-.2 0 1.3 1.3 0 0 1-.4 0 2.2 2.2 0 0 0-.7-.3.6.6 0 0 0-.5.2ZM83.8 46.5a1.8 1.8 0 0 0-1-1.6l-.6-.4a2.3 2.3 0 0 1-.7-.5.8.8 0 0 1-.2-.5.5.5 0 0 1 .3-.4 1 1 0 0 1 .6-.2 1.9 1.9 0 0 1 1.3.6v-1a2.3 2.3 0 0 0-1.3-.4 1.8 1.8 0 0 0-1.2.5 1.4 1.4 0 0 0-.4 1 1.3 1.3 0 0 0 .2.8 2.8 2.8 0 0 0 .8.7l.7.4c.5.3.7.6.7 1a.7.7 0 0 1-.2.5.9.9 0 0 1-.7.3 2 2 0 0 1-1.5-.9v1a2.6 2.6 0 0 0 1.5.5 1.6 1.6 0 0 0 1.2-.4 1.4 1.4 0 0 0 .5-1ZM95.3 32h.8v5.7h-.8zM98.2 33.3l3.8 4.4h.7V32h-.8v4.4L98.1 32h-.7v5.7h.8v-4.4zM104.8 36h2.4l.8 1.7h.8l-2.5-5.7h-.6l-2.5 5.7h.9Zm1.2-2.8.9 2H105ZM80 47.2h-2.5v-1.8h2.3v-.7h-2.3V43h2.4v-.8h-3.2v5.7H80v-.7zM80.5 52.8a4 4 0 0 0-1.9-.4h-1.9V58h1.8a7 7 0 0 0 1 0 4.6 4.6 0 0 0 .6-.2 2.5 2.5 0 0 0 1-.6 2.8 2.8 0 0 0 .6-1 2.7 2.7 0 0 0 .2-1 2.9 2.9 0 0 0-.4-1.5 2.6 2.6 0 0 0-1-1Zm0 4a2 2 0 0 1-.5.3 2.4 2.4 0 0 1-.5.2 3.8 3.8 0 0 1-1 0h-1v-4.2h1a4.3 4.3 0 0 1 .9 0 2 2 0 0 1 .5.3 2 2 0 0 1 1.2 1.8 2.1 2.1 0 0 1-.6 1.5ZM87.4 32h.8v5.7h-.8zM84.3 36.9v-1.7h2.3v-.8h-2.3v-1.7h2.4V32h-3.2v5.7h.8v-.8zM92.5 37.7a3.2 3.2 0 0 0 1.7-.4v-1.1.1a2.3 2.3 0 0 1-3.3 0 2 2 0 0 1-.6-1.5 2 2 0 0 1 .7-1.5 2.3 2.3 0 0 1 3.2 0 1.5 1.5 0 0 1 0 .1v-1a3.2 3.2 0 0 0-1.6-.5 3 3 0 0 0-2.2.8 2.8 2.8 0 0 0-.9 2.1 2.8 2.8 0 0 0 .9 2.1 3 3 0 0 0 2 .8Z"/></svg>