<svg id="Layer_1" data-name="Layer 1" xmlns="http://www.w3.org/2000/svg" viewBox="0 0 136.3 77.6"><defs><style>.cls-2{fill-rule:evenodd;fill:#fff}</style></defs><path fill-rule="evenodd" fill="#e9148b" d="M130.8 51.9H5.6l7.8-12.7-7.8-13.5h125.2v26.2z"/><path class="cls-2" d="M20.6 32.9H31v1.6h-7.4v3.4h7v1.5h-7v3.9h7.6v1.5H20.6V32.9zM39.2 43.3a4 4 0 0 1-3.7 1.7c-1.8 0-3.3-.8-3.3-2.7v-5.7H35v4.7c0 1.7.3 2 1.3 2a3 3 0 0 0 2.9-3v-3.7H42v8.2h-2.8v-1.5ZM43.9 32.9h2.9v6.9l4-3.2h3.4l-4.5 3.6 4.9 4.6h-3.4l-4.4-4.1v4.1h-2.9V32.9z"/><path class="cls-2" d="M61.3 43.9c-.5.5-1.3 1.1-3.3 1.1s-3.6-.8-3.6-2.1c0-2.8 5.2-2.8 6.9-2.8v-.8c0-.8-.4-1.5-1.8-1.5-1.6 0-1.9.7-1.9 1.2H55c0-1.5 1.5-2.6 4.6-2.6s4.5 1 4.5 2.6v5.8h-2.7v-1Zm-2.6-.2a2.4 2.4 0 0 0 2.6-2.5c-1.9 0-4.1.4-4.1 1.5 0 .6.5 1 1.5 1ZM65.8 36.6h2.9v1.5a4 4 0 0 1 3.7-1.7c1.8 0 3.3.9 3.3 2.7v5.7h-2.9v-4.7c0-1.6-.2-1.9-1.2-1.9a3 3 0 0 0-3 3v3.6h-2.8v-8.2ZM84.6 43.3a4 4 0 0 1-3.7 1.7c-1.8 0-3.3-.8-3.3-2.7v-5.7h2.9v4.7c0 1.7.2 2 1.2 2a3 3 0 0 0 3-3v-3.7h2.8v8.2h-2.9v-1.5ZM92 37.6a4.1 4.1 0 0 1 3.2-1.2c3 0 4.2 1.7 4.2 4.3 0 2.3-1.1 4.3-5.1 4.3-3.3 0-5.2-1.2-5.2-3.7V33H92v4.7Zm2.3 6c1.8 0 2.1-1.5 2.1-2.9s-.2-3-2.1-3c-1.7 0-2.3 1.6-2.3 3 0 2 .5 3 2.3 3ZM107 43.9c-.5.5-1.3 1.1-3.3 1.1s-3.6-.8-3.6-2.1c0-2.8 5.2-2.8 6.9-2.8v-.8c0-.8-.3-1.5-1.8-1.5s-1.8.7-1.8 1.2h-2.8c0-1.5 1.5-2.6 4.6-2.6s4.5 1 4.5 2.6v5.8H107v-1Zm-2.6-.2a2.4 2.4 0 0 0 2.5-2.5c-1.8 0-4 .4-4 1.5 0 .6.5 1 1.5 1Z"/></svg>