<svg id="Layer_1" data-name="Layer 1" xmlns="http://www.w3.org/2000/svg" xmlns:xlink="http://www.w3.org/1999/xlink" viewBox="0 0 136.3 77.6"><defs><linearGradient id="linear-gradient" x1="47" y1="40.1" x2="45.5" y2="40.1" gradientUnits="userSpaceOnUse"><stop offset="0" stop-color="#e9e8e8"/><stop offset=".3" stop-color="#c0bfbf"/><stop offset=".6" stop-color="#9b9999"/><stop offset=".8" stop-color="#838282"/><stop offset="1" stop-color="#7b7979"/></linearGradient><linearGradient id="linear-gradient-2" x1="68.2" y1="8.9" x2="68.2" y2="68.7" gradientUnits="userSpaceOnUse"><stop offset="0" stop-color="#656363"/><stop offset=".5" stop-color="#a7a6a6"/><stop offset="1" stop-color="#656363"/></linearGradient><linearGradient id="linear-gradient-3" x1="86.2" y1="18.8" x2="73.8" y2="8.7" gradientUnits="userSpaceOnUse"><stop offset="0" stop-color="#dedede"/><stop offset=".2" stop-color="#d1d1d1"/><stop offset="1" stop-color="#918f8f"/></linearGradient><linearGradient id="linear-gradient-4" x1="49" y1="16.1" x2="70.9" y2="16.1" gradientUnits="userSpaceOnUse"><stop offset="0" stop-color="#dedede"/><stop offset=".2" stop-color="#9a9999"/><stop offset=".4" stop-color="#5a5758"/><stop offset="1" stop-color="#dedede"/></linearGradient><linearGradient id="linear-gradient-5" x1="91.7" y1="50" x2="91.7" y2="40.5" gradientUnits="userSpaceOnUse"><stop offset="0" stop-color="#a7a6a6"/><stop offset=".2" stop-color="#9a9999"/><stop offset=".7" stop-color="#838282"/><stop offset="1" stop-color="#7b7979"/></linearGradient><linearGradient id="linear-gradient-6" x1="91.5" y1="60.1" x2="91.5" y2="26.6" gradientUnits="userSpaceOnUse"><stop offset="0" stop-color="#a7a6a6"/><stop offset=".1" stop-color="#9a9999"/><stop offset=".3" stop-color="#838282"/><stop offset=".4" stop-color="#7b7979"/><stop offset=".7" stop-color="#797777"/><stop offset=".8" stop-color="#727070"/><stop offset=".9" stop-color="#666464"/><stop offset="1" stop-color="#565354"/><stop offset="1" stop-color="#4f4c4d"/></linearGradient><linearGradient id="linear-gradient-7" x1="44.5" y1="52.8" x2="44.2" y2="53" xlink:href="#linear-gradient-6"/><linearGradient id="linear-gradient-8" x1="43.3" y1="24.2" x2="47.8" y2="56" xlink:href="#linear-gradient-6"/><linearGradient id="linear-gradient-9" x1="84.6" y1="61.3" x2="85.2" y2="62.1" gradientUnits="userSpaceOnUse"><stop offset="0" stop-color="#231f20"/><stop offset=".1" stop-color="#373334"/><stop offset=".2" stop-color="#5c595a"/><stop offset=".4" stop-color="#737071"/><stop offset=".4" stop-color="#7b7979"/><stop offset=".7" stop-color="#797777"/><stop offset=".8" stop-color="#727070"/><stop offset=".9" stop-color="#666464"/><stop offset="1" stop-color="#565354"/><stop offset="1" stop-color="#4f4c4d"/></linearGradient><linearGradient id="linear-gradient-10" x1="68.6" y1="63.4" x2="70.8" y2="44.4" xlink:href="#linear-gradient-6"/><linearGradient id="linear-gradient-11" x1="91" y1="48.6" x2="95.1" y2="50.5" gradientUnits="userSpaceOnUse"><stop offset="0" stop-color="#393637"/><stop offset=".1" stop-color="#5b5959"/><stop offset=".3" stop-color="#727070"/><stop offset=".3" stop-color="#7b7979"/><stop offset=".4" stop-color="#747272"/><stop offset=".8" stop-color="#595657"/><stop offset="1" stop-color="#4f4c4d"/></linearGradient><linearGradient id="linear-gradient-12" x1="95" y1="31.2" x2="93" y2="31.5" gradientUnits="userSpaceOnUse"><stop offset="0" stop-color="#393637"/><stop offset=".1" stop-color="#423f40"/><stop offset=".3" stop-color="#5a5859"/><stop offset=".5" stop-color="#828080"/><stop offset=".8" stop-color="#b8b7b7"/><stop offset="1" stop-color="#e9e8e8"/></linearGradient><linearGradient id="linear-gradient-13" x1="58" y1="16.7" x2="53" y2="18.2" gradientUnits="userSpaceOnUse"><stop offset="0" stop-color="#918f8f"/><stop offset="1" stop-color="#918f8f"/></linearGradient><linearGradient id="linear-gradient-14" x1="47.4" y1="22.6" x2="90.3" y2="22.6" gradientUnits="userSpaceOnUse"><stop offset="0" stop-color="#fff"/><stop offset=".1" stop-color="#e6e5e6"/><stop offset=".2" stop-color="#bebdbd"/><stop offset=".3" stop-color="#9c9a9b"/><stop offset=".4" stop-color="#807e7e"/><stop offset=".5" stop-color="#6a6868"/><stop offset=".6" stop-color="#5b5859"/><stop offset=".8" stop-color="#524f50"/><stop offset="1" stop-color="#4f4c4d"/></linearGradient><linearGradient id="linear-gradient-15" x1="89.6" y1="53.1" x2="89.9" y2="53.3" gradientUnits="userSpaceOnUse"><stop offset="0" stop-color="#bdbbbc"/><stop offset=".2" stop-color="#c6c4c5"/><stop offset=".4" stop-color="#dedddd"/><stop offset=".5" stop-color="#e9e8e8"/><stop offset="1" stop-color="#918f8f"/></linearGradient><linearGradient id="linear-gradient-16" x1="93" y1="39.2" x2="86.5" y2="54.6" gradientUnits="userSpaceOnUse"><stop offset="0" stop-color="#2e2b2c"/><stop offset=".5" stop-color="#918f8f"/><stop offset="1" stop-color="#393637"/></linearGradient><linearGradient id="linear-gradient-17" x1="90.5" y1="32" x2="90.7" y2="46.6" gradientUnits="userSpaceOnUse"><stop offset="0" stop-color="#393637"/><stop offset=".1" stop-color="#423f40"/><stop offset=".3" stop-color="#5a5858"/><stop offset=".5" stop-color="#827f80"/><stop offset=".5" stop-color="#918f8f"/><stop offset="1" stop-color="#393637"/></linearGradient><linearGradient id="linear-gradient-18" x1="91.8" y1="39.8" x2="89.5" y2="49.9" xlink:href="#linear-gradient-15"/><linearGradient id="linear-gradient-19" x1="84.8" y1="57.4" x2="93" y2="43.7" gradientUnits="userSpaceOnUse"><stop offset="0" stop-color="#3e3b3b"/><stop offset=".1" stop-color="#535050"/><stop offset=".3" stop-color="#939191"/><stop offset=".4" stop-color="#c1c0c0"/><stop offset=".5" stop-color="#dedddd"/><stop offset=".6" stop-color="#e9e8e8"/><stop offset=".7" stop-color="#dddcdc"/><stop offset=".8" stop-color="#bebcbd"/><stop offset=".9" stop-color="#8b8989"/><stop offset="1" stop-color="#4f4c4d"/></linearGradient><linearGradient id="linear-gradient-20" x1="91.8" y1="36.5" x2="87.1" y2="51.5" gradientUnits="userSpaceOnUse"><stop offset="0" stop-color="#3e3b3b"/><stop offset="0" stop-color="#626060"/><stop offset=".1" stop-color="#8b8989"/><stop offset=".1" stop-color="#adabab"/><stop offset=".2" stop-color="#c7c6c6"/><stop offset=".2" stop-color="#dad9d9"/><stop offset=".3" stop-color="#e5e4e4"/><stop offset=".3" stop-color="#e9e8e8"/><stop offset=".8" stop-color="#e9e8e8"/><stop offset=".9" stop-color="#d9d8d8"/><stop offset="1" stop-color="#d3d2d2"/></linearGradient><linearGradient id="linear-gradient-21" x1="44.2" y1="55.9" x2="59.8" y2="56.7" gradientUnits="userSpaceOnUse"><stop offset="0" stop-color="#3e3b3b"/><stop offset=".1" stop-color="#535050"/><stop offset=".4" stop-color="#939191"/><stop offset=".7" stop-color="#c1c0c0"/><stop offset=".9" stop-color="#dedddd"/><stop offset="1" stop-color="#e9e8e8"/></linearGradient><linearGradient id="linear-gradient-22" x1="45.6" y1="23.7" x2="93" y2="23.7" gradientUnits="userSpaceOnUse"><stop offset="0" stop-color="#2e2b2c"/><stop offset="0" stop-color="#2e2b2c"/><stop offset="1" stop-color="#393637"/></linearGradient><linearGradient id="linear-gradient-23" x1="65.5" y1="11.7" x2="55.5" y2="16.1" xlink:href="#linear-gradient-3"/><linearGradient id="linear-gradient-24" x1="73.1" y1="59.3" x2="49.4" y2="59.3" gradientUnits="userSpaceOnUse"><stop offset="0" stop-color="#4b4848"/><stop offset="0" stop-color="#444141"/><stop offset=".1" stop-color="#3e3b3b"/><stop offset=".2" stop-color="#5e5c5c"/><stop offset=".4" stop-color="#908e8e"/><stop offset=".6" stop-color="#b6b5b5"/><stop offset=".7" stop-color="#d2d1d1"/><stop offset=".9" stop-color="#e3e2e2"/><stop offset="1" stop-color="#e9e8e8"/></linearGradient><linearGradient id="linear-gradient-25" x1="82.6" y1="59.8" x2="85.7" y2="59.8" gradientUnits="userSpaceOnUse"><stop offset="0" stop-color="#3e3b3b"/><stop offset="0" stop-color="#454242"/><stop offset=".1" stop-color="#6b6969"/><stop offset=".1" stop-color="#8d8b8b"/><stop offset=".2" stop-color="#aaa8a8"/><stop offset=".3" stop-color="#c1c0c0"/><stop offset=".4" stop-color="#d3d2d2"/><stop offset=".5" stop-color="#e0dfdf"/><stop offset=".7" stop-color="#e7e6e6"/><stop offset="1" stop-color="#e9e8e8"/></linearGradient><linearGradient id="linear-gradient-26" x1="48.7" y1="20.9" x2="44.2" y2="34.5" gradientUnits="userSpaceOnUse"><stop offset="0" stop-color="#393637"/><stop offset=".1" stop-color="#3f3c3d"/><stop offset=".3" stop-color="#514e4f"/><stop offset=".6" stop-color="#6e6b6c"/><stop offset=".8" stop-color="#969495"/><stop offset="1" stop-color="#bdbbbc"/></linearGradient><linearGradient id="linear-gradient-27" x1="49.1" y1="47.7" x2="46.8" y2="59.3" gradientUnits="userSpaceOnUse"><stop offset="0" stop-color="#5c595a"/><stop offset=".1" stop-color="#5a5758"/><stop offset=".1" stop-color="#535051"/><stop offset=".1" stop-color="#484546"/><stop offset=".1" stop-color="#393637"/><stop offset=".3" stop-color="#3c393a"/><stop offset=".5" stop-color="#464344"/><stop offset=".6" stop-color="#575455"/><stop offset=".7" stop-color="#6f6c6d"/><stop offset=".8" stop-color="#8e8b8c"/><stop offset=".9" stop-color="#b3b1b2"/><stop offset="1" stop-color="#bdbbbc"/></linearGradient><linearGradient id="linear-gradient-28" x1="53.3" y1="60.3" x2="54" y2="59.6" xlink:href="#linear-gradient-27"/><linearGradient id="linear-gradient-29" x1="64.4" y1="39.6" x2="72.3" y2="40.4" xlink:href="#linear-gradient"/><linearGradient id="linear-gradient-30" x1="47.2" y1="37.8" x2="88" y2="37.8" gradientUnits="userSpaceOnUse"><stop offset="0" stop-color="#918f8f"/><stop offset=".3" stop-color="#676565"/><stop offset=".6" stop-color="#423f40"/><stop offset=".8" stop-color="#2b2828"/><stop offset="1" stop-color="#231f20"/></linearGradient><linearGradient id="linear-gradient-31" x1="-97.9" y1="-943.7" x2="-93.1" y2="-943.7" gradientTransform="matrix(1.39 0 0 -1.02 190.2 -921.1)" gradientUnits="userSpaceOnUse"><stop offset=".3" stop-color="#d2d0d1"/><stop offset=".6" stop-color="#c8c6c7"/><stop offset="1" stop-color="#8c8a8b"/></linearGradient><linearGradient id="linear-gradient-32" x1="-92.3" y1="-943.7" x2="-89.8" y2="-943.7" xlink:href="#linear-gradient-31"/><linearGradient id="linear-gradient-33" x1="-82.2" y1="-943.7" x2="-76.3" y2="-943.7" xlink:href="#linear-gradient-31"/><linearGradient id="linear-gradient-34" x1="-88.7" y1="-943.7" x2="-81.9" y2="-943.7" xlink:href="#linear-gradient-31"/><radialGradient id="radial-gradient" cx="67.8" cy="39.8" r="20.7" gradientUnits="userSpaceOnUse"><stop offset="0" stop-color="#e2154b"/><stop offset="1" stop-color="#7b0a28"/></radialGradient><style>.cls-4{fill:#6c0318}.cls-8{fill:#e9e8e8}.cls-10{fill:#bdbbbc}.cls-23{fill:#2e2b2c}.cls-32{fill:#a7a6a6}.cls-35{fill:#231f20}.cls-40{fill:#1a1a1a}</style></defs><path d="M46 40.5c.2 3 1.5 5 2.6 7.3a59.8 59.8 0 0 1-1.5-15.3c-.2-.3-.5-.1-.8.2a47.4 47.4 0 0 0-.3 7.8Z" fill="url(#linear-gradient)"/><path d="M58.7 60.5a38.3 38.3 0 0 0 9 1c4 0 11.2-.8 13.9-3.2 2-2 3-5.1 4-9.2 2.4-9.6 1.8-15.5 1.3-22.4S74.5 18 67.8 18c-6 0-18.9 1.8-19.4 9-.5 6.9-.6 13.7 1.6 22.2 1.7 6.4 2.4 9.8 8.6 11.3Z" fill="url(#radial-gradient)"/><path d="M68.2 9a29.8 29.8 0 1 0 29.7 29.8A29.8 29.8 0 0 0 68.2 9Zm.3 58c-16.7 0-28.9-11.5-28.9-27.6 0-19 12.4-29.1 28.9-29.1 18 0 28.2 13 28.2 29.1S83.7 67 68.5 67Z" fill="url(#linear-gradient-2)"/><path class="cls-4" d="M62 61.3a.1.1 0 0 1-.2-.1 370 370 0 0 1-2.2-42.3.1.1 0 0 1 0-.1l.2.1c-.5 9 1 32.9 2.2 42.2a.1.1 0 0 1 0 .1ZM65.5 61.6a.1.1 0 0 1 0-.1c-.3-5.5-1.2-33.4-1.3-43.3a.1.1 0 1 1 .2 0c.1 10 1 37.8 1.2 43.3ZM64.6 61.5a.1.1 0 0 1-.1 0l-1.6-43.2a.1.1 0 0 1 .1 0h.1l1.6 43.1a.1.1 0 0 1-.1.1ZM67.4 61.6l-1-43.5V18a.1.1 0 0 1 .1 0c.4 10.6 1 43.2 1 43.5a.1.1 0 0 1 0 .1ZM66.6 61.6h-.1c-.2-5.5-1.1-33.2-1-43.5a.1.1 0 0 1 .1 0c0 10.3.9 38 1 43.4v.1ZM60.9 61a342.4 342.4 0 0 1-2.4-41.8.1.1 0 0 1 0-.1h.1A349 349 0 0 0 61 61ZM63.7 61.5v-.1c-1-9.9-1.8-37.5-2-42.9a.1.1 0 0 1 .1 0h.1c.2 5.4 1 33 2 42.8l-.2.2ZM62.8 61.4a.1.1 0 0 1-.1-.1c-1-9.9-2-37.2-2-42.6v-.1h.1c.2 5.5 1 32.8 2 42.6v.2ZM60 61a.1.1 0 0 1 0-.2c-1-8.9-3-25.4-2.7-41.4h.1a.1.1 0 0 1 .1 0c-.4 16 1.5 32.5 2.6 41.4l-.1.1ZM55.3 59.3a.1.1 0 0 1-.1 0 136.3 136.3 0 0 1-3.4-37.5.1.1 0 0 1 .2-.1 136 136 0 0 0 3.4 37.5.1.1 0 0 1 0 .1ZM52.9 57h-.1c-1.2-1.8-1.9-4.3-2.7-7.4l-.1-.5c-2.1-8-2.2-14.7-1.6-22.2a.1.1 0 0 1 .1 0 .1.1 0 0 1 .1 0c-.6 7.5-.5 14.2 1.6 22.2l.1.5a27.9 27.9 0 0 0 2.4 6.8 115 115 0 0 1-3-32.6h.1C49.5 27.5 49 38 53 57v.1Z"/><path class="cls-4" d="M54.1 58.5a.1.1 0 0 1 0-.1c-4.2-18.3-3.7-32-3.5-35.7a.1.1 0 0 1 .1 0 .1.1 0 0 1 .1 0c-.2 3.8-.7 17.4 3.4 35.6a.1.1 0 0 1 0 .2ZM59 60.7c-2.1-12-3.2-32-2.7-41h.1a.1.1 0 0 1 .1 0c-.5 9 .6 29 2.7 41H59Z"/><path class="cls-4" d="M58.1 60.5a.1.1 0 0 1 0-.1 214.2 214.2 0 0 1-2.9-40.3h.1a.1.1 0 0 1 .1 0c-.5 7.1.4 28.5 2.8 40.3Z"/><path class="cls-4" d="M57.2 60.2A195 195 0 0 1 54 20.5h.2a195 195 0 0 0 3.1 39.5v.1Z"/><path class="cls-4" d="M56.3 59.8a169.4 169.4 0 0 1-3.4-38.6.1.1 0 1 1 .2 0c-.1 3.4-.5 21.3 3.3 38.5v.1ZM69.5 61.6a.1.1 0 0 1-.1 0c0-9.2-.4-35.2-.5-43.5a.1.1 0 0 1 .1-.1.1.1 0 0 1 .1 0c.1 8.5.5 34.5.5 43.5l-.1.1ZM68.4 61.6a.1.1 0 0 1-.1 0c0-7.6-.6-37.6-.7-43.6a.1.1 0 0 1 .1 0 .1.1 0 0 1 .2 0 .1.1 0 0 1 0 .1c0 6.2.6 36 .6 43.4a.1.1 0 0 1-.1.1ZM79.5 59.7v-.2a152.7 152.7 0 0 0 2-39 .1.1 0 0 1 .1 0 153.3 153.3 0 0 1-2 39 .1.1 0 0 1 0 .2Z"/><path class="cls-4" d="M78.6 60a.1.1 0 0 1-.1-.1c2.3-11.7 2.5-32.5 2-39.8a.1.1 0 0 1 .1 0c.6 7.3.4 28-1.9 39.8a.1.1 0 0 1-.1.1ZM80.3 59.3a.1.1 0 0 1-.1-.1 126 126 0 0 0 2.5-38V21a.1.1 0 0 1 .2 0c.4 4.8 1.5 21.4-2.5 38.2a.1.1 0 0 1-.1 0ZM82.6 57.2a.1.1 0 0 1 0-.1c3.8-17 2.9-29.6 2.3-34.3a.1.1 0 0 1 .1 0 .1.1 0 0 1 .1 0c.6 4.7 1.5 17.4-2.3 34.3l-.2.1Z"/><path class="cls-4" d="M81.5 58.5a.1.1 0 0 1-.1-.1 114.1 114.1 0 0 0 2.4-36.5.1.1 0 0 1 .2 0 114.4 114.4 0 0 1-2.4 36.5.1.1 0 0 1-.1.1ZM77.7 60.3a.1.1 0 0 1-.1 0c2-11.3 2.2-30.9 1.6-40.6a.1.1 0 0 1 .1-.1.1.1 0 0 1 .1 0c.6 9.8.5 29.5-1.7 40.6a.1.1 0 0 1 0 .1Z"/><path class="cls-4" d="M76.8 60.6a.1.1 0 0 1 0-.1 256.4 256.4 0 0 0 1.4-41.1v-.1h.2a254.7 254.7 0 0 1-1.5 41.2Z"/><path class="cls-4" d="M75.8 60.8a.1.1 0 0 1-.1-.1c2.3-21.6 1.6-33.2 1.2-41.6a.1.1 0 0 1 .1-.1h.1c.5 8.6 1 20.1-1.2 41.8a.1.1 0 0 1-.1 0ZM70.3 61.6a.1.1 0 0 1-.1-.1c.7-11.2 0-38.1-.2-43.4a.1.1 0 0 1 .1 0 .1.1 0 0 1 .1 0c.2 5.3.9 32.2.2 43.4a.1.1 0 0 1-.2 0ZM71.2 61.5l-.1-.1c.3-7.6.6-21.2.1-43v-.2l.1-.1h.1v.3c.5 21.8.2 35.4-.2 43ZM84.2 54v-.2c3.1-16 2.5-25.3 1.9-29.4a.1.1 0 0 1 .2 0 5.8 5.8 0 0 1 .7 2.3v1.1c.5 6.6 1 12.2-1.4 21.3-.4 1.9-.8 3.4-1.3 4.8Zm2.1-29c.6 4.3 1 13-1.7 27.2l.9-3.2c2.3-9 1.8-14.7 1.3-21.2v-1.1a5.6 5.6 0 0 0-.5-1.7Z"/><path class="cls-4" d="M74.9 61v-.1a275 275 0 0 0 1-42 .1.1 0 0 1 0-.1h.1a275.9 275.9 0 0 1-1 42 .1.1 0 0 1-.1.2ZM72.1 61.4a.1.1 0 0 1 0-.1 397.4 397.4 0 0 0 .1-42v-1h.2v1a400.4 400.4 0 0 1-.2 42 .1.1 0 0 1-.1 0Z"/><path class="cls-4" d="M74 61.1a319.2 319.2 0 0 0 .7-42.5.1.1 0 0 1 .1 0 .1.1 0 0 1 .1 0 321.4 321.4 0 0 1-.8 42.4.1.1 0 0 1-.1.1ZM73 61.3v-.1c.2-4.7 1.3-28.7.5-42.8h.2c.8 14.1-.3 38.1-.5 42.8H73Z"/><path d="M90.3 20.6v-.8a26.2 26.2 0 0 0-18-9.3c4.4.9 12.8 3.4 18 10.1Z" fill="url(#linear-gradient-3)"/><path d="M72.3 10.5a36.4 36.4 0 0 0-3.8-.2c-8.5 0-16 2.7-21.1 8l-1.7 3.1c1-1.8 6.5-9.2 22.5-8.9 17.6.3 22.1 9.5 22.1 9.5v-1.3a30.7 30.7 0 0 0-18-10.2Z" fill="url(#linear-gradient-4)"/><path d="M96.7 39.4c0-7.5-2.2-14.4-6.5-19.6A34.8 34.8 0 0 1 96 37.2a31.4 31.4 0 0 1-1.5 10.2 32 32 0 0 1-7.8 13.3 27 27 0 0 0 10-21.3Z" fill="url(#linear-gradient-5)"/><path class="cls-8" d="M96 37.2a34.8 34.8 0 0 0-5.8-17.4 45.6 45.6 0 0 1 5.6 21.9 26.6 26.6 0 0 0 .2-4.5Z"/><path class="cls-8" d="M92.5 24.5a38.4 38.4 0 0 0-2.3-4.7l.1 2.2 2.7 6.8v-1.1c0-.5-.4-1.7-.5-3.2Z"/><path d="M92.5 24.5c.1 1.5.5 2.7.5 3.2a12.2 12.2 0 0 1 1.5 4.8c0 2.2.6 3.8.6 6.7s.5 8.7-6 18.3L87 60a32.2 32.2 0 0 0 7.4-12.7 35.2 35.2 0 0 0 1.3-5.7 44.3 44.3 0 0 0-3.3-17.2Z" fill="url(#linear-gradient-6)"/><path class="cls-8" d="M86.6 60.7c-3 2-10.4 6-18.5 6-8.7 0-20.6-3.5-25-16a34 34 0 0 1-2.4-13.3 32 32 0 0 1 6.7-19.2 27.5 27.5 0 0 0-5.4 9.5 31.6 31.6 0 0 0 5.9 31.6A29.4 29.4 0 0 0 68.5 67a28.9 28.9 0 0 0 18.1-6.3Z"/><path class="cls-10" d="M42 27.7a27.5 27.5 0 0 1 5.4-9.4c-4.9 4.9-7.7 12-7.7 21.1a26.9 26.9 0 0 0 8.2 19.9A31.5 31.5 0 0 1 42 27.7Z"/><path d="m42.2 48.3.8 2.3a23.8 23.8 0 0 0 3.5 6.4l.5.2a75.4 75.4 0 0 1-4.8-8.9Z" fill="url(#linear-gradient-7)"/><path d="M48.5 58.6c-3.5-5.3-7-10.7-7-20.4a36.8 36.8 0 0 1 4.2-16.8l1.7-3.2a32 32 0 0 0-6.7 19.2 33.5 33.5 0 0 0 1.5 10.9 75.4 75.4 0 0 0 4.8 9l-.5-.3 1.2 1.5Z" fill="url(#linear-gradient-8)"/><path d="m86.6 60.7.6-.5.5-.8a38.4 38.4 0 0 1-6 4 43.7 43.7 0 0 0 4.9-2.7Z" fill="url(#linear-gradient-9)"/><path d="M84.3 61.4a32 32 0 0 1-17 4c-8.8 0-14.6-3-16.3-4.6a4.3 4.3 0 0 0-2-1c5.6 5.2 13 6.9 19 6.9a33.3 33.3 0 0 0 13.7-3.3 38.4 38.4 0 0 0 6-4l1.3-2 .1-.1.5-1.6s-2.8 4-5.3 5.7Z" fill="url(#linear-gradient-10)"/><path d="M95.1 41c-2 2.4-3 5.7-4 8.8-1 3.3-1 4.9-1.5 6l-.5 1.5c5.4-7.8 6-13.1 6-16.3Z" fill="url(#linear-gradient-11)"/><path d="M94.3 35.7c.4.1-.2-1 .3-2.2v-1a12.2 12.2 0 0 0-1.6-4.8v1l-.6-1.5.5 2.8c.5 2.8.8 5.6 1.4 5.7Z" fill="url(#linear-gradient-12)"/><path class="cls-8" d="M93.7 34.6c-.3-1-.5-2.9-.8-4.7a71 71 0 0 0-.5-2.7l-1-2.7c.5 2.2 1.2 4.4 1.5 6.6a14.7 14.7 0 0 0 .8 3.5Z"/><path class="cls-8" d="M82.8 16a16.5 16.5 0 0 1 6.2 4.6 23.6 23.6 0 0 1 3 6.5l-.7-2.6-1-2.5s-4.5-9.2-22-9.5a33.1 33.1 0 0 0-13.8 2.4A52.1 52.1 0 0 1 67 13 35.5 35.5 0 0 1 82.8 16Z"/><path d="M59.6 14.8v-.4C52.2 16 48 19.4 47 22a.8.8 0 0 1 .3 0l.9-1.3c.7-1 4.3-4.5 11.3-5.8Z" fill="url(#linear-gradient-13)"/><path d="M90.3 25.1a15.4 15.4 0 0 0-2.5-4.8c-1.5-1.8-7.5-6.6-20-6.6a40.6 40.6 0 0 0-8.2.7v.4a19 19 0 0 0-11.3 5.8l-.9 1.3a1 1 0 0 1 .4 0l.6.3c.3.1.4.3 1.3-.7s5.6-5 18.1-5c7.6 0 14.7 1.5 18.4 5 .8 1 2 2 2.7 10l-.2-2.6a20.6 20.6 0 0 1-.3-3c0-.5 0-.8.4-.6s.6 0 .9.2.7.2.7-.1a.5.5 0 0 0 0-.3Z" fill="url(#linear-gradient-14)"/><path d="M89.6 52.2a12.2 12.2 0 0 0-.7 1.3 10.4 10.4 0 0 0 .7-1.3Z" fill="url(#linear-gradient-15)"/><path d="M95.1 39.2a56 56 0 0 0-.5-5.7c-.5 1.3 0 2.3-.3 2.2s-.4-.4-.6-1a14.7 14.7 0 0 1-.8-3.5v7a43 43 0 0 1-3.3 14 10.4 10.4 0 0 1-.7 1.3c-.4.7-.6 2.8-1.5 5 1.3-1.4 2.2-2.8 2.2-2.8.6-1 .6-2.6 1.6-6 1-3 1.9-6.3 4-8.7v-1.8Z" fill="url(#linear-gradient-16)"/><path d="M91.8 28.6c-.5-2.2-1.1-3-1.4-3.3 0 .3-.5.2-.8.1s-.4 0-.8-.2-.4.1-.4.6a20.6 20.6 0 0 0 .3 3s.5-.9.9 1.2a28.4 28.4 0 0 1 .5 3.7 7 7 0 0 1 2 5.3 54.5 54.5 0 0 1-.6 5.8l.5-2.3c.9-4.1.4-10.9-.3-14Z" fill="url(#linear-gradient-17)"/><path d="M92.3 32a38.7 38.7 0 0 1-.3 10.5 110 110 0 0 1-.9 4.5l.4-2.2a54 54 0 0 1-2.7 8.7 12.2 12.2 0 0 1 .8-1.3 43 43 0 0 0 3.3-14l.1-3.7Z" fill="url(#linear-gradient-18)"/><path class="cls-23" d="M85.7 58.3a8 8 0 0 1-3.4 3.2c-3.6 2-7.3 3.4-14.5 3.4S50.6 63 47.4 55s-4.3-10-4.3-20.5c0-5.7 1.2-10.8 4.4-14.5l2.5-2.6a18.9 18.9 0 0 0-4.3 4 36.8 36.8 0 0 0-4.2 16.8c0 9.7 3.5 15 7 20.4l-.8-.1 1.3 1.3a4.3 4.3 0 0 1 2 1c1.7 1.6 7.5 4.6 16.3 4.6 8.3 0 14-2.1 17-4a16.6 16.6 0 0 0 3-3 18.6 18.6 0 0 0 1-2.6c-1.9 2.3-2.6 2.5-2.6 2.5Z"/><path d="M89.5 48.3a33.5 33.5 0 0 1-2.2 3.6c-1 1.7-1.6 2.1-2 2.1a12.7 12.7 0 0 1-2.5 4.7 1.4 1.4 0 0 0 1.2.6c.6 0 1.1-.3 1.6-1a30 30 0 0 0 1.9-3.6 24.3 24.3 0 0 0 2-6.4Z" fill="url(#linear-gradient-19)"/><path d="M86.7 49.4c-.4 1.7-.8 3.2-1.3 4.6.3 0 .8-.4 2-2a33.5 33.5 0 0 0 2.2-3.7 24.3 24.3 0 0 1-2 6.4 30 30 0 0 1-1.9 3.6s.8-.2 2.6-2.5a20.4 20.4 0 0 1 .6-2.3 54 54 0 0 0 2.6-8.7 54.5 54.5 0 0 0 .6-5.8 7 7 0 0 0-2-5.3 6.2 6.2 0 0 1-.1 1.4c-.4 1.9-.9 3.6-1.1 5.7a18.2 18.2 0 0 1-.7 3.4h-.4q-.4 2.4-1.1 5.2Z" fill="url(#linear-gradient-20)"/><path d="M52 60.4a21 21 0 0 1-5.8-9.4 8.8 8.8 0 0 0-1.4-2.9l2.6 7c3.2 8 13.2 9.7 20.4 9.7A28 28 0 0 0 80 62.6a42.4 42.4 0 0 1-12.2 2c-7.8 0-13.5-2.5-16-4.2Z" fill="url(#linear-gradient-21)"/><path d="M93 31.2V31l-1-4a23.6 23.6 0 0 0-3-6.5 16.5 16.5 0 0 0-6.2-4.6A35.5 35.5 0 0 0 67 12.8 52.1 52.1 0 0 0 54.6 15a26.6 26.6 0 0 0-4.6 2.5L47.5 20a30.5 30.5 0 0 0-1.9 3.8 4.5 4.5 0 0 1 1.5-1.9c1.2-3.3 8.1-8.3 20.7-8.3s18.5 5 20 6.7a15.4 15.4 0 0 1 2.5 4.8.5.5 0 0 1 0 .2c.3.3 1 1 1.4 3.3a31.6 31.6 0 0 1 .6 3.4l.7 2.5v-3.3Z" fill="url(#linear-gradient-22)"/><path d="M50 17.4a26.6 26.6 0 0 1 4.5-2.5 33.1 33.1 0 0 1 13.7-2.4c-16-.3-21.5 7-22.6 8.9a18.9 18.9 0 0 1 4.4-4Z" fill="url(#linear-gradient-23)"/><path d="m82.8 58.7-.4.5c-3.1 2.8-11 3.5-14.6 3.5A41.1 41.1 0 0 1 60 62c-8-.8-9-5.4-9.3-6.1s-.5-.5-.7-.7a6.3 6.3 0 0 0-.8-.5c-.7-.5-.4-.2-1-.5s-.3 0-.2.6a27.8 27.8 0 0 0 1.2 2.7 11 11 0 0 0 2.6 3c2.5 1.6 8.2 4 16 4a42.4 42.4 0 0 0 12.2-1.9l2.2-1.1.4-.2a20.2 20.2 0 0 0 1-2 1.4 1.4 0 0 1-.9-.6Z" fill="url(#linear-gradient-24)"/><path d="M85.7 58.3c-.5.7-1 1-1.6 1a1.6 1.6 0 0 1-.4 0 20.2 20.2 0 0 1-1 2 7.8 7.8 0 0 0 3-3Z" fill="url(#linear-gradient-25)"/><path d="M48.8 22.3a.4.4 0 0 1-.4 0l-.7-.4a.8.8 0 0 0-.6 0s-1.8 1-2.6 5.6-.7 6.6-.3 8.8 1-1.1 1.4-2.4c.3-1 1.1-1.9 1.5-1.5l.1-3.8a13.4 13.4 0 0 1 1.5-6.3Z" fill="url(#linear-gradient-26)"/><path class="cls-23" d="M89 31.5c-.9-8-2-9-2.8-10-3.8-3.5-10.8-5-18.4-5-12.5 0-17.3 4-18.1 5l-1 .8a13.4 13.4 0 0 0-1.5 6.3l.1-1.8c.6-7.9 13.7-10 20.5-10A41 41 0 0 1 80 18.7c6.2 2.1 7.8 5.5 8 8v1a62.4 62.4 0 0 1-.2 16.5h.4S89 36 89 34v-2.4Z"/><path class="cls-32" d="m49.1 49.9-.1-.5-.4-1.6c-1.1-2.3-2.4-4.2-2.6-7.3a47.4 47.4 0 0 1 .3-7.8 3.6 3.6 0 0 0-.7 1.2c-.4 1.3-1 4.6-1.4 2.4s-.6-4.2.3-8.8a13.9 13.9 0 0 1 1.1-3.7 30.5 30.5 0 0 1 1.8-3.7 22 22 0 0 0-4.2 14.4c0 6.7.4 10 1.6 13.6a8.8 8.8 0 0 1 1.4 2.9 20.5 20.5 0 0 0 1.5 3.8 34 34 0 0 1-1.4-4.7c-.2-1.7-.3-2.3 0-2s.6 0 .9.6a3.9 3.9 0 0 0 .7 1l.7.7c.1.1.3.2.7 1.5.3 1 1 3.4 1.6 3.8A39.8 39.8 0 0 1 49 50Z"/><path d="M49.3 52c-.3-1.3-.5-1.5-.7-1.6l-.7-.7a3.9 3.9 0 0 1-.7-1c-.3-.5-.5-.4-.8-.6s-.3.4 0 2a34 34 0 0 0 1.4 4.7 25.2 25.2 0 0 0 1.6 2.7 27.8 27.8 0 0 1-1.2-2.7c-.2-.6-.2-1 .2-.6s.3 0 1 .5a6.3 6.3 0 0 1 .8.5c.1.1.2 0 .3.2v-.2a21.5 21.5 0 0 1-1.2-3.3Z" fill="url(#linear-gradient-27)"/><path d="M58.4 61.7c-4.2-1-6.2-3-7.5-6a2.3 2.3 0 0 1-.4-.5v.2a1.5 1.5 0 0 1 .3.5c.3.7 1.4 5.3 9.3 6.1l-1.7-.3Z" fill="url(#linear-gradient-28)"/><path class="cls-35" d="M51 55.8a51.2 51.2 0 0 1-3.2-10 53.8 53.8 0 0 1-1.3-11.1 25.1 25.1 0 0 0 0 0 56 56 0 0 0 4.5 21Z"/><path d="M67.8 61.6a38.4 38.4 0 0 1-9.1-1c-6-1.5-6.9-4.9-8.5-11l-.1-.5c-2.1-8-2.2-14.6-1.6-22.1a6.3 6.3 0 0 1 2.4-4.4 15.7 15.7 0 0 1 5.2-2.8A40.2 40.2 0 0 1 67.8 18a39.7 39.7 0 0 1 11.9 1.8 14.5 14.5 0 0 1 5 2.6 6.2 6.2 0 0 1 2.2 4.3l.1 1.1c.5 6.6 1 12.2-1.4 21.3-1 4-1.8 7.3-4 9.2-2.6 2.4-9.7 3.3-13.8 3.3Zm0-43.5A39.7 39.7 0 0 0 56 19.9c-4.7 1.5-7.4 4-7.6 7-.6 7.6-.5 14.2 1.6 22.2l.1.5c1.6 6.1 2.5 9.4 8.5 10.9a38.3 38.3 0 0 0 9 1c4.2 0 11.2-.9 13.8-3.2 2.2-2 3-5.3 4-9.2 2.3-9.1 1.9-14.7 1.4-21.3l-.1-1.1c-.2-3-2.6-5.3-7.2-6.9a39.8 39.8 0 0 0-11.8-1.7Z" fill="#871a33"/><path class="cls-35" d="M87.2 24a8 8 0 0 0-1.7-2.2l.4.6a12 12 0 0 1 1.3 1.5Z"/><path d="M84.4 53.3a11.3 11.3 0 0 1-2.8 5c-2.7 2.4-10 3.3-13.8 3.3a38.3 38.3 0 0 1-9.1-1c-6.2-1.5-7-5-8.6-11.5A63.8 63.8 0 0 1 48.5 27c.5-7.1 13.4-8.9 19.3-8.9a40 40 0 0 1 11.4 1.6 30.2 30.2 0 0 0-11.1-1.9c-7.8 0-12.3 1.4-15.1 2.8a8.7 8.7 0 0 0-4 3.3 20.3 20.3 0 0 0-1.7 9 86.3 86.3 0 0 0 .8 10 75 75 0 0 0 2.6 10.4c1 3 1.7 5.9 6 7.1A34.5 34.5 0 0 0 68.5 62c4.7 0 10.1-1.3 12.8-3a5 5 0 0 0 .9-.7 2.4 2.4 0 0 1-.9.5 2.4 2.4 0 0 0 .9-.5 6.2 6.2 0 0 0 .8-1.1 13 13 0 0 0 1.4-3.9Z" fill="url(#linear-gradient-29)"/><path class="cls-10" d="M81.2 19.4a13.4 13.4 0 0 1 4.7 3 10 10 0 0 0-.3-.6 15 15 0 0 0-5.6-3.1 41 41 0 0 0-12.2-1.8c-4.5 0-11.5.9-16 3.7a40.6 40.6 0 0 1 29.4-1.2Z"/><path class="cls-32" d="M88 27.7v-1a7 7 0 0 0-.8-2.8 12 12 0 0 0-1.3-1.5c1.3 2.5 1.4 5.4 1.6 7.5a55.9 55.9 0 0 1 .4 10.4A88.8 88.8 0 0 1 85 52.7c-1 3.4-2.2 4.9-3 5.6a5 5 0 0 1-.7.7 27 27 0 0 1-13 3 34.5 34.5 0 0 1-11.7-1.6c-4.3-1.3-5-4.2-6-7.1A75 75 0 0 1 48 42.8a86.3 86.3 0 0 1-.8-10l.1-2.7-.2-1.2A62 62 0 0 0 49 49.4l.1.5a40.3 40.3 0 0 0 1.9 5.9c1.3 2.9 3.2 4.8 7.5 5.9a39.6 39.6 0 0 0 9.3 1c3.7 0 11.5-.7 14.6-3.5l.5-.5a12.7 12.7 0 0 0 2.5-4.7c.5-1.4.9-3 1.3-4.6q.7-2.8 1-5.2a62.4 62.4 0 0 0 .4-16.5Z"/><path d="M49 23.9a8.7 8.7 0 0 1 4-3.3c2.8-1.4 7.3-2.8 15.1-2.8a30.2 30.2 0 0 1 11.2 1.9c4 1.2 7.3 3.4 7.6 7 .5 6.8 1.1 12.7-1.3 22.4l-1.2 4.2a13 13 0 0 1-1.4 3.9 6.2 6.2 0 0 1-.8 1c.8-.6 2-2.1 2.9-5.5a88.8 88.8 0 0 0 2.8-12.4 55.9 55.9 0 0 0-.3-10.4c-.3-2-.4-5-1.7-7.5a13.4 13.4 0 0 0-4.7-3 40.6 40.6 0 0 0-29.4 1.1c-2.5 1.5-4.2 3.6-4.4 6.3l-.1 2 .1 1.3a16.2 16.2 0 0 1 1.5-6.2Z" fill="url(#linear-gradient-30)"/><path class="cls-35" d="M67.8 62.7a39.6 39.6 0 0 1-9.4-1c-6.7-1.6-7.7-5.5-9.3-11.8l-.1-.5c-2.1-8.2-2.2-15-1.6-22.5.5-8 13.6-10 20.4-10A41 41 0 0 1 80 18.7c6.3 2 7.8 5.5 8 8v1c.6 6.4 1 12.4-1.3 21.7-1 4-2 7.6-4.3 9.8-3.1 2.8-11 3.5-14.6 3.5ZM47.3 27c-.5 7.6-.5 14.3 1.7 22.5l.1.5c1.7 6.3 2.7 10.1 9.3 11.7a39.5 39.5 0 0 0 9.4 1c3.7 0 11.5-.7 14.5-3.5 2.4-2.2 3.3-5.7 4.4-9.7A57.8 57.8 0 0 0 88 27.7v-1c-.2-2.5-1.7-5.9-8-8A41 41 0 0 0 67.9 17C61 17 48 19 47.4 27Z"/><path fill="#fff" d="m83.6 25.7 6.9-3.5-2.1 6.9 2.7-6.7 2 6.2-1.6-6.3 3.8 1.2-3.6-1.6 1.9-1.2-2.2.8 1-2.4-1.5 2.1-2.3-4.2 1.5 4-1.7-1.3 1.5 1.5-4.7-1.4 4.5 1.6-2.5.4h2.3l-1.8.4 2-.2-6.1 3.7z"/><g id="g3265"><g id="Warstwa_1"><g id="_217956912" data-name="217956912"><path id="_217961256" data-name="217961256" class="cls-40" d="M59.3 41.9v-2.8h-2.4v-7.2h3.2V29h-6.7l.6 22h3l-.1-9.1h2.4z"/><path id="_217958256" data-name="217958256" class="cls-40" d="m61.2 29 .4 22h3V29h-3.4z"/><path id="_217960584" data-name="217960584" class="cls-40" d="m80.5 51 .6-19.2h2.4l-.1-2.8h-8.1v2.8h2.4L77.6 51h2.9z"/><path id="_217960752" data-name="217960752" class="cls-40" d="M69.2 39.2v-7.5h1.6a24.4 24.4 0 0 1 1.7 7.5ZM66.5 51h2.8v-9.1h3.3c.3 1.6.3 6.6.3 9.1h2.7c.3-11.2-.5-17.6-2.7-22h-6.7Z"/></g></g><g id="Warstwa_1-5"><g id="_217956912-1" data-name="217956912-1"><path id="_217961256-7" data-name="217961256-7" fill="url(#linear-gradient-31)" d="M59.7 38.7h-2.5v-7.2h3.2v-2.9h-6.6l.6 22h2.9l-.1-9.1h2.5v-2.8z"/><path id="_217958256-1" data-name="217958256-1" fill="url(#linear-gradient-32)" d="M65 28.6h-3.4l.3 22h3l.1-22z"/><path id="_217960584-1" data-name="217960584-1" fill="url(#linear-gradient-33)" d="M78 50.6h2.9l.6-19.2h2.4v-2.8h-8.2v2.8h2.4L78 50.6z"/><path id="_217960752-5" data-name="217960752-5" d="M69.5 38.8v-7.4h1.7a24.3 24.3 0 0 1 1.7 7.4ZM67 50.6h2.7v-9H73c.3 1.6.3 6.5.3 9H76c.3-11.2-.5-17.5-2.7-22h-6.7Z" fill="url(#linear-gradient-34)"/></g></g></g></svg>