<svg id="Layer_1" data-name="Layer 1" xmlns="http://www.w3.org/2000/svg" xmlns:xlink="http://www.w3.org/1999/xlink" viewBox="0 0 136.3 77.6"><defs><linearGradient id="linear-gradient" x1="57.5" y1="63.1" x2="84.6" y2="15.7" gradientUnits="userSpaceOnUse"><stop offset="0" stop-color="#80171b"/><stop offset=".5" stop-color="#c7232d"/><stop offset="1" stop-color="#ea203d"/></linearGradient><linearGradient id="linear-gradient-2" x1="47.6" y1="57.5" x2="74.7" y2="10" xlink:href="#linear-gradient"/><linearGradient id="linear-gradient-3" x1="67.4" y1="68.7" x2="94.5" y2="21.3" xlink:href="#linear-gradient"/><linearGradient id="linear-gradient-4" x1="54.8" y1="61.6" x2="81.9" y2="14.1" xlink:href="#linear-gradient"/><style>.cls-1{fill:#fff}.cls-7{fill:#211f1f}</style></defs><path class="cls-1" d="M57 53v-2.2a.6.6 0 1 0-1.2 0V53H55v-3.5h.8v.4a1.3 1.3 0 0 1 1.7-.1 1.3 1.3 0 0 1 .4 1v2.2ZM60.3 51.5a.7.7 0 0 0 .7.7 1 1 0 0 0 .8-.3l.6.5a1.7 1.7 0 0 1-1.4.6c-.8 0-1.6-.4-1.6-1.8 0-1.1.6-1.8 1.5-1.8a1.5 1.5 0 0 1 1.5 1.7v.4Zm1.2-1a.6.6 0 0 0-.6-.4.6.6 0 0 0-.6.4 1.2 1.2 0 0 0 0 .3h1.3a1 1 0 0 0 0-.3M65.2 53a1 1 0 0 1-1-1v-1.8h-.4v-.7h.4v-1h.8v1h.6v.7H65v1.7c0 .2 0 .3.3.3h.3v.7ZM71 52.9h-.7l-.7-2.2-.8 2.2h-.7L67 49.4h1l.5 2.2.8-2.2h.6l.7 2.2.6-2.2h.9L71 52.9zM76 52.5a1.5 1.5 0 0 1-1.2.5 1.4 1.4 0 0 1-1-.5 2.5 2.5 0 0 1 0-2.7 1.4 1.4 0 0 1 1-.4 1.5 1.5 0 0 1 1.1.4 2.6 2.6 0 0 1 0 2.7m-.6-2.2a.6.6 0 0 0-.5-.1.5.5 0 0 0-.4.1 1.2 1.2 0 0 0-.2.9 1.2 1.2 0 0 0 .2.8.5.5 0 0 0 .4.2.6.6 0 0 0 .5-.2 1.2 1.2 0 0 0 .2-.8 1.2 1.2 0 0 0-.2-.9M79.7 50.4a.6.6 0 0 0-.4-.2.6.6 0 0 0-.6.6V53h-.9v-3.5h.9v.4a1.2 1.2 0 0 1 .9-.4 1 1 0 0 1 .8.3ZM83.9 52.9l-.9-1.4-.4.4v1h-.8v-4.8h.8v2.8l1.2-1.5h1.1l-1.3 1.4 1.4 2.1h-1.1z"/><path d="M96 24v1.4h-.2V24h-.5v-.2h1.1v.2Zm2 1.4V24l-.5 1.4h-.2L97 24v1.4h-.2v-1.7h.3l.5 1.4.4-1.4h.3v1.7Z" fill="#c7232d"/><path d="M74.2 34.3a1.6 1.6 0 0 0-.3-.3 1.4 1.4 0 0 0-.3-.2 1.9 1.9 0 0 0-.4-.2 2.6 2.6 0 0 0-.5 0 2.8 2.8 0 0 0-.5 0 3.5 3.5 0 0 0-.5.2c-.1 0-.3 0-.4.2a3.5 3.5 0 0 0-.4.3 3 3 0 0 0-.6.7 4.7 4.7 0 0 0-.4.9l-.4 1-.2 1.3-.2 1.2a8.5 8.5 0 0 0-.1 1 4.4 4.4 0 0 0 0 1 2 2 0 0 0 .3.7 1.7 1.7 0 0 0 .3.3 1.5 1.5 0 0 0 .4.2 1.8 1.8 0 0 0 .4.1 2.6 2.6 0 0 0 .5 0 2.8 2.8 0 0 0 .5 0 3.2 3.2 0 0 0 .5-.2 2.5 2.5 0 0 0 .4-.2 2.8 2.8 0 0 0 .4-.3 3.3 3.3 0 0 0 .6-.7 5.2 5.2 0 0 0 .4-1 5.2 5.2 0 0 0 .2-.5l.1-.5.3-1.2v-.6l.2-.6a10.6 10.6 0 0 0 0-1 3.6 3.6 0 0 0 0-.9 2 2 0 0 0-.3-.7Z" fill="url(#linear-gradient)"/><path d="M61 34.3a1.6 1.6 0 0 0-.3-.3 1.7 1.7 0 0 0-.3-.2 1.9 1.9 0 0 0-.5-.2 3.8 3.8 0 0 0-.5 0 2.7 2.7 0 0 0-.5 0 3.5 3.5 0 0 0-.4.2c-.2 0-.3 0-.4.2a3.5 3.5 0 0 0-.4.3 3 3 0 0 0-.6.7 4.7 4.7 0 0 0-.4.9 9.5 9.5 0 0 0-.3 1.1l-.3 1.2-.2 1.2a7 7 0 0 0 0 1 3.8 3.8 0 0 0 0 1 2 2 0 0 0 .3.7 2.1 2.1 0 0 0 .2.3 1.9 1.9 0 0 0 .4.3 1.8 1.8 0 0 0 .4 0 2.6 2.6 0 0 0 .5 0 2.8 2.8 0 0 0 .5 0 2.7 2.7 0 0 0 1-.3 2.8 2.8 0 0 0 .3-.4 3.3 3.3 0 0 0 .6-.7 5.6 5.6 0 0 0 .4-1 4.8 4.8 0 0 0 .2-.5l.1-.5.3-1.2.1-.5.1-.7a10.6 10.6 0 0 0 0-1 3.6 3.6 0 0 0 0-1 2 2 0 0 0-.3-.6Z" fill="url(#linear-gradient-2)"/><path d="M87 34a1.4 1.4 0 0 0-.3-.3 1.8 1.8 0 0 0-.5-.1 2.6 2.6 0 0 0-.5 0 2.8 2.8 0 0 0-.5 0 2.4 2.4 0 0 0-.5.1 2.8 2.8 0 0 0-.4.2 3.5 3.5 0 0 0-.4.3 3.5 3.5 0 0 0-.6.8 4.9 4.9 0 0 0-.4.9 9.7 9.7 0 0 0-.3 1.1l-.3 1.2-.2 1.2a8.7 8.7 0 0 0 0 1.1 4.5 4.5 0 0 0 0 1 2.1 2.1 0 0 0 .3.7 1.4 1.4 0 0 0 .3.3 1.5 1.5 0 0 0 .3.2 2.1 2.1 0 0 0 .4.1 2.1 2.1 0 0 0 .5 0 3 3 0 0 0 .6 0 2.5 2.5 0 0 0 .4-.1 2.3 2.3 0 0 0 .5-.2 2.9 2.9 0 0 0 .4-.4 3.3 3.3 0 0 0 .6-.7 5 5 0 0 0 .4-1 4.8 4.8 0 0 0 .2-.5 6.8 6.8 0 0 0 .2-.7l.2-1v-.6l.2-.6a8.4 8.4 0 0 0 0-1 4.2 4.2 0 0 0 0-1 1.9 1.9 0 0 0-.3-.7 2 2 0 0 0-.3-.4Z" fill="url(#linear-gradient-3)"/><path d="M95 27a2.2 2.2 0 0 0-.8.4 3 3 0 0 0-.5.3 3.8 3.8 0 0 0-.6.7 6 6 0 0 0-.4 1 8.7 8.7 0 0 0-.4 1.1l-.2 1.3-.8 4.8-.5 2.6v.2a.8.8 0 0 1 0 .2l-.1.6c-.1.2 0 .1 0 .2v.2a2.7 2.7 0 0 0 0 .6 1.8 1.8 0 0 0 .2.6 2 2 0 0 0 .3.3 1.8 1.8 0 0 0 .3.2 1.9 1.9 0 0 0 .3.1l-.9 3h-.3a4.9 4.9 0 0 1-1 0 3.5 3.5 0 0 1-.8-.4h-.1a3.3 3.3 0 0 1-.5-.3 3.3 3.3 0 0 1-.6-.6A3.2 3.2 0 0 1 87 43a5 5 0 0 1-.6.8 3 3 0 0 1-.3.3l-.2.1-.1.2a4.8 4.8 0 0 1-1.4.8 4.2 4.2 0 0 1-1 .2 5.8 5.8 0 0 1-1 0 5.2 5.2 0 0 1-1-.1 4.7 4.7 0 0 1-.8-.3 3.4 3.4 0 0 1-.7-.4 3 3 0 0 1-.6-.6 3.3 3.3 0 0 1-.6-1.3 5.8 5.8 0 0 1 0-1.5 13.4 13.4 0 0 1 .1-1.7l.3-1.6.4-1.6a14.3 14.3 0 0 1 .5-1.7 8 8 0 0 1 .7-1.4 4.9 4.9 0 0 1 1-1.2 4.3 4.3 0 0 1 .8-.5 6.2 6.2 0 0 1 .8-.3 7.1 7.1 0 0 1 1-.2 6 6 0 0 1 2 0 4 4 0 0 1 .8.4 3.2 3.2 0 0 1 1.2 1l.1-.6a44.2 44.2 0 0 1 1.2-4.7l.2-.4.1-.2a.9.9 0 0 1 .1-.1l.2-.4a3.9 3.9 0 0 1 .5-.7 4.7 4.7 0 0 1 2.7-1.5A29.7 29.7 0 0 0 41.2 52a3.3 3.3 0 0 0 1.5-1.3 4.7 4.7 0 0 0 .4-.9 7.1 7.1 0 0 0 .3-1l2.4-13.1h-2l1-3.3h1.5l.2-.8v-.7l.3-1.5a9.4 9.4 0 0 1 .3-1 9.3 9.3 0 0 1 .4-1 6.8 6.8 0 0 1 .8-1.4 7.6 7.6 0 0 1 1-1.1 8 8 0 0 1 1-.8 7.3 7.3 0 0 1 1.2-.6 8.8 8.8 0 0 1 1.4-.4 7.8 7.8 0 0 1 1.6-.2h.1a7.1 7.1 0 0 1 1.5.2l.5.1-1 3.5h-.1a3 3 0 0 0-.6-.2 3.2 3.2 0 0 0-.6 0 4 4 0 0 0-.7 0 3.3 3.3 0 0 0-.6.2 4.4 4.4 0 0 0-.5.2 3.8 3.8 0 0 0-.4.3 2.8 2.8 0 0 0-.6.7 4.2 4.2 0 0 0-.4.9 7.4 7.4 0 0 0-.3 1l-.1.6-.1.4-.2 1.6h2.3l-1 3.3H50l-1.8 9.9-.4 2.4-.4 1.5a11.6 11.6 0 0 1-.5 1.7 7.6 7.6 0 0 1-.8 1.3 7 7 0 0 1-1.1 1.2 7.2 7.2 0 0 1-1 .8 7.8 7.8 0 0 1-1 .5 29.7 29.7 0 0 0 54.6-16.2A29.4 29.4 0 0 0 95.1 27Zm-30.2 9.4-.2 1.7a17.3 17.3 0 0 1-.4 1.7 10.7 10.7 0 0 1-.5 1.5 7 7 0 0 1-.7 1.2 6.9 6.9 0 0 1-1 1 7 7 0 0 1-.9.8 6.1 6.1 0 0 1-1 .5 7 7 0 0 1-1.3.4 7.7 7.7 0 0 1-1.5.2 6.9 6.9 0 0 1-1.4-.1 4.6 4.6 0 0 1-1.2-.4 4.2 4.2 0 0 1-1.5-1.2 4.4 4.4 0 0 1-.6-1 4.8 4.8 0 0 1-.3-1.3 8.2 8.2 0 0 1 0-1.5l.3-1.8a16.2 16.2 0 0 1 .4-1.7 10 10 0 0 1 .5-1.5 7.4 7.4 0 0 1 .7-1.2 6.9 6.9 0 0 1 1-1 9.1 9.1 0 0 1 1-.7 6.3 6.3 0 0 1 1-.5 6.2 6.2 0 0 1 1.3-.4 7.3 7.3 0 0 1 2.8 0 5.5 5.5 0 0 1 1.1.4 4.2 4.2 0 0 1 .9.6 3.9 3.9 0 0 1 .6.6 4.1 4.1 0 0 1 .6 1 4.6 4.6 0 0 1 .3 1.2 7.6 7.6 0 0 1 0 1.5Zm13.2 0-.2 1.7-.4 1.7a10.7 10.7 0 0 1-.5 1.5 7 7 0 0 1-.7 1.2 6.9 6.9 0 0 1-1 1 7 7 0 0 1-.9.8 6.4 6.4 0 0 1-1 .5 7 7 0 0 1-1.3.4 7.7 7.7 0 0 1-1.5.2 7 7 0 0 1-1.4-.1 4.7 4.7 0 0 1-1.1-.4 4 4 0 0 1-.9-.6 4.5 4.5 0 0 1-.6-.6 4.3 4.3 0 0 1-.6-1 4.8 4.8 0 0 1-.3-1.3 8.2 8.2 0 0 1 0-1.5L66 38l.4-1.7a11.2 11.2 0 0 1 .5-1.5 7.4 7.4 0 0 1 .7-1.2 6.5 6.5 0 0 1 1-1 7.9 7.9 0 0 1 .9-.7 7.6 7.6 0 0 1 1-.5 6.8 6.8 0 0 1 1.3-.4 7.5 7.5 0 0 1 1.4-.1 7.2 7.2 0 0 1 1.4.1 5.5 5.5 0 0 1 1.1.4 4.2 4.2 0 0 1 .9.6 3.5 3.5 0 0 1 .6.6 4.2 4.2 0 0 1 .6 1A5 5 0 0 1 78 35a7.6 7.6 0 0 1 0 1.5Z" fill="url(#linear-gradient-4)"/><path class="cls-7" d="m74 39.3-.1.5.2-.7.2-1v-.5.6l-.3 1.1Z"/><path class="cls-1" d="M77.7 33.7a4.2 4.2 0 0 0-.6-1 3.5 3.5 0 0 0-.6-.7 4.2 4.2 0 0 0-.9-.6 5.5 5.5 0 0 0-1-.3A7.2 7.2 0 0 0 73 31a7.5 7.5 0 0 0-1.4.1 6.8 6.8 0 0 0-1.3.4 7.6 7.6 0 0 0-1 .5 7.9 7.9 0 0 0-1 .7 6.5 6.5 0 0 0-1 1 7.4 7.4 0 0 0-.7 1.2 11.2 11.2 0 0 0-.5 1.5 19.2 19.2 0 0 0-.6 3.5 8.2 8.2 0 0 0 0 1.5 4.8 4.8 0 0 0 .2 1.2 4.3 4.3 0 0 0 .6 1 4.5 4.5 0 0 0 .7.7 4 4 0 0 0 .9.6 4.7 4.7 0 0 0 1.1.4 7 7 0 0 0 1.4 0 7.7 7.7 0 0 0 1.5 0 7 7 0 0 0 1.3-.5 6.4 6.4 0 0 0 1-.5 7 7 0 0 0 1-.7 6.9 6.9 0 0 0 1-1 7 7 0 0 0 .6-1.3 10.7 10.7 0 0 0 .5-1.5 20.4 20.4 0 0 0 .6-3.4 7.6 7.6 0 0 0 0-1.5 5 5 0 0 0-.3-1.2ZM74.6 36a10.6 10.6 0 0 1-.1 1l-.1.6-.1.6-.2 1-.2.7a5.2 5.2 0 0 1-.2.5 5.2 5.2 0 0 1-.4 1 3.3 3.3 0 0 1-.6.7 2.8 2.8 0 0 1-.4.3 2.5 2.5 0 0 1-.4.2 3.2 3.2 0 0 1-.5.2 2.8 2.8 0 0 1-.5 0 2.6 2.6 0 0 1-.5 0 1.8 1.8 0 0 1-.4-.1 1.5 1.5 0 0 1-.4-.2 1.7 1.7 0 0 1-.3-.3 2 2 0 0 1-.3-.8 4.4 4.4 0 0 1 0-.9 8.5 8.5 0 0 1 0-1l.3-1.3.2-1.2c0-.4.2-.7.4-1a4.7 4.7 0 0 1 .4-1 3 3 0 0 1 .6-.6 3.5 3.5 0 0 1 .4-.3l.4-.3a3.5 3.5 0 0 1 .4 0 2.8 2.8 0 0 1 .6 0 2.6 2.6 0 0 1 .4 0 1.9 1.9 0 0 1 .5 0 1.4 1.4 0 0 1 .3.3 1.6 1.6 0 0 1 .3.3 2 2 0 0 1 .3.7 3.6 3.6 0 0 1 0 .9ZM44.8 53.7a7 7 0 0 0 1.2-1.2 7.6 7.6 0 0 0 .8-1.4 11.6 11.6 0 0 0 .6-1.6l.3-1.6.5-2.4 1.8-9.9h1.9l1-3.3h-2.4l.2-1.5v-.5l.2-.6a7.4 7.4 0 0 1 .3-1 4.2 4.2 0 0 1 .4-.8 2.8 2.8 0 0 1 .6-.8 3.8 3.8 0 0 1 .4-.3 4.4 4.4 0 0 1 .4-.2h.1a3.3 3.3 0 0 1 .6-.1 4 4 0 0 1 .7-.1 3.2 3.2 0 0 1 .6 0 3 3 0 0 1 .6.2l1.1-3.4-.5-.2a7.1 7.1 0 0 0-1.5-.1 7.8 7.8 0 0 0-1.7.1 8.8 8.8 0 0 0-1.4.5 7.3 7.3 0 0 0-1.2.6 8 8 0 0 0-1 .7 7.6 7.6 0 0 0-1 1.2 6.8 6.8 0 0 0-.8 1.4 9.3 9.3 0 0 0-.4 1 9.4 9.4 0 0 0-.2 1l-.3 1.5v.6l-.2.9h-1.6l-1 3.2h2l-2.4 13.1a7.1 7.1 0 0 1-.4 1 4.7 4.7 0 0 1-.4 1 3.3 3.3 0 0 1-1.5 1.3 29.8 29.8 0 0 0 1.7 3 7.8 7.8 0 0 0 1-.5 7.2 7.2 0 0 0 1-.8Z"/><path class="cls-7" d="M60.8 39.3v.5l.1-.7.2-1 .1-.5-.1.6-.3 1.1Z"/><path class="cls-1" d="M64.5 33.7a4.1 4.1 0 0 0-.5-1 3.9 3.9 0 0 0-.7-.6 4.2 4.2 0 0 0-.8-.6 5.5 5.5 0 0 0-1.2-.4 7.3 7.3 0 0 0-2.8 0 6.2 6.2 0 0 0-1.3.4 6.3 6.3 0 0 0-1 .5 9.1 9.1 0 0 0-1 .7 6.9 6.9 0 0 0-1 1 7.4 7.4 0 0 0-.6 1.2 10 10 0 0 0-.6 1.5 16.2 16.2 0 0 0-.4 1.7l-.2 1.8a8.2 8.2 0 0 0 0 1.5 4.8 4.8 0 0 0 .2 1.2 4.4 4.4 0 0 0 .6 1.1 4.2 4.2 0 0 0 1.6 1.2 4.6 4.6 0 0 0 1.1.4 6.9 6.9 0 0 0 1.5.1 7.7 7.7 0 0 0 1.4-.2 7 7 0 0 0 1.3-.4 6.1 6.1 0 0 0 1-.5 7 7 0 0 0 1-.7 6.9 6.9 0 0 0 1-1 7 7 0 0 0 .7-1.3 10.7 10.7 0 0 0 .5-1.5 17.3 17.3 0 0 0 .3-1.7l.2-1.7a7.6 7.6 0 0 0 0-1.5 4.6 4.6 0 0 0-.3-1.2ZM61.4 36a10.6 10.6 0 0 1-.1 1l-.1.7v.5l-.3 1-.2.7a4.8 4.8 0 0 1-.2.5 5.6 5.6 0 0 1-.4 1 3.3 3.3 0 0 1-.6.7 2.8 2.8 0 0 1-.4.3 2.7 2.7 0 0 1-.9.4 2.8 2.8 0 0 1-.5 0 2.6 2.6 0 0 1-.5 0 1.8 1.8 0 0 1-.4-.1 1.9 1.9 0 0 1-.4-.2 2.1 2.1 0 0 1-.2-.3 2 2 0 0 1-.3-.8 3.8 3.8 0 0 1 0-.9 7 7 0 0 1 0-1l.2-1.2.3-1.3a9.5 9.5 0 0 1 .3-1 4.7 4.7 0 0 1 .4-1 3 3 0 0 1 .6-.6 3.5 3.5 0 0 1 .4-.3l.4-.2a3.5 3.5 0 0 1 .5-.1 2.7 2.7 0 0 1 .5 0 3.8 3.8 0 0 1 .5 0 1.9 1.9 0 0 1 .4 0 1.7 1.7 0 0 1 .3.3 1.6 1.6 0 0 1 .3.3 2 2 0 0 1 .3.7 3.6 3.6 0 0 1 0 .9ZM90.8 25.3a3.9 3.9 0 0 0-.5.7l-.3.4a.9.9 0 0 0 0 .1l-.2.2c0 .1 0 .3-.2.4l-.4 1.5-.4 1.6-.4 1.6v.6a3.2 3.2 0 0 0-1.3-1 4 4 0 0 0-.8-.3 6 6 0 0 0-2-.1 7.1 7.1 0 0 0-1 .2 6.2 6.2 0 0 0-.8.3 4.3 4.3 0 0 0-.8.5 4.9 4.9 0 0 0-1 1.2 8 8 0 0 0-.7 1.5 14.3 14.3 0 0 0-.5 1.6l-.4 1.6c0 .6-.2 1.1-.3 1.7a13.4 13.4 0 0 0-.1 1.6 5.8 5.8 0 0 0 0 1.5 3.3 3.3 0 0 0 .6 1.3 3 3 0 0 0 .6.6 3.4 3.4 0 0 0 .7.4 4.7 4.7 0 0 0 .9.3 5.2 5.2 0 0 0 1 .2 5.8 5.8 0 0 0 1 0 4.2 4.2 0 0 0 1-.3 4.8 4.8 0 0 0 1.3-.8l.2-.1.1-.2a3 3 0 0 0 .4-.3 5 5 0 0 0 .5-.8 3.2 3.2 0 0 0 .6 1.1 3.3 3.3 0 0 0 .6.6 3.3 3.3 0 0 0 .5.3 3.5 3.5 0 0 0 1 .4 4.9 4.9 0 0 0 1 .1h.2l1-3h-.1a1.9 1.9 0 0 1-.4-.1 1.8 1.8 0 0 1-.3-.2 2 2 0 0 1-.2-.3 1.8 1.8 0 0 1-.2-.6 2.7 2.7 0 0 1 0-.6v-1a.8.8 0 0 0 0-.2v-.2l.5-2.6.8-4.9.3-1.2a8.7 8.7 0 0 1 .3-1.1 6 6 0 0 1 .5-1 3.8 3.8 0 0 1 .6-.7 3 3 0 0 1 .4-.4 2.2 2.2 0 0 1 1-.3 27.9 27.9 0 0 0-1.7-3.2 4.7 4.7 0 0 0-2.6 1.4ZM87.7 36a8.4 8.4 0 0 1-.1 1l-.1.7-.1.5-.2 1a6.8 6.8 0 0 1-.2.7 4.8 4.8 0 0 1-.2.6 5 5 0 0 1-.4 1 3.3 3.3 0 0 1-.6.7 2.9 2.9 0 0 1-.4.3 2.3 2.3 0 0 1-.5.2 2.5 2.5 0 0 1-.4.2 3 3 0 0 1-.6 0 2.1 2.1 0 0 1-.5 0 2.1 2.1 0 0 1-.4-.1 1.5 1.5 0 0 1-.3-.3 1.4 1.4 0 0 1-.3-.3 2.1 2.1 0 0 1-.3-.7 4.5 4.5 0 0 1 0-1 8.7 8.7 0 0 1 0-1l.2-1.2.3-1.2a9.7 9.7 0 0 1 .3-1.1 4.9 4.9 0 0 1 .4-1 3.5 3.5 0 0 1 .6-.7 3.5 3.5 0 0 1 .4-.3 2.8 2.8 0 0 1 .4-.2 2.4 2.4 0 0 1 .5-.1 2.8 2.8 0 0 1 .5 0 2.6 2.6 0 0 1 .5 0 1.8 1.8 0 0 1 .4.1 1.4 1.4 0 0 1 .4.2 2 2 0 0 1 .3.3 1.9 1.9 0 0 1 .3.8 4.2 4.2 0 0 1 0 .9ZM57 52.9v-2.1a.6.6 0 1 0-1.2 0v2H55v-3.4h.8v.3a1.2 1.2 0 0 1 1-.4 1.1 1.1 0 0 1 .8.3 1.3 1.3 0 0 1 .3 1V53ZM60.3 51.4a.7.7 0 0 0 .8.8 1 1 0 0 0 .8-.4l.5.6a1.6 1.6 0 0 1-1.3.5c-.9 0-1.7-.4-1.7-1.8 0-1.1.7-1.8 1.6-1.8a1.5 1.5 0 0 1 1.5 1.7v.4Zm1.2-1a.6.6 0 0 0-.5-.4.6.6 0 0 0-.6.4 1.1 1.1 0 0 0-.1.4h1.3a.8.8 0 0 0 0-.4ZM65.2 52.9a1 1 0 0 1-1-1V50h-.4v-.6h.4v-1h.8v1h.6v.6H65v1.7a.3.3 0 0 0 .3.3h.3v.8ZM71 52.9h-.7l-.7-2.2-.8 2.2h-.7L67 49.4h1l.6 2.1.7-2.1h.6l.7 2.1.6-2.1h1ZM75.9 52.5a1.5 1.5 0 0 1-1.1.4 1.4 1.4 0 0 1-1-.4 2.5 2.5 0 0 1 0-2.7 1.4 1.4 0 0 1 1-.5 1.5 1.5 0 0 1 1 .5 2.5 2.5 0 0 1 0 2.7Zm-.7-2.2a.5.5 0 0 0-.4-.2.5.5 0 0 0-.4.2 1.2 1.2 0 0 0-.2.8 1.2 1.2 0 0 0 .2.9.5.5 0 0 0 .4.1.5.5 0 0 0 .4-.1 1.2 1.2 0 0 0 .2-.9 1.2 1.2 0 0 0-.2-.8ZM79.7 50.3a.6.6 0 0 0-.5-.2.6.6 0 0 0-.5.7v2h-1v-3.4h1v.3a1.2 1.2 0 0 1 .8-.4 1 1 0 0 1 .8.4ZM83.8 52.9l-.9-1.5-.3.4v1h-1v-4.7h1v2.7l1.1-1.4h1l-1.2 1.4 1.4 2Z"/></svg>