<svg id="Layer_1" data-name="Layer 1" xmlns="http://www.w3.org/2000/svg" viewBox="0 0 136.3 77.6"><defs><style>.cls-1{fill:#101f37}</style></defs><path class="cls-1" d="m20.3 37.2-1.5 6.2h5c-.5 3.3-8.6 4.7-7.4-3.3.9-5.6 7.9-8.6 9.5-4.3l8.6-2.1c-3-12.9-25.8-10.3-27.7 6.9-.9 8.3 5.4 12.9 12.7 12.8A20.6 20.6 0 0 0 30.7 50l3-12.8ZM36 34.3l-4.3 18.5h9L45 34.3ZM59.8 23.8l-6.9 29h9l6.8-29ZM49.1 23.8l-6.8 29h9l6.8-29ZM47 26.4h-9l-1.6 6.8 9.6-2.4Z"/><path class="cls-1" d="M122 41h-5c.8-2.5 5.4-3.1 5 0m-44.9 0h-5c.8-2.5 5.4-3.1 5 0m32.6-.2a14.4 14.4 0 0 0-1 3.4c-.4 3.2.7 9.6 9 9.6 4.1 0 9.3-2.7 10.6-6.3l-7-1.3a4 4 0 0 1-3.1 1.7c-2 0-2.5-1.7-2.1-3.2h13a8.7 8.7 0 0 0 .6-2.5c.4-6.2-4.5-9.1-9-9.1a11.3 11.3 0 0 0-8.9 4.2l.7-2.9h-3.8l1.9-8h-9l-2 8h-2l2-8h-9l-1.9 8h-2.9l-1.3 4.9c-1-4.3-5-6.3-8.8-6.3-6.4 0-11 5-11.8 11.2-.5 3.2.6 9.5 9 9.5 4 0 9.2-2.6 10.5-6.3l-7-1.2a4 4 0 0 1-3.1 1.6c-2 0-2.5-1.6-2.1-3h13a8.1 8.1 0 0 0 .6-2.6 10.7 10.7 0 0 0 0-1.4h2.5l-2.9 12h9l2.9-12h2l-2.8 12h9l2.8-12h2.4"/></svg>