<svg data-name="Layer 1" xmlns="http://www.w3.org/2000/svg" viewBox="0 0 136.3 77.6"><path d="M43.7 46.3c-8 0-11.5-3-11.5-7.6s3.5-7.5 11.5-7.5S55 34.3 55 38.7s-3.5 7.6-11.4 7.6Zm52-.5H81.6v-1.9l2-.2a1 1 0 0 0 .8-1.1V35a1 1 0 0 0-1-1.1l-1.9-.3v-2h14.1c6.4 0 9.2 3.2 9.2 6.9 0 4-2.8 7.1-9.2 7.1Zm-39.9 0v-1.9l2-.2c.6-.1.9-.6.9-1.2V35a1 1 0 0 0-1-1.1l-1.8-.2v-2h9.9a1.4 1.4 0 0 1 1.1.6l7.5 9.8v-7c0-.6-.3-1.1-1-1.2l-1.9-.2v-2h9v2l-1.9.2c-.7.1-.9.6-.9 1.2v10.6h-7a1.5 1.5 0 0 1-1.2-.5l-7.4-9.9v7.2a1 1 0 0 0 .9 1l1.9.3v2Zm-49.7 0V44l1.9-.2c.7-.1 1-.6 1-1.4v-7.1c0-.8-.2-1.3-1-1.4l-2-.2v-2h11.3v2l-1.9.2c-.6 0-.9.5-.9 1.3v2.2h8.7v-2.2c0-.7-.2-1.2-.9-1.3l-2-.2v-2h11.3v2l-2 .2c-.6.1-.8.6-.8 1.3v7.3c0 .8.5 1.1.8 1.2l2 .2v2H20.4v-2l1.9-.2c.8-.2.9-.7.9-1.4v-2.1h-8.7v2.3c0 1 .5 1.2.9 1.2l2 .3v1.8Zm92.3-7c0-3.6-1.4-4.3-4.9-4.3H90V43h3.6c3.5 0 4.9-.8 4.9-4.3Zm-49.7 0c0-3.7-1.8-4.9-5-4.9s-5 1.2-5 4.9 1.8 4.9 5 4.9 5-1.2 5-5Zm64 7h-9v-1.9l2-.2a1.4 1.4 0 0 0 1-.8l4.7-7.7a.7.7 0 0 0-.5-1.2l-2.5-.3v-2h11a1.6 1.6 0 0 1 1.1.9l6.3 9.6c.5.8.9 1.4 1.5 1.4l2 .3v2h-12.2v-2l1.6-.2c.7 0 1.3-.4.7-1.3l-.6-.9h-8.6l-.7 1c-.4.7 0 1.1.6 1.2l1.6.2v2Zm0-6.8h5.5l-2.7-4.4Zm0 0" fill="#cc2229" fill-rule="evenodd"/></svg>