<svg id="Layer_1" data-name="Layer 1" xmlns="http://www.w3.org/2000/svg" viewBox="0 0 136.3 77.6"><defs><style>.cls-1{fill:#ea212e;fill-rule:evenodd}</style></defs><path class="cls-1" d="M12.3 48a1 1 0 0 1-1.1 1h-4A1 1 0 0 1 6 48V29.5a1 1 0 0 1 1.1-1h4a1 1 0 0 1 1.1 1V48ZM18 48v-2.4a1 1 0 0 1 1-1.1h17.7c.3 0 .4-.2.5-.4a.5.5 0 0 0-.4-.6L22 38.8c-2.9-1-4-2.8-4-5.1 0-2.9 2-5.3 6.4-5.3h16c.8 0 1.1.4 1.1 1.1v2.6c0 .7-.3 1-1 1h-16c-.3 0-.5.1-.5.3a.5.5 0 0 0 .4.6l14.2 4.6c3.3 1 4.6 2.6 4.6 5.4 0 3.5-2.4 5-6.4 5.1H19c-.8 0-1.1-.3-1.1-1ZM53.2 28.4c.7 0 1.1.3 1.1 1v11.8c0 2 .5 3.1 3.2 3.2h4.9c2.7 0 3-1.2 3-3.2V29.5c0-.8.3-1.1 1.1-1.1h4.1c.8 0 1.1.3 1.1 1v12.8c0 3.4-.6 6.8-7 6.9h-9.8c-6 0-6.8-3.6-6.8-6.9V29.5a1 1 0 0 1 1-1ZM111.9 28.4c.7 0 1 .3 1 1v11.8c0 2 .5 3.1 3.2 3.2h5c2.6 0 3-1.2 3-3.2V29.5c0-.8.3-1.1 1-1.1h4.2c.7 0 1 .3 1 1v12.8c0 3.4-.5 6.8-7 6.9h-9.7c-6.1 0-6.8-3.6-6.8-6.9V29.5a1 1 0 0 1 1-1ZM101.8 48c0 .8-.4 1-1.1 1H83c-4 0-6.4-1.6-6.4-5 0-2.9 1.2-4.4 4.5-5.5L95.3 34a.5.5 0 0 0 .4-.6c0-.2-.2-.3-.6-.3H79.3c-.8 0-1.1-.3-1.1-1v-2.6c0-.7.3-1 1-1h16.1c4.5 0 6.4 2.4 6.4 5.2 0 2.3-1 4-4 5-.5.3-14.4 4.7-14.8 4.8a.5.5 0 0 0-.4.6c0 .2.2.4.6.4h17.6a1 1 0 0 1 1 1V48Z"/></svg>