<svg id="Layer_1" data-name="Layer 1" xmlns="http://www.w3.org/2000/svg" viewBox="0 0 136.3 77.6"><defs><style>.cls-1{fill:#042467}</style></defs><path id="path3388" class="cls-1" d="M45.4 25.4c-1.2 2.4-2.4 4.2-4.8 5.1 1 0 2.2.8 2.2 1.4v15.5c0 3 .3 2.9-2.2 5.1A3 3 0 0 1 39 51c0-6.7.1-15.1-.2-21.2-.7-1.6-1.2-4-3.1-4.3a11.5 11.5 0 0 1-5.2 5.5c1 .3 1.9.3 1.9 1.1s.4 9.4.2 13.1c0 3.9-.9 9.2 3.4 11.9.6.2 1.4.9 2.2.9a1.3 1.3 0 0 0 .5 0c.6-1.9 2.8-3.2 4.2-4.4a5.3 5.3 0 0 0 4 4.5c.8-2 2.8-3.1 3.9-4.2 0 0-1.4-.2-1.5-1s0-20.5 0-21.2 1.4-1.4 1.4-1.4a31 31 0 0 1-5.3-4.7M75 25a14.7 14.7 0 0 1-4.5 4.7 4.1 4.1 0 0 1 1.9 3.5V51c0 .6-.8.6-1.3.6h-.5v.6c5 2.4 5.9 4 7.6 6a15 15 0 0 1 6.4-8c-.2-.6-1.3-1.5-1.3-1.5a11.8 11.8 0 0 1-.7 1.5c-.2.5-1.6 1.9-2.7 1.9a1 1 0 0 1-.3 0 1.6 1.6 0 0 1-.8-2l-.2-17.4a3 3 0 0 1 1.9-1.1c1.6.3 2.3 1.7 2.7 3.6a22.7 22.7 0 0 1 2.7-5.9c-.6-1.2-2.7-2.7-3.7-3.8l-.4.9a24.9 24.9 0 0 1-3.3 3.8c-.5-1.8-1.4-4.5-3.5-5M60.4 41.6 60.3 30l.5-.2a17.2 17.2 0 0 1 3.4 6.5 38.5 38.5 0 0 0-3.8 5.2M64.1 25a25.2 25.2 0 0 1-10.8 6 4.4 4.4 0 0 1 .8 1.3c.1 6.8.2 12 .1 19.7 1.2 3 6.7 5.8 6.7 5.8s.8-3.2 5.3-6.7l1.2-1.2-1.6-1.7s.1 1.8-2 3.6a1 1 0 0 1-.7.2 3.5 3.5 0 0 1-1.9-1 8.5 8.5 0 0 1-.4-6.8c2.2-5.2 9-9.8 9-9.8A27.7 27.7 0 0 0 64 25m36.2 0a12.8 12.8 0 0 1-4 5.1s2 .5 2 2.1.4 9.8.2 17.2a14.6 14.6 0 0 1-2.4 4s-1.4-.2-1.7-2V31.3c-.3-2.3-1-5-3.7-6a40.7 40.7 0 0 1-4.1 5s1.7 0 1.8 2.3v19.7l.9 2.1C90 56 93.4 58 95.9 58c.8-3.1 7.8-8.7 7.8-8.7s.8-10 .5-13.6.3-8.7-3.9-10.6m16.6 28.2c-1.5 0-2.6-.2-2.9-1.6-1-7 .3-15.3-.4-21.6h.6c2.5 0 3.8 1.3 3.8 2.5a78.3 78.3 0 0 1 .1 9.8l.2 11h-1.4m-.7-28.6c-1.3 2.8-5.4 5.2-8.8 5.8 1 7.2-.1 16 .6 23.2 1.3 2 4.5 4.4 7.5 4.4a25 25 0 0 1 9.2-6 184 184 0 0 1-.3-21.1c-1-3-5.6-4.7-8.2-6.3m-92 33.5c-1.7-1.4-4-2.7-5-4.8l3-3-.2-25.6a12.5 12.5 0 0 1 1.7-2.3l.4 17.9v17.8m-5.4-5c-2.9-4.2-4-8.8-4.4-13.7 0-11 6-17 6-17l3.6-2.8v1.1a23.9 23.9 0 0 0-5.2 6.4s.1 25.7 0 26m15-41.6L31.3 13A864 864 0 0 1 11.9 25 22.6 22.6 0 0 0 7 39a33.7 33.7 0 0 0 .2 5.5 19.5 19.5 0 0 0 1.1 4.1 28.1 28.1 0 0 0 1.9 4.5 23.5 23.5 0 0 0 7 8.4A23.1 23.1 0 0 0 29.6 66h.4a14.8 14.8 0 0 0 2.5-1.5l7-4.4a69 69 0 0 1 3.1-1.9l-.2-.3s-4.3 2.4-6.6 2.5h-1c-2.1 0-6.7-.2-8.2-1V17.9l.5-.5a2 2 0 0 0 .9 1.1c5.3 4.6 7.6 4.7 7.8 4.7a2 2 0 0 0 1.5-.6c2.1-2.2 5-3.7 7.5-5.3l-.5-.1a7.3 7.3 0 0 1-3.1.8 2.8 2.8 0 0 1-.7 0c-1.7-.8-6.5-4.5-6.8-5.1a2.1 2.1 0 0 1 0-1.4"/><g id="g3390"><path id="path3392" class="cls-1" d="M123.9 60.7v-1.8h1.1c.6 0 1.2.1 1.2.9s-.7.9-1.3.9h-1m1.3-2.5h-2v5.4h.8v-2.4h1l1.4 2.4h.8l-1.5-2.4a1.5 1.5 0 0 0 1.3-1.5 1.5 1.5 0 0 0-1.8-1.5m-.4 6.6a3.8 3.8 0 0 1-3.7-3.8 3.8 3.8 0 1 1 7.5 0 3.8 3.8 0 0 1-3.8 3.8m0-8.3a4.5 4.5 0 0 0-4.5 4.5 4.5 4.5 0 0 0 4.5 4.5 4.5 4.5 0 0 0 0-9"/></g></svg>