<svg id="Layer_1" data-name="Layer 1" xmlns="http://www.w3.org/2000/svg" viewBox="0 0 136.3 77.6"><defs><style>.cls-3{fill-rule:evenodd;fill:#0068b1}</style></defs><path d="M102 66.3a27.6 27.6 0 1 0 0-55H34.3a27.6 27.6 0 1 0 0 55Z" fill-rule="evenodd" fill="#ff2600"/><path d="M102 56.4a17.6 17.6 0 1 0 0-35.2H34.3a17.6 17.6 0 1 0 0 35.2Z" fill="#fff" fill-rule="evenodd"/><path class="cls-3" d="M32.8 46.2V31.8h-4v14.4Zm24 0V31.8h-4v14.4ZM90.4 39a4.2 4.2 0 0 0 1.8-3.2l-3.6-.1a2.6 2.6 0 0 1-1.7 2v-6h-4v14.5h4v-4.8c1.1.7 1.8 2 1.8 4.8h4c0-3.5-.1-5.7-2.3-7.2ZM38 46.2V36H34v10.2ZM36 35.6a2 2 0 0 0 2-2 2 2 0 1 0-2 2Zm45.3 10.6V36h-4v10.2Zm-2-10.6a2 2 0 0 0 2-2 2 2 0 1 0-2 2ZM45 39.4v-3.7h-1.7v-3.3h-4v9.3a4.4 4.4 0 0 0 4.3 4.5H45v-3.7a1.6 1.6 0 0 1-1.7-1.6v-1.5Zm31.1 0v-3.7h-1.7v-3.3h-4v9.3a4.4 4.4 0 0 0 4.4 4.5H76v-3.7a1.6 1.6 0 0 1-1.6-1.6v-1.5Zm-24.6 0v-3.7h-1.7v-3.3h-4v9.3a4.4 4.4 0 0 0 4.5 4.5h1.2v-3.7a1.6 1.6 0 0 1-1.7-1.6v-1.5Z"/><path class="cls-3" d="M66.1 45.4a8.8 8.8 0 0 1-4.1 1 5.4 5.4 0 0 1-5.5-5.4 5.5 5.5 0 0 1 5.5-5.4 5.6 5.6 0 0 1 4.5 2.3L63 43a3.2 3.2 0 0 0 2-1l1.3 3.5Zm-5.1-3 2-2.8a1.5 1.5 0 0 0-1-.3 1.9 1.9 0 0 0-1.8 1.7 2.1 2.1 0 0 0 .8 1.5Zm40 0V46a28.6 28.6 0 0 1-3.5 0 5.2 5.2 0 0 1-5.4-5.1 5.5 5.5 0 0 1 5.4-5.4 5.8 5.8 0 0 1 4.6 2.3l-3.4 4.5Zm-4.4 0 2-2.8a2 2 0 0 0-1-.4 1.9 1.9 0 0 0-1.8 1.8 1.7 1.7 0 0 0 .7 1.5Zm5.6 0V46c3.8 0 5.2-2.2 5.5-4.6.2-1.4.5-1.9 1.5-1.9v-3.8c-3.7 0-4.9 1.4-5.4 4.7-.3 1.7-.8 1.9-1.6 1.9ZM122 63a2.6 2.6 0 1 1 5.2 0 2.6 2.6 0 0 1-5.2 0Zm2.6 3.2a3.2 3.2 0 1 0-3.2-3.2 3.2 3.2 0 0 0 3.2 3.2Zm-.7-3h.7l1 1.7h.6l-1.1-1.7a.9.9 0 0 0 1-1c0-.8-.5-1-1.4-1h-1.3V65h.5v-1.6Zm0-.4v-1.1h.8c.4 0 .7 0 .7.5s-.3.6-.8.6Z"/></svg>