<svg id="Layer_1" data-name="Layer 1" xmlns="http://www.w3.org/2000/svg" viewBox="0 0 136.3 77.6"><defs><style>.cls-1{fill-rule:evenodd}</style></defs><path class="cls-1" d="M22.9 45.8v2.6H6.5v-18h3v15.4h13.4ZM20.6 37l3.2-6.2h-3L18.2 37Zm26.8-3.6a11.6 11.6 0 0 0-4.5-4 13.1 13.1 0 0 0-12 0 11.6 11.6 0 0 0-4.5 4 10.2 10.2 0 0 0 0 11.1 11.7 11.7 0 0 0 4.5 4 13.1 13.1 0 0 0 12 0 11.8 11.8 0 0 0 4.5-4 10.2 10.2 0 0 0 0-11Zm-2.6 10a9 9 0 0 1-3.3 3.2 9.5 9.5 0 0 1-9 0 9 9 0 0 1-3.4-3.2 8.4 8.4 0 0 1 0-8.7 9 9 0 0 1 3.3-3.2 9.4 9.4 0 0 1 9 0 8.9 8.9 0 0 1 3.4 3.2 8.4 8.4 0 0 1 0 8.7Zm24.8-5.1a5 5 0 0 1-2.4 2.2 3.8 3.8 0 0 1-1.9.5l5.7 7.4h-3.2l-5.6-7.2H55v7.2h-3v-18h11.8a7 7 0 0 1 3.5.9 5 5 0 0 1 2.4 2.7 6 6 0 0 1-.1 4.1Zm-3.3-.2a2.9 2.9 0 0 0 1-2.2A2.8 2.8 0 0 0 64 33h-9v5.6h9a3.4 3.4 0 0 0 2.3-.6Zm20.3 0v2.5h-10v5.2H90v2.6H73.7v-18H90V33H76.6v5h10Zm.2-10.4h-4.5L80.5 30Zm9 16.2-2.4 4.6h-2.9l9.2-18h3l9.2 18h-3l-2.3-4.6Zm5.3-10.5L97 41.5h8.4l-4.2-8.2Zm28.6 12.4v2.6h-16.4v-18h3v15.4h13.4ZM128.4 34v-.4a1.2 1.2 0 0 0 0-.3 1 1 0 0 0-.1-.2.3.3 0 0 0-.3-.1.6.6 0 0 0 .3-.3.8.8 0 0 0 .1-.4 1 1 0 0 0-.1-.5 1 1 0 0 0-.9-.3h-1.3v3h.5v-1.3h.8a.5.5 0 0 1 .3.1c.2.2.1.5.2.8a.9.9 0 0 0 0 .4h.6v-.1l-.1-.4Zm-.6-1.3a.7.7 0 0 1-.4 0h-.8V32h1a.5.5 0 0 1 .3.2.5.5 0 0 1-.1.6Z"/><path class="cls-1" d="M129.5 31.7a2.4 2.4 0 0 0-1-1 2.5 2.5 0 0 0-1.2-.3 2.5 2.5 0 0 0-1.2.3 2.5 2.5 0 0 0-1 1 2.5 2.5 0 0 0-.3 1.2 2.6 2.6 0 0 0 .3 1.3 2.5 2.5 0 0 0 1 1 2.6 2.6 0 0 0 1.2.3 2.6 2.6 0 0 0 1.3-.4 2.5 2.5 0 0 0 1-.9 2.6 2.6 0 0 0 .3-1.3 2.6 2.6 0 0 0-.4-1.2Zm-.3 2.3a2.2 2.2 0 0 1-3.7 0 2.2 2.2 0 0 1 0-2.1 2.2 2.2 0 0 1 3-.8 2.2 2.2 0 0 1 .7.8 2.3 2.3 0 0 1 .3 1 2.1 2.1 0 0 1-.3 1.1Z"/></svg>