<svg data-name="Layer 1" xmlns="http://www.w3.org/2000/svg" viewBox="0 0 136.3 77.6"><path d="M18.3 29.6V40.3a12 12 0 0 1-2 0v-6.5l-.1.3-1.4 2.6-1.3 2.5-.6 1.1h-1.5l-.6-1.1-1.5-2.8-1.1-2.2a1.1 1.1 0 0 0-.3-.3v6.4a2.1 2.1 0 0 1-.6 0H5.9V29.6h2l.1.1 1.6 3a2.3 2.3 0 0 0 .1.4c.5.7.8 1.5 1.2 2.2l.1.3a9.5 9.5 0 0 1 .8 1.4l.3.5 1.3-2.3 1.3-2.4 1.6-3.2ZM53.6 29.6h.2a3.1 3.1 0 0 1 1.8.6 2.5 2.5 0 0 1 1.1 2.1v.4a2.5 2.5 0 0 1-.4 1.5 4.9 4.9 0 0 1-.4.4 3.2 3.2 0 0 0 .3.3 2.8 2.8 0 0 1 .8 1.6 3 3 0 0 1-1.8 3.5 4.3 4.3 0 0 1-1.8.3h-5.7a2 2 0 0 1 0-.2V29.6Zm-4 9h4a2.4 2.4 0 0 0 1.1-.4 1 1 0 0 0 .4-.7 1.5 1.5 0 0 0-.3-1.4 4.5 4.5 0 0 0-.6-.3 3.8 3.8 0 0 0-.9 0H49.6Zm0-7.1a11.8 11.8 0 0 0 0 2.4H53a4.6 4.6 0 0 0 .8 0 1.4 1.4 0 0 0 .5-.2.9.9 0 0 0 .5-.7 2.4 2.4 0 0 0 0-.8.7.7 0 0 0-.5-.6 3.4 3.4 0 0 0-1-.1h-3.5ZM116.5 29.6V40.3h-1.7l-6-7.4v7.4h-2a2.7 2.7 0 0 1 0-.2V29.6h1.8a1.6 1.6 0 0 0 0 .2l1 1.2 1 1 .7 1 .8 1 1 1.3 1 1a2.3 2.3 0 0 0 .5.6 1.1 1.1 0 0 0 0-.2v-7.2ZM130.3 29.6v1.8h-6.8a11.8 11.8 0 0 0 0 2.4h6.5v2h-6.6v2.6h6.9a8.3 8.3 0 0 1 0 2h-8.8a.8.8 0 0 1 0-.5V29.5ZM70.3 29.6v1.9h-6.7a12.8 12.8 0 0 0 0 2.4h6.5v1.8a4 4 0 0 1-1 0h-5.5a18.6 18.6 0 0 0 0 2.8h6.8a8.3 8.3 0 0 1 0 1.8h-8.8a.8.8 0 0 1 0-.4V29.5ZM28 29.6l1.2 2.5c0 .3.2.6.3.8.5 1 1 1.8 1.3 2.8a7 7 0 0 0 .3.7l1.1 2.4.7 1.5a13.7 13.7 0 0 1-2.1 0l-1.4-3H25l-1.4 3h-2l.3-.8 1.5-3.3.4-1 1-2 1.2-2.6.4-.8a.6.6 0 0 0 0-.3Zm-.7 3a19.1 19.1 0 0 0-1.3 2.8 19.8 19.8 0 0 0 2.6 0ZM44.8 29.6l-5 6.4v4.4h-2V36l-1.3-1.6-1.2-1.5-1-1.2-1-1.3-.3-.5a3.6 3.6 0 0 1-.2-.3h2.5l.7 1 .7 1 1.2 1.4.8 1 .3-.2.5-.6 1-1.2 1.4-1.9c.2-.2.4-.3.4-.5ZM89.7 29.6v8.8a5.1 5.1 0 0 0 1 0h5.1v1.9h-8a.8.8 0 0 1 0-.4V29.6ZM77.4 29.6v9c2 0 4.1-.2 6.2 0v1.8h-8V29.5ZM101.7 29.6v10.8H100V29.6ZM111.4 48h-.1a3.2 3.2 0 0 1-2.2-1.2 2.4 2.4 0 0 1-.5-1 2.5 2.5 0 0 1 .4-2 2.9 2.9 0 0 1 1.7-1.2 4.4 4.4 0 0 1 1.4-.1 3.5 3.5 0 0 1 2.3 1 2.2 2.2 0 0 1 .6 1.5 2.6 2.6 0 0 1 0 1 2.5 2.5 0 0 1-1 1.4 3.3 3.3 0 0 1-1.7.6s0 0-.1.1Zm2.4-2.8a3.9 3.9 0 0 0 0-.6 1.6 1.6 0 0 0-1-1.1 2.3 2.3 0 0 0-1.5-.1 1.7 1.7 0 0 0-1.2.9 2.2 2.2 0 0 0 0 1.8 1.7 1.7 0 0 0 1.2 1 2.4 2.4 0 0 0 1 0 2 2 0 0 0 1-.5 1.9 1.9 0 0 0 .5-1.4ZM89.9 42.6h1.3l1.2 3.8a2.6 2.6 0 0 0 0-.3l1.2-3.2.1-.3H95l1.3 3.8.6-2 .6-1.8h1.3l-1.9 5.2a12.2 12.2 0 0 1-1.2 0l-.4-.8-.8-2.7-.2-.3a.7.7 0 0 0 0 .2L93 47.7a4 4 0 0 1-1.3 0ZM121.5 45.4a1.1 1.1 0 0 1 .8 1.2 2.9 2.9 0 0 0 0 .6 1.1 1.1 0 0 0 .4.6h-1.4a.7.7 0 0 1-.2-.5 4.7 4.7 0 0 0 0-.9.8.8 0 0 0-.8-.6 1.7 1.7 0 0 0-.4 0h-1.7a2 2 0 0 0 0 .7V47.8H117v-5a1.1 1.1 0 0 1 0-.1h3.6a2.4 2.4 0 0 1 1.4.4 1.1 1.1 0 0 1 .5.9 1.3 1.3 0 0 1-.8 1.3Zm-3.4-.5h2.2a.8.8 0 0 0 .7-.3.7.7 0 0 0-.3-1 1.7 1.7 0 0 0-.5-.1H118ZM79.8 46.2v-3.5a3.5 3.5 0 0 1 1.2 0v5.1a2.1 2.1 0 0 1-.6 0h-.7l-3-3.6-.1.3v3.3a1.8 1.8 0 0 1-.6 0h-.6v-5.2a1.8 1.8 0 0 1 .6 0h.7l3 3.7ZM88 47v.8h-4.9v-5.1H88v.7a9.9 9.9 0 0 1-1.3 0h-2.3a1.5 1.5 0 0 0 0 .7v.6h3.3v.8a8.3 8.3 0 0 1-1.1 0h-2.2V47a4.5 4.5 0 0 0 .9 0H88ZM127.5 44.7l2.9 3.1a2.5 2.5 0 0 1-.5 0h-1l-2.2-2.4-1 .6v1.8h-1.2v-5a.7.7 0 0 1 0-.1h1.3a10.5 10.5 0 0 1 0 1.1v1.1l2.9-2.2h1.5c0 .2-.3.2-.4.3l-1.8 1.4ZM105.3 45.8v2h-1.2a2 2 0 0 1 0-.6v-1.4l-1.3-1.6-1.2-1.6h1.4l1.7 2.2 1.8-2.2h1.4l-1.3 1.6-1.3 1.6Z"/></svg>