<svg id="Layer_1" data-name="Layer 1" xmlns="http://www.w3.org/2000/svg" xmlns:xlink="http://www.w3.org/1999/xlink" viewBox="0 0 136.3 77.6"><defs><linearGradient id="linear-gradient" x1="62.8" y1="10.1" x2="73.8" y2="51" gradientUnits="userSpaceOnUse"><stop offset=".2" stop-color="#241d1e"/><stop offset=".3" stop-color="#2e2829"/><stop offset=".5" stop-color="#4a4747"/><stop offset=".6" stop-color="#5c5b5b"/><stop offset=".8" stop-color="#b2b2b2"/><stop offset="1" stop-color="#fff"/></linearGradient><linearGradient id="linear-gradient-2" x1="62.8" y1="10.1" x2="73.8" y2="51" gradientUnits="userSpaceOnUse"><stop offset="0" stop-color="#241d1e"/><stop offset=".6" stop-color="#454242"/><stop offset=".6" stop-color="#464343"/><stop offset=".7" stop-color="#565555"/><stop offset=".7" stop-color="#5c5b5b"/><stop offset=".8" stop-color="#fff"/><stop offset=".9" stop-color="#fff"/><stop offset="1" stop-color="#9ca2ab"/></linearGradient><linearGradient id="linear-gradient-3" x1="1328.2" y1="9" x2="1338.8" y2="48.7" gradientTransform="matrix(-1 0 0 1 1390.7 0)" gradientUnits="userSpaceOnUse"><stop offset="0" stop-color="#353131" stop-opacity="0"/><stop offset=".6" stop-color="#353131"/><stop offset=".6" stop-color="#383434"/><stop offset=".7" stop-color="#413e3e"/><stop offset=".7" stop-color="#514f4f"/><stop offset=".7" stop-color="#5c5b5b"/><stop offset=".9" stop-color="#eee"/><stop offset="1" stop-color="#dadbda" stop-opacity="0"/></linearGradient><linearGradient id="linear-gradient-4" x1="76" y1="52.7" x2="60.1" y2="8.9" gradientUnits="userSpaceOnUse"><stop offset="0" stop-color="#414040"/><stop offset=".2" stop-color="#454242"/><stop offset=".4" stop-color="#8c8a8a"/><stop offset=".5" stop-color="#cac9c9"/><stop offset=".7" stop-color="#f0f0f0"/><stop offset=".7" stop-color="#fff"/><stop offset="1" stop-color="#767d82"/></linearGradient><linearGradient id="linear-gradient-5" x1="48.8" y1="28.8" x2="54.8" y2="8.1" gradientUnits="userSpaceOnUse"><stop offset="0" stop-color="#fff" stop-opacity="0"/><stop offset=".1" stop-color="#fff" stop-opacity=".3"/><stop offset=".3" stop-color="#fff" stop-opacity=".7"/><stop offset=".4" stop-color="#fff" stop-opacity=".9"/><stop offset=".5" stop-color="#fff"/><stop offset=".8" stop-color="#bcbcbc" stop-opacity=".3"/><stop offset="1" stop-color="#9a9a9a" stop-opacity="0"/></linearGradient><linearGradient id="linear-gradient-6" x1="51.9" y1="14.4" x2="84.5" y2="14.4" gradientUnits="userSpaceOnUse"><stop offset="0" stop-color="#241d1e"/><stop offset=".1" stop-color="#393334" stop-opacity=".9"/><stop offset=".2" stop-color="#646262" stop-opacity=".7"/><stop offset=".3" stop-color="#7e7e7d" stop-opacity=".5"/><stop offset=".5" stop-color="#868786" stop-opacity=".5"/><stop offset="1" stop-color="#241d1e"/></linearGradient><linearGradient id="linear-gradient-7" x1="1073.6" y1="-1157.6" x2="1104.3" y2="-1157.6" gradientTransform="rotate(180 578.7 -555.2)" gradientUnits="userSpaceOnUse"><stop offset="0" stop-color="#241d1e"/><stop offset=".2" stop-color="#484344"/><stop offset=".5" stop-color="#727172"/><stop offset="1" stop-color="#241d1e"/></linearGradient><linearGradient id="linear-gradient-8" x1="68.2" y1="7.6" x2="54.9" y2="31.5" gradientTransform="translate(-11.2)" gradientUnits="userSpaceOnUse"><stop offset="0" stop-color="#fff" stop-opacity="0"/><stop offset=".1" stop-color="#fff" stop-opacity=".1"/><stop offset=".2" stop-color="#fff" stop-opacity=".4"/><stop offset=".3" stop-color="#fff" stop-opacity=".8"/><stop offset=".4" stop-color="#fff"/><stop offset="1" stop-color="#9a9a9a" stop-opacity="0"/></linearGradient><linearGradient id="linear-gradient-9" x1="82.2" y1="14.8" x2="90" y2="14.8" gradientUnits="userSpaceOnUse"><stop offset="0" stop-color="#241d1e"/><stop offset=".1" stop-color="#241d1e" stop-opacity=".8"/><stop offset=".3" stop-color="#241d1e" stop-opacity=".4"/><stop offset=".6" stop-color="#241d1e" stop-opacity=".1"/><stop offset="1" stop-color="#241d1e" stop-opacity="0"/></linearGradient><linearGradient id="linear-gradient-10" x1="1188.8" y1="12.8" x2="1188.8" y2="17.8" gradientTransform="matrix(-1 0 0 1 1238.3 0)" gradientUnits="userSpaceOnUse"><stop offset="0" stop-color="#241d1e"/><stop offset=".3" stop-color="#241d1e" stop-opacity=".5"/><stop offset=".7" stop-color="#241d1e" stop-opacity=".1"/><stop offset="1" stop-color="#241d1e" stop-opacity="0"/></linearGradient><linearGradient id="linear-gradient-11" x1="351" y1="42.7" x2="348.8" y2="48.8" gradientTransform="translate(-299)" gradientUnits="userSpaceOnUse"><stop offset=".1" stop-color="#241d1e" stop-opacity="0"/><stop offset=".1" stop-color="#2a2425" stop-opacity=".2"/><stop offset=".2" stop-color="#3e3a3a" stop-opacity=".8"/><stop offset=".3" stop-color="#454242"/><stop offset=".3" stop-color="#403d3d"/><stop offset=".5" stop-color="#332e2f" stop-opacity=".9"/><stop offset=".5" stop-color="#241d1e" stop-opacity=".8"/><stop offset=".6" stop-color="#292324" stop-opacity=".8"/><stop offset=".7" stop-color="#393435" stop-opacity=".8"/><stop offset=".7" stop-color="#545252" stop-opacity=".8"/><stop offset=".7" stop-color="#5c5b5b" stop-opacity=".7"/><stop offset=".8" stop-color="#555353" stop-opacity=".6"/><stop offset=".8" stop-color="#433f40" stop-opacity=".4"/><stop offset=".8" stop-color="#353030" stop-opacity=".2"/><stop offset=".8" stop-color="#2b2526" stop-opacity=".1"/><stop offset=".9" stop-color="#261f20" stop-opacity="0"/><stop offset="1" stop-color="#241d1e" stop-opacity="0"/></linearGradient><linearGradient id="linear-gradient-12" x1="1119.4" y1="27.3" x2="1124.9" y2="8.2" gradientTransform="matrix(-1 0 0 1 1206.3 0)" gradientUnits="userSpaceOnUse"><stop offset="0" stop-color="#fff" stop-opacity="0"/><stop offset=".1" stop-color="#dcdcdc" stop-opacity=".3"/><stop offset=".4" stop-color="#858485" stop-opacity=".9"/><stop offset=".5" stop-color="#727172"/><stop offset=".5" stop-color="#727172"/><stop offset=".6" stop-color="#737373"/><stop offset=".7" stop-color="#787778" stop-opacity=".8"/><stop offset=".8" stop-color="#7f7f7f" stop-opacity=".7"/><stop offset=".9" stop-color="#898989" stop-opacity=".4"/><stop offset="1" stop-color="#979697" stop-opacity=".1"/><stop offset="1" stop-color="#9a9a9a" stop-opacity="0"/></linearGradient><linearGradient id="linear-gradient-13" x1="47" y1="32.2" x2="89.8" y2="32.2" gradientUnits="userSpaceOnUse"><stop offset="0" stop-color="#241d1e"/><stop offset=".1" stop-color="#433f3f"/><stop offset=".1" stop-color="#605d5e"/><stop offset=".2" stop-color="#767575"/><stop offset=".3" stop-color="#868686"/><stop offset=".4" stop-color="#8f9090"/><stop offset=".5" stop-color="#929393"/><stop offset=".5" stop-color="#fff" stop-opacity=".8"/><stop offset=".5" stop-color="#241d1e" stop-opacity=".9"/><stop offset=".5" stop-color="#2c2626" stop-opacity=".9"/><stop offset=".5" stop-color="#413d3d" stop-opacity=".9"/><stop offset=".6" stop-color="#5c5b5b"/><stop offset=".6" stop-color="#5d5c5c"/><stop offset=".6" stop-color="#646262"/><stop offset=".6" stop-color="#666464"/><stop offset="1" stop-color="#241d1e"/></linearGradient><linearGradient id="linear-gradient-14" x1="883.6" y1="31.3" x2="864.9" y2="27.6" gradientTransform="matrix(-1 0 0 1 931 0)" gradientUnits="userSpaceOnUse"><stop offset="0" stop-color="#241d1e"/><stop offset=".1" stop-color="#2d2728"/><stop offset=".7" stop-color="#4f4d4d"/><stop offset="1" stop-color="#5c5b5b"/></linearGradient><linearGradient id="linear-gradient-15" x1="68.2" y1="27" x2="91.1" y2="27" gradientUnits="userSpaceOnUse"><stop offset="0" stop-color="#241d1e"/><stop offset="0" stop-color="#413c3e"/><stop offset=".1" stop-color="#626065"/><stop offset=".1" stop-color="#808087"/><stop offset=".1" stop-color="#999ba3"/><stop offset=".2" stop-color="#adb1ba"/><stop offset=".3" stop-color="#bdc2cc"/><stop offset=".3" stop-color="#c8ced9"/><stop offset=".4" stop-color="#ced5e0"/><stop offset=".6" stop-color="#d0d7e2"/><stop offset=".8" stop-color="#fff"/></linearGradient><linearGradient id="linear-gradient-16" x1="77.8" y1="25.7" x2="81.2" y2="36.7" gradientUnits="userSpaceOnUse"><stop offset="0" stop-color="#241d1e"/><stop offset="0" stop-color="#241d1e"/><stop offset=".3" stop-color="#241d1e"/><stop offset=".4" stop-color="#292223"/><stop offset=".5" stop-color="#494647"/><stop offset=".6" stop-color="#555454"/><stop offset=".8" stop-color="#241d1e"/></linearGradient><linearGradient id="linear-gradient-17" x1="862.9" y1="26.9" x2="885.7" y2="26.9" gradientTransform="matrix(-1 0 0 1 931 0)" gradientUnits="userSpaceOnUse"><stop offset="0" stop-color="#241d1e"/><stop offset="0" stop-color="#423f42"/><stop offset=".1" stop-color="#5b5c61"/><stop offset=".1" stop-color="#6d7177"/><stop offset=".2" stop-color="#787e84"/><stop offset=".2" stop-color="#7c8289"/><stop offset=".3" stop-color="#9ea2a8"/><stop offset=".4" stop-color="#c1c4c7"/><stop offset=".5" stop-color="#dcdee0"/><stop offset=".7" stop-color="#f0f0f1"/><stop offset=".8" stop-color="#fbfbfc"/><stop offset=".9" stop-color="#fff"/><stop offset="1" stop-color="#afafb0"/></linearGradient><linearGradient id="linear-gradient-18" x1="43.9" y1="36.3" x2="92.4" y2="36.3" gradientUnits="userSpaceOnUse"><stop offset="0" stop-color="#5c5b5b"/><stop offset=".1" stop-color="#757474"/><stop offset=".3" stop-color="#b4b3b3"/><stop offset=".6" stop-color="#fff"/><stop offset=".7" stop-color="#fdfdfd"/><stop offset=".8" stop-color="#f7f7f7"/><stop offset=".8" stop-color="#ececec" stop-opacity=".9"/><stop offset=".8" stop-color="#dddcdc" stop-opacity=".8"/><stop offset=".9" stop-color="#c9c7c7" stop-opacity=".8"/><stop offset=".9" stop-color="#b0aeae" stop-opacity=".6"/><stop offset=".9" stop-color="#939090" stop-opacity=".5"/><stop offset="1" stop-color="#716c6d" stop-opacity=".3"/><stop offset="1" stop-color="#4c4647" stop-opacity=".2"/><stop offset="1" stop-color="#241d1e" stop-opacity="0"/></linearGradient><linearGradient id="linear-gradient-19" x1="45.4" y1="21.5" x2="45.4" y2="16.7" gradientUnits="userSpaceOnUse"><stop offset="0" stop-color="#f6f8f8"/><stop offset=".9" stop-color="#f6f8f8"/><stop offset="1" stop-color="#f6f8f8"/></linearGradient><linearGradient id="linear-gradient-20" x1="326.9" y1="18.1" x2="331.8" y2="18.1" gradientTransform="translate(-241)" gradientUnits="userSpaceOnUse"><stop offset="0" stop-color="#241d1e"/><stop offset=".2" stop-color="#292323"/><stop offset=".5" stop-color="#373333"/><stop offset=".8" stop-color="#4f4d4d"/><stop offset="1" stop-color="#5c5b5b"/></linearGradient><linearGradient id="linear-gradient-21" x1="1478.6" y1="17.9" x2="1483.4" y2="17.9" gradientTransform="matrix(-1 0 0 1 1529.1 0)" xlink:href="#linear-gradient-20"/><linearGradient id="linear-gradient-22" x1="26.5" y1="18" x2="31.4" y2="18" gradientTransform="translate(19.1)" gradientUnits="userSpaceOnUse"><stop offset="0" stop-color="#afafb0"/><stop offset=".1" stop-color="#9a9a9b"/><stop offset=".4" stop-color="#6d6d6d"/><stop offset=".5" stop-color="#5c5b5b"/></linearGradient><linearGradient id="linear-gradient-23" x1="1178.1" y1="18.1" x2="1183" y2="18.1" gradientTransform="matrix(-1 0 0 1 1269 0)" gradientUnits="userSpaceOnUse"><stop offset="0" stop-color="#9a9a9a"/><stop offset=".1" stop-color="#888787"/><stop offset=".4" stop-color="#686767"/><stop offset=".5" stop-color="#5c5b5b"/></linearGradient><linearGradient id="linear-gradient-24" x1="68.2" y1="59.2" x2="68.2" y2="68.1" gradientUnits="userSpaceOnUse"><stop offset="0" stop-color="#dbdcdc"/><stop offset=".7" stop-color="#717171"/><stop offset="1" stop-color="#939494"/></linearGradient><linearGradient id="linear-gradient-25" x1="68.2" y1="59.2" x2="68.2" y2="68.1" gradientUnits="userSpaceOnUse"><stop offset="0" stop-color="#eeeeef"/><stop offset=".7" stop-color="#c6c7c7"/><stop offset="1" stop-color="#d4d4d5"/></linearGradient><style>.cls-1{fill:#fff}.cls-11{fill:#241d1e}.cls-12{fill:#727172}.cls-28{fill:#454242}</style></defs><path class="cls-1" d="M68.2 52.8c-9 0-16.3-2-20.7-5.7s-6.5-9-6.7-16.3A20.5 20.5 0 0 1 48 14c4.5-3.4 10.8-5 20-5 9.5 0 15.9 1.6 20.2 5a21.2 21.2 0 0 1 7.2 16.8c-.2 7.4-2.4 12.5-6.8 16.2s-11.8 5.8-20.4 5.8Zm0-40.6a35.2 35.2 0 0 0-6.8.6 16.7 16.7 0 0 0-7 2.8c-5.8 3.9-7 10.3-7 15 0 7.2 2.4 12.5 7.2 15.6 3 2 7.2 2.8 13.6 2.8 6 0 9.8-.7 13.2-2.7S89 40 89 30.6c0-6.9-2.3-12-7-15a16.5 16.5 0 0 0-7-2.8 34.5 34.5 0 0 0-6.7-.6Z"/><path class="cls-1" d="M68.3 40.8c-.5 0-.6-.3-1-1.2l-.8-1.7a15.1 15.1 0 0 0-7.7-7.2l-3.5-1.1a35.4 35.4 0 0 1-7.6-3l-.1-1.3v-3.5l2.3-1.6a22.7 22.7 0 0 0 2.9 1.6l2.3 1a55.4 55.4 0 0 1 7.2 3.5 19.4 19.4 0 0 1 5.4 6.1c.2.4.4.5.5.5s.2-.1.4-.5a18.6 18.6 0 0 1 5.4-6.1 40.5 40.5 0 0 1 7-3.4l3.2-1.3a16 16 0 0 0 2.2-1.2l2.2 1.4v4.8a18.4 18.4 0 0 1-6 2.3h-.2c-6.6 1.8-10.9 4.8-12.6 9l-.5 1.3c-.3 1-.5 1.6-1 1.6Z"/><path id="in_sf_base" data-name="in sf base" d="M62 48.8c-5.8-.8-14.6-3.9-14.6-18.4C47.4 22 51 12 68.2 12c15.4 0 20.7 8.3 20.7 18.3 0 13.6-8 17.2-14.5 18.3a50.3 50.3 0 0 1-12.5 0Zm30.7-18.3c0-11.1-5.3-20.3-24.5-20.3-20.1 0-24.4 11.1-24.4 20.3 0 15.3 10.3 19 17.8 20a63.7 63.7 0 0 0 12.8 0c7.4-.9 18.3-4.6 18.3-20Z" fill="url(#linear-gradient)" fill-rule="evenodd"/><path id="in_sf_base-2" data-name="in sf base" d="M62 48.8c-5.8-.8-14.6-3.9-14.6-18.4C47.4 22 51 12 68.2 12c15.4 0 20.7 8.3 20.7 18.3 0 13.6-8 17.2-14.5 18.3a50.3 50.3 0 0 1-12.5 0Zm30.7-18.3c0-11.1-5.3-20.3-24.5-20.3-20.1 0-24.4 11.1-24.4 20.3 0 15.3 10.3 19 17.8 20a63.7 63.7 0 0 0 12.8 0c7.4-.9 18.3-4.6 18.3-20Z" fill="url(#linear-gradient-2)" fill-rule="evenodd"/><path d="M68.3 10.5V12c-15.6 0-21 8.3-21 18.8 0 9.5 4.2 14.4 8.8 16.5 5.3 2.5 11.4 2 8.5 3.1-.7.3-1.3.7-3.8.4C53.4 50 44 46.2 44 30.8c0-11 5.2-20.3 24.4-20.3Z" fill="url(#linear-gradient-3)" fill-rule="evenodd"/><path id="out_sf_base" data-name="out sf base" d="M95.3 31c0 5.8-2 12-6.7 16-5 4-12.8 5.8-20.5 5.8-8.3 0-15.4-1.6-20.9-6.1A21.5 21.5 0 0 1 41 30.9c0-6.3 2-12.9 7.2-16.8a36 36 0 0 1 20-5c7.7 0 15.1 1.2 20 5.2s7.2 10.5 7.2 16.6Zm-2.7-.3c0-10.3-6-20.2-24.5-20.2-20.1 0-24.4 11-24.4 20.3 0 15.6 10.7 19.2 18.2 20a57.4 57.4 0 0 0 12.6 0c4.5-.6 18-3.5 18-20Z" fill="url(#linear-gradient-4)" fill-rule="evenodd"/><path d="M44.3 25.6c1-2.6 2-7 5.5-10.1a26.4 26.4 0 0 1 12.7-5 9.8 9.8 0 0 0-2.3-.8c-5.6.8-10.4 2.3-13.8 5.9a21 21 0 0 0-5.2 11l3-1Z" opacity=".7" fill="url(#linear-gradient-5)" fill-rule="evenodd"/><path id="in_up_right" data-name="in up right" d="M68 11.4c6.4 0 12.6 1 16.5 6-6-7.3-26-7.5-32.6 0 3.8-4.4 9.5-6 16-6Z" fill="url(#linear-gradient-6)" fill-rule="evenodd"/><path id="in_up_right-2" data-name="in up right" d="M68.2 49.8c-7.1 0-11.3-1-14.9-4.2-.4-.4-.4-.4.1 0a15.6 15.6 0 0 0 3.7 2 33.1 33.1 0 0 0 11.1 1.6 33 33 0 0 0 10-1.3 17.1 17.1 0 0 0 5.2-2.9c.5-.4.5-.4 0 0-3.8 3.4-8.4 4.8-15.2 4.8Z" fill="url(#linear-gradient-7)" fill-rule="evenodd"/><path d="M93.3 40.3a6 6 0 0 0 .5-1.1l-.2.4a3.4 3.4 0 0 1-.4.7 2.2 2.2 0 0 1-1 .7l-1.7 1c-.2 0-.3.1-.8.7l-.8 1c-.5.7-2 1.8-2.7 2.5s-.5.7.5.3l2.9-1.1a3 3 0 0 0 1-.7 20.1 20.1 0 0 0 2.7-4.4Z" fill="#252020" fill-rule="evenodd"/><path d="M43.8 30.7a21 21 0 0 1 6-15.2 26.7 26.7 0 0 1 12.6-5 9.6 9.6 0 0 0-2.4-.9c-5.6.9-10.4 2.5-13.8 6-3.6 3.8-5.3 10-5.4 14.3l3 .8Z" fill="url(#linear-gradient-8)" opacity=".9" fill-rule="evenodd"/><path id="in_line" data-name="in line" class="cls-11" d="M68.2 12.2a34.5 34.5 0 0 1 6.7.6 16.7 16.7 0 0 1 7 2.8c4.6 3 7 8.1 7 15 0 9.3-4.1 13.6-7.5 15.6S74.2 49 68.2 49c-6.5 0-10.7-.9-13.7-2.8-4.7-3.2-7.1-8.4-7.1-15.6 0-4.7 1.2-11.2 7-15a17 17 0 0 1 7-2.9 35.2 35.2 0 0 1 6.8-.5Zm0 0a35 35 0 0 0-6.8.5 17 17 0 0 0-7 2.8c-5.5 3.7-7 9.8-7 15.1 0 7.4 2.5 12.6 7.2 15.7C58 48.5 62.9 49 68.2 49c5.6 0 9.5-.6 13.3-2.8 4.3-2.5 7.5-7.4 7.5-15.7 0-6.4-2-11.8-7-15a16.5 16.5 0 0 0-7-2.9 34.9 34.9 0 0 0-6.8-.6Z"/><path id="in_line-2" data-name="in line" class="cls-12" d="M68.2 12.1a34.9 34.9 0 0 1 6.7.6 16.5 16.5 0 0 1 7.1 2.8c5 3.3 7 8.7 7 15 0 8.4-3.2 13.3-7.5 15.8a24.8 24.8 0 0 1-13.2 2.8c-5.4 0-10.3-.6-13.7-2.8-4.7-3.1-7.2-8.3-7.2-15.7 0-5.4 1.5-11.4 7-15a17 17 0 0 1 7-2.9 35 35 0 0 1 6.8-.6Zm0-.1a35.6 35.6 0 0 0-6.8.6 17 17 0 0 0-7.1 2.8c-5.9 4-7.1 10.5-7.1 15.2 0 7.3 2.4 12.6 7.3 15.8 3 2 7.2 2.8 13.7 2.8 6 0 9.8-.8 13.3-2.8S89 40 89 30.6c0-7-2.3-12-7-15.2a16.8 16.8 0 0 0-7-2.8 35.6 35.6 0 0 0-6.8-.6Z"/><path id="outline" class="cls-11" d="M68 9c8 0 15.3 1.2 20.2 5s7.4 10.8 7.2 16.9c-.2 6.8-2 12.1-6.8 16-5 4.2-12.7 5.8-20.4 5.8S52.5 51.2 47.5 47c-4.5-3.8-6.4-9.4-6.7-16.2s2.4-13 7.3-16.7C53.4 10 61 9 68 9Zm0 0c-9.1 0-15.5 1.6-20 5-4.7 3.6-7.4 10-7.2 16.9.3 7.3 2.5 12.6 6.7 16.2s11.8 5.7 20.7 5.7c8.7 0 16-2 20.4-5.8s6.7-8.8 6.9-16.1c.2-6.6-2.6-13.2-7.2-16.8C84 10.6 77.5 9 68 9Z"/><path id="outline-2" data-name="outline" d="M68 9.2c9.5 0 15.9 1.6 20.1 5A21 21 0 0 1 95.3 31c-.3 7.3-2.4 12.3-6.8 16s-11.7 5.7-20.3 5.7c-9 0-16.2-2-20.6-5.7s-6.4-8.8-6.6-16a20.1 20.1 0 0 1 7.2-16.7c4.4-3.4 10.7-5 19.9-5Zm0-.1c-7 0-14.6.9-20 5-4.8 3.7-7.4 10.1-7.2 16.8S43 43.2 47.6 47c5 4.2 12.8 5.7 20.6 5.7s15.4-1.6 20.4-5.7c4.7-4 6.6-9.3 6.8-16 .2-6-2.3-13-7.2-16.9s-12.2-5-20.1-5Z" fill="#5c5b5b"/><path d="M82.2 13c1.1.2 5.3 1 6.7 2l1.1.8-2.5.9a18.6 18.6 0 0 0-5.3-3.7Z" fill="url(#linear-gradient-9)" opacity=".2" fill-rule="evenodd"/><path d="M53.9 13c-2.5.5-5.8 1.3-7.1 2.2a19.9 19.9 0 0 0-2.3 2.6l2.4-2 2-.6a6.4 6.4 0 0 0 2.7-1c1.1-.8 4.7-1.9 2.3-1.3Z" fill-opacity=".4" fill="url(#linear-gradient-10)" opacity=".2" fill-rule="evenodd"/><path class="cls-1" d="M68.2 51.2a60.3 60.3 0 0 1-7.8-.5c-6.3-.9-16.8-4.6-16.8-20 0-9.2 4.4-16 12-18.7a37.6 37.6 0 0 1 12.6-1.8c9 0 15.5 2.2 19.7 6.7 3.2 3.4 4.8 8 4.8 13.7 0 14.7-9.7 19-17.7 20.1a49.7 49.7 0 0 1-6.8.5Zm0-40.6a37.3 37.3 0 0 0-12.4 1.8C48.3 15 44 21.6 44 30.6c0 14.4 9 18.6 16.4 19.6a50 50 0 0 0 14.5 0c8-1 17.4-5.3 17.4-19.6 0-5.7-1.5-10.2-4.6-13.5-4.2-4.5-10.5-6.6-19.5-6.6Z"/><path d="M68.2 51.3a60.3 60.3 0 0 1-7.8-.6A19.9 19.9 0 0 1 49.2 46c-3.7-3.5-5.7-8.6-5.7-15.2 0-9.2 4.4-16 12.1-18.8a37.7 37.7 0 0 1 12.6-1.8c9 0 15.6 2.2 19.8 6.8 3.2 3.4 4.8 8 4.8 13.7 0 14.7-9.7 19.1-17.8 20.2a48.3 48.3 0 0 1-6.8.5Zm0-41A37.4 37.4 0 0 0 55.7 12c-7.6 2.7-12 9.5-12 18.6 0 6.6 1.9 11.7 5.6 15.2a19.7 19.7 0 0 0 11 4.7 58.5 58.5 0 0 0 8 .6 49.6 49.6 0 0 0 6.7-.5c8-1 17.7-5.5 17.7-20A19 19 0 0 0 87.9 17c-4.2-4.5-10.7-6.7-19.7-6.7Z" opacity=".5" fill="#c5c5c4"/><path d="M68.2 10.6a37.3 37.3 0 0 0-12.4 1.8C48.3 15 44 21.6 44 30.6c0 14.4 9 18.6 16.4 19.6a59.6 59.6 0 0 0 7.8.6 49 49 0 0 0 6.7-.5c8-1 17.4-5.4 17.4-19.7 0-5.7-1.5-10.1-4.6-13.5-4.2-4.5-10.5-6.6-19.5-6.6Z" fill="none"/><path d="M42.8 39.6a2 2 0 0 0 1 1.2l1.3.6c.8.3 1.4 1.3 2 2a25.8 25.8 0 0 0 2.9 2.9 23.2 23.2 0 0 0 5.1 3c.2 0 4.8 2 4.3 2.4a43.2 43.2 0 0 1-4.6-1.2 19 19 0 0 1-10.2-7 23.6 23.6 0 0 1-1.9-3.7c-.2-.7-.2-.6 0-.2Z" fill="url(#linear-gradient-11)" fill-rule="evenodd"/><path d="M92 25.7c-1-2.7-2.1-7.1-5.5-10.2a26.4 26.4 0 0 0-12.7-4.9 9.5 9.5 0 0 1 2.3-.9c5.6.8 10.4 2.5 13.8 6a19.4 19.4 0 0 1 4.7 9.4l-2.6.6Z" fill="url(#linear-gradient-12)" opacity=".9" fill-rule="evenodd"/><path id="wing_low_sf" data-name="wing low sf" d="M76 27.3h-.1c-1.3.7-7.6 7.5-7.7 7.7a82.3 82.3 0 0 1-7-5.5 324 324 0 0 0-11.5-4.3L47 25a5.7 5.7 0 0 0 .9 1.7c2.8 1.8 8.5 3 11.4 4.2 3.6 1.4 6 4.6 7.3 7 .9 1.5 1 2.8 1.6 2.8s1-1.4 1.4-2.3c2-4.6 4.4-7.4 13-9.5 5.3-1.4 6-2.5 6-2.5l1.1-2.6S77.5 26.6 76 27.3Z" fill="url(#linear-gradient-13)"/><path d="M46.6 24.2a20.6 20.6 0 0 0 1.2 2.5 22.8 22.8 0 0 0 3 1.2c3.8 1.3 8.6 2 10 2.7 5 2.3 6.1 4.6 7.3 6.5a15.4 15.4 0 0 0-2.8-4.7c-2.6-3.2-4.2-4-8-5.3l-5.2-2a35.4 35.4 0 0 1-6.5-3.4s.6 1.5 1 2.5Z" fill="url(#linear-gradient-14)" fill-rule="evenodd"/><path d="M71.4 28.7a13 13 0 0 1 3.7-3c3.5-2 9-3.2 12.6-6a16.3 16.3 0 0 0 3-2.8 7 7 0 0 1 .4 1.9 11.7 11.7 0 0 1 0 1.7 7 7 0 0 1-.3 1.2 32.7 32.7 0 0 1-6.2 3.3l-5.5 2a17.3 17.3 0 0 0-9.8 8.5 8.2 8.2 0 0 1-1.1 1.7V33l.3-.4a27.4 27.4 0 0 1 2.9-4Z" fill="url(#linear-gradient-15)" fill-rule="evenodd"/><path d="M90.7 21.8A37.7 37.7 0 0 1 84 25l-4.7 1.6a17.3 17.3 0 0 0-8.5 6 13.9 13.9 0 0 0-2.5 4.4v3.6a.3.3 0 0 0 .3-.2 13.6 13.6 0 0 0 0-1.7 2 2 0 0 1 .4-1.3l.7-1.3c1.5-2.3 4.3-4.1 7-5.4 2.5-1.2 6.2-2 8.6-2.8a27.3 27.3 0 0 0 3.3-1.3 11.1 11.1 0 0 0 1-2.1l1-2.7Z" fill="url(#linear-gradient-16)" fill-rule="evenodd"/><path d="M67.6 32.6c.3.5.5.4.6.4v4.1c0 .1 0-.2-1-1.7-3.3-6-6.6-7.2-9.6-8.3l-5.9-2.3a33.7 33.7 0 0 1-6.3-3.3v-1a14.4 14.4 0 0 1 0-2 8.3 8.3 0 0 1 .2-1.8 13.8 13.8 0 0 0 3.7 3.3 36.2 36.2 0 0 0 5.4 2.8 53.6 53.6 0 0 1 6.5 3.1 14.7 14.7 0 0 1 4 3.2 20 20 0 0 1 2.4 3.5Z" fill="url(#linear-gradient-17)" fill-rule="evenodd"/><path d="M63 27.2a16 16 0 0 1 3.3 4.4c.8 1.4 1 1.5 1.9 5l-.3-3.4-2-3a25 25 0 0 0-2.9-3Z" fill="#454242" fill-rule="evenodd"/><path class="cls-11" d="M68.3 40.8c-.5 0-.6-.3-1-1.2l-.8-1.7a15 15 0 0 0-7.7-7.2l-3.5-1.1a35 35 0 0 1-7.7-3 34.7 34.7 0 0 0 7.7 2.9c1.3.4 2.6.7 3.5 1.1a15.3 15.3 0 0 1 7.8 7.2l.8 1.8c.4.9.5 1 .9 1s.6-.4 1-1.4c0-.4.3-.8.5-1.4a13.4 13.4 0 0 1 6.4-6.7 27.1 27.1 0 0 1 6.2-2.3h.2a18.4 18.4 0 0 0 6-2.3v.1a18.6 18.6 0 0 1-6 2.3h-.1c-6.6 1.7-10.9 4.7-12.6 9l-.5 1.3c-.4 1-.6 1.6-1.1 1.6Z"/><path class="cls-12" d="M68.3 40.7c-.4 0-.6-.3-1-1.2l-.8-1.8a15 15 0 0 0-7.7-7.1 35.8 35.8 0 0 0-3.4-1.1 31.1 31.1 0 0 1-7.8-3 31 31 0 0 0 7.7 3l3.5 1a15.2 15.2 0 0 1 7.7 7.2l.9 1.8c.4.9.5 1.1.8 1.1s.7-.5 1-1.4l.6-1.5a13.3 13.3 0 0 1 6.4-6.6 26.3 26.3 0 0 1 6.2-2.3h.2a19.6 19.6 0 0 0 6-2.4 20 20 0 0 1-6 2.4h-.2c-6.7 1.7-10.9 4.7-12.6 9l-.5 1.4c-.3 1-.5 1.5-1 1.5Z"/><path class="cls-1" d="M68.2 37.2a.2.2 0 0 1-.2-.1 24.5 24.5 0 0 0-2.3-4A17.8 17.8 0 0 0 63 30a13.4 13.4 0 0 0-4.9-2.7l-1.9-.7-4.5-1.7-1.4-.6a24.7 24.7 0 0 1-4.6-2.6.2.2 0 0 1 0-.2.2.2 0 0 1 .2 0 24.4 24.4 0 0 0 4.5 2.4l1.4.6c1 .5 3 1.2 4.6 1.8l1.8.6a13.6 13.6 0 0 1 5 2.8 18.5 18.5 0 0 1 2.9 3.2 25.7 25.7 0 0 1 2.1 3.6 21 21 0 0 1 2.2-3.7 19 19 0 0 1 3.7-3.7 18.8 18.8 0 0 1 4.8-2.5l2.6-1a45 45 0 0 0 4.6-1.8 33 33 0 0 0 4.6-2.4.2.2 0 0 1 .2 0 .2.2 0 0 1 0 .3 32.9 32.9 0 0 1-4.6 2.5 49 49 0 0 1-4.7 1.8L79 27a18 18 0 0 0-4.7 2.3 18.8 18.8 0 0 0-3.5 3.7 19.4 19.4 0 0 0-2.3 4 .2.2 0 0 1-.2.1Z"/><path class="cls-12" d="M68.2 33.2c-.2 0-.4-.2-.6-.5a19.3 19.3 0 0 0-5.4-6.1A54.4 54.4 0 0 0 55 23l-2.3-1a23.5 23.5 0 0 1-3-1.6v-.1a23.2 23.2 0 0 0 3 1.6l2.3 1a55.4 55.4 0 0 1 7.2 3.6 19.4 19.4 0 0 1 5.5 6.1c.1.3.3.5.4.5s.2-.1.4-.5a18.7 18.7 0 0 1 5.5-6.2 41.8 41.8 0 0 1 7.1-3.4l3.1-1.3a19.5 19.5 0 0 0 2.5-1.4v.1a19 19 0 0 1-2.4 1.4l-3.1 1.3a41.2 41.2 0 0 0-7.1 3.3 18.4 18.4 0 0 0-5.4 6.2c-.2.4-.4.6-.5.6Z"/><path class="cls-11" d="M68.2 33c-.2 0-.4-.1-.6-.5a19.3 19.3 0 0 0-5.4-6 55.5 55.5 0 0 0-7.2-3.6l-2.3-1a23 23 0 0 1-3-1.5l.1-.1a23.4 23.4 0 0 0 3 1.5l2.3 1a55.4 55.4 0 0 1 7.2 3.6 19.3 19.3 0 0 1 5.4 6l.4.5c.1 0 .3 0 .4-.4a18.6 18.6 0 0 1 5.5-6.3 41.8 41.8 0 0 1 7-3.3l3.2-1.3a15.8 15.8 0 0 0 2.3-1.2 15.6 15.6 0 0 1-2.2 1.3L81 23a40.8 40.8 0 0 0-7 3.3 18.6 18.6 0 0 0-5.4 6.2c-.2.4-.4.6-.5.6Z"/><path class="cls-1" d="m68.2 36.5-.1-3.3h.2l-.1 3.3zM49 16.7a17.1 17.1 0 0 1 6.7-4.3 37.3 37.3 0 0 1 12.5-1.8c8.7 0 15 2 19 6.2l.2.1.3-.2-.1-.1c-4.2-4.3-10.6-6.4-19.4-6.4A37.6 37.6 0 0 0 55.6 12a17.6 17.6 0 0 0-7 4.5s.1 0 .2 0l.1.2h.1Z"/><path d="M87.4 17c-4.2-4.3-10.5-6.3-19.1-6.3a37.5 37.5 0 0 0-12.5 1.7 17.2 17.2 0 0 0-6.7 4.3s0 0-.1 0a.5.5 0 0 1-.2 0 .3.3 0 0 1-.1 0 .2.2 0 0 1 0-.1 17.8 17.8 0 0 1 7-4.5 37.7 37.7 0 0 1 12.6-1.8c8.8 0 15.2 2 19.4 6.4h.1l.1.2h-.2l-.2.2Zm-19.2-6.5c8.7 0 15 2 19.2 6.3l.2-.2c-4.3-4.3-10.6-6.3-19.4-6.3A37.4 37.4 0 0 0 55.7 12a17.5 17.5 0 0 0-7 4.4H49a17.3 17.3 0 0 1 6.7-4.3 37.5 37.5 0 0 1 12.5-1.7Z" fill="#c5c5c4"/><path class="cls-1" d="M90.5 21.4a34.3 34.3 0 0 1-4.5 2.4 45 45 0 0 1-4.6 1.9l-2.7 1A18.2 18.2 0 0 0 74 29a19 19 0 0 0-3.6 3.7 21 21 0 0 0-2.2 3.7A25.7 25.7 0 0 0 66 33a18.5 18.5 0 0 0-3-3.2 13.6 13.6 0 0 0-5-2.7l-1.8-.7-4.6-1.7-1.4-.6a23 23 0 0 1-4.4-2.5c-.3-.1-.4 0-.5.2a22.9 22.9 0 0 0-1.7 9c0 6.6 1.9 11.7 5.6 15.2a19.9 19.9 0 0 0 11.1 4.8 60.3 60.3 0 0 0 7.9.5 49.7 49.7 0 0 0 6.8-.5c8-1 17.7-5.4 17.7-20a22.4 22.4 0 0 0-1.7-9c0-.3-.3-.4-.5-.3ZM75 50.5a49 49 0 0 1-6.7.5 59.6 59.6 0 0 1-7.8-.6C53 49.3 44 45 44 30.7a22.6 22.6 0 0 1 1.7-8.9 24.1 24.1 0 0 0 4.4 2.5l1.4.6 4.6 1.7 1.9.7a13.4 13.4 0 0 1 4.8 2.7 17.8 17.8 0 0 1 3 3.2A24.5 24.5 0 0 1 68 37a.2.2 0 0 0 .2 0 .2.2 0 0 0 .1 0 18.8 18.8 0 0 1 2.4-4 18.5 18.5 0 0 1 3.5-3.7 18 18 0 0 1 4.7-2.4l2.6-1a49 49 0 0 0 4.7-1.8 35.8 35.8 0 0 0 4.5-2.4 22.1 22.1 0 0 1 1.6 8.9C92.3 45 83 49.3 75 50.4Z"/><path d="M68.2 51a58 58 0 0 1-7.8-.6C53 49.4 44 45 44 30.7a22.5 22.5 0 0 1 1.7-9 23.8 23.8 0 0 0 4.5 2.5l1.4.6 4.6 1.7 1.8.7a13.4 13.4 0 0 1 5 2.7 18 18 0 0 1 2.9 3.2A23.6 23.6 0 0 1 68 37a.1.1 0 0 0 .2 0 18.5 18.5 0 0 1 2.3-4 19.2 19.2 0 0 1 3.6-3.7 18 18 0 0 1 4.7-2.4l2.6-1a46.4 46.4 0 0 0 4.7-1.8 32.7 32.7 0 0 0 4.5-2.4v.1a22 22 0 0 1 1.7 8.9c0 14.4-9.5 18.7-17.5 19.8a49 49 0 0 1-6.7.4ZM45.7 21.8a22.4 22.4 0 0 0-1.6 8.8C44 45 53 49.2 60.4 50.2a59.6 59.6 0 0 0 7.8.6 50.5 50.5 0 0 0 6.7-.5c8-1 17.4-5.3 17.4-19.6a21.9 21.9 0 0 0-1.6-8.8 38.1 38.1 0 0 1-4.5 2.3c-2 1-3.2 1.4-4.6 1.9l-2.7 1a17.8 17.8 0 0 0-4.6 2.3 18.4 18.4 0 0 0-3.6 3.7 19.2 19.2 0 0 0-2.3 4 .3.3 0 0 1-.2.1.3.3 0 0 1-.2-.1 22.4 22.4 0 0 0-2.3-4 18 18 0 0 0-2.9-3 13.2 13.2 0 0 0-4.9-2.7l-1.8-.7-4.6-1.7-1.4-.6a23.8 23.8 0 0 1-4.4-2.5Z" fill-opacity=".8" fill="url(#linear-gradient-18)"/><path class="cls-28" d="m88.7 26.4 1-2 1-2.5-1 2.5-1 2Z"/><path d="M45.5 16.9c0-.2.1-.2.1 0a14.3 14.3 0 0 0-.1 2.8 12 12 0 0 0 .1 1.6s-.2 0-.3.2a13.8 13.8 0 0 1 .2-4.6Z" fill="url(#linear-gradient-19)" fill-rule="evenodd"/><path d="M90.9 17c0-.1-.1-.1 0 0a14.3 14.3 0 0 1 .1 2.8 13.5 13.5 0 0 1-.1 1.6.6.6 0 0 1 .2.3 14.2 14.2 0 0 0-.2-4.6Z" fill="#dadbda" fill-rule="evenodd"/><path d="m88.8 18.7-2.1 1.7-.8-1.3 1.4-2.1a1.4 1.4 0 0 1 .6-.4l1.9-.8 1 1.1Z" fill="url(#linear-gradient-20)" fill-rule="evenodd"/><path d="m47.5 18.5 2.2 1.7.8-1.2-1.5-2.1a1.4 1.4 0 0 0-.5-.4l-1.9-.8-1 1Z" fill="url(#linear-gradient-21)" fill-rule="evenodd"/><path d="m50.5 19-.4.7-.4.7a27.4 27.4 0 0 1-2.4-1.9 13.6 13.6 0 0 1-1.7-1.8l1-1v.3a26.2 26.2 0 0 0 3.5 3 .5.5 0 0 0 .4 0Z" fill="url(#linear-gradient-22)" fill-rule="evenodd"/><path class="cls-1" d="m89.8 15.8-1.9.7a.4.4 0 0 1-.4 0c-4.3-4.3-10.6-6.3-19.3-6.3A37.6 37.6 0 0 0 55.6 12a17.7 17.7 0 0 0-6.7 4.2.3.3 0 0 1-.3.1l-2-.7 2 .9a1.3 1.3 0 0 1 .4.3l1.5 2.2-1.3-2a.3.3 0 0 1 0-.4 17.3 17.3 0 0 1 6.5-4.2 37.3 37.3 0 0 1 12.5-1.8c8.6 0 14.8 2 19 6.2a.3.3 0 0 1 0 .3c-.2.3-1 1.7-1.4 2.1l1.5-2.1a1.6 1.6 0 0 1 .6-.4l1.8-.8Z"/><path d="m85.9 19.2.8 1.3a24.1 24.1 0 0 0 2.3-1.8 13.4 13.4 0 0 0 1.8-1.8l-1-1.1-.2.4a25.6 25.6 0 0 1-3.4 2.9.4.4 0 0 1-.3 0Z" fill="url(#linear-gradient-23)" fill-rule="evenodd"/><path class="cls-28" d="m47.6 26.4-1-2-.9-2.5 1 2.5 1 2Z"/><path d="M93.4 68.5a13.9 13.9 0 0 1-2.5-.1 2.8 2.8 0 0 1-2-2.9 2.8 2.8 0 0 1 2.1-2.8 8.6 8.6 0 0 1 2-.2h4.3V62c0-.8-.5-1-1.5-1h-6.2v-2.3h7c1.5 0 2.5.2 3.3 1s.7 1.4.7 2.7v6.1Zm0-4a1.7 1.7 0 0 0-1.2.2.9.9 0 0 0-.2.7.9.9 0 0 0 .2.6 1.7 1.7 0 0 0 1.2.3h4v-1.9Zm-25.6 4 3.3-2.4h4.3v2.4Zm-11 0a12.8 12.8 0 0 1-2.4-.1 2.9 2.9 0 0 1-2-2.9 2.8 2.8 0 0 1 2-2.8 7.7 7.7 0 0 1 2-.2H61V62c0-.8-.5-1-1.5-1h-6.2v-2.3H60a4.3 4.3 0 0 1 3.2 1c.8.6.7 1.4.7 2.7v4.2l10.8-7.9H83a10.1 10.1 0 0 1 3.3.4 3 3 0 0 1 1.9 1.5 7.2 7.2 0 0 1 .4 3 7.2 7.2 0 0 1-.4 3 3 3 0 0 1-1.9 1.5 10.3 10.3 0 0 1-3.3.4h-6.4v-7.9l-10.9 8Zm0-4a1.5 1.5 0 0 0-1.2.2.9.9 0 0 0-.2.7.8.8 0 0 0 .3.6 1.5 1.5 0 0 0 1 .3h4v-1.9Zm26 1.6c1.3 0 1.6 0 2-.3.5-.4.6-1 .6-2.2s-.1-1.7-.6-2.1c-.3-.3-.7-.4-2-.4h-2.9v5Zm-34 2.4v-5.9a1.4 1.4 0 0 0-.4-1 1.5 1.5 0 0 0-1.1-.3h-1.8v7.3h-3.2v-7.4H39v7.3h-3.3v-9.8H48c3 0 4 .8 4 3.1v6.7ZM65 61.1v-2.4h7.9l-3.3 2.4Z" fill="#252020"/><path d="M93.4 68a14 14 0 0 1-2.3 0 2.5 2.5 0 0 1 0-4.8 8.4 8.4 0 0 1 2-.2h4.8v-1c0-1.4-1.4-1.4-2-1.4h-5.8v-1.4h6.5a4 4 0 0 1 3 .8c.5.5.5 1.1.5 2.4V68Zm0-4a2.1 2.1 0 0 0-1.5.4 1.4 1.4 0 0 0-.4 1 1.3 1.3 0 0 0 .4 1 2.1 2.1 0 0 0 1.5.5h4.4v-3Zm-24.1 4 2-1.4h3.6v1.5Zm-12.6 0a13.3 13.3 0 0 1-2.2 0 2.5 2.5 0 0 1 0-4.8 7.8 7.8 0 0 1 1.9-.2h4.9v-1c0-1.4-1.3-1.4-2-1.4h-5.6v-1.4H60a4 4 0 0 1 2.9.8c.6.5.6 1.1.6 2.4v5.2l11.3-8.4h8.3a9.7 9.7 0 0 1 3.1.3 2.4 2.4 0 0 1 1.6 1.3 6.8 6.8 0 0 1 .5 2.8 6.8 6.8 0 0 1-.5 2.8 2.4 2.4 0 0 1-1.6 1.3 9.7 9.7 0 0 1-3.1.4h-6v-8.4L65.8 68Zm0-4a2 2 0 0 0-1.4.4 1.4 1.4 0 0 0-.4 1 1.3 1.3 0 0 0 .4 1 2 2 0 0 0 1.5.5h4.4v-3Zm22.7 2.6h3.4c1.3 0 1.8 0 2.3-.4.7-.6.8-1.3.8-2.6s-.1-2-.8-2.5c-.5-.4-1-.5-2.3-.5h-3.3Zm-30.1 1.5v-5.5a1.8 1.8 0 0 0-.5-1.3 2 2 0 0 0-1.5-.6H45v7.4h-2.2v-7.4h-4.3v7.4h-2.3v-8.9H48c3 0 3.6.9 3.6 2.6v6.3Zm16.2-7.4v-1.5h5.9l-2 1.4Z" fill="url(#linear-gradient-24)"/><path d="M69.3 68h5.6v-1.4h-3.7Zm5.5-1.3V68h-5.2l1.7-1.2ZM99.5 60a4 4 0 0 0-2.9-.8h-6.5v1.4H96c.6 0 2 0 2 1.4v1H93a8.4 8.4 0 0 0-2 .2 2.5 2.5 0 0 0 0 4.7 14 14 0 0 0 2.3.2h6.7v-5.7c0-1.3 0-1.9-.6-2.4Zm.5 2.4V68h-6.6a12.4 12.4 0 0 1-2.3-.2 2.4 2.4 0 0 1 0-4.5 8.1 8.1 0 0 1 2-.2H98V62c0-1.5-1.4-1.5-2-1.5h-5.8v-1.2h6.4a3.8 3.8 0 0 1 2.9.8c.5.5.5 1 .5 2.3Zm-44.8 2a1.4 1.4 0 0 0-.4 1 1.4 1.4 0 0 0 .5 1 2 2 0 0 0 1.5.6h4.6v-3.2h-4.6a2 2 0 0 0-1.5.5Zm6 2.4h-4.4a2 2 0 0 1-1.5-.4 1.3 1.3 0 0 1-.3-1 1.4 1.4 0 0 1 .3-1 2 2 0 0 1 1.5-.5h4.5ZM48 59.2H36.2v8.9h2.3v-7.4h4.3v7.4H45v-7.4h2.3a2 2 0 0 1 1.5.6 1.8 1.8 0 0 1 .5 1.3v5.5h2.3v-6.3c0-1.7-.6-2.6-3.6-2.6Zm3.5 8.7h-2.1v-5.3a2 2 0 0 0-.5-1.4 2 2 0 0 0-1.6-.6h-2.4V68h-2v-7.3h-4.5V68h-2v-8.6H48c3 0 3.5.8 3.5 2.5Zm19.8-8.7h-5.9v1.4h4Zm-5.7 1.3v-1.2H71l-1.6 1.2Zm20.6-1a9.7 9.7 0 0 0-3.1-.3h-8.3l-11.3 8.4v-5.2c0-1.3 0-1.9-.6-2.4a4 4 0 0 0-2.9-.8h-6.3v1.4h5.6c.7 0 2 0 2 1.4v1h-4.9a7.8 7.8 0 0 0-1.9.1 2.5 2.5 0 0 0 0 4.8 13.3 13.3 0 0 0 2.2.1h9l11.5-8.3V68H83a9.7 9.7 0 0 0 3.1-.3 2.4 2.4 0 0 0 1.6-1.3 6.8 6.8 0 0 0 .5-2.8 6.8 6.8 0 0 0-.5-2.8 2.4 2.4 0 0 0-1.6-1.3Zm1.5 6.9a2.3 2.3 0 0 1-1.5 1.2 9.8 9.8 0 0 1-3.1.3h-5.8v-8.4l-11.7 8.4h-8.8a11.8 11.8 0 0 1-2.3-.1 2.4 2.4 0 0 1 0-4.5 7.5 7.5 0 0 1 1.9-.2h5V62c0-1.5-1.4-1.5-2-1.5h-5.6v-1.2H60a3.8 3.8 0 0 1 2.8.8c.5.5.6 1 .6 2.3v5.4l11.5-8.5H83a9.6 9.6 0 0 1 3.1.4 2.3 2.3 0 0 1 1.5 1.2 6.7 6.7 0 0 1 .4 2.7 6.6 6.6 0 0 1-.4 2.8ZM85.2 61c-.5-.3-1-.5-2.4-.5h-3.5v6.2h3.5c1.4 0 2 0 2.4-.4.8-.6.9-1.4.9-2.6s-.1-2.1-1-2.7Zm0 5.2c-.5.3-1 .4-2.4.4h-3.3v-6h3.3c1.4 0 1.9.1 2.3.5.7.5.9 1.3.9 2.5s-.2 2-.9 2.6Zm6.6-1.9a1.5 1.5 0 0 0-.4 1.1 1.4 1.4 0 0 0 .4 1 2.2 2.2 0 0 0 1.7.6H98v-3.2h-4.5a2.3 2.3 0 0 0-1.7.5Zm6 2.6h-4.3a2.1 2.1 0 0 1-1.6-.5 1.3 1.3 0 0 1-.4-1 1.4 1.4 0 0 1 .4-1 2.1 2.1 0 0 1 1.6-.5h4.4Z" fill="url(#linear-gradient-25)"/></svg>