<svg data-name="Layer 1" xmlns="http://www.w3.org/2000/svg" viewBox="0 0 136.3 77.6"><path fill="none" d="M12.2 16.1h118.6v45.4H12.2z"/><g data-name="Layer 1"><path d="M8.9 61.5h118.6V16.1H8.9Z" fill="#890419"/><path d="M103.3 41.1v1.2a2 2 0 0 0 2.3 1.9 3 3 0 0 0 3-2.2h4.4c-.7 2-3.4 4.5-8.4 4.5-6.6 0-8.6-3.5-8.6-6.2 0-2.9 2.3-6.3 8.5-6.3 5.4 0 8.6 3.1 8.6 6.3a5.7 5.7 0 0 1 0 .9Zm0-2h2.5v-1.5a1.2 1.2 0 0 0-2.5 0Zm-18.2 4.3h-1.8V46h12v-2.5h-1.8V30.8H83.3v2.5h1.8Zm-12.3-2.3v1.2a2 2 0 0 0 2.3 1.9A3 3 0 0 0 78 42h4.4c-.6 2-3.3 4.5-8.4 4.5-6.5 0-8.5-3.5-8.5-6.2 0-3 2.3-6.4 8.5-6.4 5.4 0 8.6 3.1 8.6 6.4a7 7 0 0 1 0 .8Zm0-2h2.5v-1.5a1.3 1.3 0 0 0-2.5 0Zm-11.2-6.7-1.2-2.2-3.6 1.9 1.1 2.2Zm1.4 2.2h-9.8V37H55v6.4h-1.8V46h11.6v-2.5H63Zm-20.3-3.8h9v2.5h-1.9v10.2h1.8V46H40v-2.5h1.8v-6.6L35.2 46l-6.6-9.1v6.6h1.8V46H24v-2.5h1.8V33.3H24v-2.5h10.1l4.3 6Z" fill="#fff"/></g></svg>