<svg id="Layer_1" data-name="Layer 1" xmlns="http://www.w3.org/2000/svg" viewBox="0 0 136.3 77.6"><defs><style>.cls-2{fill-rule:evenodd;fill:#231f20}</style></defs><path d="M66.7 9.3a29.2 29.2 0 0 0-23 47.1l9.4-7.3A17.2 17.2 0 0 1 61 22.3v31.9h11.5V22.3a17.2 17.2 0 0 1 7.9 26.8l9.5 7.3a29.2 29.2 0 0 0-23.2-47Z" fill-rule="evenodd" fill="#0067b1"/><path class="cls-2" d="M97.1 66.6v-.4h.3s.3 0 .3.2-.1.2-.3.2Zm0 .3h.2l.3.7h.5l-.5-.7a.4.4 0 0 0 .4-.5c0-.3-.2-.5-.6-.5h-.6v1.7h.3v-.7Zm1.8-.2a1.5 1.5 0 1 0-1.6 1.5 1.4 1.4 0 0 0 1.6-1.5Zm-.5 0a1.1 1.1 0 0 1-1 1.2 1.1 1.1 0 0 1 0-2.3 1 1 0 0 1 1 1.2ZM59.8 61.2h-5.6c-1.4 0-2 .7-2 2V66a1.9 1.9 0 0 0 .4 1.5 2.6 2.6 0 0 0 1.7.4H60c1.4 0 2-.7 2-2v-2.8c0-1.3-.6-2-2.1-2Zm.3 2.2v3H54v-3.5h6.1v.5Zm4.8-.5h5.6a.4.4 0 0 1 .5.4v.4a.4.4 0 0 1-.5.5H65v-1.3ZM63 68h1.9v-2.2h5.7c1.5 0 2.3-.6 2.3-1.9v-.7c0-1.3-.8-2-2.3-2H63V68Zm12.8-3.8v-.8c0-.4.1-.5.4-.5h5.2a.4.4 0 0 1 .5.5v.8Zm8-1c0-1.3-.7-2-2-2H76c-1.5 0-2.2.6-2.2 2V68h1.9v-2h6v2h2v-4.8Zm2.8-.3h5.7a.4.4 0 0 1 .5.4v.4a.4.4 0 0 1-.5.5h-5.7v-1.3ZM84.7 68h1.9v-2.2H90l2.5 2.2H95a88.4 88.4 0 0 1-2.5-2.2 1.7 1.7 0 0 0 2-1.9v-.7c0-1.3-.7-2-2.2-2h-7.7V68Zm-46.3 0v-6.8h1.9l4.4 4.5 4.5-4.5h2V68h-2v-4.4L44.7 68l-4.4-4.5V68Z"/></svg>