<svg id="Layer_1" data-name="Layer 1" xmlns="http://www.w3.org/2000/svg" viewBox="0 0 136.3 77.6"><defs><style>.cls-1{fill:#01083c}.cls-2{fill:#b2b5d9}.cls-3{fill:#fff}.cls-4{fill:#fdd430}</style></defs><g id="g3861"><g id="g3941"><path id="path3943" class="cls-1" d="m102.4 66.6-3.7-10.2a.4.4 0 0 0-.4-.4h-1.8a.4.4 0 0 0-.4.4l-3.7 10.2c-.1.4 0 .5.3.5h1.8a.4.4 0 0 0 .5-.3l.4-1.2c0-.2.2-.3.3-.3H99a.3.3 0 0 1 .3.2l.3.8c0 .3.3.8 1 .8h1.5c.3 0 .4-.2.3-.5m-4.2-3.4h-1.6c-.3 0-.2-.1-.2-.3l.9-3a60.5 60.5 0 0 0 1.1 3c0 .2 0 .3-.2.3"/></g><g id="g3945"><path id="path3947" class="cls-1" d="M60.4 61.6c0-3.2 1.7-5.8 5-5.8s5 2.6 5 5.8-1.7 5.7-5 5.7-5-2.5-5-5.7m7.4 0c0-2.2-.9-3.4-2.3-3.4S63 59.4 63 61.6s.8 3.3 2.4 3.3 2.4-1.3 2.4-3.3"/></g><g id="g3949"><path id="path3951" class="cls-1" d="M32.7 61.6c0-3.2 1.7-5.8 5-5.8s5 2.6 5 5.8-1.8 5.7-5 5.7-5-2.5-5-5.7m7.4 0c0-2.2-.8-3.4-2.3-3.4s-2.4 1.2-2.4 3.4.8 3.3 2.4 3.3 2.4-1.3 2.4-3.3"/></g><g id="g3953"><path id="path3955" class="cls-1" d="m77.7 66.6-4-6.1v6.2a.3.3 0 0 1-.4.4h-1.7a.3.3 0 0 1-.4-.4V56.4a.3.3 0 0 1 .4-.4h2a.5.5 0 0 1 .4.3l3.9 6v-6a.3.3 0 0 1 .3-.2H80a.3.3 0 0 1 .3.3v10.3a.4.4 0 0 1-.3.4h-1.5a.8.8 0 0 1-.8-.5"/></g><g id="g3957"><path id="path3959" class="cls-1" d="M55.7 67a.3.3 0 0 1-.4-.3v-8.2a.2.2 0 0 0-.1-.2H53a.3.3 0 0 1-.3-.3v-1.6a.3.3 0 0 1 .3-.4h7.3a.3.3 0 0 1 .4.3V58a.3.3 0 0 1-.4.3h-2.2a.2.2 0 0 0-.1.2v8.2a.3.3 0 0 1-.4.4Z"/></g><g id="g3961"><path id="path3963" class="cls-1" d="M51.8 67.3c-1.2 0-1.9-.7-2.8-1.9l-1.4-2.2h-1.3v3.5a.3.3 0 0 1-.3.4h-2a.3.3 0 0 1-.3-.4V56.4a.3.3 0 0 1 .3-.4h4.4a4.2 4.2 0 0 1 3 1 3.4 3.4 0 0 1 1 2.5 3.2 3.2 0 0 1-2.2 3.2 22 22 0 0 0 1.3 1.8 5.4 5.4 0 0 0 1.7 1.5l.1.4c0 .2-.4.8-1.5.8M46.3 61h2c1 0 1.6-.6 1.6-1.4 0-1-.6-1.4-1.6-1.4h-2Z"/></g><g id="g3965"><path id="path3967" class="cls-1" d="M26 64.4a.5.5 0 0 1-.6-.3L23 59.5v7.2a.3.3 0 0 1-.3.4h-2a.3.3 0 0 1-.3-.4V56.6c0-.3.1-.6.5-.6h2.4a.7.7 0 0 1 .7.5l2.1 4.1 2.1-4a.7.7 0 0 1 .8-.6h2.4c.3 0 .5.2.5.5v10.3a.3.3 0 0 1-.4.3h-2a.3.3 0 0 1-.3-.4v-7.2L27 64.1a.5.5 0 0 1-.5.3Z"/></g><g id="g3969"><path id="path3971" class="cls-1" d="M111 67a.3.3 0 0 1-.3-.3v-8.2a.2.2 0 0 0-.2-.2h-2.2a.3.3 0 0 1-.3-.3v-1.6a.3.3 0 0 1 .3-.4h7.4a.3.3 0 0 1 .3.4V58a.3.3 0 0 1-.3.3h-2.2a.2.2 0 0 0-.2.2v8.2a.3.3 0 0 1-.3.4Z"/></g><g id="g3973"><path id="path3975" class="cls-1" d="M88.2 58.1a4.7 4.7 0 0 1 2.8.9.4.4 0 0 0 .6-.2l.5-1.2c.1-.3.2-.6-.3-.9a6.1 6.1 0 0 0-3.5-1c-2.7 0-4.2 1.7-4.2 3.5 0 2 1.6 2.7 3.4 3.3s2.4.8 2.4 1.5c0 .4-.4 1-1.5 1a5.3 5.3 0 0 1-3.4-1.3.3.3 0 0 0-.5.2l-.4 1.5c0 .2-.1.5.4.8a6 6 0 0 0 3.8 1c2.4 0 4.3-1.3 4.2-3.6 0-1.8-1-2.4-3.1-3.1-1.6-.6-2.6-.7-2.6-1.5 0-.4.4-.9 1.4-.9"/></g><g id="g3977"><path id="path3979" class="cls-1" d="M103.5 67a.3.3 0 0 1-.4-.3V56.4a.3.3 0 0 1 .4-.4h1.3c.7 0 1 .3 1 1.1v7.2c0 .3.1.4.3.4h3.2a.3.3 0 0 1 .4.3v1.7a.3.3 0 0 1-.4.4Z"/></g><g id="g3985"><path id="path3987" class="cls-1" d="M71 24.7c-3.7-4.3-9.7-4-11-4v.1c.2 1.7-1.3 2.8-3.5 3.3a4 4 0 0 1 .7 3.7 5.3 5.3 0 0 1-.7 1.8 4.3 4.3 0 0 1-.8.9 4.7 4.7 0 0 1 2 1.3l.4.5a6.5 6.5 0 0 1 .7 1 8.4 8.4 0 0 1 .9 2 .7.7 0 0 0-.2 0l-.4.5a.5.5 0 0 0 0 .4 2.3 2.3 0 0 0 0 .4l-.8.7a.3.3 0 0 0-.3 0l-1 .8a1 1 0 0 0-.3.7 1 1 0 0 0 1.8.6.3.3 0 0 0-.5-.4.4.4 0 0 1-.3.2.4.4 0 0 1-.3-.4.4.4 0 0 1 0-.2l1-.8a.3.3 0 0 0 .2-.3l.7-.7a1.6 1.6 0 0 0 .3.3h.1c.1 0 .1-.3 0-.4h.4v-.2l.2-.3a3.3 3.3 0 0 1 1.3 1l-.9.9a13 13 0 0 0-1.5 1.8 10.9 10.9 0 0 0 2.2 1.2l1.5.6a10.8 10.8 0 0 1-.3 1.8 2.4 2.4 0 0 0-.3 1 2.1 2.1 0 0 1 0 .7l-.6 2.6a10.7 10.7 0 0 1-.9 2.4c-.4.7-.8 1-1.1 1a2.3 2.3 0 0 1-1-.2c-.6-.2-.8-.2-1 0a.1.1 0 0 0 0 .1l.1.3a5.2 5.2 0 0 0 1 .8 2.2 2.2 0 0 0 .8.2 1.4 1.4 0 0 1 .6.2 1.1 1.1 0 0 1 0 .2s0 .1.2.2a1.9 1.9 0 0 0 .8.3 1.6 1.6 0 0 0 .3-.4 2.3 2.3 0 0 0 .3-.7s.1-.9.3-1.5v-.2a20.7 20.7 0 0 1 1.5-2.8 4.3 4.3 0 0 0 .6-2.2 3 3 0 0 1 .6-1.5l.7-1.3a3.6 3.6 0 0 0 .5.2l.6 1.6a4.4 4.4 0 0 0 .4.8 2.9 2.9 0 0 1 .6.8l.8 1.8a9.1 9.1 0 0 1 .7 2V51a9.8 9.8 0 0 1 0 1.2c0 .6 0 1.3.7 1.3a.9.9 0 0 0 .8-.4 2 2 0 0 0 .2-1.5 5.4 5.4 0 0 0-.2-1 19.4 19.4 0 0 1-.6-2.3l-.4-2.3c-.2-1-.6-1.1-.8-2a10.5 10.5 0 0 1-.3-1.2 3.8 3.8 0 0 0 .4-.1l.8-.3c.3-.2.6-.2.5-.3a13.6 13.6 0 0 0-.2-2 2.4 2.4 0 0 1 .6-.2 3.3 3.3 0 0 1 2.2.6 18 18 0 0 1 .4-3 4.5 4.5 0 0 1 1.6-2.4s0-6.2-3.7-10.5"/></g><g id="g3989"><path id="path3991" class="cls-2" d="M60.7 36.1a1.2 1.2 0 0 1-.3.1 2 2 0 0 1 .6.3 2.1 2.1 0 0 1 .6.7l.7-.6a8 8 0 0 1-1-.5 2.1 2.1 0 0 0-.6 0"/></g><g id="g3993"><path id="path3995" class="cls-2" d="M69.4 37.4 70 40a4.5 4.5 0 0 1 .5-.1 2.9 2.9 0 0 1 2.3.6 7.8 7.8 0 0 1 .1-3 4 4 0 0 1 .6-1.1 3.6 3.6 0 0 1 .4-.6 2.8 2.8 0 0 1 1-.6s-.7-2.2-1.2-3.4-1.6-3.1-2.6-3.2a1.9 1.9 0 0 0-.2 0c.3-2-2.7-5-4.8-5a2.3 2.3 0 0 0-.5.1c.2-1.8-4-2.8-5.6-3a1.9 1.9 0 0 1-.7 2.3 5.2 5.2 0 0 1-2.7 1.1 3.5 3.5 0 0 1 1 3.3 4.2 4.2 0 0 1-2 3.1 3.8 3.8 0 0 1 1.2.5 5.7 5.7 0 0 1 2 2 6.5 6.5 0 0 1 1 2.2.8.8 0 0 1 .5 0h.6l2.8-2.5.2-.3a1 1 0 0 1 .6-.8 3.6 3.6 0 0 1 .7-.2h.1l2.4-.7a.5.5 0 0 0 .1.1 2.4 2.4 0 0 0 .5.4 4.4 4.4 0 0 0 1 .2c.5.1.7.4 1 1l1.5 2a2.8 2.8 0 0 1 .2.4Z"/></g><g id="g3997"><path id="path3999" class="cls-2" d="M62.3 34.8h.4a.6.6 0 0 0 .2-.3 4.7 4.7 0 0 1 .4-1l-1.7 1.4a4.5 4.5 0 0 1 .7-.1"/></g><g id="g4001"><path id="path4003" class="cls-1" d="M65.4 31.3a4.1 4.1 0 0 1-.7-.7 2 2 0 0 1-.8-.3c-.5-.2-.7-.4-.7-.9a.7.7 0 0 0 .5 0 1.5 1.5 0 0 1-.6-.1.3.3 0 0 1-.2-.4.2.2 0 0 1 .2-.1.1.1 0 0 0 0 .1c.3 0 .4-.2.5-.3.5-1 1-2.4 2.3-2.6a2.3 2.3 0 0 1 2.1.5 3.9 3.9 0 0 1 .4.6 2.1 2.1 0 0 1 .1.3 3.4 3.4 0 0 1 .2 2.2 1.5 1.5 0 0 1-.6.8 2.2 2.2 0 0 1-.4.2Z"/></g><g id="g4005"><path id="path4007" class="cls-3" d="M60 20.8c1.8 0 5.7.7 5.7 2.8a1.7 1.7 0 0 1 .6 0c2-.1 5 2.6 4.7 5a1 1 0 0 1 .2 0c1 0 2.2 1.9 2.7 3a22.7 22.7 0 0 1 1 3.6s-.2-6-4-10.3-9.4-4.2-10.8-4"/></g><g id="g4009"><path id="path4011" class="cls-1" d="M74.6 44h-.2a.1.1 0 0 1 0-.1l.2.1"/></g><g id="g4013"><path id="path4015" class="cls-1" d="M74.2 40.9H74a.1.1 0 0 1 .1-.1s.1 0 .1 0"/></g><g id="g4017"><path id="path4019" class="cls-1" d="m74.9 40.1-.2.1v-.1h.2"/></g><g id="g4021"><path id="path4023" class="cls-1" d="M73.6 39.6a.2.2 0 0 1-.2 0s0-.2 0-.2a.2.2 0 0 1 .2 0s0 .1 0 .2"/></g><g id="g4025"><path id="path4027" class="cls-1" d="M74.2 39.3H74l.1-.2a.1.1 0 0 1 .2.1.2.2 0 0 1-.1.1"/></g><g id="g4029"><path id="path4031" class="cls-1" d="M73.7 39.2a.1.1 0 0 1-.2-.1s0-.2.1-.2a.2.2 0 0 1 .2.1s0 .1-.1.2"/></g><g id="g4033"><path id="path4035" class="cls-1" d="M76 41.8a.1.1 0 0 1-.2-.1.2.2 0 0 1 0-.1.1.1 0 0 1 .2 0v.2"/></g><g id="g4037"><path id="path4039" class="cls-1" d="M76.8 43.9a.1.1 0 0 1-.2-.1.2.2 0 0 1 .1-.2.1.1 0 0 1 .2.1l-.1.2"/></g><g id="g4041"><path id="path4043" class="cls-1" d="M74 49.5a.1.1 0 0 1 0-.1.1.1 0 0 1 0-.2s.2 0 .2.1l-.1.2"/></g><g id="g4045"><path id="path4047" class="cls-1" d="m73.6 44-.1-.1v-.1a.1.1 0 0 1 .2 0v.2"/></g><g id="g4049"><path id="path4051" class="cls-1" d="M76.8 51.8h-.1v-.2a.1.1 0 0 1 .2.1s0 .1 0 .1"/></g><g id="g4053"><path id="path4055" class="cls-1" d="M75.1 39.5a.1.1 0 0 1-.1 0 .1.1 0 0 1 0-.1.1.1 0 0 1 .1 0v.1"/></g><g id="g4057"><path id="path4059" class="cls-1" d="m74.5 39.9-.2-.1.1-.2a.2.2 0 0 1 .2.1l-.1.2"/></g><g id="g4061"><path id="path4063" class="cls-1" d="M74 40.3a.1.1 0 0 1 0-.1"/></g><g id="g4065"><path id="path4067" class="cls-1" d="M73.7 40.6h-.1a.1.1 0 0 1 0-.1"/></g><g id="g4069"><path id="path4071" class="cls-1" d="M73.5 42"/></g><g id="g4073"><path id="path4075" class="cls-1" d="M81 52.4h-.2.1"/></g><g id="g4077"><path id="path4079" class="cls-1" d="M82.2 52.3H82"/></g><g id="g4081"><path id="path4083" class="cls-1" d="M81 53.3h-.2v-.1h.1"/></g><g id="g4085"><path id="path4087" class="cls-1" d="M80.2 51.9H80a.1.1 0 0 1 0-.1h.1"/></g><g id="g4089"><path id="path4091" class="cls-1" d="M78.4 52.5"/></g><g id="g4093"><path id="path4095" class="cls-1" d="M75.7 50.7"/></g><g id="g4097"><path id="path4099" class="cls-1" d="M76.2 49.6H76c-.1 0 0 0 0 0"/></g><g id="g4101"><path id="path4103" class="cls-1" d="M78 48.5"/></g><g id="g4105"><path id="path4107" class="cls-1" d="M73.6 45.9a.1.1 0 0 1 0-.1"/></g><g id="g4109"><path id="path4111" class="cls-1" d="M78 51.3h-.1v-.1h.1"/></g><g id="g4113"><path id="path4115" class="cls-1" d="M78.3 50.1"/></g><g id="g4117"><path id="path4119" class="cls-1" d="M77.3 50.6a.1.1 0 0 1 0-.1"/></g><g id="g4121"><path id="path4123" class="cls-1" d="M76.6 50a.1.1 0 0 1-.1 0s-.1 0 0 0a.1.1 0 0 1 0-.1s.1.1.1.1"/></g><g id="g4125"><path id="path4127" class="cls-1" d="M76.7 51.3a.1.1 0 0 1-.2 0s0-.1 0-.2h.2v.2"/></g><g id="g4129"><path id="path4131" class="cls-1" d="M79.4 52.8h-.1a.1.1 0 0 1 0-.2.2.2 0 0 1 0 .1"/></g><g id="g4133"><path id="path4135" class="cls-1" d="M78.9 50a.1.1 0 0 1-.1 0 .2.2 0 0 1-.1 0 .2.2 0 0 1 .1 0 .2.2 0 0 1 .1.1"/></g><g id="g4137"><path id="path4139" class="cls-1" d="M77.7 49.3h-.1"/></g><g id="g4141"><path id="path4143" class="cls-1" d="M75.6 52h-.1c-.1 0 0 0 0 0"/></g><g id="g4145"><path id="path4147" class="cls-1" d="M75 51.2h-.2V51h.1"/></g><g id="g4149"><path id="path4151" class="cls-1" d="M77.8 52.9a.1.1 0 0 1-.1 0 .1.1 0 0 1 0-.1"/></g><g id="g4153"><path id="path4155" class="cls-1" d="M79.5 53.3h-.1"/></g><g id="g4157"><path id="path4159" class="cls-1" d="M75.6 48.8h-.1c-.1 0 0-.1 0-.1"/></g><g id="g4161"><path id="path4163" class="cls-1" d="M75.3 49.2h-.1c-.1 0 0 0 0-.1"/></g><g id="g4165"><path id="path4167" class="cls-1" d="M75.6 47.4"/></g><g id="g4169"><path id="path4171" class="cls-1" d="M76.7 47a.1.1 0 0 1-.1 0"/></g><g id="g4173"><path id="path4175" class="cls-1" d="M75.4 40h-.1a.1.1 0 0 1 0-.1"/></g><g id="g4177"><path id="path4179" class="cls-1" d="M74.6 39"/></g><g id="g4181"><path id="path4183" class="cls-1" d="M75.4 46.3v-.1"/></g><g id="g4185"><path id="path4187" class="cls-1" d="M74.9 45.5h-.1a.1.1 0 0 1 0-.1"/></g><g id="g4189"><path id="path4191" class="cls-1" d="M74.6 45.9h-.1a.1.1 0 0 1 0-.1"/></g><g id="g4193"><path id="path4195" class="cls-1" d="M73.9 46.8"/></g><g id="g4197"><path id="path4199" class="cls-1" d="M73.9 45h-.1"/></g><g id="g4201"><path id="path4203" class="cls-1" d="M73.8 42.9a.1.1 0 0 1-.1 0 .1.1 0 0 1 0-.1"/></g><g id="g4205"><path id="path4207" class="cls-1" d="M73.5 41.3h-.1"/></g><g id="g4209"><path id="path4211" class="cls-1" d="M73.3 40.6v-.1a.1.1 0 0 1 0 .1"/></g><g id="g4213"><path id="path4215" class="cls-1" d="M73 39a.1.1 0 0 1-.1 0s0 0 0-.1l.1.1"/></g><g id="g4217"><path id="path4219" class="cls-1" d="M73.4 39.2"/></g><g id="g4221"><path id="path4223" class="cls-1" d="M73.4 39.7a.1.1 0 0 1-.1 0 .1.1 0 0 1 0-.1"/></g><g id="g4225"><path id="path4227" class="cls-1" d="m72.8 38.5-.1.1c-.1 0 0-.1 0-.1a.1.1 0 0 1 .1 0"/></g><g id="g4229"><path id="path4231" class="cls-1" d="M73.3 38.3H73v-.1a.1.1 0 0 1 .2 0"/></g><g id="g4233"><path id="path4235" class="cls-1" d="M72.6 38.2a.1.1 0 0 1-.1 0"/></g><g id="g4237"><path id="path4239" class="cls-1" d="M72.7 38a.1.1 0 0 1 0-.1"/></g><g id="g4241"><path id="path4243" class="cls-1" d="M73 38a.1.1 0 0 1 0-.2.1.1 0 0 1 0 .1"/></g><g id="g4245"><path id="path4247" class="cls-1" d="M73.6 38.2"/></g><g id="g4249"><path id="path4251" class="cls-1" d="M74.7 40.7a.2.2 0 0 1-.2 0 .2.2 0 0 1-.1-.1.2.2 0 0 1 .2-.1.3.3 0 0 1 0 .2"/></g><g id="g4253"><path id="path4255" class="cls-1" d="M74.6 41.5h-.2s-.1-.2 0-.2a.2.2 0 0 1 .2 0s0 .2 0 .2"/></g><g id="g4257"><path id="path4259" class="cls-1" d="M75 41.6H75c-.1 0 0 0 0-.1a.2.2 0 0 1 .2 0s0 .1 0 .2"/></g><g id="g4261"><path id="path4263" class="cls-1" d="M75.3 41.1a.2.2 0 0 1-.2 0 .2.2 0 0 1 0-.2.2.2 0 0 1 .2 0 .2.2 0 0 1 0 .2"/></g><g id="g4265"><path id="path4267" class="cls-1" d="M75.3 40.4a.1.1 0 0 1-.2.1.2.2 0 0 1 0-.2.2.2 0 0 1 .2.1"/></g><g id="g4269"><path id="path4271" class="cls-1" d="M75.9 41.2a.1.1 0 0 1-.2 0 .2.2 0 0 1 0-.2.1.1 0 0 1 .2 0s0 .2 0 .2"/></g><g id="g4273"><path id="path4275" class="cls-1" d="M76.1 42.4a.2.2 0 0 1-.2 0s0-.2.1-.2a.2.2 0 0 1 .2 0v.2"/></g><g id="g4277"><path id="path4279" class="cls-1" d="M76.3 43.8a.2.2 0 0 1-.2.1.2.2 0 0 1 0-.2.2.2 0 0 1 .1 0l.1.1"/></g><g id="g4281"><path id="path4283" class="cls-1" d="M76.5 45a.2.2 0 0 1-.2 0 .2.2 0 0 1-.1 0 .2.2 0 0 1 .2-.2v.2"/></g><g id="g4285"><path id="path4287" class="cls-1" d="m76.7 46.4-.2.1a.2.2 0 0 1 0-.2.2.2 0 0 1 .1 0l.1.1"/></g><g id="g4289"><path id="path4291" class="cls-1" d="M77 47.4h-.2v-.2a.1.1 0 0 1 .2 0s0 .2 0 .2"/></g><g id="g4293"><path id="path4295" class="cls-1" d="M77.5 48.6a.2.2 0 0 1-.2-.1s0-.1.2-.2a.2.2 0 0 1 .1.2l-.1.1"/></g><g id="g4297"><path id="path4299" class="cls-1" d="M77.4 46.4h-.1a.2.2 0 0 1 .1-.2.2.2 0 0 1 .2 0l-.2.2"/></g><g id="g4301"><path id="path4303" class="cls-1" d="M78.4 49.5h-.2a.2.2 0 0 1 0-.2.1.1 0 0 1 .2 0 .2.2 0 0 1 0 .2"/></g><g id="g4305"><path id="path4307" class="cls-1" d="M79.4 50.5a.2.2 0 0 1-.1-.1.2.2 0 0 1 0-.2.2.2 0 0 1 .2 0v.3"/></g><g id="g4309"><path id="path4311" class="cls-1" d="M80.4 51.4a.2.2 0 0 1-.2 0 .2.2 0 0 1 .1-.3.2.2 0 0 1 .2.1v.2"/></g><g id="g4313"><path id="path4315" class="cls-1" d="M81.6 51.9a.1.1 0 0 1-.1 0 .1.1 0 0 1 0-.1s.1 0 .1 0"/></g><g id="g4317"><path id="path4319" class="cls-1" d="M80.3 52.8h-.1v-.2a.1.1 0 0 1 .1 0v.2"/></g><g id="g4321"><path id="path4323" class="cls-1" d="M78.6 53a.1.1 0 0 1-.2.1.1.1 0 0 1 0-.2s.2.1.2.2"/></g><g id="g4325"><path id="path4327" class="cls-1" d="M77.6 52.2a.1.1 0 0 1-.2.1.2.2 0 0 1 0-.2l.2.1"/></g><g id="g4329"><path id="path4331" class="cls-1" d="M76.2 52.4H76a.2.2 0 0 1 0-.3.2.2 0 0 1 .2.1.2.2 0 0 1 0 .2"/></g><g id="g4333"><path id="path4335" class="cls-1" d="M75.5 51.3a.1.1 0 0 1-.1.1.2.2 0 0 1-.1-.1.2.2 0 0 1 .1-.1l.1.1"/></g><g id="g4337"><path id="path4339" class="cls-1" d="M74.8 49.9h-.2a.2.2 0 0 1 0-.2.2.2 0 0 1 .2 0s0 .2 0 .2"/></g><g id="g4341"><path id="path4343" class="cls-1" d="M74.4 48.7a.2.2 0 0 1-.2 0v-.2a.2.2 0 0 1 .2 0v.2"/></g><g id="g4345"><path id="path4347" class="cls-1" d="M74.3 47.2a.1.1 0 0 1-.1 0s0-.2 0-.3a.1.1 0 0 1 .2.2v.1"/></g><g id="g4349"><path id="path4351" class="cls-1" d="M74 45.6H74a.2.2 0 0 1 0-.2.2.2 0 0 1 .2 0v.2"/></g><g id="g4353"><path id="path4355" class="cls-1" d="M73.6 45.5a.2.2 0 0 1-.1 0 .2.2 0 0 1 0-.2.2.2 0 0 1 .2 0v.2"/></g><g id="g4357"><path id="path4359" class="cls-1" d="M74.1 43.6a.2.2 0 0 1-.2 0 .2.2 0 0 1 0-.2.2.2 0 0 1 .2 0v.2"/></g><g id="g4361"><path id="path4363" class="cls-1" d="M73.8 42.5a.2.2 0 0 1-.2 0 .2.2 0 0 1 0-.2.2.2 0 0 1 .2 0 .3.3 0 0 1 0 .2"/></g><g id="g4365"><path id="path4367" class="cls-1" d="M73.7 41.2a.1.1 0 0 1-.2-.2.2.2 0 0 1 .1-.1.2.2 0 0 1 .2 0v.3"/></g><g id="g4369"><path id="path4371" class="cls-1" d="M73.5 40.2a.2.2 0 0 1-.3 0 .2.2 0 0 1 0-.2.2.2 0 0 1 .3 0v.2"/></g><g id="g4373"><path id="path4375" class="cls-1" d="M74 39.8a.1.1 0 0 1-.2 0 .2.2 0 0 1 0-.3.2.2 0 0 1 .3.1l-.1.2"/></g><g id="g4377"><path id="path4379" class="cls-1" d="M73.3 38.7h-.1a.2.2 0 0 1 0-.2s.2 0 .2.1a.2.2 0 0 1 0 .1"/></g><g id="g4381"><path id="path4383" class="cls-1" d="M74.3 42.1a.1.1 0 0 1-.1 0 .2.2 0 0 1 0-.1.1.1 0 0 1 .1 0c.1 0 0 .1 0 .1"/></g><g id="g4385"><path id="path4387" class="cls-1" d="M75.6 41.9h-.2v-.1a.1.1 0 0 1 .1 0 .2.2 0 0 1 .1.1"/></g><g id="g4389"><path id="path4391" class="cls-1" d="M76 43a.2.2 0 0 1-.2 0 .2.2 0 0 1 0-.2.2.2 0 0 1 .2 0v.2"/></g><g id="g4393"><path id="path4395" class="cls-1" d="M75.8 44.4a.1.1 0 0 1-.2 0 .2.2 0 0 1 0-.2.1.1 0 0 1 .2 0v.2"/></g><g id="g4397"><path id="path4399" class="cls-1" d="M74.4 42.8a.1.1 0 0 1-.2.1.2.2 0 0 1 0-.2l.2.1"/></g><g id="g4401"><path id="path4403" class="cls-1" d="M75 42.6a.2.2 0 0 1-.2-.2.2.2 0 0 1 .1-.1l.2.1-.2.2"/></g><g id="g4405"><path id="path4407" class="cls-1" d="M73.8 41.8h-.2l.1-.3a.2.2 0 0 1 .2.1l-.1.2"/></g><g id="g4409"><path id="path4411" class="cls-1" d="M76.5 45.6a.2.2 0 0 1-.2.2s-.1-.1-.1-.2a.2.2 0 0 1 .2-.1l.1.1"/></g><g id="g4413"><path id="path4415" class="cls-1" d="M76 45.2a.2.2 0 0 1-.3 0 .2.2 0 0 1 0-.1.2.2 0 0 1 .1-.1l.1.2"/></g><g id="g4417"><path id="path4419" class="cls-1" d="M75.5 43.7h-.1a.2.2 0 0 1 0-.3.2.2 0 0 1 .2.1.2.2 0 0 1 0 .2"/></g><g id="g4421"><path id="path4423" class="cls-1" d="M74.7 43.4h-.2a.2.2 0 0 1 .1-.2.1.1 0 0 1 .2 0l-.1.2"/></g><g id="g4425"><path id="path4427" class="cls-1" d="M75.3 43a.2.2 0 0 1-.2 0 .2.2 0 0 1 0-.1.2.2 0 0 1 .2 0v.2"/></g><g id="g4429"><path id="path4431" class="cls-1" d="M75.5 42.6a.2.2 0 0 1-.2 0 .2.2 0 0 1 0-.2.1.1 0 0 1 .2 0s0 .2 0 .2"/></g><g id="g4433"><path id="path4435" class="cls-1" d="M76.4 43.2h-.1a.2.2 0 0 1 0-.3.2.2 0 0 1 .2.1v.2"/></g><g id="g4437"><path id="path4439" class="cls-1" d="M76.7 44.5h-.3v-.2a.2.2 0 0 1 .3 0 .2.2 0 0 1 0 .2"/></g><g id="g4441"><path id="path4443" class="cls-1" d="M77 46a.2.2 0 0 1-.2 0s0-.2 0-.2a.2.2 0 0 1 .2 0s0 .2 0 .2"/></g><g id="g4445"><path id="path4447" class="cls-1" d="M77.2 47h-.1a.2.2 0 0 1 0-.2.2.2 0 0 1 .1 0 .2.2 0 0 1 0 .2"/></g><g id="g4449"><path id="path4451" class="cls-1" d="M77.2 53.3a.1.1 0 0 1-.1 0 .2.2 0 0 1 0-.2.2.2 0 0 1 .1 0 .2.2 0 0 1 0 .2"/></g><g id="g4453"><path id="path4455" class="cls-1" d="M75.9 46.3a.1.1 0 0 1-.2 0 .2.2 0 0 1 0-.2.1.1 0 0 1 .2 0s0 .1 0 .2"/></g><g id="g4457"><path id="path4459" class="cls-1" d="M76.9 45.2a.1.1 0 0 1-.2.1s0 0 0-.1a.2.2 0 0 1 0-.1l.2.1"/></g><g id="g4461"><path id="path4463" class="cls-1" d="M75.3 44.8a.2.2 0 0 1-.2 0 .2.2 0 0 1 0-.2.2.2 0 0 1 .2 0c.1 0 0 .2 0 .2"/></g><g id="g4465"><path id="path4467" class="cls-1" d="M74.2 44.8a.1.1 0 0 1-.2 0s-.1-.2 0-.2a.2.2 0 0 1 .2 0s0 .2 0 .2"/></g><g id="g4469"><path id="path4471" class="cls-1" d="m74.1 44.1-.1.1a.2.2 0 0 1-.2-.2.1.1 0 0 1 .2 0s.1.1 0 .1"/></g><g id="g4473"><path id="path4475" class="cls-1" d="M74.2 46.3a.2.2 0 0 1-.2 0 .2.2 0 0 1 0-.2.2.2 0 0 1 .2 0s0 .1 0 .2"/></g><g id="g4477"><path id="path4479" class="cls-1" d="M74.5 48a.1.1 0 0 1-.1-.2s0-.1 0-.1a.2.2 0 0 1 .2 0v.2"/></g><g id="g4481"><path id="path4483" class="cls-1" d="M74.7 49.1a.2.2 0 0 1-.2 0 .2.2 0 0 1 0-.1.2.2 0 0 1 .2 0v.1"/></g><g id="g4485"><path id="path4487" class="cls-1" d="M75.4 50.3a.2.2 0 0 1-.1-.1.2.2 0 0 1 0-.2.2.2 0 0 1 .3.1l-.2.2"/></g><g id="g4489"><path id="path4491" class="cls-1" d="m76 51.8-.2-.1a.2.2 0 0 1 0-.2.2.2 0 0 1 .3.2.2.2 0 0 1-.2.1"/></g><g id="g4493"><path id="path4495" class="cls-1" d="M76.9 52.6h-.2a.2.2 0 0 1 .1-.2.2.2 0 0 1 .2 0l-.1.2"/></g><g id="g4497"><path id="path4499" class="cls-1" d="M79.5 52.4a.2.2 0 0 1-.2 0s-.1-.2 0-.3a.2.2 0 0 1 .2 0v.3"/></g><g id="g4501"><path id="path4503" class="cls-1" d="M78.5 51.9a.1.1 0 0 1-.2 0s0 0 0-.1a.2.2 0 0 1 .1-.1l.1.2"/></g><g id="g4505"><path id="path4507" class="cls-1" d="M79.7 51.3a.1.1 0 0 1-.2.1.1.1 0 0 1 0-.1.1.1 0 0 1 0-.1l.2.1"/></g><g id="g4509"><path id="path4511" class="cls-1" d="M79 51.3a.1.1 0 0 1-.1 0 .1.1 0 0 1-.1 0 .1.1 0 0 1 .1-.1s.1 0 .1 0"/></g><g id="g4513"><path id="path4515" class="cls-1" d="M81.5 52.8v-.2.1"/></g><g id="g4517"><path id="path4519" class="cls-1" d="M78.5 50.8a.2.2 0 0 1-.2 0 .2.2 0 0 1 0-.2.2.2 0 0 1 .2 0v.2"/></g><g id="g4521"><path id="path4523" class="cls-1" d="M77.3 51.3a.2.2 0 0 1-.2 0 .2.2 0 0 1 0-.2.1.1 0 0 1 .2 0s0 .2 0 .2"/></g><g id="g4525"><path id="path4527" class="cls-1" d="M77.6 50.2a.1.1 0 0 1-.2 0 .2.2 0 0 1 0-.2.1.1 0 0 1 .1 0v.2"/></g><g id="g4529"><path id="path4531" class="cls-1" d="M76.4 50.8a.1.1 0 0 1-.2 0 .2.2 0 0 1 0-.2.1.1 0 0 1 .2 0s0 .1 0 .2"/></g><g id="g4533"><path id="path4535" class="cls-1" d="M77 49.4a.1.1 0 0 1-.2 0 .2.2 0 0 1 0-.1.1.1 0 0 1 .1-.1l.1.1"/></g><g id="g4537"><path id="path4539" class="cls-1" d="M75.8 49.3a.2.2 0 0 1-.2.1s0-.1 0-.2h.1l.1.1"/></g><g id="g4541"><path id="path4543" class="cls-1" d="M75.1 48.5H75a.2.2 0 0 1 0-.2.2.2 0 0 1 .1 0l.1.2"/></g><g id="g4545"><path id="path4547" class="cls-1" d="M76.8 48.2a.2.2 0 0 1-.2 0s-.1 0 0-.1a.2.2 0 0 1 0-.1c.2 0 .2.1.2.2"/></g><g id="g4549"><path id="path4551" class="cls-1" d="m76.2 47.4-.2-.1.1-.2a.1.1 0 0 1 .2.1l-.1.2"/></g><g id="g4553"><path id="path4555" class="cls-1" d="M76.3 49a.1.1 0 0 1-.1-.2.1.1 0 0 1 0-.1.2.2 0 0 1 .2 0l-.1.2"/></g><g id="g4557"><path id="path4559" class="cls-1" d="M75.8 48.2s-.1.1-.2 0v-.1a.2.2 0 0 1 .1-.1l.1.2"/></g><g id="g4561"><path id="path4563" class="cls-1" d="M75.2 47.5a.2.2 0 0 1-.3 0s0-.2 0-.2a.2.2 0 0 1 .3 0 .2.2 0 0 1 0 .2"/></g><g id="g4565"><path id="path4567" class="cls-1" d="M75.6 46.8a.2.2 0 0 1-.2.1.2.2 0 0 1 0-.2.2.2 0 0 1 .1 0l.1.1"/></g><g id="g4569"><path id="path4571" class="cls-1" d="M74.8 46.4a.2.2 0 0 1-.2 0 .2.2 0 0 1 0-.2.2.2 0 0 1 .2 0v.2"/></g><g id="g4573"><path id="path4575" class="cls-1" d="M75.4 45.6c0 .1 0 .2-.1.1a.2.2 0 0 1-.1-.1.2.2 0 0 1 .1-.1l.1.1"/></g><g id="g4577"><path id="path4579" class="cls-1" d="M74.7 45.2a.1.1 0 0 1-.2-.1.2.2 0 0 1 .1-.2.2.2 0 0 1 .2.1v.2"/></g><g id="g4581"><path id="path4583" class="cls-1" d="M75 44H75c-.1 0 0 0 0 0a.1.1 0 0 1 .1 0"/></g><g id="g4585"><path id="path4587" class="cls-1" d="M77.6 47.8a.2.2 0 0 1-.2 0 .2.2 0 0 1 0-.1.2.2 0 0 1 .1 0 .2.2 0 0 1 .1.1"/></g><g id="g4589"><path id="path4591" class="cls-1" d="M74.6 50.7h-.2a.2.2 0 0 1 0-.2.1.1 0 0 1 .2 0s0 .2 0 .2"/></g><g id="g4593"><path id="path4595" class="cls-1" d="M74 47.7a.1.1 0 0 1-.3 0 .2.2 0 0 1 0-.2.2.2 0 0 1 .2 0s0 .2 0 .2"/></g><g id="g4597"><path id="path4599" class="cls-1" d="M73.9 38.6h-.1a.1.1 0 0 1-.1-.1.1.1 0 0 1 .1 0 .2.2 0 0 1 .1 0"/></g><g id="g4601"><path id="path4603" class="cls-1" d="M80.5 52.4h-.1"/></g><g id="g4605"><path id="path4607" class="cls-1" d="M81.7 52.3"/></g><g id="g4609"><path id="path4611" class="cls-1" d="M80.5 53.3h-.1a.1.1 0 0 1 0-.1"/></g><g id="g4613"><path id="path4615" class="cls-1" d="M81.2 51.9a.1.1 0 0 1-.2.1v-.2.1"/></g><g id="g4617"><path id="path4619" class="cls-1" d="M81.1 52.8H81v-.2a.1.1 0 0 1 .1 0 .1.1 0 0 1 0 .1"/></g><g id="g4621"><path id="path4623" class="cls-1" d="m71.9 34.7.5.2c.5.1.8.9.6 1.7a2 2 0 0 1-.5.9 1 1 0 0 1 0 .7h-.1l-.7-.2a.9.9 0 0 1-.3 0l-2-.6Z"/></g><g id="g4625"><path id="path4627" class="cls-3" d="M64.9 29.5v.2a.3.3 0 0 1-.3-.3.5.5 0 0 1 .3.1m2.8 1.5a1.3 1.3 0 0 1-1.3.5l-.3-.1a1.3 1.3 0 0 0 .5-.4l-.3.1c-.3.1-.6.3-.9.1a5.6 5.6 0 0 1-.7-.8.2.2 0 0 1-.1-.1.5.5 0 0 1 0-.5.5.5 0 0 0 .1 0 .3.3 0 0 0 .2 0c.1.3-.3.5 0 .7h.4c0-.2-.3 0-.4 0s.3-.5.1-.7a.6.6 0 0 0-.4-.5s-.1 0-.1 0a6.5 6.5 0 0 0 1.4-.7c-.1.6.9 1 .3 1.7l-.2.3c.3.3 1 .2 1.5.2Zm-2.5-1.3a1.7 1.7 0 0 1 .4-.1 1.6 1.6 0 0 1 .4 0 .5.5 0 0 0-.4-.2 1 1 0 0 0-.4.2m.3 1.3-.4-.1c0-.1.3 0 .4 0a.3.3 0 0 0 .2-.2 1.2 1.2 0 0 1-.7 0 2.5 2.5 0 0 0 .2.3.3.3 0 0 0 .3 0m0-1a.7.7 0 0 0 .4 0 .2.2 0 0 0 0-.1.7.7 0 0 1-.4 0 .3.3 0 0 1-.2 0 .2.2 0 0 0 .2.2"/></g><g id="g4629"><path id="path4631" class="cls-3" d="M69.8 52a.4.4 0 0 0 .4-.3 1.5 1.5 0 0 0 0-.7.7.7 0 0 0-.4-.1.6.6 0 0 0-.5.2 3.6 3.6 0 0 0 .2.6c0 .2.2.3.2.3"/></g><g id="g4633"><path id="path4635" class="cls-3" d="m70 49.5-.5-2.6a4.7 4.7 0 0 0-.7-2 2.7 2.7 0 0 1-.3-.8l-.2-1.1a5 5 0 0 1-1 0 5.8 5.8 0 0 1-1 0l.4 1a4 4 0 0 0 .3 1l.4.4a3.4 3.4 0 0 1 .5 1l.6 1.4a14.5 14.5 0 0 1 .7 1.6 3.4 3.4 0 0 1 0 .4l.1 1a.9.9 0 0 1 .5-.3 1 1 0 0 1 .5.1l-.3-1.1"/></g><g id="g4637"><path id="path4639" class="cls-3" d="m63.1 41.3-.1.8-.2 1.2a1.4 1.4 0 0 1-.2.5s0 .1 0 .2a2.4 2.4 0 0 0 0 .9 1.2 1.2 0 0 1 0 .5l-.8 2.8a11.8 11.8 0 0 1-.7 2.1 2.3 2.3 0 0 1-.8.9 1.4 1.4 0 0 0 1.3 1l.5-1.7a27.4 27.4 0 0 1 1.5-2.9 6 6 0 0 0 .5-2.6c0-.5.2-.6.4-1l.7-1.4-.8-.5a8.3 8.3 0 0 1-1.3-1"/></g><g id="g4641"><path id="path4643" class="cls-3" d="M59.1 51.5a2 2 0 0 0 .7.3c.2 0 .2 0 .2-.2l-.1-.3a2.1 2.1 0 0 1-.8 0H59l.2.3"/></g><g id="g4645"><path id="path4647" class="cls-3" d="M59.7 36.3h-.2l-.3.3-.8.7v.1l1.3-1a.2.2 0 0 1 0-.1"/></g><g id="g4649"><path id="path4651" class="cls-3" d="M64.8 32 61 35.1l-.2.2-.4.3a.4.4 0 0 0-.1.2l4.4-3.8"/></g><g id="g4653"><path id="path4655" class="cls-3" d="M60.8 35.2a4.2 4.2 0 0 1-.5 0 .9.9 0 0 0-.7.2 2.4 2.4 0 0 0-.4.4.4.4 0 0 0-.1.3 1.9 1.9 0 0 0 0 .5l.3-.2a.4.4 0 0 0 0-.3l.3-.3c0-.1 0-.1.1 0a.8.8 0 0 1 0 .2v.2a.8.8 0 0 0 0 .3.1.1 0 0 0 .2 0l.1-.2a.7.7 0 0 0 .1-.5.6.6 0 0 1 .2-.2l.4-.4"/></g><g id="g4657"><path id="path4659" class="cls-3" d="M60.8 36a1 1 0 0 0 .2-.5l-.3.2-.4.3v.1a1 1 0 0 0 .5-.2"/></g><g id="g4661"><path id="path4663" class="cls-3" d="m59.5 37 .2.1c0-.1 0-.3-.2-.4l-.2.2.2.1"/></g><g id="g4665"><path id="path4667" class="cls-3" d="M60 36.8H59.7l-.2-.1.2-.1a.3.3 0 0 0 .2 0l.1.2"/></g><g id="g4669"><path id="path4671" class="cls-3" d="M71.6 37.9a1.3 1.3 0 0 0 .5-.2 1.8 1.8 0 0 0 .7-1 1.5 1.5 0 0 0-.2-1.6l-.3-.1a1.7 1.7 0 0 1 .2 1.6 2 2 0 0 1-1.2 1.2 1 1 0 0 0 .3 0"/></g><g id="g4673"><path id="path4675" class="cls-3" d="M72.3 38H72a.1.1 0 0 1 0-.1 1.5 1.5 0 0 0 .4-.3.8.8 0 0 1-.1.5"/></g><g id="g4677"><path id="path4679" class="cls-4" d="M66.7 30.6a.8.8 0 0 1-.6-.1 1.3 1.3 0 0 0 1-1 4.3 4.3 0 0 0-.2-2 10 10 0 0 1 .2 1.4 1.7 1.7 0 0 1-.2 1 1.1 1.1 0 0 1-.6.4.8.8 0 0 0 .2-.6 2.1 2.1 0 0 0-.3-.5 1.8 1.8 0 0 1-.1-.4 1.4 1.4 0 0 1 0-.3.5.5 0 0 1 0-.3 2 2 0 0 1 .3-.4.7.7 0 0 1 .3-.2l.2-.2.2.6v-.4a.6.6 0 0 1 0-.3 1.8 1.8 0 0 1 .2-.5s.3.1.5.6c0-.4-.2-.6-.5-.6a.7.7 0 0 1 .6 0 .5.5 0 0 1 .2.2 3 3 0 0 1 .4 3 1.2 1.2 0 0 1-.4.3 3.1 3.1 0 0 0 .2-1.7 2.8 2.8 0 0 1-.4 1.9.8.8 0 0 1-.2.1 1.3 1.3 0 0 1-.5.1l.5-.5a1.2 1.2 0 0 1-.6.5m-3-1.2a.4.4 0 0 0 0-.1H64a1.5 1.5 0 0 1-.4.2.7.7 0 0 1-.2 0 1.4 1.4 0 0 0 .1.3 1.1 1.1 0 0 0 .7.5.3.3 0 0 0 .1 0l.1.2h.2c-.3-.5 0-.6-.1-.8 0 .2-.4.3-.3.2a.5.5 0 0 0 .2-.3.9.9 0 0 1-.2.2c.2-.2.1-.3.1-.4a.9.9 0 0 1-.2.2.8.8 0 0 1-.6.2c.1 0 .6-.2.7-.4m-1-.3a.2.2 0 0 1 0-.1 1.2 1.2 0 0 0 1-.6 1.3 1.3 0 0 1-.4.4 6.1 6.1 0 0 0 .3-.6 10.8 10.8 0 0 1 .5-1 2 2 0 0 1 2.7-.8s0 .2 0 .2a1 1 0 0 0-.5-.2h-.1a.9.9 0 0 1 .5.3 2.5 2.5 0 0 0-2 .3 2.3 2.3 0 0 1 1-.3l1 .1a2.5 2.5 0 0 1-.4.6 7.6 7.6 0 0 1-1 .2 1.6 1.6 0 0 0-.7.6 1.5 1.5 0 0 1 .4-.2 8.4 8.4 0 0 1 1-.3c-.2 0-.1.2-.4.3a.8.8 0 0 0 .3-.1 4.2 4.2 0 0 1-.8.7 7.6 7.6 0 0 1-.8.5 3.4 3.4 0 0 1-1 .2 1.7 1.7 0 0 1-.4 0"/></g><g id="g4681"><path id="path4683" class="cls-4" d="M57.7 39.8a.9.9 0 0 1-.6-1.5l1-.8c0-.1.1 0 .2 0v.3l-1 .8a.5.5 0 0 0 .4.8.5.5 0 0 0 .3-.2.2.2 0 1 1 .3.3.9.9 0 0 1-.6.3"/></g><g id="g4685"><path id="path4687" class="cls-4" d="M61.5 52.7a2.8 2.8 0 0 0 0-.4h-.3a1.3 1.3 0 0 1-.4-.2.9.9 0 0 1-.1-.2 2.5 2.5 0 0 1-.4-.4 1.4 1.4 0 0 1-.2-.3l-.1.1a1.1 1.1 0 0 1 .1.4c0 .2 0 .4-.4.3a1.8 1.8 0 0 1-.9-.7 4.5 4.5 0 0 0-.7-.3.4.4 0 0 0-.4.2l.6.5a2.8 2.8 0 0 0 .9.6h.7a2.1 2.1 0 0 1 .5.3 2.3 2.3 0 0 0-.1.3 2.4 2.4 0 0 0 .8.3 1 1 0 0 0 .3-.6"/></g><g id="g4689"><path id="path4691" class="cls-4" d="M70.7 52.5a3.3 3.3 0 0 0-.2-1.4v-.3a.8.8 0 0 0-1.2 0v.2a.8.8 0 0 1 .5-.2.9.9 0 0 1 .5.1 3 3 0 0 1 0 .8.5.5 0 0 1-.7.4c-.2-.1-.3-.4-.3-.8V52.2c0 .6 0 1.2.5 1.2a1 1 0 0 0 .9-1"/></g><g id="g4693"><path id="path4695" class="cls-4" d="M64.4 31.8a1 1 0 0 0-.5.7l1-1a1.3 1.3 0 0 0-.5.3"/></g><g id="g4697"><path id="path4699" class="cls-4" d="M67.6 34.6a4.8 4.8 0 0 0-1.7-.4 3 3 0 0 0-1.4 0 6.4 6.4 0 0 1-1.7 2.2 14.8 14.8 0 0 0-2.2 2 13.4 13.4 0 0 0-1 1.4l-.1.1a7.8 7.8 0 0 1 1 .3 3.9 3.9 0 0 1 .9.3l-.3-.4h.2a3 3 0 0 1 .6 0c.5.2.9.7 2.2 1.7a7.7 7.7 0 0 0 .9.6 4.3 4.3 0 0 0 2.2.5 10 10 0 0 0 2.6-.6.2.2 0 0 0 .1-.1.5.5 0 0 0 0-.3l-.3-2.6-.4-1.9Z"/></g><g id="g4701"><path id="path4703" class="cls-4" d="M61.4 36a.8.8 0 0 0 .3-.6.5.5 0 0 0-.2-.4l-.3.3c0 .2 0 .5-.3.6a1.1 1.1 0 0 0 .4 0h.2"/></g><g id="g4705"><path id="path4707" class="cls-4" d="M61.5 40.6a5.6 5.6 0 0 0-1.5-.5.6.6 0 0 0-.3 0 15.2 15.2 0 0 0 3.1 1.4V41a2.7 2.7 0 0 0-1.2-.7s-.1.3-.2.4"/></g><g id="g4709"><path id="path4711" class="cls-4" d="M67.4 26.3v.2a.5.5 0 0 1 .1 0 1.7 1.7 0 0 1 .2 0 1 1 0 0 0-.2 0l-.1-.2"/></g><g id="g4713"><path id="path4715" class="cls-4" d="M65.5 33.9h.5a3.2 3.2 0 0 1 .5 0h.1a5.5 5.5 0 0 1 .7.3h.1a2.8 2.8 0 0 1 .3.1 2 2 0 0 1 .4-.5l.1-.1a.7.7 0 0 1 .7-.2 3.3 3.3 0 0 1 .3.1 1.4 1.4 0 0 1 .3.3l.2.3.5.9a.4.4 0 0 0 .3.2 1 1 0 0 1 .5-.3 1 1 0 0 0-.4.3c.3 0 .6-.2.8 0a1.2 1.2 0 0 0-.6 0 2 2 0 0 0-.5.4 1.7 1.7 0 0 1-.4.3s.3.1.4.5a1.1 1.1 0 0 1 0 .3.8.8 0 0 1-.1.2 2.6 2.6 0 0 0 1.4-.3 2.3 2.3 0 0 0 .5-.5.8.8 0 0 0 0-.3v-.2l-.2-.6a.7.7 0 0 1 0-.1 6.6 6.6 0 0 0-.6-1l-1-1.6a5.5 5.5 0 0 0-.5-.7 1.3 1.3 0 0 0-.4-.3 1.3 1.3 0 0 0-.3 0H69l-.7-.2h-.1a3.2 3.2 0 0 1-.5-.2 1.1 1.1 0 0 1-.3.4H67a1.4 1.4 0 0 1-1 .1 1.1 1.1 0 0 1-.3-.1.8.8 0 0 1-.2 0l-.3.2-1.6 1.5a6 6 0 0 1-.4.8c-.3.4-.4.7-.3.8a1.4 1.4 0 0 1 .6.1 3.2 3.2 0 0 0-.5 0 .6.6 0 0 1 .3.3s0 .1 0 0a1 1 0 0 0-.6-.3 2.6 2.6 0 0 0-1 .2h-.1c.3.1.2.8-.1 1a5 5 0 0 0 .9.2.6.6 0 0 0 .3 0 6 6 0 0 0 .7-.7 5.3 5.3 0 0 0 1-1.6 3 3 0 0 0 .2-1.2 1.2 1.2 0 0 1 0-.2s0 .2 0 .2a3.1 3.1 0 0 1 0 1v.2l.2-.1a4.4 4.4 0 0 1 .6 0Z"/></g><g id="g4717"><path id="path4719" class="cls-4" d="M70.2 36.6a.5.5 0 0 0-.4-.4 1.2 1.2 0 0 0-.3.2.4.4 0 0 1 .2.2.6.6 0 0 1 0 .3.5.5 0 0 1-.1.3h.5a.7.7 0 0 0 0-.4v-.2"/></g><g id="g4721"><path id="path4723" class="cls-3" d="M69.2 36.2a3.2 3.2 0 0 0 .3-.6 2.5 2.5 0 0 0 0-1.3 2.1 2.1 0 0 0-.3-.4 2.7 2.7 0 0 0-.3-.2 1.3 1.3 0 0 1 .3.5 2.6 2.6 0 0 1-.1 1.2 3.1 3.1 0 0 1-.2.5"/></g><g id="g4725"><path id="path4727" class="cls-1" d="M69.3 37.4h-.4a2 2 0 0 1-.5.2 1.2 1.2 0 0 1-.3 0 .1.1 0 0 1-.1-.1.4.4 0 0 1-.3 0 .3.3 0 0 1-.1-.2.3.3 0 0 1-.1-.2.4.4 0 0 1-.1-.2s0-.1 0-.2a.1.1 0 0 1 0-.2 2.4 2.4 0 0 1 0-1.5l.2-.3Z"/></g><g id="g4729"><path id="path4731" class="cls-3" d="M68.8 35.9a2.4 2.4 0 0 0 .1-.4c.3-.8.2-1.6-.1-1.8s-1 .4-1.2 1.2-.2 1.5.2 1.6a.7.7 0 0 0 .6-.2Z"/></g><g id="g4733"><path id="path4735" class="cls-1" d="m68.4 36.3-.1-.2c-.1 0-.3-.1-.3-.3s0-.3.2-.2a1.8 1.8 0 0 0 .3.2h.4a.4.4 0 0 1 0 .2 1 1 0 0 0 .2.2Z"/></g><g id="g4737"><path id="path4739" class="cls-3" d="M68.2 37.4H68l-.2-.1a.7.7 0 0 0 .2 0h-.1a.8.8 0 0 1-.3 0V37a1 1 0 0 0 .3 0 2.3 2.3 0 0 1-.4 0 1 1 0 0 1 0-.4s.1.1.2.2a2 2 0 0 0 .5-.1.5.5 0 0 0 .4-.4s0 0-.4-.2a.3.3 0 0 1 0-.4s0 .1.1.1a1 1 0 0 0 .2.1l.2.1c.2 0 .2.1.4.4a.8.8 0 0 0 .4.2c.2.2.1.5-.1.7a2 2 0 0 1-.5.2 1.2 1.2 0 0 1-.6.1.8.8 0 0 1-.2 0h.1"/></g><g id="g4741"><path id="path4743" class="cls-1" d="M67.4 31.4a5.2 5.2 0 0 0-.8 2.6h-.1a5.5 5.5 0 0 1 .7-2.4Z"/></g><g id="g4745"><path id="path4747" class="cls-1" d="M66.3 32a.1.1 0 0 1 .2 0 .1.1 0 0 1 0 .1.1.1 0 0 1-.2 0 .1.1 0 0 1 0-.2"/></g><g id="g4749"><path id="path4751" class="cls-1" d="M66.1 32.5a.1.1 0 0 1 .2 0 .1.1 0 0 1 0 .2.1.1 0 0 1-.2 0 .1.1 0 0 1 0-.2"/></g><g id="g4753"><path id="path4755" class="cls-1" d="M66 33.1a.1.1 0 0 1 .2 0 .1.1 0 0 1 0 .2.1.1 0 0 1-.2 0 .1.1 0 0 1 0-.2"/></g><g id="g4757"><path id="path4759" class="cls-1" d="M65.4 31.6a5.2 5.2 0 0 0-.6 2.3 4.8 4.8 0 0 1 .8-2.5Z"/></g><g id="g4761"><path id="path4763" class="cls-1" d="M66.2 31.6a5 5 0 0 0-.6 2.3h-.2a5.1 5.1 0 0 1 .7-2.3Z"/></g><g id="g4765"><path id="path4767" class="cls-1" d="M67.3 34.2a6.6 6.6 0 0 1 1-3 6.3 6.3 0 0 0-.8 3Z"/></g><g id="g4769"><path id="path4771" class="cls-1" d="M68.1 33.9a6.1 6.1 0 0 1 .9-2.4 5.7 5.7 0 0 0-.8 2.2Z"/></g><g id="g4773"><path id="path4775" class="cls-1" d="M61 40a6.5 6.5 0 0 1 1.5-1.6 6.7 6.7 0 0 0 1.7-2 6.6 6.6 0 0 0 .5-1c0-.2 0 0 0 0a2 2 0 0 1-.2.4 4.5 4.5 0 0 1-.8 1.6c-.6.7-2 1.8-2.5 2.6Z"/></g><g id="g4777"><path id="path4779" class="cls-1" d="M67.1 30.6a2.1 2.1 0 0 0 .9-2 2.6 2.6 0 0 1 0-.3 1.8 1.8 0 0 0-.8-1.3 3.7 3.7 0 0 1 .6.8 3.2 3.2 0 0 1 0 1.1 2.1 2.1 0 0 1-.3 1.1 1.7 1.7 0 0 1-.8.6Z"/></g><g id="g4781"><path id="path4783" class="cls-1" d="M64.8 27.8a2.5 2.5 0 0 0-.5.4 8 8 0 0 1 .8-.6 5.7 5.7 0 0 1 1-.4 2.4 2.4 0 0 0-1.3.6"/></g><g id="g4785"><path id="path4787" class="cls-1" d="M63.2 29.2a3.2 3.2 0 0 0 1.7-.8 5.2 5.2 0 0 1-1.2.6 1.1 1.1 0 0 1-.6.1Z"/></g><g id="g4789"><path id="path4791" class="cls-1" d="M62.7 19.4c-.1 0-.3 0 0 .1a.6.6 0 0 1 .3.2 1.5 1.5 0 0 1 .2.5 2.1 2.1 0 0 1 .1.6 1.8 1.8 0 0 0 0-1 .6.6 0 0 0-.6-.3"/></g><g id="g4793"><path id="path4795" class="cls-1" d="M68.3 21c-.1-.1-.2-.1 0 0a1 1 0 0 1 0 .3 1.2 1.2 0 0 1 .1.5 2.2 2.2 0 0 1 0 .5c0 .1 0 .1 0 0a1.5 1.5 0 0 0 .1-.9c0-.2 0-.3-.2-.4"/></g><g id="g4797"><path id="path4799" class="cls-1" d="M74.5 26.7c0-.1 0-.3-.2-.4a1.1 1.1 0 0 0-.7 0 1.6 1.6 0 0 0-.9.4s0 .1 0 0a2.5 2.5 0 0 1 .6-.2 1.2 1.2 0 0 1 .6-.1 1 1 0 0 1 .3 0l.3.3"/></g><g id="g4801"><path id="path4803" class="cls-1" d="M75.4 30.2a1 1 0 0 1 .4 0l.3.3s0-.3-.3-.4a1.1 1.1 0 0 0-.7 0 1.6 1.6 0 0 0-.8.4s0 .1 0 0a2.5 2.5 0 0 1 .6-.3 1.2 1.2 0 0 1 .5 0"/></g><g id="g4805"><path id="path4807" class="cls-1" d="M71.3 23.4a1.7 1.7 0 0 0-1 .4 3.1 3.1 0 0 1 .6-.3c.3 0 .7 0 .9.2l.2.2v-.4a.7.7 0 0 0-.7-.2"/></g><g id="g4809"><path id="path4811" class="cls-1" d="m55.2 25.5-1.5 2.3v.1l1.5-2.3v-.1"/></g><g id="g4813"><path id="path4815" class="cls-1" d="m56 24.2-.6.9.6-.8v-.1"/></g><g id="g4817"><path id="path4819" class="cls-1" d="M58.2 20.5H58L56 24l2-3.4"/></g><g id="g4821"><path id="path4823" class="cls-1" d="m58.3 20.2.5-.6v-.1h-.1l-.4.6v.1"/></g><g id="g4825"><path id="path4827" class="cls-1" d="m59 19.2 2.9-4.8a.1.1 0 0 0-.1 0L59 19"/></g><g id="g4829"><path id="path4831" class="cls-1" d="m62.2 13.8.5-.7V13h-.1l-.5.7v.1"/></g><g id="g4833"><path id="path4835" class="cls-1" d="m61.6 20.4 2.9-4.7h-.1l-2.8 4.7"/></g><g id="g4837"><path id="path4839" class="cls-1" d="m64.7 15.3 1.3-2V13l-1.3 2.1v.1"/></g><g id="g4841"><path id="path4843" class="cls-1" d="m66.3 12.5 1.3-2v-.2l-1.3 2.1v.1"/></g><g id="g4845"><path id="path4847" class="cls-1" d="m67 15-3.5 5.8 3.5-5.6V15"/></g><g id="g4849"><path id="path4851" class="cls-1" d="m67.2 14.8.7-1h-.1l-.7 1"/></g><g id="g4853"><path id="path4855" class="cls-1" d="m67 18.5.8-1.4h-.1l-.9 1.3v.1"/></g><g id="g4857"><path id="path4859" class="cls-1" d="m68 16.6.3-.4-.4.4"/></g><g id="g4861"><path id="path4863" class="cls-1" d="M68.6 15.6h.1l1.7-2.9-1.8 2.8v.1"/></g><g id="g4865"><path id="path4867" class="cls-1" d="M57.8 34.3h-.1l-1 1.5h.1l1-1.5"/></g><g id="g4869"><path id="path4871" class="cls-1" d="M58.5 33h-.1l-.5.9v.1h.1l.5-.8V33"/></g><g id="g4873"><path id="path4875" class="cls-1" d="m70.6 16.3-3.2 5.3 3.2-5.2"/></g><g id="g4877"><path id="path4879" class="cls-1" d="m71 15.7.7-1v-.1l-.7 1v.1"/></g><g id="g4881"><path id="path4883" class="cls-1" d="m68.7 22.2 2.3-3.8v-.1l-2.4 3.8v.1"/></g><g id="g4885"><path id="path4887" class="cls-1" d="m71.2 18 1.9-3.2H73l-1.8 3v.1"/></g><g id="g4889"><path id="path4891" class="cls-1" d="m74 13.4 1.8-3h-.1l-1.8 3"/></g><g id="g4893"><path id="path4895" class="cls-1" d="m73.3 14.5.4-.7h-.1l-.4.6"/></g><g id="g4897"><path id="path4899" class="cls-1" d="m73.7 17.4-.4.6v.1l.5-.6v-.1h-.1"/></g><g id="g4901"><path id="path4903" class="cls-1" d="M72.7 26.2 76 21 72.7 26v.1"/></g><g id="g4905"><path id="path4907" class="cls-1" d="m76.2 20.4 2.8-4.7h-.1L76 20.3"/></g><g id="g4909"><path id="path4911" class="cls-1" d="m74 28.5.8-1.2v-.1h-.1l-.7 1.2"/></g><g id="g4913"><path id="path4915" class="cls-1" d="M77 23.3h-.1L75 26.6v.1l2-3.3"/></g><g id="g4917"><path id="path4919" class="cls-1" d="m77.4 22.8 2.6-4.2v-.1l-2.6 4.2v.1"/></g><g id="g4921"><path id="path4923" class="cls-1" d="M78.4 23.1 76.5 26l1.8-2.7v-.1"/></g><g id="g4925"><path id="path4927" class="cls-1" d="m78.6 22.9.2-.3v-.1l-.3.3h.1"/></g><g id="g4929"><path id="path4931" class="cls-1" d="m79 22.2 2-3.5-2 3.4"/></g><g id="g4933"><path id="path4935" class="cls-1" d="M76.1 35H76l-1 1.8 1.2-1.8"/></g><g id="g4937"><path id="path4939" class="cls-1" d="M76.6 34.2h-.1l-.3.4v.1h.1l.2-.4"/></g><g id="g4941"><path id="path4943" class="cls-1" d="m77.5 32.6-.4.6.4-.5"/></g><g id="g4945"><path id="path4947" class="cls-1" d="m78 31.8-.3.3h.1l.2-.2"/></g><g id="g4949"><path id="path4951" class="cls-1" d="m78.5 30.9-.2.3.2-.2v-.1"/></g><g id="g4953"><path id="path4955" class="cls-1" d="m81.4 26-2.8 4.6 2.7-4.4V26"/></g><g id="g4957"><path id="path4959" class="cls-1" d="m82.6 24-1 1.5h.1l.9-1.3V24"/></g><g id="g4961"><path id="path4963" class="cls-1" d="m58.2 26.2 2-3.4L58 26v.1"/></g><g id="g4965"><path id="path4967" class="cls-1" d="M61.2 21.2H61l-.8 1.3.8-1.2"/></g><g id="g4969"><path id="path4971" class="cls-1" d="m58.2 30 2.7-4.4-.1-.1-2.7 4.4v.1"/></g><g id="g4973"><path id="path4975" class="cls-1" d="m63 25-2.6 4.4 2.7-4.4v-.1"/></g><g id="g4977"><path id="path4979" class="cls-1" d="M61 25.2h.1l.6-1-.7 1"/></g><g id="g4981"><path id="path4983" class="cls-1" d="m60.2 29.8-.7 1 .7-1"/></g><g id="g4985"><path id="path4987" class="cls-1" d="M66.7 23h-.1l-1 1.7v.1l1-1.7"/></g><g id="g4989"><path id="path4991" class="cls-1" d="m67.1 22.2-.3.5v.1l.3-.5"/></g><g id="g4993"><path id="path4995" class="cls-1" d="m69.1 25.3-.4.4v.1l.4-.5"/></g><g id="g4997"><path id="path4999" class="cls-1" d="m72.4 27 .2-.4v-.1l-.2.3Z"/></g><g id="g5001"><path id="path5003" class="cls-1" d="m72.3 26.8-2 3.5v.1l2-3.4Z"/></g><g id="g5005"><path id="path5007" class="cls-1" d="m74 30.6.3-.4V30h-.1l-.2.3Z"/></g><g id="g5009"><path id="path5011" class="cls-1" d="m74 30.5-1.8 3 1.8-2.9Z"/></g><g id="g5013"><path id="path5015" class="cls-1" d="m74.3 30 2.2-3.6h-.1l-2.1 3.5"/></g><g id="g5017"><path id="path5019" class="cls-1" d="m57.4 31.4.6-1-.1-.1-.6 1Z"/></g><g id="g5021"><path id="path5023" class="cls-1" d="m57.3 31.3-.8 1.3v.1l.8-1.3Z"/></g><g id="g5025"><path id="path5027" class="cls-1" d="m65.3 21.4 1.5-2.5v-.1l-1.6 2.5Z"/></g><g id="g5029"><path id="path5031" class="cls-1" d="m65.2 21.3-2 3.3 2-3.2Z"/></g><g id="g5033"><path id="path5035" class="cls-1" d="m70 23.9 3.2-5.4H73l-3.2 5.3Z"/></g><g id="g5037"><path id="path5039" class="cls-1" d="m69.9 23.8-.3.5v.1l.4-.5Z"/></g></g></svg>