<svg data-name="Layer 1" xmlns="http://www.w3.org/2000/svg" viewBox="0 0 136.3 77.6"><g data-name="Layer 1"><g data-name="Nissan Badge"><path d="M74 41.1a2.2 2.2 0 0 1-.4 0h-7.2v1.7h7.9a2.4 2.4 0 0 0 2.2-2.4 2.4 2.4 0 0 0-2-2.5 5.1 5.1 0 0 0-.7 0H69a3.2 3.2 0 0 1-.5 0 .7.7 0 0 1 0-1.4 2.4 2.4 0 0 1 .5 0h7v-1.8h-7a4.4 4.4 0 0 0-.7 0 2.4 2.4 0 0 0 0 4.8H73.7a1.8 1.8 0 0 1 .4 0 .8.8 0 0 1 .7.8.8.8 0 0 1-.8.8ZM60.3 41.1a2 2 0 0 1-.3 0h-7.3v1.7h7.4a5.6 5.6 0 0 0 .5 0 2.4 2.4 0 0 0 2.2-2.4 2.4 2.4 0 0 0-2-2.5 5.2 5.2 0 0 0-.6 0h-4.8a3 3 0 0 1-.6 0 .7.7 0 0 1 0-1.4 2.5 2.5 0 0 1 .5 0h7v-1.8h-7a4.5 4.5 0 0 0-.7 0 2.4 2.4 0 0 0 0 4.8H60a1.7 1.7 0 0 1 .3 0 .8.8 0 0 1 0 1.6ZM47.1 34.7h1.8v8.2h-1.8zM43.1 42.9v-8.2h-1.8v6.1l-6-6.1h-2.4v8.2h1.8v-6.2l6.1 6.2h2.3zM101.6 34.7v6.1l-6-6.1h-2.4v8.2h1.9v-6.2l6 6.2h2.3v-8.2h-1.8zM83.8 34.7l-5.2 8.2H81l.9-1.5h6l.9 1.5h2.2l-5.2-8.2Zm3 5.2h-4.1l2-3.3ZM43 30a26.6 26.6 0 0 1 50.3 0h8v-1l-3.3-.3a3.3 3.3 0 0 1-3-2.3l-.2-.3a29.5 29.5 0 0 0-53.3 0l-.2.3a3.3 3.3 0 0 1-3 2.3l-3.3.4v1h8ZM93.4 47.5a26.6 26.6 0 0 1-50.4 0h-8v1l3.3.3a3.3 3.3 0 0 1 3 2.3l.2.3a29.5 29.5 0 0 0 53.4 0l.1-.3a3.3 3.3 0 0 1 3-2.3l3.4-.3v-1Z"/></g></g></svg>