<svg id="Layer_1" data-name="Layer 1" xmlns="http://www.w3.org/2000/svg" viewBox="0 0 136.3 77.6"><defs><style>.cls-2{fill:#fff}</style></defs><path d="M97 38.8a28.9 28.9 0 1 1-28.8-29 28.9 28.9 0 0 1 28.9 29" fill="#0d2d77"/><path class="cls-2" d="M78.7 36.5h-2.9v1.3h2.9v1.8h-2.9v1.5h2.9v2.4h-6v-9.4h6v2.4zM84 41l1.2-2.4 1.1 2.4Zm1.2-7.6-5.7 10.2h3.2l.6-1H87l.5 1H91ZM66.8 38.3l2.1-4.2h3.3l-5.4 10.1-5.4-10h3.3l2 4.1M60.9 43.5h-3.1v-9.4h3ZM51.9 37.8v-3.7H55v10.1l-5-4.3v3.6h-3.1V33.4l5 4.4z"/></svg>