<svg id="Layer_1" data-name="Layer 1" xmlns="http://www.w3.org/2000/svg" viewBox="0 0 136.3 77.6"><defs><style>.cls-1{fill:#a00f2b}</style></defs><path class="cls-1" d="M104.6 34.5c-.7 0-1.2-.3-1.2-.7-.2-.7.6-1.6 1.8-1.7a1.1 1.1 0 0 1 1 .4 1 1 0 0 1 0 1.2 1.8 1.8 0 0 1-1.6.8Zm-39.9 5.7c1-.5 2-.8 2.1-.5s-.5.7-1.2 1.1a5.3 5.3 0 0 0-2 5.9c.8 3 4.5 4.9 8.7 4.3 3.7-.6 8.4-3.6 7-8.5a15.2 15.2 0 0 0-3-4.9 15.4 15.4 0 0 1-3-5c-1.5-4.7 1.4-8.4 7.3-9.2 4-.6 8.2 1.3 9.1 4.2a4 4 0 0 1-2.5 4.6c-.6.3-1 .2-1.2 0s.1-.6.6-1a3 3 0 0 0 1.2-3.5A4.2 4.2 0 0 0 85 25a7.4 7.4 0 0 0-8.2 1.8 4.2 4.2 0 0 0-.8 4 15.6 15.6 0 0 0 3 5 16.2 16.2 0 0 1 3.4 5.5 7.1 7.1 0 0 1-1.4 6.7 13.4 13.4 0 0 1-8.5 4.2c-5 .7-10-1.7-11.3-5.3-.8-2.8.6-5.2 3.4-6.7Zm62 5.8c.1.1 0 .6-.3 1.1a7 7 0 0 1-5.7 2.7 4.1 4.1 0 0 1-4.3-3c-4 4.7-10.5 3.7-10.7-.6-2.7 3.6-4.3 3.7-5.5 3.7a2.4 2.4 0 0 1-2.6-2.5c-1.4 1.3-3 1.4-3.1 1.2s0-.5.6-.7c1.9-.9 3-2.7 4-4.6l3.2-6.5h2.6l-4 8.3c-.4 1.4-1.5 3.3 0 3.5 1.8.2 3.9-2.6 5.3-5.5 1.5-3.2 4-6.4 7.6-6.4a3 3 0 0 1 2 1 1.8 1.8 0 0 1 .3 2.3c-.7 1-2.3 1.1-2.7.2-.3-.4 0-1 .5-1.2a5.2 5.2 0 0 1 .8-.3c0-.2-.2-.8-1.1-.9-2.4-.2-5.6 5.7-5 8.6a2.3 2.3 0 0 0 1.7 1.9c2.8.6 4.8-1.8 6.7-5.7 1.5-3.2 4.1-5.8 7.2-5.8a2.1 2.1 0 0 1 2.3 1.4c.4 1.6-1.2 4.5-6.1 5.9l-.7.1a2.3 2.3 0 0 0-.3.6 2.8 2.8 0 0 0 .4 2.7 2.7 2.7 0 0 0 2 .7 4.6 4.6 0 0 0 3.6-1.4c.3-.3 1-1 1.2-.8Zm-6-4.4a12.7 12.7 0 0 0-.6 1.3c3.1-.7 5.4-3 5-4.4a.8.8 0 0 0-.9-.5c-1.4 0-3.1 2.7-3.6 3.6Zm-26.5-4.8c2.3.6 3.2 2.4 2.6 5-.8 4.2-5 8.1-8.7 7.7a3.3 3.3 0 0 1-2.4-1.3l-.3.8-1.9 4-1.4 3h-2.7l.9-1.9 4.3-9.3 3.7-8.7H91l-.8 1.7a7.7 7.7 0 0 1 1.1-.7 5.5 5.5 0 0 1 2.9-.3Zm.4 4.1c.4-1.6.1-2.6-.7-2.8a3.5 3.5 0 0 0-3.2 1c-2.2 2-4 6.6-3.3 8.5a1 1 0 0 0 .8.7c2.4.6 5.6-4 6.4-7.4ZM53.4 43c-1.2 3-1.5 4.4-1.2 5s1 .4 1.4.2a7 7 0 0 0 3.3-3.2c.2-.4.6-.5.7-.4s.2.3.1.6c-.6 1.6-2.6 4.6-5.6 4.5a3 3 0 0 1-3-2.4l-.7.6a7 7 0 0 1-3.4 2 2.7 2.7 0 0 1-3.3-2.7l-1.2 1a6.2 6.2 0 0 1-4.3 1.7c-2.4-.2-3-1.9-3-3.9a17.2 17.2 0 0 1-3 1.8c-.3.2-1 .5-1.3.3s.1-.7.5-.9a43 43 0 0 0 4.3-3.4 8.3 8.3 0 0 0 .5-1.3c1.3-4 5-15.5 10.9-15.4a2 2 0 0 1 1.6.8c1.5 2.2-3 9.4-10 15.2 0 0-1.7 4-.9 5a1.3 1.3 0 0 0 .7.3c2.3.5 4-2.5 6-5.2 2.1-2.9 4.3-5.8 7.5-6.2a2.7 2.7 0 0 1 2.5.8 5.7 5.7 0 0 1 .4.7l5-10.9h2.6Zm-14.7-5.2a68 68 0 0 0-1 2.6c3-2.4 9-10 7.9-11.5a.5.5 0 0 0-.5-.1c-2.1.1-4.6 5.2-6 8Zm6.6 10.5c2.3.2 6.2-6.2 6.2-8.9 0-.9-.4-1.1-.7-1.1-1.5-.2-3 1.5-3.8 2.5-1.8 2.3-3.3 5.9-2.5 7.1a1 1 0 0 0 .8.4ZM29.6 43c-5 7.9-13.1 11.5-18.3 8.2s-5.1-12.5-.1-20.3 13.2-11.5 18.3-8.1 5.2 12.4.1 20.2m-1-19.1c-3.9-2.4-10.5 1.5-14.8 8.9s-4.8 15-1 17.3 10.6-1.6 14.9-8.9 4.7-15 .9-17.4M130.8 44.3a1.9 1.9 0 0 1-1.8 1.9 2 2 0 0 1-1.9-2 1.8 1.8 0 0 1 1.9-1.7 1.8 1.8 0 0 1 1.8 1.8Zm-.5 0a1.3 1.3 0 0 0-1.3-1.4 1.4 1.4 0 0 0 0 2.8 1.3 1.3 0 0 0 1.3-1.4Zm-2-1h.7c.5 0 .8.1.8.6a.5.5 0 0 1-.5.5l.5.9h-.4l-.5-.9h-.3v.9h-.4Zm.4.8h.3c.2 0 .4 0 .4-.3s-.2-.2-.4-.2h-.4Z"/></svg>