<svg id="Layer_1" data-name="Layer 1" xmlns="http://www.w3.org/2000/svg" viewBox="0 0 136.3 77.6"><defs><style>.cls-1{fill:#b1b833}.cls-2{fill:#544e47}</style></defs><path class="cls-1" d="M74.5 10.2h.1a35.6 35.6 0 0 1 2.4 6.4 8.6 8.6 0 0 1 0 4.9c0 .2-.3.5-.1.8a9.6 9.6 0 0 0 .9 2 13.5 13.5 0 0 0 2.9.6 15.6 15.6 0 0 1 0-4c2.7 3 5.2 6.5 6 10.6A10.7 10.7 0 0 0 89 33a6.4 6.4 0 0 0-.4-1.7 14.7 14.7 0 0 1-.4-4.2l-2.7-.5a9 9 0 0 1-.7-1.1l3.5.4a4.1 4.1 0 0 0-.7-3.2 5 5 0 0 1-3.4-2.5 51.9 51.9 0 0 1-2.9-5.2 9.5 9.5 0 0 1 6 4A5.8 5.8 0 0 1 88 22c0 .4.4.8.6 1.2.3-.7.5-1.5.9-2.2.6-1.1.2-2.5 0-3.7a2 2 0 0 1-2.2-2.7 1.8 1.8 0 0 1 2.5-1 2.2 2.2 0 0 1 1 2.4 3.6 3.6 0 0 1-.8 1.1 14.2 14.2 0 0 1 .4 2.3 16 16 0 0 1 3-3.1 12.1 12.1 0 0 1 3-3.3 10.7 10.7 0 0 1 8-2 39.2 39.2 0 0 1-5.7 4.5 7 7 0 0 1-5 1.2 11.7 11.7 0 0 0-3.7 4.9 8.4 8.4 0 0 0 1.9-.5c.6-.4 1.1-1 1.8-1.3a10.8 10.8 0 0 1 4.7-1.5l3.9-.3a9.4 9.4 0 0 1-2.8 2.3 10.7 10.7 0 0 1-7 1.6 5.3 5.3 0 0 0-2.6.3 5 5 0 0 0-.6 1.8 15.7 15.7 0 0 0 .3 7 10.3 10.3 0 0 0 5.6 6.1 9.6 9.6 0 0 0-1-2.9 10.2 10.2 0 0 1-1.2-5.8 23 23 0 0 0-3.5-1.3V26a21.6 21.6 0 0 1 3.7 1 10.1 10.1 0 0 1 1.6-3.5 35.3 35.3 0 0 1 1.5 7.2 6.5 6.5 0 0 1-1 4.4 10.4 10.4 0 0 0 .7 2.5c0 .2.4.3.6.4a18.9 18.9 0 0 0 7.4 1.2h2.4a3 3 0 0 1 .7 1.7 21.1 21.1 0 0 1-9-.7 16 16 0 0 1-6.7-3.9 6.2 6.2 0 0 0-2.3 0c.5 1.6-1.3 2.8-2.7 2.3a1.8 1.8 0 0 1-.7-2.8 2 2 0 0 1 3.2 0l1.9-.2c-.7-.7-1-1.7-2-2.1s-1.6-1-2.5-1.4a7 7 0 0 1-2.4-1 8.5 8.5 0 0 1-3.2-5.4 19.8 19.8 0 0 1-4.2-1 15 15 0 0 0-4.2-1.2 17.7 17.7 0 0 1-5.2 1.2 9.5 9.5 0 0 1-6.3-1.7 9.1 9.1 0 0 1 2.8-1 11.1 11.1 0 0 1 8.5.8 4.8 4.8 0 0 0 2 .7 11.9 11.9 0 0 1-3-3.7 1 1 0 0 0-.7-.6 11 11 0 0 1-5.1-1.6 24 24 0 0 1-4.3-4 12.5 12.5 0 0 1 7.8 2.3 7 7 0 0 1 2.5 3A9.5 9.5 0 0 0 77 24a8.8 8.8 0 0 0-1-2.5c-1.4-2-2.6-4.3-2.5-6.8a11 11 0 0 1 1-4.5Zm22.4 4a10.1 10.1 0 0 0-2.2 1.7c1.6-.7 3-1.6 4.5-2.3A29.8 29.8 0 0 0 102 12a17 17 0 0 0-5 2.1Zm-22.2-1.7a16.2 16.2 0 0 0 .4 5.3 10.4 10.4 0 0 0 1.1 2.9c-.3-2.8-1-5.5-1.5-8.2Zm14 1.7c-.4.1-1 .6-.5 1a2.5 2.5 0 0 1 1.7-.7 1.7 1.7 0 0 0-1.1-.3Zm-25.5.2 3 1.8a24.3 24.3 0 0 0 4 2 15.8 15.8 0 0 0-7-3.8Zm19.6 1.9a36 36 0 0 1 2.5 2.7 27.3 27.3 0 0 0 2.2 2.7 11.2 11.2 0 0 0-4.7-5.4ZM93.8 21a1.4 1.4 0 0 0 0 .2 16.4 16.4 0 0 0 6.4-2.2c-2.1.6-4.2 1.5-6.4 2Zm-30.7 2a10.6 10.6 0 0 0 2 .3 21.2 21.2 0 0 0 6-.2 39 39 0 0 0-8-.1Zm18.6.1a16.1 16.1 0 0 0 1.3 4 10.1 10.1 0 0 0 2.6 3.8 30.3 30.3 0 0 0-2-3.6 44.6 44.6 0 0 1-2-4.2Zm12.8 7.3a11 11 0 0 0 .5 3.3 9 9 0 0 0 .1-2l-.3-5.9a20.6 20.6 0 0 0-.3 4.7Zm-8.2 6a4 4 0 0 0 .3.4 4.4 4.4 0 0 1 1.8-.9 1.6 1.6 0 0 0-2.2.5Z"/><path class="cls-1" d="M96.8 29a14.1 14.1 0 0 1 4.6 6 4.1 4.1 0 0 1-1.6.4 17.6 17.6 0 0 0-2.8-4.2 17.2 17.2 0 0 0-.2-2.2ZM103.4 34c.2-.5.8-.3 1.2-.3l.4.3v.8c-.3.3-.5.6-1 .6l.6-.3-.6-.6-.3.4v-1.1a.8.8 0 0 0 .8 0l-.1.7.3.3a.8.8 0 0 0-.2-1 .8.8 0 0 0-.8 0c-.8.3-.3 1.2.2 1.6a1 1 0 0 1-.5-1.4ZM53.9 64.4h.6v3h-.6v-3ZM75.1 64.4h.6v3h-.5l-1.4-1.9v1.9H73v-3h.6l1.4 1.8v-1.8ZM83.2 64.4h.7v3h-.7ZM92.8 64.4h.6v1.2h1.2v-1.2h.7v3h-.7v-1.2h-1.2v1.2h-.6v-3ZM102.4 64.5h.6v3l-.6-.2-1.4-1.8v1.9h-.6v-3h.6l1.4 1.8v-1.8ZM55.9 64.4h2.4v.6h-.9v2.4h-.6V65h-1ZM59 67.4l1.3-3h.6l1.2 3c-.5 0-.8-.3-1-.7H60l-.2.6Zm1.1-1.3h.8c0-.3-.2-.6-.4-.9ZM63.4 64.4h.6v2.4h1.5v.6h-2.1v-3ZM66.8 64.4h.7v3h-.7ZM68.8 67.4l1.2-3h.6l1.3 3h-.7l-.3-.6h-1.2l-.3.6Zm1.5-2.2-.4 1h.8l-.4-1ZM79.3 64.4h.7v1.3c.6-.5 1-1.5 2-1.3l-1.2 1.3 1.2 1.7h-.7l-1-1.3a1.8 1.8 0 0 0-.3 1.3h-.6v-3ZM85.2 64.4h2.4l.1.6h-1v2.3h-.6V65h-1l.1-.6ZM89.4 64.6a1.8 1.8 0 0 1 2 .2l-.4.5a1 1 0 0 0-1.6.8 1 1 0 0 0 1.6.4l.4.4a1.7 1.7 0 0 1-2 .2 1.6 1.6 0 0 1 0-2.5ZM96.8 64.4H99v.6h-1.6v.6h1.4v.6h-1.4v.6H99v.6h-2.2v-3Z"/><path class="cls-2" d="M46.4 22.6a2.3 2.3 0 0 1 3.2 0 5.2 5.2 0 0 1 1.3 4 18.1 18.1 0 0 1-3.2 9.4 2.3 2.3 0 0 0 1.4 1.2 4.2 4.2 0 0 0 4-1.8c-.3-2.3-.1-4.5-.1-6.8h1.9V34a4.7 4.7 0 0 0 .7 2.6 1.7 1.7 0 0 0 1.8.6A4.3 4.3 0 0 0 59 36l.8 2a4.1 4.1 0 0 1-4 1 3.8 3.8 0 0 1-2-1.5 6.6 6.6 0 0 1-2.6 1.5 4.6 4.6 0 0 1-4.4-1 7.2 7.2 0 0 1-1.6-4.7v-7a5.5 5.5 0 0 1 1.2-3.7Zm.7 4.2v6.8A17.7 17.7 0 0 0 49 27c0-1.1 0-2.4-.9-3.2a4 4 0 0 0-.9 3ZM33.8 24.5a3.7 3.7 0 0 1 3.3-2.1 5.7 5.7 0 0 1 4.7 1.9 10.1 10.1 0 0 1 2.1 6.5 9.2 9.2 0 0 1-2.2 6.6 7.3 7.3 0 0 1-9.9.4 8.2 8.2 0 0 1-2.6-5.4 9.6 9.6 0 0 1 2.7-8c.3.6.6 1.2.8 2a7.8 7.8 0 0 0 0 9.4 5.3 5.3 0 0 0 7.7 0 7.5 7.5 0 0 0 1.6-5.4 8 8 0 0 0-1.7-4.8 3.6 3.6 0 0 0-4-1 1.5 1.5 0 0 0-.2 2.6A3.7 3.7 0 0 0 39 27l.7 1.8a4.7 4.7 0 0 1-4.7.1 3.5 3.5 0 0 1-1.1-4.3Z"/><path class="cls-2" d="M53.4 24.8a1.1 1.1 0 1 1-.1 1.9 1.1 1.1 0 0 1 .1-1.9ZM71.4 28.2a4.3 4.3 0 0 1 4.7.6 3.1 3.1 0 0 1-.2 4.6c-1.6 1.3-4 1.2-5.7.4A3.3 3.3 0 0 0 75 37a7.3 7.3 0 0 0 2.3-1.7l.8 2a6.7 6.7 0 0 1-4.4 2 5 5 0 0 1-4.5-2.1 6.4 6.4 0 0 1-1-4.4l-1.4-1.3a15.4 15.4 0 0 1-3.6 7.7h-1.8A56.2 56.2 0 0 0 57 28.6h2.2a56.3 56.3 0 0 1 3.5 8.2c1.6-2.2 3-5.2 1.9-8a5.7 5.7 0 0 1 1.8-.5 20.6 20.6 0 0 0 2.5 2.5 5.5 5.5 0 0 1 2.5-2.6Zm-.8 3.7a4.5 4.5 0 0 0 3.7.2 1.2 1.2 0 0 0 .6-1.7 2 2 0 0 0-2.1-.6 3 3 0 0 0-2.2 2ZM37.8 43a7.2 7.2 0 0 1 8.7-2.8 4.3 4.3 0 0 1 2.6 4 4.3 4.3 0 0 1-2.8 4 14.2 14.2 0 0 1-.6-1.7c.4-.4 1-.8 1.3-1.4a2.3 2.3 0 0 0-1.2-3 5.2 5.2 0 0 0-6 1.6 7.8 7.8 0 0 0-1.4 6 5.3 5.3 0 0 0 1.9 3.3 5.2 5.2 0 0 0 4.6.7 5.5 5.5 0 0 0 3.3-3 8.8 8.8 0 0 0 .7-3.4h1.9v8c0 1.6-.3 3.5-1.6 4.7a4.5 4.5 0 0 1-5.5.2l.7-1.9a3.2 3.2 0 0 0 2.2.7 2 2 0 0 0 1.8-1.3c.6-1.5.4-3.2.4-4.8a7.2 7.2 0 0 1-3.2 2.6 7 7 0 0 1-7-1.3 7.4 7.4 0 0 1-2.2-4.4 10.2 10.2 0 0 1 1.4-6.8ZM80 39.6h2v11.8c0 .8.1 1.8.9 2.2s1.3-.4 1.8-.8a6.5 6.5 0 0 1 .7-6.4c1.5-1.9 4.6-2.5 6.4-.8a3.2 3.2 0 0 1-.4 5c-1.6 1-3.6.8-5.2.2a3.8 3.8 0 0 0 1 2.1 3.5 3.5 0 0 0 3.2.7 5.7 5.7 0 0 0 3.8-3.2 2.8 2.8 0 0 0 .2-1.4v-4a18.3 18.3 0 0 1 2 0v1a4.8 4.8 0 0 1 2.4-1.2 3.6 3.6 0 0 1 3.7 1.6c.8 1.4.5 3.2.5 4.8 0 .8-.1 1.8.6 2.4a1.7 1.7 0 0 0 2-.6c.3-.2.5-.6.8-.6l.8 1.8a4 4 0 0 1-3.6 1.4 3 3 0 0 1-2.5-2.6c-.2-1.6 0-3.2-.1-4.7a1.6 1.6 0 0 0-.7-1.3 2.3 2.3 0 0 0-2.3.2 4.3 4.3 0 0 0-1.7 3.4v4.9h-2v-2.3a7 7 0 0 1-2.8 2.2 5.6 5.6 0 0 1-5.7-1 3.6 3.6 0 0 1-3 1.2 3.1 3.1 0 0 1-2-1.7 5.4 5.4 0 0 1-2.2 1.6 4.5 4.5 0 0 1-5-1.4 7 7 0 0 1-1-5.8 4.5 4.5 0 0 1 3.5-3.5 4.6 4.6 0 0 1 4 1v-6.2Zm-3.8 7.1a2.9 2.9 0 0 0-1.7 2.4 5 5 0 0 0 .7 3.7 2.6 2.6 0 0 0 3.8.2 4 4 0 0 0 1-3 3.7 3.7 0 0 0-1.1-2.8 2.6 2.6 0 0 0-2.7-.5Zm11.6.2a3.7 3.7 0 0 0-1.5 1.8 4.5 4.5 0 0 0 3.8.3 1.3 1.3 0 0 0 .4-2 2.5 2.5 0 0 0-2.7 0Z"/><path class="cls-2" d="m63.5 44.4 1.8-.5a2.4 2.4 0 0 0 1.1 1c1.1.4 2.3 0 3.4.4a2.4 2.4 0 0 1 1.3 2c.2 2.3-.2 4.6.6 6.7a4.8 4.8 0 0 0 2.7 3 7.2 7.2 0 0 0 3.8.2 7.1 7.1 0 0 1 .6 1.8 8 8 0 0 1-6.4-.8 7.1 7.1 0 0 1-2.9-4.5c-.5-2-.2-4.2-.3-6.2 0-.4-.5-.5-.8-.5a9.2 9.2 0 0 1-2.4-.2 24.3 24.3 0 0 1 .1 4.4 6.5 6.5 0 0 1-1.2 3.6 2.8 2.8 0 0 1-3.6.4A4.3 4.3 0 0 1 60 54a5.2 5.2 0 0 1-2.2 1.6 4.5 4.5 0 0 1-4.6-1.2 6.4 6.4 0 0 1-1.3-4.7 5.5 5.5 0 0 1 1.9-4 4.6 4.6 0 0 1 5.5 0l.2-.7h1.8V51a4 4 0 0 0 .7 2.4.9.9 0 0 0 1.3 0 3.8 3.8 0 0 0 .7-2 18.2 18.2 0 0 0-.6-7Zm-7.9 2.4A2.8 2.8 0 0 0 54 49a5 5 0 0 0 .6 3.8 2.5 2.5 0 0 0 4 0 4.5 4.5 0 0 0 .1-5.1 2.6 2.6 0 0 0-3-1Z"/></svg>