<svg id="Layer_1" data-name="Layer 1" xmlns="http://www.w3.org/2000/svg" viewBox="0 0 136.3 77.6"><defs><style>.cls-1{fill:#231f20}</style></defs><path class="cls-1" d="M14.8 29.1H6.2a5 5 0 0 1 .7 2.5v14.5a5.2 5.2 0 0 1-.7 2.3h4.7a5.3 5.3 0 0 1-.7-2.3v-4.6h5c2.9 0 7.7-2 7.7-6.3 0-3.3-3-6-8-6ZM14 40h-3.8v-9.2h3.9c4.1 0 5 2.3 5 4.4 0 2.5-1.5 4.8-5 4.8ZM39.2 45.8l-6.2-14h-4.2a1.5 1.5 0 0 1 .4 2l-5 11.5a8 8 0 0 1-2 3.1h3.7s-.2-.6.6-2.6l.7-1.8h7.6l.9 2a5.1 5.1 0 0 1 .4 2.3h5a10 10 0 0 1-2-2.5Zm-11.3-3.5 2.9-7 3.2 7ZM96.8 31.8a3.5 3.5 0 0 1 1 2.6v11.3a5 5 0 0 1-.6 2.7h3.3a5 5 0 0 1-.7-2.7v-10s4 5 7.4 9.1c2.6 2.6 3.4 3.7 5.1 3.6V33.5a7.2 7.2 0 0 1 .5-1.7h-3a5 5 0 0 1 .6 1.9v10l-6.7-8c-1.7-1.8-3-3.8-4.2-3.8ZM74.1 33.6a3.9 3.9 0 0 1 2.2.7v-2.4H62.2v2.3a4.3 4.3 0 0 1 2.2-.6h3.1v12.5a5.2 5.2 0 0 1-.7 2.3h4.8a5.3 5.3 0 0 1-.8-2.3V33.6h3.3ZM92.6 46a6.7 6.7 0 0 1-2.4.6h-6.6V41h5.1a6.2 6.2 0 0 1 2.8.3s0-1.7 0-2.4a4 4 0 0 1-1.5.4h-6.4v-5.6h6.7a4.8 4.8 0 0 1 2.1.7v-2.5H79.7a5 5 0 0 1 .7 2.5v11.8a5.2 5.2 0 0 1-.7 2.3h12.9ZM130.2 46a6.6 6.6 0 0 1-2.4.6h-6.6V41h5.2a6.1 6.1 0 0 1 2.7.3s0-1.7 0-2.4a4.1 4.1 0 0 1-1.5.4h-6.3v-5.6h6.6a4.8 4.8 0 0 1 2.1.7v-2.5h-12.7a5 5 0 0 1 .7 2.5v11.8a5.2 5.2 0 0 1-.7 2.3h12.8ZM43 31.8a3.5 3.5 0 0 1 1 2.6v11.3a5 5 0 0 1-.7 2.7h3.3a5 5 0 0 1-.7-2.7v-10s4 5 7.4 9.1c2.6 2.6 3.4 3.7 5.1 3.6V33.5a7.2 7.2 0 0 1 .5-1.7h-3a5 5 0 0 1 .6 1.9v10l-6.7-8c-1.6-1.8-3-3.8-4.2-3.8Z"/></svg>