<svg data-name="Layer 1" xmlns="http://www.w3.org/2000/svg" viewBox="0 0 136.3 77.6"><path d="M68 27.8a4.7 4.7 0 1 1-4.7-4.7 4.7 4.7 0 0 1 4.7 4.6ZM5.5 51.1l1-18.6 7.2 1.3a9 9 0 0 1 5.5 2.6 7.5 7.5 0 0 1 1.5 5.4q-.2 3.3-1.9 4.6t-5 .6l-2-.3-.3 5.5Zm6.8-12.4-.1 3.2 1 .2a1.8 1.8 0 0 0 1.3-.2 1.3 1.3 0 0 0 .5-1 1.6 1.6 0 0 0-.4-1.2 2.1 2.1 0 0 0-1.3-.8Zm8.9 14.8.6-18.1 11.4.9-.2 4.9-5.4-.4v1.7l4.9.4-.2 4.6-4.9-.4v2l5.5.4-.2 4.9Zm16.2.7.2-11.9h-3.2l.1-5.9 12.3.4-.1 5.8-3.3-.1-.2 12Z" fill="#e51837"/><path d="m49.8 52.5 1.7-5a12.6 12.6 0 0 0 2.5 1.3 5.2 5.2 0 0 0 2 .3 1.9 1.9 0 0 0 1-.3.8.8 0 0 0 .3-.7c0-.4-.6-.8-1.9-1l-1-.1a5.5 5.5 0 0 1-3-1.5 4.4 4.4 0 0 1-1.2-3 5.8 5.8 0 0 1 1.7-4.6 7.7 7.7 0 0 1 5.1-2 11.2 11.2 0 0 1 3 .2 13.4 13.4 0 0 1 3 1l-1.7 4.6a8 8 0 0 0-1.8-.9 4.9 4.9 0 0 0-1.8-.2 2 2 0 0 0-1 .2.7.7 0 0 0-.3.7c0 .5.9.8 2.6 1.1l.7.1a5 5 0 0 1 2.9 1.5 4.5 4.5 0 0 1 1.2 3 6 6 0 0 1-1.8 4.7 7.9 7.9 0 0 1-5.3 2.2 12.1 12.1 0 0 1-3.4-.3 15.6 15.6 0 0 1-3.5-1.3Zm29.6-1.1-.6-6.8-.1-1.5v-1.6a28 28 0 0 1-.8 3.5l-1.7 6.8-3.1.4-1.7-6.4a23.7 23.7 0 0 1-.6-3.2l-.2 1.6v1.6l-.7 6.9-5.2.7 2.5-17.6 5.5-.7 1 4 .1.7a28.3 28.3 0 0 1 .8 4.3h.1a31 31 0 0 1 1-5.3l1.2-4.3 5.4-.7 2.3 16.9ZM92.7 44h2.2l-.5-2a37.9 37.9 0 0 1-.6-3.8 15.2 15.2 0 0 1-.2 1.5L93 42Zm-7 6.4L91 33.1l5.8-.1 5.1 17.1-5.7.1-.4-2.2h-4l-.5 2.2ZM109 38v3.3h1a1.8 1.8 0 0 0 1.3-.3 1.5 1.5 0 0 0 .4-1.2 1.7 1.7 0 0 0-.4-1.3 2 2 0 0 0-1.4-.5Zm-6 12.3.1-16.8 7.6.3a7.9 7.9 0 0 1 5 1.6 5.4 5.4 0 0 1 1.7 4.3 4.6 4.6 0 0 1-.9 3 3.2 3.2 0 0 1-2.3 1.2l4.4 7-6.7-.3L109 45v5.5Zm18.4 1.5.2-11.6-3.2-.4.1-5.7 12.3 1.8-.1 5.6-3.3-.5-.2 11.6Z" fill="#0068b3"/><path d="M20.1 28.2c14.8-6.5 23.4-2.5 28.2 8.5-9.8-11.5-19-10.6-28.2-8.5ZM56 28c-5.8 4.8-6.1 7.6-7 10.6 2.4-3.4 5-6.2 8.7-7-1.6-1.3-1.3-2.4-1.7-3.6Z" fill-rule="evenodd" fill="#0064b1"/><path d="M60.2 27.3c.8-3.4 2.8-2.8 4.7-2.6-1.6.7-3.6.8-4.7 2.6Z" fill="#fff" fill-rule="evenodd"/></svg>