<svg data-name="Layer 1" xmlns="http://www.w3.org/2000/svg" viewBox="0 0 136.3 77.6"><path fill-rule="evenodd" fill="#e83236" d="m50 18.2-18.6 8.2v.8l73.6.1-.1-1-18.4-8.1-3.6-8.8H53.6L50 18.2z"/><path d="M59.1 48.5a1 1 0 0 0 0 .3 2.6 2.6 0 0 1 .4.5 2.9 2.9 0 0 1 .4 1 1.3 1.3 0 0 1 0 .2V56.6a3.2 3.2 0 0 0-.6-.3 3.8 3.8 0 0 0-1.7-.2H57l-.4.1a.5.5 0 0 1-.3 0v-6a1.2 1.2 0 0 1 .1-.3l.2-.3.3-.4a1.6 1.6 0 0 0 .2-.3.6.6 0 0 0 0-.4.3.3 0 0 0 0-.2.1.1 0 0 0-.1 0l-.2-.1h-6.6a.5.5 0 0 0-.3.1.5.5 0 0 0-.2.4.7.7 0 0 0 0 .1 1.6 1.6 0 0 0 .2.4l.3.4.2.2a1.2 1.2 0 0 1 0 .2 1.5 1.5 0 0 1 0 .2l.1.4v7.1H50l-.6.1-.8.1h-2l-.7-.1a7 7 0 0 1-1.5-.5 7.3 7.3 0 0 1-1-.5 9 9 0 0 1-1.1-.8.3.3 0 0 0-.4.1v.1a1.3 1.3 0 0 0-.2.2 1.1 1.1 0 0 0 0 .3 2.3 2.3 0 0 0-.1.3 2.7 2.7 0 0 0 0 .4 5 5 0 0 0 .3 1.4 3.7 3.7 0 0 0 .3.7 3.5 3.5 0 0 0 .5.6 2.9 2.9 0 0 0 .5.4 3.8 3.8 0 0 0 .6.4 4.6 4.6 0 0 0 .9.3 5.7 5.7 0 0 0 1 .1 6.3 6.3 0 0 0 1.7-.1 23 23 0 0 0 3-.8v4.8a1.1 1.1 0 0 1 0 .3 1 1 0 0 1 0 .3 6.1 6.1 0 0 1-.5.7l-.3.4a.9.9 0 0 0 0 .3.5.5 0 0 0 0 .4.8.8 0 0 0 .3.2h6.9l.2-.3a.6.6 0 0 0 0-.3.5.5 0 0 0-.1-.2l-.3-.3a2.1 2.1 0 0 1-.2-.3 1 1 0 0 1 0-.3 3 3 0 0 1-.1-.4 7.4 7.4 0 0 1-.1-.8v-6a.4.4 0 0 1 .1-.5 1 1 0 0 1 .3 0l.2-.2a4.2 4.2 0 0 1 .5 0l.6-.2a2.5 2.5 0 0 1 .5 0 1.7 1.7 0 0 1 .4.1 1.4 1.4 0 0 1 .2.1 1.3 1.3 0 0 1 .4.3 1.4 1.4 0 0 1 .1.2 1.8 1.8 0 0 1 .2.4 4.3 4.3 0 0 1 .1.5V65a2.7 2.7 0 0 1-.2 1 .8.8 0 0 1 0 .3l-.4.4-.2.3a.8.8 0 0 0 0 .4.3.3 0 0 0 0 .3.9.9 0 0 0 .4 0H66a.4.4 0 0 0 .3-.2.6.6 0 0 0 0-.4v-.3l-.4-.3a1 1 0 0 1-.2-.3V66l-.1-.4V50.4a1.3 1.3 0 0 1 0-.2 1.9 1.9 0 0 1 .1-.3.6.6 0 0 1 .1-.2l.3-.4a2.1 2.1 0 0 0 .2-.2.8.8 0 0 0 .1-.5.3.3 0 0 0-.1-.3h-.1a.4.4 0 0 0-.1 0H59.6a.4.4 0 0 0-.4.1.4.4 0 0 0 0 .2ZM57 34.3l.3.4a1 1 0 0 1 .1.3.8.8 0 0 1 0 .2 3.9 3.9 0 0 1 .2.5v8.2a1.5 1.5 0 0 1-.1.3v.2a.5.5 0 0 1-.2.2l-.2.2a3.2 3.2 0 0 0-.2.3.6.6 0 0 0-.2.2.5.5 0 0 0 0 .5.5.5 0 0 0 .2.1l.1.2a.2.2 0 0 0 .1 0h8.1a5.4 5.4 0 0 1 1.2.2 7 7 0 0 1 1.4.5 11.7 11.7 0 0 1 1.7.9l1.9 1.4a4.7 4.7 0 0 0 1 .5 3.1 3.1 0 0 0 .7.2 4.1 4.1 0 0 0 .8 0 4.7 4.7 0 0 0 2.3-.6l.4-.3.6-.4.5-.4a2 2 0 0 0 .3-.6 2.3 2.3 0 0 0 .2-.2.4.4 0 0 0-.2-.5.7.7 0 0 0-.3 0 .8.8 0 0 0-.2 0 2 2 0 0 0-.3 0l-.6.2a4.8 4.8 0 0 1-.8 0 4.7 4.7 0 0 1-1.5-.2 10.9 10.9 0 0 1-1.2-.6l-1.7-.9a3.9 3.9 0 0 0-1-.4l-2-.3 6.4-9.9a1 1 0 0 0 0-1 .4.4 0 0 0-.1-.1.6.6 0 0 0-.2 0l-.4-.1H64a.5.5 0 0 0-.4.2 1.3 1.3 0 0 0-.2.6 1.8 1.8 0 0 0 0 .2v3.3a1 1 0 0 0 0 .3.6.6 0 0 0 .1.3.6.6 0 0 0 .7 0 .4.4 0 0 0 .1 0 .8.8 0 0 0 .2-.2l.4-.9.3-.5a4 4 0 0 1 .2-.4 2.1 2.1 0 0 1 .4-.3 2.8 2.8 0 0 1 .4-.3 2.3 2.3 0 0 1 .5-.3h.4l.4-.1h1a.7.7 0 0 1 .3 0l-.2.4-6 9.1a.1.1 0 0 1-.2 0 1.6 1.6 0 0 1 0-.2V34.1a.8.8 0 0 0-.1-.2.7.7 0 0 0-.2-.3.7.7 0 0 0-.2-.1 1.5 1.5 0 0 0-.3-.1h-4.3a.5.5 0 0 0-.3 0 .5.5 0 0 0-.2.6l.2.3Zm-16.3-3.5a1 1 0 0 0 0 .3l.2.2.2.3.1.2a1.4 1.4 0 0 1 .1.2l.1.6v14.9a1.8 1.8 0 0 1 0 .3 1.4 1.4 0 0 1 0 .2.9.9 0 0 1-.2.3l-.3.5a.8.8 0 0 0-.2.3 2.2 2.2 0 0 0 0 .2.3.3 0 0 0 0 .3.6.6 0 0 0 .2.2h6.8a.5.5 0 0 0 .4-.2.5.5 0 0 0 .1-.3.7.7 0 0 0 0-.2 1.6 1.6 0 0 0-.2-.2l-.3-.5c0-.2-.2-.4-.3-.5a2 2 0 0 1 0-.3 2.6 2.6 0 0 1 0-.3V33.8a6.3 6.3 0 0 1 0-.7 1.4 1.4 0 0 1 0-.3 1 1 0 0 1 0-.3 1 1 0 0 1 .5-.4 1.3 1.3 0 0 1 1-.1 1.6 1.6 0 0 1 .8.5 2.5 2.5 0 0 1 .5.8l.2.4a4 4 0 0 1 .1.5l.2.8a11.9 11.9 0 0 1 0 1.6 6.8 6.8 0 0 1 0 1.2 4.6 4.6 0 0 1-.3 1 4.5 4.5 0 0 1-.3.7 3.6 3.6 0 0 1-.3.5 3 3 0 0 1-.4.4 5.6 5.6 0 0 1-.5.4 5.2 5.2 0 0 1-1 .6c-.3.2-.2.5 0 .8a2 2 0 0 0 .3.2 1.9 1.9 0 0 0 .3.2 3 3 0 0 0 .5.3 4 4 0 0 0 1 .2 5 5 0 0 0 2.3-.2 5.2 5.2 0 0 0 1.2-.6 6 6 0 0 0 1-.8 5.8 5.8 0 0 0 .8-.9 7.2 7.2 0 0 0 1-2.1 8.8 8.8 0 0 0 .2-2.4 10.3 10.3 0 0 0-.1-1.4 7.6 7.6 0 0 0-.3-1.1 5.9 5.9 0 0 0-.4-1 6.5 6.5 0 0 0-.5-.6 5.8 5.8 0 0 0-.5-.6 4.4 4.4 0 0 0-.6-.5 4.4 4.4 0 0 0-.7-.3 3.7 3.7 0 0 0-.4-.2 3.7 3.7 0 0 0-.6-.1l-1.2-.2H40.8a.2.2 0 0 0-.1.2 1 1 0 0 0-.1.5Zm35.1 2.8a.6.6 0 0 0-.2.2 1 1 0 0 0 0 .2l-.2.3v3.4a2 2 0 0 0 0 .2 1 1 0 0 0 0 .2.6.6 0 0 0 .2.3.5.5 0 0 0 .6 0 1.2 1.2 0 0 0 .3-.3 1.6 1.6 0 0 0 .3-.4l.3-.7a3.2 3.2 0 0 1 .3-.5 2.3 2.3 0 0 1 .4-.4 2 2 0 0 1 .4-.4 4.3 4.3 0 0 1 2-.4h.4a.2.2 0 0 1 .2.1L74.5 45a.7.7 0 0 0 0 .9.4.4 0 0 0 .2.1 1.6 1.6 0 0 0 .3 0 3.5 3.5 0 0 0 .6 0h1l.8.1 1 .2.5.1.5.2a5.1 5.1 0 0 1 1.3.7l2.1 1.5a5.2 5.2 0 0 0 1.4.7 5 5 0 0 0 .8.2 4.7 4.7 0 0 0 2.4-.4 6.2 6.2 0 0 0 .8-.3 8 8 0 0 0 .8-.6 2.7 2.7 0 0 0 .7-.8 1.6 1.6 0 0 0 .1-.2.6.6 0 0 0 0-.4.4.4 0 0 0-.3-.3h-.2a1.4 1.4 0 0 0-.3 0l-.6.2a2.1 2.1 0 0 1-.4.1 3.5 3.5 0 0 1-.7 0 4.6 4.6 0 0 1-1-.2 9.1 9.1 0 0 1-1.2-.5l-1-.6-.6-.3-.3-.1a8.3 8.3 0 0 0-3-.7v-.1l6.4-9.7a1 1 0 0 0 .1-.7 1 1 0 0 0-.1-.4.7.7 0 0 0-.2-.1.8.8 0 0 0-.2-.1l-.4-.1h-9.3a2.3 2.3 0 0 0-.4 0 1.2 1.2 0 0 0-.2 0 .6.6 0 0 0-.2.1Zm-9.2 21.9a.8.8 0 0 0 0 .3.3.3 0 0 0 0 .1 3.8 3.8 0 0 1 .3.4.7.7 0 0 1 .1.1.6.6 0 0 1 0 .2 3.7 3.7 0 0 1 .2.4v8a2.3 2.3 0 0 0 0 .3 3.9 3.9 0 0 0 .1.5 4.5 4.5 0 0 0 .3.5 5.5 5.5 0 0 0 .4.6 3.5 3.5 0 0 0 .9.7 2.3 2.3 0 0 0 .5.2 5 5 0 0 0 .8.2 5.1 5.1 0 0 0 1 .1 9.5 9.5 0 0 0 1.5-.1 6.3 6.3 0 0 0 1-.3 6.6 6.6 0 0 0 .9-.4 5.3 5.3 0 0 0 .7-.6 1 1 0 0 0 0 .3 1 1 0 0 0 .3.7.6.6 0 0 0 .2 0H80a.3.3 0 0 0 .3 0 .5.5 0 0 0 0-.5v-.1a.7.7 0 0 0-.1-.2l-.3-.4a1 1 0 0 1 0-.2l-.2-.2v-.3l-.1-.5v-9.7a.5.5 0 0 0-.2-.2.8.8 0 0 0-.2-.2.6.6 0 0 0-.2 0 2.2 2.2 0 0 0-.4-.1h-4.2l-.2.1a.9.9 0 0 0 0 .4 3 3 0 0 1 .4.7 2.8 2.8 0 0 1 .2.6 2.5 2.5 0 0 1 .1.4v6.5a1.8 1.8 0 0 1 0 .5 1.4 1.4 0 0 1-.2.4 1.5 1.5 0 0 1-.2.3 1.5 1.5 0 0 1-.3.2 1.7 1.7 0 0 1-1.2.3 1.3 1.3 0 0 1-.3-.1 1 1 0 0 1-.4-.4.7.7 0 0 1-.1-.2 1.2 1.2 0 0 1-.1-.3 4.8 4.8 0 0 1-.1-.7V56a.8.8 0 0 0-.3-.7h-.2l-.4-.1h-4.3a.5.5 0 0 0-.2.3Zm31.2-19a2.5 2.5 0 0 0-.1-.6 2.9 2.9 0 0 0-.2-.6 3.2 3.2 0 0 0-.4-.5 2.6 2.6 0 0 0-.4-.4 4.2 4.2 0 0 0-.4-.3 5.2 5.2 0 0 0-.7-.4 7.7 7.7 0 0 0-1-.2 6.5 6.5 0 0 0-1-.2 10.2 10.2 0 0 0-1.2 0H91l-1 .2h-.7a5.3 5.3 0 0 0-.8.4 3.3 3.3 0 0 0-.6.3 3.5 3.5 0 0 0-.6.5 3 3 0 0 0-.6 1 2.3 2.3 0 0 0 0 .4 1.3 1.3 0 0 0 .2 1 1.3 1.3 0 0 0 .2.4 1.8 1.8 0 0 0 1.4.3 2.2 2.2 0 0 0 .3 0 2 2 0 0 0 .3-.1 1.3 1.3 0 0 0 .5-.4 1.4 1.4 0 0 0 .2-.3l.3-.8a2.8 2.8 0 0 1 .3-.4 1.6 1.6 0 0 1 1-.7 2 2 0 0 1 .4 0h.3l.3.1a1 1 0 0 1 .3.2 1 1 0 0 1 0 .2 1.2 1.2 0 0 1 .2.2 1.8 1.8 0 0 1 .1 1 1.4 1.4 0 0 1 0 .4 1.3 1.3 0 0 1-.4.4.9.9 0 0 1-.2.1 3.6 3.6 0 0 1-.5.3l-3.5 1a5 5 0 0 0-1 .3 4.2 4.2 0 0 0-.6.5 3 3 0 0 0-.5.5 3.5 3.5 0 0 0-.6 1.1 4 4 0 0 0-.2 1.4A3.5 3.5 0 0 0 86 44a3.2 3.2 0 0 0 .4.7 3.3 3.3 0 0 0 .5.6 3.5 3.5 0 0 0 .7.5 5.2 5.2 0 0 0 .9.3 5.6 5.6 0 0 0 2 .2 5.1 5.1 0 0 0 .6 0 4.1 4.1 0 0 0 1.3-.5 6.1 6.1 0 0 0 1.1-.8 2.4 2.4 0 0 0 .5.4 3 3 0 0 0 .5.5 3.8 3.8 0 0 0 .8.3 4.1 4.1 0 0 0 1.8 0 3.9 3.9 0 0 0 .7-.2 3 3 0 0 0 .4-.3 2.3 2.3 0 0 0 .7-.8l.1-.2a.5.5 0 0 0 0-.3.4.4 0 0 0-.1-.1.6.6 0 0 0-.2 0H98.3a1 1 0 0 1-.2-.2.6.6 0 0 1-.2-.2v-.1a1 1 0 0 1-.1-.3l-.1-.6v-6.4Zm-7.2 6.8a.8.8 0 0 1-.1-.2 1.4 1.4 0 0 1-.1-.3 3 3 0 0 1-.1-1.1 2.3 2.3 0 0 1 .2-.6 2.4 2.4 0 0 1 .8-.9 3.4 3.4 0 0 1 .7-.4 11.6 11.6 0 0 1 1-.3h.2v2.7a3.3 3.3 0 0 1-.1.6 1.4 1.4 0 0 1-.3.5l-.3.2a1.6 1.6 0 0 1-1 .3 1.4 1.4 0 0 1-.4-.1 1.3 1.3 0 0 1-.5-.4ZM79.9 55.8a.7.7 0 0 0 0 .6.4.4 0 0 0 .1.1.7.7 0 0 0 .1.1.4.4 0 0 0 .2 0l.3.1.4.1v7.9a4 4 0 0 0 0 .8 3.8 3.8 0 0 0 .3.7 4 4 0 0 0 .2.6 2.6 2.6 0 0 0 .4.4 2.2 2.2 0 0 0 .3.4 2.4 2.4 0 0 0 .4.2 4 4 0 0 0 .5.2 3 3 0 0 0 .6 0 5 5 0 0 0 .7 0 6.1 6.1 0 0 0 .7 0 3.2 3.2 0 0 0 .6-.2 2.9 2.9 0 0 0 .5-.3 2.6 2.6 0 0 0 .4-.3 3 3 0 0 0 .8-1 2.3 2.3 0 0 0 .1-.3 1 1 0 0 0 0-.3.4.4 0 0 0-.2-.3.3.3 0 0 0-.2 0 .4.4 0 0 0-.2 0H86.6a.9.9 0 0 1-.4 0 1 1 0 0 1-.3-.1.8.8 0 0 1-.2-.3.9.9 0 0 1 0-.2l-.1-.4v-7.5h1.9a.5.5 0 0 0 .3-.3 1.5 1.5 0 0 0 0-.7 1.4 1.4 0 0 0 0-.2v-.2a.3.3 0 0 0 0-.2.3.3 0 0 0-.2 0 5.7 5.7 0 0 1-2 0v-2.8a1 1 0 0 0 0-.2.4.4 0 0 0-.1-.3.5.5 0 0 0-.5 0 .6.6 0 0 0-.2.1l-.2.2-4.4 3.3a.7.7 0 0 0-.2.4Zm9.2 10a1.2 1.2 0 0 0-.3.2 1.1 1.1 0 0 0-.5.6 1 1 0 0 0 0 .7 1 1 0 0 0 .2.3 1.1 1.1 0 0 0 .3.3 1.2 1.2 0 0 0 1 .2 1.5 1.5 0 0 0 .3-.2 1.2 1.2 0 0 0 .4-.6 1.1 1.1 0 0 0-.1-1 1.3 1.3 0 0 0-.3-.3 1.2 1.2 0 0 0-1-.1Zm.7.2a1 1 0 0 1 .2.2 1 1 0 0 1 .4.7 1 1 0 0 1-.1.6 1 1 0 0 1-.5.4 1 1 0 0 1-.6 0 1 1 0 0 1-.3-.2 1 1 0 0 1-.4-.8 1 1 0 0 1 .1-.5 1 1 0 0 1 .6-.4 1 1 0 0 1 .6 0Zm.2.5a.3.3 0 0 0-.2-.2.3.3 0 0 0-.1 0H89v1.3h.3V67h.3a.3.3 0 0 1 .2.2v.3h.2V67c0-.2-.2-.1-.2-.1a.3.3 0 0 0 .2-.2.3.3 0 0 0 0-.2Zm-.5 0h.2a.2.2 0 0 1 0 .3 2.5 2.5 0 0 1-.5 0v-.3ZM61.4 28.9a3.4 3.4 0 0 0-.6-.3 4.7 4.7 0 0 0-.9-.1 5 5 0 0 0-.8 0 3.5 3.5 0 0 0-.8.1 2 2 0 0 0-.5.3 2.4 2.4 0 0 0-.5.5 2.1 2.1 0 0 0-.4 1.9 2.3 2.3 0 0 0 .3.6 2 2 0 0 0 .4.4 2 2 0 0 0 .3.2 1.9 1.9 0 0 0 .4.2 3.3 3.3 0 0 0 .5.1 4.5 4.5 0 0 0 1.2 0 5 5 0 0 0 .6 0 3.5 3.5 0 0 0 .6-.3 2.4 2.4 0 0 0 .4-.2 1.9 1.9 0 0 0 .3-.2 2.3 2.3 0 0 0 .3-.5 2.2 2.2 0 0 0 .2-1.4 2.5 2.5 0 0 0-.2-.6 2.3 2.3 0 0 0-.6-.6l-.2-.2Z" fill="#231f20" fill-rule="evenodd"/></svg>