<svg id="Layer_1" data-name="Layer 1" xmlns="http://www.w3.org/2000/svg" viewBox="0 0 136.3 77.6"><defs><clipPath id="clip-path"><path d="M48.8 19.4a55.5 55.5 0 0 1 19.4-3.9 53.3 53.3 0 0 1 19 3.3l-.3-5.3a56.1 56.1 0 0 0-11.4-2.4 56.5 56.5 0 0 0-9.9-.3c-6.6.4-13.4 2-16.7 3.6l-.1 5Z" clip-rule="evenodd" fill="none"/></clipPath><style>.cls-12{fill:none}.cls-10,.cls-11,.cls-13,.cls-15,.cls-25,.cls-27,.cls-28,.cls-4,.cls-9{fill-rule:evenodd}.cls-10,.cls-11,.cls-12,.cls-15,.cls-25,.cls-27,.cls-28,.cls-4,.cls-9{stroke-miterlimit:2.61;stroke-width:.06px}.cls-4{fill:#fde7bd;stroke:#fde7bd}.cls-27{fill:#f5cf79;stroke:#f5cf79}.cls-9{fill:#fdd16d;stroke:#fdd16d}.cls-10{stroke:#292627}.cls-11{fill:#231f20}.cls-11,.cls-12{stroke:#231f20}.cls-13{fill:#a4072f}.cls-15{fill:#fdd56f;stroke:#fdd56f}.cls-28{fill:#f3cc6d}.cls-25{fill:#f5cb6d;stroke:#f5cb6d}.cls-28{stroke:#f3cc6d}</style></defs><path d="M48 13.6a55.6 55.6 0 0 1 40.1-.8l-.3 23.7c.2 10.7-7.5 19.5-16 23.7a13.7 13.7 0 0 1-3.3 1.3.8.8 0 0 1-.4 0 13.7 13.7 0 0 1-2.9-1c-9.1-4-17-14.4-16.8-23.8l-.3-23Z" fill-rule="evenodd" fill="none"/><path d="M48 13.6a55.6 55.6 0 0 1 40.1-.8l-.3 23.7c.2 10.7-7.5 19.5-16 23.7a13.7 13.7 0 0 1-3.3 1.3.8.8 0 0 1-.4 0 13.7 13.7 0 0 1-2.9-1c-9.1-4-17-14.4-16.8-23.8l-.3-23Z" stroke-miterlimit="2.6" stroke-width=".1" stroke="#fde7bf" fill="#fee352"/><path class="cls-4" d="M49.5 36.5 49 20.2a48.3 48.3 0 0 1 18.5-3.8v20.1ZM75.7 40.4a6.7 6.7 0 0 0 .7-3H87c-1 11.8-10.1 20.2-18.2 23V45a8 8 0 0 0 6.8-4.5Z"/><g clip-path="url(#clip-path)"><path fill="none" d="M48.8 10.5h38.4v8.8H48.8z"/></g><path d="M48.8 19.4a55.5 55.5 0 0 1 19.4-3.9 53.3 53.3 0 0 1 19 3.3l-.3-5.3a56.1 56.1 0 0 0-11.4-2.4 56.5 56.5 0 0 0-9.9-.3c-6.6.4-13.4 2-16.7 3.6l-.1 5Z" fill="#f5cf79" stroke="#f5cf79" stroke-miterlimit="2.6" stroke-width=".1"/><path d="m75.4 40.5.4-.6-.2.5 1-.2A2.5 2.5 0 0 1 80 38c.3 0 .2.2 0 .3a2.5 2.5 0 0 0-1.2 1.6h.6c.9-2.5 3.3-2.4 3.8-1.2a2.5 2.5 0 0 0-1.8 1.3l.8.3c.5-1.6 2.7-1 3.4-.4v.3c-.2.2-1 0-1.8.8l.1.1a2.8 2.8 0 0 1 .8 2.1c0 .3-.1.4-.3.3-3.5-3.3-7-1.9-11-.6l2-2.5Z" fill="#fdd26e" stroke="#fdd26e" stroke-miterlimit="2.6" stroke-width=".1" fill-rule="evenodd"/><path class="cls-9" d="M69.3 44.8a10.6 10.6 0 0 0 2.3-.6c.1.3.3.5.2 1a.9.9 0 0 1-.5.4.7.7 0 0 1-.4 0 1.2 1.2 0 0 1-.4-.2 1.4 1.4 0 0 1-.3.2.6.6 0 0 1-.3 0c-.4 0-.5-.5-.6-.8Z"/><path class="cls-9" d="M70 48.1a1.3 1.3 0 0 1-.3-.8 1 1 0 0 1 1.2-.8 1.4 1.4 0 0 1 .8.8l.7-.3c-.4-2.2.8-3 2.2-3 .4 0 .3 0 .2.2a2.5 2.5 0 0 0-.7 2l.7-.2c0-1.3.7-3.2 3-2.8.3 0 .1.2 0 .3a3 3 0 0 0-1.2 2.2h.5c.3-1.5 1.3-3 3.1-2 .2.2.2.3 0 .4a2.5 2.5 0 0 0-1.4 1.4h.8a1.7 1.7 0 0 1 2.8-.6c.2.2.1.3 0 .4a4 4 0 0 0-1.3.8c.7.7 1.2 1.4.8 2.5 0 .2-.2.2-.4 0-1.2-1.6-2.9-1.9-5-1.4a11.8 11.8 0 0 0-3.7 1.4 1.6 1.6 0 0 1 .2.9 1 1 0 0 1-1.1.8 1.2 1.2 0 0 1-.7-.5 1.3 1.3 0 0 1-1 .2 1.4 1.4 0 0 1-.7-1 .8.8 0 0 1 .4-.9h.1Z"/><path class="cls-9" d="M70.4 56.3a1 1 0 0 1-.7-.7 1 1 0 0 1 .2-.8h.2a1 1 0 0 1-.4-.6.8.8 0 0 1 .7-1 1.2 1.2 0 0 1 .8.5l.2-.1c-.6-1.5 0-2.5 1-2.6.4 0 .3.2.2.2a1.2 1.2 0 0 0 0 1.5l.3-.1c-.1-1.2.2-2.7 2-2.7.3 0 .3.2.2.3a2 2 0 0 0-.8 1.6v.2l.5-.1c.2-1.2 1.8-2.6 3-1.7.2.2 0 .2 0 .3-.6 0-1.2.7-1.5 1.2a.1.1 0 0 0 .1 0l.4.1a1.8 1.8 0 0 1 2.7-.8c.2.2.1.2 0 .3a2.5 2.5 0 0 0-1.2 1.2c.3.3.7.6.6 1a1 1 0 0 1-.2.6h-.2c-2-1.9-4.6-.7-6 .4l.1.1c.2.3.5.4.4 1a1 1 0 0 1-.6.6 1 1 0 0 1-1-.6 1 1 0 0 1-1 .7Z"/><path class="cls-10" d="M74.3 42.1A10.3 10.3 0 0 0 75 41l1.8-.4a3.2 3.2 0 0 1 .7-1.9 2 2 0 0 1 1.8-.4 2.5 2.5 0 0 0-1.2 2 13.2 13.2 0 0 0 1.4 0 3.4 3.4 0 0 1 1-1.7 1.5 1.5 0 0 1 1.8 0 2.7 2.7 0 0 0-1.7 1.5.2.2 0 0 0 0 .2l1.4.6a2.2 2.2 0 0 1 1.3-1.1 1.4 1.4 0 0 1 1.3.3 2.6 2.6 0 0 0-1.6 1 1.7 1.7 0 0 1 1 1.8 5.8 5.8 0 0 0-3.3-1.7 13.6 13.6 0 0 0-6.6 1ZM69.7 44.8a15.3 15.3 0 0 0 1.5-.4 1.2 1.2 0 0 1 .2.5c.1.4-.2.4-.4.4a.8.8 0 0 1-.4-.4 1 1 0 0 1-.4.4.3.3 0 0 1-.2 0 .6.6 0 0 1-.3-.5Z"/><path class="cls-11" d="M75.4 40.4c.4-.2.7-1.6.9-3H87v-.2h-11a10.1 10.1 0 0 1-.7 3.2Z"/><path class="cls-11" d="m78.7 39.9.2-.4a2.6 2.6 0 0 1 1.2-1 .2.2 0 0 0 0-.2 2.6 2.6 0 0 0-1.4 1.4v.2ZM81.3 40a2.4 2.4 0 0 1 1.7-1 .2.2 0 0 0 0-.2 2.3 2.3 0 0 0-1.8 1.2ZM83.7 41a.1.1 0 0 0 .1.1 2.7 2.7 0 0 1 1.5-.6.4.4 0 0 0 .2-.1v-.2l-.3.1a2.3 2.3 0 0 0-1.4.7Z"/><path class="cls-10" d="M84.6 43.3v.4c0 .2-.2.2-.3 0H84l-1.2-1a6.7 6.7 0 0 0-3.2-1 9.1 9.1 0 0 0-2.4.3l-4 1.1a6.8 6.8 0 0 1-2.3 1.4 10.5 10.5 0 0 1-2.2.4v15.6l-.2.1v-16a8.5 8.5 0 0 0 4.7-1.6l1.5-.5c3-1 6.3-1.8 9 .8.2 0 .3.2.5.3a.1.1 0 0 0 .2 0v-.3Z"/><path class="cls-10" d="M71.3 49a1.7 1.7 0 0 1-.7.6.5.5 0 0 1-.6-.6c0-.2.3-.6.6-.8-.3-.2-.6-.5-.5-.8-.1 0 .2-.5.7-.4.2 0 .5.3.7 1L73 47a2 2 0 0 1 1.1-2.8 2.7 2.7 0 0 0-.3 2.5l1.5-.5c0-2 .8-2.8 2-2.8a2.8 2.8 0 0 0-1.1 2.7l1.4-.3c.1-1 .8-2.8 2.2-2a2.2 2.2 0 0 0-1.4 2h1.4c.6-1 1.4-1.3 2.1-.8a2.6 2.6 0 0 0-1.4 1 2.7 2.7 0 0 1 1.2 2 4.6 4.6 0 0 0-4.3-1.3 12.7 12.7 0 0 0-5.2 1.8 1.3 1.3 0 0 1 .5.7.6.6 0 0 1-.6.5c-.4 0-.6-.4-.7-.8Z"/><path class="cls-11" d="M69.9 48.2a1.4 1.4 0 0 1-.2-.7 1 1 0 0 0 .2.7Z"/><path class="cls-12" d="M72.4 47a3.8 3.8 0 0 1 0-.8 3.2 3.2 0 0 0 0 .8Z"/><path class="cls-11" d="M74 46a3 3 0 0 1 .8-1.7.1.1 0 0 0 0-.1 2.5 2.5 0 0 0-.7 1.7ZM76.5 45.7a3.4 3.4 0 0 1 1.4-2 .1.1 0 0 0 0-.2 3 3 0 0 0-1.4 2.2ZM78.8 45.5a3.1 3.1 0 0 1 1.5-1.3V44a2.6 2.6 0 0 0-1.4 1.5ZM81 46.1l.2.1c.8-.7 1.2-.5 1.3-.8v-.1c-.1.1-.8 0-1.4.8ZM82 48.2l-.1.7h-.4c-1.6-2-3.6-2-7-.8a10.5 10.5 0 0 0-1.6.7v-.1a12 12 0 0 1 4.5-1.6 4.2 4.2 0 0 1 4.1 1.5c0 .2.3.3.4 0l.1-.4ZM73 49.5c0 .8-.5.9-.8 1a1 1 0 0 1-1-.5c-1 .7-1.8 0-1.8-1 .3 1 .8 1.4 1.8.8a1 1 0 0 0 1.8-.3Z"/><path class="cls-10" d="M70.6 54.8a1.4 1.4 0 0 1-.6-.7.4.4 0 0 1 .5-.4 1.3 1.3 0 0 1 .7.6l.8-.7a1.4 1.4 0 0 1 .2-2.3 1.9 1.9 0 0 0 .2 1.9l1-.5c-.4-1.5.3-2.4 1.3-2.5a2 2 0 0 0-.7 2.2l1.2-.3c.1-.8.8-2 2.1-1.8A2.2 2.2 0 0 0 76 52a3.7 3.7 0 0 1 1.2.3c.2-.8 1-1.6 1.8-1.1a3 3 0 0 0-1.2 1.4c.5.2 1 .6.8 1a4.2 4.2 0 0 0-3.2-.9 7.1 7.1 0 0 0-3.6 1.8 1.8 1.8 0 0 1 .8.7.4.4 0 0 1-.5.4 1.5 1.5 0 0 1-.7-.6 1.7 1.7 0 0 1-.7.8.4.4 0 0 1-.6-.5 1.1 1.1 0 0 1 .6-.6Z"/><path class="cls-11" d="m70 54.9.1-.2a.9.9 0 0 1-.4-.5.7.7 0 0 0 .3.7ZM71.4 53.6a3 3 0 0 1-.3-1 2 2 0 0 0 .3 1ZM72.4 52a1.1 1.1 0 0 1 .3-.6.1.1 0 0 0 0-.1 1.1 1.1 0 0 0-.3.8Z"/><path class="cls-12" d="M73 52.6v-.4.4Z"/><path class="cls-11" d="M74.3 51.8a2.3 2.3 0 0 1 .9-1.4v-.2a2 2 0 0 0-.9 1.6ZM76.4 51.8h.1c.4-.6.8-1 1.4-1.1a.2.2 0 0 0 0-.2c-.8 0-1.1.6-1.5 1.2ZM78.3 52.5a2.5 2.5 0 0 1 1.3-1v-.2a2.4 2.4 0 0 0-1.3 1.2ZM78.9 53.6a.8.8 0 0 1-.2.6c-.1.2-.2.1-.3 0-1.6-1.4-4-.9-5.8.5l-.1-.1c1.2-1 4-2.4 6-.5 0 0 0 .2.2 0l.2-.4ZM73 55.6a.9.9 0 0 1-.7.6 1.1 1.1 0 0 1-1-.6c-.1.4-.4.7-.8.7a1 1 0 0 1-.8-.7 1 1 0 0 0 .8 1c.4 0 .8-.4.9-.8a1.2 1.2 0 0 0 .9.6.8.8 0 0 0 .7-.8ZM69.4 45c.2.6.7.8 1.1.3a.8.8 0 0 0 1.3-.3.8.8 0 0 1-1.3.6c-.5.5-1.1.2-1.1-.6Z"/><path class="cls-10" d="M49.1 37.2a14 14 0 0 0 .8 4.6h12.3a7 7 0 0 1-1.8-4.5H49.1Z"/><path class="cls-13" d="M50.1 42.5h12.6a8.2 8.2 0 0 0 5.2 2.2v2.6H52a22 22 0 0 1-2-4.8Z"/><path class="cls-10" d="M52.5 48h15.4v4.7h-12a21.4 21.4 0 0 1-2-2.5 19.9 19.9 0 0 1-1.4-2.3Z"/><path class="cls-13" d="M56.7 53.4h11.2v7.2a20 20 0 0 1-6.7-3.2 25.6 25.6 0 0 1-4.5-4Z"/><path d="M49.3 20.1a42.2 42.2 0 0 1 5.5-2l-5.3 10.7-.2-8.7Z" fill="#fde2aa" stroke="#fde2aa" stroke-miterlimit="2.6" stroke-width=".1" fill-rule="evenodd"/><path class="cls-10" d="M49 36.5h.2l-.1-16.3a49.4 49.4 0 0 1 18.5-3.8V26h.2V16a50.4 50.4 0 0 0-19 4l.3 16.6Z"/><path class="cls-15" d="M50 23.8a1 1 0 0 1-.1-.8 1 1 0 0 1 1-.5c.4 0 .5.3.7.5l.6-.3c-.8-2.9 1.7-3.8 2.7-3.4.1 0 .3.2.1.3a2.6 2.6 0 0 0-1.4 2.3l1.7-.5c-.3-3 2.3-3.1 3-2.8.3 0 .3.2 0 .3a2.7 2.7 0 0 0-1.3 2l1.5-.3c.5-3.6 3.2-2.7 3.5-2.4s.1.4 0 .4c-1.1.4-1.6 1-1.8 1.9h1.3a2.2 2.2 0 0 1 3.7-1c.1.3 0 .6-.1.5-1.5-.1-2 .5-2 .7a2 2 0 0 1 2 2c-.2.5-.5.2-.6.2-2.4-2.2-7.3-1-12 1.3.8 1.2-1 1.9-1.6 1a1 1 0 0 1-1.5 0A1 1 0 0 1 50 24Z"/><path class="cls-15" d="M50 29.2c-.8-1.2.8-1.9 1.4-.7l.6-.4c-.2-1.8.5-3 2.1-3 .3 0 .3.1.2.3a2.5 2.5 0 0 0-.8 2l.7-.2a.3.3 0 0 0 .1-.2c.2-2.8 1.9-2.6 2.6-2.6.3 0 .3.2.1.4a2.3 2.3 0 0 0-1.2 1.8h.2a4.4 4.4 0 0 0 .8-.2c.4-2.2 2-2.6 3.3-2.2.3.2.1.5 0 .5a1.8 1.8 0 0 0-1.7 1.5h1A2.3 2.3 0 0 1 63 25c.3.2.1.3 0 .4-.5.1-1.5.3-1.6.8l-.8 1.6c-1.8-.9-5.8.5-8.2 1.8.7 1.5-1 1.8-1.5 1-1 1-2.3-.7-.8-1.4Z"/><path class="cls-15" d="M50.5 34.5a1 1 0 1 1 1.5-.9l.5-.2c-1.1-3 .8-3.2 1.6-3.2.3 0 .2.2.2.3a2 2 0 0 0-.6 2.1l.7-.3c-.4-3 1.7-2.9 2.2-2.9.3 0 .3.3.2.3a2 2 0 0 0-1 2.2l.8-.3c.2-2.6 2-3 2.8-2.8.6.1.4.3.2.5a3.6 3.6 0 0 0-1.5 1.9l1.2-.2a3.5 3.5 0 0 1 1.2-1.3v2.9a7.5 7.5 0 0 0-2.8.1 16 16 0 0 0-4.7 2c1.3 1.7-1 1.9-1.3 1.2-1.8 1.3-2.3-1-1.2-1.3Z"/><path class="cls-10" d="M50.5 23.9a1 1 0 0 1-.3-.8.5.5 0 0 1 .5-.3c.4 0 .6 0 .8.7l1.2-.7c-.4-1.8.4-3.3 1.9-3.3-.6.5-1.6 1.5-1.3 2.9l2.5-.8c-.3-2.3.9-3 2.2-2.9a2.7 2.7 0 0 0-1.3 2.6l2.2-.6c.1-1.9 1.3-2.8 2.9-2.4a2.6 2.6 0 0 0-2 2.4h2c.7-1.3 1.8-2 3-1a2.3 2.3 0 0 0-2.2 1c1 .2 2.1.9 2.1 1.7C61.8 20 56 21.9 52 24c.4.5.4 1 .1 1a.7.7 0 0 1-1-.3c-.4.5-1 .5-1.2.2s-.2-.8.7-1Z"/><path class="cls-11" d="M49.9 23.4v.4h.1l-.1-.4zM49.3 24.8c0 .6.3.9.9.9a1 1 0 0 0 .8-.3 1 1 0 0 0 1 .3.8.8 0 0 0 .7-1 .8.8 0 0 1-.7.7 1 1 0 0 1-1-.3 1 1 0 0 1-1 .3.8.8 0 0 1-.7-.6ZM52.7 24.2a22.4 22.4 0 0 1 7-2.4c2.2-.4 4 .1 5 1 .1.2.3.1.4-.2a.5.5 0 0 1 0 .4.2.2 0 0 1-.4 0 6.5 6.5 0 0 0-5-1 23.2 23.2 0 0 0-7 2.3ZM63.3 20.5a1.3 1.3 0 0 1 .8-.3 4.8 4.8 0 0 1 1.1 0V20c-.8 0-1.6-.1-2 .5ZM60.3 20.4a2.2 2.2 0 0 1 .6-1 3.5 3.5 0 0 1 1.3-.7v-.2a2.5 2.5 0 0 0-2 1.9ZM57 20.8a3.3 3.3 0 0 1 1.5-1.8v-.1a3.1 3.1 0 0 0-1 .7 2 2 0 0 0-.4 1.3ZM53.7 21.7a2 2 0 0 1 .2-.6 3 3 0 0 1 .4-.6 6.5 6.5 0 0 1 .8-.8 3.5 3.5 0 0 0-1 .8 2 2 0 0 0-.5 1.3ZM52.2 22.7V22a3.8 3.8 0 0 0 0 .7Z"/><path class="cls-10" d="M50.6 29.2c-.8-.8-.3-1.3.2-1.2.2.1.3.3.4.8l1.3-.7c-.4-2.1.8-2.7 1.3-2.7a2.4 2.4 0 0 0-.5 2.4l1.6-.6c-.2-1.4.5-2.8 1.7-2.6a3.3 3.3 0 0 0-1.1 2.3l1.7-.4c.2-1.4 1.1-2.5 2.5-2.2a2.6 2.6 0 0 0-1.7 2.1h1.9c.5-1.5 1.5-2 2.5-1.3-.6.2-1.3.4-1.6 1l-.3 1c-3-.4-6 .9-8.6 2.2.6.8.3 1.2-.2 1.2s-.5-.2-.7-.6a.9.9 0 0 1-1 .4c-.3-.2-.5-.9.6-1.2Z"/><path class="cls-11" d="M50 29h.1a1.6 1.6 0 0 1-.2-.4 1 1 0 0 0 .1.5ZM53.6 27a3.2 3.2 0 0 1 .8-1.6v-.1a2.2 2.2 0 0 0-.8 1.6ZM56 26.4a2.6 2.6 0 0 1 1.2-1.6.1.1 0 0 0 0-.2 2.2 2.2 0 0 0-1.3 1.8ZM58.5 26a1.9 1.9 0 0 1 1.7-1.3.3.3 0 0 0 .1-.1v-.2s0 .2-.2.1a1.7 1.7 0 0 0-1.6 1.5ZM61.4 26c.8-.5 1.6-.5 1.7-.7s0 0-.1-.1c-.6.2-1.4.3-1.7.9ZM52.4 29.5v.2c4-2 7-2.3 8-1.8v-.2c-1.6-.8-4.8.1-8 1.8ZM49.4 30a.8.8 0 0 0 1.5.7c.4.8 1.8.3 1.7-.4a1 1 0 0 1-1.7.1c-.4.4-1 .6-1.5-.3Z"/><path class="cls-10" d="M51.1 34.5c-.7-.6-.5-1.1-.1-1.2s.7 0 1 .7l.9-.6c-.7-1.7-.3-3 .9-3a3 3 0 0 0-.3 2.6l1.4-.6c-.5-2.1.6-2.8 1.4-2.8a2.4 2.4 0 0 0-.8 2.5l1.6-.4c0-2 1.3-2.8 2-2.7a3.2 3.2 0 0 0-1.4 2.5l2-.2a1.8 1.8 0 0 1 .8-1.2v2a11.8 11.8 0 0 0-6.2 1.4l-1.8 1c.8.8.5 1.1.1 1.2s-.6-.1-1-.5c-.6.8-1 .7-1.2.4s0-.9.7-1Z"/><path class="cls-11" d="M50.5 34.5a1.9 1.9 0 0 1-.2-.6 1 1 0 0 0 .2.6ZM52.4 33.3h.1a5.1 5.1 0 0 1-.3-1.2 3.3 3.3 0 0 0 .2 1.2ZM53.7 31.9a2 2 0 0 1 .6-1.3v-.2a1.6 1.6 0 0 0-.6 1.5ZM55.8 31.3a2.5 2.5 0 0 1 1-1.6v-.1a2.1 2.1 0 0 0-1 1.7ZM58.1 31a3.4 3.4 0 0 1 1.6-2s0 .2 0 .2a4.2 4.2 0 0 0-1.5 1.8ZM50 35.5c.3 1 1.2.7 1.7.3a1.1 1.1 0 0 0 1.7-.1c0 .7-1.3.9-1.7.3-.6.6-1.7.6-1.7-.5ZM53.1 34.7l-.1-.2c2-1.2 5-2.4 7.5-2v.2c-2.6-.4-5.3.9-7.4 2Z"/><path class="cls-10" d="M68.5 16v4.6h18.8v-1.2a38 38 0 0 0-8-2.4 50.3 50.3 0 0 0-10.8-1Z"/><path class="cls-13" d="M68.6 21.2v4.7h18.6v-4.7H68.6z"/><path class="cls-10" d="M75.9 26.6v4.1h11.3v-4.1H75.9z"/><path class="cls-13" d="M75.9 31.4h11.3l-.1 5.1H75.9v-5.1z"/><path d="M48.8 19.4V14a58.3 58.3 0 0 1 38.5-.7v5.4l-.3-5.2a61.1 61.1 0 0 0-18.8-2.9c-8 .1-17 2.4-19.3 3.8v5Z" fill-rule="evenodd"/><path d="m49.4 18.7 1.4-.5V17l3.5-1.1a.7.7 0 0 0 .4-.5v-1.9s0-.6-.9-.5l-1.5.4a18 18 0 0 0-3 1l.1 4.4Z" fill="#f1ca6e" stroke="#f1ca6e" stroke-miterlimit="2.6" stroke-width=".1" fill-rule="evenodd"/><path class="cls-10" d="M50.9 17.3v-.4l3.3-1c.2-.1.5-.3.5-.5v.3a.6.6 0 0 1-.4.5l-3.4 1ZM49.4 18.7v.3a12.1 12.1 0 0 1 1.4-.4v-.4a12.7 12.7 0 0 0-1.4.5Z"/><path d="m54.8 13.4.2 2.8c.1.2.3.5.7.4l3.8-.8a1 1 0 0 0 .6-.7l-.1-2.8c0-.4-.5-.6-1-.6l-3.5.8a1 1 0 0 0-.6.9Z" fill="#f5cb72" stroke="#f5cb72" stroke-miterlimit="2.6" stroke-width=".1" fill-rule="evenodd"/><path class="cls-10" d="M55 16.3c0 .4.2.7.4.7a11.9 11.9 0 0 0 1.8-.3l1-.2 1.2-.3c.3 0 .5-.3.7-.8v-.3a1 1 0 0 1-.6.7l-3.9.9a.6.6 0 0 1-.6-.4Z"/><path d="m60.4 11.6.1 4.2a6.4 6.4 0 0 1 1.2-.3v-1a.3.3 0 0 1 .1-.2l1.8-.2a.3.3 0 0 1 .3 0 2.9 2.9 0 0 1 .5 1 8.8 8.8 0 0 1 1.4 0 7.5 7.5 0 0 0-.8-1.5 1 1 0 0 0 .4-.6l-.1-1.4c-.1-.2-.3-.6-.8-.5l-4 .5Z" fill="#f4cb6a" stroke="#f4cb6a" stroke-miterlimit="2.6" stroke-width=".1" fill-rule="evenodd"/><path class="cls-10" d="M60.6 15.7a1.8 1.8 0 0 0 0 .4 4 4 0 0 1 1-.2v-.4a7 7 0 0 0-1 .2ZM61.7 14.7a3.4 3.4 0 0 1 .9 0l1.2-.2a2 2 0 0 1 .6 1.1 12.6 12.6 0 0 1 1.3-.1 2.2 2.2 0 0 0-.1-.4 9.5 9.5 0 0 0-1.2.1 2.6 2.6 0 0 0-.5-.9c0-.1-.1-.2-.3-.2l-1.7.2c-.2 0-.3 0-.2.1v.3ZM65 13.6l.1.2a.5.5 0 0 0 .2-.2s0 0 0-.1V13a1 1 0 0 1-.4.5Z"/><path d="M70.7 11v1l-.2.1h-3.2a.3.3 0 0 0-.1.3h3c.2.1.4.2.4.4v1.7a.6.6 0 0 1-.5.5l-4.3.1V14h3.6v-.3h-3a.8.8 0 0 1-.6-.7v-1.5a.7.7 0 0 1 .8-.5Z" fill="#f1cd74" stroke="#f1cd74" stroke-miterlimit="2.6" stroke-width=".1" fill-rule="evenodd"/><path class="cls-10" d="M66 15.1v.3h4.2a.5.5 0 0 0 .5-.5v-.4c0 .2-.2.4-.5.4l-3.5.2H66ZM65.9 13v.3a.7.7 0 0 0 .5.6h3.1v-.2h-3a.8.8 0 0 1-.6-.7ZM70.8 12v.5h-.3a1.2 1.2 0 0 0-.2-.1h-3a.2.2 0 0 1 0-.4h3.4Z"/><path d="m76.1 15.5-4.3-.4a.6.6 0 0 1-.6-.6v-2.9a.8.8 0 0 1 .7-.5c.7-.1 2.8.2 4.2.3v1.2a25 25 0 0 0-3.6-.4v1.6c0 .2 0 .2.2.2l3.4.3v1.2Z" fill="#f3cc6e" stroke="#f3cc6e" stroke-miterlimit="2.6" stroke-width=".1" fill-rule="evenodd"/><path class="cls-10" d="M71.2 14.5v.4a.7.7 0 0 0 .7.6l4.2.4v-.4H76l-4.2-.4a.6.6 0 0 1-.6-.6ZM72.5 12.6v-.4a31.8 31.8 0 0 1 3.6.4v.4H76l-3.5-.4Z"/><path d="M76.3 15.6a8.2 8.2 0 0 1 1.2.1v-1.4l2.3.4v1.5l1.3.2v-4.2l-1.3-.3v1.6l-2.3-.4v-1.6l-1.1-.1v4.1Z" fill="#f8cd68" stroke="#f8cd68" stroke-miterlimit="2.6" stroke-width=".1" fill-rule="evenodd"/><path class="cls-10" d="M76.3 15.6v.4a7.4 7.4 0 0 1 1.2.1v-.3a7.7 7.7 0 0 0-1.2-.2ZM77.5 14.3l2.3.4v.4l-2.3-.5v-.3ZM79.8 16.2v.4a8.1 8.1 0 0 1 1.2.2v-.4l-1.2-.2Z"/><path d="M81.5 12.3v4.3l5 1.5v-4.5l-5-1.3Z" stroke="#fdd78e" fill="#f3cc6d" stroke-miterlimit="2.6" stroke-width=".1" fill-rule="evenodd"/><path class="cls-10" d="M81.6 16.6v.4l2.9.8 2 .7v-.4l-5-1.5Z"/><path d="M87.2 18.8v-5.5a59.7 59.7 0 0 0-19.6-3c-9.8.3-17.5 3-18.8 3.7v5.4-5c3.8-2.1 13.4-3.7 19.5-3.7a65 65 0 0 1 18.6 2.8l.3 5.3Z" stroke="#565452" stroke-miterlimit="2.6" stroke-width=".1" fill="none"/><path class="cls-10" d="m49.6 18.4 1-.3v-1.3l3.6-1.2c.2 0 .2-.1.3-.2v-2a.3.3 0 0 0-.2-.2 1 1 0 0 0-.3 0 8.5 8.5 0 0 0-1.5.4l-2.9.9v4ZM55 13.4l.2 2.8a.4.4 0 0 0 .4.3l3.8-.8a.7.7 0 0 0 .4-.7v-2.6a.5.5 0 0 0-.5-.4H59l-3.4.7a1 1 0 0 0-.6.7ZM60.8 15.5l.7-.1v-1a.4.4 0 0 1 .4-.2l1.8-.2a.7.7 0 0 1 .4.2 3.4 3.4 0 0 1 .5.9l.8-.1a8.3 8.3 0 0 0-.5-1.1 1 1 0 0 0-.2-.2l.4-.4v-1.5l-.4-.4h-.3l-3.8.4.1 3.8ZM66.2 14.3v.6l4-.1a.3.3 0 0 0 .3-.3V13c0-.1 0-.2-.3-.2h-3a.4.4 0 0 1-.2-.5.6.6 0 0 1 .2-.3h3.4v-.6h-4a.6.6 0 0 0-.5.2 14.1 14.1 0 0 0 0 1.5.6.6 0 0 0 .4.4h3a.5.5 0 0 1 .3.4.4.4 0 0 1-.2.3l-3.4.1ZM75.9 15.3v-.7l-3.3-.3a.5.5 0 0 1-.4-.2v-1.9a.8.8 0 0 1 .3-.2 33.7 33.7 0 0 1 3.4.4v-.7l-3.8-.4c-.2 0-.5 0-.6.4v2.9a.4.4 0 0 0 .3.3l4 .4ZM76.6 15.4l.7.1v-1.4l2.7.5V16l.8.2v-3.8l-.8-.2v1.6l-2.7-.5v-1.5l-.7-.1v3.7zM81.8 12.6v3.8l4.5 1.4v-1l-3.7-1v-.6l3.7 1.1v-.9l-3.6-1v-.8l3.6 1.1V14l-4.5-1.3Z"/><path class="cls-10" d="M82.9 15.5v.2l3.6 1v-.1L83 15.4ZM82.9 14v.1l3.6 1.1v-.1l-.2-.2-3.4-1Z"/><path class="cls-25" d="M50.6 15v1h.2l2.7-.8a.8.8 0 0 0 .1-.6c0-.2 0-.5-.3-.5l-2.5.8a.4.4 0 0 0-.2.2ZM56 13.7v1.6a.4.4 0 0 0 .1.3h.3l2.2-.5a.4.4 0 0 0 .3-.5v-1.3a.5.5 0 0 0-.2-.4h-.3l-2.1.4c-.2.1-.3.1-.4.4ZM61.4 12.6v.8l.2.1h.2l2.1-.2c.2 0 .3-.2.3-.4a1 1 0 0 0 0-.5.5.5 0 0 0-.2-.2h-.2l-2 .2a.3.3 0 0 0-.3.2Z"/><path class="cls-10" d="M50.8 15.2v.3l2.5-.7v-.4l-2.5.7Z"/><path d="m50.8 15.8 2.4-.8a.3.3 0 0 0 .2-.1v-.2h-.1l-2.5.8v.2Z" fill="#fddda0" stroke="#fddda0" stroke-miterlimit="2.6" stroke-width=".1" fill-rule="evenodd"/><path class="cls-10" d="M56.1 14.1v-.4a.5.5 0 0 1 .3-.2l2-.3h.2a.5.5 0 0 1 0 .2v.3-.1a.7.7 0 0 0-.3 0l-1.9.3a.5.5 0 0 0-.3.2Z"/><path class="cls-27" d="M56.1 14.1v1.1l.1.2 2.3-.5c.2 0 .2-.1.2-.2v-1.1h-.3l-2 .4a.9.9 0 0 0-.2.1Z"/><path class="cls-10" d="M61.6 12.7v.3l2.2-.3h.1l.1.1a.5.5 0 0 0-.1-.4l-2.2.2Z"/><path class="cls-27" d="M61.6 13.3a.1.1 0 0 0 .1 0l2.2-.2a.2.2 0 0 0 0-.2v-.1l-2.3.2v.2Z"/><path class="cls-28" d="M60.5 26.1c4-.2 10.2-.1 15.4-.1l.2 11.3c-.6 10.3-15.2 9.5-15.6 0V26.2Z"/><path class="cls-10" d="M61 26.6h14.5v10.6c-.4 9-13.6 9.5-14.5 0V26.5Z"/><path class="cls-28" d="M61.5 27v10.2c.5 8.2 13 9 13.5 0V27Z"/><path d="M61.4 27h10.3c-.5 1-1 2.3-2 2.7 0 .4-1 .5-1.2.7l-.8.8a23.6 23.6 0 0 1-1.8 2.2 7.9 7.9 0 0 1-.9.2 6 6 0 0 0-1.5.6 6 6 0 0 1-.8.8 1.8 1.8 0 0 1-1.2 1.1v-9Z" fill="#fad792" stroke="#fad792" stroke-miterlimit="2.6" stroke-width=".1" fill-rule="evenodd"/><path d="M61.4 27h9.8a4.5 4.5 0 0 1-2 2.6c0 .3-.9.5-1 .7l-.8.7a21.6 21.6 0 0 1-1.7 2c-.2.2-.8.3-1 .3a5.4 5.4 0 0 0-1.4.6 5.4 5.4 0 0 1-.7.7 1.6 1.6 0 0 1-1.1 1v-8.5Z" fill="#f8d590" stroke="#f8d590" stroke-miterlimit="2.6" stroke-width=".1" fill-rule="evenodd"/><path d="M61.4 27h9.2a4.2 4.2 0 0 1-1.8 2.4c0 .3-.9.4-1 .6l-.7.7a22 22 0 0 1-1.6 2l-.9.2a5 5 0 0 0-1.3.5 5.2 5.2 0 0 1-.7.7 1.6 1.6 0 0 1-1.1 1V27Z" fill="#fad793" stroke="#fad793" stroke-miterlimit="2.6" stroke-width=".1" fill-rule="evenodd"/><path d="M61.5 27H70a4 4 0 0 1-1.7 2.3c0 .3-.8.4-1 .6l-.7.6a21.2 21.2 0 0 1-1.5 1.8l-.8.3a4.8 4.8 0 0 0-1.2.5 4.4 4.4 0 0 1-.7.6 1.5 1.5 0 0 1-1 1V27Z" fill="#f8d796" stroke="#f8d796" stroke-miterlimit="2.6" stroke-width=".1" fill-rule="evenodd"/><path d="M61.4 27H69a3.4 3.4 0 0 1-1.4 2c0 .3-.8.4-.9.5l-.6.6a16.7 16.7 0 0 1-1.3 1.6 4.4 4.4 0 0 1-.7.2 4.2 4.2 0 0 0-1 .4 4.4 4.4 0 0 1-.7.5 1.3 1.3 0 0 1-.8.9V27Z" fill="#fad99d" stroke="#fad99d" stroke-miterlimit="2.6" stroke-width=".1" fill-rule="evenodd"/><path class="cls-10" d="m63.2 27.7-.2.2a.6.6 0 0 0-.2 0 .4.4 0 0 0-.2 0 .6.6 0 0 0-.1 0 .3.3 0 0 0 0 .2.2.2 0 0 0 .1.2 2.6 2.6 0 0 1 .3 0 .6.6 0 0 1 .5.4.5.5 0 0 1 0 .4.6.6 0 0 1-.4.3 1.7 1.7 0 0 1-.4 0 .7.7 0 0 1-.4-.2l.2-.2a.4.4 0 0 0 .2.1.7.7 0 0 0 .3 0 .3.3 0 0 0 .2-.1.5.5 0 0 0 0-.2.3.3 0 0 0-.2-.2 1 1 0 0 1-.4 0 .5.5 0 0 1-.3-.4.6.6 0 0 1 0-.4.5.5 0 0 1 .4-.3.7.7 0 0 1 .3 0 .4.4 0 0 1 .4.2ZM63.6 27.5h.7v.3h-.2v1.4h-.3v-1.4h-.2v-.3zM64.7 27.7h.3V29a.4.4 0 0 0 .7 0v-1.3h.3V29a.7.7 0 0 1-1.3 0v-1.3ZM66.4 27.5h.6v.3h-.2l.1 1.4h-.3v-1.4h-.2v-.3zM67.6 27.5h.6v.3H68v1.4h-.2l-.1-1.4h-.1v-.3zM69.7 27.6a.6.6 0 0 0-.3-.1.5.5 0 0 0-.3 0 .6.6 0 0 0-.4.3 1.3 1.3 0 0 0-.1.4 2 2 0 0 0 0 .4 1.4 1.4 0 0 0 .2.6.5.5 0 0 0 .3.2.6.6 0 0 0 .3 0 .6.6 0 0 0 .3-.3.6.6 0 0 0 .2-.3v-.5h-.6v.3h.3a1 1 0 0 1 0 .3.4.4 0 0 1-.2.2.3.3 0 0 1-.2 0 .7.7 0 0 1-.2-.3.7.7 0 0 1 0-.2 2 2 0 0 1 0-.4.7.7 0 0 1 .1-.3.7.7 0 0 1 .1-.1.2.2 0 0 1 .2 0 .4.4 0 0 1 .1 0l.3-.1ZM70.9 27.2l-.8 2 .3.1.1-.3h.7l.1.3.3-.1-.7-2z"/><path fill="#f5d287" stroke="#f5d287" stroke-miterlimit="2.6" stroke-width=".1" fill-rule="evenodd" d="m70.9 28.1-.3.6h.5l-.2-.6z"/><path class="cls-10" d="M71.8 27.4v1.8h.3v-.4h.3l.3.5.3-.1-.3-.5a.5.5 0 0 0 .4-.3 1 1 0 0 0 0-.5.6.6 0 0 0-.6-.5Z"/><path d="M72.1 27.7v.8h.3l.4-.3a.5.5 0 0 0 0-.2.4.4 0 0 0-.4-.3Z" fill="#f8d081" stroke="#f8d081" stroke-miterlimit="2.6" stroke-width=".1" fill-rule="evenodd"/><path class="cls-10" d="M73.5 27.5h.6v.3h-.2v1.4h-.2l-.1-1.4h-.1v-.3zM65.8 32.7h-.2c-.1.2-.2.1-.4.3l-.2-.1v-.1a.4.4 0 0 1 .1-.2.2.2 0 0 0-.1 0h-.2a.6.6 0 0 1-.3-.1 2.8 2.8 0 0 1 .4-.3.7.7 0 0 1 .1-.2l.7-.3h.4a.1.1 0 0 0 0-.2l-.4-.3V31h.1a.9.9 0 0 1 .3.1h.4a1.2 1.2 0 0 0 .3-.2 1 1 0 0 1 .3-.1.8.8 0 0 0 .4-.3 1.2 1.2 0 0 1 .6-.4h.2a.6.6 0 0 0-.3.5.3.3 0 0 0 0 .1.5.5 0 0 0 .2.2h.4a2.9 2.9 0 0 1 .6-.1h.4a.6.6 0 0 1 .3 0c.1 0 0 .1 0 .2h-.3a.8.8 0 0 0-.3.2.1.1 0 0 0 0 .2.3.3 0 0 1 .1.1 1.8 1.8 0 0 1 0 .3 3 3 0 0 1 .4.2 2 2 0 0 1 .4.3.3.3 0 0 1 0 .2 1.3 1.3 0 0 0-.4-.2.2.2 0 0 0-.2 0v.2a.9.9 0 0 1 .3.2 1.8 1.8 0 0 1 .2.5c0 .2 0 0-.1 0a1.2 1.2 0 0 0-.5-.2h-.2s-.1 0 0 .1a1 1 0 0 1 .2.4v.5a1 1 0 0 0-.4-.3.8.8 0 0 0-.4 0 1 1 0 0 0-.4.4v1a1 1 0 0 0 .7.4 10.8 10.8 0 0 0 1.6 0h.7a1.7 1.7 0 0 1 1 .7.1.1 0 0 0 .2 0 1.3 1.3 0 0 0 .2-.5.4.4 0 0 0 0-.2 1.2 1.2 0 0 1 0-.2 5.4 5.4 0 0 0-.7-1 1.2 1.2 0 0 1-.2-.5.7.7 0 0 1 0-.3.7.7 0 0 1 0-.3h.2v.3a2 2 0 0 0 .2.3s0 0 .1 0l.1-.7.2-.2a2 2 0 0 1 .7-.3l.1-.2c.1-.2.2-.1.2 0a.5.5 0 0 1-.1.4 1.4 1.4 0 0 1-.3.2.7.7 0 0 0-.1.2 1 1 0 0 1-.3.4.2.2 0 0 0 0 .2.7.7 0 0 0 .2.2.1.1 0 0 0 .1 0 .7.7 0 0 0 .3-.6h.1a.5.5 0 0 1 0 .5 1.8 1.8 0 0 1-.3.4s0 0 0 .1a1 1 0 0 1 .1.2c0 .1.2.1.4 0 0-.1.1-.1.2 0v.1a.7.7 0 0 1-.7.4.2.2 0 0 0 0 .2.3.3 0 0 0 .1.1.3.3 0 0 0 .3 0 1.2 1.2 0 0 0 .3-.3.4.4 0 0 1 0 .3 1 1 0 0 1-.3.4v.2l.1.2h.4a.5.5 0 0 1-.4.2h-.2a4.3 4.3 0 0 0-.5-.2.2.2 0 0 0-.2 0 .7.7 0 0 0-.3.3 1 1 0 0 1 0 .6l-.7 1.2a1 1 0 0 0 0 .6 2.2 2.2 0 0 0 .3.4 3.6 3.6 0 0 1 .2.4V40c0 .2 0 .2-.2.2a2.7 2.7 0 0 0-.5.6 1.3 1.3 0 0 0 0 .2.4.4 0 0 1-.3.3 3.6 3.6 0 0 0-.8.4v.3a.1.1 0 0 1 0 .2c0 .1-.3 0-.5.2a.2.2 0 0 1-.2 0V42a4.1 4.1 0 0 1 .3-.4.7.7 0 0 1 .2-.3l.7-.7a3 3 0 0 0 .4-1v-.2a1.5 1.5 0 0 1-1-.6.1.1 0 0 0-.2 0 .8.8 0 0 1-.1.1v.7l-.2.2a10.7 10.7 0 0 1-1 .6 8.9 8.9 0 0 0-1 .5c0 .1-.1.2 0 .4v.1l-.6.2a.1.1 0 0 1-.1-.2 3 3 0 0 0 .3-.4 1 1 0 0 1 .3-.4l.9-.5a1 1 0 0 0 .2-.2 2.2 2.2 0 0 1 .4-.5.2.2 0 0 0 0-.2.5.5 0 0 0 0-.2 1.6 1.6 0 0 1-.4-.6.6.6 0 0 1 0-.4c.1-.2 0-.2 0-.2h-1.5l-.4-.2a1.6 1.6 0 0 1-.6-.4H66a1.1 1.1 0 0 1-.5.3.8.8 0 0 1-.4 0 1.7 1.7 0 0 0-.2-.2l-.4-.1c-.2-.1-.3 0-.4 0l-.1.2v.6a4.3 4.3 0 0 0 0 .8v.2l.2.1c.2.1 0 0 0 .1h.5a.1.1 0 0 1 0 .2l-.3.4h-.2l-.4-.5a.4.4 0 0 1-.2-.2 6.8 6.8 0 0 1 0-1 5.2 5.2 0 0 0 0-.8c-.1-.2 0-.4.1-.5a.7.7 0 0 0 .3 0l1-.2v-.2a.6.6 0 0 0-.2-.2h-.1c-.3 0-.3-.2-.4-.4v-.3l-.5-.6c0-.1-.2 0-.2 0a2.6 2.6 0 0 0-.5.5 2.3 2.3 0 0 0-.1.4v.2a.7.7 0 0 1-.4.3v.1a.4.4 0 0 0 0 .3.3.3 0 0 1 .2.1.1.1 0 0 1 0 .2 1.2 1.2 0 0 0-.5.2s-.1 0-.2 0a.4.4 0 0 1 0-.3 1 1 0 0 1 .2-.3l.1-.1.1-.4.2-.5.4-.6.1-.2.2-.2a.6.6 0 0 1 .2-.3h.3a1.5 1.5 0 0 1 .3.4l.2.3a1.8 1.8 0 0 1 .2 0 .2.2 0 0 0 .2 0l.2-.3a2.1 2.1 0 0 1 1-1.2.3.3 0 0 0 0-.3.6.6 0 0 1 .2-.3.1.1 0 0 0 0-.1l-.3-.1Z"/><path d="M67.3 31.4a.7.7 0 0 1 .2.3 4.3 4.3 0 0 1 .3 1.7v.3a.2.2 0 0 0 .2 0 .4.4 0 0 0 .2-.3 5.1 5.1 0 0 0 0-1.3c-.1-.5-.3-.8-.7-.9a.4.4 0 0 0-.2 0v.2Z" fill="#fad48a" stroke="#fad48a" stroke-miterlimit="2.6" stroke-width=".1" fill-rule="evenodd"/><path d="M67.8 33a1.7 1.7 0 0 0 0 .7c.2.2.4-.1.4-.3a4.5 4.5 0 0 0 0-1.3h-.1a2 2 0 0 1-.2.7.3.3 0 0 1-.2.3Z" fill="#f8d286" stroke="#f8d286" stroke-miterlimit="2.6" stroke-width=".1" fill-rule="evenodd"/><path d="M67.3 31.4a.8.8 0 0 1 .2.3.5.5 0 0 1 .1-.1l.1-.3-.2-.1c-.1 0-.3 0-.2.2Z" fill="#f8d591" stroke="#f8d591" stroke-miterlimit="2.6" stroke-width=".1" fill-rule="evenodd"/><path class="cls-11" d="M53 34.6v.2a16.9 16.9 0 0 1 4.9-2 7.2 7.2 0 0 1 2.6-.2v-.2c-1.6-.2-4.3.2-7.6 2.1Z"/><path class="cls-27" d="M61.7 16v-1.1l.2-.2 1.9-.1a2 2 0 0 1 .6 1.1l-2.7.3Z"/><path d="M65.7 15.5h.2V14h.5c-.3-.1-.6-.3-.5-1v-1.4a.8.8 0 0 1 .7-.6h2v-.3a66 66 0 0 0-8.3.7l.1.2 4.2-.5a.7.7 0 0 1 .7.6V13a1 1 0 0 1-.2.8l.7 1.3h-.2l.1.4Z" fill="#fde7bf" stroke-miterlimit="2.6" stroke-width=".1" stroke="#fde7bf" fill-rule="evenodd"/><path class="cls-27" d="M65.7 15.5h.2v-1.6h.4c-.3 0-.5-.3-.5-1v-1.4c0-.2.4-.5.7-.5h2.1v-.3a66.9 66.9 0 0 0-8.3.6v.3l4.2-.5a.7.7 0 0 1 .7.5V13a1 1 0 0 1-.2.8l.7 1.3h-.2l.1.4Z"/><path class="cls-9" d="M68.9 44.9h.5v-.1l-.5.1z"/><path d="M51 65.1h-5.2v3h.6v-.7h4.7a.5.5 0 0 0 .5-.5v-1.4c0-.4-.4-.4-.6-.4Zm0 1.4c0 .2 0 .3-.2.3h-4.4v-1.1h4.3c.2 0 .3 0 .3.2ZM57.8 65h-5.1a.3.3 0 0 0-.3.4v2.4a.3.3 0 0 0 .3.3h5a.3.3 0 0 0 .4-.3v-2.4a.3.3 0 0 0-.3-.3Zm-.3 2.3a.2.2 0 0 1-.2.2h-4.1a.2.2 0 0 1-.3-.2v-1.5a.2.2 0 0 1 .3-.2h4a.2.2 0 0 1 .3.2ZM64.3 67.4a.5.5 0 0 0 .3-.5v-1.2c0-.4-.1-.6-.4-.6h-5.3v3h.5v-.7h4.2l.4.7h.7Zm-.3-.9a.2.2 0 0 1-.3.3h-4.2v-1.1h4.3c.2 0 .2 0 .2.2ZM71 65v.7h-4.5c-.2 0-.3.1-.3.2v.2a.2.2 0 0 0 .2.2h4.2a.5.5 0 0 1 .5.5v.8a.5.5 0 0 1-.5.5h-5v-.6h4.6c.2 0 .3 0 .3-.2V67c0-.2-.3-.1-.4-.1h-4a.4.4 0 0 1-.5-.5v-1c0-.2.3-.4.5-.4ZM77.5 65v.6H73c-.2 0-.3.2-.3.3v1.3c0 .2.1.3.3.3h4.5v.6h-5c-.3 0-.4-.3-.4-.6v-2c0-.4.4-.4.5-.4ZM83.3 65.1v1.2H79v-1.2h-.6v3h.6v-1.2h4.3v1.2h.6v-3h-.6zM90.5 65.7v-.6h-5.7v3h5.7v-.6h-5.1v-.6h5.1v-.6h-5.1v-.6h5.1z"/></svg>