<svg id="Layer_1" data-name="Layer 1" xmlns="http://www.w3.org/2000/svg" viewBox="0 0 136.3 77.6"><defs><style>.cls-1{fill:#fff}.cls-1,.cls-6{fill-rule:evenodd}</style><mask id="mask" x="4.5" y="28.1" width="69.7" height="16.2" maskUnits="userSpaceOnUse"><g id="mask-2"><path id="path-1" class="cls-1" d="M16.7 28.1 4.6 44.3H62l12-16.2Zm37.9 4.2h4.8a2.8 2.8 0 0 1 2.3 1 2.7 2.7 0 0 1 0 2.8L58 40.7h-3.6l1.3-1.6h-2.5l-1.3 1.6h-3.7Zm-5.7 0H53l-6.4 8.5H43l3-4-3.7 2-.2-2-3.2 4h-3.5l6.4-8.5h3.1l.3 2.2Zm-16.5 5.4 4-5.4h4L35 39.2a7.3 7.3 0 0 1-2.1 1.5 6.4 6.4 0 0 1-2.3.4h-.4l-1.9-.1a2.5 2.5 0 0 1-2-1.5 2.3 2.3 0 0 1 .3-2l4-5.2h3.8l-3.7 4.9c-.6.7 0 1.2.4 1.2a1.6 1.6 0 0 0 1.3-.7Zm-12.2-5.4h5.6a2 2 0 0 1 1.8 1.1 2.8 2.8 0 0 1-.4 2.4L26 37.4a4.1 4.1 0 0 1-3.5 1.5h-3.6l-1.5 2h-3.5Zm3.1 2.5h-1l-1.1 1.5h1.2a2 2 0 0 0 1-.2c.2-.1.7-.6.6-1-.1-.3-.5-.3-.7-.3Zm33 .2-1.1 1.4h2.6l.6-.8a.5.5 0 0 0 0-.4.4.4 0 0 0-.4-.2h-1.8Z"/></g></mask></defs><g id="puma-energy-logo"><g id="Group-32-Copy"><path id="Fill-1" d="M22.4 36.3h-1.2l1.2-1.5h1c.1 0 .5 0 .6.3s-.3.9-.6 1a2 2 0 0 1-1 .2m35.5 0h-2.7l1-1.3H58c.2 0 .4.1.4.3a.5.5 0 0 1 0 .3l-.5.8m-4.7 2.7h2.5l-1.3 1.7H58l3.6-4.6a2.7 2.7 0 0 0 0-2.8 2.8 2.8 0 0 0-2.2-1h-4.8l-6.4 8.4H52l1.3-1.7m-11.4-6.8-6.4 8.5h3.5l3.3-4 .2 2 3.6-2-3 4h3.7l6.3-8.5h-4.2l-3.7 2.2-.2-2.2h-3.1m-16 0H20L14 40.7h3.5l1.5-1.9h3.6a4.1 4.1 0 0 0 3.5-1.4l1.2-1.7a2.7 2.7 0 0 0 .4-2.3 1.9 1.9 0 0 0-1.8-1m4.9 0-4 5.2a2.3 2.3 0 0 0-.4 1.9 2.5 2.5 0 0 0 2.1 1.5l2 .1h.3a6.4 6.4 0 0 0 2.3-.4 7.3 7.3 0 0 0 2.1-1.5l5.3-7h-4l-4 5.5a1.6 1.6 0 0 1-1.2.6c-.5 0-1-.5-.4-1.1l3.7-5h-3.8M62 44.4H4.5l12.2-16.2h57.5L62 44.3" fill="#0c6f43" fill-rule="evenodd"/><g mask="url(#mask)" id="Group-5"><path id="Fill-3" fill="#0d7044" fill-rule="evenodd" d="M4.6 44.3h69.7V28.1H4.6v16.2z"/></g><g id="Group-31"><path id="Fill-6" class="cls-1" d="m22.4 34.8-1.2 1.5h1.2a2 2 0 0 0 1-.2c.2-.1.7-.6.6-1s-.5-.3-.7-.3h-1m-8.4 6 6.2-8.4h5.6a2 2 0 0 1 2 1 2.8 2.8 0 0 1-.5 2.4L26 37.4a4.1 4.1 0 0 1-3.5 1.5h-3.6l-1.5 2h-3.5"/><path id="Fill-8" class="cls-1" d="M30.7 41h-2.3a2.5 2.5 0 0 1-2-1.5 2.3 2.3 0 0 1 .3-2l4-5.2h3.8l-3.7 4.9c-.6.7 0 1.2.4 1.2a1.6 1.6 0 0 0 1.3-.7l4-5.4h4L35 39.2a7 7 0 0 1-2.1 1.5 6.4 6.4 0 0 1-2.3.4"/><path id="Fill-10" class="cls-1" d="M38.9 40.8h-3.5l6.4-8.5h3.1l.3 2.2 3.7-2.2h4.2l-6.4 8.5H43l3-3.9-3.6 1.8-.2-2-3.3 4.1z"/><path id="Fill-12" class="cls-1" d="m56.2 35-1 1.4h2.6l.6-.8a.5.5 0 0 0 0-.4c0-.2-.2-.3-.4-.3h-1.8m1.8 5.9h-3.6l1.3-1.7h-2.5l-1.3 1.7h-3.7l6.4-8.5h4.8a2.8 2.8 0 0 1 2.3 1 2.7 2.7 0 0 1 0 2.8L58 40.7"/><g id="Group-16"><path id="Fill-14" d="M96.2 37.3a10.9 10.9 0 0 1 3.5.7c1.9.7 4.1 1.2 4.1 1.2a62.4 62.4 0 0 1 9.9 2.8 5.6 5.6 0 0 0 1.4.3c.4 0 .6-.1.7-.4 0-.6-.8-.6-1.4-.6a5.9 5.9 0 0 1-1.5-.4s-2.6-1.5-3.5-2.1-1-1.1-.4-1.3a2.6 2.6 0 0 1 .4 0l1.6.2c.6 0 1 0 1.5.4a.7.7 0 0 0 .4.2.4.4 0 0 0 .3-.2 5.1 5.1 0 0 0 1.1-1c.3-.5 0-.7 0-.7l-.6-1.5a2.2 2.2 0 0 0-2-1.1h-.1a.3.3 0 0 1-.2-.2l-.4-.5a4.4 4.4 0 0 1-2 1h-.2c-1.5-.2-1.6-1-5.9-1.6a18.4 18.4 0 0 0-2.3-.1 58 58 0 0 0-9.3 1 4 4 0 0 1-.7 0 12.5 12.5 0 0 1-1.9-.2 53.4 53.4 0 0 0-6.7-.4 72 72 0 0 0-7.5.4s-1.3.2-1.3.6 1.2.4 1.2.4h.2c.6 0 3.8-.4 6.3-.4h.1l5.3.2a20.1 20.1 0 0 1 2.5.3 1.4 1.4 0 0 1 1 .5c0 .2 0 .4-.2.7a11.8 11.8 0 0 1-2 1.5 2.7 2.7 0 0 1-1.4.3h-.8a1.3 1.3 0 0 0-1 .5 11.4 11.4 0 0 1-2.6 1.9 7.6 7.6 0 0 0-1 .6 4 4 0 0 1-1.4.4c-.5 0-.6.3-.6.3l-.3.6c-.2.3.2.3.2.3a7 7 0 0 0 1 .1c1.4 0 2-.5 3.7-1.5a5.5 5.5 0 0 1 3-1h2.3a5 5 0 0 0 2.3-.4 33.8 33.8 0 0 1 3.6-1.6 4.7 4.7 0 0 1 1.6-.3m23.5 7.1H62l12-16.2h57.7l-12.1 16.2" fill="#d61126" fill-rule="evenodd"/></g><path id="Fill-17" class="cls-1" d="M115 42.2a5.2 5.2 0 0 1-1.3-.2 62.3 62.3 0 0 0-9.9-2.7s-2.2-.6-4.1-1.3a11 11 0 0 0-3.5-.8 4.7 4.7 0 0 0-1.6.3 33.8 33.8 0 0 0-3.7 1.6 5 5 0 0 1-2.2.5h-1l-1.4-.1a5.5 5.5 0 0 0-3 1c-1.6 1-2.3 1.5-3.5 1.5a7 7 0 0 1-1.2 0s-.3 0-.1-.4l.3-.6s0-.2.6-.3a4 4 0 0 0 1.5-.4 7.6 7.6 0 0 1 .9-.6 11.4 11.4 0 0 0 2.5-1.9 1.3 1.3 0 0 1 1-.5h.9a2.7 2.7 0 0 0 1.5-.3 11.2 11.2 0 0 0 1.8-1.5c.3-.3.3-.5.2-.7a1.4 1.4 0 0 0-1-.6 20.1 20.1 0 0 0-2.4-.2l-5.3-.2c-2.5 0-5.8.4-6.4.4h-.2s-1 0-1.1-.4 1.2-.6 1.2-.6a72 72 0 0 1 7.5-.4 53.4 53.4 0 0 1 6.7.4 12.5 12.5 0 0 0 1.8.2 4 4 0 0 0 .8 0 58 58 0 0 1 9.3-1 18.3 18.3 0 0 1 2.3.1c4.3.5 4.3 1.4 5.9 1.6h.2a4.4 4.4 0 0 0 2-1l.4.5a.3.3 0 0 0 .2.2h.2a2.2 2.2 0 0 1 2 1.1l.6 1.6s.2.2 0 .6a5.1 5.1 0 0 1-1.1 1 .4.4 0 0 1-.4.2.7.7 0 0 1-.4-.2c-.5-.4-.8-.3-1.5-.4l-1.6-.2a2.6 2.6 0 0 0-.3 0c-.7.2-.5.7.3 1.3l3.5 2.1a5.7 5.7 0 0 0 1.6.4c.5 0 1.4 0 1.3.6 0 .3-.3.4-.7.4"/><path id="Fill-19" class="cls-6" d="M17.3 49.4h-1.5l-.1-.1v-3h1.6v.4h-1v.8h.8v.4h-.8v1h1.1v.4"/><path id="Fill-21" class="cls-6" d="M25.3 49.4H25l-.9-1.6a2 2 0 0 1-.2-.7v2.2h-.5v-3h.5l.8 1.4a3.6 3.6 0 0 1 .2.7v-2l.1-.1h.4v3"/><path id="Fill-23" class="cls-6" d="M33.2 49.4h-1.5l-.1-.1v-3h1.6v.4h-1v.8h.8l.1.1v.3h-.9v1h1v.4"/><path id="Fill-25" class="cls-6" d="M39.8 46.7v1h.2c.3 0 .6 0 .6-.6s-.3-.4-.6-.4H40m1 2.7h-.2l-.6-1.3h-.2v1.2h-.6v-3h.8c.3 0 1 0 1 .8a.8.8 0 0 1-.5.9l.7 1.2-.5.2"/><path id="Fill-27" class="cls-6" d="M48.3 49.5c-.8 0-1.3-.6-1.3-1.7s.5-1.6 1.3-1.6c.4 0 .8.2.8.3l-.1.3a1.3 1.3 0 0 0-.6-.1c-.5 0-.6.4-.6 1.1s0 1.2.6 1.2a.8.8 0 0 0 .3-.1v-.7h-.4v-.4h.9v1.3c0 .2-.5.3-.9.3"/><path id="Fill-29" class="cls-6" d="M56.2 49.4h-.4V48l-1-1.7.2-.1h.4l.5.8a2.8 2.8 0 0 1 .1.5 3 3 0 0 1 .2-.6l.4-.7h.5v.1l-.7 1.7v1.2h-.1"/></g></g></g></svg>