<svg data-name="Layer 1" xmlns="http://www.w3.org/2000/svg" xmlns:xlink="http://www.w3.org/1999/xlink" viewBox="0 0 136.3 77.6"><defs><linearGradient id="f" x1="7.4" y1="31.9" x2="20.6" y2="31.9" gradientUnits="userSpaceOnUse"><stop offset="0" stop-color="#fff"/><stop offset="1"/></linearGradient><linearGradient id="d" x1="11.8" y1="41.3" x2="11.8" y2="40.8" gradientUnits="userSpaceOnUse"><stop offset="0" stop-color="#fff"/><stop offset="1"/></linearGradient><linearGradient id="N" x1="10.5" y1="45.8" x2="10.5" y2="35.7" xlink:href="#d"/><linearGradient id="S" x1="13.5" y1="38" x2="15.4" y2="38" xlink:href="#f"/><linearGradient id="Y" x1="29.4" y1="42.3" x2="29.4" y2="42.1" xlink:href="#d"/><linearGradient id="ab" x1="29.4" y1="42.1" x2="29.4" y2="41.8" xlink:href="#d"/><linearGradient id="q" x1="14.1" y1="34.9" x2="14.1" y2="26.1" gradientUnits="userSpaceOnUse"><stop offset="0" stop-color="#fff"/><stop offset="1"/></linearGradient><linearGradient id="ae" x1="29.5" y1="41.8" x2="29.5" y2="41.4" xlink:href="#d"/><linearGradient id="ah" x1="29.6" y1="41.3" x2="29.6" y2="40.8" xlink:href="#d"/><linearGradient id="ak" x1="30.9" y1="45.8" x2="30.9" y2="35.7" xlink:href="#d"/><linearGradient id="aq" x1="6484.6" y1="38" x2="6486.5" y2="38" gradientTransform="matrix(-1 0 0 1 6512.4 0)" xlink:href="#f"/><linearGradient id="at" x1="20.7" y1="56" x2="20.7" y2="21.6" gradientUnits="userSpaceOnUse"><stop offset="0"/><stop offset="0" stop-color="#090909"/><stop offset=".1" stop-color="#202020"/><stop offset=".1" stop-color="#474747"/><stop offset=".2" stop-color="#7d7d7d"/><stop offset=".2" stop-color="#c1c1c1"/><stop offset=".3" stop-color="#fff"/><stop offset=".6" stop-color="#fff"/><stop offset=".7" stop-color="#fff"/><stop offset="1" stop-color="#fff"/></linearGradient><linearGradient id="ax" x1="5945" y1="31.9" x2="5931.8" y2="31.9" gradientTransform="matrix(-1 0 0 1 5965.8 0)" xlink:href="#f"/><linearGradient id="aB" x1="27.3" y1="34.9" x2="27.3" y2="26.1" xlink:href="#q"/><linearGradient id="B" x1="12" y1="42.3" x2="12" y2="42.1" xlink:href="#d"/><linearGradient id="F" x1="12" y1="42.1" x2="12" y2="41.8" xlink:href="#d"/><linearGradient id="I" x1="11.9" y1="41.8" x2="11.9" y2="41.4" xlink:href="#d"/><linearGradient id="aC" x1="20.7" y1="55.1" x2="20.7" y2="22.5" gradientUnits="userSpaceOnUse"><stop offset="0" stop-color="#fff"/><stop offset=".1" stop-color="#fdfdfd"/><stop offset=".2" stop-color="#f5f5f5"/><stop offset=".3" stop-color="#e8e8e8"/><stop offset=".3" stop-color="#d5d5d5"/><stop offset=".4" stop-color="#bdbdbd"/><stop offset=".4" stop-color="#9f9f9f"/><stop offset=".4" stop-color="#989898"/><stop offset=".5" stop-color="#919191"/><stop offset=".5" stop-color="#7d7d7d"/><stop offset=".6" stop-color="#5c5c5c"/><stop offset=".7" stop-color="#2f2f2f"/><stop offset=".7" stop-color="#1a1a1a"/><stop offset=".8" stop-color="#232323"/><stop offset=".8" stop-color="#3a3a3a"/><stop offset=".8" stop-color="#616161"/><stop offset=".8" stop-color="#969696"/><stop offset=".9" stop-color="#cbcbcb"/><stop offset=".9" stop-color="#e0e0e0"/><stop offset=".9" stop-color="#f1f1f1"/><stop offset="1" stop-color="#fcfcfc"/><stop offset="1" stop-color="#fff"/></linearGradient><linearGradient id="aD" x1="20.7" y1="55.1" x2="20.7" y2="22.5" gradientUnits="userSpaceOnUse"><stop offset="0" stop-color="#fff"/><stop offset=".1" stop-color="#fdfdfd"/><stop offset=".2" stop-color="#f5f5f5"/><stop offset=".3" stop-color="#e8e8e8"/><stop offset=".3" stop-color="#d5d5d5"/><stop offset=".4" stop-color="#bdbdbd"/><stop offset=".4" stop-color="#9f9f9f"/><stop offset=".4" stop-color="#7b7b7b"/><stop offset=".5" stop-color="#525252"/><stop offset=".5" stop-color="#242424"/><stop offset=".5" stop-color="#1a1a1a"/><stop offset=".6" stop-color="#232323"/><stop offset=".6" stop-color="#3a3a3a"/><stop offset=".7" stop-color="#616161"/><stop offset=".8" stop-color="#979797"/><stop offset=".9" stop-color="#dbdbdb"/><stop offset="1" stop-color="#fff"/></linearGradient><linearGradient id="P" x1="6.8" y1="38.7" x2="34.6" y2="38.7" gradientUnits="userSpaceOnUse"><stop offset="0" stop-color="#fff"/><stop offset=".1" stop-color="#fcfcfc"/><stop offset=".3" stop-color="#f1f1f1"/><stop offset=".4" stop-color="#dfdfdf"/><stop offset=".5" stop-color="#cbcbcb"/><stop offset=".9" stop-color="#1a1a1a"/></linearGradient><linearGradient id="U" x1="7.6" y1="39" x2="18.3" y2="28.3" gradientUnits="userSpaceOnUse"><stop offset="0" stop-color="gray"/><stop offset=".2" stop-color="#eaeaea"/><stop offset=".4" stop-color="#1a1a1a"/><stop offset=".4" stop-color="#393939"/><stop offset=".4" stop-color="#626262"/><stop offset=".5" stop-color="#888"/><stop offset=".5" stop-color="#a8a8a8"/><stop offset=".5" stop-color="#c4c4c4"/><stop offset=".6" stop-color="#dadada"/><stop offset=".6" stop-color="#eaeaea"/><stop offset=".7" stop-color="#f6f6f6"/><stop offset=".8" stop-color="#fdfdfd"/><stop offset="1" stop-color="#fff"/></linearGradient><linearGradient id="V" x1="7.4" y1="36.1" x2="8.6" y2="35" gradientUnits="userSpaceOnUse"><stop offset="0" stop-color="#eaeaea"/><stop offset=".6" stop-color="#1a1a1a"/><stop offset="1" stop-color="#fff"/></linearGradient><linearGradient id="u" x1="6.8" y1="40.2" x2="8.2" y2="40.2" gradientUnits="userSpaceOnUse"><stop offset="0" stop-color="gray"/><stop offset=".4" stop-color="#1a1a1a"/><stop offset=".4" stop-color="#393939"/><stop offset=".4" stop-color="#626262"/><stop offset=".5" stop-color="#888"/><stop offset=".5" stop-color="#a8a8a8"/><stop offset=".5" stop-color="#c4c4c4"/><stop offset=".6" stop-color="#dadada"/><stop offset=".6" stop-color="#eaeaea"/><stop offset=".7" stop-color="#f6f6f6"/><stop offset=".8" stop-color="#fdfdfd"/><stop offset="1" stop-color="#fff"/></linearGradient><linearGradient id="aE" x1="6.9" y1="35.2" x2="6.9" y2="35.2" xlink:href="#u"/><linearGradient id="au" x1="14" y1="37.7" x2="14" y2="26.1" gradientUnits="userSpaceOnUse"><stop offset=".1" stop-color="#1a1a1a"/><stop offset=".1" stop-color="#292929"/><stop offset=".2" stop-color="#949494"/><stop offset=".2" stop-color="#d7d7d7"/><stop offset=".2" stop-color="#f1f1f1"/><stop offset=".6" stop-color="#1a1a1a"/><stop offset=".6" stop-color="#393939"/><stop offset=".6" stop-color="#626262"/><stop offset=".7" stop-color="#888"/><stop offset=".7" stop-color="#a8a8a8"/><stop offset=".7" stop-color="#c4c4c4"/><stop offset=".7" stop-color="#dadada"/><stop offset=".8" stop-color="#eaeaea"/><stop offset=".8" stop-color="#f6f6f6"/><stop offset=".8" stop-color="#fdfdfd"/><stop offset="1" stop-color="#fff"/></linearGradient><linearGradient id="ay" x1="14.1" y1="34.9" x2="14.1" y2="26.1" gradientUnits="userSpaceOnUse"><stop offset="0" stop-color="#fff"/><stop offset=".7" stop-color="#1a1a1a"/><stop offset=".8" stop-color="#555"/><stop offset=".8" stop-color="#888"/><stop offset=".9" stop-color="#b3b3b3"/><stop offset=".9" stop-color="#d4d4d4"/><stop offset=".9" stop-color="#ececec"/><stop offset="1" stop-color="#fafafa"/><stop offset="1" stop-color="#fff"/></linearGradient><linearGradient id="C" x1="12" y1="42.3" x2="12" y2="42.1" gradientUnits="userSpaceOnUse"><stop offset="0" stop-color="gray"/><stop offset=".3" stop-color="#1a1a1a"/><stop offset=".3" stop-color="#383838"/><stop offset=".5" stop-color="#737373"/><stop offset=".6" stop-color="#a5a5a5"/><stop offset=".7" stop-color="#ccc"/><stop offset=".8" stop-color="#e8e8e8"/><stop offset=".9" stop-color="#f9f9f9"/><stop offset="1" stop-color="#fff"/></linearGradient><linearGradient id="aI" x1="12" y1="42.1" x2="12" y2="41.8" xlink:href="#C"/><linearGradient id="aK" x1="11.9" y1="41.8" x2="11.9" y2="41.4" xlink:href="#C"/><linearGradient id="aM" x1="11.8" y1="41.3" x2="11.8" y2="40.8" xlink:href="#C"/><linearGradient id="aO" x1="10.5" y1="45.8" x2="10.5" y2="35.7" xlink:href="#C"/><linearGradient id="O" x1="8.2" y1="45.1" x2="8.2" y2="45.1" gradientUnits="userSpaceOnUse"><stop offset="0" stop-color="gray"/><stop offset=".2" stop-color="#1a1a1a"/><stop offset=".3" stop-color="#4d4d4d"/><stop offset=".4" stop-color="#4d4d4d"/><stop offset=".4" stop-color="#545454"/><stop offset=".5" stop-color="#888"/><stop offset=".6" stop-color="#b3b3b3"/><stop offset=".7" stop-color="#d4d4d4"/><stop offset=".8" stop-color="#ececec"/><stop offset=".9" stop-color="#fafafa"/><stop offset="1" stop-color="#fff"/></linearGradient><linearGradient id="aQ" x1="8.1" y1="45" x2="8.1" y2="45" xlink:href="#O"/><linearGradient id="aR" x1="7.4" y1="43.4" x2="7.4" y2="43.4" xlink:href="#O"/><linearGradient id="aS" x1="8.1" y1="45.1" x2="8.1" y2="45.1" xlink:href="#O"/><linearGradient id="aT" x1="12.7" y1="45.4" x2="12.7" y2="45.3" xlink:href="#O"/><linearGradient id="aU" x1="8.1" y1="45.2" x2="11.5" y2="37.8" xlink:href="#O"/><linearGradient id="aV" x1="12.6" y1="45.6" x2="12.7" y2="45.6" xlink:href="#O"/><linearGradient id="aW" x1="8.2" y1="45.1" x2="8.2" y2="45.1" xlink:href="#O"/><linearGradient id="aX" x1="12.7" y1="45.5" x2="12.7" y2="45.5" xlink:href="#O"/><linearGradient id="aY" x1="12.7" y1="45.5" x2="12.7" y2="45.4" xlink:href="#O"/><linearGradient id="aZ" x1="8.2" y1="45.2" x2="8.2" y2="45.2" xlink:href="#O"/><linearGradient id="ba" x1="16.4" y1="40.5" x2="18.4" y2="40.5" xlink:href="#P"/><linearGradient id="al" x1="17.9" y1="40.7" x2="19.3" y2="42.2" gradientUnits="userSpaceOnUse"><stop offset="0" stop-color="#1a1a1a"/><stop offset=".6" stop-color="#fff"/><stop offset=".7" stop-color="#fcfcfc"/><stop offset=".7" stop-color="#f1f1f1"/><stop offset=".8" stop-color="#dfdfdf"/><stop offset=".8" stop-color="#c5c5c5"/><stop offset=".9" stop-color="#a4a4a4"/><stop offset=".9" stop-color="#7c7c7c"/><stop offset="1" stop-color="#4d4d4d"/><stop offset="1" stop-color="#1a1a1a"/></linearGradient><linearGradient id="am" x1="15" y1="40.2" x2="18.8" y2="40.2" gradientUnits="userSpaceOnUse"><stop offset="0" stop-color="#1a1a1a"/><stop offset=".1" stop-color="#fff"/><stop offset=".2" stop-color="#fcfcfc"/><stop offset=".2" stop-color="#f1f1f1"/><stop offset=".3" stop-color="#dfdfdf"/><stop offset=".3" stop-color="#cbcbcb"/><stop offset=".4" stop-color="#1a1a1a"/></linearGradient><linearGradient id="an" x1="13.6" y1="38" x2="15.4" y2="38" gradientUnits="userSpaceOnUse"><stop offset="0" stop-color="#f1f1f1"/><stop offset=".6" stop-color="#1a1a1a"/><stop offset=".6" stop-color="#393939"/><stop offset=".6" stop-color="#626262"/><stop offset=".7" stop-color="#888"/><stop offset=".7" stop-color="#a8a8a8"/><stop offset=".7" stop-color="#c4c4c4"/><stop offset=".7" stop-color="#dadada"/><stop offset=".8" stop-color="#eaeaea"/><stop offset=".8" stop-color="#f6f6f6"/><stop offset=".8" stop-color="#fdfdfd"/><stop offset="1" stop-color="#fff"/></linearGradient><linearGradient id="bc" x1="15.4" y1="42" x2="16.9" y2="42" gradientUnits="userSpaceOnUse"><stop offset="0" stop-color="#222"/><stop offset=".5" stop-color="#cbcbcb"/><stop offset="1" stop-color="#1a1a1a"/></linearGradient><linearGradient id="T" x1="16.7" y1="44.6" x2="18.9" y2="44.6" gradientUnits="userSpaceOnUse"><stop offset="0" stop-color="#1a1a1a"/><stop offset="1" stop-color="#cbcbcb"/></linearGradient><linearGradient id="bd" x1="18.2" y1="47.2" x2="19.5" y2="47.2" xlink:href="#T"/><linearGradient id="be" x1="6478.7" y1="39" x2="6489.4" y2="28.3" gradientTransform="matrix(-1 0 0 1 6512.4 0)" xlink:href="#U"/><linearGradient id="bf" x1="6478.5" y1="36.1" x2="6479.6" y2="35" gradientTransform="matrix(-1 0 0 1 6512.4 0)" xlink:href="#V"/><linearGradient id="bg" x1="6477.9" y1="40.2" x2="6479.3" y2="40.2" gradientTransform="matrix(-1 0 0 1 6512.4 0)" xlink:href="#u"/><linearGradient id="bh" x1="6477.9" y1="35.2" x2="6478" y2="35.2" gradientTransform="matrix(-1 0 0 1 6512.4 0)" xlink:href="#u"/><linearGradient id="bi" x1="6483.1" y1="42.3" x2="6483.1" y2="42.1" gradientTransform="matrix(-1 0 0 1 6512.4 0)" xlink:href="#C"/><linearGradient id="bk" x1="6483" y1="42.1" x2="6483" y2="41.8" gradientTransform="matrix(-1 0 0 1 6512.4 0)" xlink:href="#C"/><linearGradient id="bm" x1="6483" y1="41.8" x2="6483" y2="41.4" gradientTransform="matrix(-1 0 0 1 6512.4 0)" xlink:href="#C"/><linearGradient id="bo" x1="6482.9" y1="41.3" x2="6482.9" y2="40.8" gradientTransform="matrix(-1 0 0 1 6512.4 0)" xlink:href="#C"/><linearGradient id="bq" x1="6481.6" y1="45.8" x2="6481.6" y2="35.7" gradientTransform="matrix(-1 0 0 1 6512.4 0)" xlink:href="#C"/><linearGradient id="bs" x1="6479.3" y1="45.1" x2="6479.3" y2="45.1" gradientTransform="matrix(-1 0 0 1 6512.4 0)" xlink:href="#O"/><linearGradient id="bt" x1="6479.1" y1="45" x2="6479.1" y2="45" gradientTransform="matrix(-1 0 0 1 6512.4 0)" xlink:href="#O"/><linearGradient id="bu" x1="6478.5" y1="43.4" x2="6478.5" y2="43.4" gradientTransform="matrix(-1 0 0 1 6512.4 0)" xlink:href="#O"/><linearGradient id="bv" x1="6479.2" y1="45.1" x2="6479.2" y2="45.1" gradientTransform="matrix(-1 0 0 1 6512.4 0)" xlink:href="#O"/><linearGradient id="bw" x1="6483.8" y1="45.4" x2="6483.8" y2="45.3" gradientTransform="matrix(-1 0 0 1 6512.4 0)" xlink:href="#O"/><linearGradient id="bx" x1="6479.1" y1="45.2" x2="6482.6" y2="37.8" gradientTransform="matrix(-1 0 0 1 6512.4 0)" xlink:href="#O"/><linearGradient id="by" x1="6483.7" y1="45.6" x2="6483.8" y2="45.6" gradientTransform="matrix(-1 0 0 1 6512.4 0)" xlink:href="#O"/><linearGradient id="bz" x1="6479.2" y1="45.1" x2="6479.2" y2="45.1" gradientTransform="matrix(-1 0 0 1 6512.4 0)" xlink:href="#O"/><linearGradient id="bA" x1="6483.7" y1="45.5" x2="6483.8" y2="45.5" gradientTransform="matrix(-1 0 0 1 6512.4 0)" xlink:href="#O"/><linearGradient id="bB" x1="6483.8" y1="45.5" x2="6483.8" y2="45.4" gradientTransform="matrix(-1 0 0 1 6512.4 0)" xlink:href="#O"/><linearGradient id="bC" x1="6479.3" y1="45.2" x2="6479.3" y2="45.2" gradientTransform="matrix(-1 0 0 1 6512.4 0)" xlink:href="#O"/><linearGradient id="bD" x1="20.7" y1="49.4" x2="20.7" y2="33.4" gradientUnits="userSpaceOnUse"><stop offset="0" stop-color="#1a1a1a"/><stop offset=".1" stop-color="#fff"/><stop offset=".3" stop-color="#fcfcfc"/><stop offset=".4" stop-color="#f1f1f1"/><stop offset=".5" stop-color="#dfdfdf"/><stop offset=".6" stop-color="#c5c5c5"/><stop offset=".7" stop-color="#a4a4a4"/><stop offset=".7" stop-color="#7d7d7d"/><stop offset=".8" stop-color="#4e4e4e"/><stop offset=".8" stop-color="#4d4d4d"/><stop offset=".8" stop-color="#3f3f3f"/><stop offset=".9" stop-color="#2e2e2e"/><stop offset=".9" stop-color="#232323"/><stop offset=".9" stop-color="#1c1c1c"/><stop offset="1" stop-color="#1a1a1a"/></linearGradient><linearGradient id="bE" x1="6487.5" y1="40.5" x2="6489.5" y2="40.5" gradientTransform="matrix(-1 0 0 1 6512.4 0)" xlink:href="#P"/><linearGradient id="bF" x1="6488.9" y1="40.7" x2="6490.4" y2="42.2" gradientTransform="matrix(-1 0 0 1 6512.4 0)" xlink:href="#al"/><linearGradient id="bG" x1="6486.1" y1="40.2" x2="6489.9" y2="40.2" gradientTransform="matrix(-1 0 0 1 6512.4 0)" xlink:href="#am"/><linearGradient id="bH" x1="6484.7" y1="38" x2="6486.4" y2="38" gradientTransform="matrix(-1 0 0 1 6512.4 0)" xlink:href="#an"/><linearGradient id="bJ" x1="6486.4" y1="42" x2="6488" y2="42" gradientTransform="matrix(-1 0 0 1 6512.4 0)" gradientUnits="userSpaceOnUse"><stop offset="0" stop-color="#1a1a1a"/><stop offset=".5" stop-color="#cbcbcb"/><stop offset="1" stop-color="#1a1a1a"/></linearGradient><linearGradient id="bK" x1="6487.8" y1="44.6" x2="6490" y2="44.6" gradientTransform="matrix(-1 0 0 1 6512.4 0)" xlink:href="#T"/><linearGradient id="bL" x1="6489.3" y1="47.2" x2="6490.6" y2="47.2" gradientTransform="matrix(-1 0 0 1 6512.4 0)" xlink:href="#T"/><linearGradient id="bM" x1="19" y1="50" x2="22.4" y2="50" gradientUnits="userSpaceOnUse"><stop offset="0" stop-color="#1a1a1a"/><stop offset=".3" stop-color="#fff"/><stop offset=".4" stop-color="#fcfcfc"/><stop offset=".5" stop-color="#f1f1f1"/><stop offset=".6" stop-color="#dfdfdf"/><stop offset=".7" stop-color="#c5c5c5"/><stop offset=".8" stop-color="#a5a5a5"/><stop offset=".8" stop-color="#989898"/></linearGradient><linearGradient id="bN" x1="5.4" y1="38.8" x2="36" y2="38.8" gradientUnits="userSpaceOnUse"><stop offset="0" stop-color="#fff"/><stop offset="0" stop-color="#b0b0b0"/><stop offset=".1" stop-color="#1a1a1a"/><stop offset=".1" stop-color="#232323"/><stop offset=".2" stop-color="#3a3a3a"/><stop offset=".3" stop-color="#616161"/><stop offset=".3" stop-color="#969696"/><stop offset=".3" stop-color="#989898"/><stop offset=".3" stop-color="#9b9b9b"/><stop offset=".3" stop-color="#a3a3a3"/><stop offset=".4" stop-color="#b1b1b1"/><stop offset=".4" stop-color="#c5c5c5"/><stop offset=".4" stop-color="#dfdfdf"/><stop offset=".4" stop-color="#fff"/><stop offset=".4" stop-color="#fdfdfd"/><stop offset=".4" stop-color="#f5f5f5"/><stop offset=".4" stop-color="#e8e8e8"/><stop offset=".4" stop-color="#d5d5d5"/><stop offset=".5" stop-color="#bdbdbd"/><stop offset=".5" stop-color="#9f9f9f"/><stop offset=".5" stop-color="#989898"/><stop offset=".5" stop-color="#959595"/><stop offset=".5" stop-color="#8d8d8d"/><stop offset=".5" stop-color="#7f7f7f"/><stop offset=".5" stop-color="#6b6b6b"/><stop offset=".5" stop-color="#515151"/><stop offset=".5" stop-color="#313131"/><stop offset=".5" stop-color="#1a1a1a"/><stop offset=".9" stop-color="#1a1a1a"/><stop offset=".9" stop-color="#232323"/><stop offset=".9" stop-color="#3a3a3a"/><stop offset=".9" stop-color="#616161"/><stop offset=".9" stop-color="#979797"/><stop offset="1" stop-color="#dbdbdb"/><stop offset="1" stop-color="#fff"/></linearGradient><linearGradient id="bP" x1="20.7" y1="56" x2="20.7" y2="21.6" gradientUnits="userSpaceOnUse"><stop offset="0" stop-color="#1a1a1a"/><stop offset="0" stop-color="#232323"/><stop offset=".1" stop-color="#3a3a3a"/><stop offset=".1" stop-color="#616161"/><stop offset=".2" stop-color="#979797"/><stop offset=".3" stop-color="#dbdbdb"/><stop offset=".3" stop-color="#fff"/><stop offset=".4" stop-color="#fdfdfd"/><stop offset=".5" stop-color="#f5f5f5"/><stop offset=".5" stop-color="#e8e8e8"/><stop offset=".5" stop-color="#d5d5d5"/><stop offset=".6" stop-color="#bdbdbd"/><stop offset=".6" stop-color="#9f9f9f"/><stop offset=".6" stop-color="#7b7b7b"/><stop offset=".7" stop-color="#525252"/><stop offset=".7" stop-color="#242424"/><stop offset=".7" stop-color="#1a1a1a"/><stop offset=".7" stop-color="#232323"/><stop offset=".8" stop-color="#3a3a3a"/><stop offset=".8" stop-color="#616161"/><stop offset=".9" stop-color="#979797"/><stop offset="1" stop-color="#dbdbdb"/><stop offset="1" stop-color="#fff"/></linearGradient><linearGradient id="bQ" x1="5938.4" y1="37.7" x2="5938.4" y2="26.1" gradientTransform="matrix(-1 0 0 1 5965.8 0)" xlink:href="#au"/><linearGradient id="bS" x1="6485.2" y1="34.9" x2="6485.2" y2="26.1" gradientTransform="matrix(-1 0 0 1 6512.4 0)" xlink:href="#ay"/><filter id="a" x="7.4" y="-7673.8" width="13.2" height="32766" filterUnits="userSpaceOnUse" color-interpolation-filters="sRGB"><feFlood flood-color="#fff" result="bg"/><feBlend in="SourceGraphic" in2="bg"/></filter><filter id="b" x="11.7" y="-7673.8" width=".1" height="32766" filterUnits="userSpaceOnUse" color-interpolation-filters="sRGB"><feFlood flood-color="#fff" result="bg"/><feBlend in="SourceGraphic" in2="bg"/></filter><filter id="c" x="8.4" y="-7673.8" width="4.3" height="32766" filterUnits="userSpaceOnUse" color-interpolation-filters="sRGB"><feFlood flood-color="#fff" result="bg"/><feBlend in="SourceGraphic" in2="bg"/></filter><filter id="e" x="13.5" y="-7673.8" width="1.9" height="32766" filterUnits="userSpaceOnUse" color-interpolation-filters="sRGB"><feFlood flood-color="#fff" result="bg"/><feBlend in="SourceGraphic" in2="bg"/></filter><filter id="g" x="29.4" y="-7673.8" width="0" height="32766" filterUnits="userSpaceOnUse" color-interpolation-filters="sRGB"><feFlood flood-color="#fff" result="bg"/><feBlend in="SourceGraphic" in2="bg"/></filter><filter id="h" x="29.4" y="-7673.8" width=".1" height="32766" filterUnits="userSpaceOnUse" color-interpolation-filters="sRGB"><feFlood flood-color="#fff" result="bg"/><feBlend in="SourceGraphic" in2="bg"/></filter><filter id="i" x="7.7" y="-7673.8" width="12.9" height="32766" filterUnits="userSpaceOnUse" color-interpolation-filters="sRGB"><feFlood flood-color="#fff" result="bg"/><feBlend in="SourceGraphic" in2="bg"/></filter><filter id="j" x="29.4" y="-7673.8" width=".1" height="32766" filterUnits="userSpaceOnUse" color-interpolation-filters="sRGB"><feFlood flood-color="#fff" result="bg"/><feBlend in="SourceGraphic" in2="bg"/></filter><filter id="k" x="29.6" y="-7673.8" width=".1" height="32766" filterUnits="userSpaceOnUse" color-interpolation-filters="sRGB"><feFlood flood-color="#fff" result="bg"/><feBlend in="SourceGraphic" in2="bg"/></filter><filter id="l" x="28.7" y="-7673.8" width="4.3" height="32766" filterUnits="userSpaceOnUse" color-interpolation-filters="sRGB"><feFlood flood-color="#fff" result="bg"/><feBlend in="SourceGraphic" in2="bg"/></filter><filter id="m" x="25.9" y="-7673.8" width="1.9" height="32766" filterUnits="userSpaceOnUse" color-interpolation-filters="sRGB"><feFlood flood-color="#fff" result="bg"/><feBlend in="SourceGraphic" in2="bg"/></filter><filter id="n" x="5.3" y="-7673.8" width="30.7" height="32766" filterUnits="userSpaceOnUse" color-interpolation-filters="sRGB"><feFlood flood-color="#fff" result="bg"/><feBlend in="SourceGraphic" in2="bg"/></filter><filter id="o" x="20.8" y="-7673.8" width="13.2" height="32766" filterUnits="userSpaceOnUse" color-interpolation-filters="sRGB"><feFlood flood-color="#fff" result="bg"/><feBlend in="SourceGraphic" in2="bg"/></filter><filter id="p" x="20.8" y="-7673.8" width="12.9" height="32766" filterUnits="userSpaceOnUse" color-interpolation-filters="sRGB"><feFlood flood-color="#fff" result="bg"/><feBlend in="SourceGraphic" in2="bg"/></filter><filter id="r" x="12" y="-7673.8" width="0" height="32766" filterUnits="userSpaceOnUse" color-interpolation-filters="sRGB"><feFlood flood-color="#fff" result="bg"/><feBlend in="SourceGraphic" in2="bg"/></filter><filter id="s" x="11.9" y="-7673.8" width=".1" height="32766" filterUnits="userSpaceOnUse" color-interpolation-filters="sRGB"><feFlood flood-color="#fff" result="bg"/><feBlend in="SourceGraphic" in2="bg"/></filter><filter id="t" x="11.8" y="-7673.8" width=".1" height="32766" filterUnits="userSpaceOnUse" color-interpolation-filters="sRGB"><feFlood flood-color="#fff" result="bg"/><feBlend in="SourceGraphic" in2="bg"/></filter><filter id="w" x="7.4" y="26" width="13.2" height="11.8" filterUnits="userSpaceOnUse" color-interpolation-filters="sRGB"><feFlood flood-color="#fff" result="bg"/><feBlend in="SourceGraphic" in2="bg"/></filter><filter id="y" x="7.7" y="26.1" width="12.9" height="8.8" filterUnits="userSpaceOnUse" color-interpolation-filters="sRGB"><feFlood flood-color="#fff" result="bg"/><feBlend in="SourceGraphic" in2="bg"/></filter><filter id="A" x="12" y="42.1" width="0" height=".1" filterUnits="userSpaceOnUse" color-interpolation-filters="sRGB"><feFlood flood-color="#fff" result="bg"/><feBlend in="SourceGraphic" in2="bg"/></filter><filter id="E" x="11.9" y="41.8" width=".1" height=".4" filterUnits="userSpaceOnUse" color-interpolation-filters="sRGB"><feFlood flood-color="#fff" result="bg"/><feBlend in="SourceGraphic" in2="bg"/></filter><filter id="H" x="11.8" y="41.4" width=".1" height=".4" filterUnits="userSpaceOnUse" color-interpolation-filters="sRGB"><feFlood flood-color="#fff" result="bg"/><feBlend in="SourceGraphic" in2="bg"/></filter><filter id="K" x="11.7" y="40.8" width=".1" height=".6" filterUnits="userSpaceOnUse" color-interpolation-filters="sRGB"><feFlood flood-color="#fff" result="bg"/><feBlend in="SourceGraphic" in2="bg"/></filter><filter id="M" x="8.4" y="35.7" width="4.3" height="10.1" filterUnits="userSpaceOnUse" color-interpolation-filters="sRGB"><feFlood flood-color="#fff" result="bg"/><feBlend in="SourceGraphic" in2="bg"/></filter><filter id="R" x="13.5" y="35.9" width="1.9" height="4.3" filterUnits="userSpaceOnUse" color-interpolation-filters="sRGB"><feFlood flood-color="#fff" result="bg"/><feBlend in="SourceGraphic" in2="bg"/></filter><filter id="X" x="29.4" y="42.1" width="0" height=".1" filterUnits="userSpaceOnUse" color-interpolation-filters="sRGB"><feFlood flood-color="#fff" result="bg"/><feBlend in="SourceGraphic" in2="bg"/></filter><filter id="aa" x="29.4" y="41.8" width=".1" height=".4" filterUnits="userSpaceOnUse" color-interpolation-filters="sRGB"><feFlood flood-color="#fff" result="bg"/><feBlend in="SourceGraphic" in2="bg"/></filter><filter id="ad" x="29.4" y="41.4" width=".1" height=".4" filterUnits="userSpaceOnUse" color-interpolation-filters="sRGB"><feFlood flood-color="#fff" result="bg"/><feBlend in="SourceGraphic" in2="bg"/></filter><filter id="ag" x="29.6" y="40.8" width=".1" height=".6" filterUnits="userSpaceOnUse" color-interpolation-filters="sRGB"><feFlood flood-color="#fff" result="bg"/><feBlend in="SourceGraphic" in2="bg"/></filter><filter id="aj" x="28.7" y="35.7" width="4.3" height="10.1" filterUnits="userSpaceOnUse" color-interpolation-filters="sRGB"><feFlood flood-color="#fff" result="bg"/><feBlend in="SourceGraphic" in2="bg"/></filter><filter id="ap" x="25.9" y="35.9" width="1.9" height="4.3" filterUnits="userSpaceOnUse" color-interpolation-filters="sRGB"><feFlood flood-color="#fff" result="bg"/><feBlend in="SourceGraphic" in2="bg"/></filter><filter id="as" x="5.3" y="21.6" width="30.7" height="34.4" filterUnits="userSpaceOnUse" color-interpolation-filters="sRGB"><feFlood flood-color="#fff" result="bg"/><feBlend in="SourceGraphic" in2="bg"/></filter><filter id="aw" x="20.8" y="26" width="13.2" height="11.8" filterUnits="userSpaceOnUse" color-interpolation-filters="sRGB"><feFlood flood-color="#fff" result="bg"/><feBlend in="SourceGraphic" in2="bg"/></filter><filter id="aA" x="20.8" y="26.1" width="12.9" height="8.8" filterUnits="userSpaceOnUse" color-interpolation-filters="sRGB"><feFlood flood-color="#fff" result="bg"/><feBlend in="SourceGraphic" in2="bg"/></filter><mask id="v" x="7.4" y="-7673.8" width="13.2" height="32766" maskUnits="userSpaceOnUse"><g filter="url(#a)"/></mask><mask id="J" x="11.7" y="-7673.8" width=".1" height="32766" maskUnits="userSpaceOnUse"><g filter="url(#b)"/></mask><mask id="L" x="8.4" y="-7673.8" width="4.3" height="32766" maskUnits="userSpaceOnUse"><g filter="url(#c)"/></mask><mask id="Q" x="13.5" y="-7673.8" width="1.9" height="32766" maskUnits="userSpaceOnUse"><g filter="url(#e)"/></mask><mask id="W" x="29.4" y="-7673.8" width="0" height="32766" maskUnits="userSpaceOnUse"><g filter="url(#g)"/></mask><mask id="Z" x="29.4" y="-7673.8" width=".1" height="32766" maskUnits="userSpaceOnUse"><g filter="url(#h)"/></mask><mask id="x" x="7.7" y="-7673.8" width="12.9" height="32766" maskUnits="userSpaceOnUse"><g filter="url(#i)"/></mask><mask id="ac" x="29.4" y="-7673.8" width=".1" height="32766" maskUnits="userSpaceOnUse"><g filter="url(#j)"/></mask><mask id="af" x="29.6" y="-7673.8" width=".1" height="32766" maskUnits="userSpaceOnUse"><g filter="url(#k)"/></mask><mask id="ai" x="28.7" y="-7673.8" width="4.3" height="32766" maskUnits="userSpaceOnUse"><g filter="url(#l)"/></mask><mask id="ao" x="25.9" y="-7673.8" width="1.9" height="32766" maskUnits="userSpaceOnUse"><g filter="url(#m)"/></mask><mask id="ar" x="5.3" y="-7673.8" width="30.7" height="32766" maskUnits="userSpaceOnUse"><g filter="url(#n)"/></mask><mask id="av" x="20.8" y="-7673.8" width="13.2" height="32766" maskUnits="userSpaceOnUse"><g filter="url(#o)"/></mask><mask id="az" x="20.8" y="-7673.8" width="12.9" height="32766" maskUnits="userSpaceOnUse"><g filter="url(#p)"/></mask><mask id="z" x="12" y="-7673.8" width="0" height="32766" maskUnits="userSpaceOnUse"><g filter="url(#r)"/></mask><mask id="D" x="11.9" y="-7673.8" width=".1" height="32766" maskUnits="userSpaceOnUse"><g filter="url(#s)"/></mask><mask id="G" x="11.8" y="-7673.8" width=".1" height="32766" maskUnits="userSpaceOnUse"><g filter="url(#t)"/></mask><mask id="aF" x="7.4" y="26" width="13.2" height="11.8" maskUnits="userSpaceOnUse"><g mask="url(#v)" filter="url(#w)"><path d="M16 37.8v-.3c-1.1-2.4-2.7-5.7-5.5-6-1.3 0-2.3 1.5-2.5 4-.1 0-.2 0-.4-.3s0 0 .1-.1c.2-4.5 2.4-9 6.1-9.2h.2c3.2 0 5.4 3.2 6 4.3l.1.9.3 1.3a1.3 1.3 0 0 0 .1.2.6.6 0 0 1 .1.7 9 9 0 0 1-1.6 2.1l-.8.7a11.9 11.9 0 0 1-2 1.6Zm-5.6-6.4c3 .2 4.5 3.6 5.7 6v.2a13 13 0 0 0 1.9-1.5l.8-.7a9.4 9.4 0 0 0 1.5-2c.2-.3.1-.4 0-.6a2 2 0 0 1-.2-.3l-.3-1.3v-.9c-.7-1-3-4.3-6.1-4.2-3.7.2-5.8 4.7-6 9a.3.3 0 0 1-.1.2.4.4 0 0 0 .2.1c.2-2.4 1.2-4 2.6-4Z" style="mix-blend-mode:multiply" fill="url(#f)"/></g></mask><mask id="aG" x="7.7" y="26.1" width="12.9" height="8.8" maskUnits="userSpaceOnUse"><g mask="url(#x)" filter="url(#y)"><path d="M13.8 26.2c3.2 0 5.4 3.3 6.3 4.8l.2.2a.8.8 0 0 1 .1.5 9.3 9.3 0 0 0 0 1.3c-2.3-4.1-4.7-6.3-7.1-6.4H13c-2.5 0-4.1 3.2-5 6A11.5 11.5 0 0 1 9.6 29a5 5 0 0 1 4-2.7h.2m0-.1h-.1c-3.5 0-5.7 4.2-6 8.8 1.3-6.1 3.5-8.2 5.4-8.2h.2c3.7.3 6.5 5.5 7.1 6.7a8.5 8.5 0 0 1 .1-1.7 1 1 0 0 0 0-.5c-1-1.3-3.2-5.1-6.7-5.1Z" style="mix-blend-mode:multiply" fill="url(#q)"/></g></mask><mask id="aH" x="12" y="42.1" width="0" height=".1" maskUnits="userSpaceOnUse"><g mask="url(#z)" filter="url(#A)"><path d="M12 42.1a.7.7 0 0 0 0 .2.5.5 0 0 1 0-.1Z" style="mix-blend-mode:multiply" fill="url(#B)"/></g></mask><mask id="aJ" x="11.9" y="41.8" width=".1" height=".4" maskUnits="userSpaceOnUse"><g mask="url(#D)" filter="url(#E)"><path d="M12 41.8v.4-.4Z" style="mix-blend-mode:multiply" fill="url(#F)"/></g></mask><mask id="aL" x="11.8" y="41.4" width=".1" height=".4" maskUnits="userSpaceOnUse"><g mask="url(#G)" filter="url(#H)"><path d="m11.8 41.4.1.4v-.4Zm.1.4Z" style="mix-blend-mode:multiply" fill="url(#I)"/></g></mask><mask id="aN" x="11.7" y="40.8" width=".1" height=".6" maskUnits="userSpaceOnUse"><g mask="url(#J)" filter="url(#K)"><path d="m11.7 40.8.1.5v-.5Z" style="mix-blend-mode:multiply" fill="url(#d)"/></g></mask><mask id="aP" x="8.4" y="35.7" width="4.3" height="10.1" maskUnits="userSpaceOnUse"><g mask="url(#L)" filter="url(#M)"><path d="M9.3 35.9a2.8 2.8 0 0 1 .1.5 7.8 7.8 0 0 0 .2.8l.2.6a52.3 52.3 0 0 0 1.6 5l.5.5a.2.2 0 0 0 .2 0l.3 1.3a.4.4 0 0 0 0 .1 1.4 1.4 0 0 1 .1.8 4 4 0 0 1-.6-.7l-.2-.4a19.4 19.4 0 0 1-2.5-4.6 15 15 0 0 1-.7-3.4l.8-.5m0-.2-.9.6A14.2 14.2 0 0 0 9 40a22.8 22.8 0 0 0 2.7 5 3.8 3.8 0 0 0 .8.8 1.4 1.4 0 0 0 0-1l-.5-2.3-.1.8-.4-.5c-.5-1-1.5-4.5-1.8-5.6-.3-.8-.3-1.3-.5-1.4Z" style="mix-blend-mode:multiply" fill="url(#N)"/></g></mask><mask id="bb" x="13.5" y="35.9" width="1.9" height="4.3" maskUnits="userSpaceOnUse"><g mask="url(#Q)" filter="url(#R)"><path d="M15.4 40.1a3 3 0 0 1-1.8-2.3 7.5 7.5 0 0 1 0-1V36s.6 0 1.5 2Zm-1.7-4v.8a7.8 7.8 0 0 0 0 .8c0 .4 0 1.3 1.5 2.2l-.3-2a4.8 4.8 0 0 0-1.2-1.8Z" style="mix-blend-mode:multiply" fill="url(#S)"/></g></mask><mask id="bj" x="29.4" y="42.1" width="0" height=".1" maskUnits="userSpaceOnUse"><g mask="url(#W)" filter="url(#X)"><path d="M29.4 42.1a.7.7 0 0 0 0 .2v-.1Z" style="mix-blend-mode:multiply" fill="url(#Y)"/></g></mask><mask id="bl" x="29.4" y="41.8" width=".1" height=".4" maskUnits="userSpaceOnUse"><g mask="url(#Z)" filter="url(#aa)"><path d="M29.4 41.8v.4-.4Z" style="mix-blend-mode:multiply" fill="url(#ab)"/></g></mask><mask id="bn" x="29.4" y="41.4" width=".1" height=".4" maskUnits="userSpaceOnUse"><g mask="url(#ac)" filter="url(#ad)"><path d="M29.5 41.4v.4-.4Zm0 .4Z" style="mix-blend-mode:multiply" fill="url(#ae)"/></g></mask><mask id="bp" x="29.6" y="40.8" width=".1" height=".6" maskUnits="userSpaceOnUse"><g mask="url(#af)" filter="url(#ag)"><path d="m29.7 40.8-.1.5v-.5Z" style="mix-blend-mode:multiply" fill="url(#ah)"/></g></mask><mask id="br" x="28.7" y="35.7" width="4.3" height="10.1" maskUnits="userSpaceOnUse"><g mask="url(#ai)" filter="url(#aj)"><path d="m32.1 35.9.7.5a15 15 0 0 1-.7 3.4 19.4 19.4 0 0 1-2.4 4.6l-.3.4a3.6 3.6 0 0 1-.6.7 1.5 1.5 0 0 1 .1-.8l.4-1.5a.2.2 0 0 0 .1 0c.2 0 .3 0 .5-.5a52 52 0 0 0 1.7-5l.1-.5.2-.9a3 3 0 0 1 .2-.5m0-.1c-.2.1-.2.6-.5 1.4-.3 1-1.3 4.6-1.8 5.6l-.4.5s-.1-.4 0-.8l-.6 2.2a1.4 1.4 0 0 0 0 1.1 4.5 4.5 0 0 0 .7-.8 22.9 22.9 0 0 0 2.8-5 14 14 0 0 0 .7-3.5l-.1-.1-.8-.6Z" style="mix-blend-mode:multiply" fill="url(#ak)"/></g></mask><mask id="bI" x="25.9" y="35.9" width="1.9" height="4.3" maskUnits="userSpaceOnUse"><g mask="url(#ao)" filter="url(#ap)"><path d="m26 40.1.3-2.2c1-2 1.5-2 1.5-2V37.8a3 3 0 0 1-1.8 2.3Zm.4-2.2-.3 2c1.5-.8 1.6-1.8 1.6-2v-.2a7.8 7.8 0 0 0 0-.8V36a5 5 0 0 0-1.3 1.8Z" style="mix-blend-mode:multiply" fill="url(#aq)"/></g></mask><mask id="bO" x="5.3" y="21.6" width="30.7" height="34.4" maskUnits="userSpaceOnUse"><g mask="url(#ar)" filter="url(#as)"><path d="M20.7 56a1.6 1.6 0 0 1-.7-.1l-8-4c-6-3.2-6.3-7.2-6.5-10.2V41c-.2-2.3-.1-14-.1-15.7 0-2.1 1.5-2.4 3-2.6h.3a93.8 93.8 0 0 1 12-1 93.6 93.6 0 0 1 12 1h.3c1.4.2 3 .5 3 2.6l-.1 15.7v.8c-.2 3-.5 7-6.6 10.1l-8 4a1.6 1.6 0 0 1-.6.2Zm0-34.2a93.3 93.3 0 0 0-12 1h-.4c-1.3.2-2.7.4-2.7 2.4s-.2 13.4 0 15.7v.8c.3 3 .5 6.9 6.5 10l8 4a1.3 1.3 0 0 0 1.2 0l8-4c6-3 6.2-7 6.4-10V41c.2-2.3.1-14 .1-15.7S34.4 23 33 22.8h-.4a93.3 93.3 0 0 0-12-1Zm0 33.3a1.1 1.1 0 0 1-.5 0l-7.8-4c-5.6-3-5.8-6.5-6-9.4l-.1-.8c-.2-2.3 0-13.9 0-15.7 0-1.2.6-1.5 2.2-1.7h.3a93.5 93.5 0 0 1 11.9-1 93.7 93.7 0 0 1 11.9 1h.3c1.6.2 2.2.5 2.2 1.7 0 1.8.2 13.4 0 15.7v.8a12 12 0 0 1-1 4.6 10.8 10.8 0 0 1-5.1 4.8L21.2 55a1.1 1.1 0 0 1-.5 0Zm0-32.5a92.9 92.9 0 0 0-11.8 1l-.4.1c-1.5.3-2 .4-2 1.5 0 1.8-.2 13.4 0 15.7v.8c.2 2.9.5 6.4 6 9.3l7.9 3.9a.9.9 0 0 0 .7 0c1-.5 3.4-1.6 7.8-4a10.6 10.6 0 0 0 5-4.6 12 12 0 0 0 1-4.6V41c.2-2.3.1-13.9 0-15.7 0-1-.5-1.2-2-1.5h-.4a93.2 93.2 0 0 0-11.8-1Z" style="mix-blend-mode:multiply" fill="url(#at)"/></g></mask><mask id="bR" x="20.8" y="26" width="13.2" height="11.8" maskUnits="userSpaceOnUse"><g mask="url(#av)" filter="url(#aw)"><path d="M25.3 37.8a11.9 11.9 0 0 1-2-1.6l-.8-.7a9 9 0 0 1-1.6-2 .6.6 0 0 1 0-.8 1.8 1.8 0 0 0 .2-.2l.3-1.3v-.9c.7-1 3-4.3 6-4.3h.3c3.7.1 5.8 4.7 6 9.2h.2v.1l-.4.3c-.2-2.5-1.2-4-2.6-4-2.7.2-4.3 3.6-5.4 6Zm-3.7-7.5v.9l-.4 1.3a2.1 2.1 0 0 1-.1.3.5.5 0 0 0 0 .6 9.2 9.2 0 0 0 1.5 2l.8.7a13.6 13.6 0 0 0 1.8 1.5l.1-.1c1.2-2.5 2.8-5.9 5.6-6 1.4-.2 2.5 1.4 2.7 4a.4.4 0 0 0 .2-.2.3.3 0 0 1-.1-.1c-.3-4.5-2.4-9-6-9-3.2-.2-5.4 3-6.1 4.1Z" style="mix-blend-mode:multiply" fill="url(#ax)"/></g></mask><mask id="bT" x="20.8" y="26.1" width="12.9" height="8.8" maskUnits="userSpaceOnUse"><g mask="url(#az)" filter="url(#aA)"><path d="M27.5 26.2h.2a5 5 0 0 1 4 2.7 11.5 11.5 0 0 1 1.6 3.7c-1-2.8-2.5-6-5-6H28c-2.5.1-4.8 2.3-7 6.4a9.7 9.7 0 0 0-.2-1.3.8.8 0 0 1 .1-.5l.2-.2c1-1.5 3.1-4.8 6.3-4.8m0-.2c-3.4 0-5.7 3.8-6.6 5.1a1 1 0 0 0 0 .6 9.5 9.5 0 0 1 0 1.7c.7-1.2 3.4-6.5 7.2-6.7h.2c1.9 0 4 2 5.4 8.1-.3-4.5-2.6-8.7-6-8.8Z" style="mix-blend-mode:multiply" fill="url(#aB)"/></g></mask></defs><path d="m117.8 31.5-2 3.9-1.9-3.9h-13V44h9.3v-7l3.5 7h4.3l3.5-7v7h9.3V31.5h-13zM68.3 35.5c0-4.1-5.7-4-5.7-4H46V44h9v-3.7h1.8l2.8 3.7h9.6l-3.8-4.3c3.4-1.5 2.9-4.2 2.9-4.2Zm-11.1 1.7H55v-2.4h2.3a1.2 1.2 0 0 1 1.3 1.2c0 1-1.4 1.2-1.4 1.2ZM77.7 31.6 71 44h9.6l1-2.5h6.4l1 2.5h9.7l-7-12.4Zm5.5 6.7 1.7-4 1.8 4ZM20.7 53.6 13 49.8c-5-2.5-5.1-5.4-5.3-8.2v-.9c-.2-1.7-.2-11.2-.1-14.5a1.3 1.3 0 0 1 1-1.3h.4a91.8 91.8 0 0 1 11.6-1 91.8 91.8 0 0 1 11.6 1h.3a1.4 1.4 0 0 1 1.1 1.3v14.6l-.1.8c-.2 2.8-.4 5.7-5.3 8.2l-7.6 3.8Z"/><path d="M35 25.2c0-1.2-.6-1.4-2-1.6l-.5-.1a93.3 93.3 0 0 0-11.8-1 93.3 93.3 0 0 0-11.9 1h-.3c-1.6.3-2.2.5-2.2 1.7v15.7l.1.8c.2 2.8.5 6.4 6 9.3 5.1 2.6 7.5 3.7 8.3 4 .8-.3 3.1-1.4 8.2-4a10.7 10.7 0 0 0 5.1-4.7 12 12 0 0 0 1-4.6v-.8c.2-2.3 0-13.9 0-15.7Zm-1.4 15.6v.8c-.2 2.8-.4 5.7-5.3 8.2L21 53.5a.8.8 0 0 1-.6 0 212 212 0 0 1-7.3-3.7c-5-2.5-5.1-5.4-5.3-8.2v-.9c-.2-1.7-.2-11.2-.1-14.5a1.3 1.3 0 0 1 1-1.3h.4a91.8 91.8 0 0 1 11.6-1 91.8 91.8 0 0 1 11.6 1h.3a1.4 1.4 0 0 1 1.1 1.3v14.6Z" fill="url(#aC)"/><path d="M20.7 22.7a92.7 92.7 0 0 1 11.8 1h.4c1.6.3 2 .5 2 1.5v16.5a12 12 0 0 1-1 4.5 10.5 10.5 0 0 1-5 4.7l-8.2 4-8.2-4C7 48 6.8 44.5 6.6 41.7v-.9c-.2-2.2-.1-13.8-.1-15.6 0-1 .4-1.2 2-1.5h.4a93 93 0 0 1 11.8-1m0 31a.8.8 0 0 0 .4-.1l7.3-3.7c5-2.6 5.2-5.5 5.4-8.3v-.9C34 39 34 30 34 26.2a1.5 1.5 0 0 0-1.2-1.5h-.4a92.1 92.1 0 0 0-11.6-1 92.3 92.3 0 0 0-11.7 1h-.3a1.5 1.5 0 0 0-1.2 1.5v15.4c.3 2.8.5 5.8 5.5 8.4 3.8 2 6 3 7.3 3.6a.9.9 0 0 0 .4.1m0-31.1a93.3 93.3 0 0 0-11.9 1h-.4c-1.5.3-2 .5-2 1.6 0 1.8-.2 13.5 0 15.7v.8c.2 2.9.5 6.5 6 9.4 5.1 2.6 7.5 3.7 8.3 4 .8-.3 3.1-1.4 8.2-4a10.7 10.7 0 0 0 5.1-4.8 12 12 0 0 0 1-4.6v-.8c.3-2.3.2-14 .1-15.7 0-1.2-.6-1.4-2.1-1.6l-.4-.1a93.3 93.3 0 0 0-11.8-1Zm0 31a.8.8 0 0 1-.3-.1 212 212 0 0 1-7.3-3.7c-5-2.5-5.1-5.4-5.3-8.2v-.9c-.2-1.7-.2-11.2-.1-14.5a1.3 1.3 0 0 1 1-1.3h.4a91.8 91.8 0 0 1 11.6-1 91.8 91.8 0 0 1 11.6 1h.3a1.4 1.4 0 0 1 1.1 1.3v14.6l-.1.8c-.2 2.8-.4 5.7-5.3 8.2L21 53.5a.9.9 0 0 1-.3 0Z" fill="url(#aD)"/><path d="m34.6 35.5-.1-.3-.5.1-.3-.1c-.2-4.7-2.5-9-6-9.2S22 29.8 21 31.1a2.2 2.2 0 0 1 0-.3h-.4l-.1.3c-1-1.3-3.2-5.2-6.8-5s-5.8 4.4-6 9c0 .2 0 .2-.2.2l-.5-.1-.1.3a45.7 45.7 0 0 0 .3 6.4c.4 2.5 1 3.2 1 3.3a8.1 8.1 0 0 0 1.7.8 3.3 3.3 0 0 0 2.5 0c.5-.4.2-1 .1-1.4l-.5-2.3c0-.4-.5-2.2-.5-2.9s-.6-3.5 1-4c.4 0 1 0 1.1.6s0 1.6 0 1.8 0 1.2 1.8 2.2a16 16 0 0 0 1 3.2 1.2 1.2 0 0 1 .2.6l1.6 2.9c0 .2.3 3.4 1 4 .1.3.3.5 1.5.5s1.4-.2 1.5-.5c.7-.7 1-3.8 1-4s1.6-2.7 1.6-2.9a1.2 1.2 0 0 1 .2-.6 16 16 0 0 0 1-3.2c1.8-1 1.7-2.2 1.7-2.3v-1.8c0-.6.8-.7 1.2-.5 1.6.4 1 3.4 1 4s-.5 2.4-.6 2.8l-.5 2.4c-.1.4-.4 1 .2 1.3a3.3 3.3 0 0 0 2.4 0 8 8 0 0 0 1.7-.8c.1 0 .7-.8 1-3.2a45.7 45.7 0 0 0 .5-6.4Z" fill="url(#P)"/><path d="M15 38a1.4 1.4 0 0 0 1-.3l.3-1 2.5-7.8c-1.2-1.5-3-3-5.1-2.9-3.6.2-5.8 4.4-6 9l.2.5H9c.3 0 .3.6.7 1.6s1.3 4.6 1.8 5.6.5.3.5-.3a1.5 1.5 0 0 1 0-.2l-.6-2.8c0-.6-.6-3.6 1-4 .4-.1 1.1 0 1.2.6.3 0 1 1.2 1.3 2Z" fill="url(#U)"/><path d="M9.1 35.6H7.8l-.2-.5v-.2a2.5 2.5 0 0 0 0 .2c0 .2 0 .2-.2.2l-.5-.1.5.9a.2.2 0 0 0 .1 0l.8.3.2-.1.8-.6a.4.4 0 0 0-.2 0Z" fill="url(#V)"/><path d="M7.5 36.1a.2.2 0 0 1-.1 0s-.5-.9-.5-.9l-.1.3A45.7 45.7 0 0 0 7 42c.4 2.5 1 3.2 1 3.3a26.3 26.3 0 0 1-.6-4.2v-4.9Z" fill="url(#u)"/><path d="M7 35.2Z" fill="url(#aE)"/><path d="m20.2 32.5-.3-1.3v-.9c-1.2-1.7-3.3-4.4-6.2-4.3-3.6.2-5.8 4.5-6 9.1 0 .1 0 .2-.2.2.2.3.4.2.4.2.2-2.4 1.2-4.1 2.6-4 2.9.2 4.5 3.8 5.6 6.2a23.1 23.1 0 0 0 2.8-2.2 8.8 8.8 0 0 0 1.6-2c.2-.5-.2-.7-.3-1Z" fill="url(#au)"/><g mask="url(#aF)"><path d="M16 37.8v-.3c-1.1-2.4-2.7-5.7-5.5-6-1.3 0-2.3 1.5-2.5 4-.1 0-.2 0-.4-.3s0 0 .1-.1c.2-4.5 2.4-9 6.1-9.2h.2c3.2 0 5.4 3.2 6 4.3l.1.9.3 1.3a1.3 1.3 0 0 0 .1.2.6.6 0 0 1 .1.7 9 9 0 0 1-1.6 2.1l-.8.7a11.9 11.9 0 0 1-2 1.6Zm-5.6-6.4c3 .2 4.5 3.6 5.7 6v.2a13 13 0 0 0 1.9-1.5l.8-.7a9.4 9.4 0 0 0 1.5-2c.2-.3.1-.4 0-.6a2 2 0 0 1-.2-.3l-.3-1.3v-.9c-.7-1-3-4.3-6.1-4.2-3.7.2-5.8 4.7-6 9a.3.3 0 0 1-.1.2.4.4 0 0 0 .2.1c.2-2.4 1.2-4 2.6-4Z" fill="url(#f)"/></g><path d="M13.7 26c-3.5.2-5.7 4.3-6 8.9 1.4-6.3 3.6-8.3 5.6-8.2 3.7.3 6.5 5.5 7.1 6.7a8.5 8.5 0 0 1 .1-1.7 1 1 0 0 0 0-.5c-1-1.4-3.3-5.3-6.8-5.1Z" fill="url(#ay)"/><g mask="url(#aG)"><path d="M13.8 26.2c3.2 0 5.4 3.3 6.3 4.8l.2.2a.8.8 0 0 1 .1.5 9.3 9.3 0 0 0 0 1.3c-2.3-4.1-4.7-6.3-7.1-6.4H13c-2.5 0-4.1 3.2-5 6A11.5 11.5 0 0 1 9.6 29a5 5 0 0 1 4-2.7h.2m0-.1h-.1c-3.5 0-5.7 4.2-6 8.8 1.3-6.1 3.5-8.2 5.4-8.2h.2c3.7.3 6.5 5.5 7.1 6.7a8.5 8.5 0 0 1 .1-1.7 1 1 0 0 0 0-.5c-1-1.3-3.2-5.1-6.7-5.1Z" fill="url(#q)"/></g><path d="M12 42.1a.7.7 0 0 0 0 .2.5.5 0 0 1 0-.1Z" fill="url(#C)"/><g mask="url(#aH)"><path d="M12 42.1a.7.7 0 0 0 0 .2.5.5 0 0 1 0-.1Z" fill="url(#B)"/></g><path d="M12 41.8v.4-.4Z" fill="url(#aI)"/><g mask="url(#aJ)"><path d="M12 41.8v.4-.4Z" fill="url(#F)"/></g><path d="m11.8 41.4.1.4Z" fill="url(#aK)"/><g mask="url(#aL)"><path d="m11.8 41.4.1.4v-.4Zm.1.4Z" fill="url(#I)"/></g><path d="m11.7 40.8.1.5v-.5Z" fill="url(#aM)"/><g mask="url(#aN)"><path d="m11.7 40.8.1.5v-.5Z" fill="url(#d)"/></g><path d="m12.5 44.6-.5-2.1c.1.6 0 1.2-.5.2s-1.4-4.5-1.8-5.5c-.2-.9-.2-1.3-.4-1.5l-.8.6a.3.3 0 0 1-.1 0A14.2 14.2 0 0 0 9 40a22.8 22.8 0 0 0 2.7 5 3.8 3.8 0 0 0 .8.8 1.4 1.4 0 0 0 0-1Z" fill="url(#aO)"/><g mask="url(#aP)"><path d="M9.3 35.9a2.8 2.8 0 0 1 .1.5 7.8 7.8 0 0 0 .2.8l.2.6a52.3 52.3 0 0 0 1.6 5l.5.5a.2.2 0 0 0 .2 0l.3 1.3a.4.4 0 0 0 0 .1 1.4 1.4 0 0 1 .1.8 4 4 0 0 1-.6-.7l-.2-.4a19.4 19.4 0 0 1-2.5-4.6 15 15 0 0 1-.7-3.4l.8-.5m0-.2-.9.6A14.2 14.2 0 0 0 9 40a22.8 22.8 0 0 0 2.7 5 3.8 3.8 0 0 0 .8.8 1.4 1.4 0 0 0 0-1l-.5-2.3-.1.8-.4-.5c-.5-1-1.5-4.5-1.8-5.6-.3-.8-.3-1.3-.5-1.4Z" fill="url(#N)"/></g><path d="M8.2 45.1Z" fill="url(#O)"/><path d="M8 45Z" fill="url(#aQ)"/><path fill="url(#aR)" d="M7.4 43.4z"/><path d="M8.1 45Z" fill="url(#aS)"/><path d="M12.7 45.4Z" fill="url(#aT)"/><path d="M12.6 45.8a3.8 3.8 0 0 1-.8-.9 22.8 22.8 0 0 1-2.7-5 14.2 14.2 0 0 1-.7-3.5.1.1 0 0 1-.2 0l-.7-.2s-.1 3.2 0 4.8a26.3 26.3 0 0 0 .7 4.2 8.6 8.6 0 0 0 1.7.8 3.3 3.3 0 0 0 2.5 0 .7.7 0 0 0 .2-.3Z" fill="url(#aU)"/><path d="M12.6 45.6Z" fill="url(#aV)"/><path d="M8.2 45.1Z" fill="url(#aW)"/><path d="M12.7 45.5Z" fill="url(#aX)"/><path d="M12.7 45.5Z" fill="url(#aY)"/><path d="M8.2 45.2Z" fill="url(#aZ)"/><path fill="url(#ba)" d="M16.4 39.4v1.8l1.4.4.6-1.4-2-.8z"/><path d="m18.4 40.2.4 2.5a4 4 0 0 1-1-1.1Z" fill="url(#al)"/><path d="m17.8 41.6-1.4-.4v-1.8a4.2 4.2 0 0 1-.3-1.7 1.4 1.4 0 0 1-1 .2l.3 2.1a9.4 9.4 0 0 0 .8 1.3 6.4 6.4 0 0 1 .7 1.2l1.9.2a4 4 0 0 1-1-1.1Z" fill="url(#am)"/><path d="M13.6 36v1.8c0 .2 0 1.2 1.8 2.2l-.4-2c-.9-2-1.4-2-1.4-2Z" fill="url(#an)"/><g mask="url(#bb)"><path d="M15.4 40.1a3 3 0 0 1-1.8-2.3 7.5 7.5 0 0 1 0-1V36s.6 0 1.5 2Zm-1.7-4v.8a7.8 7.8 0 0 0 0 .8c0 .4 0 1.3 1.5 2.2l-.3-2a4.8 4.8 0 0 0-1.2-1.8Z" fill="url(#S)"/></g><path d="M15.4 40a16 16 0 0 0 1 3.2 1.2 1.2 0 0 1 .2.6 1 1 0 0 0 0 .3l.3-1.6a6.4 6.4 0 0 0-.7-1.2 9.4 9.4 0 0 1-.8-1.3Z" fill="url(#bc)"/><path d="m17 42.6-.3 1.5 1.5 2.6.7-3.1Z" fill="url(#T)"/><path d="m19.1 48.7.4-1.1-.6-4-.7 3.1c0 .2.3 3.4 1 4a4 4 0 0 1 0-2Z" fill="url(#bd)"/><path d="M26.4 38a1.4 1.4 0 0 1-1.1-.3l-.2-1-2.5-7.8c1.2-1.5 3-3 5-2.9 3.6.2 5.9 4.4 6 9l-.1.5h-1.3c-.4 0-.3.6-.6 1.6s-1.3 4.6-1.8 5.6-.6.3-.5-.3v-.2c0-.7.4-2.2.5-2.8s.6-3.6-1-4c-.4-.1-1 0-1.1.6-.3 0-1 1.2-1.3 2Z" fill="url(#be)"/><path d="M32.3 35.6h1.2l.2-.5v-.2.2s.1.2.3.2l.5-.1-.5.9a.2.2 0 0 1-.1 0l-.8.3-.2-.1-.8-.6a.4.4 0 0 1 .1 0Z" fill="url(#bf)"/><path d="m34 36.1.5-.9v.3a45.7 45.7 0 0 1-.3 6.4c-.4 2.5-1 3.2-1 3.3A26.3 26.3 0 0 0 34 41v-4.9Z" fill="url(#bg)"/><path d="M34.5 35.2Z" fill="url(#bh)"/><path d="M29.4 42.1v.2a.7.7 0 0 1 0-.1Z" fill="url(#bi)"/><g mask="url(#bj)"><path d="M29.4 42.1a.7.7 0 0 0 0 .2v-.1Z" fill="url(#Y)"/></g><path d="M29.4 41.8v.4-.4Z" fill="url(#bk)"/><g mask="url(#bl)"><path d="M29.4 41.8v.4-.4Z" fill="url(#ab)"/></g><path d="M29.5 41.4v.4-.4Z" fill="url(#bm)"/><g mask="url(#bn)"><path d="M29.5 41.4v.4-.4Zm0 .4Z" fill="url(#ae)"/></g><path d="m29.7 40.8-.1.5v-.5Z" fill="url(#bo)"/><g mask="url(#bp)"><path d="m29.7 40.8-.1.5v-.5Z" fill="url(#ah)"/></g><path d="m28.8 44.6.5-2.1c0 .6 0 1.2.5.2s1.5-4.5 1.8-5.5c.3-.9.3-1.3.5-1.5l.8.6h.1a14 14 0 0 1-.7 3.6 22.9 22.9 0 0 1-2.8 5 4.5 4.5 0 0 1-.7.8 1.4 1.4 0 0 1 0-1Z" fill="url(#bq)"/><g mask="url(#br)"><path d="m32.1 35.9.7.5a15 15 0 0 1-.7 3.4 19.4 19.4 0 0 1-2.4 4.6l-.3.4a3.6 3.6 0 0 1-.6.7 1.5 1.5 0 0 1 .1-.8l.4-1.5a.2.2 0 0 0 .1 0c.2 0 .3 0 .5-.5a52 52 0 0 0 1.7-5l.1-.5.2-.9a3 3 0 0 1 .2-.5m0-.1c-.2.1-.2.6-.5 1.4-.3 1-1.3 4.6-1.8 5.6l-.4.5s-.1-.4 0-.8l-.6 2.2a1.4 1.4 0 0 0 0 1.1 4.5 4.5 0 0 0 .7-.8 22.9 22.9 0 0 0 2.8-5 14 14 0 0 0 .7-3.5l-.1-.1-.8-.6Z" fill="url(#ak)"/></g><path d="M33.2 45.1Z" fill="url(#bs)"/><path d="M33.3 45Z" fill="url(#bt)"/><path fill="url(#bu)" d="M33.9 43.4z"/><path d="M33.3 45Z" fill="url(#bv)"/><path d="M28.7 45.4Z" fill="url(#bw)"/><path d="M28.8 45.8a4.5 4.5 0 0 0 .7-.9 22.9 22.9 0 0 0 2.8-5 14 14 0 0 0 .7-3.5.2.2 0 0 0 .1 0l.7-.2h.1s.1 3.2 0 4.8a26.3 26.3 0 0 1-.8 4.2 8.7 8.7 0 0 1-1.6.8 3.3 3.3 0 0 1-2.5 0 .7.7 0 0 1-.3-.3.4.4 0 0 0 .1 0Z" fill="url(#bx)"/><path d="M28.7 45.6Z" fill="url(#by)"/><path d="M33.2 45.1Z" fill="url(#bz)"/><path d="M28.7 45.5Z" fill="url(#bA)"/><path d="M28.7 45.5a.1.1 0 0 1 0-.1Z" fill="url(#bB)"/><path d="M33.1 45.2Z" fill="url(#bC)"/><path d="M25 39.4a4.2 4.2 0 0 0 .3-1.7 23.1 23.1 0 0 1-2.7-2.2 9 9 0 0 1-1.6-2.1h-.5a8.8 8.8 0 0 1-1.6 2 23.1 23.1 0 0 1-2.7 2.3 4.2 4.2 0 0 0 .3 1.7l2 .8.4 2.5-1.9-.1 2 1 .6 4-.3 1.1a3.5 3.5 0 0 0 1.5.7 3.5 3.5 0 0 0 1.6-.7l-.4-1.1.6-4 2-1h-1.9l.4-2.4Z" fill="url(#bD)"/><path fill="url(#bE)" d="M25 39.4v1.8l-1.5.4-.5-1.4 2-.8z"/><path d="m23 40.2-.4 2.5a3.9 3.9 0 0 0 1-1.1Z" fill="url(#bF)"/><path d="m23.5 41.6 1.5-.4v-1.8a4.2 4.2 0 0 0 .3-1.7 1.4 1.4 0 0 0 1 .2L26 40a10 10 0 0 1-.9 1.3 6 6 0 0 0-.7 1.2l-1.8.2a3.9 3.9 0 0 0 1-1.1Z" fill="url(#bG)"/><path d="M27.8 36v1.8c0 .2 0 1.2-1.8 2.2l.3-2.1c1-1.9 1.5-1.9 1.5-1.9Z" fill="url(#bH)"/><g mask="url(#bI)"><path d="m26 40.1.3-2.2c1-2 1.5-2 1.5-2V37.8a3 3 0 0 1-1.8 2.3Zm.4-2.2-.3 2c1.5-.8 1.6-1.8 1.6-2v-.2a7.8 7.8 0 0 0 0-.8V36a5 5 0 0 0-1.3 1.8Z" fill="url(#aq)"/></g><path d="M26 40a16 16 0 0 1-1 3.2 1.2 1.2 0 0 0-.1.6.9.9 0 0 1-.1.3l-.3-1.5a6 6 0 0 1 .7-1.3A10 10 0 0 0 26 40Z" fill="url(#bJ)"/><path d="m24.4 42.6.3 1.5-1.5 2.6-.7-3.1Z" fill="url(#bK)"/><path d="m22.2 48.7-.3-1.1.6-4 .7 3.1c0 .2-.3 3.4-1 4a4 4 0 0 0 0-2Z" fill="url(#bL)"/><path d="M20.7 49.4a3.5 3.5 0 0 1-1.6-.7 4 4 0 0 0 0 2c.2.3.3.5 1.6.6s1.4-.3 1.5-.6a4 4 0 0 0 0-2 3.5 3.5 0 0 1-1.5.7Z" fill="url(#bM)"/><path d="M35.9 25.2c0-2.2-1.8-2.3-3.2-2.5a94.5 94.5 0 0 0-12-1 94.4 94.4 0 0 0-12 1c-1.4.2-3.2.3-3.2 2.5 0 1.7-.2 13.4 0 15.7.3 3 0 7.5 6.6 10.9l8 4a1.4 1.4 0 0 0 1.2 0l8-4c6.6-3.5 6.3-8 6.5-10.9.2-2.3.1-14 .1-15.7ZM35 40.9v.8a12 12 0 0 1-1 4.6 10.7 10.7 0 0 1-5.1 4.7l-7.8 3.9a1 1 0 0 1-.8 0L12.5 51c-5.6-2.9-5.9-6.5-6-9.3v-.9c-.3-2.2-.2-13.8-.2-15.6 0-1.2.6-1.4 2.2-1.6l.3-.1a93.3 93.3 0 0 1 11.9-1 93.3 93.3 0 0 1 11.8 1h.4c1.5.3 2.1.5 2.1 1.7 0 1.8.2 13.4 0 15.7Z" fill="url(#bN)"/><g mask="url(#bO)"><path d="M20.7 56a1.6 1.6 0 0 1-.7-.1l-8-4c-6-3.2-6.3-7.2-6.5-10.2V41c-.2-2.3-.1-14-.1-15.7 0-2.1 1.5-2.4 3-2.6h.3a93.8 93.8 0 0 1 12-1 93.6 93.6 0 0 1 12 1h.3c1.4.2 3 .5 3 2.6l-.1 15.7v.8c-.2 3-.5 7-6.6 10.1l-8 4a1.6 1.6 0 0 1-.6.2Zm0-34.2a93.3 93.3 0 0 0-12 1h-.4c-1.3.2-2.7.4-2.7 2.4s-.2 13.4 0 15.7v.8c.3 3 .5 6.9 6.5 10l8 4a1.3 1.3 0 0 0 1.2 0l8-4c6-3 6.2-7 6.4-10V41c.2-2.3.1-14 .1-15.7S34.4 23 33 22.8h-.4a93.3 93.3 0 0 0-12-1Zm0 33.3a1.1 1.1 0 0 1-.5 0l-7.8-4c-5.6-3-5.8-6.5-6-9.4l-.1-.8c-.2-2.3 0-13.9 0-15.7 0-1.2.6-1.5 2.2-1.7h.3a93.5 93.5 0 0 1 11.9-1 93.7 93.7 0 0 1 11.9 1h.3c1.6.2 2.2.5 2.2 1.7 0 1.8.2 13.4 0 15.7v.8a12 12 0 0 1-1 4.6 10.8 10.8 0 0 1-5.1 4.8L21.2 55a1.1 1.1 0 0 1-.5 0Zm0-32.5a92.9 92.9 0 0 0-11.8 1l-.4.1c-1.5.3-2 .4-2 1.5 0 1.8-.2 13.4 0 15.7v.8c.2 2.9.5 6.4 6 9.3l7.9 3.9a.9.9 0 0 0 .7 0c1-.5 3.4-1.6 7.8-4a10.6 10.6 0 0 0 5-4.6 12 12 0 0 0 1-4.6V41c.2-2.3.1-13.9 0-15.7 0-1-.5-1.2-2-1.5h-.4a93.2 93.2 0 0 0-11.8-1Z" fill="url(#bP)"/></g><path d="m21.2 32.5.3-1.3v-.9c1.1-1.7 3.2-4.4 6.2-4.3 3.5.2 5.8 4.5 6 9.1l.1.2c-.2.3-.3.2-.3.2-.2-2.4-1.2-4.1-2.7-4-2.8.2-4.5 3.8-5.6 6.2a23.1 23.1 0 0 1-2.7-2.2 9 9 0 0 1-1.5-2.1c-.3-.4 0-.6.2-1Z" fill="url(#bQ)"/><g mask="url(#bR)"><path d="M25.3 37.8a11.9 11.9 0 0 1-2-1.6l-.8-.7a9 9 0 0 1-1.6-2 .6.6 0 0 1 0-.8 1.8 1.8 0 0 0 .2-.2l.3-1.3v-.9c.7-1 3-4.3 6-4.3h.3c3.7.1 5.8 4.7 6 9.2h.2v.1l-.4.3c-.2-2.5-1.2-4-2.6-4-2.7.2-4.3 3.6-5.4 6Zm-3.7-7.5v.9l-.4 1.3a2.1 2.1 0 0 1-.1.3.5.5 0 0 0 0 .6 9.2 9.2 0 0 0 1.5 2l.8.7a13.6 13.6 0 0 0 1.8 1.5l.1-.1c1.2-2.5 2.8-5.9 5.6-6 1.4-.2 2.5 1.4 2.7 4a.4.4 0 0 0 .2-.2.3.3 0 0 1-.1-.1c-.3-4.5-2.4-9-6-9-3.2-.2-5.4 3-6.1 4.1Z" fill="url(#ax)"/></g><path d="M27.7 26c3.5.2 5.7 4.3 6 8.9-1.4-6.3-3.6-8.3-5.6-8.2-3.8.3-6.5 5.5-7.1 6.7a9.5 9.5 0 0 0-.1-1.7 1 1 0 0 1 .1-.5c.8-1.4 3.1-5.3 6.7-5.1Z" fill="url(#bS)"/><g mask="url(#bT)"><path d="M27.5 26.2h.2a5 5 0 0 1 4 2.7 11.5 11.5 0 0 1 1.6 3.7c-1-2.8-2.5-6-5-6H28c-2.5.1-4.8 2.3-7 6.4a9.7 9.7 0 0 0-.2-1.3.8.8 0 0 1 .1-.5l.2-.2c1-1.5 3.1-4.8 6.3-4.8m0-.2c-3.4 0-5.7 3.8-6.6 5.1a1 1 0 0 0 0 .6 9.5 9.5 0 0 1 0 1.7c.7-1.2 3.4-6.5 7.2-6.7h.2c1.9 0 4 2 5.4 8.1-.3-4.5-2.6-8.7-6-8.8Z" fill="url(#aB)"/></g></svg>