<svg id="Layer_1" data-name="Layer 1" xmlns="http://www.w3.org/2000/svg" viewBox="0 0 136.3 77.6"><defs><style>.cls-1{fill:#df1e3c}.cls-2{fill:#88100d}.cls-3{fill:#fff;isolation:isolate;opacity:.5}</style></defs><path class="cls-1" d="M11.4 45.7s-5.2-1.7-3-7.5a5 5 0 0 1 1-7 5.6 5.6 0 0 1 4.2-7 6.1 6.1 0 0 1 6.2-4s1.7-3.7 8-2.2a7.4 7.4 0 0 1 8.1-1s2.4-2.3 20.3.3c18.4 2.7 13.6 5.2 13.6 5.2a96.9 96.9 0 0 1 8.7 4.4s-5.5.6-5.7 2c0 0 3.7 1.1 3.7 1.6l-.8 3.8-3.5-.5s-10.4 1.4-12.5 2.6c0 0-11.3 7.4-27.6-.8a8.5 8.5 0 0 0-5 .5s-4.6 1.7-5.4 0c0 0-2.1 3-3.5 1.9a2.4 2.4 0 0 1-2.5 2.3 3.3 3.3 0 0 1-2.4 2.2s.6 3.2-1.9 3.2ZM88.8 28.5l-3 2a49.5 49.5 0 0 0 10.4 7.3 28.8 28.8 0 0 0 16 3.6 58.9 58.9 0 0 1-11.8-6.7c-2.7-2-8.6-7.4-8.6-7.4a7.3 7.3 0 0 0-3 1.2Z"/><path class="cls-1" d="M80.1 14.7s21.3-7 31.4 5.8 2.7 23 2.7 23-10.3-19.8-22-16C84.6 30 87 32 85 31c-.2-.2-1.4.3-1.4.3a3.7 3.7 0 0 0-.8-1.1L81 29a3.3 3.3 0 0 0-1.3-.2s0-1-.2-1.2a13 13 0 0 0-2.4-1.5l-7.5-4.2ZM17.4 57.1a4.7 4.7 0 0 1-2.7 2.8 7 7 0 0 1-3 .5l-.8-13.8s4.7-12 15.5-12.2a6.2 6.2 0 0 1-.2 3 5 5 0 0 1-1.9 2.7 2 2 0 0 1-1.8 0 3.7 3.7 0 0 1-1.2 3.5 6 6 0 0 1-2 1.2 9.2 9.2 0 0 1 .5 2.8 5.6 5.6 0 0 1-.7 2.6 9.2 9.2 0 0 1-1.6 2s.3 1.3.3 1.7a6 6 0 0 1-.4 3.2ZM87.3 43.7a83 83 0 0 1 8.9-.5 55.3 55.3 0 0 1 11 1.1 16 16 0 0 1 6.4 2.5s-15.8-.6-28.6 3c0 0-2.2-4.6 2.3-6ZM53.3 38.5s-1 3.1 3.3 6.1c0 0 1.6-5.4 9-5.2 0 0-5.2-5.3-12.3-.9Z"/><path class="cls-1" d="M58.6 51c-.2-.3-.6 0-.6 0a8.4 8.4 0 0 0-.3-1.3 10 10 0 0 1-1-2.3c-.2-.3-.8-.6-.8-.6a4.7 4.7 0 0 0 .5-1.2c0-2.4 1.8-5 7.4-6.8 0 0 4.8.9 6.6 3.8 0 0-10.3 1.6-10 10.3a15 15 0 0 1-1.8-2ZM56.8 17.3s7.8-6.4 10-4l.2 6.5Z"/><path class="cls-1" d="M66.7 14s5.9-3.3 6-2.7c0 0-.5 1.1 3.8.5 0 0-1 1 2.6 1 0 0 2.1 1.6.6 3.4a21.2 21.2 0 0 1-2.4 2.5 15.4 15.4 0 0 1-7 3.4l-3.5-1.6ZM35.1 36.7l-2.7 2.9s-.6 3.4 1.8 9.4a8.7 8.7 0 0 0 2.5 4.5s-2.4-.1-4-3.6c0 0-7.7-11.3 0-14ZM40.3 38.4s4.9 5.2 4.4 11.4l-.5 3.2a10.7 10.7 0 0 0-1.2-2.7s-2.2-4-1.8-6.6c0 0-6-2.5-2.8-5.9ZM71 22.7l4.4-.4a.6.6 0 0 1 .4 0v.3l.4 2.7ZM49 41.5s2.6 4.7 2.5 6c1.2 3.4.8 2.7 1.2 6-3.3-4.4-3-3.2-3.3-3.5-.8-.7 0-2.8 0-2.8s-4.4-5.4-3.9-7.9a33.8 33.8 0 0 0 3.6 0l-.1 2.2Z"/><path class="cls-2" d="M83.2 30s2.1-3.5 7.7-4.6a12 12 0 0 1 10.5 3 13.3 13.3 0 0 0-6.4-1.8c-2.6.2-7.6 2-9.3 4.4a8.8 8.8 0 0 0-.9-.3 9.3 9.3 0 0 0-1 .3Z"/><path class="cls-3" d="M112.8 27.3s-2.8-12-19.4-12.8l-1.1 2.2s13 0 20.5 10.6Z"/><path class="cls-2" d="M11.9 58a3.2 3.2 0 0 0 3.4-1.8c.6-1.1.8-2.9.6-5.4 0 0 3.8-3.9 1.4-6.9 0 0 4.8-2 3.7-5.7 0 0 2.8-.3 3.3-1.6.1-.2 2-.6 1.9-.2-.4 1.6-1.4 4.7-4 3.4a4.6 4.6 0 0 1-.4 2.4 4.8 4.8 0 0 1-2.8 2.5s1.8 4.8-1.8 7.3c0 0 1.4 4.8-1.5 7a6.6 6.6 0 0 1-3.7 1Z"/><path class="cls-3" d="m12.7 56.8-.6-9.1 2.9 6.8s-.8 2.3-2.3 2.3Z"/><path class="cls-2" d="M10.5 45a3.7 3.7 0 0 0 1.4-3.7s2.5-1.3 2.5-2.6c0 0 2.8-.8 2.7-2.7 0 0 3.5-.5 4-3 0 0 4.3.8 6.1-.7s6.3-.1 6.3-.1l.7 4.2-2-1-2.3.2-3.3.5a11.6 11.6 0 0 1-3.4.7c-1.1-.1-1.3-.9-1.3-.9l-.3.4s-1.3 1.5-1.9 1.7a4.4 4.4 0 0 1-1.5.2 3.4 3.4 0 0 1-.7 1.4 5.8 5.8 0 0 1-1.7.6 1.8 1.8 0 0 1-.3.8 12.8 12.8 0 0 1-2 1.6V44l-.5 1-1.2.8Z"/><path class="cls-2" d="M33.5 32.2a46.4 46.4 0 0 0 20.4 3c2.4-.1 4.8-1 7.2-1.6l5.5-1.3a22.7 22.7 0 0 1 7.5-.6c1.9.2 1.9.6 1.9.6l-.3 1.8-3.4-.7h-1l-9.1 1.8-2.2.8-3 1.4s-11.3 4.6-22.8-1Z"/><path class="cls-1" d="M33.6 51a3.1 3.1 0 0 0 1.8 1.7 15.6 15.6 0 0 1-1.3-2.6l-.2-1-.5-1.1-.7-2.1-.3 2.7 1.2 2.4ZM42.2 47.4a14.6 14.6 0 0 0 .8 2l1 2.3.4-2a9 9 0 0 0 0-1.3Z"/><path class="cls-2" d="m70.7 22.1 2.6-1.3a4.6 4.6 0 0 0-2.3-2 6.5 6.5 0 0 0-3.9.3 13.3 13.3 0 0 1 2.6 1c.6.4 1 .7 1 1.3v.7Z"/><path class="cls-3" d="M60.6 18.9s-6.5-1-12.7-1.3a45 45 0 0 0-10.3.1 10.2 10.2 0 0 0-1.5 3.6s5.9-3.4 24.5-2.4ZM33.5 18a4.8 4.8 0 0 0-2-.2 5.1 5.1 0 0 0-2.3 1l-.6 2.7a9.5 9.5 0 0 1 3.7-.5 11.8 11.8 0 0 1 1.2-3ZM25.1 22.2a4.9 4.9 0 0 0-1.5.2 12.7 12.7 0 0 0-2 .9l-.2-2.8a4.1 4.1 0 0 1 1.8-1.1 6 6 0 0 1 2.6-.1ZM18.4 22a6.8 6.8 0 0 0-2 .9 4.5 4.5 0 0 0-1.2 1.6 19 19 0 0 0 0 3 13.1 13.1 0 0 1 1.8-1.8 5.8 5.8 0 0 1 1.5-.8ZM12.6 26.5a4.3 4.3 0 0 0-2 3.6L11 32a13.4 13.4 0 0 1 1.1-1.6 6.3 6.3 0 0 1 .9-.8 9.8 9.8 0 0 1-.5-3ZM9.2 34.2S8 35.2 9 37l1.1-1.1ZM9.2 40.7a2.8 2.8 0 0 0 .4 2.2l.6-1.3ZM69 14.7l2.9-1.6a26.5 26.5 0 0 0 4.1.9Z"/><path class="cls-1" d="m49.3 48.6 2.5 1.1a9.8 9.8 0 0 1 .2 1.1l.2 1.4-2.3-2.4h-.3a.8.8 0 0 1-.2-.7 5 5 0 0 1 0-.5Z"/><path class="cls-2" d="M94.6 47.5c-3.9.6-7.9 1.6-7.9 1.6a6 6 0 0 1-.2-1.3 3.4 3.4 0 0 1 .1-1.2l14-.7 2.2.8s-4.4.3-8.2.8ZM62.4 17.9l-4.7-.8a16.8 16.8 0 0 1 4.3-.6 26.8 26.8 0 0 1 4.4.8v1.5l-4-.9ZM88.2 29.7a8 8 0 0 0-.8.5 5.3 5.3 0 0 0-.7.7 56.8 56.8 0 0 0 8.2 6 30.3 30.3 0 0 0 9 3.6 22.4 22.4 0 0 0 6.6.6 59.4 59.4 0 0 1-9-2.4 53 53 0 0 1-8.9-4.9 46.9 46.9 0 0 1-4.4-4.1Z"/><path class="cls-1" d="m76 25-.3-2.3A257 257 0 0 1 102 19c7.4-.7 20.5-7 20.5-7s-6.8 7-25.3 9.5C87 23 76.5 25 76.5 25Z"/><path d="M53.7 41.5a8 8 0 0 0 1.3 2 4 4 0 0 0 1.6.8 8.8 8.8 0 0 1 1.7-2.3c.6-.5-4.3-.5-4.6-.5ZM56.6 47.6l1.4 2.9.7.7.3-.8a3.7 3.7 0 0 1 0-2.5c.5-1.3-2.4-.3-2.4-.3Z"/><path class="cls-2" d="M54 41.3a23 23 0 0 0 3-.3 24.6 24.6 0 0 0 2.5-.7L57.8 42a18.6 18.6 0 0 0-1.5 2 14.6 14.6 0 0 1-1.2-1.1c-.4-.4-1.1-1.6-1.1-1.6ZM56.7 47a11.1 11.1 0 0 1 3.2-2.3 20.6 20.6 0 0 1 4.6-1.2s-3.5 1.4-4.8 2.8-1.2 1.6-1.3 2a16.8 16.8 0 0 0 .1 2.3s-.5-1-.8-1.5l-1-2.1Z"/><path d="M112.3 41Z" fill="#fff"/><path class="cls-1" d="M76.2 23.8c10.1-2.5 27.7-2.7 40.3-8l-.4.6-7.4 2.8-13 2.8-19.4 2.6ZM85 37.1c-5.5-3-8.9-3.3-8.9-3.3l.3-2.6a28 28 0 0 1 7.2 2.9c4.1 2.2 9.8 6 15 8.8 4.3 2.2 10 3.5 14.7 4 8.2 1.1 10.6.7 10.6.7s-2.2 2-11.1 1a47.8 47.8 0 0 1-18-5.7c-4.7-2.6-7.3-4.3-9.9-5.8Z"/><path class="cls-1" d="m88 42.5-1.3-1a3.2 3.2 0 0 1-1.3.4 9.4 9.4 0 0 0-1-.2c-.3 0-1-.7-1-.7s-.6.6-.8.6a10.4 10.4 0 0 1-2 0c-.2 0-.7-.7-.7-.7s-.7.7-1 .7h-2a3.7 3.7 0 0 1-1.3-.5s-.8.7-1.1.7l-1 .2c-.3 0-.8-.6-.8-.6s-.4.7-.6.7c-8.2 1.1-15.8 4-12.4 9.3 0 0 7.6 17.8 32.6 15.3 22.3-2.3 24.3-18 24.1-20.3 0 0-14.1 9.4-29.5 3.6 0 0-2.2-3 1.4-6.5.3-.3 0-.6-.3-1Z"/><path class="cls-2" d="M67.2 60.2a27.5 27.5 0 0 1-7-8.4l-.5-.8a3.4 3.4 0 0 1-.5-2.7s10.6 15 29.4 15C108.9 63.3 116 47 116 47a19.3 19.3 0 0 1-.6 3.1 21.2 21.2 0 0 1-1.5 4 19.6 19.6 0 0 1-7.7 8 31 31 0 0 1-12.4 4 45 45 0 0 1-9 .4 31.5 31.5 0 0 1-17.6-6.3Z"/><path class="cls-3" d="M84 43.7c-.3 0-5.8-.8-14.7.8 0 0 10.2 1.2 13.3 2.4a5.9 5.9 0 0 1 1.4-3.2Z"/><path class="cls-1" d="M76.4 32.8c12.1 3 20.4 13.4 36.4 15.2l-1 .6-7.5-1.8-5.8-2.3-8.1-4.2-7.8-4.3-6.4-2.3Z"/><path d="M129.3 47a91.8 91.8 0 0 1-12.6 0 8.9 8.9 0 0 0 0-1.3 20.6 20.6 0 0 1-1.8 1.1h-.9c-3-2.5-8.7-3.5-14-3.8-8.8-3.8-13.9-9.3-23.1-12l.1-.5a.7.7 0 0 0-.3-.6 10 10 0 0 0-2.1-1l-1-.4a2.2 2.2 0 0 1 .5-.2 13.3 13.3 0 0 1 2.8-.8l1.4-.2a3.3 3.3 0 0 1 1 .6 1.5 1.5 0 0 1 0 .3 3.9 3.9 0 0 1 0 .5v.6h.7a4.5 4.5 0 0 1 .5 0h.2l2 1.3a2 2 0 0 1 .3.5l.3.4.1.4.4-.2.5-.1a3.8 3.8 0 0 1 .6-.2 2 2 0 0 0 .8.3.7.7 0 0 0 .5-.2 51.2 51.2 0 0 0 9.8 6.7 31 31 0 0 0 13.8 3.7 21.5 21.5 0 0 0 2.4-.1h.6v-.2l.8 1.3.3.7.3.6.4-.5a17 17 0 0 0 2.6-9.4c0-3.9-1.2-8.8-5.4-14a12.2 12.2 0 0 0-1.1-1.3 28.6 28.6 0 0 0 14-8.8 70.3 70.3 0 0 1-16.2 6.8A25.4 25.4 0 0 0 93 12.3a46.5 46.5 0 0 0-12.5 1.8 3.7 3.7 0 0 0-1.2-1.7H79a6.7 6.7 0 0 1-2.1-.3.8.8 0 0 1-.2 0l1-.9-1.3.2a16.2 16.2 0 0 1-2 .1 3 3 0 0 1-1.4-.2.5.5 0 0 0-.3-.4.6.6 0 0 0-.2 0 2.3 2.3 0 0 0-.7 0 44.4 44.4 0 0 0-4.6 2.3h-.1a2.3 2.3 0 0 0-1.8-.8c-1.7 0-3.9 1.2-5.6 2.3a31 31 0 0 0-3 2.2h-.5a101.8 101.8 0 0 0-14.1-1.3c-4.2 0-5.7.5-6.2.9a8.5 8.5 0 0 0-3.4-.8 7.8 7.8 0 0 0-4.9 1.8 12.6 12.6 0 0 0-2.7-.4c-3.5 0-5 1.9-5.4 2.5a6.6 6.6 0 0 0-5 2.2 6.7 6.7 0 0 0-1.2 2 6.3 6.3 0 0 0-3.6 2.6 5.9 5.9 0 0 0-.8 3.1 7.5 7.5 0 0 0 .1 1.5 5.1 5.1 0 0 0-2 4 6.3 6.3 0 0 0 1 3.2 7.7 7.7 0 0 0-.5 2.6 5 5 0 0 0 2 4 6 6 0 0 0 1.3.9l-.3.6v.1l.8 14.2h.8a7.3 7.3 0 0 0 2.8-.5 5 5 0 0 0 3-3 6.2 6.2 0 0 0 .4-2.3v-1l-.4-1.6a10.2 10.2 0 0 0 1.5-1.8 5.7 5.7 0 0 0 .7-3 9.8 9.8 0 0 0-.4-2.4 5.9 5.9 0 0 0 1.8-1.2 4.4 4.4 0 0 0 1.4-3.1h.3a3 3 0 0 0 1.3-.3 5.4 5.4 0 0 0 2-2.9 5.8 5.8 0 0 0 .3-1l.4-.2a8.7 8.7 0 0 1 3.2-.6 8.1 8.1 0 0 1 1.2 0h.2a5 5 0 0 0-3 5c0 4.1 3.3 8.8 3.6 9.3 1.5 3.6 4 3.9 4.2 3.9h1.1l-.9-.8a7.1 7.1 0 0 1-1.8-2.7 10.6 10.6 0 0 1-.4-1.1 3 3 0 0 1-.1-.4 21.8 21.8 0 0 1-1.8-8.1 8.7 8.7 0 0 1 0-.9.7.7 0 0 1 0-.2l2.3-2.4 2.5.9a3 3 0 0 0-.6 1.6 4.2 4.2 0 0 0 2.1 3.1 10.7 10.7 0 0 0 1.7 1v.4c0 2.7 1.9 6.1 1.9 6.2a7 7 0 0 1 .8 1.5l.3 1 .5 1.7.8-5V49a17 17 0 0 0-3.7-9.8 28.5 28.5 0 0 0 3.6.5s0 .1 0 .1c0 1.5 1 3.4 2 5a30.5 30.5 0 0 0 1.9 2.5 6 6 0 0 0-.3 1.7 1.7 1.7 0 0 0 .4 1.3.8.8 0 0 0 .5.2.5.5 0 0 1 .1 0 21.5 21.5 0 0 1 2.7 3.2l.8 1.1-.1-1.4-.3-3a22 22 0 0 0-.8-3 5 5 0 0 0-.4-1.6 42.6 42.6 0 0 0-2.1-4.3v-1.8a28.4 28.4 0 0 0 3.4-.4c0 1.2.5 3.4 3.3 5.4a5.7 5.7 0 0 0-.1.9 2.4 2.4 0 0 1-.2.5l-.2.5-.2.3.4.2.3.2.1.1a9.8 9.8 0 0 0 1.1 2.4 6.6 6.6 0 0 1 .2.7v.6l.2.7.5-.5h.1a15.2 15.2 0 0 0 1.8 1.8 27.4 27.4 0 0 0 5.2 6.3 32 32 0 0 0 22.2 7.9 47.4 47.4 0 0 0 4.8-.3c10.8-1 17-5.4 20.3-9.8a20.2 20.2 0 0 0 3.8-8 40.2 40.2 0 0 0 12.9-2.2Zm-5.8.9a40 40 0 0 1-7 .6l.1-.8c1.9.2 4.5.2 7 .2Zm-17.8-3.5a21.6 21.6 0 0 1 6.4 2h-.2a48.7 48.7 0 0 1-9.5-2.4c1.1 0 2.3.2 3.3.4Zm-29-12.6c13.2 3.8 18 13.3 37 15.6l-1.7.9c-15-1.8-25.3-12.6-35.5-14.8Zm25.7 14.9A87.1 87.1 0 0 0 86.8 49a3.8 3.8 0 0 1-.2-1.3 5.3 5.3 0 0 1 1.7-3.7c.4 0 4.4-.3 7.4-.3a64 64 0 0 0 6.6 3Zm1.7.6a40.7 40.7 0 0 0 6.4 1.6 36 36 0 0 1-13.2 2.6 28.8 28.8 0 0 1-10-1.8s5.6-1.5 16.8-2.4Zm-27.8-13c5.7 1.2 11.4 5 18 8.6-2.4 0-4.3.2-5.5.3a.9.9 0 0 0-.1-.6 4.2 4.2 0 0 0-.4-.3L87 41.2l-.3-.2-.2.1-.4.3a2 2 0 0 1-.7.2 8.9 8.9 0 0 0-1-.2 2 2 0 0 1-.5-.3 4.3 4.3 0 0 1-.3-.3l-.3-.3-.3.3-.3.3a2.6 2.6 0 0 1-.2.1 1.9 1.9 0 0 1-.5 0h-1.4a1.6 1.6 0 0 1-.3-.3l-.2-.2-.2-.4-.4.3a3.8 3.8 0 0 1-.3.3 2.2 2.2 0 0 1-.3.2h-.1l-1.9.2a2 2 0 0 1-.7-.3 4.9 4.9 0 0 1-.5-.2l-.2-.2-.3.2-.3.4a2.6 2.6 0 0 1-.4.2l-1 .1a1.8 1.8 0 0 1-.5-.2l-.2-.2-.4-.4-.2.5a3.8 3.8 0 0 1-.2.3 1.6 1.6 0 0 1-.2.2l-1.4.2a9 9 0 0 0-3.9-2.7 15 15 0 0 0-1-.3 10.4 10.4 0 0 0-5.2-2.5 15.2 15.2 0 0 1 2.3-.6 91 91 0 0 1 9.6-1.7l3.1.6h.2a.7.7 0 0 0 .6-.3 1 1 0 0 0 .1 0Zm-2.6-6.8c-.6.3-1 .6-1.2 1.2a11.7 11.7 0 0 1-2-.3 2 2 0 0 1-1.2-.6.4.4 0 0 1 0-.2c0-.2 0-.6.7-1l5.1.4a9.8 9.8 0 0 0-1.4.5Zm36.1 13.6a30 30 0 0 1-13.4-3.6 49.2 49.2 0 0 1-7.5-4.8L87 31a11.5 11.5 0 0 1 5-3 123 123 0 0 0 8.2 7 63.8 63.8 0 0 0 8.3 5l2 1Zm2.5 0Zm0 0a58 58 0 0 1-11.7-6.7 98 98 0 0 1-5.3-4.4l-2.6-2.3a9.5 9.5 0 0 1 2.6-.3c5 0 9.6 4 13 8a51.4 51.4 0 0 1 4 5.7ZM111 20.6c4 5.2 5.3 9.9 5.3 13.7a17.4 17.4 0 0 1-1.3 6.4 15.4 15.4 0 0 1-.8 1.8 54 54 0 0 0-5.4-7.6c-3.4-4.2-8.2-8.4-13.6-8.4a13.2 13.2 0 0 0-9.6 4.4 2.8 2.8 0 0 1-.5-.2.6.6 0 0 0-.3-.1 2.9 2.9 0 0 0-.9.2h-.2v-.1a2.7 2.7 0 0 0-.7-.8l-2-1.3a1.4 1.4 0 0 0-.6-.2h-.4V28a1.2 1.2 0 0 0-.3-.7l1.4.1-4.3-2.2c7.7-1.9 21.6-2.4 33-6a18 18 0 0 1 1.3 1.4Zm-34.7 3.9-.2-1.5c17.5-3.8 28.4-1.8 45.3-10.4-11.5 9.2-34.5 9.2-45 11.9Zm4.2-9.6.7-.2A46 46 0 0 1 93 13.2a25 25 0 0 1 14.5 4c-10.1 2.6-19.1 2.4-31.4 5.1v-.1a.5.5 0 0 0 0-.2.8.8 0 0 0-.6-.2h-.1l-3.6.3a15.8 15.8 0 0 0 5.7-3.1 21 21 0 0 0 2.5-2.6 2.4 2.4 0 0 0 .6-1.4Zm-5 9.6L72.4 23l3-.3ZM69.5 13a27 27 0 0 1 2.7-1.2h.2a.9.9 0 0 0 .4.3 3.5 3.5 0 0 0 1.7.3h1.6a.8.8 0 0 0 .2.3c.4.3 1 .5 2.7.5a2.5 2.5 0 0 1 .9 1.7 1.6 1.6 0 0 1-.4 1 21.4 21.4 0 0 1-2.5 2.5 15 15 0 0 1-6.1 3.2 1.5 1.5 0 0 0-.7-1.1 10 10 0 0 0-3-1.5l-.1-4.8a55 55 0 0 1 2.4-1.2ZM58 17a33.8 33.8 0 0 1 3.5-2.4 9 9 0 0 1 4-1.4 1.8 1.8 0 0 1 .8.2s0 4.2 0 5.4a71.3 71.3 0 0 0-8.5-1.8Zm-44 7.5v-.3a5.6 5.6 0 0 1 1.4-2.1 5.8 5.8 0 0 1 4-1.6 68.8 68.8 0 0 0 2 15.4l-.2.2a8 8 0 0 1-1 1 2.1 2.1 0 0 1-1.2.6.7.7 0 0 1-.4-.1A21.7 21.7 0 0 1 14 24.5Zm-3.6 2.3a5.3 5.3 0 0 1 2.8-2v.4c0 2.2.6 7 4.6 12.8a2.6 2.6 0 0 1-.4 1 1.8 1.8 0 0 1-1.5.8 18.6 18.6 0 0 1-4.8-5.8 15.4 15.4 0 0 1-1-2.1l-.1-.6-.1-.2V31a6.5 6.5 0 0 1-.2-1.4 5.1 5.1 0 0 1 .8-2.8ZM8 35a4.2 4.2 0 0 1 1.4-3 18.8 18.8 0 0 0 6 8.3 3.4 3.4 0 0 1-.5.8 2.5 2.5 0 0 1-1.3.8 14.7 14.7 0 0 1-3.5-2.6 13 13 0 0 1-.9-1l-.1-.2-.2-.1a5.7 5.7 0 0 1-1-3Zm1.7 9A4.3 4.3 0 0 1 8.3 41a6.5 6.5 0 0 1 .3-1.9 15 15 0 0 0 4.4 3.6v.4a3.6 3.6 0 0 1-.3 1.5 1.3 1.3 0 0 1-1.2.8h-.1A5.8 5.8 0 0 1 9.6 44ZM26 37.3a4.8 4.8 0 0 1-1.7 2.5 2 2 0 0 1-1 .2 1 1 0 0 1-.5-.2l-.9-.5.3 1a3 3 0 0 1 0 .5 3.5 3.5 0 0 1-1.1 2.5 4.7 4.7 0 0 1-1.2.9 5 5 0 0 1-.5.2h-.2l-.4.2.2.3.2 1a7.3 7.3 0 0 1 .3 1.5 5.6 5.6 0 0 1-.6 2.6 8.7 8.7 0 0 1-1 1.4l-.4.4h-.1l-.2.2v.3l.1.7.2 1v1a5.3 5.3 0 0 1-.4 2 4.3 4.3 0 0 1-2.5 2.5 6.6 6.6 0 0 1-2.5.5l-.8-13.3.2-.4V46a2.1 2.1 0 0 0 2-1.2 4.3 4.3 0 0 0 .4-1.9v-.3a3.4 3.4 0 0 0 1.8-1.3 4.1 4.1 0 0 0 .5-.8 2.6 2.6 0 0 0 2.2-1.4 3.4 3.4 0 0 0 .3-.8 1.4 1.4 0 0 0 .4 0 3.5 3.5 0 0 0 2.2-1.1 7.5 7.5 0 0 0 .6-.7 1.9 1.9 0 0 0 .5.3 3.5 3.5 0 0 0 1.3.2 10.6 10.6 0 0 0 2.4-.3l-.1.5Zm1.1-1.6-1.1.3a9.6 9.6 0 0 1-2.3.3 2.7 2.7 0 0 1-1 0 .7.7 0 0 1-.4-.4 68.9 68.9 0 0 1-2-15.6c.3-.4 1.4-2.3 4.8-2.3a10.9 10.9 0 0 1 2.3.3 25.4 25.4 0 0 0-1.4 8.3 24.5 24.5 0 0 0 1.6 8.9l-.5.1Zm3.5-.7a9.4 9.4 0 0 0-2.2.3 23.7 23.7 0 0 1-1.6-8.7 25.6 25.6 0 0 1 .7-6.1l.5-1.8.2-.5a7 7 0 0 1 4.5-1.6 7.6 7.6 0 0 1 2.7.5c-.7 1.1-2.6 4.5-2.6 10.6a38.2 38.2 0 0 0 1 8.2c-.5-.2-1-.4-1.3-.7h-.1a6.8 6.8 0 0 0-1.8-.2Zm-.8 5.8a6 6 0 0 1 .3-1.7l2 .5a7.5 7.5 0 0 0 0 1.2 17.1 17.1 0 0 0 .1 2.4l-2 .1a10.2 10.2 0 0 1-.4-2.5Zm4.1 8.4a10 10 0 0 0 1.5 3.4 6.2 6.2 0 0 1-2.1-2.7s-.3-.3-.6-.9a25.2 25.2 0 0 1-2-4l1.6-1.4a26.6 26.6 0 0 0 1.6 5.5Zm-1.6-10-1.5-1.5a4.9 4.9 0 0 1 2-1.4l.4.2 1.2.5Zm5.7.2a2.4 2.4 0 0 1 .5-1c.6.3 1.3.4 1.9.6l1.1 1.5Zm6.4 9.6v.8l-.2 1.6a7 7 0 0 0-.7-1.2l-.3-.6a17.5 17.5 0 0 1-1.4-4.4l1.5-1.4a13.3 13.3 0 0 1 1.1 5.1Zm-2.7-8.3a20.3 20.3 0 0 1 1.4 2.5l-1.6.1a5.7 5.7 0 0 1-.5-.2 8.8 8.8 0 0 1-2-1.3 4.8 4.8 0 0 1-.5-.7Zm4.3-.9h2.7v1.7l-2.5-.6a3.8 3.8 0 0 1-.2-1.1Zm5.2 7.6v.2a20.2 20.2 0 0 1 .8 3l.2 1.5a14.1 14.1 0 0 0-2-2.2 1 1 0 0 0-.6-.2 1 1 0 0 1-.2-.7 5 5 0 0 1 .2-1.2 4.1 4.1 0 0 1 .1-.4H51Zm-1.2-3.2a27.6 27.6 0 0 1 1 2.6l-2.3-1.2A26.5 26.5 0 0 1 47 43l-.4-.8 2-.6 1.3 2.4ZM47.4 39a32.4 32.4 0 0 1-12.9-2.8 38 38 0 0 1-1-8.5 21.2 21.2 0 0 1 1.4-8.1 11.3 11.3 0 0 1 1-1.9l.3-.4.1-.1a.6.6 0 0 1 .2-.1c.5-.3 2-.8 5.7-.7a100.3 100.3 0 0 1 14 1.2 62.4 62.4 0 0 1 11.7 2.5 7 7 0 0 1 1.9 1l.4.5a.4.4 0 0 1-.2.3l-.1.1-.5.2 8.2 4.2-1.5-.4-3.3-1a16.8 16.8 0 0 0-3.4-.3 7.7 7.7 0 0 0-1.1 0 3 3 0 0 0-2.7 2.1 2.5 2.5 0 0 0 0 .7 2 2 0 0 0 1.1 1.7 7 7 0 0 0 2.6.7 14.2 14.2 0 0 0 1.5 0 21.1 21.1 0 0 0 2.3 0 7.7 7.7 0 0 0 1.1-.3l.4.1a11.3 11.3 0 0 1 1.2.6l.4.2-.7 3.4-3.2-.6h-.1l-5.5.8-4.2.9a12.5 12.5 0 0 0-3 1h-.1a24.3 24.3 0 0 1-12 3Zm6.2.3v-.2a23.5 23.5 0 0 0 5.5-2 9.1 9.1 0 0 1 4.5 1.3 14.5 14.5 0 0 0-5.9 3.2 6 6 0 0 0-1.4 2.2c-2.4-1.8-2.7-3.6-2.7-4.5Zm5 11.5-.3-.3v-.6a1.3 1.3 0 0 0-.3-.4 9.2 9.2 0 0 1-1-2.2 1.3 1.3 0 0 0-.5-.6 1.4 1.4 0 0 1 0-.2 2.9 2.9 0 0 0 .3-.9 4.8 4.8 0 0 1 1.5-3.3 13.8 13.8 0 0 1 5.5-3l.7.1a11 11 0 0 1 5 2.8 30.2 30.2 0 0 0-6.9 2 9.6 9.6 0 0 0-3 2 4 4 0 0 0-1.2 2.7 4.5 4.5 0 0 0 .4 1.7c-.2-.1-.2.1-.3.1Zm53.5 6c-3.3 4.2-9.2 8.4-19.9 9.5l-4.7.2A31.2 31.2 0 0 1 66 58.8a26.6 26.6 0 0 1-4.5-5.2 19.8 19.8 0 0 1-1-1.7l-.3-.5-.1-.2a4.2 4.2 0 0 1-.8-2.2 3.2 3.2 0 0 1 1-2.3c2-2.1 6.7-3.5 11.8-4.2a.6.6 0 0 0 .4-.2 2.6 2.6 0 0 0 .2-.3 1.6 1.6 0 0 0 .3.2.8.8 0 0 0 .4.2h.1l1-.1a1 1 0 0 0 .5-.2 4.6 4.6 0 0 0 .6-.5l.3.1a2.6 2.6 0 0 0 1 .4l2-.1a1 1 0 0 0 .5-.2 3 3 0 0 0 .5-.3 3.6 3.6 0 0 0 .2.3.8.8 0 0 0 .5.2H82a3 3 0 0 0 .6 0 1.5 1.5 0 0 0 .6-.4l.2.1a4 4 0 0 0 .4.3 1.1 1.1 0 0 0 .4.2 6.8 6.8 0 0 1 1 .2h.2a2.5 2.5 0 0 0 1-.3l.2-.1.4.3.7.6a3.3 3.3 0 0 1 .3.2l-.1.1a6.3 6.3 0 0 0-2.2 4.5 4.3 4.3 0 0 0 .8 2.5h.2a29.8 29.8 0 0 0 10.6 2 38.4 38.4 0 0 0 18.6-5.2 18.8 18.8 0 0 1-3.9 9.8Z"/><path d="M116.8 52.5a2.4 2.4 0 1 1 2.4 2.3 2.3 2.3 0 0 1-2.4-2.3Zm4.3 0a1.8 1.8 0 0 0-2-2 1.9 1.9 0 0 0 0 3.8 1.8 1.8 0 0 0 2-1.8Zm-.9 1.2h-.6l-.3-.6h-.4v.6h-.6v-2.5h.9a1 1 0 0 1 1 1 .9.9 0 0 1-.5.7Zm-1-1a.4.4 0 0 0 .5-.5.4.4 0 0 0-.5-.5h-.3v1Z"/></svg>