<svg id="Layer_1" data-name="Layer 1" xmlns="http://www.w3.org/2000/svg" viewBox="0 0 136.3 77.6"><defs><style>.cls-1{fill:#231f20}.cls-1,.cls-2,.cls-3{fill-rule:evenodd}.cls-2{fill:#de2e2e}.cls-3{fill:#fdfdfd}</style></defs><path class="cls-1" d="M84.5 63.7a.7.7 0 1 1-.6.7.6.6 0 0 1 .6-.7Zm0 .1a.6.6 0 1 0 .5.6.5.5 0 0 0-.5-.6Zm-.1 1h-.1V64h.2a.4.4 0 0 1 .2 0 .2.2 0 0 1 0 .4v.2a.4.4 0 0 0 0 .1.5.5 0 0 1 0-.1.1.1 0 0 0-.2-.2h-.1v.3Zm0-.5h.2l-.1-.2h-.1v.2ZM51.9 67h1.7a.9.9 0 0 0 .4-.1 1 1 0 0 0 .3-.3 1.2 1.2 0 0 0 .2-.3 1.3 1.3 0 0 0 0-.5 1.4 1.4 0 0 0 0-.4 1.5 1.5 0 0 0-.2-.4 1 1 0 0 0-.4-.3.8.8 0 0 0-.3 0h-1.7V67Zm-1 3v-6.3h2.7a1.7 1.7 0 0 1 .8.2 2 2 0 0 1 .6.5 2.3 2.3 0 0 1 .4.7 2 2 0 0 1 .2.7 2 2 0 0 1-.1.6 2 2 0 0 1-.3.6 1.8 1.8 0 0 1-.3.4 1.7 1.7 0 0 1-.6.3l1.5 2.4h-1l-1.5-2.2H52V70ZM64 70v-4.5L62.3 69h-.6l-1.9-3.5v4.6h-1v-6.3h1l2.2 3.8 2.1-3.8h1V70Zm9.7-6.2V70h-1v-2.8h-3.2V70h-1v-6.3h1v2.6h3.2v-2.7Zm3 3a3.3 3.3 0 0 1 .3-1 2.9 2.9 0 0 1 .6-1 3 3 0 0 1 1-.8 3 3 0 0 1 1.3-.3 2.7 2.7 0 0 1 1.4.4 2.5 2.5 0 0 1 1 1l-.8.5a1.7 1.7 0 0 0-.3-.4 1.7 1.7 0 0 0-.4-.4 2 2 0 0 0-.5-.1 2.5 2.5 0 0 0-.5 0 1.9 1.9 0 0 0-.8.2 2 2 0 0 0-.7.5 2.3 2.3 0 0 0-.3.7 2.6 2.6 0 0 0-.2.9 2.5 2.5 0 0 0 .2.8 2.3 2.3 0 0 0 .4.8 2 2 0 0 0 .7.5 1.9 1.9 0 0 0 .8.2 2 2 0 0 0 .4 0 1.8 1.8 0 0 0 .5-.3 1.8 1.8 0 0 0 .4-.3 1.5 1.5 0 0 0 .4-.5l.8.5a2 2 0 0 1-.5.6 2.5 2.5 0 0 1-.6.5 3.2 3.2 0 0 1-1.5.4 2.6 2.6 0 0 1-1.2-.3 3.2 3.2 0 0 1-1-.7 3.5 3.5 0 0 1-.8-2.3"/><path class="cls-2" d="m82.9 9.8.1 1.6c-.5 0-.1.7-.6.7-.7 2.3-3 2-4 4.1a3.7 3.7 0 0 0-.9 2.3l-.4.3.3.1v.5h-.7c-.6-1.7 1-3.4.3-5.2-1.2-1.5-3.8-2.8-2.6-5 .3.1.5-.2.6-.4s0-.2-.1-.2c.6-1 1.8-.6 2.6-.7.3 0 .6.3.8.5.6-.3.9-1 1.8-.7l.2-.3c1 .6 2.6.8 2.6 2.4"/><path class="cls-3" d="M81.8 9.5a4.2 4.2 0 0 1-.2 2.2c-.1.2-.8.3-.8.8h-.2l-2.5 2.3c-.2-1.7-1.8-2-2.5-3.5-.6 0-.5-.8-.3-1.2a3.7 3.7 0 0 1 1.2-1.3 1.1 1.1 0 0 1 1.4 1c.7.1.5 1.2 1.3.9.3-.4.2-.6 0-1 0-.2-.4-.4-.2-.8.8-.5 2.5-.7 2.8.6"/><path class="cls-1" d="M67 16.5c.6 1.3 2 2.1 3 3l4 2.9c1-1 .2-3 1.1-4.1.6-.5 1 .5 1.7.8.7 0 1.5.3 1.9-.3.2.1.5.3.5.6-1.6 1.1-1.2 3.5-2 5 .2.6-.2.9 0 1.4 1.4 2 3.6 3.1 5.4 4.7.4-.1.6.2.7.4-.2 0-.3.2-.5.1-.7 2.3-.3 4.5-1 6.5.5.3 0 .8 0 1.1.4 2.4-.8 4.9.3 7.3 0 .4-.3.8-.1 1-.3 1.3.4 3.3 0 4.6a2.1 2.1 0 0 1-.2 1.3c.2 2 0 3.7 0 5.5 0 .3.4.6.7.4 0 .2-.4.7-.3 1a28.4 28.4 0 0 1-5.1-.3c-4.5.5-9.4 1-13.5-.1a46.5 46.5 0 0 1-10.7-.1c-.2.4-.7.1-1 .2-.4-.5-.8.3-1.1-.3.7-1.4-.3-2.8.3-4.2.1-3.3.1-6.8.4-10.1h.1c0-2.2.8-4 .6-6.2A22.3 22.3 0 0 0 52 33c-.2-.3-.9-.1-.8-.7-.2-.6 1.1-.8.9-1.7.2-.2.5 0 .7-.1a13.7 13.7 0 0 1 2-2.4c1.3-.8 1.8-2.2 3.2-2.9 2.3-2.4 5.1-4 6.9-6.7a3 3 0 0 0 1.1-1.7c-.7-.1-.4-.6-.3-1.1h.7l.1.2c.6 0 .7-.8 1.4-.7l-.8 1.4Z"/><path class="cls-3" d="M67.5 18.5c1 .5 1.5 1.5 2.6 1.9 0 .4.6.6.8.8.5.7 1.4 1.2 1.8 1.8a9.3 9.3 0 0 1 3.2 3.6c2 1.4 3.4 3 5.4 4.4a14.1 14.1 0 0 0 0 3.5c-.3.2 0 .9-.3 1.2a1.7 1.7 0 0 0-.2 1.5h-.2a13.1 13.1 0 0 1-.4 4.6c.3 1-.2 2.2.4 3.2 0 4.4 0 8.8-.3 13.2-.2.3-.7 0-.7.3h-.2c-.3-.6-.9 0-1.5-.3a54 54 0 0 1-6.4.7 34.2 34.2 0 0 1-6-.3v-.2a13.4 13.4 0 0 0-4.6 0c-1.8.6-3.9 0-5.9.2v-.2a2 2 0 0 0-1.4 0v.2c0-.4-.5-.2-.8-.3 0 .3-.6 0-1 0 .2-6.8.7-14.5 1.3-21.4a11.5 11.5 0 0 1 0-5.6c1-.7 1.4-2 2.6-2.6 3-4.1 7.6-6.1 10.1-10.6.6-1.1 1.3.1 1.7.4M77.7 20c-.2.7 0 1.9-.7 2.4l-.5 2.4c-.4 0-.3-.1-.5-.3-.4-.8-1.3-.8-1.6-1.6.3-1 .5-2.3.9-3.4 1-.2 1.4 1.1 2.4.5"/><path class="cls-1" d="M71.3 28.8a9.1 9.1 0 0 0 6.3 4 10.3 10.3 0 0 0 1.1-.2.3.3 0 0 1 .3.3l-.1.3-4 6c-.2.4-.8.1-.8.6l-.2.3a2 2 0 0 1 .1 1.7 10.6 10.6 0 0 0-1.7 2.5 12.4 12.4 0 0 0 .8 2 3.8 3.8 0 0 1 .3 1.6c.4-.1 1-.4 1.3 0a1.3 1.3 0 0 1 0 1.4 3.8 3.8 0 0 1-1.6 1.3c-.1.4-.2 1-.6 1.3a2.5 2.5 0 0 1-1.1.3 1.2 1.2 0 0 1-1 1c0 .3 0 .7-.3 1a1 1 0 0 1-.9.1 1.3 1.3 0 0 1-.8 1.1H68a1.6 1.6 0 0 1-1.5.4 2 2 0 0 1-.8-.5 1.3 1.3 0 0 1-1.2-.5 2.5 2.5 0 0 1-.4-.7 1.7 1.7 0 0 1-1.3-1.4l-.1-.6c-1.3-1.1-1-3-.5-4.3l.6-1.3-1.5-2.7c-.3 0-.7 0-.8-.2L59 41c-.3-.2-.6-.2-.8-.5l-3.2-6a.8.8 0 0 1 0-.6l.4-.3a5.2 5.2 0 0 0 3.4-1.5c.5-.4 1-1.1 1.6-.8l.2.2L64 38c0 .3-.2.4 0 .7l1 2.2c.2.3-.2.7.1 1l.1-.2a5.1 5.1 0 0 0 .4-2.7c0-1 1.2-1.4 2-1.6l.4-.7a1 1 0 0 1-.2-.9l3-6.8a.3.3 0 0 1 .4 0"/><path class="cls-2" d="M77.9 33.4a1.6 1.6 0 0 1-.3.5c-2.7.4-5-1.2-6.7-3.1a2.2 2.2 0 0 1 .3-.7c1.7 1.9 3.9 3.6 6.7 3.3"/><path class="cls-3" d="M77 34.8a1.8 1.8 0 0 1-.3.4 8.3 8.3 0 0 1-6.4-3 2.2 2.2 0 0 1 .3-.6c1.7 1.8 3.8 3.3 6.4 3.2"/><path class="cls-2" d="M76.2 36s-.2.5-.5.4a8.7 8.7 0 0 1-6-2.8 2 2 0 0 1 .3-.7c1.7 1.7 3.7 3.1 6.3 3m-13 2c0 .7-.9 1-1.4 1.5l-1.3.6a.4.4 0 0 0 0 .4c.5.5 1-.2 1.4-.3a9.3 9.3 0 0 0 1.5-1l1 1.9a3 3 0 0 1-1.4 1.4 3.3 3.3 0 0 1-2 .6l-1.5-2.7a.7.7 0 0 1-.7-.4l-3-5.3c0-.2.3-.2.4-.3a6.9 6.9 0 0 0 3.7-2h.2Z"/><path class="cls-3" d="M75.4 37a1.7 1.7 0 0 1-.3.6 8.5 8.5 0 0 1-6-2.7 1.4 1.4 0 0 1 .3-.7 9 9 0 0 0 6 2.9"/><path class="cls-2" d="M74.6 38.2c0 .2-.2.3-.3.4a8.8 8.8 0 0 1-5.7-2.3c0-.2 0-.5.2-.6a9.4 9.4 0 0 0 5.8 2.5m-1.2 1.2a1.5 1.5 0 0 1-.8 1 3.2 3.2 0 0 1-3 0c-.6-.5-1.3-.9-1.4-1.8a2.2 2.2 0 0 1 .4-1.3 10.8 10.8 0 0 0 4.8 2"/><path d="M67.4 38.5a2.3 2.3 0 0 0 1.2 2.2 4.3 4.3 0 0 0 4.2.5l.5-.2a.5.5 0 0 1 0 .5 26.3 26.3 0 0 0-1.6 2.5c-.2 1.4 1.1 2.4 1 3.9a20.3 20.3 0 0 1-.3 2.9 4 4 0 0 0-2-3 1 1 0 0 0-.8 0 1.4 1.4 0 0 0-.4.7c-.3-.2-.6 0-.8 0a1.3 1.3 0 0 0-.7 1.2 1.2 1.2 0 0 0-.7 1v.8a3.2 3.2 0 0 0 0 3.2l.3.4a.7.7 0 0 1-.6 0c-1-.5-.9-1.6-.8-2.5 0-.5.3-1.3 0-1.7a.3.3 0 0 0-.5.2 6.8 6.8 0 0 0-.2 3.4 2 2 0 0 1-.6-2A15.1 15.1 0 0 1 65 50a.4.4 0 0 0-.2-.4c-.2 0-.3 0-.4.2a10.2 10.2 0 0 0-.5 3.6c-.4-.1-.5-.6-.6-.9a8.9 8.9 0 0 1 .4-3.2c0-.1 0-.4-.2-.4-.6 0-.5.7-.7 1.2l-.1 1a3.2 3.2 0 0 1-.1-2.5 50.2 50.2 0 0 1 3-5.6 7.6 7.6 0 0 0 1-3.4 1.3 1.3 0 0 1 0-1 1.6 1.6 0 0 1 .8-.3v.2Z" fill="#fcc33d" fill-rule="evenodd"/><path class="cls-3" d="M64.8 42.6c-.4 1-1 2-1.6 3l-1.1-2a10.3 10.3 0 0 0 2.5-1.4l.2.4"/><path class="cls-1" d="m66.9 44.6-.2 1a3.7 3.7 0 0 1 1.3-1.4.4.4 0 0 1 .3.3 9 9 0 0 1-.6 4 1.3 1.3 0 0 1-.5-.3 19.4 19.4 0 0 0 .8-2.9c0-.2.2-.5 0-.7-.4.2-.6.7-.9 1s-.5 1.2-.8 1.8c-.1-.2-.8-.3-.5-.7a8.5 8.5 0 0 0 .8-2.8.1.1 0 0 0-.2 0 9.8 9.8 0 0 0-1.7 2.6l-.4-.3a6.5 6.5 0 0 1 2.3-2.7.3.3 0 0 1 .2 0c.2.4 0 .8 0 1"/><path class="cls-3" d="M74.4 48.5c0 .6-.6.8-1 1v-.8a2.5 2.5 0 0 1 .9-.3Zm-3 1.4c.1.4.5 1 0 1.4h-.1a6.7 6.7 0 0 0-1.5-2.5c0-.1 0-.3.2-.4.8 0 1 1 1.4 1.5m-1.3.4c.2.6 1.1 1.5.3 2a9 9 0 0 0-2-2.5.6.6 0 0 1 0-.5.5.5 0 0 1 .4-.3c.6.2 1 .8 1.2 1.3m-.8 1.2a4.5 4.5 0 0 1 .7 1.7.5.5 0 0 1-.4.4h-.3c-.3-.8-.5-2-1.5-2.3a1 1 0 0 1 0-.9.4.4 0 0 1 .5 0 2.9 2.9 0 0 1 1 1.2m-1.1.9a4.4 4.4 0 0 1 .4 1.7c0 .2-.2.4-.4.4-.6 0-.6-.8-.8-1.2a1.8 1.8 0 0 1 .1-1.2c.3-.3.6 0 .7.3"/><path class="cls-1" d="M84.3 58.6h.1c.2 0 .3 0 .3-.2s0-.2-.3-.2h-.1Zm0 .7h-.2v-1.2a3.3 3.3 0 0 1 .3 0 .7.7 0 0 1 .4 0 .3.3 0 0 1 .1.3.3.3 0 0 1-.2.3q.2 0 .2.3a1 1 0 0 0 .1.3h-.2a1 1 0 0 1-.1-.3c0-.2-.1-.2-.3-.2h-.1Zm.2-1.6a1 1 0 0 0 0 1.9 1 1 0 0 0 0-1.9Zm0-.2a1.1 1.1 0 1 1-1 1.2 1 1 0 0 1 1-1.2Z"/></svg>