<svg id="Layer_1" data-name="Layer 1" xmlns="http://www.w3.org/2000/svg" viewBox="0 0 136.3 77.6"><defs><style>.cls-1{fill:#ea212e;fill-rule:evenodd}</style></defs><path class="cls-1" d="M66.4 26.2a2 2 0 1 0-2-2 2 2 0 0 0 2 2ZM66.4 30.9a2 2 0 1 0-2-2 2 2 0 0 0 2 2ZM58.9 29.7a2 2 0 0 0 4.1 0 2 2 0 0 0-4.1 0ZM71.9 31.5a2 2 0 1 0-2-2 2 2 0 0 0 2 2ZM72.9 26.9a2 2 0 1 0 0-4.2 2 2 0 0 0 0 4.2ZM59.9 27a2 2 0 1 0 0-4.1 2 2 0 0 0 0 4.1ZM77.1 29.3a2.1 2.1 0 0 0-1 .3 2 2 0 0 0-1 1.8 2 2 0 0 0 1 1.7 2.2 2.2 0 0 0 1 .3 2 2 0 1 0 0-4ZM79.1 25a2 2 0 1 0 2.1 2 2 2 0 0 0-2-2ZM76 34.3a19.8 19.8 0 0 0-19-.1 1.6 1.6 0 0 1-.3.1c-.6.5-.8 1-.5 1.4s.4.4.8.3a2 2 0 0 0 .5-.1c6.2-3.4 12.6-3.6 18.4 0a.5.5 0 0 1 .2 0 .9.9 0 0 0 .9-.2 1 1 0 0 0-.3-1 6 6 0 0 0-.6-.4Z"/><path class="cls-1" d="M75.8 36.5c-5.1-3.4-11.1-3.8-18-.3-.6.4-.8.8-.6 1.2s.7.4 1.2.2c5.6-3 11.4-3.3 16.7 0a.8.8 0 0 0 1-.1 1.3 1.3 0 0 0 0-.6 1 1 0 0 0-.3-.4ZM58 31.5a2 2 0 0 0-1-1.8 2 2 0 0 0-1.1-.3 2 2 0 0 0 0 4.2 2.1 2.1 0 0 0 1.1-.4 2 2 0 0 0 1-1.7ZM55.7 27a2 2 0 1 0-2 2.2 2 2 0 0 0 2-2.1ZM45 42c.2-.8.1-1.4-.4-1.7a1.6 1.6 0 0 0-1.5-.4 3.6 3.6 0 0 0-.4.2l-4.1 4.4-4.4-4.4a1.4 1.4 0 0 0-1.6 0 1.7 1.7 0 0 0-.3.3 1.8 1.8 0 0 0-.2 2l.5.6 4.6 5v6c.3.9.9 1.3 1.5 1.2a1.6 1.6 0 0 0 1.6-1v-6.4l2.8-3.4L45 42ZM49.2 48.8h-1a10.6 10.6 0 0 1 1-1.5 9 9 0 0 1 1-1v2.4Zm3.1-9.2a1.5 1.5 0 0 0-1.7.7L49.2 42l-6 8.3-2 2.7a1.6 1.6 0 0 0 .6 1.8 2.1 2.1 0 0 0 1.3.4 2.2 2.2 0 0 0 .8-.3L46 52h4.2v2a1.7 1.7 0 0 0 1.7 1.2 1.5 1.5 0 0 0 1.6-1.3v-13c-.1-.8-.5-1.3-1.3-1.3ZM25.7 51.9a4.2 4.2 0 1 1 4.2-4.2 4.2 4.2 0 0 1-4.2 4.1Zm0-12a7.7 7.7 0 0 0-7.5 6 8.1 8.1 0 0 0-.3 1.8 8.4 8.4 0 0 0 .3 1.7A7.7 7.7 0 0 0 32.6 51a7.8 7.8 0 0 0 .8-3.4 7.7 7.7 0 0 0-7.7-7.6Z"/><path class="cls-1" d="M12.6 46.9A1.7 1.7 0 0 1 11 45a1.7 1.7 0 1 1 3.5 0 1.7 1.7 0 0 1-1.8 1.8Zm5.6 6.2-2.5-3.6L17 48a5.5 5.5 0 0 0 .9-3.3 5 5 0 0 0-1.5-3.3 4.5 4.5 0 0 0-3.5-1.4h-.2a6.5 6.5 0 0 0-3.2 1.3A6.4 6.4 0 0 0 7.6 44l.2 9.5c.2 1.3.8 2 1.8 1.9a1.6 1.6 0 0 0 1.6-1.3v-4a.3.3 0 0 1 .2-.5c.4.1.5.5.7.7a5 5 0 0 0 .5.7l3.3 4a1.7 1.7 0 0 0 2-.1 2 2 0 0 0 .3-.4 1.6 1.6 0 0 0 0-1.5ZM112.5 39.6a1.6 1.6 0 0 0-1.7 1.5v12.6a1.6 1.6 0 0 0 1.7 1.3 2 2 0 0 0 1.9-1.3V41a1.7 1.7 0 0 0-1.9-1.4ZM127 39.5a1.6 1.6 0 0 0-1.6 1.1v7.5l-4.8-8.1a2.2 2.2 0 0 0-3.6 1.1v12.7c0 .8.6 1.2 1.7 1.1a1.6 1.6 0 0 0 1.5-1.1v-8l4.8 8.3a1.7 1.7 0 0 0 1.9.8 2 2 0 0 0 1.8-1.4V40.6a1.7 1.7 0 0 0-1.7-1.1ZM106.7 39.6a1.7 1.7 0 0 0-1.5 1.1v7.6l-5-8.2a2 2 0 0 0-2.2-.3 2 2 0 0 0-1.4 1.5v12.6c0 .8.6 1.2 1.7 1.2a1.6 1.6 0 0 0 1.7-1.2v-8l4.8 8.3a1.6 1.6 0 0 0 1.9.8 2 2 0 0 0 1.8-1.4V40.8a1.7 1.7 0 0 0-1.8-1.2ZM80.6 50a5.2 5.2 0 0 1-3 1.8 3.5 3.5 0 0 1-3-.7 4.5 4.5 0 0 1-1.6-2.4 5.7 5.7 0 0 1 0-2.8 3.8 3.8 0 0 1 1.7-2 4.4 4.4 0 0 1 2.4-.6 5 5 0 0 1 3 1.2 1.8 1.8 0 0 0 2.2 0 1.8 1.8 0 0 0 0-2.3c-.1-.4-1.1-2.4-5.4-2.5a7.7 7.7 0 0 0-7.7 7.7 7.7 7.7 0 0 0 7.7 7.7c4.3 0 5.3-2 5.8-2.8a1.7 1.7 0 0 0-.2-1.9 1.7 1.7 0 0 0-2-.3ZM88.1 48.8h-1v-2.5l1 1a12.8 12.8 0 0 1 .9 1.5h-.9Zm0-6.8-1.4-1.7a1.5 1.5 0 0 0-1.7-.7 1.3 1.3 0 0 0-1.3 1.3v13a1.4 1.4 0 0 0 1.6 1.3A1.7 1.7 0 0 0 87 54v-2h4.2l2.2 2.9a1.9 1.9 0 0 0 2.1-.1 1.6 1.6 0 0 0 .6-1.8c-2.6-3.7-5.2-7.4-8-11ZM63 51.7h-4V40.9c0-1.7-3.3-1.7-3.3 0V54c0 .6.3.8.6.9h6.8c1.7 0 1.7-3.3 0-3.2Z"/></svg>