<svg id="Layer_1" data-name="Layer 1" xmlns="http://www.w3.org/2000/svg" viewBox="0 0 136.3 77.6"><defs><radialGradient id="radial-gradient" cx="1334.2" cy="-30.3" r="2" gradientTransform="matrix(6.31 0 0 -6.31 -8355.6 -149.6)" gradientUnits="userSpaceOnUse"><stop offset="0" stop-color="#e72521"/><stop offset=".4" stop-color="#d1211d"/><stop offset=".7" stop-color="#a71916"/><stop offset=".8" stop-color="#ba1d19"/><stop offset=".9" stop-color="#e72521"/></radialGradient><radialGradient id="radial-gradient-2" cx="1333.3" cy="-29.1" r="1.4" gradientTransform="matrix(6.31 0 0 -6.31 -8355.6 -149.6)" gradientUnits="userSpaceOnUse"><stop offset="0" stop-color="#e36c52"/><stop offset=".5" stop-color="#e36a50"/><stop offset=".8" stop-color="#ea392c"/></radialGradient><style>.cls-1{fill:#00a363}.cls-2{fill:#00452a}.cls-3{fill:#fff}.cls-4{fill:#e9e9e9}</style></defs><path id="path14" class="cls-1" d="m40.9 22.4-.5.2-.1.6c-.9 3.3-1.7 6.2-2.6 10.2l-1.4 2.8.6.1 2.5-1.7c5.2-3.6 11.9-6.3 15.7-7.9-1 1.9-2 3.6-3.4 5.7a80 80 0 0 0-13.3 34.2l-1 2h.6l12-5.4a4.6 4.6 0 0 0 2.5-3.8c.6-13 5.7-25 10.4-33.4l2-3.7-1 .4-3.3-.6c.9-3 6.4-4.6 6.8-7.6L70 9.8l.1-.7s-12.8 6-29.2 13.3"/><path id="path16" class="cls-2" d="m37.5 68.6.3-2.3A80.5 80.5 0 0 1 51.3 32l3.2-5.4c-4 1.6-10.3 4.2-15.4 7.7l-2.7 1.8.8-3.1a375.2 375.2 0 0 1 2.6-10.2l.2-.6.5-.2C59.2 13.6 69.9 9 70 9h.2l-.4 2.6a81.3 81.3 0 0 1-2 10.6v.2l-2.4 4.2a99 99 0 0 0-12.7 32.5 5.7 5.7 0 0 1-3 4l-12.2 5.5"/><path id="path18" class="cls-3" d="M40.9 23.2c-1 3.5-1.7 6.4-2.6 10.2 7.6-5.2 18.6-9 18.6-9C52.8 34 43 42 39.1 66.4l9.5-4.3c2.4-1.4 2.7-3 2.8-3.8C53.7 43 62.3 29.8 66.5 21.7a86.8 86.8 0 0 0 2-10.8L41 23.2"/><path id="path20" class="cls-4" d="M67.4 12.5a59.6 59.6 0 0 1-1.6 8l-2.3 4.2a98 98 0 0 0-13 32.9c0 .8-.2 2-2.5 3.4l-6.6 3a2.8 2.8 0 0 0-1.8 1.7l8.8-4c2.3-1.3 2.5-2.7 2.6-3.5 1.9-13 8.2-24.2 12.8-32.4l2.3-4.2a80.4 80.4 0 0 0 2-10 1.6 1.6 0 0 0-.7.8M56.8 24A91.2 91.2 0 0 0 39 32.4a5.2 5.2 0 0 1 1.6-2 89.2 89.2 0 0 1 15.8-7.1l1-.4-.4.6a4.1 4.1 0 0 1-.2.4"/><path id="path22" d="M74.6 39.6A11.7 11.7 0 1 0 65 53a11.7 11.7 0 0 0 9.6-13.4" fill="url(#radial-gradient)"/><g id="g48"><path id="SVGID" d="M55.6 41.8H55a6.6 6.6 0 0 1-.6-2.1 6.8 6.8 0 0 1 6-7.5 6.9 6.9 0 0 1 2.9.3 4.7 4.7 0 0 1 0 .7 7.7 7.7 0 0 1-6.8 8.6 8.4 8.4 0 0 1-.8 0" fill="url(#radial-gradient-2)"/></g><path id="path60" class="cls-1" d="M98.8 16.1A3.7 3.7 0 0 0 96 15a7.3 7.3 0 0 0-2.9.7l-5.4 2.5-19 8.5h-.2a4.7 4.7 0 0 0-2.1 3.4L65.2 37l-.4 2a6 6 0 0 0 1.3 4.8 5.8 5.8 0 0 0 4.6 2 9.3 9.3 0 0 0 3.7-.9L86 39.4a8.3 8.3 0 0 0 3.5-5.3c0-.7.1-1 .2-1.3a.6.6 0 0 1 0-.1 3 3 0 0 1 0-.3l2.5-1.6c5.6-4 7.7-7 7.8-11.2a5.5 5.5 0 0 0-1.3-3.5"/><path id="path62" class="cls-2" d="M98.6 15.7a3.7 3.7 0 0 0-2.8-1 7.4 7.4 0 0 0-2.8.6l-5.5 2.5-19 8.5a4.7 4.7 0 0 0-2.3 3.4 167.8 167.8 0 0 1-1.6 8.8 5.9 5.9 0 0 0 1.3 4.8 5.8 5.8 0 0 0 4.5 2 9.3 9.3 0 0 0 3.8-.8L85.8 39a8.4 8.4 0 0 0 3.5-5.3c0-.7.1-1 .2-1.3a.4.4 0 0 1 0-.1V32a27.8 27.8 0 0 0 2.5-1.6c5.6-4 7.7-6.9 7.8-11.1a5.5 5.5 0 0 0-1.3-3.6"/><path id="path64" class="cls-3" d="M91 18.8H91L89 28.7a9.4 9.4 0 0 0 3.7-7.2c0-.3.5-3.7-1.7-2.6Zm7.7.5c-.3 7.8-9.9 11.8-10.2 12l-.1.8a.2.2 0 0 1 0 .1l-.2 1.3a7.2 7.2 0 0 1-2.9 4.5l-1.8 1a.5.5 0 0 1-.2 0l-1.9.9h-.1a13.2 13.2 0 0 0 .8-2.5c.7-5.7 2-14.2 2.4-15.5a3 3 0 0 1 1.5-2l7.5-3.5c5.2-2.3 5.3 2.6 5.2 2.9Zm-16.2 3.5c-.8 5.7-2.2 15-2.6 16.4a3 3 0 0 1-1.4 1.9l-4.8 2.3c-5.4 2.4-8.5-1.3-8-4.6l1.7-8.9a3.6 3.6 0 0 1 1.6-2.5l1-.4 4.2-1.9a15.3 15.3 0 0 0-1 3.1l-1.8 10.3c-.5 2.3.7 3.2 1.9 2.6a1 1 0 0 0 .6-.8s2-10.7 2.6-14.7a3.2 3.2 0 0 1 1.5-2.3c1.5-.8 4.4-2 5-2.2a4.3 4.3 0 0 0-.6 1.7"/><path id="path66" class="cls-4" d="M97.5 16.8a4.3 4.3 0 0 1 .4 1.8c-.2 6.8-7.6 10.7-9.8 11.7H88l-.2.1-.2 1-.2 1.4a6.8 6.8 0 0 1-2.7 4.2l-1.5.8a11.6 11.6 0 0 1-1.2 1.4l.6-.2.6-.3 1.9-1a6.8 6.8 0 0 0 2.7-4.2l.2-1.3.2-1 .1-.2h.1c2.3-1 9.6-5 9.9-11.7a4 4 0 0 0-.8-2.4Zm-15.2 5a1.7 1.7 0 0 0-.7 1.4c-1 5.9-2 14-2.4 15.3a2.7 2.7 0 0 1-1.3 1.7l-4.7 2.3a7.6 7.6 0 0 1-3.1.7 4.3 4.3 0 0 1-3.4-1.4.2.2 0 0 0 0-.1 4.6 4.6 0 0 0 .4.7 4.2 4.2 0 0 0 3.4 1.4 7.7 7.7 0 0 0 3-.7l4.8-2.3a2.5 2.5 0 0 0 1.2-1.7c.4-1.3 1.8-10.4 2.6-16.3a7 7 0 0 1 .2-1Zm7.5-2.3-1.6 8.4-.2 1.3.6-.4 1.9-9.8a1.7 1.7 0 0 0-.7.5Zm-16.3 6.4A18.1 18.1 0 0 0 73 28l-1.2 6.6-.6 3.7a3.8 3.8 0 0 0 0 2.2 1.2 1.2 0 0 1-.1-.2 3.1 3.1 0 0 1-.4-2.6l.7-3.7 1.2-6.6a2.4 2.4 0 0 1 1-1.6"/><path id="path70" class="cls-2" d="m91.5 33.3.1-.1-.1-.1h-.2v.2h.2Zm-.4-.4h.4c.2 0 .3 0 .3.3a.3.3 0 0 1-.1.3l.2.3h-.3l-.2-.3v.3H91v-1Zm1 .4a.7.7 0 1 0-.7.7.7.7 0 0 0 .8-.7Zm-1.5 0a.8.8 0 0 1 .8-.8.8.8 0 1 1-.8.8"/></svg>