<svg data-name="Layer 1" xmlns="http://www.w3.org/2000/svg" viewBox="0 0 136.3 77.6"><circle cx="68.2" cy="38.8" r="30.2" fill="#fff"/><path d="M68 19.1a16 16 0 0 1 3 2.2l-.3.4a39.4 39.4 0 0 0-5 0c-.3-.1-.6-.4-.3-.6Zm30.1 21.2a5.2 5.2 0 0 1-.2 2.2c-3.1.9-5.2-2.4-8.2-2l.4 1.8c2.8 0 4.5 2.7 7.4 2.6-.4.8.2 3-1.6 2.1-2-.4-3.3-2-5.4-2-.2.4 0 1 0 1.6 2 .3 3.7 2.1 5.8 2.5a3.6 3.6 0 0 1-1 2c-1.7-.4-3.1-2-5-2l-.3 1.6c1.8 0 3 1.6 4.6 2 0 .7-.6 1.3-1 1.9-1.3-.4-2.4-1.7-4-1.6 0-.6.3-1.3.1-2-1.8.6-3-1.1-4.4-2.1 0-3.4-3.6-5.6-3.7-8.7a4.6 4.6 0 0 1 .3-2 10.8 10.8 0 0 0-.5-8.7 5 5 0 0 0-1.8-1.5c1 2 2.1 4.3 1.6 6.7-.1 2-1.2 3.8-1.2 5.6a3.8 3.8 0 0 0 .5 1.9c1.5 2.7 4.1 5.2 3.1 8.5-.2 1-1 1.8-1.2 2.9 1.6 1.4 3.3 3 5.6 3.1.8-.5.4-2.8 2-1.8l2.5 1.3a4 4 0 0 1-1.3 1.7 6.3 6.3 0 0 0-3-1 1.8 1.8 0 0 0-.6 1.3 5.5 5.5 0 0 1 2.3 1 5.8 5.8 0 0 1-1.5 1.6l-2-.7c-.3.5-1 1-.7 1.4a4 4 0 0 1 1.2.8 12.8 12.8 0 0 1-2.9 2.1c-.9-2.9-3.8-5-3.5-8.2l-.2-.2c-.6.8-.4 2-.4 3 .8 2 2.8 3.7 3 6-.3.6-1 .7-1.6 1 0-4.1-6.2-7.3-2.2-11.4 1.4-2 3.6-4 2.8-6.9s-3.7-4.4-3.7-7.4V40c.7-3.2 2.7-6.6 1-10a5.7 5.7 0 0 0-2.8-3.5A9.7 9.7 0 0 1 78 36a12.1 12.1 0 0 0-1.5 4.3 3.6 3.6 0 0 0 .6 2.2c1.6 2.6 4.3 5.4 2.7 8.7-1.7 2.6-4.8 5.3-3.1 8.8 1.2 2.1 3.2 4.2 2.7 6.8l-2 .7c1.3-4.8-5.4-7.6-2.6-12.4 1.8-2.6 4.8-5 3.1-8.4-1-2.1-3.2-3.4-3.1-6v-.4c.7-3.8 3.6-7.3 1.6-11.3a7 7 0 0 0-2.7-3h-.1a8.3 8.3 0 0 1 1.8 9c-.6 1.7-1.9 3.4-2.1 5.3a4.5 4.5 0 0 0 .4 2.7c1.5 2.3 4 4.8 2.4 7.8-1.7 2.5-4.5 5-3.4 8.2 1.3 2.8 3.9 5.5 2.5 9l-2.1.5c1.7-3.4-.9-6.8-2.3-9.8-1.8-4.2 3.8-6.3 4-10.2 0-2.5-2.7-4-3.3-6.2-1.2-1-2.4.3-3.7 0-1 .3-2.6-1.3-3.3.4-.7 2.6-4 4.5-2.5 7.5 1.4 2.7 4.7 4.7 3.6 8.2-1 3.3-4.3 6.4-2.3 10.1-.8-.2-2.4.3-2.4-1-1.3-4.6 4.3-7.3 2.6-11.8-.8-2.8-4.4-4.4-3.7-7.7.6-2.8 3.7-4.7 3.3-7.8a4.3 4.3 0 0 0-.2-.7C62 36.2 59.5 32.9 61 29a13.3 13.3 0 0 1 1.8-3 6.9 6.9 0 0 0-3.3 6.3c-.1 2.8 2 5.3 2.3 7.8a4.8 4.8 0 0 1-.8 3.3c-1.5 2-3.4 4-2.5 6.7s4.1 4.3 4 7.4c0 3.6-4.3 5.9-3 10l-2.2-.7c-.8-3.7 3-5.5 3-8.9.6-3.8-4.3-5.3-4-9 0-2.9 2.5-4.7 3.6-7.1a4.5 4.5 0 0 0 .2-1.7c-.1-2.6-2.5-4.7-2.1-7.7a9.5 9.5 0 0 1 2.3-5.8c-2 .8-2.8 3-3.3 5-1 3 1.3 5.8 1.5 8.5A4.5 4.5 0 0 1 57 44c-1.6 2-3.3 4.4-2.1 7 1.2 2.9 5.2 5 3.5 8.7-1 2.2-3.2 4-3.1 6.6a5.7 5.7 0 0 1-1.7-1c0-3.4 4.8-5.5 2.5-9.1l-.4 2.5c-.8 2-2.5 3.7-3.1 5.8a9.3 9.3 0 0 1-3-2.2l1.1-.7a3.8 3.8 0 0 0-.8-1.2c-.8-.2-1.3.4-2 .6a9.7 9.7 0 0 1-1.6-1.6c.5-1.2 3.6-.2 2-2.1-1-.7-2.1.3-3 .7l-1.4-1.6c1.1-.7 2.2-1.6 3.6-1.3.4.6.4 1.5 1 1.8 2.4 0 4-1.8 5.8-3.2-1.2-1.9-2.3-4.4-1.1-6.7.8-2.2 3.2-4.1 3.3-6.6a4.3 4.3 0 0 0-.3-1.8c-1.3-3.2-1.7-7.5.6-10.3-1.2.4-2 2-2.4 3.2-1.4 3 .4 6 .4 8.9a6.3 6.3 0 0 1-.1 1.6c-1.2 2.4-3.2 4.5-3.5 7.3-1.4 1-2.5 2.4-4.5 2A5.3 5.3 0 0 0 47 53c-1.6 0-2.6 1-4 1.6-.7-.2-.9-1.1-1.1-1.7 1.5-.6 2.6-2.1 4.4-2 .2-.6-.1-1.1-.2-1.7-2.2-1-5.7 4.9-6-.2 2.2-.1 3.6-2.2 5.8-2.4V45c-2.4-.3-4 2.3-6.5 2l-.5-2.2c2.8.2 4.5-2.4 7.2-2.5a3.7 3.7 0 0 0 .5-1.8c-3-.4-5 2.9-8.2 1.9l-.1-2.2v-.5c2.7 1.1 5.2-1 7.6-2 .6-.2 1.6.1 1.9-.5 0-.6.9-1.2.1-1.5-3.5-.5-5.9 3.7-9.5 1.8l-.2-.5a30.4 30.4 0 0 1 16.1-25A28.1 28.1 0 0 1 68 8.6c5.9 0 11.8 1.5 16.3 4.6a29.7 29.7 0 0 1 14 24.2c-3.8 2.8-6.3-2.7-10-1.5a5 5 0 0 0 .7 1.7c3.4 0 5.7 3.5 9.2 2.1v.6ZM55.3 27.6c-2.3-1.5-5.3 0-7.5.8A7.4 7.4 0 0 0 45 23a1.8 1.8 0 0 0-.6-.3.4.4 0 0 0-.4.2c.8 4.9-2.4 8.3-4.6 12a3.6 3.6 0 0 0 2.8.3c2.4-1 4.7-2.6 7.5-2a21.4 21.4 0 0 1 3.4-4c.7-.6 1.7-1 2.2-1.7Zm7.3 3c0 .4 0 .9.4.7.7-1 2-.2 2.7-.1v-.3a2.4 2.4 0 0 0-2.1-1 2.5 2.5 0 0 0-.6.1.5.5 0 0 0-.4.7Zm11-2.8a4.7 4.7 0 0 0-3.4-2.4 18.6 18.6 0 0 0-2-.1H68a5.6 5.6 0 0 0-4.8 2c-.1.5-.8 1-.2 1.5 1.5-.1 3.1-.3 4 1 0 1 .7 2.5-.4 3-1-1-2.2.4-3.2-.3-.5-.3-.9 0-1 .4a8 8 0 0 0 3.8 7.5 4.8 4.8 0 0 0 3.6.2c2.7-1.2 3.8-4 4.3-6.7 0-.5 0-1.5-.8-1.5a3.9 3.9 0 0 1-2.8 0c-.5.1-.5.9-1 1L69 33c-.3-1.2-.5-3 .7-3.8a6.4 6.4 0 0 1 4.1-.4c.3-.4-.1-.7-.2-1.1ZM72.3 30H72c-.5.3-1.9 0-1.4 1.2.9-.7 2.1-.2 3 0 .3 0 .2-.4.2-.7-.2-.5-.9-.5-1.5-.5Zm9.9-9.6c-1.7 0-3.1.9-4.7 1.3 0-1.3.9-2.7 1.1-4-2.5.2-4.4 1.7-6.5 2.9L70.7 17l2.7-2.6v-.4l-3.6-.2a33.4 33.4 0 0 0-1.7-3.4L66.5 14l-3.7.2v.3l2.8 2.5a9 9 0 0 1-1.5 3.7 33 33 0 0 0-5-2.7c-.4-.2-1-.4-1.4-.1.6 1.2 1.4 2.6 1.2 4-.7-.1-1.3-.6-2-.8a5 5 0 0 0-2.7-.4 14.8 14.8 0 0 1 2.8 6.1 25.3 25.3 0 0 1 15.3-2.4 36.8 36.8 0 0 1 7.2 2.3c.1-2.4 1.6-4.4 2.7-6.3Zm7.7 13c2.4.7 4.7 3.2 7.1 1.6-2.1-3.6-5.3-6.8-4.4-11.5a.5.5 0 0 0-.4-.7 6 6 0 0 0-3 3.3 20.5 20.5 0 0 1-.7 2.4 9.7 9.7 0 0 0-5.4-1.5c-.8 0-1.8.1-2 .9a15.8 15.8 0 0 1 5.6 5.4 11.2 11.2 0 0 1 3.2.2Zm-24.2 3.3v.4c1 .6 1.2 1.6 2.4 1.5 1.1 0 2-1 2.5-1.8-1.5-.2-3.3.1-5-.1Zm1.2-1.9c0 .2-.1.5.2.6.7-.2 2 .4 2.4-.5a1.6 1.6 0 0 0-1.2-.5 2.5 2.5 0 0 0-1.4.4Z" fill="#176d35"/></svg>