<svg data-name="Layer 1" xmlns="http://www.w3.org/2000/svg" viewBox="0 0 136.3 77.6"><path d="M18.2 33.8h7.6v-4.7H17a5.4 5.4 0 0 0-2.2 10.3l5.4 2.6c1.3.6 1.1 1.8-.3 1.8h-7.7v-2.4L9 43.8 5.8 46 9 48.5l3.2 2.3v-2.3h9.1a5.4 5.4 0 0 0 5.4-5.3 4.7 4.7 0 0 0-1.7-4.1l-7-3.6c-.5-.3-.4-1.7.2-1.7Zm25.4-4.6v12.5a6.7 6.7 0 0 1-2.2 5.3 8.7 8.7 0 0 1-6 2 7.8 7.8 0 0 1-5.7-2 7.4 7.4 0 0 1-2-5.5V29.2h5.8V42a2.1 2.1 0 0 0 2.1 2.1 2.2 2.2 0 0 0 2.2-2.1v-13ZM56 48.5a5.4 5.4 0 0 0 2.6-10 5 5 0 0 0-2.6-9.3H45.3v19.3Zm-5-8h2.8a2 2 0 0 1 2 2 1.9 1.9 0 0 1-1.9 1.8H51v-3.8Zm0-7.1h2.3a1.7 1.7 0 0 1 1.7 1.7 1.6 1.6 0 0 1-1.6 1.6H51v-3.3Z" fill="#fdc82f"/><path d="M121.4 33.8v4a5.2 5.2 0 0 1-5 5.2v5.6h-6.2v-5.7a5.2 5.2 0 0 1-4.7-5.2v-8.6h5.7v7.7a1.8 1.8 0 0 0 1.8 1.9h.8a1.8 1.8 0 0 0 1.9-1.9v-4.2a3.5 3.5 0 0 1 3.5-3.5h5v-2.4l3.1 2.4 3.2 2.3-3.2 2.4-3.2 2.3v-2.3ZM93.8 48.5H88V36.2a7 7 0 0 1 2.2-5.5 9 9 0 0 1 6.2-2q3.9 0 5.7 1.8c1.3 1.2 1.9 3 1.9 5.5v12.5h-5.8v-5.6h-4.4v5.6Zm4.4-9.8v-3.3a2.2 2.2 0 0 0-2.2-2.1 2.2 2.2 0 0 0-2.2 2.2v3.2Zm-11.6-9.5v13.9a5.4 5.4 0 0 1-1.8 4.3A6.9 6.9 0 0 1 80 49h-.4a6.7 6.7 0 0 1-5-1.4A6 6 0 0 1 70 49H69a6.3 6.3 0 0 1-4.7-1.6 6.5 6.5 0 0 1-1.6-4.8V29.2h5.7v13.2a1.7 1.7 0 0 0 1.7 1.7 1.7 1.7 0 0 0 1.8-1.7V29.2h5.4v13.2A1.7 1.7 0 0 0 79 44a1.7 1.7 0 0 0 1.7-1.7V29.2Zm32.5 16.5a1.5 1.5 0 0 1 .7.2 1.4 1.4 0 0 1 .6.5 1.6 1.6 0 0 1 .2.7 1.4 1.4 0 0 1-.2.7 1.4 1.4 0 0 1-.6.6 1.5 1.5 0 0 1-1.4 0 1.3 1.3 0 0 1-.5-.6 1.6 1.6 0 0 1-.2-.7 1.4 1.4 0 0 1 .2-.7 1.4 1.4 0 0 1 .5-.5 1.5 1.5 0 0 1 .7-.2Zm0 .2a1.3 1.3 0 0 0-.6.2 1.1 1.1 0 0 0-.4.4 1.2 1.2 0 0 0 0 1.2 1.2 1.2 0 0 0 .4.5 1.3 1.3 0 0 0 .6.1 1.3 1.3 0 0 0 .6-.1 1.1 1.1 0 0 0 .5-.5 1.2 1.2 0 0 0 0-1.2 1.1 1.1 0 0 0-.5-.4 1.3 1.3 0 0 0-.6-.2Zm-.6 2v-1.5h.5a1.2 1.2 0 0 1 .4 0 .4.4 0 0 1 .2.1.4.4 0 0 1 0 .3.4.4 0 0 1 0 .3.5.5 0 0 1-.4 0 .4.4 0 0 1 .1.2 1.9 1.9 0 0 1 .3.3l.2.3h-.3l-.2-.3a1.2 1.2 0 0 0-.2-.3.3.3 0 0 0-.2 0h-.2v.6Zm.2-.8h.3a.6.6 0 0 0 .3-.1.2.2 0 0 0 0-.3.2.2 0 0 0-.1 0h-.6v.4Z" fill="#159749" fill-rule="evenodd"/></svg>