<svg id="Layer_1" data-name="Layer 1" xmlns="http://www.w3.org/2000/svg" viewBox="0 0 136.3 77.6"><defs><mask id="mask" x="37.9" y="24.1" width="28.9" height="29.3" maskUnits="userSpaceOnUse"><g id="mask-2"><path id="path-1" class="cls-1" d="M37.9 24.2h28.8v29.2H37.9V24.2z"/></g></mask><mask id="mask-2-2" x="98.9" y="24.1" width="28.9" height="29.3" maskUnits="userSpaceOnUse"><g id="mask-4"><path id="path-3" class="cls-1" d="M127.8 24.2v29.2H98.9V24.2h28.9z"/></g></mask><mask id="mask-3" x="8.6" y="24.1" width="26.3" height="14.6" maskUnits="userSpaceOnUse"><g id="mask-6"><path id="path-5" class="cls-1" d="M8.6 24.2h26.3v14.5H8.6V24.2z"/></g></mask><style>.cls-1{fill:#fff}</style></defs><g mask="url(#mask)"><path id="Fill-1" d="M66 24.1H54.4l-.7.7v14h-3v-14l-.6-.7H38.5l-.7.7v14l8 8v6l.6.6H58l.7-.7v-6l8-8V24.8l-.7-.7"/></g><g mask="url(#mask-2-2)"><path id="Fill-4" d="M127 24.1h-11.6l-.7.7v14h-3v-14l-.6-.7H99.6l-.7.7v14l8 8v6l.6.6H119l.7-.7v-6l8-8V24.8l-.7-.7"/></g><g mask="url(#mask-3)"><path id="Fill-7" d="M34.2 24.1H14.4L8.6 30v8l.7.7h12.4v-2.9h12.5l.7-.6V24.8l-.7-.7"/></g><path id="Fill-10" d="m9.3 41.6-.7.7v10.5l.7.6H29l5.8-5.8v-8.2l-.7-.7H21.7v2.9Z"/><path id="Fill-12" d="M95.3 24.1H75.5L69.6 30v22.8l.7.6H82l.6-.6V49h12.8l.7-.7v-9l-.7-.6H82.5v-3h12.8l.7-.6V24.8l-.7-.7"/></svg>