<svg id="Layer_1" data-name="Layer 1" xmlns="http://www.w3.org/2000/svg" viewBox="0 0 136.3 77.6"><defs><style>.cls-2{fill:#672f8c}</style></defs><g id="layer1"><g id="g3328"><g id="g3278"><path id="path3124" d="M67.3 8.8h-.2a18.2 18.2 0 0 0-7.6 1.8 3.2 3.2 0 0 1 .6-.1 1.6 1.6 0 0 1 .8.3l.7.8a1.8 1.8 0 0 0 .8.2l1.9-.2a10 10 0 0 1 1.9 0 10.8 10.8 0 0 1 2.6.7 14.6 14.6 0 0 1 2.9 1.7 23 23 0 0 1 2.3 2.2c1.1 1 2 2.3 3.2 3.3a6.4 6.4 0 0 0 1.6 1 16.3 16.3 0 0 0 2.9.6l.8.2a6.8 6.8 0 0 1 1.1.3 3.4 3.4 0 0 1 .8.4 22 22 0 0 0-2.9-5.8 18.3 18.3 0 0 0-14.2-7.4Z" fill="#9c80b7"/><path id="path3122" class="cls-2" d="M56.5 12.4a18 18 0 0 0-4.2 4.3 16.7 16.7 0 0 0-3.1 9.1v15c0 .4.1.5.4.5H54a2.7 2.7 0 0 1-1.3-1.1c-1.7-3.5 3.9-9.7 12.6-14.5l.7-.7-.6.1a41.5 41.5 0 0 0-11.1 7s-.7-3-1-4.5l-.5-2.7v-2.6a13.6 13.6 0 0 1 .3-2.6 16.6 16.6 0 0 1 1.3-2.5 17.8 17.8 0 0 1 1.5-1.8 1.3 1.3 0 0 0 .3-.7l-.1-.5a3.4 3.4 0 0 1-.1-.9 1.5 1.5 0 0 1 0-.5 3 3 0 0 1 .4-.4Z"/><path id="path3094" class="cls-2" d="M85 25.8a28 28 0 0 1-12.5 11.5 43 43 0 0 1-10.2 4h22.4c.2 0 .4-.1.4-.5v-15Z"/><path id="path3096" class="cls-2" d="M79.9 25.5c-2.5 0-7.4 1.7-12.5 4.6-7.6 4.3-11 8.6-9.7 9.3 1.8 1.1 7.4.6 15.2-4 3.3-1.8 9.3-6.3 8.5-9.2-.1-.5-.7-.7-1.5-.7Zm-11.7 5.2s1.7 3.3-1 5.3a4.5 4.5 0 0 1-6.2-.2 24.5 24.5 0 0 1 7.2-5Z"/></g><g id="g3261"><g id="text3143"><path id="path3167" d="M55.7 66.4a1.4 1.4 0 0 0 1-.3.9.9 0 0 0 .2-.7.9.9 0 0 0-.3-.7 1.4 1.4 0 0 0-.9-.3h-2.4v2Zm-.8-4a1.4 1.4 0 0 0 1-.3.8.8 0 0 0 .2-.7.8.8 0 0 0-.3-.7 1.4 1.4 0 0 0-.8-.2h-1.7v1.9ZM51 58h4.6a4.1 4.1 0 0 1 1.5.3 2.7 2.7 0 0 1 1 .6 2.4 2.4 0 0 1 .6.7 3.6 3.6 0 0 1 .1 1.1v.1a2.6 2.6 0 0 1-.5 1.5c-.3.4-.7.4-1 .6a3.8 3.8 0 0 1 2 1.2 2.6 2.6 0 0 1 .4 1.7 2.7 2.7 0 0 1-.9 2.2 5.7 5.7 0 0 1-3.1.8h-4.8Z"/><path id="path3169" d="M60.6 58h8v2.3h-5.4v2h4.6v2.1h-4.6v2.1h5.6v2.3h-8.2Z"/><path id="path3171" d="M69.9 58h2.7v8.5h4.9v2.3h-7.6Z"/><path id="path3187" d="M78.5 58h2.8v8.5h4.8v2.3h-7.6Z"/></g><g id="g3255"><path id="path3157" d="M50.8 47.7h-3.3v-2.2h9.3v2.2h-3.3v8.6h-2.7Z"/><path id="path3159" d="m61.7 52.5-1.3-3.7-1.4 3.7Zm-2.3-7h2.2L66 56.3h-3l-.5-1.6h-4.3l-.6 1.5h-2.7Z"/><path id="path3163" d="M81 45.3a6.3 6.3 0 0 0-2.2.5 5.4 5.4 0 0 0-1.7 1.2 5.2 5.2 0 0 0-1 1.8 5.8 5.8 0 0 0-.3 2.1 5.7 5.7 0 0 0 .3 2.2 5.5 5.5 0 0 0 1.2 1.7A5.3 5.3 0 0 0 79 56a5.7 5.7 0 0 0 4.4 0 5.3 5.3 0 0 0 1.7-1.2 5.2 5.2 0 0 0 1.2-1.8 5.6 5.6 0 0 0 .3-2.1 5.2 5.2 0 0 0-1.5-4 5.4 5.4 0 0 0-1.7-1.2 5.3 5.3 0 0 0-2.2-.4Zm.1 2.4a2.4 2.4 0 0 1 1.2.2 2.7 2.7 0 0 1 .9.7 3.2 3.2 0 0 1 .5 1A3.6 3.6 0 0 1 84 51a3.6 3.6 0 0 1-.2 1.2 3.4 3.4 0 0 1-.5 1 2.6 2.6 0 0 1-1 .7 2.5 2.5 0 0 1-1 .2 2.5 2.5 0 0 1-1.2-.2 2.9 2.9 0 0 1-.9-.7 3.5 3.5 0 0 1-.7-2.3 3.8 3.8 0 0 1 .2-1.2 3.1 3.1 0 0 1 .5-1 2.8 2.8 0 0 1 .9-.7 2.5 2.5 0 0 1 1.2-.2Z"/><path id="path3189" d="M65.5 50.9a5.8 5.8 0 0 1 1.3-3.9 5.9 5.9 0 0 1 4.2-1.7 5.3 5.3 0 0 1 4.3 2l-2.1 1.5a4.8 4.8 0 0 0-1-.8 2.2 2.2 0 0 0-1.1-.3 3.3 3.3 0 0 0-2.2 1 3 3 0 0 0-.7 2 4 4 0 0 0 1.2 2.8 2.5 2.5 0 0 0 1.6.5 3 3 0 0 0 1.6-.4 4.5 4.5 0 0 0 .8-.7l2.2 1.6a6.2 6.2 0 0 1-4.5 2 5.5 5.5 0 0 1-3.5-1 4.9 4.9 0 0 1-2-4.5Z"/></g><g id="g3217"><g id="text3219"><path id="path3231" d="M87 66.6h-.3v-.1h1v.1h-.5v1h-.1Z"/><path id="path3233" d="M87.7 66.5h.1l.4.6.5-.6v1.2-1l-.5.6-.4-.6v1h-.1Z"/></g></g></g></g></g></svg>