<svg id="Layer_1" data-name="Layer 1" xmlns="http://www.w3.org/2000/svg" viewBox="0 0 136.3 77.6"><defs><style>.cls-2{fill:#fdfdfd}</style></defs><path d="m51.4 27.8-.1 1.6v20c-.5.4-1 .3-1.5.3h-44V27.8Z" fill="#154f92"/><path class="cls-2" d="M25 31.4c3 .2 5.7-.2 8.5.2 6.5 1.1 7.4 7.7 4.8 11.5a6.3 6.3 0 0 1-5.1 2.8h-8a23.3 23.3 0 0 1-.2-2.4c.4-.5.9 0 1.3-.4v-8.7c-.3-.4-.9 0-1.2-.4ZM12.7 46v-2.6c.5-.4 1.1 0 1.7-.3v-8.8h-1.7c-.2.8 0 1.6-.1 2.5a10.4 10.4 0 0 1-3.2 0v-5.3H24v5.3h-3c-.3-.8 0-1.6-.2-2.5-.5-.2-1 0-1.6-.1V43c.5.3 1 0 1.6.3v2.5ZM47.6 46h-6.9a12.3 12.3 0 0 1 0-2.6c.4-.3.9 0 1.3-.3v-8.7c-.4-.3-.8 0-1.2-.3a12 12 0 0 1 0-2.6h6.8a16.5 16.5 0 0 1 0 2.5c-.4.4-.9 0-1.2.4V43c.2.4.8 0 1.1.4a16.7 16.7 0 0 1 0 2.5Z"/><path d="M30.8 43.1v-8.8c1.9-.2 3 .4 3.5 2.1a7 7 0 0 1 0 4.6c-.6 1.7-1.6 2.3-3.5 2.1Z" fill="#154e92"/><path d="M59.9 32.4H58v5h-1.2v-5H55v-1h5ZM61.8 37.5a2.4 2.4 0 0 1-1-.2 2.2 2.2 0 0 1-1.2-1.2 2.3 2.3 0 0 1-.2-.9 2.4 2.4 0 0 1 .2-.9 2 2 0 0 1 .4-.7 2.2 2.2 0 0 1 .8-.5 2.5 2.5 0 0 1 1-.2 2.5 2.5 0 0 1 1 .2 2.2 2.2 0 0 1 .7.5 2 2 0 0 1 .4.7 2.5 2.5 0 0 1 .2.9 1.3 1.3 0 0 1 0 .2.7.7 0 0 1 0 .1h-3.4a1.2 1.2 0 0 0 .1.5 1 1 0 0 0 .3.3 1 1 0 0 0 .3.3 1.2 1.2 0 0 0 .5 0 1.3 1.3 0 0 0 .6-.1.8.8 0 0 0 .4-.5l1 .3a2 2 0 0 1-.8.8 2.4 2.4 0 0 1-1.3.4Zm1.1-2.7a1.2 1.2 0 0 0-.3-.8 1 1 0 0 0-.8-.3 1.2 1.2 0 0 0-.5 0 1.3 1.3 0 0 0-.3.3 1 1 0 0 0-.2.3 1 1 0 0 0-.2.5ZM65.5 33l1 1.4v.1l.1-.1 1-1.4h1l-1.5 2.2 1.6 2.2h-1.2l-1-1.4v-.1l-.1.1-1 1.4h-1.1l1.6-2.2-1.6-2.2ZM70.5 37.5a1.7 1.7 0 0 1-.6-.1 1.4 1.4 0 0 1-.7-.8 1.5 1.5 0 0 1-.2-.5 1.1 1.1 0 0 1 .2-.6 1.3 1.3 0 0 1 .4-.5 1.8 1.8 0 0 1 .6-.3 2.6 2.6 0 0 1 .7 0 3.7 3.7 0 0 1 .6 0 2.4 2.4 0 0 1 .5 0v-.2a1 1 0 0 0-.3-.6 1 1 0 0 0-.7-.3 2 2 0 0 0-.7.2 3.5 3.5 0 0 0-.7.3l-.3-.7a3.2 3.2 0 0 1 1.8-.6 2.2 2.2 0 0 1 1.5.5 1.7 1.7 0 0 1 .5 1.4V36a.4.4 0 0 0 0 .3.3.3 0 0 0 .3 0v1a2.5 2.5 0 0 1-.5.1.8.8 0 0 1-.5-.1.7.7 0 0 1-.2-.4v-.2a1.9 1.9 0 0 1-.7.5 2 2 0 0 1-1 .3Zm.4-.9a1.4 1.4 0 0 0 .5 0 1 1 0 0 0 .4-.3.4.4 0 0 0 .2-.4v-.5a2.8 2.8 0 0 0-.4 0 2.5 2.5 0 0 0-.5 0 1.2 1.2 0 0 0-.7.1.6.6 0 0 0 0 1 .8.8 0 0 0 .5.1ZM76 37.5a3.3 3.3 0 0 1-1-.2 2.6 2.6 0 0 1-1-.5l.4-.7a3.6 3.6 0 0 0 .8.4 2 2 0 0 0 .8.1.9.9 0 0 0 .5 0 .4.4 0 0 0 .2-.4.4.4 0 0 0-.2-.4 3.9 3.9 0 0 0-.8-.2l-.7-.3a2 2 0 0 1-.5-.2.8.8 0 0 1-.2-.3 1 1 0 0 1-.1-.5 1.4 1.4 0 0 1 0-.6 1.3 1.3 0 0 1 .5-.4 1.4 1.4 0 0 1 .5-.3 2.1 2.1 0 0 1 .7-.1 2.8 2.8 0 0 1 1 .1 2.2 2.2 0 0 1 .7.5l-.4.7a2.5 2.5 0 0 0-.7-.4 1.8 1.8 0 0 0-.6-.1.9.9 0 0 0-.5.1.4.4 0 0 0-.2.4.4.4 0 0 0 0 .2.5.5 0 0 0 .2.1 1.9 1.9 0 0 0 .3.1 2.4 2.4 0 0 0 .4.1 8 8 0 0 1 .8.3 2.2 2.2 0 0 1 .5.2.9.9 0 0 1 .3.4 1 1 0 0 1 0 .5 1.2 1.2 0 0 1-.4 1 2 2 0 0 1-1.3.4ZM81 37.4v-6h2.2a3.4 3.4 0 0 1 1.2.2 2.7 2.7 0 0 1 1 .6 2.7 2.7 0 0 1 .5 1 3.6 3.6 0 0 1 0 2.4 2.6 2.6 0 0 1-.6 1 2.8 2.8 0 0 1-.9.5 3.3 3.3 0 0 1-1.2.2Zm4-3a2.5 2.5 0 0 0-.2-.8 1.8 1.8 0 0 0-.3-.6 1.5 1.5 0 0 0-.6-.4 1.8 1.8 0 0 0-.7-.2h-1v4h1a1.8 1.8 0 0 0 .7-.2 1.6 1.6 0 0 0 .6-.4 2 2 0 0 0 .3-.6 2.5 2.5 0 0 0 .1-.8ZM89 37.5a2.4 2.4 0 0 1-1-.2 2 2 0 0 1-.7-.5 2 2 0 0 1-.4-.7 2.3 2.3 0 0 1-.2-.9 2.4 2.4 0 0 1 .2-.9 2 2 0 0 1 .4-.7 2.1 2.1 0 0 1 .8-.5 2.5 2.5 0 0 1 1-.2 2.4 2.4 0 0 1 1 .2 2.1 2.1 0 0 1 .7.5 2 2 0 0 1 .5.7 2.5 2.5 0 0 1 .1.9v.2a.7.7 0 0 1 0 .1H88a1.5 1.5 0 0 0 .1.5 1.3 1.3 0 0 0 .3.3 1.3 1.3 0 0 0 .4.3 1.2 1.2 0 0 0 .4 0 1.3 1.3 0 0 0 .6-.1.9.9 0 0 0 .4-.5l1 .3a2 2 0 0 1-.8.8 2.4 2.4 0 0 1-1.3.4Zm1.2-2.7a1.2 1.2 0 0 0-.3-.8 1.1 1.1 0 0 0-.8-.3 1.2 1.2 0 0 0-.4 0 1.1 1.1 0 0 0-.4.3 1 1 0 0 0-.2.4 1 1 0 0 0-.2.4ZM94.9 37.5a1.7 1.7 0 0 1-1-.3 1.6 1.6 0 0 1-.5-.6v2.6h-1.2V33h1v.8a2 2 0 0 1 .7-.6 1.8 1.8 0 0 1 .9-.3 2 2 0 0 1 .8.2 2 2 0 0 1 .6.5 2.5 2.5 0 0 1 .5.7 2.5 2.5 0 0 1 .1.9 3 3 0 0 1-.1.9 2.5 2.5 0 0 1-.4.7 1.8 1.8 0 0 1-.6.5 1.6 1.6 0 0 1-.8.2Zm-.4-1a1 1 0 0 0 .5-.1 1 1 0 0 0 .3-.3 1.4 1.4 0 0 0 .3-.5 1.8 1.8 0 0 0 0-.5 1.4 1.4 0 0 0 0-.5 1.2 1.2 0 0 0-1.2-.8 1 1 0 0 0-.3 0 1.2 1.2 0 0 0-.3.2 1.4 1.4 0 0 0-.3.3 1 1 0 0 0-.1.3v1a1.4 1.4 0 0 0 .4.6 1 1 0 0 0 .7.3ZM99 37.5a1.6 1.6 0 0 1-.7-.1 1.4 1.4 0 0 1-.4-.3 1.5 1.5 0 0 1-.4-.5 1.5 1.5 0 0 1 0-.5A1.3 1.3 0 0 1 98 35a1.7 1.7 0 0 1 .6-.3 2.6 2.6 0 0 1 .7-.1 3.7 3.7 0 0 1 .6 0 2.3 2.3 0 0 1 .5.1v-.2a.9.9 0 0 0-.2-.7 1 1 0 0 0-.8-.2 2 2 0 0 0-.7.1 3.3 3.3 0 0 0-.6.4l-.4-.7a3.2 3.2 0 0 1 1.8-.6 2.1 2.1 0 0 1 1.5.5 1.7 1.7 0 0 1 .5 1.3V36a.3.3 0 0 0 .1.2.3.3 0 0 0 .2.1v1a2.4 2.4 0 0 1-.5 0 .8.8 0 0 1-.5 0 .6.6 0 0 1-.2-.4v-.3a2 2 0 0 1-.7.6 2 2 0 0 1-1 .3Zm.3-.9a1.4 1.4 0 0 0 .5 0 1 1 0 0 0 .4-.3.4.4 0 0 0 .2-.4v-.5a2.8 2.8 0 0 0-.5 0 2.5 2.5 0 0 0-.4 0 1.3 1.3 0 0 0-.7.1.6.6 0 0 0-.3.5.6.6 0 0 0 .2.5.8.8 0 0 0 .5.1ZM105.3 34a2.3 2.3 0 0 0-.9.1 1.1 1.1 0 0 0-.5.6v2.7h-1.2V33h1v1a2 2 0 0 1 .3-.5 2 2 0 0 1 .4-.3 1.5 1.5 0 0 1 .3-.2 1.2 1.2 0 0 1 .4 0h.2ZM108.8 37.1a5.6 5.6 0 0 1-.6.2 2.6 2.6 0 0 1-.7.2 1.6 1.6 0 0 1-.4-.1.9.9 0 0 1-.4-.2 1 1 0 0 1-.2-.3 1.2 1.2 0 0 1-.1-.5v-2.6h-.6V33h.6v-1.5h1.1V33h1v.9h-1V36a.4.4 0 0 0 .1.3.5.5 0 0 0 .3.1 1 1 0 0 0 .4 0 2 2 0 0 0 .3-.1ZM116.4 37.4h-1.2v-2.5a1.3 1.3 0 0 0-.1-.8.6.6 0 0 0-.5-.2 1 1 0 0 0-.7.2 1.5 1.5 0 0 0-.4.7v2.6h-1.1v-2.5a1.3 1.3 0 0 0-.2-.8.6.6 0 0 0-.5-.2 1 1 0 0 0-.6.2 1.4 1.4 0 0 0-.4.7v2.6h-1.2V33h1v.8a1.6 1.6 0 0 1 .7-.6 2 2 0 0 1 1-.3 1.1 1.1 0 0 1 1.2 1 1.8 1.8 0 0 1 1.7-1 1.3 1.3 0 0 1 .6.2 1 1 0 0 1 .4.4 1.4 1.4 0 0 1 .2.5 3.2 3.2 0 0 1 0 .7ZM119.6 37.5a2.5 2.5 0 0 1-1-.2 2.2 2.2 0 0 1-1.2-1.2 2.3 2.3 0 0 1-.2-.9 2.4 2.4 0 0 1 .2-.9 2.2 2.2 0 0 1 .4-.7 2.1 2.1 0 0 1 .8-.5 2.7 2.7 0 0 1 1.9 0 2.2 2.2 0 0 1 .7.5 2 2 0 0 1 .5.7 2.3 2.3 0 0 1 .1.9 1.3 1.3 0 0 1 0 .2.7.7 0 0 1 0 .1h-3.4a1.2 1.2 0 0 0 .1.5 1.1 1.1 0 0 0 .3.3 1.3 1.3 0 0 0 .4.3 1.2 1.2 0 0 0 .4 0 1.3 1.3 0 0 0 .6-.1.8.8 0 0 0 .4-.5l1 .3a2 2 0 0 1-.8.8 2.4 2.4 0 0 1-1.2.4Zm1.1-2.7a1.2 1.2 0 0 0-.4-.8 1 1 0 0 0-.7-.3 1.2 1.2 0 0 0-.5 0 1 1 0 0 0-.3.3 1.1 1.1 0 0 0-.3.4 1 1 0 0 0 0 .4ZM126.8 37.4h-1.1v-2.5a1.2 1.2 0 0 0-.2-.8.6.6 0 0 0-.5-.2 1 1 0 0 0-.4 0 1.4 1.4 0 0 0-.3.2 1.3 1.3 0 0 0-.3.3 1 1 0 0 0-.2.4v2.6h-1V33h1v.8a1.7 1.7 0 0 1 .6-.6 2.2 2.2 0 0 1 1-.3 1.3 1.3 0 0 1 .7.2 1 1 0 0 1 .4.4 1.6 1.6 0 0 1 .2.5 3.2 3.2 0 0 1 0 .7ZM130.6 37.1a5.4 5.4 0 0 1-.6.2 2.6 2.6 0 0 1-.7.2 1.5 1.5 0 0 1-.4-.1.9.9 0 0 1-.4-.2.9.9 0 0 1-.2-.3 1.2 1.2 0 0 1-.1-.5v-2.6h-.6V33h.6v-1.5h1V33h1v.9h-1V36a.4.4 0 0 0 .2.3.5.5 0 0 0 .3.1 1 1 0 0 0 .4 0 1.3 1.3 0 0 0 .2-.1ZM57.4 46.5a2.5 2.5 0 0 1-1-.2 2.2 2.2 0 0 1-.8-.5 2.2 2.2 0 0 1-.4-.7 2.4 2.4 0 0 1 0-1.7 2.2 2.2 0 0 1 .4-.8 2.2 2.2 0 0 1 .8-.5 2.5 2.5 0 0 1 1-.1 2.4 2.4 0 0 1 1 .1 2.2 2.2 0 0 1 .7.5 2.2 2.2 0 0 1 .4.8 2.4 2.4 0 0 1 0 1.7 2.4 2.4 0 0 1-.4.7 2.1 2.1 0 0 1-.7.5 2.4 2.4 0 0 1-1 .2Zm-1.2-2.3a1.5 1.5 0 0 0 .1.6 1.4 1.4 0 0 0 .2.4 1 1 0 0 0 .4.3 1 1 0 0 0 1 0 1 1 0 0 0 .3-.3 1.4 1.4 0 0 0 .2-.4 1.5 1.5 0 0 0 .1-.6 1.5 1.5 0 0 0 0-.5 1.4 1.4 0 0 0-.3-.4 1 1 0 0 0-.4-.3 1 1 0 0 0-.4 0 1 1 0 0 0-.9.3 1.4 1.4 0 0 0-.2.4 1.5 1.5 0 0 0 0 .5ZM60.8 46.4v-3.3h-.6v-.8h.6V42a2 2 0 0 1 .4-1.3 1.3 1.3 0 0 1 1-.5 2.5 2.5 0 0 1 1.1.3l-.2.8a1.5 1.5 0 0 0-.3 0 1.2 1.2 0 0 0-.3-.1c-.4 0-.6.2-.6.8v.3H63v.8h-1v3.3ZM66 46.4v-6h1v6ZM72.5 46.4h-1.2V44a1.3 1.3 0 0 0-.1-.8.6.6 0 0 0-.6-.2 1 1 0 0 0-.3 0 1.4 1.4 0 0 0-.3.2 1.5 1.5 0 0 0-.3.3 1 1 0 0 0-.2.4v2.6h-1.1V42h1v.8a1.7 1.7 0 0 1 .7-.6 2.2 2.2 0 0 1 1-.3 1.2 1.2 0 0 1 .7.2 1.1 1.1 0 0 1 .4.4 1.6 1.6 0 0 1 .1.5 3.4 3.4 0 0 1 .1.6ZM75.3 46.5a3.3 3.3 0 0 1-1.1-.2 2.6 2.6 0 0 1-1-.5l.5-.7a3.8 3.8 0 0 0 .8.5 2.1 2.1 0 0 0 .7.1.9.9 0 0 0 .6-.1.4.4 0 0 0 .2-.4.3.3 0 0 0-.3-.3 4.5 4.5 0 0 0-.7-.3l-.7-.2a2 2 0 0 1-.5-.3.8.8 0 0 1-.3-.3 1 1 0 0 1 0-.4 1.3 1.3 0 0 1 0-.6 1.2 1.2 0 0 1 .4-.5 1.4 1.4 0 0 1 .6-.3 2.1 2.1 0 0 1 .7 0 2.8 2.8 0 0 1 .9 0 2.2 2.2 0 0 1 .8.5l-.5.7a2.7 2.7 0 0 0-.6-.3 1.8 1.8 0 0 0-.6-.2.9.9 0 0 0-.5.2.4.4 0 0 0-.2.3.4.4 0 0 0 0 .2.5.5 0 0 0 .1.2 1.9 1.9 0 0 0 .3 0 3.8 3.8 0 0 0 .4.2 8 8 0 0 1 .8.2 2.2 2.2 0 0 1 .5.3.8.8 0 0 1 .3.3 1 1 0 0 1 .1.5 1.2 1.2 0 0 1-.5 1 2 2 0 0 1-1.2.4ZM79.3 46.5a1.2 1.2 0 0 1-1-.4 2 2 0 0 1-.4-1.3V42H79v2.5c0 .7.3 1 .7 1a1.2 1.2 0 0 0 .7-.2 1.4 1.4 0 0 0 .5-.6V42H82v3.1a.4.4 0 0 0 0 .3.3.3 0 0 0 .3 0v1h-.5a.8.8 0 0 1-.5-.1.6.6 0 0 1-.2-.4v-.3a1.8 1.8 0 0 1-.8.6 2.3 2.3 0 0 1-1 .3ZM86 43a2.4 2.4 0 0 0-1 .2 1.2 1.2 0 0 0-.6.6v2.6h-1V42h1v1a2 2 0 0 1 .5-.7 1.7 1.7 0 0 1 .4-.2 1 1 0 0 1 .4-.1h.2ZM87.9 46.5a1.6 1.6 0 0 1-.6 0 1.7 1.7 0 0 1-.5-.4 1.4 1.4 0 0 1-.3-.4 1.2 1.2 0 0 1-.1-.6 1.3 1.3 0 0 1 .1-.6 1.3 1.3 0 0 1 .4-.4 1.7 1.7 0 0 1 .6-.3 2.6 2.6 0 0 1 .7-.1 3.7 3.7 0 0 1 .6 0 2.3 2.3 0 0 1 .5.1v-.2a.9.9 0 0 0-.2-.7 1 1 0 0 0-.8-.2 2 2 0 0 0-.7.1 4 4 0 0 0-.6.4l-.4-.7a3.2 3.2 0 0 1 1.8-.5 2.1 2.1 0 0 1 1.5.5 1.7 1.7 0 0 1 .5 1.3v1.4a.4.4 0 0 0 .1.2.3.3 0 0 0 .2.1v1a2.4 2.4 0 0 1-.5 0 .8.8 0 0 1-.5 0 .6.6 0 0 1-.2-.5v-.3a2 2 0 0 1-1.6.8Zm.3-.8a1.4 1.4 0 0 0 .5-.1 1 1 0 0 0 .4-.3.4.4 0 0 0 .2-.3v-.5a2.5 2.5 0 0 0-.4-.1 2.3 2.3 0 0 0-.5 0 1.2 1.2 0 0 0-.7.1.6.6 0 0 0-.3.5.6.6 0 0 0 .3.5.8.8 0 0 0 .5.2ZM95.7 46.4h-1V44a1.2 1.2 0 0 0-.3-.8.6.6 0 0 0-.5-.2 1 1 0 0 0-.3 0 1.6 1.6 0 0 0-.4.2 2 2 0 0 0-.2.3 1.3 1.3 0 0 0-.2.4v2.6h-1.1V42h1v.8a1.7 1.7 0 0 1 .7-.6 2.2 2.2 0 0 1 1-.3 1.3 1.3 0 0 1 .6.2 1 1 0 0 1 .4.4 1.6 1.6 0 0 1 .2.5 3.4 3.4 0 0 1 0 .6ZM96.6 44.2a2.3 2.3 0 0 1 .2-.8 2 2 0 0 1 .4-.8 2.2 2.2 0 0 1 .8-.5 2.5 2.5 0 0 1 1-.2 2.3 2.3 0 0 1 1.2.4 1.9 1.9 0 0 1 .8.8l-1.1.3a1 1 0 0 0-.4-.4 1.1 1.1 0 0 0-.5 0 1 1 0 0 0-.5 0 1 1 0 0 0-.3.3 1.1 1.1 0 0 0-.3.4 1.6 1.6 0 0 0 0 1 1.3 1.3 0 0 0 .3.5 1 1 0 0 0 .3.3 1.1 1.1 0 0 0 .5 0 1 1 0 0 0 .5 0 1 1 0 0 0 .4-.5l1 .4a1.9 1.9 0 0 1-.7.8 2.3 2.3 0 0 1-1.2.3 2.4 2.4 0 0 1-1-.2 2.1 2.1 0 0 1-.8-.5 2 2 0 0 1-.4-.7 2.4 2.4 0 0 1-.2-.9ZM103.8 46.5a2.4 2.4 0 0 1-1-.2 2 2 0 0 1-.7-.5 2.2 2.2 0 0 1-.5-.7 2.3 2.3 0 0 1-.2-.8 2.4 2.4 0 0 1 .2-1 2 2 0 0 1 .5-.7 2.2 2.2 0 0 1 .7-.5 2.5 2.5 0 0 1 1-.2 2.5 2.5 0 0 1 1 .2 2.3 2.3 0 0 1 .7.5 2 2 0 0 1 .5.8 2.3 2.3 0 0 1 .1.8 1.3 1.3 0 0 1 0 .2.7.7 0 0 1 0 .2h-3.4a1.3 1.3 0 0 0 .1.5 1 1 0 0 0 .3.3 1 1 0 0 0 .4.2 1.2 1.2 0 0 0 .4 0 1.3 1.3 0 0 0 .6 0 .9.9 0 0 0 .4-.5l1 .3a2 2 0 0 1-.8.8 2.4 2.4 0 0 1-1.3.3Zm1.1-2.6a1.2 1.2 0 0 0-.3-.8 1 1 0 0 0-.8-.3 1.3 1.3 0 0 0-.4 0 1.1 1.1 0 0 0-.4.3 1 1 0 0 0-.2.3 1.2 1.2 0 0 0-.2.5Z"/></svg>