<svg id="Layer_1" data-name="Layer 1" xmlns="http://www.w3.org/2000/svg" viewBox="0 0 136.3 77.6"><defs><style>.cls-2{fill:#fff}</style></defs><g id="Page-1"><g id="tmo-logo-v2"><g id="Fläche"><path id="Rectangle" fill="#de1275" d="M38.8 9.4h58.8v58.8H38.8z"/></g><g id="Marke"><g id="Group"><path id="Path" class="cls-2" d="M51 45.6v-8.5h8.5v8.5H51z"/><path id="Path-2" data-name="Path" class="cls-2" d="M76.9 45.6v-8.5h8.5v8.5h-8.5z"/><path id="Path-3" data-name="Path" class="cls-2" d="M84.9 17.9H51.4L51 32.7l2.3.3c.4-4.4 1.5-7.5 3.4-9.7a11 11 0 0 1 8-3.5v30.8c0 2.8-.3 4.5-1 5.2a5.2 5.2 0 0 1-3.4 1.3l-2.4.1v2.4h20.7v-2.4a12.7 12.7 0 0 1-2.4-.1 5.2 5.2 0 0 1-3.4-1.2c-.8-.8-1.1-2.6-1.1-5.2V19.8c3.5.1 6.2 1.3 8.1 3.5s3 5.3 3.4 9.7l2.3-.3Z"/></g></g></g></g></svg>