<svg data-name="Layer 1" xmlns="http://www.w3.org/2000/svg" viewBox="0 0 136.3 77.6"><path fill="#eb0a1e" d="M38.1 8.8h60.1v60.1H38.1z"/><path d="M78.2 25.7a33.4 33.4 0 0 0-10-1.4 33.4 33.4 0 0 0-10 1.4c-7.4 2.4-12.5 7.4-12.5 13 0 8 10 14.6 22.5 14.6s22.5-6.5 22.5-14.5c0-5.7-5-10.7-12.5-13M68.2 47c-1.8 0-3.4-3.6-3.4-8.2l3.4.1 3.4-.1c0 4.5-1.6 8.2-3.4 8.2m-3.3-11.9c.5-3.2 1.8-5.5 3.3-5.5s2.7 2.3 3.2 5.6h-3.2a30.9 30.9 0 0 1-3.3 0m8.5-.3c-.8-5-2.8-8.7-5.2-8.7S63.7 30 63 35c-4.6-.7-7.8-2.3-7.8-4.2 0-2.6 5.8-4.6 13-4.6s13 2 13 4.6c0 1.9-3.1 3.5-7.7 4.2m-24.6 3.3a10.6 10.6 0 0 1 2.6-6.8 2 2 0 0 0 0 .4c0 3.1 4.7 5.7 11.2 6.7v.7c0 5.8 1.6 10.7 3.8 12.3-9.8-.5-17.5-6.3-17.5-13.4m20.9 13.4c2.2-1.7 3.8-6.5 3.8-12.3v-.7c6.5-1 11.1-3.6 11.1-6.7a2.6 2.6 0 0 0 0-.4 10.5 10.5 0 0 1 2.6 6.8c0 7-7.7 12.8-17.5 13.3" fill="#fff"/></svg>