<svg id="Layer_1" data-name="Layer 1" xmlns="http://www.w3.org/2000/svg" viewBox="0 0 136.3 77.6"><defs><style>.cls-2{fill:#265092}.cls-3{fill:#fff}.cls-4{fill:#f6a748}.cls-5{fill:#eb3541}</style></defs><path id="path16" d="M130.7 65.1H79.8V12.4h51v52.7" fill="#629ed2"/><path id="path18" class="cls-2" d="M79.8 65.1H5.6V12.4h74.2v52.7"/><path id="path20" class="cls-3" d="M126.3 38.4a21 21 0 1 1-21-21 21 21 0 0 1 21 21"/><path id="path22" class="cls-4" d="m94.4 42.5.9-.4c.3-.1.2-.2.1-.4a10.2 10.2 0 0 1-.5-3.2 10.3 10.3 0 1 1 19.9 4.1.2.2 0 0 0 0 .3l1 .5c.2 0 .3 0 .4-.2a12 12 0 1 0-22.2-.9c0 .2.2.3.4.2"/><path id="path24" class="cls-4" d="m91.3 44 1.4-.6a.3.3 0 0 0 .1-.4 13.2 13.2 0 1 1 25.7-4.5 13 13 0 0 1-1 5.3.3.3 0 0 0 0 .4l1.4.6c.1 0 .3 0 .4-.2a14.9 14.9 0 0 0 1.2-6 15.3 15.3 0 1 0-30.5 0 15.1 15.1 0 0 0 1 5.3s.1.3.4.1"/><path id="path26" class="cls-4" d="m87.2 45.8 2.4-1c.4-.2.2-.4.2-.6a16.5 16.5 0 1 1 30.7.8.3.3 0 0 0 .2.5l2.2 1c.2 0 .5 0 .6-.3a19.8 19.8 0 1 0-38-7.7 19.6 19.6 0 0 0 1.3 7.1c0 .1.2.4.5.2"/><path id="path28" class="cls-5" d="M105.3 34.2a2.1 2.1 0 1 0-2.1-2.1 2.1 2.1 0 0 0 2 2"/><path id="path30" class="cls-5" d="M106 45.3a.8.8 0 0 0 .8-.8V40a3.2 3.2 0 0 1 .9-1.8l4.3-4.4a.8.8 0 0 0 0-1l-.8-.8a.7.7 0 0 0-1 0l-4 4a1.3 1.3 0 0 1-2 0l-4-4a.7.7 0 0 0-1 0l-.7.8a.8.8 0 0 0 0 1l4.3 4.4a3.2 3.2 0 0 1 .9 1.8v4.7a.8.8 0 0 0 .7.7h1.6"/><path id="path32" class="cls-2" d="M119.9 47a14 14 0 0 0-2.8 2.2h-.1a23.2 23.2 0 0 0 1.4-1.9c.7-1.2-.7-2.4-2.3-1.5a24.5 24.5 0 0 0-2 1.8h-.2a21.5 21.5 0 0 0 1.4-1.8c.7-1-.8-2-2-1.2a24.7 24.7 0 0 0-2.3 1.8h-.1l.8-1c.8-.8-.3-1.8-1.4-1.2s-2.6 2.1-4.3 3.2c.8.4 2.1.5 4.3 1.4s2.9 3 1.4 4.8-3.2 1-5 .5c-2-.7-2.6-1.3-5-2.1-1.6-.6-2.2-.6-2.2-1s1.4-.2 2.6.2c3.5 1.3 8.2 4.2 9.3 1 1-2.4-3.1-3.5-4.6-3.8-2.2-.4-3.7-2-5.5-3a9.7 9.7 0 0 0-6.6-1.2 20.6 20.6 0 0 0-5.7 2.6c-1 .7-1 1.6 0 3a19.8 19.8 0 0 0 33-1c.8-1.2-.4-2.5-2.2-1.9"/><path id="path34" class="cls-3" d="M63.1 60.6c0 .5 2 1.2 3.1 1.2a3.4 3.4 0 0 0 3.3-2.3c.8-2 4.2-13.5 4.2-13.5h.4c.7-.1 1-.6 1-1.7 0-.4 0-.5-.4-.5H72c-.3 0-.3 0-.4.4L69.3 53l-2.4-8.8c0-.3 0-.4-.3-.4h-2.8c-.3 0-.4 0-.4.5 0 1.1.3 1.6 1 1.7h.4s2.2 7.7 3.4 11l-.2.6c-.4 1.2-1 1.8-2 1.8l-1.6-.2c-.7 0-1 .2-1 .5a4.8 4.8 0 0 0-.3 1"/><path id="path36" class="cls-3" d="M53.7 39.5h-3.2c-.3 0-.3 0-.4.4l-1.8 11.4L46 40c0-.3-.1-.4-.5-.4H44c-.5 0-.5.1-.6.4l-2.3 11.4L39.4 40c0-.3 0-.4-.4-.4h-3.3c-.4 0-.4 0-.4.5 0 1.3.3 1.7 1.2 1.8h.3L39.4 56c0 .3 0 .4.4.4H42c.4 0 .4 0 .4-.4l2.3-11 1.8 11c0 .4 0 .4.4.4h2.3c.3 0 .3 0 .4-.4l3-14.1h.3c.9-.1 1.2-.6 1.2-1.8 0-.4-.1-.5-.4-.5"/><path id="path38" class="cls-3" d="M59.4 53.5a2.6 2.6 0 0 1-1.9 1 1.7 1.7 0 0 1-1.6-1.8c0-2.3 2.7-2.2 3.5-2.1Zm2.9.6A8.1 8.1 0 0 1 62 52v-4.5c0-2.8-1.2-4-4-4-2 0-4 .9-4 1.4a4.9 4.9 0 0 0 .3.8c0 .2.1.6 1 .5l2.3-.3c1.6 0 1.7 1 1.7 2v1c-2 0-6.1 0-6.1 4.2 0 2.3 1.3 3.8 3.4 3.8a3.6 3.6 0 0 0 3-1.4l.1-.2v.3c.2.5.3.9.7.9h2.8c.3 0 .4 0 .4-.4 0-1.3-.3-1.8-1.4-1.8"/><path id="path40" class="cls-3" d="M42.4 33.3h-.3v-10c0-.2 0-.2-.2-.2h-4c-.4 0-.4 0-.4.4 0 1.4.3 1.8 1.5 1.8h.3v8H39c-1.2 0-1.5.5-1.5 1.8 0 .4 0 .5.4.5h5.6c.3 0 .4 0 .4-.5 0-1.3-.4-1.8-1.5-1.8"/><path id="path42" class="cls-3" d="M40.7 18.3a1.7 1.7 0 0 0-1.7 1.8 1.8 1.8 0 0 0 1.7 1.8 1.7 1.7 0 0 0 1.6-1.8 1.7 1.7 0 0 0-1.6-1.8"/><path id="path44" class="cls-3" d="M22 21.5c1.3 0 1.7-.5 1.7-1.9 0-.4-.1-.4-.5-.4h-5.4c-.3 0-.3 0-.4.2v.2c0 1.4.4 1.9 1.6 1.9v8.2c0 1.6 0 3.7-2.5 3.7-2.3 0-2.5-1.7-2.5-3.7v-8.2c1.2 0 1.6-.5 1.6-1.9v-.2c0-.2-.1-.2-.4-.2H9.8c-.4 0-.4 0-.4.4 0 1.4.3 1.9 1.6 1.9v8.2c0 4.4 1.7 6.3 5.5 6.3s5.5-1.9 5.5-6.3v-8.2"/><path id="path46" class="cls-3" d="M34.6 33.3v-6.7c0-2.8-.9-4-3-4a4.7 4.7 0 0 0-3.5 1.8L28 24c-.1-.6-.2-.9-.6-.9h-3c-.4 0-.4 0-.4.4 0 1.3.3 1.8 1.4 1.8a6.8 6.8 0 0 1 .2 2.3v5.8c-1.1 0-1.5.4-1.5 1.8 0 .4 0 .4.4.4h3.7c.2 0 .2 0 .2-.3v-9a3 3 0 0 1 2-1c1.4 0 1.4 1.5 1.4 2.2v7.9c0 .2 0 .2.3.2h3.6c.3 0 .4 0 .4-.4 0-1.3-.4-1.8-1.5-1.8"/><path id="path48" class="cls-3" d="M49.2 36c1.6 0 3-.4 3-.8l-.2-.7c-.2-1-.3-1.3-2-1.1a.6.6 0 0 1-.6-.2 2.6 2.6 0 0 1-.3-1.6v-6.3h1.5c1.2 0 1.6-.4 1.6-1.8 0-.4 0-.4-.4-.4H49v-3.6c0-.3 0-.3-.2-.3l-1 .1a2 2 0 0 0-1.6 2.2V23h-1.6c-.3 0-.4 0-.4.4 0 1.4.4 1.8 1.6 1.8h.4V31c0 2.4 0 4.9 3 4.9"/><path id="path50" class="cls-3" d="M56 27.9v-.2c0-.9.3-2.9 2-2.9s1.7 2 1.7 3Zm6.6 1.6c0-4.6-1.5-6.9-4.5-6.9s-5 2.7-5 6.8c0 5.4 2.8 6.6 5 6.6 2 0 4-.9 4-1.4a5.2 5.2 0 0 0-.1-1c-.1-.2-.3-.5-1-.4-.6 0-1.6.3-2.5.3-1.7 0-2.6-1.1-2.6-3.4h6.3c.4 0 .4-.1.4-.6"/><path id="path52" class="cls-3" d="M68.8 33.6c-1.7 0-2-1.5-2-4.2S67.1 25 69 25a3.1 3.1 0 0 1 1.8.6v7a2.4 2.4 0 0 1-2 1Zm5-.3a7 7 0 0 1-.3-2.2V18.6c0-.2 0-.2-.2-.2h-3.6c-.4 0-.4 0-.4.4 0 1.3.3 1.8 1.4 1.8v2.9l-.1-.2a3.3 3.3 0 0 0-2.2-.7c-2.9 0-4.4 2.5-4.4 7.2 0 4 1.4 6.2 3.9 6.2a4.8 4.8 0 0 0 3.3-1.5l.1.6c.1.4.2.4.5.4H75c.3 0 .4 0 .4-.4 0-1.3-.4-1.8-1.6-1.8"/><path id="path54" class="cls-3" d="M124.5 60.3h.3c.3 0 .4 0 .4-.3s-.1-.3-.4-.3h-.3Zm0 1h-.3v-1.8h.7c.4 0 .6.2.6.5a.4.4 0 0 1-.4.5l.4.8h-.3l-.5-.8h-.2Zm1.5-1a1.2 1.2 0 1 0-1.2 1.3 1.2 1.2 0 0 0 1.2-1.3Zm-2.7 0a1.5 1.5 0 1 1 1.5 1.6 1.5 1.5 0 0 1-1.5-1.5"/></svg>