<svg id="Layer_1" data-name="Layer 1" xmlns="http://www.w3.org/2000/svg" viewBox="0 0 136.3 77.6"><defs><style>.cls-1{fill:#fdbb30}.cls-2{fill:#1a75cf}</style></defs><g id="layer1"><path id="path2974" class="cls-1" d="M115.3 34a1.3 1.3 0 0 0 1.4-.8l.7-7.8c0-.7-1-1.4-2-1.4s-2 .7-2 1.4l.6 7.8a1.3 1.3 0 0 0 1.4.8"/><path id="path2976" class="cls-1" d="M111.1 36.4a1.3 1.3 0 0 0 0-1.6l-6.3-4.5c-.7-.4-1.7.1-2.3 1a1.8 1.8 0 0 0 .2 2.5l7.1 3.3a1.3 1.3 0 0 0 1.4-.7"/><path id="path2978" class="cls-1" d="M119.5 36.4a1.3 1.3 0 0 0 1.4.7l7.1-3.3c.7-.3.8-1.4.2-2.4s-1.6-1.5-2.2-1l-6.4 4.4a1.3 1.3 0 0 0 0 1.6"/><path id="path2980" class="cls-1" d="M115.3 43.6a1.3 1.3 0 0 1 1.4.9l.7 7.7c0 .8-1 1.4-2 1.4s-2-.6-2-1.4l.6-7.8c.1-.4.7-.8 1.4-.8"/><path id="path2982" class="cls-1" d="M119.5 41.2a1.2 1.2 0 0 1 1.4-.7l7.1 3.2c.7.4.8 1.5.2 2.5s-1.6 1.4-2.2 1l-6.4-4.4a1.3 1.3 0 0 1 0-1.6"/><path id="path2984" class="cls-1" d="M111.1 41.2a1.3 1.3 0 0 1 0 1.6l-6.3 4.5c-.7.3-1.7-.1-2.3-1.1s-.4-2 .2-2.5l7.1-3.2a1.3 1.3 0 0 1 1.4.7"/><path id="path2986" class="cls-2" d="M75.2 42.8a2.3 2.3 0 0 1-.1.7 2.4 2.4 0 0 1-2.4 1.6 1.6 1.6 0 0 1-1.7-1.7c0-1.8 2-2.3 4.2-2.2v1.6Zm3.4-3.1c0-3-1.2-5.5-5.4-5.5a10 10 0 0 0-4.9 1.1l.7 2.4a7.1 7.1 0 0 1 3.5-1c2.2 0 2.5 1.2 2.5 2v.2c-4.7 0-7.6 1.6-7.6 4.9a3.9 3.9 0 0 0 4.1 3.9 4.7 4.7 0 0 0 3.8-1.7s.6 2.2 3.5 1.4a19.4 19.4 0 0 1-.2-3.1v-4.6"/><path id="path2988" class="cls-2" d="m5.9 30.2 3.5 14.5c.6 2.4 1.6 3.3 4.5 2.7l2-7.8c.4-1.9.8-3.3 1-5.2h.1a51.2 51.2 0 0 0 1 5.2s.8 3.6 1.2 5.4 1.5 3 4.4 2.4L28 30.2h-3.7l-1.6 7.4c-.4 2.2-.8 3.9-1 5.9l-1-5.7-1.7-7.6h-3.9l-1.7 7.4c-.5 2.2-1 4-1.2 6l-1.1-6.3-1.4-7h-4"/><path id="path2990" class="cls-2" d="M35 42.8a2.3 2.3 0 0 1 0 .7 2.5 2.5 0 0 1-2.5 1.6 1.6 1.6 0 0 1-1.7-1.7c0-1.8 2-2.3 4.2-2.2v1.6Zm3.5-3.1c0-3-1.3-5.5-5.5-5.5a10 10 0 0 0-4.8 1.1l.7 2.4a7 7 0 0 1 3.5-1c2.1 0 2.5 1.2 2.5 2v.2c-4.7 0-7.6 1.6-7.6 4.9a3.9 3.9 0 0 0 4 3.9 4.7 4.7 0 0 0 3.8-1.7h.1s.5 2.2 3.5 1.4a18.3 18.3 0 0 1-.2-3.1v-4.6"/><path id="path2992" class="cls-2" d="M44.3 43.7V30.2h-3.5v17.2h3.5v-3.7"/><path id="path2994" class="cls-2" d="M90 30.2v12.7a5.3 5.3 0 0 0 1 3.7 3.9 3.9 0 0 0 2.8 1 8.3 8.3 0 0 0 2.6-.3v-2.7a5.3 5.3 0 0 1-1.4.1c-1.1 0-1.5-.7-1.5-2.3v-4.9h3v-3.3h-3v-4H90"/><path id="path2996" class="cls-2" d="M81 34.5v12.9h3.6v-6.6a4.7 4.7 0 0 1 0-1 2.7 2.7 0 0 1 3-2.3 6.1 6.1 0 0 1 1 .1v-3.4a3.7 3.7 0 0 0-.9 0 3.8 3.8 0 0 0-3.5 2.7v-2.4H81"/><path id="path2998" class="cls-2" d="M46.8 34.5v12.9h3.5v-7.6a3.1 3.1 0 0 1 .1-1 2.4 2.4 0 0 1 2.1-1.7c1.5 0 2.1 1.2 2.1 3v7.3h3.5v-7.7a3.6 3.6 0 0 1 .2-1 2.2 2.2 0 0 1 2-1.6c1.5 0 2.2 1.2 2.2 3.2v7.1H66v-7.6c0-4-2-5.6-4.3-5.6a4.7 4.7 0 0 0-2.6.7 5.6 5.6 0 0 0-1.6 1.6 3.7 3.7 0 0 0-3.6-2.3 4 4 0 0 0-3.7 2v-1.7h-3.5"/><path id="path3000" class="cls-1" d="m129.7 46.8.2-.1-.1-.1h-.1v.1Zm0 .3h-.1v-.6h.2a.4.4 0 0 1 .3 0 .2.2 0 0 1 0 .2l-.1.1a.2.2 0 0 1 .1.2.8.8 0 0 0 0 .1h-.2a.3.3 0 0 1 0-.1l-.1-.1v.2Zm.1-.8a.5.5 0 0 0 0 1 .5.5 0 0 0 .5-.5.5.5 0 0 0-.5-.5Zm0-.2a.7.7 0 0 1 .7.7.7.7 0 1 1-.7-.7"/></g></svg>