<svg data-name="Layer 1" xmlns="http://www.w3.org/2000/svg" xmlns:xlink="http://www.w3.org/1999/xlink" viewBox="0 0 136.3 77.6"><defs><radialGradient id="e" cx="-1946.6" cy="-65.4" r=".4" gradientTransform="matrix(7.08 25.23 -19.17 5.38 12555.3 49487.2)" gradientUnits="userSpaceOnUse"><stop offset="0" stop-color="#277a60"/><stop offset=".1" stop-color="#277a60" stop-opacity=".8"/><stop offset=".6" stop-color="#277a60" stop-opacity=".2"/><stop offset=".8" stop-color="#277a60" stop-opacity="0"/></radialGradient><radialGradient id="f" cx="-1954.4" cy="-127.8" r=".4" gradientTransform="matrix(-.35 17.71 -13.46 -.27 -2386.9 34615.2)" gradientUnits="userSpaceOnUse"><stop offset="0" stop-color="#277a60"/><stop offset=".3" stop-color="#277a60" stop-opacity=".7"/><stop offset=".7" stop-color="#277a60" stop-opacity=".2"/><stop offset=".9" stop-color="#277a60" stop-opacity="0"/></radialGradient><radialGradient id="g" cx="-1946.2" cy="-146.9" r=".4" gradientTransform="matrix(.4 16.51 -11.72 .29 -911.1 32205)" gradientUnits="userSpaceOnUse"><stop offset="0" stop-color="#277a60"/><stop offset=".1" stop-color="#277a60" stop-opacity=".9"/><stop offset=".3" stop-color="#277a60" stop-opacity=".5"/><stop offset=".6" stop-color="#277a60" stop-opacity=".2"/><stop offset=".8" stop-color="#277a60" stop-opacity=".1"/><stop offset=".9" stop-color="#277a60" stop-opacity="0"/></radialGradient><radialGradient id="h" cx="-1934.5" cy="-186.7" r=".4" gradientTransform="matrix(.33 13.33 -9.47 .23 -1111.3 25863.3)" gradientUnits="userSpaceOnUse"><stop offset="0" stop-color="#277a60"/><stop offset=".4" stop-color="#277a60" stop-opacity=".6"/><stop offset=".9" stop-color="#277a60" stop-opacity="0"/></radialGradient><radialGradient id="i" cx="-1919.3" cy="-267.5" r=".4" gradientTransform="matrix(.26 10.63 -6.8 .17 -1295.7 20482.1)" gradientUnits="userSpaceOnUse"><stop offset="0" stop-color="#25725a"/><stop offset=".1" stop-color="#25735a" stop-opacity=".9"/><stop offset=".4" stop-color="#26745c" stop-opacity=".7"/><stop offset=".7" stop-color="#26775d" stop-opacity=".4"/><stop offset="1" stop-color="#277a60" stop-opacity="0"/></radialGradient><radialGradient id="j" cx="-1871.3" cy="11.6" r=".4" gradientTransform="matrix(15.66 6.91 -5.18 11.74 29389.5 12819)" gradientUnits="userSpaceOnUse"><stop offset="0" stop-color="#277961"/><stop offset=".4" stop-color="#277961" stop-opacity=".6"/><stop offset=".7" stop-color="#277961" stop-opacity=".2"/><stop offset=".9" stop-color="#277961" stop-opacity="0"/></radialGradient><radialGradient id="a" cx="-1904.4" cy="-4.6" r=".4" gradientTransform="matrix(18.63 13.18 -12.05 17.04 35456 25198.7)" gradientUnits="userSpaceOnUse"><stop offset="0" stop-color="#46d7c2"/><stop offset=".1" stop-color="#45d5c0" stop-opacity=".9"/><stop offset=".4" stop-color="#42ccb8" stop-opacity=".4"/><stop offset=".7" stop-color="#3fc6b3" stop-opacity=".1"/><stop offset=".8" stop-color="#3ec4b1" stop-opacity="0"/></radialGradient><radialGradient id="k" cx="-1985.8" cy="23.9" r=".4" gradientTransform="matrix(3310.55 2341.61 -1643.22 2323.18 6597078.5 4572364.9)" xlink:href="#a"/><radialGradient id="l" cx="-1976.8" cy="-63.5" r=".4" gradientTransform="matrix(-3.83 19.76 -24.42 -4.73 -9097.3 38797.7)" gradientUnits="userSpaceOnUse"><stop offset="0" stop-color="#287e66" stop-opacity=".8"/><stop offset=".1" stop-color="#318a70" stop-opacity=".7"/><stop offset=".2" stop-color="#42a585" stop-opacity=".4"/><stop offset=".3" stop-color="#4fb893" stop-opacity=".2"/><stop offset=".5" stop-color="#56c39c" stop-opacity="0"/><stop offset=".6" stop-color="#59c79f" stop-opacity="0"/></radialGradient><radialGradient id="m" cx="-1969.2" cy="90.8" r=".4" gradientTransform="matrix(16.62 -20.39 22.02 17.95 30746.7 -41748.3)" gradientUnits="userSpaceOnUse"><stop offset="0" stop-color="#1e7c88"/><stop offset="0" stop-color="#1e7c88" stop-opacity=".9"/><stop offset=".3" stop-color="#1f7f8b" stop-opacity=".4"/><stop offset=".5" stop-color="#20808d" stop-opacity=".1"/><stop offset=".7" stop-color="#20818e" stop-opacity="0"/></radialGradient><radialGradient id="n" cx="-1944.2" cy="102.8" r=".4" gradientTransform="matrix(21.84 -13.47 10.64 17.26 41394.2 -27925.9)" gradientUnits="userSpaceOnUse"><stop offset=".1" stop-color="#1f7d85"/><stop offset=".1" stop-color="#1f7e87" stop-opacity=".8"/><stop offset=".2" stop-color="#1f7f89" stop-opacity=".5"/><stop offset=".3" stop-color="#20808b" stop-opacity=".3"/><stop offset=".4" stop-color="#20808d" stop-opacity=".1"/><stop offset=".5" stop-color="#20818e" stop-opacity="0"/><stop offset=".6" stop-color="#20818e" stop-opacity="0"/></radialGradient><radialGradient id="o" cx="-2116.2" cy="105" r=".4" gradientTransform="matrix(-9.94 -11.62 9.15 -7.82 -21969.7 -23731.4)" gradientUnits="userSpaceOnUse"><stop offset=".3" stop-color="#1f7f88"/><stop offset=".3" stop-color="#1f7f88"/><stop offset=".4" stop-color="#1f808a" stop-opacity=".7"/><stop offset=".5" stop-color="#20808b" stop-opacity=".4"/><stop offset=".6" stop-color="#20808d" stop-opacity=".2"/><stop offset=".7" stop-color="#20818d" stop-opacity=".1"/><stop offset=".9" stop-color="#20818e" stop-opacity="0"/><stop offset="1" stop-color="#20818e" stop-opacity="0"/></radialGradient><radialGradient id="p" cx="-2138.4" cy="-14.8" r=".4" gradientTransform="rotate(-173.1 -15317 -1011.8) scale(14.34)" gradientUnits="userSpaceOnUse"><stop offset="0" stop-color="#19656d"/><stop offset=".1" stop-color="#19646d" stop-opacity=".7"/><stop offset=".3" stop-color="#18646d" stop-opacity=".4"/><stop offset=".4" stop-color="#18636d" stop-opacity=".2"/><stop offset=".6" stop-color="#18636d" stop-opacity=".1"/><stop offset=".7" stop-color="#18636d" stop-opacity="0"/></radialGradient><radialGradient id="q" cx="-2156.4" cy="182.5" r=".4" gradientTransform="matrix(-4.91 -8.74 7.35 -4.13 -11912.6 -18065.7)" gradientUnits="userSpaceOnUse"><stop offset=".1" stop-color="#1a6a72"/><stop offset=".2" stop-color="#1c6f78" stop-opacity=".8"/><stop offset=".5" stop-color="#1e7781" stop-opacity=".5"/><stop offset=".7" stop-color="#1e7d88" stop-opacity=".2"/><stop offset=".8" stop-color="#20808c" stop-opacity=".1"/><stop offset=".9" stop-color="#20818e" stop-opacity="0"/></radialGradient><radialGradient id="r" cx="-1942.4" cy="296.5" r=".4" gradientTransform="matrix(5.28 -7.82 6.2 4.18 8429.8 -16395.1)" gradientUnits="userSpaceOnUse"><stop offset="0" stop-color="#238d9a"/><stop offset=".1" stop-color="#238d9a" stop-opacity=".9"/><stop offset=".4" stop-color="#238d9a" stop-opacity=".5"/><stop offset=".7" stop-color="#238d9a" stop-opacity=".2"/><stop offset=".9" stop-color="#238d9a" stop-opacity=".1"/><stop offset="1" stop-color="#238d9a" stop-opacity="0"/></radialGradient><radialGradient id="b" cx="-1980.6" cy="-79" r=".4" gradientTransform="matrix(-4.76 31.17 -20.57 -3.14 -11029.8 61513.5)" gradientUnits="userSpaceOnUse"><stop offset="0" stop-color="#1d4099"/><stop offset=".4" stop-color="#1d4099" stop-opacity=".4"/><stop offset=".7" stop-color="#1d4099" stop-opacity="0"/></radialGradient><radialGradient id="y" cx="-1987" cy="22.2" r=".4" gradientTransform="matrix(-586.04 3834.26 -2067.4 -315.99 -1110156.5 7604168.7)" xlink:href="#b"/><radialGradient id="z" cx="-1988.2" cy="21.7" r=".4" gradientTransform="matrix(-692.01 4567.3 -1886.86 -285.89 -1327507.9 9064963.6)" xlink:href="#b"/><radialGradient id="A" cx="-1959" cy="-77.1" r=".4" gradientTransform="matrix(3.32 27.36 -19.09 2.31 5053.6 53805.8)" gradientUnits="userSpaceOnUse"><stop offset="0" stop-color="#1d4099"/><stop offset=".2" stop-color="#1d4099" stop-opacity=".7"/><stop offset=".3" stop-color="#1d4099" stop-opacity=".4"/><stop offset=".5" stop-color="#1d4099" stop-opacity=".2"/><stop offset=".6" stop-color="#1d4099" stop-opacity=".1"/><stop offset=".7" stop-color="#1d4099" stop-opacity="0"/></radialGradient><radialGradient id="B" cx="-1947.7" cy="-74.4" r=".4" gradientTransform="matrix(7.02 25.54 -17.37 4.77 12402.7 50130.8)" gradientUnits="userSpaceOnUse"><stop offset="0" stop-color="#1b3b8c"/><stop offset=".4" stop-color="#1c3e93" stop-opacity=".5"/><stop offset=".7" stop-color="#1d4099" stop-opacity="0"/></radialGradient><radialGradient id="C" cx="-1893.9" cy="-125.6" r=".4" gradientTransform="matrix(3.26 11.87 -11.28 3.1 4790.3 22914.9)" gradientUnits="userSpaceOnUse"><stop offset="0" stop-color="#1b3b8c"/><stop offset=".1" stop-color="#1b3c8f" stop-opacity=".8"/><stop offset=".2" stop-color="#1c3e93" stop-opacity=".5"/><stop offset=".3" stop-color="#1c3f95" stop-opacity=".3"/><stop offset=".5" stop-color="#1d3f97" stop-opacity=".1"/><stop offset=".6" stop-color="#1d4099" stop-opacity="0"/><stop offset=".7" stop-color="#1d4099" stop-opacity="0"/></radialGradient><radialGradient id="D" cx="-1894" cy="-125.6" r=".4" gradientTransform="matrix(3.26 11.87 -11.28 3.1 4790.6 22917)" gradientUnits="userSpaceOnUse"><stop offset="0" stop-color="#1d4099" stop-opacity=".8"/><stop offset="0" stop-color="#1d4099" stop-opacity=".8"/><stop offset=".2" stop-color="#1d4099" stop-opacity=".5"/><stop offset=".4" stop-color="#1d4099" stop-opacity=".2"/><stop offset=".6" stop-color="#1d4099" stop-opacity=".1"/><stop offset=".7" stop-color="#1d4099" stop-opacity="0"/></radialGradient><radialGradient id="E" cx="-1944.8" cy="-58.8" r=".4" gradientTransform="matrix(11.47 27.06 -17.96 7.61 21267.2 53103.8)" gradientUnits="userSpaceOnUse"><stop offset="0" stop-color="#1d4099"/><stop offset=".4" stop-color="#1d4099" stop-opacity=".6"/><stop offset=".5" stop-color="#1d4099" stop-opacity=".4"/><stop offset=".7" stop-color="#1d4099" stop-opacity=".1"/><stop offset=".8" stop-color="#1d4099" stop-opacity="0"/></radialGradient><radialGradient id="F" cx="-1939.2" cy="-101.6" r=".4" gradientTransform="matrix(5.24 21.16 -13.97 3.46 8749.2 41417.4)" gradientUnits="userSpaceOnUse"><stop offset="0" stop-color="#1d4099"/><stop offset=".1" stop-color="#1d4099" stop-opacity=".9"/><stop offset=".2" stop-color="#1d4099" stop-opacity=".6"/><stop offset=".4" stop-color="#1d4099" stop-opacity=".4"/><stop offset=".5" stop-color="#1d4099" stop-opacity=".2"/><stop offset=".7" stop-color="#1d4099" stop-opacity=".1"/><stop offset=".8" stop-color="#1d4099" stop-opacity="0"/><stop offset="1" stop-color="#1d4099" stop-opacity="0"/></radialGradient><radialGradient id="G" cx="-1939.2" cy="-101.6" r=".4" gradientTransform="matrix(5.24 21.16 -13.97 3.46 8749.2 41417.4)" gradientUnits="userSpaceOnUse"><stop offset="0" stop-color="#1e419a"/><stop offset=".1" stop-color="#1e419a" stop-opacity=".9"/><stop offset=".2" stop-color="#1e419a" stop-opacity=".6"/><stop offset=".4" stop-color="#1d4099" stop-opacity=".4"/><stop offset=".5" stop-color="#1d4099" stop-opacity=".2"/><stop offset=".7" stop-color="#1d4099" stop-opacity=".1"/><stop offset=".8" stop-color="#1d4099" stop-opacity="0"/><stop offset="1" stop-color="#1d4099" stop-opacity="0"/></radialGradient><radialGradient id="H" cx="-1922.1" cy="-138.9" r=".4" gradientTransform="matrix(4.01 16.19 -10.69 2.64 6230.1 31514.6)" gradientUnits="userSpaceOnUse"><stop offset="0" stop-color="#1b3c8e"/><stop offset="0" stop-color="#1b3c8f" stop-opacity=".9"/><stop offset=".2" stop-color="#1c3d92" stop-opacity=".7"/><stop offset=".3" stop-color="#1c3e94" stop-opacity=".4"/><stop offset=".5" stop-color="#1d3f96" stop-opacity=".2"/><stop offset=".7" stop-color="#1d4098" stop-opacity=".1"/><stop offset=".8" stop-color="#1d4099" stop-opacity="0"/><stop offset="1" stop-color="#1d4099" stop-opacity="0"/></radialGradient><radialGradient id="I" cx="-1930.1" cy="-147.8" r=".4" gradientTransform="matrix(.66 13.16 -11.59 .58 -425.6 25519.8)" gradientUnits="userSpaceOnUse"><stop offset="0" stop-color="#2858d2" stop-opacity=".6"/><stop offset=".2" stop-color="#2858d2" stop-opacity=".5"/><stop offset=".5" stop-color="#2858d2" stop-opacity=".2"/><stop offset=".7" stop-color="#2858d2" stop-opacity="0"/></radialGradient><linearGradient id="d" x1="8.5" y1="799.4" x2="32.3" y2="789.8" gradientTransform="translate(0 -762.6)" gradientUnits="userSpaceOnUse"><stop offset=".1" stop-color="#2cbbef"/><stop offset=".3" stop-color="#2998a3"/><stop offset=".5" stop-color="#2a9ba4"/><stop offset=".5" stop-color="#2ea3a8"/><stop offset=".6" stop-color="#35b2ae"/><stop offset=".6" stop-color="#3abcb2"/><stop offset=".8" stop-color="#3fb890"/><stop offset="1" stop-color="#66ed63"/></linearGradient><linearGradient id="s" x1="10" y1="784.1" x2="20.5" y2="793.8" gradientTransform="translate(0 -762.6)" gradientUnits="userSpaceOnUse"><stop offset=".1" stop-color="#3ef8fd"/><stop offset=".3" stop-color="#3df8fd" stop-opacity=".6"/><stop offset=".4" stop-color="#3bf9fd" stop-opacity=".3"/><stop offset=".5" stop-color="#3bf9fd" stop-opacity=".1"/><stop offset=".5" stop-color="#3bf9fd" stop-opacity="0"/></linearGradient><linearGradient id="t" x1="4.1" y1="799.9" x2="16.3" y2="796.5" gradientTransform="translate(0 -762.6)" gradientUnits="userSpaceOnUse"><stop offset="0" stop-color="#3bf9fd"/><stop offset=".1" stop-color="#3bf9fd" stop-opacity=".9"/><stop offset=".2" stop-color="#3bf9fd" stop-opacity=".5"/><stop offset=".4" stop-color="#3bf9fd" stop-opacity=".2"/><stop offset=".5" stop-color="#3bf9fd" stop-opacity=".1"/><stop offset=".6" stop-color="#3bf9fd" stop-opacity="0"/></linearGradient><linearGradient id="u" x1="7.4" y1="799.5" x2="21.1" y2="794.6" gradientTransform="translate(0 -762.6)" gradientUnits="userSpaceOnUse"><stop offset="0" stop-color="#34ddfc"/><stop offset="0" stop-color="#34ddfc" stop-opacity=".9"/><stop offset=".2" stop-color="#34ddfc" stop-opacity=".5"/><stop offset=".3" stop-color="#34ddfc" stop-opacity=".2"/><stop offset=".3" stop-color="#34ddfc" stop-opacity=".1"/><stop offset=".4" stop-color="#34ddfc" stop-opacity="0"/></linearGradient><linearGradient id="v" x1="20.4" y1="792.4" x2="28.2" y2="805" gradientTransform="translate(0 -762.6)" gradientUnits="userSpaceOnUse"><stop offset=".6" stop-color="#34ddfc" stop-opacity="0"/><stop offset=".7" stop-color="#34ddfc" stop-opacity=".1"/><stop offset=".7" stop-color="#34ddfc" stop-opacity=".2"/><stop offset=".8" stop-color="#34ddfc" stop-opacity=".5"/><stop offset="1" stop-color="#34ddfc" stop-opacity=".9"/><stop offset="1" stop-color="#34ddfc"/></linearGradient><linearGradient id="w" x1="29" y1="797.1" x2="27.8" y2="791.2" gradientTransform="translate(0 -762.6)" gradientUnits="userSpaceOnUse"><stop offset="0" stop-color="#49ae4a"/><stop offset=".1" stop-color="#49ae4a" stop-opacity=".8"/><stop offset=".3" stop-color="#49ae4a" stop-opacity=".5"/><stop offset=".4" stop-color="#49ae4a" stop-opacity=".3"/><stop offset=".6" stop-color="#49ae4a" stop-opacity=".1"/><stop offset=".7" stop-color="#49ae4a" stop-opacity="0"/><stop offset=".8" stop-color="#49ae4a" stop-opacity="0"/></linearGradient><linearGradient id="x" x1="12.1" y1="790.9" x2="37.6" y2="799.4" gradientTransform="translate(0 -762.6)" gradientUnits="userSpaceOnUse"><stop offset="0" stop-color="#346bf6"/><stop offset=".4" stop-color="#3369f2"/><stop offset=".7" stop-color="#2c5bd5"/><stop offset="1" stop-color="#4081fa"/></linearGradient><linearGradient id="J" x1="28.7" y1="780.5" x2="22.2" y2="796.5" gradientTransform="translate(0 -762.6)" gradientUnits="userSpaceOnUse"><stop offset="0" stop-color="#3b78fa"/><stop offset=".1" stop-color="#3b78fa" stop-opacity=".9"/><stop offset=".2" stop-color="#3b78fa" stop-opacity=".7"/><stop offset=".3" stop-color="#3b78fa" stop-opacity=".3"/><stop offset=".4" stop-color="#3b78fa" stop-opacity="0"/></linearGradient><clipPath id="c"><path fill="none" d="M7.1 22h122.1v33.6H7.1z"/></clipPath></defs><g clip-path="url(#c)"><path d="M65.2 28h3.2l-4.7 14.3H60l-3.5-10.7L53 42.3h-3.7L44.6 28H48l3.4 10.8L54.8 28h3.5l3.5 10.8ZM82.3 36.3H71.8a4.9 4.9 0 0 0 .8 2 4 4 0 0 0 1.5 1.2 4.9 4.9 0 0 0 1.9.5 6.2 6.2 0 0 0 2.2-.4 7 7 0 0 0 2-1.1l1.5 2.2a7.2 7.2 0 0 1-2.7 1.5 11.3 11.3 0 0 1-3.2.4 7.7 7.7 0 0 1-3.8-.9 6.3 6.3 0 0 1-2.6-2.6 8.9 8.9 0 0 1 0-7.9 6.7 6.7 0 0 1 2.6-2.6 7.3 7.3 0 0 1 3.7-1 6.4 6.4 0 0 1 5.9 3.6 8.8 8.8 0 0 1 .8 4 9.2 9.2 0 0 0-.1 1.1ZM79.2 34a4.5 4.5 0 0 0-1.2-2.6 3.3 3.3 0 0 0-2.4-.9 3.5 3.5 0 0 0-2.5 1 4.4 4.4 0 0 0-1.2 2.5ZM95.5 28.7a6.9 6.9 0 0 1 2.6 2.6 8.3 8.3 0 0 1 0 7.7 7 7 0 0 1-2.6 2.7 6.6 6.6 0 0 1-3.6 1 6.4 6.4 0 0 1-2.5-.5 5.3 5.3 0 0 1-2-1.5v1.7h-3V22h3v7.8a5.3 5.3 0 0 1 2-1.6 5.3 5.3 0 0 1 2.5-.5 6.5 6.5 0 0 1 3.6 1ZM93.8 39a4 4 0 0 0 1.6-1.6 5.5 5.5 0 0 0 .5-2.3 5.3 5.3 0 0 0-.5-2.3 4 4 0 0 0-1.6-1.6 4.5 4.5 0 0 0-4.5 0 4 4 0 0 0-1.5 1.6 4.7 4.7 0 0 0-.5 2.3 5.3 5.3 0 0 0 .5 2.4 3.9 3.9 0 0 0 1.5 1.6 4.5 4.5 0 0 0 2.3.6 5.8 5.8 0 0 0 2.2-.7ZM114.4 36.3h-10.5a4.9 4.9 0 0 0 .8 2 4 4 0 0 0 1.5 1.2 4.9 4.9 0 0 0 1.9.4 6.2 6.2 0 0 0 2.2-.4 7 7 0 0 0 2-1l1.5 2.1a7.2 7.2 0 0 1-2.7 1.5 11.3 11.3 0 0 1-3.1.5 7.7 7.7 0 0 1-3.8-.9 6.3 6.3 0 0 1-2.6-2.6 8.9 8.9 0 0 1 0-7.9 6.7 6.7 0 0 1 2.6-2.6 7.3 7.3 0 0 1 3.6-1 6.4 6.4 0 0 1 6 3.6 8.8 8.8 0 0 1 .8 4l-.2 1.1Zm-3.1-2.4a4.5 4.5 0 0 0-1.2-2.6 3.3 3.3 0 0 0-2.4-.9 3.5 3.5 0 0 0-2.6 1 4.3 4.3 0 0 0-1.2 2.5ZM129.2 42.3h-3.8l-3.6-5-3.5 5h-3.7L120 35l-5.3-7h3.8l3.5 4.8 3.4-4.8h3.7l-5.3 7ZM91.8 54h-.6v-5.7h.8v2.2a1.8 1.8 0 0 1 .6-.6 1.7 1.7 0 0 1 .8-.1 2.4 2.4 0 0 1 .8.1 1.6 1.6 0 0 1 .6.5 2.8 2.8 0 0 1-.2 3.2 1.6 1.6 0 0 1-.6.4 1.8 1.8 0 0 1-.7.1 1.7 1.7 0 0 1-.8-.1 2.3 2.3 0 0 1-.6-.5Zm2.6-2.1a1.6 1.6 0 0 0-.4-1.2 2 2 0 0 0-.4-.2 1.7 1.7 0 0 0-.4-.1 2.4 2.4 0 0 0-.6 0 1 1 0 0 0-.3.4 1.6 1.6 0 0 0-.3 1 1.7 1.7 0 0 0 .4 1.3.8.8 0 0 0 .3.2 1.6 1.6 0 0 0 .5.1 2.5 2.5 0 0 0 .5 0 .8.8 0 0 0 .4-.4 1.6 1.6 0 0 0 .3-1.1ZM99.3 50 97.9 54a2.9 2.9 0 0 1-.6 1.1.7.7 0 0 1-.3.3 1.3 1.3 0 0 1-.5 0 1.4 1.4 0 0 1-.5 0v-.6a1.3 1.3 0 0 0 .4 0 .4.4 0 0 0 .3 0 1 1 0 0 0 .1-.1 4.2 4.2 0 0 0 .4-.8h-.3L95.4 50h.8l1.2 3.5 1.2-3.5ZM109.8 48.3h-1.5v5.8h1.5ZM121.5 50a2.5 2.5 0 0 0-1.3-.3 1.5 1.5 0 0 0-1.6 1.5 1.5 1.5 0 0 0 1.7 1.5 2.5 2.5 0 0 0 1.2-.3V54a4.5 4.5 0 0 1-1.3.2 3 3 0 1 1 0-6 4.3 4.3 0 0 1 1.3.2ZM106.3 50a2.5 2.5 0 0 0-1.2-.3 1.5 1.5 0 0 0-1.6 1.5 1.5 1.5 0 0 0 1.6 1.5 2.5 2.5 0 0 0 1.3-.3V54a4.5 4.5 0 0 1-1.4.2 3 3 0 1 1 0-6 4.8 4.8 0 0 1 1.3.2ZM126 49.7a1.4 1.4 0 0 0-1 .5 1.2 1.2 0 0 0-.3.4.8.8 0 0 0 0 .6 2.3 2.3 0 0 0 0 .6 2 2 0 0 0 .3.4 1.8 1.8 0 0 0 .5.4 1.3 1.3 0 0 0 .5.1 1.2 1.2 0 0 0 .6-.1 1.1 1.1 0 0 0 .5-.4 1.2 1.2 0 0 0 .3-.4.8.8 0 0 0 0-.6 2.3 2.3 0 0 0 0-.6 1.8 1.8 0 0 0-.3-.4 1.9 1.9 0 0 0-.5-.4.8.8 0 0 0-.6-.1Zm3 1.5a3 3 0 1 1-3-3 3 3 0 0 1 3 3ZM115.3 49.6a5 5 0 0 0-1.2-.2c-.5 0-.9.2-.9.5s.5.5.7.6l.4.1a1.7 1.7 0 0 1 1.4 1.6c0 1.5-1.3 2-2.4 2a6.4 6.4 0 0 1-1.6-.2v-1.4a4.9 4.9 0 0 0 1.4.2c.7 0 1-.2 1-.5s-.3-.4-.6-.5l-.4-.1a1.8 1.8 0 0 1-1.4-1.7c0-1 .8-1.8 2.1-1.8a8.7 8.7 0 0 1 1.5.2Z"/><path d="M14.1 33a16 16 0 0 0 1.4 3.4 3.1 3.1 0 0 0 1 1.3l.2.1c.7.1 1.1-.4 1.4-1a25.8 25.8 0 0 0 .9-2.4l.1-.5a8 8 0 0 0 .2-.9l3.1-8.2a6.9 6.9 0 0 1 2.4-2 6 6 0 0 1 3-.8 7 7 0 0 1 4.3 1.5 11.9 11.9 0 0 1 3.2 4.5 3.1 3.1 0 0 1 .3 1.3 3.7 3.7 0 0 1-.2 1.1 4.9 4.9 0 0 1-.7 1 2.7 2.7 0 0 1-1 .7 3.5 3.5 0 0 1-1.2.2 2.5 2.5 0 0 1-1.2-.3 3.7 3.7 0 0 1-1-.8 6 6 0 0 1-.5-.9 7.3 7.3 0 0 0-.6-1l-.3-.6a1.1 1.1 0 0 0-.4-.4.8.8 0 0 0-1-.1 2.5 2.5 0 0 0-.7 1 21.4 21.4 0 0 0-1 3.3l-.1.6-1.3 4.2-1.8 3.9a6.7 6.7 0 0 1-2.6 2 7.5 7.5 0 0 1-3 .7 7.5 7.5 0 0 1-6.4-3.9c-2.5-4-3.2-9.4-3.4-11.1a3.3 3.3 0 0 1 0-.6 2.7 2.7 0 0 1 .4-1.6 2.8 2.8 0 0 1 1-1 3.5 3.5 0 0 1 1.7-.4 3 3 0 0 1 1.5.4 3 3 0 0 1 .8.8 4 4 0 0 1 .6 2 25.5 25.5 0 0 0 1 4.5Z" fill="url(#d)"/><path d="M14.1 33a16 16 0 0 0 1.4 3.4 3.1 3.1 0 0 0 1 1.3l.2.1c.7.1 1.1-.4 1.4-1a25.8 25.8 0 0 0 .9-2.4l.1-.5a8 8 0 0 0 .2-.9l3.1-8.2a6.9 6.9 0 0 1 2.4-2 6 6 0 0 1 3-.8 7 7 0 0 1 4.3 1.5 11.9 11.9 0 0 1 3.2 4.5 3.1 3.1 0 0 1 .3 1.3 3.7 3.7 0 0 1-.2 1.1 4.9 4.9 0 0 1-.7 1 2.7 2.7 0 0 1-1 .7 3.5 3.5 0 0 1-1.2.2 2.5 2.5 0 0 1-1.2-.3 3.7 3.7 0 0 1-1-.8 6 6 0 0 1-.5-.9 7.3 7.3 0 0 0-.6-1l-.3-.6a1.1 1.1 0 0 0-.4-.4.8.8 0 0 0-1-.1 2.5 2.5 0 0 0-.7 1 21.4 21.4 0 0 0-1 3.3l-.1.6-1.3 4.2-1.8 3.9a6.7 6.7 0 0 1-2.6 2 7.5 7.5 0 0 1-3 .7 7.5 7.5 0 0 1-6.4-3.9c-2.5-4-3.2-9.4-3.4-11.1a3.3 3.3 0 0 1 0-.6 2.7 2.7 0 0 1 .4-1.6 2.8 2.8 0 0 1 1-1 3.5 3.5 0 0 1 1.7-.4 3 3 0 0 1 1.5.4 3 3 0 0 1 .8.8 4 4 0 0 1 .6 2 25.5 25.5 0 0 0 1 4.5Z" fill="url(#e)"/><path d="M14.1 33a16 16 0 0 0 1.4 3.4 3.1 3.1 0 0 0 1 1.3l.2.1c.7.1 1.1-.4 1.4-1a25.8 25.8 0 0 0 .9-2.4l.1-.5a8 8 0 0 0 .2-.9l3.1-8.2a6.9 6.9 0 0 1 2.4-2 6 6 0 0 1 3-.8 7 7 0 0 1 4.3 1.5 11.9 11.9 0 0 1 3.2 4.5 3.1 3.1 0 0 1 .3 1.3 3.7 3.7 0 0 1-.2 1.1 4.9 4.9 0 0 1-.7 1 2.7 2.7 0 0 1-1 .7 3.5 3.5 0 0 1-1.2.2 2.5 2.5 0 0 1-1.2-.3 3.7 3.7 0 0 1-1-.8 6 6 0 0 1-.5-.9 7.3 7.3 0 0 0-.6-1l-.3-.6a1.1 1.1 0 0 0-.4-.4.8.8 0 0 0-1-.1 2.5 2.5 0 0 0-.7 1 21.4 21.4 0 0 0-1 3.3l-.1.6-1.3 4.2-1.8 3.9a6.7 6.7 0 0 1-2.6 2 7.5 7.5 0 0 1-3 .7 7.5 7.5 0 0 1-6.4-3.9c-2.5-4-3.2-9.4-3.4-11.1a3.3 3.3 0 0 1 0-.6 2.7 2.7 0 0 1 .4-1.6 2.8 2.8 0 0 1 1-1 3.5 3.5 0 0 1 1.7-.4 3 3 0 0 1 1.5.4 3 3 0 0 1 .8.8 4 4 0 0 1 .6 2 25.5 25.5 0 0 0 1 4.5Z" fill="url(#f)"/><path d="M14.1 33a16 16 0 0 0 1.4 3.4 3.1 3.1 0 0 0 1 1.3l.2.1c.7.1 1.1-.4 1.4-1a25.8 25.8 0 0 0 .9-2.4l.1-.5a8 8 0 0 0 .2-.9l3.1-8.2a6.9 6.9 0 0 1 2.4-2 6 6 0 0 1 3-.8 7 7 0 0 1 4.3 1.5 11.9 11.9 0 0 1 3.2 4.5 3.1 3.1 0 0 1 .3 1.3 3.7 3.7 0 0 1-.2 1.1 4.9 4.9 0 0 1-.7 1 2.7 2.7 0 0 1-1 .7 3.5 3.5 0 0 1-1.2.2 2.5 2.5 0 0 1-1.2-.3 3.7 3.7 0 0 1-1-.8 6 6 0 0 1-.5-.9 7.3 7.3 0 0 0-.6-1l-.3-.6a1.1 1.1 0 0 0-.4-.4.8.8 0 0 0-1-.1 2.5 2.5 0 0 0-.7 1 21.4 21.4 0 0 0-1 3.3l-.1.6-1.3 4.2-1.8 3.9a6.7 6.7 0 0 1-2.6 2 7.5 7.5 0 0 1-3 .7 7.5 7.5 0 0 1-6.4-3.9c-2.5-4-3.2-9.4-3.4-11.1a3.3 3.3 0 0 1 0-.6 2.7 2.7 0 0 1 .4-1.6 2.8 2.8 0 0 1 1-1 3.5 3.5 0 0 1 1.7-.4 3 3 0 0 1 1.5.4 3 3 0 0 1 .8.8 4 4 0 0 1 .6 2 25.5 25.5 0 0 0 1 4.5Z" fill="url(#g)"/><path d="M14.1 33a16 16 0 0 0 1.4 3.4 3.1 3.1 0 0 0 1 1.3l.2.1c.7.1 1.1-.4 1.4-1a25.8 25.8 0 0 0 .9-2.4l.1-.5a8 8 0 0 0 .2-.9l3.1-8.2a6.9 6.9 0 0 1 2.4-2 6 6 0 0 1 3-.8 7 7 0 0 1 4.3 1.5 11.9 11.9 0 0 1 3.2 4.5 3.1 3.1 0 0 1 .3 1.3 3.7 3.7 0 0 1-.2 1.1 4.9 4.9 0 0 1-.7 1 2.7 2.7 0 0 1-1 .7 3.5 3.5 0 0 1-1.2.2 2.5 2.5 0 0 1-1.2-.3 3.7 3.7 0 0 1-1-.8 6 6 0 0 1-.5-.9 7.3 7.3 0 0 0-.6-1l-.3-.6a1.1 1.1 0 0 0-.4-.4.8.8 0 0 0-1-.1 2.5 2.5 0 0 0-.7 1 21.4 21.4 0 0 0-1 3.3l-.1.6-1.3 4.2-1.8 3.9a6.7 6.7 0 0 1-2.6 2 7.5 7.5 0 0 1-3 .7 7.5 7.5 0 0 1-6.4-3.9c-2.5-4-3.2-9.4-3.4-11.1a3.3 3.3 0 0 1 0-.6 2.7 2.7 0 0 1 .4-1.6 2.8 2.8 0 0 1 1-1 3.5 3.5 0 0 1 1.7-.4 3 3 0 0 1 1.5.4 3 3 0 0 1 .8.8 4 4 0 0 1 .6 2 25.5 25.5 0 0 0 1 4.5Z" fill="url(#h)"/><path d="M14.1 33a16 16 0 0 0 1.4 3.4 3.1 3.1 0 0 0 1 1.3l.2.1c.7.1 1.1-.4 1.4-1a25.8 25.8 0 0 0 .9-2.4l.1-.5a8 8 0 0 0 .2-.9l3.1-8.2a6.9 6.9 0 0 1 2.4-2 6 6 0 0 1 3-.8 7 7 0 0 1 4.3 1.5 11.9 11.9 0 0 1 3.2 4.5 3.1 3.1 0 0 1 .3 1.3 3.7 3.7 0 0 1-.2 1.1 4.9 4.9 0 0 1-.7 1 2.7 2.7 0 0 1-1 .7 3.5 3.5 0 0 1-1.2.2 2.5 2.5 0 0 1-1.2-.3 3.7 3.7 0 0 1-1-.8 6 6 0 0 1-.5-.9 7.3 7.3 0 0 0-.6-1l-.3-.6a1.1 1.1 0 0 0-.4-.4.8.8 0 0 0-1-.1 2.5 2.5 0 0 0-.7 1 21.4 21.4 0 0 0-1 3.3l-.1.6-1.3 4.2-1.8 3.9a6.7 6.7 0 0 1-2.6 2 7.5 7.5 0 0 1-3 .7 7.5 7.5 0 0 1-6.4-3.9c-2.5-4-3.2-9.4-3.4-11.1a3.3 3.3 0 0 1 0-.6 2.7 2.7 0 0 1 .4-1.6 2.8 2.8 0 0 1 1-1 3.5 3.5 0 0 1 1.7-.4 3 3 0 0 1 1.5.4 3 3 0 0 1 .8.8 4 4 0 0 1 .6 2 25.5 25.5 0 0 0 1 4.5Z" fill="url(#i)"/><path d="M14.1 33a16 16 0 0 0 1.4 3.4 3.1 3.1 0 0 0 1 1.3l.2.1c.7.1 1.1-.4 1.4-1a25.8 25.8 0 0 0 .9-2.4l.1-.5a8 8 0 0 0 .2-.9l3.1-8.2a6.9 6.9 0 0 1 2.4-2 6 6 0 0 1 3-.8 7 7 0 0 1 4.3 1.5 11.9 11.9 0 0 1 3.2 4.5 3.1 3.1 0 0 1 .3 1.3 3.7 3.7 0 0 1-.2 1.1 4.9 4.9 0 0 1-.7 1 2.7 2.7 0 0 1-1 .7 3.5 3.5 0 0 1-1.2.2 2.5 2.5 0 0 1-1.2-.3 3.7 3.7 0 0 1-1-.8 6 6 0 0 1-.5-.9 7.3 7.3 0 0 0-.6-1l-.3-.6a1.1 1.1 0 0 0-.4-.4.8.8 0 0 0-1-.1 2.5 2.5 0 0 0-.7 1 21.4 21.4 0 0 0-1 3.3l-.1.6-1.3 4.2-1.8 3.9a6.7 6.7 0 0 1-2.6 2 7.5 7.5 0 0 1-3 .7 7.5 7.5 0 0 1-6.4-3.9c-2.5-4-3.2-9.4-3.4-11.1a3.3 3.3 0 0 1 0-.6 2.7 2.7 0 0 1 .4-1.6 2.8 2.8 0 0 1 1-1 3.5 3.5 0 0 1 1.7-.4 3 3 0 0 1 1.5.4 3 3 0 0 1 .8.8 4 4 0 0 1 .6 2 25.5 25.5 0 0 0 1 4.5Z" fill="url(#j)"/><path d="M14.1 33a16 16 0 0 0 1.4 3.4 3.1 3.1 0 0 0 1 1.3l.2.1c.7.1 1.1-.4 1.4-1a25.8 25.8 0 0 0 .9-2.4l.1-.5a8 8 0 0 0 .2-.9l3.1-8.2a6.9 6.9 0 0 1 2.4-2 6 6 0 0 1 3-.8 7 7 0 0 1 4.3 1.5 11.9 11.9 0 0 1 3.2 4.5 3.1 3.1 0 0 1 .3 1.3 3.7 3.7 0 0 1-.2 1.1 4.9 4.9 0 0 1-.7 1 2.7 2.7 0 0 1-1 .7 3.5 3.5 0 0 1-1.2.2 2.5 2.5 0 0 1-1.2-.3 3.7 3.7 0 0 1-1-.8 6 6 0 0 1-.5-.9 7.3 7.3 0 0 0-.6-1l-.3-.6a1.1 1.1 0 0 0-.4-.4.8.8 0 0 0-1-.1 2.5 2.5 0 0 0-.7 1 21.4 21.4 0 0 0-1 3.3l-.1.6-1.3 4.2-1.8 3.9a6.7 6.7 0 0 1-2.6 2 7.5 7.5 0 0 1-3 .7 7.5 7.5 0 0 1-6.4-3.9c-2.5-4-3.2-9.4-3.4-11.1a3.3 3.3 0 0 1 0-.6 2.7 2.7 0 0 1 .4-1.6 2.8 2.8 0 0 1 1-1 3.5 3.5 0 0 1 1.7-.4 3 3 0 0 1 1.5.4 3 3 0 0 1 .8.8 4 4 0 0 1 .6 2 25.5 25.5 0 0 0 1 4.5Z" fill="url(#a)"/><path d="M14.1 33a16 16 0 0 0 1.4 3.4 3.1 3.1 0 0 0 1 1.3l.2.1c.7.1 1.1-.4 1.4-1a25.8 25.8 0 0 0 .9-2.4l.1-.5a8 8 0 0 0 .2-.9l3.1-8.2a6.9 6.9 0 0 1 2.4-2 6 6 0 0 1 3-.8 7 7 0 0 1 4.3 1.5 11.9 11.9 0 0 1 3.2 4.5 3.1 3.1 0 0 1 .3 1.3 3.7 3.7 0 0 1-.2 1.1 4.9 4.9 0 0 1-.7 1 2.7 2.7 0 0 1-1 .7 3.5 3.5 0 0 1-1.2.2 2.5 2.5 0 0 1-1.2-.3 3.7 3.7 0 0 1-1-.8 6 6 0 0 1-.5-.9 7.3 7.3 0 0 0-.6-1l-.3-.6a1.1 1.1 0 0 0-.4-.4.8.8 0 0 0-1-.1 2.5 2.5 0 0 0-.7 1 21.4 21.4 0 0 0-1 3.3l-.1.6-1.3 4.2-1.8 3.9a6.7 6.7 0 0 1-2.6 2 7.5 7.5 0 0 1-3 .7 7.5 7.5 0 0 1-6.4-3.9c-2.5-4-3.2-9.4-3.4-11.1a3.3 3.3 0 0 1 0-.6 2.7 2.7 0 0 1 .4-1.6 2.8 2.8 0 0 1 1-1 3.5 3.5 0 0 1 1.7-.4 3 3 0 0 1 1.5.4 3 3 0 0 1 .8.8 4 4 0 0 1 .6 2 25.5 25.5 0 0 0 1 4.5Z" fill="url(#k)"/><path d="M14.1 33a16 16 0 0 0 1.4 3.4 3.1 3.1 0 0 0 1 1.3l.2.1c.7.1 1.1-.4 1.4-1a25.8 25.8 0 0 0 .9-2.4l.1-.5a8 8 0 0 0 .2-.9l3.1-8.2a6.9 6.9 0 0 1 2.4-2 6 6 0 0 1 3-.8 7 7 0 0 1 4.3 1.5 11.9 11.9 0 0 1 3.2 4.5 3.1 3.1 0 0 1 .3 1.3 3.7 3.7 0 0 1-.2 1.1 4.9 4.9 0 0 1-.7 1 2.7 2.7 0 0 1-1 .7 3.5 3.5 0 0 1-1.2.2 2.5 2.5 0 0 1-1.2-.3 3.7 3.7 0 0 1-1-.8 6 6 0 0 1-.5-.9 7.3 7.3 0 0 0-.6-1l-.3-.6a1.1 1.1 0 0 0-.4-.4.8.8 0 0 0-1-.1 2.5 2.5 0 0 0-.7 1 21.4 21.4 0 0 0-1 3.3l-.1.6-1.3 4.2-1.8 3.9a6.7 6.7 0 0 1-2.6 2 7.5 7.5 0 0 1-3 .7 7.5 7.5 0 0 1-6.4-3.9c-2.5-4-3.2-9.4-3.4-11.1a3.3 3.3 0 0 1 0-.6 2.7 2.7 0 0 1 .4-1.6 2.8 2.8 0 0 1 1-1 3.5 3.5 0 0 1 1.7-.4 3 3 0 0 1 1.5.4 3 3 0 0 1 .8.8 4 4 0 0 1 .6 2 25.5 25.5 0 0 0 1 4.5Z" fill="url(#l)"/><path d="M14.1 33a16 16 0 0 0 1.4 3.4 3.1 3.1 0 0 0 1 1.3l.2.1c.7.1 1.1-.4 1.4-1a25.8 25.8 0 0 0 .9-2.4l.1-.5a8 8 0 0 0 .2-.9l3.1-8.2a6.9 6.9 0 0 1 2.4-2 6 6 0 0 1 3-.8 7 7 0 0 1 4.3 1.5 11.9 11.9 0 0 1 3.2 4.5 3.1 3.1 0 0 1 .3 1.3 3.7 3.7 0 0 1-.2 1.1 4.9 4.9 0 0 1-.7 1 2.7 2.7 0 0 1-1 .7 3.5 3.5 0 0 1-1.2.2 2.5 2.5 0 0 1-1.2-.3 3.7 3.7 0 0 1-1-.8 6 6 0 0 1-.5-.9 7.3 7.3 0 0 0-.6-1l-.3-.6a1.1 1.1 0 0 0-.4-.4.8.8 0 0 0-1-.1 2.5 2.5 0 0 0-.7 1 21.4 21.4 0 0 0-1 3.3l-.1.6-1.3 4.2-1.8 3.9a6.7 6.7 0 0 1-2.6 2 7.5 7.5 0 0 1-3 .7 7.5 7.5 0 0 1-6.4-3.9c-2.5-4-3.2-9.4-3.4-11.1a3.3 3.3 0 0 1 0-.6 2.7 2.7 0 0 1 .4-1.6 2.8 2.8 0 0 1 1-1 3.5 3.5 0 0 1 1.7-.4 3 3 0 0 1 1.5.4 3 3 0 0 1 .8.8 4 4 0 0 1 .6 2 25.5 25.5 0 0 0 1 4.5Z" fill="url(#m)"/><path d="M14.1 33a16 16 0 0 0 1.4 3.4 3.1 3.1 0 0 0 1 1.3l.2.1c.7.1 1.1-.4 1.4-1a25.8 25.8 0 0 0 .9-2.4l.1-.5a8 8 0 0 0 .2-.9l3.1-8.2a6.9 6.9 0 0 1 2.4-2 6 6 0 0 1 3-.8 7 7 0 0 1 4.3 1.5 11.9 11.9 0 0 1 3.2 4.5 3.1 3.1 0 0 1 .3 1.3 3.7 3.7 0 0 1-.2 1.1 4.9 4.9 0 0 1-.7 1 2.7 2.7 0 0 1-1 .7 3.5 3.5 0 0 1-1.2.2 2.5 2.5 0 0 1-1.2-.3 3.7 3.7 0 0 1-1-.8 6 6 0 0 1-.5-.9 7.3 7.3 0 0 0-.6-1l-.3-.6a1.1 1.1 0 0 0-.4-.4.8.8 0 0 0-1-.1 2.5 2.5 0 0 0-.7 1 21.4 21.4 0 0 0-1 3.3l-.1.6-1.3 4.2-1.8 3.9a6.7 6.7 0 0 1-2.6 2 7.5 7.5 0 0 1-3 .7 7.5 7.5 0 0 1-6.4-3.9c-2.5-4-3.2-9.4-3.4-11.1a3.3 3.3 0 0 1 0-.6 2.7 2.7 0 0 1 .4-1.6 2.8 2.8 0 0 1 1-1 3.5 3.5 0 0 1 1.7-.4 3 3 0 0 1 1.5.4 3 3 0 0 1 .8.8 4 4 0 0 1 .6 2 25.5 25.5 0 0 0 1 4.5Z" fill="url(#n)"/><path d="M14.1 33a16 16 0 0 0 1.4 3.4 3.1 3.1 0 0 0 1 1.3l.2.1c.7.1 1.1-.4 1.4-1a25.8 25.8 0 0 0 .9-2.4l.1-.5a8 8 0 0 0 .2-.9l3.1-8.2a6.9 6.9 0 0 1 2.4-2 6 6 0 0 1 3-.8 7 7 0 0 1 4.3 1.5 11.9 11.9 0 0 1 3.2 4.5 3.1 3.1 0 0 1 .3 1.3 3.7 3.7 0 0 1-.2 1.1 4.9 4.9 0 0 1-.7 1 2.7 2.7 0 0 1-1 .7 3.5 3.5 0 0 1-1.2.2 2.5 2.5 0 0 1-1.2-.3 3.7 3.7 0 0 1-1-.8 6 6 0 0 1-.5-.9 7.3 7.3 0 0 0-.6-1l-.3-.6a1.1 1.1 0 0 0-.4-.4.8.8 0 0 0-1-.1 2.5 2.5 0 0 0-.7 1 21.4 21.4 0 0 0-1 3.3l-.1.6-1.3 4.2-1.8 3.9a6.7 6.7 0 0 1-2.6 2 7.5 7.5 0 0 1-3 .7 7.5 7.5 0 0 1-6.4-3.9c-2.5-4-3.2-9.4-3.4-11.1a3.3 3.3 0 0 1 0-.6 2.7 2.7 0 0 1 .4-1.6 2.8 2.8 0 0 1 1-1 3.5 3.5 0 0 1 1.7-.4 3 3 0 0 1 1.5.4 3 3 0 0 1 .8.8 4 4 0 0 1 .6 2 25.5 25.5 0 0 0 1 4.5Z" fill="url(#o)"/><path d="M14.1 33a16 16 0 0 0 1.4 3.4 3.1 3.1 0 0 0 1 1.3l.2.1c.7.1 1.1-.4 1.4-1a25.8 25.8 0 0 0 .9-2.4l.1-.5a8 8 0 0 0 .2-.9l3.1-8.2a6.9 6.9 0 0 1 2.4-2 6 6 0 0 1 3-.8 7 7 0 0 1 4.3 1.5 11.9 11.9 0 0 1 3.2 4.5 3.1 3.1 0 0 1 .3 1.3 3.7 3.7 0 0 1-.2 1.1 4.9 4.9 0 0 1-.7 1 2.7 2.7 0 0 1-1 .7 3.5 3.5 0 0 1-1.2.2 2.5 2.5 0 0 1-1.2-.3 3.7 3.7 0 0 1-1-.8 6 6 0 0 1-.5-.9 7.3 7.3 0 0 0-.6-1l-.3-.6a1.1 1.1 0 0 0-.4-.4.8.8 0 0 0-1-.1 2.5 2.5 0 0 0-.7 1 21.4 21.4 0 0 0-1 3.3l-.1.6-1.3 4.2-1.8 3.9a6.7 6.7 0 0 1-2.6 2 7.5 7.5 0 0 1-3 .7 7.5 7.5 0 0 1-6.4-3.9c-2.5-4-3.2-9.4-3.4-11.1a3.3 3.3 0 0 1 0-.6 2.7 2.7 0 0 1 .4-1.6 2.8 2.8 0 0 1 1-1 3.5 3.5 0 0 1 1.7-.4 3 3 0 0 1 1.5.4 3 3 0 0 1 .8.8 4 4 0 0 1 .6 2 25.5 25.5 0 0 0 1 4.5Z" fill="url(#p)"/><path d="M14.1 33a16 16 0 0 0 1.4 3.4 3.1 3.1 0 0 0 1 1.3l.2.1c.7.1 1.1-.4 1.4-1a25.8 25.8 0 0 0 .9-2.4l.1-.5a8 8 0 0 0 .2-.9l3.1-8.2a6.9 6.9 0 0 1 2.4-2 6 6 0 0 1 3-.8 7 7 0 0 1 4.3 1.5 11.9 11.9 0 0 1 3.2 4.5 3.1 3.1 0 0 1 .3 1.3 3.7 3.7 0 0 1-.2 1.1 4.9 4.9 0 0 1-.7 1 2.7 2.7 0 0 1-1 .7 3.5 3.5 0 0 1-1.2.2 2.5 2.5 0 0 1-1.2-.3 3.7 3.7 0 0 1-1-.8 6 6 0 0 1-.5-.9 7.3 7.3 0 0 0-.6-1l-.3-.6a1.1 1.1 0 0 0-.4-.4.8.8 0 0 0-1-.1 2.5 2.5 0 0 0-.7 1 21.4 21.4 0 0 0-1 3.3l-.1.6-1.3 4.2-1.8 3.9a6.7 6.7 0 0 1-2.6 2 7.5 7.5 0 0 1-3 .7 7.5 7.5 0 0 1-6.4-3.9c-2.5-4-3.2-9.4-3.4-11.1a3.3 3.3 0 0 1 0-.6 2.7 2.7 0 0 1 .4-1.6 2.8 2.8 0 0 1 1-1 3.5 3.5 0 0 1 1.7-.4 3 3 0 0 1 1.5.4 3 3 0 0 1 .8.8 4 4 0 0 1 .6 2 25.5 25.5 0 0 0 1 4.5Z" fill="url(#q)"/><path d="M14.1 33a16 16 0 0 0 1.4 3.4 3.1 3.1 0 0 0 1 1.3l.2.1c.7.1 1.1-.4 1.4-1a25.8 25.8 0 0 0 .9-2.4l.1-.5a8 8 0 0 0 .2-.9l3.1-8.2a6.9 6.9 0 0 1 2.4-2 6 6 0 0 1 3-.8 7 7 0 0 1 4.3 1.5 11.9 11.9 0 0 1 3.2 4.5 3.1 3.1 0 0 1 .3 1.3 3.7 3.7 0 0 1-.2 1.1 4.9 4.9 0 0 1-.7 1 2.7 2.7 0 0 1-1 .7 3.5 3.5 0 0 1-1.2.2 2.5 2.5 0 0 1-1.2-.3 3.7 3.7 0 0 1-1-.8 6 6 0 0 1-.5-.9 7.3 7.3 0 0 0-.6-1l-.3-.6a1.1 1.1 0 0 0-.4-.4.8.8 0 0 0-1-.1 2.5 2.5 0 0 0-.7 1 21.4 21.4 0 0 0-1 3.3l-.1.6-1.3 4.2-1.8 3.9a6.7 6.7 0 0 1-2.6 2 7.5 7.5 0 0 1-3 .7 7.5 7.5 0 0 1-6.4-3.9c-2.5-4-3.2-9.4-3.4-11.1a3.3 3.3 0 0 1 0-.6 2.7 2.7 0 0 1 .4-1.6 2.8 2.8 0 0 1 1-1 3.5 3.5 0 0 1 1.7-.4 3 3 0 0 1 1.5.4 3 3 0 0 1 .8.8 4 4 0 0 1 .6 2 25.5 25.5 0 0 0 1 4.5Z" fill="url(#r)"/><path d="M14.1 33a16 16 0 0 0 1.4 3.4 3.1 3.1 0 0 0 1 1.3l.2.1c.7.1 1.1-.4 1.4-1a25.8 25.8 0 0 0 .9-2.4l.1-.5a8 8 0 0 0 .2-.9l3.1-8.2a6.9 6.9 0 0 1 2.4-2 6 6 0 0 1 3-.8 7 7 0 0 1 4.3 1.5 11.9 11.9 0 0 1 3.2 4.5 3.1 3.1 0 0 1 .3 1.3 3.7 3.7 0 0 1-.2 1.1 4.9 4.9 0 0 1-.7 1 2.7 2.7 0 0 1-1 .7 3.5 3.5 0 0 1-1.2.2 2.5 2.5 0 0 1-1.2-.3 3.7 3.7 0 0 1-1-.8 6 6 0 0 1-.5-.9 7.3 7.3 0 0 0-.6-1l-.3-.6a1.1 1.1 0 0 0-.4-.4.8.8 0 0 0-1-.1 2.5 2.5 0 0 0-.7 1 21.4 21.4 0 0 0-1 3.3l-.1.6-1.3 4.2-1.8 3.9a6.7 6.7 0 0 1-2.6 2 7.5 7.5 0 0 1-3 .7 7.5 7.5 0 0 1-6.4-3.9c-2.5-4-3.2-9.4-3.4-11.1a3.3 3.3 0 0 1 0-.6 2.7 2.7 0 0 1 .4-1.6 2.8 2.8 0 0 1 1-1 3.5 3.5 0 0 1 1.7-.4 3 3 0 0 1 1.5.4 3 3 0 0 1 .8.8 4 4 0 0 1 .6 2 25.5 25.5 0 0 0 1 4.5Z" fill="url(#s)"/><path d="M14.1 33a16 16 0 0 0 1.4 3.4 3.1 3.1 0 0 0 1 1.3l.2.1c.7.1 1.1-.4 1.4-1a25.8 25.8 0 0 0 .9-2.4l.1-.5a8 8 0 0 0 .2-.9l3.1-8.2a6.9 6.9 0 0 1 2.4-2 6 6 0 0 1 3-.8 7 7 0 0 1 4.3 1.5 11.9 11.9 0 0 1 3.2 4.5 3.1 3.1 0 0 1 .3 1.3 3.7 3.7 0 0 1-.2 1.1 4.9 4.9 0 0 1-.7 1 2.7 2.7 0 0 1-1 .7 3.5 3.5 0 0 1-1.2.2 2.5 2.5 0 0 1-1.2-.3 3.7 3.7 0 0 1-1-.8 6 6 0 0 1-.5-.9 7.3 7.3 0 0 0-.6-1l-.3-.6a1.1 1.1 0 0 0-.4-.4.8.8 0 0 0-1-.1 2.5 2.5 0 0 0-.7 1 21.4 21.4 0 0 0-1 3.3l-.1.6-1.3 4.2-1.8 3.9a6.7 6.7 0 0 1-2.6 2 7.5 7.5 0 0 1-3 .7 7.5 7.5 0 0 1-6.4-3.9c-2.5-4-3.2-9.4-3.4-11.1a3.3 3.3 0 0 1 0-.6 2.7 2.7 0 0 1 .4-1.6 2.8 2.8 0 0 1 1-1 3.5 3.5 0 0 1 1.7-.4 3 3 0 0 1 1.5.4 3 3 0 0 1 .8.8 4 4 0 0 1 .6 2 25.5 25.5 0 0 0 1 4.5Z" fill="url(#t)"/><path d="M14.1 33a16 16 0 0 0 1.4 3.4 3.1 3.1 0 0 0 1 1.3l.2.1c.7.1 1.1-.4 1.4-1a25.8 25.8 0 0 0 .9-2.4l.1-.5a8 8 0 0 0 .2-.9l3.1-8.2a6.9 6.9 0 0 1 2.4-2 6 6 0 0 1 3-.8 7 7 0 0 1 4.3 1.5 11.9 11.9 0 0 1 3.2 4.5 3.1 3.1 0 0 1 .3 1.3 3.7 3.7 0 0 1-.2 1.1 4.9 4.9 0 0 1-.7 1 2.7 2.7 0 0 1-1 .7 3.5 3.5 0 0 1-1.2.2 2.5 2.5 0 0 1-1.2-.3 3.7 3.7 0 0 1-1-.8 6 6 0 0 1-.5-.9 7.3 7.3 0 0 0-.6-1l-.3-.6a1.1 1.1 0 0 0-.4-.4.8.8 0 0 0-1-.1 2.5 2.5 0 0 0-.7 1 21.4 21.4 0 0 0-1 3.3l-.1.6-1.3 4.2-1.8 3.9a6.7 6.7 0 0 1-2.6 2 7.5 7.5 0 0 1-3 .7 7.5 7.5 0 0 1-6.4-3.9c-2.5-4-3.2-9.4-3.4-11.1a3.3 3.3 0 0 1 0-.6 2.7 2.7 0 0 1 .4-1.6 2.8 2.8 0 0 1 1-1 3.5 3.5 0 0 1 1.7-.4 3 3 0 0 1 1.5.4 3 3 0 0 1 .8.8 4 4 0 0 1 .6 2 25.5 25.5 0 0 0 1 4.5Z" fill="url(#u)"/><path d="M14.1 33a16 16 0 0 0 1.4 3.4 3.1 3.1 0 0 0 1 1.3l.2.1c.7.1 1.1-.4 1.4-1a25.8 25.8 0 0 0 .9-2.4l.1-.5a8 8 0 0 0 .2-.9l3.1-8.2a6.9 6.9 0 0 1 2.4-2 6 6 0 0 1 3-.8 7 7 0 0 1 4.3 1.5 11.9 11.9 0 0 1 3.2 4.5 3.1 3.1 0 0 1 .3 1.3 3.7 3.7 0 0 1-.2 1.1 4.9 4.9 0 0 1-.7 1 2.7 2.7 0 0 1-1 .7 3.5 3.5 0 0 1-1.2.2 2.5 2.5 0 0 1-1.2-.3 3.7 3.7 0 0 1-1-.8 6 6 0 0 1-.5-.9 7.3 7.3 0 0 0-.6-1l-.3-.6a1.1 1.1 0 0 0-.4-.4.8.8 0 0 0-1-.1 2.5 2.5 0 0 0-.7 1 21.4 21.4 0 0 0-1 3.3l-.1.6-1.3 4.2-1.8 3.9a6.7 6.7 0 0 1-2.6 2 7.5 7.5 0 0 1-3 .7 7.5 7.5 0 0 1-6.4-3.9c-2.5-4-3.2-9.4-3.4-11.1a3.3 3.3 0 0 1 0-.6 2.7 2.7 0 0 1 .4-1.6 2.8 2.8 0 0 1 1-1 3.5 3.5 0 0 1 1.7-.4 3 3 0 0 1 1.5.4 3 3 0 0 1 .8.8 4 4 0 0 1 .6 2 25.5 25.5 0 0 0 1 4.5Z" fill="url(#v)"/><path d="m20.4 30 2-5.2a7 7 0 0 1 2.4-2 7.5 7.5 0 0 1 3-.8 7 7 0 0 1 4.3 1.5 11.9 11.9 0 0 1 3.2 4.5 3.1 3.1 0 0 1 .3 1.3 3.7 3.7 0 0 1-.2 1.1 4.9 4.9 0 0 1-.7 1 2.7 2.7 0 0 1-1 .7 3.5 3.5 0 0 1-1.2.2 2.5 2.5 0 0 1-1.2-.3 3.7 3.7 0 0 1-1-.8 6 6 0 0 1-.5-.9 7.3 7.3 0 0 0-.6-1l-.3-.6a1.1 1.1 0 0 0-.4-.4.8.8 0 0 0-1-.1 2.5 2.5 0 0 0-.7 1 21.4 21.4 0 0 0-1 3.3l-.1.6-1.3 4.2Z" fill="url(#w)"/><path d="M34.6 25.3a3.2 3.2 0 0 0-.7 0 15.2 15.2 0 0 1 1.4 2.7 3.2 3.2 0 0 1 .3 1.3 3.7 3.7 0 0 1-.2 1.1 4.8 4.8 0 0 1-.7 1 2.2 2.2 0 0 1-1 .7 3.5 3.5 0 0 1-1.2.2 2.7 2.7 0 0 1-1.5-.5l-.3 1.2a14 14 0 0 1-1 2.6A9.8 9.8 0 0 1 29 37a2 2 0 0 1-.8.8 1.3 1.3 0 0 1-.4 0 .7.7 0 0 1-.4-.1 2.1 2.1 0 0 1-.6-.7 9.3 9.3 0 0 1-.4-1c-.3-.6-.7-2.2-.7-2.2l-.4-1.7-.5-1.7-.3-1a12.9 12.9 0 0 0-1.9-4.4 7.2 7.2 0 0 0-3.5-2.7 7 7 0 0 0-3.4-.2 7.3 7.3 0 0 0-4.7 3.3 2.7 2.7 0 0 1 .8.3 3 3 0 0 1 .9.8 4 4 0 0 1 .6 2A30.5 30.5 0 0 0 14 33a14.4 14.4 0 0 1 2-4.5 1.3 1.3 0 0 1 .4-.4.7.7 0 0 1 .3-.1 1 1 0 0 1 .6.1 4.2 4.2 0 0 1 .4.5 10.3 10.3 0 0 1 .6 1.3l.7 2.1.9 3.5a24.6 24.6 0 0 0 1.1 3.5 7.5 7.5 0 0 0 3.4 4 7.9 7.9 0 0 0 3.2.8 6.5 6.5 0 0 0 3.2-.6 8.4 8.4 0 0 0 2.7-2.2 16 16 0 0 0 1.2-2 23.3 23.3 0 0 0 1.9-5 27.4 27.4 0 0 0 .7-3.3l.2-1.6a3.9 3.9 0 0 0 0-1.6l-.1-.2a3.1 3.1 0 0 0-1.3-1.6 2.6 2.6 0 0 0-1.6-.4Z" fill="url(#x)"/><path d="M34.6 25.3a3.2 3.2 0 0 0-.7 0 15.2 15.2 0 0 1 1.4 2.7 3.2 3.2 0 0 1 .3 1.3 3.7 3.7 0 0 1-.2 1.1 4.8 4.8 0 0 1-.7 1 2.2 2.2 0 0 1-1 .7 3.5 3.5 0 0 1-1.2.2 2.7 2.7 0 0 1-1.5-.5l-.3 1.2a14 14 0 0 1-1 2.6A9.8 9.8 0 0 1 29 37a2 2 0 0 1-.8.8 1.3 1.3 0 0 1-.4 0 .7.7 0 0 1-.4-.1 2.1 2.1 0 0 1-.6-.7 9.3 9.3 0 0 1-.4-1c-.3-.6-.7-2.2-.7-2.2l-.4-1.7-.5-1.7-.3-1a12.9 12.9 0 0 0-1.9-4.4 7.2 7.2 0 0 0-3.5-2.7 7 7 0 0 0-3.4-.2 7.3 7.3 0 0 0-4.7 3.3 2.7 2.7 0 0 1 .8.3 3 3 0 0 1 .9.8 4 4 0 0 1 .6 2A30.5 30.5 0 0 0 14 33a14.4 14.4 0 0 1 2-4.5 1.3 1.3 0 0 1 .4-.4.7.7 0 0 1 .3-.1 1 1 0 0 1 .6.1 4.2 4.2 0 0 1 .4.5 10.3 10.3 0 0 1 .6 1.3l.7 2.1.9 3.5a24.6 24.6 0 0 0 1.1 3.5 7.5 7.5 0 0 0 3.4 4 7.9 7.9 0 0 0 3.2.8 6.5 6.5 0 0 0 3.2-.6 8.4 8.4 0 0 0 2.7-2.2 16 16 0 0 0 1.2-2 23.3 23.3 0 0 0 1.9-5 27.4 27.4 0 0 0 .7-3.3l.2-1.6a3.9 3.9 0 0 0 0-1.6l-.1-.2a3.1 3.1 0 0 0-1.3-1.6 2.6 2.6 0 0 0-1.6-.4Z" fill="url(#b)"/><path d="M34.6 25.3a3.2 3.2 0 0 0-.7 0 15.2 15.2 0 0 1 1.4 2.7 3.2 3.2 0 0 1 .3 1.3 3.7 3.7 0 0 1-.2 1.1 4.8 4.8 0 0 1-.7 1 2.2 2.2 0 0 1-1 .7 3.5 3.5 0 0 1-1.2.2 2.7 2.7 0 0 1-1.5-.5l-.3 1.2a14 14 0 0 1-1 2.6A9.8 9.8 0 0 1 29 37a2 2 0 0 1-.8.8 1.3 1.3 0 0 1-.4 0 .7.7 0 0 1-.4-.1 2.1 2.1 0 0 1-.6-.7 9.3 9.3 0 0 1-.4-1c-.3-.6-.7-2.2-.7-2.2l-.4-1.7-.5-1.7-.3-1a12.9 12.9 0 0 0-1.9-4.4 7.2 7.2 0 0 0-3.5-2.7 7 7 0 0 0-3.4-.2 7.3 7.3 0 0 0-4.7 3.3 2.7 2.7 0 0 1 .8.3 3 3 0 0 1 .9.8 4 4 0 0 1 .6 2A30.5 30.5 0 0 0 14 33a14.4 14.4 0 0 1 2-4.5 1.3 1.3 0 0 1 .4-.4.7.7 0 0 1 .3-.1 1 1 0 0 1 .6.1 4.2 4.2 0 0 1 .4.5 10.3 10.3 0 0 1 .6 1.3l.7 2.1.9 3.5a24.6 24.6 0 0 0 1.1 3.5 7.5 7.5 0 0 0 3.4 4 7.9 7.9 0 0 0 3.2.8 6.5 6.5 0 0 0 3.2-.6 8.4 8.4 0 0 0 2.7-2.2 16 16 0 0 0 1.2-2 23.3 23.3 0 0 0 1.9-5 27.4 27.4 0 0 0 .7-3.3l.2-1.6a3.9 3.9 0 0 0 0-1.6l-.1-.2a3.1 3.1 0 0 0-1.3-1.6 2.6 2.6 0 0 0-1.6-.4Z" fill="url(#y)"/><path d="M34.6 25.3a3.2 3.2 0 0 0-.7 0 15.2 15.2 0 0 1 1.4 2.7 3.2 3.2 0 0 1 .3 1.3 3.7 3.7 0 0 1-.2 1.1 4.8 4.8 0 0 1-.7 1 2.2 2.2 0 0 1-1 .7 3.5 3.5 0 0 1-1.2.2 2.7 2.7 0 0 1-1.5-.5l-.3 1.2a14 14 0 0 1-1 2.6A9.8 9.8 0 0 1 29 37a2 2 0 0 1-.8.8 1.3 1.3 0 0 1-.4 0 .7.7 0 0 1-.4-.1 2.1 2.1 0 0 1-.6-.7 9.3 9.3 0 0 1-.4-1c-.3-.6-.7-2.2-.7-2.2l-.4-1.7-.5-1.7-.3-1a12.9 12.9 0 0 0-1.9-4.4 7.2 7.2 0 0 0-3.5-2.7 7 7 0 0 0-3.4-.2 7.3 7.3 0 0 0-4.7 3.3 2.7 2.7 0 0 1 .8.3 3 3 0 0 1 .9.8 4 4 0 0 1 .6 2A30.5 30.5 0 0 0 14 33a14.4 14.4 0 0 1 2-4.5 1.3 1.3 0 0 1 .4-.4.7.7 0 0 1 .3-.1 1 1 0 0 1 .6.1 4.2 4.2 0 0 1 .4.5 10.3 10.3 0 0 1 .6 1.3l.7 2.1.9 3.5a24.6 24.6 0 0 0 1.1 3.5 7.5 7.5 0 0 0 3.4 4 7.9 7.9 0 0 0 3.2.8 6.5 6.5 0 0 0 3.2-.6 8.4 8.4 0 0 0 2.7-2.2 16 16 0 0 0 1.2-2 23.3 23.3 0 0 0 1.9-5 27.4 27.4 0 0 0 .7-3.3l.2-1.6a3.9 3.9 0 0 0 0-1.6l-.1-.2a3.1 3.1 0 0 0-1.3-1.6 2.6 2.6 0 0 0-1.6-.4Z" fill="url(#z)"/><path d="M34.6 25.3a3.2 3.2 0 0 0-.7 0 15.2 15.2 0 0 1 1.4 2.7 3.2 3.2 0 0 1 .3 1.3 3.7 3.7 0 0 1-.2 1.1 4.8 4.8 0 0 1-.7 1 2.2 2.2 0 0 1-1 .7 3.5 3.5 0 0 1-1.2.2 2.7 2.7 0 0 1-1.5-.5l-.3 1.2a14 14 0 0 1-1 2.6A9.8 9.8 0 0 1 29 37a2 2 0 0 1-.8.8 1.3 1.3 0 0 1-.4 0 .7.7 0 0 1-.4-.1 2.1 2.1 0 0 1-.6-.7 9.3 9.3 0 0 1-.4-1c-.3-.6-.7-2.2-.7-2.2l-.4-1.7-.5-1.7-.3-1a12.9 12.9 0 0 0-1.9-4.4 7.2 7.2 0 0 0-3.5-2.7 7 7 0 0 0-3.4-.2 7.3 7.3 0 0 0-4.7 3.3 2.7 2.7 0 0 1 .8.3 3 3 0 0 1 .9.8 4 4 0 0 1 .6 2A30.5 30.5 0 0 0 14 33a14.4 14.4 0 0 1 2-4.5 1.3 1.3 0 0 1 .4-.4.7.7 0 0 1 .3-.1 1 1 0 0 1 .6.1 4.2 4.2 0 0 1 .4.5 10.3 10.3 0 0 1 .6 1.3l.7 2.1.9 3.5a24.6 24.6 0 0 0 1.1 3.5 7.5 7.5 0 0 0 3.4 4 7.9 7.9 0 0 0 3.2.8 6.5 6.5 0 0 0 3.2-.6 8.4 8.4 0 0 0 2.7-2.2 16 16 0 0 0 1.2-2 23.3 23.3 0 0 0 1.9-5 27.4 27.4 0 0 0 .7-3.3l.2-1.6a3.9 3.9 0 0 0 0-1.6l-.1-.2a3.1 3.1 0 0 0-1.3-1.6 2.6 2.6 0 0 0-1.6-.4Z" fill="url(#A)"/><path d="M34.6 25.3a3.2 3.2 0 0 0-.7 0 15.2 15.2 0 0 1 1.4 2.7 3.2 3.2 0 0 1 .3 1.3 3.7 3.7 0 0 1-.2 1.1 4.8 4.8 0 0 1-.7 1 2.2 2.2 0 0 1-1 .7 3.5 3.5 0 0 1-1.2.2 2.7 2.7 0 0 1-1.5-.5l-.3 1.2a14 14 0 0 1-1 2.6A9.8 9.8 0 0 1 29 37a2 2 0 0 1-.8.8 1.3 1.3 0 0 1-.4 0 .7.7 0 0 1-.4-.1 2.1 2.1 0 0 1-.6-.7 9.3 9.3 0 0 1-.4-1c-.3-.6-.7-2.2-.7-2.2l-.4-1.7-.5-1.7-.3-1a12.9 12.9 0 0 0-1.9-4.4 7.2 7.2 0 0 0-3.5-2.7 7 7 0 0 0-3.4-.2 7.3 7.3 0 0 0-4.7 3.3 2.7 2.7 0 0 1 .8.3 3 3 0 0 1 .9.8 4 4 0 0 1 .6 2A30.5 30.5 0 0 0 14 33a14.4 14.4 0 0 1 2-4.5 1.3 1.3 0 0 1 .4-.4.7.7 0 0 1 .3-.1 1 1 0 0 1 .6.1 4.2 4.2 0 0 1 .4.5 10.3 10.3 0 0 1 .6 1.3l.7 2.1.9 3.5a24.6 24.6 0 0 0 1.1 3.5 7.5 7.5 0 0 0 3.4 4 7.9 7.9 0 0 0 3.2.8 6.5 6.5 0 0 0 3.2-.6 8.4 8.4 0 0 0 2.7-2.2 16 16 0 0 0 1.2-2 23.3 23.3 0 0 0 1.9-5 27.4 27.4 0 0 0 .7-3.3l.2-1.6a3.9 3.9 0 0 0 0-1.6l-.1-.2a3.1 3.1 0 0 0-1.3-1.6 2.6 2.6 0 0 0-1.6-.4Z" fill="url(#B)"/><path d="M34.6 25.3a3.2 3.2 0 0 0-.7 0 15.2 15.2 0 0 1 1.4 2.7 3.2 3.2 0 0 1 .3 1.3 3.7 3.7 0 0 1-.2 1.1 4.8 4.8 0 0 1-.7 1 2.2 2.2 0 0 1-1 .7 3.5 3.5 0 0 1-1.2.2 2.7 2.7 0 0 1-1.5-.5l-.3 1.2a14 14 0 0 1-1 2.6A9.8 9.8 0 0 1 29 37a2 2 0 0 1-.8.8 1.3 1.3 0 0 1-.4 0 .7.7 0 0 1-.4-.1 2.1 2.1 0 0 1-.6-.7 9.3 9.3 0 0 1-.4-1c-.3-.6-.7-2.2-.7-2.2l-.4-1.7-.5-1.7-.3-1a12.9 12.9 0 0 0-1.9-4.4 7.2 7.2 0 0 0-3.5-2.7 7 7 0 0 0-3.4-.2 7.3 7.3 0 0 0-4.7 3.3 2.7 2.7 0 0 1 .8.3 3 3 0 0 1 .9.8 4 4 0 0 1 .6 2A30.5 30.5 0 0 0 14 33a14.4 14.4 0 0 1 2-4.5 1.3 1.3 0 0 1 .4-.4.7.7 0 0 1 .3-.1 1 1 0 0 1 .6.1 4.2 4.2 0 0 1 .4.5 10.3 10.3 0 0 1 .6 1.3l.7 2.1.9 3.5a24.6 24.6 0 0 0 1.1 3.5 7.5 7.5 0 0 0 3.4 4 7.9 7.9 0 0 0 3.2.8 6.5 6.5 0 0 0 3.2-.6 8.4 8.4 0 0 0 2.7-2.2 16 16 0 0 0 1.2-2 23.3 23.3 0 0 0 1.9-5 27.4 27.4 0 0 0 .7-3.3l.2-1.6a3.9 3.9 0 0 0 0-1.6l-.1-.2a3.1 3.1 0 0 0-1.3-1.6 2.6 2.6 0 0 0-1.6-.4Z" fill="url(#C)"/><path d="M34.6 25.3a3.2 3.2 0 0 0-.7 0 15.2 15.2 0 0 1 1.4 2.7 3.2 3.2 0 0 1 .3 1.3 3.7 3.7 0 0 1-.2 1.1 4.8 4.8 0 0 1-.7 1 2.2 2.2 0 0 1-1 .7 3.5 3.5 0 0 1-1.2.2 2.7 2.7 0 0 1-1.5-.5l-.3 1.2a14 14 0 0 1-1 2.6A9.8 9.8 0 0 1 29 37a2 2 0 0 1-.8.8 1.3 1.3 0 0 1-.4 0 .7.7 0 0 1-.4-.1 2.1 2.1 0 0 1-.6-.7 9.3 9.3 0 0 1-.4-1c-.3-.6-.7-2.2-.7-2.2l-.4-1.7-.5-1.7-.3-1a12.9 12.9 0 0 0-1.9-4.4 7.2 7.2 0 0 0-3.5-2.7 7 7 0 0 0-3.4-.2 7.3 7.3 0 0 0-4.7 3.3 2.7 2.7 0 0 1 .8.3 3 3 0 0 1 .9.8 4 4 0 0 1 .6 2A30.5 30.5 0 0 0 14 33a14.4 14.4 0 0 1 2-4.5 1.3 1.3 0 0 1 .4-.4.7.7 0 0 1 .3-.1 1 1 0 0 1 .6.1 4.2 4.2 0 0 1 .4.5 10.3 10.3 0 0 1 .6 1.3l.7 2.1.9 3.5a24.6 24.6 0 0 0 1.1 3.5 7.5 7.5 0 0 0 3.4 4 7.9 7.9 0 0 0 3.2.8 6.5 6.5 0 0 0 3.2-.6 8.4 8.4 0 0 0 2.7-2.2 16 16 0 0 0 1.2-2 23.3 23.3 0 0 0 1.9-5 27.4 27.4 0 0 0 .7-3.3l.2-1.6a3.9 3.9 0 0 0 0-1.6l-.1-.2a3.1 3.1 0 0 0-1.3-1.6 2.6 2.6 0 0 0-1.6-.4Z" fill="url(#D)"/><path d="M34.6 25.3a3.2 3.2 0 0 0-.7 0 15.2 15.2 0 0 1 1.4 2.7 3.2 3.2 0 0 1 .3 1.3 3.7 3.7 0 0 1-.2 1.1 4.8 4.8 0 0 1-.7 1 2.2 2.2 0 0 1-1 .7 3.5 3.5 0 0 1-1.2.2 2.7 2.7 0 0 1-1.5-.5l-.3 1.2a14 14 0 0 1-1 2.6A9.8 9.8 0 0 1 29 37a2 2 0 0 1-.8.8 1.3 1.3 0 0 1-.4 0 .7.7 0 0 1-.4-.1 2.1 2.1 0 0 1-.6-.7 9.3 9.3 0 0 1-.4-1c-.3-.6-.7-2.2-.7-2.2l-.4-1.7-.5-1.7-.3-1a12.9 12.9 0 0 0-1.9-4.4 7.2 7.2 0 0 0-3.5-2.7 7 7 0 0 0-3.4-.2 7.3 7.3 0 0 0-4.7 3.3 2.7 2.7 0 0 1 .8.3 3 3 0 0 1 .9.8 4 4 0 0 1 .6 2A30.5 30.5 0 0 0 14 33a14.4 14.4 0 0 1 2-4.5 1.3 1.3 0 0 1 .4-.4.7.7 0 0 1 .3-.1 1 1 0 0 1 .6.1 4.2 4.2 0 0 1 .4.5 10.3 10.3 0 0 1 .6 1.3l.7 2.1.9 3.5a24.6 24.6 0 0 0 1.1 3.5 7.5 7.5 0 0 0 3.4 4 7.9 7.9 0 0 0 3.2.8 6.5 6.5 0 0 0 3.2-.6 8.4 8.4 0 0 0 2.7-2.2 16 16 0 0 0 1.2-2 23.3 23.3 0 0 0 1.9-5 27.4 27.4 0 0 0 .7-3.3l.2-1.6a3.9 3.9 0 0 0 0-1.6l-.1-.2a3.1 3.1 0 0 0-1.3-1.6 2.6 2.6 0 0 0-1.6-.4Z" fill="url(#E)"/><path d="M34.6 25.3a3.2 3.2 0 0 0-.7 0 15.2 15.2 0 0 1 1.4 2.7 3.2 3.2 0 0 1 .3 1.3 3.7 3.7 0 0 1-.2 1.1 4.8 4.8 0 0 1-.7 1 2.2 2.2 0 0 1-1 .7 3.5 3.5 0 0 1-1.2.2 2.7 2.7 0 0 1-1.5-.5l-.3 1.2a14 14 0 0 1-1 2.6A9.8 9.8 0 0 1 29 37a2 2 0 0 1-.8.8 1.3 1.3 0 0 1-.4 0 .7.7 0 0 1-.4-.1 2.1 2.1 0 0 1-.6-.7 9.3 9.3 0 0 1-.4-1c-.3-.6-.7-2.2-.7-2.2l-.4-1.7-.5-1.7-.3-1a12.9 12.9 0 0 0-1.9-4.4 7.2 7.2 0 0 0-3.5-2.7 7 7 0 0 0-3.4-.2 7.3 7.3 0 0 0-4.7 3.3 2.7 2.7 0 0 1 .8.3 3 3 0 0 1 .9.8 4 4 0 0 1 .6 2A30.5 30.5 0 0 0 14 33a14.4 14.4 0 0 1 2-4.5 1.3 1.3 0 0 1 .4-.4.7.7 0 0 1 .3-.1 1 1 0 0 1 .6.1 4.2 4.2 0 0 1 .4.5 10.3 10.3 0 0 1 .6 1.3l.7 2.1.9 3.5a24.6 24.6 0 0 0 1.1 3.5 7.5 7.5 0 0 0 3.4 4 7.9 7.9 0 0 0 3.2.8 6.5 6.5 0 0 0 3.2-.6 8.4 8.4 0 0 0 2.7-2.2 16 16 0 0 0 1.2-2 23.3 23.3 0 0 0 1.9-5 27.4 27.4 0 0 0 .7-3.3l.2-1.6a3.9 3.9 0 0 0 0-1.6l-.1-.2a3.1 3.1 0 0 0-1.3-1.6 2.6 2.6 0 0 0-1.6-.4Z" fill="url(#F)"/><path d="M34.6 25.3a3.2 3.2 0 0 0-.7 0 15.2 15.2 0 0 1 1.4 2.7 3.2 3.2 0 0 1 .3 1.3 3.7 3.7 0 0 1-.2 1.1 4.8 4.8 0 0 1-.7 1 2.2 2.2 0 0 1-1 .7 3.5 3.5 0 0 1-1.2.2 2.7 2.7 0 0 1-1.5-.5l-.3 1.2a14 14 0 0 1-1 2.6A9.8 9.8 0 0 1 29 37a2 2 0 0 1-.8.8 1.3 1.3 0 0 1-.4 0 .7.7 0 0 1-.4-.1 2.1 2.1 0 0 1-.6-.7 9.3 9.3 0 0 1-.4-1c-.3-.6-.7-2.2-.7-2.2l-.4-1.7-.5-1.7-.3-1a12.9 12.9 0 0 0-1.9-4.4 7.2 7.2 0 0 0-3.5-2.7 7 7 0 0 0-3.4-.2 7.3 7.3 0 0 0-4.7 3.3 2.7 2.7 0 0 1 .8.3 3 3 0 0 1 .9.8 4 4 0 0 1 .6 2A30.5 30.5 0 0 0 14 33a14.4 14.4 0 0 1 2-4.5 1.3 1.3 0 0 1 .4-.4.7.7 0 0 1 .3-.1 1 1 0 0 1 .6.1 4.2 4.2 0 0 1 .4.5 10.3 10.3 0 0 1 .6 1.3l.7 2.1.9 3.5a24.6 24.6 0 0 0 1.1 3.5 7.5 7.5 0 0 0 3.4 4 7.9 7.9 0 0 0 3.2.8 6.5 6.5 0 0 0 3.2-.6 8.4 8.4 0 0 0 2.7-2.2 16 16 0 0 0 1.2-2 23.3 23.3 0 0 0 1.9-5 27.4 27.4 0 0 0 .7-3.3l.2-1.6a3.9 3.9 0 0 0 0-1.6l-.1-.2a3.1 3.1 0 0 0-1.3-1.6 2.6 2.6 0 0 0-1.6-.4Z" fill="url(#G)"/><path d="M34.6 25.3a3.2 3.2 0 0 0-.7 0 15.2 15.2 0 0 1 1.4 2.7 3.2 3.2 0 0 1 .3 1.3 3.7 3.7 0 0 1-.2 1.1 4.8 4.8 0 0 1-.7 1 2.2 2.2 0 0 1-1 .7 3.5 3.5 0 0 1-1.2.2 2.7 2.7 0 0 1-1.5-.5l-.3 1.2a14 14 0 0 1-1 2.6A9.8 9.8 0 0 1 29 37a2 2 0 0 1-.8.8 1.3 1.3 0 0 1-.4 0 .7.7 0 0 1-.4-.1 2.1 2.1 0 0 1-.6-.7 9.3 9.3 0 0 1-.4-1c-.3-.6-.7-2.2-.7-2.2l-.4-1.7-.5-1.7-.3-1a12.9 12.9 0 0 0-1.9-4.4 7.2 7.2 0 0 0-3.5-2.7 7 7 0 0 0-3.4-.2 7.3 7.3 0 0 0-4.7 3.3 2.7 2.7 0 0 1 .8.3 3 3 0 0 1 .9.8 4 4 0 0 1 .6 2A30.5 30.5 0 0 0 14 33a14.4 14.4 0 0 1 2-4.5 1.3 1.3 0 0 1 .4-.4.7.7 0 0 1 .3-.1 1 1 0 0 1 .6.1 4.2 4.2 0 0 1 .4.5 10.3 10.3 0 0 1 .6 1.3l.7 2.1.9 3.5a24.6 24.6 0 0 0 1.1 3.5 7.5 7.5 0 0 0 3.4 4 7.9 7.9 0 0 0 3.2.8 6.5 6.5 0 0 0 3.2-.6 8.4 8.4 0 0 0 2.7-2.2 16 16 0 0 0 1.2-2 23.3 23.3 0 0 0 1.9-5 27.4 27.4 0 0 0 .7-3.3l.2-1.6a3.9 3.9 0 0 0 0-1.6l-.1-.2a3.1 3.1 0 0 0-1.3-1.6 2.6 2.6 0 0 0-1.6-.4Z" fill="url(#H)"/><path d="M34.6 25.3a3.2 3.2 0 0 0-.7 0 15.2 15.2 0 0 1 1.4 2.7 3.2 3.2 0 0 1 .3 1.3 3.7 3.7 0 0 1-.2 1.1 4.8 4.8 0 0 1-.7 1 2.2 2.2 0 0 1-1 .7 3.5 3.5 0 0 1-1.2.2 2.7 2.7 0 0 1-1.5-.5l-.3 1.2a14 14 0 0 1-1 2.6A9.8 9.8 0 0 1 29 37a2 2 0 0 1-.8.8 1.3 1.3 0 0 1-.4 0 .7.7 0 0 1-.4-.1 2.1 2.1 0 0 1-.6-.7 9.3 9.3 0 0 1-.4-1c-.3-.6-.7-2.2-.7-2.2l-.4-1.7-.5-1.7-.3-1a12.9 12.9 0 0 0-1.9-4.4 7.2 7.2 0 0 0-3.5-2.7 7 7 0 0 0-3.4-.2 7.3 7.3 0 0 0-4.7 3.3 2.7 2.7 0 0 1 .8.3 3 3 0 0 1 .9.8 4 4 0 0 1 .6 2A30.5 30.5 0 0 0 14 33a14.4 14.4 0 0 1 2-4.5 1.3 1.3 0 0 1 .4-.4.7.7 0 0 1 .3-.1 1 1 0 0 1 .6.1 4.2 4.2 0 0 1 .4.5 10.3 10.3 0 0 1 .6 1.3l.7 2.1.9 3.5a24.6 24.6 0 0 0 1.1 3.5 7.5 7.5 0 0 0 3.4 4 7.9 7.9 0 0 0 3.2.8 6.5 6.5 0 0 0 3.2-.6 8.4 8.4 0 0 0 2.7-2.2 16 16 0 0 0 1.2-2 23.3 23.3 0 0 0 1.9-5 27.4 27.4 0 0 0 .7-3.3l.2-1.6a3.9 3.9 0 0 0 0-1.6l-.1-.2a3.1 3.1 0 0 0-1.3-1.6 2.6 2.6 0 0 0-1.6-.4Z" fill="url(#I)"/><path d="M34.6 25.3a3.2 3.2 0 0 0-.7 0 15.2 15.2 0 0 1 1.4 2.7 3.2 3.2 0 0 1 .3 1.3 3.7 3.7 0 0 1-.2 1.1 4.8 4.8 0 0 1-.7 1 2.2 2.2 0 0 1-1 .7 3.5 3.5 0 0 1-1.2.2 2.7 2.7 0 0 1-1.5-.5l-.3 1.2a14 14 0 0 1-1 2.6A9.8 9.8 0 0 1 29 37a2 2 0 0 1-.8.8 1.3 1.3 0 0 1-.4 0 .7.7 0 0 1-.4-.1 2.1 2.1 0 0 1-.6-.7 9.3 9.3 0 0 1-.4-1c-.3-.6-.7-2.2-.7-2.2l-.4-1.7-.5-1.7-.3-1a12.9 12.9 0 0 0-1.9-4.4 7.2 7.2 0 0 0-3.5-2.7 7 7 0 0 0-3.4-.2 7.3 7.3 0 0 0-4.7 3.3 2.7 2.7 0 0 1 .8.3 3 3 0 0 1 .9.8 4 4 0 0 1 .6 2A30.5 30.5 0 0 0 14 33a14.4 14.4 0 0 1 2-4.5 1.3 1.3 0 0 1 .4-.4.7.7 0 0 1 .3-.1 1 1 0 0 1 .6.1 4.2 4.2 0 0 1 .4.5 10.3 10.3 0 0 1 .6 1.3l.7 2.1.9 3.5a24.6 24.6 0 0 0 1.1 3.5 7.5 7.5 0 0 0 3.4 4 7.9 7.9 0 0 0 3.2.8 6.5 6.5 0 0 0 3.2-.6 8.4 8.4 0 0 0 2.7-2.2 16 16 0 0 0 1.2-2 23.3 23.3 0 0 0 1.9-5 27.4 27.4 0 0 0 .7-3.3l.2-1.6a3.9 3.9 0 0 0 0-1.6l-.1-.2a3.1 3.1 0 0 0-1.3-1.6 2.6 2.6 0 0 0-1.6-.4Z" fill="url(#J)"/></g></svg>