<svg data-name="Layer 1" xmlns="http://www.w3.org/2000/svg" viewBox="0 0 136.3 77.6"><path d="M121 46h-.8a4.5 4.5 0 0 1-1.9-.3c-1-.5-1.3-1.1-2.4-1.2a2.6 2.6 0 0 0-2 .9 3.4 3.4 0 0 0-.9 2.3 4.4 4.4 0 0 0 .7 2.4c1 1.6 3.1 2.2 5.3 2.2 4.4 0 10.6-2.6 10.6-7.7a3.6 3.6 0 0 0-1.2-2.7c-1.8-1.8-5-2.9-6.7-4.5a1 1 0 0 1-.3-1 2.8 2.8 0 0 1 1-1.3c.6-.5 2.8-1.8 3.2-.4.1.5 0 .9.2 1.5a2 2 0 0 0 2 1c2.4 0 3.2-2.7 3-4.7a4.7 4.7 0 0 0-1.3-3.2A5.2 5.2 0 0 0 126 28c-4.5.1-11.4 4.8-11.3 9.8A4.3 4.3 0 0 0 116 41a11.8 11.8 0 0 0 4 2.3 12.6 12.6 0 0 1 1.4.8c.6.3 1.6 1.2.6 1.7a2.8 2.8 0 0 1-1 .3Zm-40.4-2.8c-.7.7-3 2.7-2.7 0a11.9 11.9 0 0 1 3-6c.8-.8 4.4-4 5.1-3.3.2.1.2.5 0 1a19.4 19.4 0 0 1-5.4 8.3Zm8.5-25.7a52.3 52.3 0 0 0-1.9 9.2c0 .6 0 .8-.5.8a16.6 16.6 0 0 0-6.1 2.8 18.5 18.5 0 0 0-5.2 5.2A22.4 22.4 0 0 0 74 38a14 14 0 0 0-1.9 6.5c0 .7 0 1.4-.8.4a5.2 5.2 0 0 1-.8-3 55 55 0 0 1 .8-6.4c.1-1.3.1-3.7-.7-4.7a3 3 0 0 0-3.3-.8c-2.5.7-4.4 2.7-6 4.7-.2.4-.4.5-.3-.1a8.5 8.5 0 0 1 .8-1.6 9 9 0 0 0 .6-1.6 1.9 1.9 0 0 0-.7-2.3 2.8 2.8 0 0 0-2.3-.2c-2 .6-3.2 2.7-4.2 5.7A46.6 46.6 0 0 0 52.9 48c0 1.5-.1 4.7 2 4.8a3.5 3.5 0 0 0 3.9-2.7 37.6 37.6 0 0 0 1.1-4.7c.4-1.9 2.2-6.3 4.6-7.4.4-.2.8-.2.6.4a17.6 17.6 0 0 0-.3 2.8v3c0 1.3.3 4.2 1.7 5.8a3.1 3.1 0 0 0 4.6.6l1.3-1.4h.5a2.6 2.6 0 0 0 .8 1 4.7 4.7 0 0 0 3.4.3c4.5-1 6.8-4.1 8-5.2 0 1.6 0 4.2 1.2 6a3.4 3.4 0 0 0 3 1.7 3.4 3.4 0 0 0 3-3.8c-.1-1-1-1.7-1.2-2.7a19.7 19.7 0 0 1-.2-4.8 64 64 0 0 1 .7-7.7c0-.4 0-.3.4-.4 2.5-.3 3.1-3.6 1.6-5l-.8-.7c-.3-.2-.2-.2-.2-.6V27c.4-3.1 2-8.5 2.8-11.6a2.5 2.5 0 0 0-.2-2 2 2 0 0 0-2-.8c-2.5.2-3.7 2.8-4.2 5ZM42.4 43.1l.2-1a22 22 0 0 1 2.6-5 5.5 5.5 0 0 1 1.4-1.3c.3-.3 1.3-.8 1.6-.3s0 1.6-.8 3.1a11.9 11.9 0 0 1-3 3.5c-.4.3-1.7 1.2-2 1ZM29 45.2a24.4 24.4 0 0 1-.5 2.7c-.1.7-.4 1.3-.7 1.3s-.5-.8-.6-1.4C27 41.6 27 36 27 29.9c0-3.3-.2-4.5-3-4.7a4.2 4.2 0 0 0-2.1.3c-1 .5-1.4 1.4-1.9 2.4a47.8 47.8 0 0 0-2 5.4L16 39c-1.3 4-2.3 8-3.4 12-.2.5-.7 1.2-.8 0a13.3 13.3 0 0 1 0-1.6c0-7.3.8-14.4 1.5-21.7.1-1.8.2-3.6 0-4.2-.5-.7-1.4-1-2.8-1a6 6 0 0 0-4.7 2.1c-.3.4 0 1 .2 1.3.5.5.5 1 .6 2.2.4 4.8-1 15.3-.9 23 0 2.7.4 8.5 1.3 11 1.3 3.5 4.6 3.6 7 1.5 1.3-1 1.5-2 2-3.5l.3-1.6 2.3-9.5 2-7.2c.4-1 .7-1.1.8 0l.3 3.8a77.1 77.1 0 0 0 1.2 11c.6 2.5 1.2 4.2 4.2 4.1 2 0 3.5-.6 4.3-3l1-3.7 1.2-5.5c.3-.8.7-.7 1.6-.5s1.4 0 1.4.6a7.4 7.4 0 0 0 2.5 5.5c3 2.7 7.5 1.3 10-1.3a5.2 5.2 0 0 0 1.9-3.8c-.1-1.5-1.5-1.8-2.7-1.2l-2.1 1.5a2.4 2.4 0 0 1-2.7 0 1.7 1.7 0 0 1-.7-1.4c0-.2 0-.4.2-.5a15 15 0 0 0 3.6-1.8c4-2.7 6.6-7 6.6-11.3 0-3.4-2.6-5.1-6.7-3.6-4.9 1.7-7.7 7.2-9 12-.1.3-.2.4-.6.4L36 43a3.5 3.5 0 0 1-.9-.2c-.3-.1-.3-.2-.3-.6l.4-1.4C36.7 35.6 38.2 30 40 25a15.9 15.9 0 0 0 1-4.4 2.9 2.9 0 0 0-1-2 2.3 2.3 0 0 0-2.6-.3c-1.6.8-2.7 3.4-3.6 6A135.1 135.1 0 0 0 29 45.3Zm65-1c.8 8.5 5.9 7.6 9 4.8a22.7 22.7 0 0 0 1.8-2c.1-.2.2 0 .2.3a23.1 23.1 0 0 1-.7 5.5c-1 3.7-3.6 6-7.5 5.7-1 0-1.9-.2-2.6-.3a2.2 2.2 0 0 0-2.4 2.5c.2 2.3 2.4 3.4 4.5 3.7a13.7 13.7 0 0 0 7.1-1.3 12.1 12.1 0 0 0 5.7-6.1 29.3 29.3 0 0 0 1.7-9 67.3 67.3 0 0 1 2-12.2c.4-1.5 1.3-4.6 1-6a2.3 2.3 0 0 0-2-2.2 3.8 3.8 0 0 0-2.6 1c-1.5 1.5-2.2 4-2.7 5.6-.8 2.6-1.7 6-3.3 8.2-.8 1-1.7 1.8-2.4 1.7-2.4-.4-.3-7.6.2-9a22.2 22.2 0 0 1 1-2.6 9.4 9.4 0 0 0 1-2 3 3 0 0 0-.2-1.8c-.6-1.3-1.8-1.5-3-1a5.1 5.1 0 0 0-2.3 1.4c-3 3.2-3.8 11.1-3.4 15.1Z" fill="#d1212e" fill-rule="evenodd"/></svg>