<svg data-name="Layer 1" xmlns="http://www.w3.org/2000/svg" viewBox="0 0 136.3 77.6"><path d="m105.3 60.5-1.6 5.6c-.1.4-.2.4-.6.4H102c-.4 0-.4 0-.5-.4l-1.3-4.4h-1.3V66c0 .4 0 .4-.5.4h-1c-.4 0-.4 0-.4-.4v-4.4h-1c-.4 0-.5 0-.5-.4v-.8c0-.3 0-.4.5-.4h1v-1.4c0-.3 0-.4.4-.4h1c.4 0 .5 0 .5.4v1.4h2.3c.4 0 .5 0 .6.4l.8 3.6.9-3.6c0-.3.1-.4.5-.4h1.1c.4 0 .4 0 .3.4Zm-.7-3.5H35c-2 0-2.3.2-2.3 2.2v6.4c0 2 .2 2.2 2.3 2.2h69.6c2 0 2.3-.2 2.3-2.2v-6.3c0-2-.2-2.3-2.3-2.3Zm0-47.3H86.2c-2 0-2.2.2-2.2 2.2v40.6c0 2 .2 2.2 2.2 2.2h18.4c2 0 2.3-.2 2.3-2.2v-6.3c0-2-.2-2.3-2.3-2.3h-8.3v-6.8h7.2c2 0 2.3-.2 2.3-2.3v-5.7c0-2-.2-2.2-2.3-2.2h-7.2v-6.6h8.3c2 0 2.3-.2 2.3-2.2V12c0-2-.2-2.2-2.3-2.2Zm-64.2 45H49c2 0 2 0 2.4-2l4.3-25 4.3 25c.4 2 .4 2 2.4 2h8.5c1.8 0 2.1-.2 2.3-1.3l8.5-41.2a9 9 0 0 0 .2-1.2c0-1-.6-1.3-2.3-1.3h-8c-2 0-2 .1-2.5 2l-3.4 26-2.8-17.2-1.5-8.8c-.4-1.9-.4-2-2.4-2h-6.6c-2 0-2 0-2.4 2l-1.4 8.8-2.9 17.1-3.4-25.8c-.3-2-.4-2-2.4-2h-8c-1.8 0-2.3.3-2.3 1.3a8 8 0 0 0 .2 1.2L38 53.4c.2 1.2.5 1.4 2.3 1.4Z" fill="#67b1e7" fill-rule="evenodd" data-name="we-tv/logo/network/primary"/></svg>