<svg id="Layer_1" data-name="Layer 1" xmlns="http://www.w3.org/2000/svg" viewBox="0 0 136.3 77.6"><defs><style>.cls-1{fill:#2bb9ad}.cls-2{fill:#ed6260}.cls-3{fill:#f3e5c5}.cls-11{fill:#31b8ac}.cls-16{fill:#ed6160}.cls-17{fill:#f4eccb}</style></defs><path class="cls-1" d="m12.9 30.2 1.1-2.5a26.2 26.2 0 0 1 3.4-5 23.7 23.7 0 0 1 5.6-4.8 23.2 23.2 0 0 1 4.4-2.1 24 24 0 0 1 4-1.1 13.2 13.2 0 0 1 2.5-.3l.4-.1h3.5a18.4 18.4 0 0 1 4.2.7 24.4 24.4 0 0 1 3.8 1.3 24.7 24.7 0 0 1 12.3 12 24.8 24.8 0 0 1 1.7 5.3 25.1 25.1 0 0 1 .5 6.7 20.4 20.4 0 0 1-.4 3 23.6 23.6 0 0 1-1 3.6 26 26 0 0 1-3.5 6.5 22.6 22.6 0 0 1-2 2.4 24 24 0 0 1-4.5 3.6l-2.7 1.4a23.6 23.6 0 0 1-5.4 1.8l-2.5.4c-.9.1-.8 0-.7-.7 0-1 0-2 .2-3 .2-.2.5-.2.7-.2a20.6 20.6 0 0 0 17.7-17.4A19.9 19.9 0 0 0 54.4 30a20.5 20.5 0 0 0-17-11.5 20.6 20.6 0 0 0-19.9 11.2 1 1 0 0 1-.4.5 5.5 5.5 0 0 0-2 .2H13Z"/><path class="cls-2" d="M11.6 35.7a7.2 7.2 0 0 1-1.4-.8l.8-.5c.4-.1.7-.4.7-.7s-.4-.6-.8-.7a9.2 9.2 0 0 0-1.8-.5 18.6 18.6 0 0 0-2.5-.1 3 3 0 0 1 1-.9 5.9 5.9 0 0 1 2.9-1.3 3.4 3.4 0 0 1 1.3.2 1 1 0 0 0 .6 0 30.5 30.5 0 0 0 4.6 1.3 3.4 3.4 0 0 0 2.1-.3 2 2 0 0 0 .9-.6 7.7 7.7 0 0 0 .8-1 6.3 6.3 0 0 1 4-2.4l2.3-.4a5 5 0 0 0 .9-.3c.4-.1.4-.4 0-.7a2 2 0 0 0-.5-.4l-.9-.3c-.2-.1-.5-.1-.4-.4s.3-.3.5-.3a8.7 8.7 0 0 1 1.5-.2 17.3 17.3 0 0 1 5 .2 7.7 7.7 0 0 1 4 2.3 29.5 29.5 0 0 1 2.4 3 4.5 4.5 0 0 1 .5 2.5V34c0 .3 0 .6.5.5l.3.1-.1.3c-.7.9-.7.9 0 1.6l.8 1a.8.8 0 0 1-.1 1.4c-.6.5-.6.5-.2 1 .3.5.2.7-.2 1-.1 0-.3 0-.5.2.1.2.3.2.5.3.2.4.3.7-.1 1s-.5.2-.3.6c.5 1.3-.5 2.2-2.1 2.1s-3-.4-4.4-.4a19.2 19.2 0 0 0-2.6.4 3.4 3.4 0 0 1-2.7-.8 6.2 6.2 0 0 0-2.7-1.4 2.8 2.8 0 0 0-1.7.1c-.2.1-.4.2-.6 0a.4.4 0 0 0-.5-.2c-2.9 1-5.5.2-8-.9A14.5 14.5 0 0 1 13 41c-.2-.1-.6-.2-.4-.5s.4-.2.6-.2a10.7 10.7 0 0 0 1.7.1c.3 0 .6 0 .6-.2s-.4-.4-.6-.5a11.3 11.3 0 0 0-2.2-.5 2.4 2.4 0 0 1-1.4-.5 11.9 11.9 0 0 1-1.6-.7 3.3 3.3 0 0 1-1.4-1.7 27.6 27.6 0 0 0 3 1 1 1 0 0 1 .8 0 5.7 5.7 0 0 0 2.8.1h.2-.1l-2.7-1c-.3-.2-.6-.3-.8-.6Z"/><path class="cls-1" d="M11.4 38.5a20.7 20.7 0 0 0 2.9.6l.9.3a.8.8 0 0 1 0 1 6 6 0 0 1-1.7 0 4.3 4.3 0 0 0-1 0 14.3 14.3 0 0 0 2.4 1.2l.5.3a1.5 1.5 0 0 1 .3.8A20.7 20.7 0 0 0 32 59a12 12 0 0 0 3.8.3 11.4 11.4 0 0 1 .2 2.2l.1 1.2c.1.4-.1.7-.6.5l-2.5-.1a22.7 22.7 0 0 1-3.5-.7 23.8 23.8 0 0 1-4.9-1.9 25 25 0 0 1-4.6-3.1l-2-1.8a22.4 22.4 0 0 1-3.2-4.4 23.6 23.6 0 0 1-2.5-5.7 23.1 23.1 0 0 1-.8-3.7 19 19 0 0 1-.1-3.3Z"/><path class="cls-3" d="M35.5 63.2a1.1 1.1 0 0 1 .3 0c.2 0 .2 0 .2-.3a27.1 27.1 0 0 1-.2-3.6s0 0-.1 0a2.6 2.6 0 0 1-.3-1.7l-.3-3.2a1.7 1.7 0 0 1 .1-1.2 7.3 7.3 0 0 1 3.2 0 1 1 0 0 1 .2.9l-.3 4.6a1.3 1.3 0 0 1-.3.7l-.2 2-.1 1.6c.2.2.4 0 .6.1a6.2 6.2 0 0 1-2.3.2c-.2 0-.4.1-.5-.1Z"/><path d="M19.3 31.5a1 1 0 0 1-1 .4 8 8 0 0 1-2.7-.3l-3-1a.2.2 0 0 1-.2-.2l.5-.2a3.6 3.6 0 0 1 2 0 1.6 1.6 0 0 0 .3 0 2.1 2.1 0 0 1 1 .1l2.5.9a1 1 0 0 1 .6.3Z" fill="#233443"/><path d="M11.6 35.7 15 37a.2.2 0 0 1 0 .4 3.4 3.4 0 0 1-2 .2 6.7 6.7 0 0 1-1.6-.4 5 5 0 0 1 0-1.5Z" fill="#2db9ad"/><path d="M35.2 53.2c0 1.5.3 3 .4 4.5v1.5l-.1.3a8.4 8.4 0 0 1-1.6-.1 6.6 6.6 0 0 0-1.2-.2 14.4 14.4 0 0 1-2.3-.4 20 20 0 0 1-4-1.6 20.5 20.5 0 0 1-4-2.8 19.5 19.5 0 0 1-1.5-1.4 21.8 21.8 0 0 1-3-4 19.3 19.3 0 0 1-1.9-4.2 11.3 11.3 0 0 1-.6-3 21.3 21.3 0 0 0 3.3 1 7.4 7.4 0 0 0 4 0 5.2 5.2 0 0 0 1.1-.4c.3.2 0 .5.2.7a4.6 4.6 0 0 1 1.2-.4 3.3 3.3 0 0 1 1.8.3 7.8 7.8 0 0 1 2 1.3 3 3 0 0 0 2.6.7 14 14 0 0 1 4-.3l3 .3a2 2 0 0 0 1.6-.4 1.3 1.3 0 0 0 .3-1.4 1.6 1.6 0 0 1-.1-.2c-.1-.4 0-.5.3-.6s.4 0 .4-.4-.2-.4-.5-.5l-.2-.1-.3-.3.3-.1a1 1 0 0 0 .6-.1c.4-.3.5-.4.1-.8L41 40a.5.5 0 0 1 0-.8 3.6 3.6 0 0 1 .4-.2c.5-.3.6-.7.2-1.2l-1-1.1a2.6 2.6 0 0 1-.5-.8.4.4 0 0 1 .1-.5c.3-.2.6-.3.8-.6-.2-.2-.3 0-.4 0s-.3.3-.5.2 0-.3 0-.5v-2a4.7 4.7 0 0 0-1.5-3.6 2.2 2.2 0 0 1-.7-1 3.2 3.2 0 0 0-1.2-1.4 9.3 9.3 0 0 0-4.4-1.8 21.5 21.5 0 0 0-4-.1 13.2 13.2 0 0 0-1.8.3l-.2.1 1.3.5a2.4 2.4 0 0 1 1 .7.4.4 0 0 1-.2.6 4.1 4.1 0 0 1-.7.3 20 20 0 0 1-2.3.4A6.2 6.2 0 0 0 21 30a3.1 3.1 0 0 1-1 1 1.2 1.2 0 0 1-1 0 7 7 0 0 1-2-.9 21.9 21.9 0 0 1 2-3.2 16.7 16.7 0 0 1 1.5-1.8 24.6 24.6 0 0 1 2.8-2.6 20.5 20.5 0 0 1 8.5-3.9 11.4 11.4 0 0 1 2.6-.3l1.3-.1 3 .2a19.8 19.8 0 0 1 6.3 2 19 19 0 0 1 3.8 2.3 19.8 19.8 0 0 1 2.8 2.8 21.3 21.3 0 0 1 2 2.8 21.8 21.8 0 0 1 1.6 3A19.8 19.8 0 0 1 56 34c.1.7.3 1.3.3 2a18.4 18.4 0 0 1 .3 3.4l-.3 2.2a20.5 20.5 0 0 1-.6 3 18.7 18.7 0 0 1-1.6 4 22.7 22.7 0 0 1-2.2 3.2 26.8 26.8 0 0 1-2.6 2.7 14.8 14.8 0 0 1-2.6 1.9 21.2 21.2 0 0 1-7.7 2.8 4.7 4.7 0 0 1-1 .1 13.3 13.3 0 0 1 0-1.5 8.5 8.5 0 0 0 .2-.9l.2-3.7c.4-.3.6-.5.1-.9a.5.5 0 0 1 0-.1 1 1 0 0 0 0-1 2 2 0 0 1 1.1-2.1 3.9 3.9 0 0 0 2-2.4c.2-.7.1-.9-.5-.9h-8.5c-.6 0-.7.2-.5.9A3.9 3.9 0 0 0 34 49a2.2 2.2 0 0 1 1.2 2 .7.7 0 0 1 0 .2.6.6 0 0 0 0 .1c-.5.3 0 .5 0 .7a.3.3 0 0 1 0 .2c0 .1-.3.1-.3.3s.2.4.3.6Z" fill="#223443"/><path d="M17.1 30a25.8 25.8 0 0 1 3 1c-.2.2-.4.5-.8.5a25.7 25.7 0 0 1-3.1-1 4.3 4.3 0 0 1-1-.4 2.9 2.9 0 0 1 2-.1Z" fill="#efe2c3"/><path d="M15.2 40.4v-1l.5.3c.3.3.3.5 0 .7a1.2 1.2 0 0 1-.5 0Z" fill="#353c49"/><path d="M15.2 37.4V37c.2 0 .4 0 .5.2h-.5Z" fill="#494953"/><path d="M35.2 53.2c-.6 0-.6 0-.6-.6a.3.3 0 0 1 .2 0h1.7c.3 0 .4-.3.7-.4a2 2 0 0 1 1.4.2c.4.1.6.3.5.5a.5.5 0 0 1-.6.4Z" fill="#30b9ad"/><path class="cls-3" d="m45.6 34.7.5-.2.4-.2c-.1.3-.3.4-.5.5-.5.4-.6.6-.2 1.1l1 1.2a3.6 3.6 0 0 1 .4.6.6.6 0 0 1-.2.8l-.5.4a.4.4 0 0 0 0 .7l.3.3a.4.4 0 0 1-.1.6 2.8 2.8 0 0 1-.3.2c-.3.1-.4.2-.1.4a3.2 3.2 0 0 1 .3.3c.3.2.2.4 0 .6s-.6 0-.7.3.2.4.3.6A1.3 1.3 0 0 1 46 44a1 1 0 0 1-1 .7h-1.7l.1-.4a1.4 1.4 0 0 0 .1-1.4.9.9 0 0 1 0-.2c-.2-.3-.2-.4.2-.5a3.6 3.6 0 0 0 .3-.1.3.3 0 0 0 .1-.6l-.6-.5a1 1 0 0 1 .5-.3c.4-.2.5-.5.2-.8l-.2-.1c-.4-.4-.4-.6 0-.9a2.5 2.5 0 0 1 .4-.2c.4-.2.5-.6.2-1.1l-.9-1a3.9 3.9 0 0 1-.3-.4c-.6-.7-.5-.8.1-1.4a1.2 1.2 0 0 0 .4-.4 2.4 2.4 0 0 0-.7.3c-.2.1-.3 0-.3-.1a5.5 5.5 0 0 1 0-.6 9.9 9.9 0 0 0 0-3.1 4.2 4.2 0 0 0-1.2-2.1 3.4 3.4 0 0 1-.8-1.2 3 3 0 0 0-1-1.2 9 9 0 0 0-4.4-2 6.5 6.5 0 0 0-1.3 0 2.9 2.9 0 0 1 1.7-.2h.9a9.4 9.4 0 0 1 5.5 2.1 3.3 3.3 0 0 1 1.2 1.5c0 .3.3.5.5.7a4.8 4.8 0 0 1 1.2 1.8 8.7 8.7 0 0 1 .3 3.5 2 2 0 0 0 0 .9ZM35 51.3a2.9 2.9 0 0 0-.2-.8 1.6 1.6 0 0 0-1-1.2 4.2 4.2 0 0 1-2-2.6c-.2-1-.1-1 .8-1h8.6c.7 0 .9.1.7.8a4.2 4.2 0 0 1-2.5 2.9 1 1 0 0 0-.6.7 3.2 3.2 0 0 0-.2 1.2.6.6 0 0 1-.5.2h-2.7a.4.4 0 0 1-.4-.2Z"/><path class="cls-11" d="M35 51.3h3.6c.3.4.3.5 0 .9l-2.9.2a.8.8 0 0 1-.5-.2 1.3 1.3 0 0 1-.3-.2c-.3-.2-.3-.3 0-.6a3.5 3.5 0 0 0 1.6.1 3.4 3.4 0 0 1-1.6 0l.1-.2Z"/><path class="cls-11" d="M34.8 52.6h-.2c.1-.3.3-.3.5-.3a5.2 5.2 0 0 1 2 0c-.2.2-.3.5-.6.4a6.6 6.6 0 0 0-1.7-.1Z"/><path d="M37 52.3h-1.9 3.5Z" fill="#e0dec0"/><path d="M34.8 52.6a2 2 0 0 1 1.7 0H35c-.1.1-.2.1-.2 0Z" fill="#cfd8b0"/><path d="M32 46h1c.4 0 .5 0 .6.5a6.4 6.4 0 0 0 1 2.4 3.9 3.9 0 0 1-2.5-2.8Z" fill="#ed6461"/><path d="M34.9 51.4h2a3.2 3.2 0 0 1-1.7.3.3.3 0 0 1-.3-.3Z" fill="#b8d3af"/><path class="cls-16" d="M76 42.6V37a.4.4 0 0 1 .3.3l1.6 5c.1.2.2.4.4.4h2.3c.2 0 .3-.1.4-.3.4-1.6 1-3.1 1.5-4.6l.2-.6a6 6 0 0 1 .1 1.8v3.7H85c.7 0 .6 0 .6-.6V28.5c0-.3 0-.3-.4-.3h-2.1c-.2 0-.3 0-.4.3L81.5 32 80 37a9 9 0 0 1-.5 1.4l-.2-.5-1.7-5.1-1.4-4.2c0-.2 0-.3-.3-.3h-2.3c-.2 0-.2 0-.2.2v14.2ZM99.4 28.7V42.3c0 .2 0 .3.3.3h2.1c.3 0 .4 0 .4-.3V39a1.3 1.3 0 0 1 0-.6h1.2a.4.4 0 0 1 .6.3l.1.4 1.3 3.3c0 .2.1.2.3.2h2.5v-.2l-1.4-3.5a.7.7 0 0 1 .1-1l.8-.6a.9.9 0 0 0 .3-.8v-7a5.5 5.5 0 0 0-1-1 1 1 0 0 0-.8-.3H100c-.7 0-.6-.1-.6.5Zm3 2.2h1.9a.9.9 0 0 1 .8.8v3.1a.7.7 0 0 1-.7.8h-2c-.2 0-.3-.2-.3-.4v-4c0-.3.1-.3.4-.3Z"/><path class="cls-17" d="M129.6 47.7h-1.3a12 12 0 0 0-1.3 0v7.6a.5.5 0 0 1-.4-.4l-.8-1.9-1.5-3.4a12.9 12.9 0 0 1-.8-1.7c0-.2-.2-.2-.4-.2h-1.8c-.7 0-.6-.1-.6.5v13c0 .2 0 .3.3.3h2c.4 0 .4 0 .4-.4v-6.7a1 1 0 0 1 0-.6l.7 1.5 1 2.1.9 1.8.9 2a.4.4 0 0 0 .4.3h2.4l-.1-13.8Z"/><path class="cls-16" d="M120.8 28.2a1 1 0 0 0 0 .6V42a2.3 2.3 0 0 1 0 .3c0 .2 0 .3.2.3h2.1c.4 0 .4 0 .4-.4v-5a1.5 1.5 0 0 1 0-.6l3 .7a.4.4 0 0 1 .3.4v4.4c0 .5 0 .5.5.5h2l.3-.1V28.4c0-.1 0-.2-.2-.2h-2.6V33a10 10 0 0 1 0 1.6L124 34c-.3-.1-.4-.2-.4-.5v-4.7a2.2 2.2 0 0 0 0-.5c0-.1 0-.2-.2-.2a10.1 10.1 0 0 1-1.5 0Z"/><path class="cls-17" d="M118.6 49c-.1-.4-.6-.7-.8-1a.9.9 0 0 0-.8-.3h-4.3a3.4 3.4 0 0 0-1.2 0l-1 .8a1 1 0 0 0-.3.9V59a3.2 3.2 0 0 0 0 1.2c.2.4.6.6.9 1a1 1 0 0 0 .7.3h4.3a3.2 3.2 0 0 0 1.3 0c.4-.2.6-.7 1-1a.8.8 0 0 0 .2-.6v-9.7a3.4 3.4 0 0 0 0-1.3Zm-2.6 8.9c0 .7-.3 1-1.1 1h-1a.9.9 0 0 1-.7-.3 1 1 0 0 1-.3-.6v-6.7a1 1 0 0 1 1-1h1c.8 0 1 .3 1 1V58Z"/><path class="cls-16" d="m90.9 28.4-1 4.1-1.5 6.1-1 3.6c0 .3 0 .4.4.4h2c.5 0 .5 0 .6-.4a1.1 1.1 0 0 0 0-.2l.6-2.5c.1-.3.2-.3.5-.2l2.5.6a.6.6 0 0 1 .5.5l.5 2c0 .2 0 .3.2.3h2.4c.2 0 .2-.1.2-.2a2 2 0 0 0 0-.4l-.5-2-1.5-5.8-.8-3.5-.6-2.2c0-.3-.1-.4-.4-.4h-2.8c-.2 0-.2 0-.3.2Zm1 7.9.7-3.2a5.9 5.9 0 0 1 .4 1.4l.6 2.2c0 .2 0 .3-.3.3l-1.2-.3c-.3 0-.3-.2-.3-.4Z"/><path class="cls-17" d="m82.3 57.2-.9-3.7-1.4-5.4c0-.4 0-.4-.5-.4h-2.7c-.2.2-.3.7-.4 1v.1l-1 4-.6 2.6-.9 3.7-.5 2c-.1.3 0 .4.3.4h1.8c.6 0 .5 0 .7-.5l.6-2.4c0-.3.2-.3.4-.2a19.6 19.6 0 0 0 2.5.6.4.4 0 0 1 .3.3l.5 1.9c0 .2.2.3.4.3h2.4v-.2l-1-4Zm-3.3-1-1.3-.3s-.2-.1-.1-.3l.3-1.6.4-1.4c.4.2.3.5.4.8l.6 2.4c0 .3 0 .4-.3.3Z"/><path class="cls-16" d="M110.4 41.2c.2.5.7.7 1 1.1a.9.9 0 0 0 .7.3h5.3l1.1-1v-.2a.4.4 0 0 0 .2-.3v-2.5c0-.2 0-.2-.2-.2H116l-.1.4c0 .7-.3 1-1 1h-1a1 1 0 0 1-1-1V32a.9.9 0 0 1 1-1h1a1 1 0 0 1 1 1v.5h2.4c.2 0 .3 0 .3-.2v-1.4a3.5 3.5 0 0 0 0-1.3c-.2-.4-.6-.7-.9-1a1 1 0 0 0-.8-.3H113a3.2 3.2 0 0 0-1.2 0l-1 .8a1.1 1.1 0 0 0-.3 1v9.9a3.7 3.7 0 0 0 0 1.3ZM75.3 24l.6 2.4c0 .2.1.3.3.3h1.9c.2 0 .4-.1.4-.4l.5-1.8a1.4 1.4 0 0 1 .1.2l.4 1.7c0 .2.1.3.3.3h2A2547 2547 0 0 1 84.7 16a14.8 14.8 0 0 0-2 0c-.1 0-.2.1-.2.3l-.4 1.7-1.1 4.3c0 .1 0 .4-.2.5l-.7-2.7a.8.8 0 0 1 0-.4l.8-3.2c0-.4 0-.5-.4-.5h-.9a.3.3 0 0 0-.3.2l-.3.9a2.4 2.4 0 0 1-.4-.8.4.4 0 0 0-.4-.3H77l.6 2.4a3.8 3.8 0 0 1 .2 2.4l-.6 2.1-1-4.3-.6-2.2c-.1-.4-.1-.4-.5-.4h-1.6c-.2.2 0 .7.1 1l1.7 6.9ZM93.6 26a1.7 1.7 0 0 0 0 .3.3.3 0 0 0 .3.3h1.7v-4a1.3 1.3 0 0 1 .3.4l.9 2.7c0 .3.1.7.3.9s.7 0 1 0 .8.2 1 0 .3-.6.4-1l1-3a1.5 1.5 0 0 1 0 .7v3.1a.3.3 0 0 0 .3.3h1.8V16.3c0-.2 0-.3-.2-.3h-1.6c-.1 0-.2 0-.3.3a1.7 1.7 0 0 1 0 .3l-2.3 6.8a1.9 1.9 0 0 1-.2-.4l-1.3-4-.9-2.6c0-.2 0-.4-.3-.4h-1.6c-.2 0-.3.1-.2.3a2 2 0 0 1 0 .2Z"/><path class="cls-17" d="M92.8 49a6 6 0 0 0-1-1 .7.7 0 0 0-.6-.3h-4a3.5 3.5 0 0 0-1.2 0c-.4.2-.7.6-1 .9a.8.8 0 0 0-.3.6V59a3.5 3.5 0 0 0 0 1.3l1 .9a.9.9 0 0 0 .6.3h4a3.3 3.3 0 0 0 1.2 0 4.8 4.8 0 0 0 1-1h.1a.3.3 0 0 0 .1-.3v-2.5a.2.2 0 0 0-.2-.2h-2.2a.2.2 0 0 0-.2.2 4.3 4.3 0 0 0 0 .5.4.4 0 0 1-.2.5c-.2.1-.4.3-.8.3a5 5 0 0 0-.7 0 1 1 0 0 1-1-1v-6.8a.7.7 0 0 1 .3-.5 1 1 0 0 1 .8-.4 5.4 5.4 0 0 0 1 0 .7.7 0 0 1 .4.1c.3.3.2.6.2 1s.1.4.5.4h1.8c.3 0 .4 0 .4-.4v-1.1c0-.3.2-1 0-1.4Z"/><path class="cls-16" d="M111.3 16.6V26.3c0 .3 0 .3.3.3h1.1c.7 0 .6.1.6-.5v-5.3a.4.4 0 0 1 .3.2 64.8 64.8 0 0 0 1.6 3.7l.8 1.6c0 .2.1.3.3.3h1.7a.2.2 0 0 0 .2-.2V16.3c0-.1 0-.3-.3-.3h-1.4c-.3 0-.4 0-.4.4V22a.2.2 0 0 1-.2-.2 544 544 0 0 1-2.4-5.5.3.3 0 0 0-.4-.2h-1.5c-.2 0-.3 0-.3.3v.3Z"/><path class="cls-17" d="M103.5 47.7H95c-.2 0-.3 0-.3.3v2c0 .2.1.3.4.3h2a.7.7 0 0 1 .5.2 1.1 1.1 0 0 1 .4.9v10.1h2.7V51a.7.7 0 0 1 .2-.5.7.7 0 0 1 .5-.3h2l.3-.1v-2.2a.2.2 0 0 0-.2-.2Z"/><path class="cls-16" d="M86.3 26.4a1 1 0 0 0 .7.2h3.2a1.7 1.7 0 0 0 1.6-.6 1 1 0 0 0 .3-.8V18a1.8 1.8 0 0 0-.7-1.6 1 1 0 0 0-.7-.3h-3.3a1.6 1.6 0 0 0-1.3.6 1.3 1.3 0 0 0-.4 1v7.1a1.8 1.8 0 0 0 .6 1.7Zm1.4-7.7c0-.4.2-.6.6-.6h1a.7.7 0 0 1 .8.7V24a.7.7 0 0 1-.7.7h-1.1a.6.6 0 0 1-.6-.6V18.7ZM124.1 26.4a1 1 0 0 0 .7.2h2.4c1 0 1 0 1.9-.8a.7.7 0 0 0 .2-.5v-2.9a.8.8 0 0 0-.5-.8l-3.1-2a.5.5 0 0 1-.3-.5v-.5a.5.5 0 0 1 .6-.5 4 4 0 0 1 .7 0 .6.6 0 0 1 .5.6l.1.4h2a8.1 8.1 0 0 1 0-1.1 1.7 1.7 0 0 0-.7-1.7 1 1 0 0 0-.7-.3h-2.5c-1 0-1 0-1.8.8a.8.8 0 0 0-.2.5V20a.5.5 0 0 0 .3.5l2.8 2c.9.7.7.2.7 1.3a.7.7 0 0 1-.4.8 1.3 1.3 0 0 1-1.2-.1.5.5 0 0 1-.2-.5c0-.1.1-.3 0-.4h-2a7.9 7.9 0 0 1 0 1 1.7 1.7 0 0 0 .7 1.8ZM104.7 26.6h4.8c.2 0 .3 0 .3-.3V25c0-.4 0-.4-.4-.4h-2.3c-.6 0-.7-.1-.7-.7v-1c0-.4.1-.6.7-.6h1.6c.2 0 .4 0 .4-.3v-1.4c0-.2-.1-.3-.4-.3H107a.5.5 0 0 1-.6-.6v-.8c0-.7 0-.8.7-.8h2.4c.3 0 .3 0 .3-.4v-1.3c0-.3 0-.3-.3-.3h-4.8c-.4 0-.4 0-.4.3v9.9c0 .3.1.3.4.3Z"/><path class="cls-17" d="M106.6 47.7a8.2 8.2 0 0 0-1.3 0v13.8h1.3a8.2 8.2 0 0 0 1.3 0V47.7Z"/><path d="M74 45.7h55.6v-.1a.3.3 0 0 0 0-.2H73.4l-.2.1a.1.1 0 0 0 .2.2Z" fill="#3ac0b5"/><path d="M56.9 58.2a2 2 0 0 0-2.1 2 2.1 2.1 0 0 0 4.2 0 2 2 0 0 0-2.1-2Zm0 3.6a1.6 1.6 0 0 1-1.6-1.7 1.6 1.6 0 0 1 1.6-1.5 1.6 1.6 0 0 1 0 3.2Z" fill="#2ebbaf"/><path class="cls-2" d="M120.2 18c.5 0 .6.2.6.8 0 .3.2.3.4.3a1.7 1.7 0 0 1 .3 0c.3 0 .4 0 .4-.3v-2.5c0-.2-.1-.3-.3-.3h-1.5c-.2 0-.3.1-.3.3v1.5c0 .2.1.3.4.3Z"/><path d="M57.6 60.5V60c.3-.4.1-.7-.3-.8a1.6 1.6 0 0 0-1 0c-.1 0-.2 0-.2.2V61c0 .2 0 .3.2.3s.3 0 .3-.3v-.3s0-.2.2-.2h.3a1.2 1.2 0 0 1 .2.4c0 .4.2.4.6.3a4 4 0 0 1-.1-.4.6.6 0 0 0-.1-.3ZM57 60c-.3 0-.3-.2-.3-.3s0-.4.3-.3.4.1.4.3-.2.3-.4.3Z" fill="#31bcb0"/></svg>