<svg id="Layer_1" data-name="Layer 1" xmlns="http://www.w3.org/2000/svg" viewBox="0 0 136.3 77.6"><defs><radialGradient id="radial-gradient" cx="26.4" cy="-1335.2" r="2.6" gradientTransform="translate(-290.5 18553) scale(13.89)" gradientUnits="userSpaceOnUse"><stop offset="0" stop-color="#c2228a"/><stop offset=".6" stop-color="#8f2e8a"/><stop offset="1" stop-color="#5c328c"/></radialGradient><radialGradient id="radial-gradient-2" cx="23.3" cy="-1334.8" r="5.6" gradientTransform="translate(-290.5 18553) scale(13.89)" gradientUnits="userSpaceOnUse"><stop offset="0" stop-color="#34ace0"/><stop offset=".6" stop-color="#299fd7"/><stop offset="1" stop-color="#1364ac"/></radialGradient><style>.cls-2{fill:#8f2e8a}</style></defs><path d="M99.4 8.9H76.8a3 3 0 0 0-3 3 2.8 2.8 0 0 0 .4 1.4L85.5 33a3 3 0 0 0 5.2 0L102 13.3a2.8 2.8 0 0 0 .4-1.4 3 3 0 0 0-3-3Z" fill="url(#radial-gradient)"/><path class="cls-2" d="M104 10.5a1.6 1.6 0 0 1 1.6-1.6 1.6 1.6 0 0 1 1.7 1.6 1.6 1.6 0 0 1-1.6 1.7 1.6 1.6 0 0 1-1.7-1.7Zm.3 0a1.3 1.3 0 1 0 1.4-1.3 1.3 1.3 0 0 0-1.4 1.3Z"/><path class="cls-2" d="M106.3 11.3h-.2a.1.1 0 0 1-.1 0l-.5-.6v.6h-.4V9.8l.1-.1h.5l.4.1a.7.7 0 0 1 .2.5c0 .2-.2.4-.4.4l.4.5v.1Zm-.4-1.3a2.3 2.3 0 0 0-.5 0v.5h.5a.3.3 0 0 0 0-.2V10Z"/><path d="M64.3 36.7Zm19.9.4-.2-.2-14-24.3-.3-.4a6.8 6.8 0 0 0-6-3.3H52.4a2.3 2.3 0 0 0-2.3 2.3 2.1 2.1 0 0 0 .3 1.1l14 24.4a7.2 7.2 0 0 1 1 3.7 7.4 7.4 0 0 1-1 3.7L52.2 65.3a2.2 2.2 0 0 0-.2 1 2.3 2.3 0 0 0 2.3 2.4H66a6.8 6.8 0 0 0 6-3.3l.2-.5L84 44.7l.2-.4a7 7 0 0 0 .9-3.5 7.3 7.3 0 0 0-1-3.6Z" fill="url(#radial-gradient-2)"/><path d="M51.6 47a4 4 0 0 0-.6 0 10.5 10.5 0 0 1-2.2.3 2.8 2.8 0 0 1-1-.2c-.6-.3-.7-1-.7-1.9h4.4c.6 0 .8 0 .8-1a5.5 5.5 0 0 0-.7-3.1c-.5-.8-1.4-1.1-2.9-1.1s-2.6.4-3.1 1.1a5.9 5.9 0 0 0-.7 3.5c0 1.7.2 2.9 1 3.6a4.1 4.1 0 0 0 2.9.8 16.4 16.4 0 0 0 2.7-.2c.5 0 .6-.4.6-.8a3.8 3.8 0 0 0 0-.6c0-.2-.2-.5-.5-.5Zm-4.4-3.4c0-1.4.2-1.8 1.5-1.8s1.4.5 1.4 1.6v.3h-3v-.1ZM40.8 40a5.6 5.6 0 0 0-2.4.6v-3.3a.7.7 0 0 0-.8-.8h-.8c-.5 0-.8.2-.8.8v10.8c0 .5.2.7.7.7h1c.5 0 .6-.2.6-.8v-4c0-1.4.3-1.8 1.6-1.8s1.3.5 1.3 1.6V48c0 .5.2.8.7.8h1c.5 0 .7-.3.7-.8v-5.5c0-1.1-.6-2.5-2.8-2.5Zm-6.6 2.1h-2v3.6a3.8 3.8 0 0 0 .2 1.4.3.3 0 0 0 .2.1l1.5-.3a.5.5 0 0 1 .5.5v.7c0 .6-.2.8-.8.9h-1.5c-2 0-2.3-.6-2.3-2.8v-4h-.5c-.4 0-.5-.3-.5-.6V41c0-.5.2-.6.5-.6h.5v-1.5c0-.6.3-.8.8-.8h.8a.7.7 0 0 1 .7.8v1.5H34c.4 0 .6 0 .6.5v.7c0 .6-.1.7-.4.7Z" fill="#299fd7"/><path class="cls-2" d="m76.4 63 1.3 2.4 1.3.7a.3.3 0 0 1 .2.4l-.2.3c-.1.2-.2.3-.4.1l-1.3-.7h-2.8a.4.4 0 0 1-.2 0 .2.2 0 0 1-.1-.3l.2-.4a.3.3 0 0 1 .3-.2h2l-1-1.7a.3.3 0 0 1 0-.4l.2-.2c0-.2.2-.2.3-.1a.6.6 0 0 1 .2.2Zm6-2.2-.1.3c-.1.2-.2.2-.4 0L79.3 60l.4.5 1.3 1.4a.4.4 0 0 1 0 .5l-.1.1a.3.3 0 0 1-.5.2l-1.9-.3-.5-.1 2.4 1.5a.3.3 0 0 1 0 .5v.2c-.2.2-.3.3-.5.1l-3.4-2.3c-.2-.1-.1-.3 0-.4l.2-.4a.3.3 0 0 1 .3-.2l2.8.5-1.8-2.2a.3.3 0 0 1 0-.4l.2-.3c0-.1.2-.3.4-.1l3.7 1.7c.2 0 .2.2.1.4Zm2-3.1a7.9 7.9 0 0 1-.4.7 3.6 3.6 0 0 1-.5.6c-.7.8-1.5.5-2.6 0-1.8-1-1.8-1.9-1-3 0-.4.2-.5.3-.7s.3-.3.4-.2h.2c.3.2.3.3.2.5l-.4.6a2.2 2.2 0 0 0-.3.7c0 .4.4.7 1.1 1.1s1.2.7 1.6.2a3.9 3.9 0 0 0 .3-.4l.4-.7c0-.2.2-.2.4 0h.2c.1.2.2.3 0 .6Zm2.1-4-.1.3a.3.3 0 0 1-.4.2l-1-.2-.3.8-.4.6.5.7c.2.1.2.2.1.4l-.2.3c0 .2-.1.2-.2.2a.8.8 0 0 1-.2-.2l-2.7-3.2c-.2-.2-.2-.3-.1-.5l.1-.3a.4.4 0 0 1 .5-.2l4.3.8h.1a.2.2 0 0 1 0 .3Zm-3.9-.1 1.2 1.3.2-.5.3-.5Z"/></svg>